<?xml version="1.0" encoding="UTF-8" standalone="no"?>
<!-- Created with Inkscape (http://www.inkscape.org/) -->

<svg
   xmlns:dc="http://purl.org/dc/elements/1.1/"
   xmlns:cc="http://creativecommons.org/ns#"
   xmlns:rdf="http://www.w3.org/1999/02/22-rdf-syntax-ns#"
   xmlns:svg="http://www.w3.org/2000/svg"
   xmlns="http://www.w3.org/2000/svg"
   xmlns:xlink="http://www.w3.org/1999/xlink"
   xmlns:sodipodi="http://sodipodi.sourceforge.net/DTD/sodipodi-0.dtd"
   xmlns:inkscape="http://www.inkscape.org/namespaces/inkscape"
   id="svg2"
   version="1.1"
   inkscape:version="0.48.5 r10040"
   width="2481"
   height="3503"
   sodipodi:docname="Pepper-and-Carrot_by-David-Revoy_E19P01.svg">
  <metadata
     id="metadata8">
    <rdf:RDF>
      <cc:Work
         rdf:about="">
        <dc:format>image/svg+xml</dc:format>
        <dc:type
           rdf:resource="http://purl.org/dc/dcmitype/StillImage" />
        <dc:title />
      </cc:Work>
    </rdf:RDF>
  </metadata>
  <defs
     id="defs6" />
  <sodipodi:namedview
     pagecolor="#ffffff"
     bordercolor="#666666"
     borderopacity="1"
     objecttolerance="10"
     gridtolerance="10"
     guidetolerance="10"
     inkscape:pageopacity="0"
     inkscape:pageshadow="2"
     inkscape:window-width="1600"
     inkscape:window-height="837"
     id="namedview4"
     showgrid="false"
     inkscape:zoom="0.48579173"
     inkscape:cx="1269.2026"
     inkscape:cy="682.04639"
     inkscape:window-x="0"
     inkscape:window-y="27"
     inkscape:window-maximized="1"
     inkscape:current-layer="layer1"
     showguides="false" />
  <g
     inkscape:groupmode="layer"
     id="layer2"
     inkscape:label="artwork"
     sodipodi:insensitive="true">
    <image
       sodipodi:absref="/home/alex/Documents/Code/Pepper_Carrot/peppercarrot_ep19_translation/en/../gfx_Pepper-and-Carrot_by-David-Revoy_E19P01.png"
       xlink:href="../gfx_Pepper-and-Carrot_by-David-Revoy_E19P01.png"
       y="0"
       x="0"
       id="image10"
       height="3503"
       width="2481" />
  </g>
  <g
     inkscape:groupmode="layer"
     id="layer3"
     inkscape:label="speechbubbles">
    <path
       style="color:#000000;display:inline;overflow:visible;visibility:visible;fill:#ffffff;fill-opacity:1;fill-rule:nonzero;stroke:none;stroke-width:1px;marker:none;enable-background:accumulate"
       d="m 1029.8393,1936.5674 c -4.0128,-29.8516 27.4228,-65.8653 141.2314,-57.9056 113.8089,7.9598 136.1975,21.984 139.559,60.2936 1.3936,15.8826 -28.9185,40.5945 -45.71,44.5744 -16.7915,3.9798 -86.4023,4.5754 -114.3882,1.3916 -27.9856,-3.1839 -88.0421,-10.1473 -104.8336,-24.4749 -16.7916,-14.3274 -13.9928,-20.6952 -15.8586,-23.8791 z"
       id="path3365"
       inkscape:connector-curvature="0"
       sodipodi:nodetypes="csssssc" />
    <path
       style="color:#000000;display:inline;overflow:visible;visibility:visible;fill:#ffffff;fill-opacity:1;fill-rule:nonzero;stroke:none;stroke-width:1px;marker:none;enable-background:accumulate"
       d="m 1363.5975,2079.5776 c -10.4681,54.0667 -57.8418,78.2371 -97.1541,92.8985 -73.3677,23.2222 -150.2516,11.5665 -224.1702,-0.9669 -38.3508,-8.9095 -77.85504,-47.3197 -73.84514,-99.1832 3.87538,-46.4894 41.05464,-76.7852 76.88974,-81.1038 52.5333,-15.0719 107.3206,-22.414 160.735,-9.5916 45.8651,7.3208 94.9852,9.3053 135.8358,38.2204 13.6517,15.2781 18.8969,38.1542 21.7089,59.7266 z"
       id="path3365-3"
       inkscape:connector-curvature="0" />
    <path
       style="fill:#ffffff;stroke:none"
       d="m 998.33695,2303.3382 c 5.93595,-65.0079 58.67905,-123.6524 126.73975,-132.7072 83.4407,-19.3221 172.1415,-16.91 255.4084,1.6039 54.45,15.3145 83.72,33.0113 126.0234,76.9697 28.0526,32.2399 43.6166,133.5962 -1.8203,165.2173 -47.3003,46.2301 -174.0453,56.472 -238.1717,55.2084 -92.2991,1.9026 -185.0278,-9.3322 -230.6096,-47.837 -42.62138,-36.9425 -43.37526,-70.3318 -37.56995,-118.4551 z"
       id="path3065"
       inkscape:connector-curvature="0"
       sodipodi:nodetypes="cccccccc" />
    <path
       style="display:inline;fill:#ffffff;stroke:none"
       d="m 1642.9487,2316.2979 c -21.9558,36.2988 -64.6442,61.9501 -96.7367,35.7869 -19.4449,-15.8524 -29.1134,-28.291 -29.1134,-28.291 l -6.3679,30.9322 20.7854,19.5483 c 0,0 65.508,31.9103 111.4326,-57.9764 z"
       id="path3063-1"
       inkscape:connector-curvature="0"
       sodipodi:nodetypes="cscccc" />
    <path
       style="color:#000000;display:inline;overflow:visible;visibility:visible;fill:#ffffff;fill-opacity:1;fill-rule:nonzero;stroke:none;stroke-width:1px;marker:none;enable-background:accumulate"
       d="m 1913.7084,2318.7633 c 22.0218,-14.8351 108.7391,-27.5791 195.348,-26.0229 86.6089,1.5563 169.6176,9.704 220.3618,46.2927 74.763,53.907 40.7099,177.1599 1.9878,197.9002 -28.0636,15.0314 -112.0563,28.518 -192.5037,30.0346 -80.4472,1.5168 -157.3491,-8.9363 -194.921,-22.5197 -32.4257,-11.723 -79.6687,-43.6247 -83.5261,-120.7802 -1.5743,-31.4904 9.21,-75.2341 53.2532,-104.9047 z"
       id="path4040"
       inkscape:connector-curvature="0"
       sodipodi:nodetypes="ssssssss" />
    <path
       style="color:#000000;display:inline;overflow:visible;visibility:visible;fill:#ffffff;fill-opacity:1;fill-rule:nonzero;stroke:none;stroke-width:1px;marker:none;enable-background:accumulate"
       d="m 2091.5868,2309.6031 c -12.6779,-33.6245 -30.9699,-60.7293 -65.977,-55.676 52.3023,-18.546 92.9308,35.3617 103.6224,53.2726 10.6914,17.9109 -37.6454,2.4034 -37.6454,2.4034 z"
       id="path5010"
       inkscape:connector-curvature="0" />
    <path
       style="color:#000000;display:inline;overflow:visible;visibility:visible;fill:#ffffff;fill-opacity:1;fill-rule:nonzero;stroke:none;stroke-width:1px;marker:none;enable-background:accumulate"
       d="m 589.19653,2726.3612 c -1.22698,-26.3558 12.3258,-45.2414 63.85643,-62.4534 51.53087,-17.2119 124.66319,-9.0026 143.85163,-8.4347 90.04631,2.665 120.21817,11.5648 138.62194,30.9284 18.40389,19.3634 23.10564,15.1087 22.45523,48.6465 -0.58229,30.0255 -5.78422,44.1361 -27.8688,50.5905 -22.0847,6.4545 -191.74536,13.8487 -217.86599,13.5611 -25.57408,-0.2816 -58.13545,-3.5096 -83.49079,-14.0823 -23.93605,-9.9808 -38.33275,-32.4002 -39.55965,-58.7561 z"
       id="path3373"
       inkscape:connector-curvature="0"
       sodipodi:nodetypes="zsssssssz" />
    <path
       style="color:#000000;display:inline;overflow:visible;visibility:visible;fill:#ffffff;fill-opacity:1;fill-rule:nonzero;stroke:none;stroke-width:1px;marker:none;enable-background:accumulate"
       d="m 681.52274,2857.9187 c 9.25794,-68.447 78.45067,-107.7189 279.54834,-111.8075 52.59562,-1.0693 135.53802,17.4372 176.84122,33.397 41.3033,15.9598 71.7356,76.0534 65.5637,126.2086 -12.3439,100.3103 -141.3233,83.591 -176.8122,84.7711 -35.48887,1.1803 -292.31321,22.2443 -333.61087,-38.5274 -30.99953,-45.6174 -13.07316,-72.7995 -11.53019,-94.0418 z"
       id="path4546"
       inkscape:connector-curvature="0"
       sodipodi:nodetypes="csssssc" />
    <path
       style="color:#000000;display:inline;overflow:visible;visibility:visible;fill:#ffffff;fill-opacity:1;fill-rule:nonzero;stroke:none;stroke-width:1px;marker:none;enable-background:accumulate"
       d="m 864.77409,2984.4513 c 31.03786,-39.6698 199.85571,-36.2833 256.02451,-19.0964 56.1686,17.1867 80.4507,21.8571 79.6811,57.2893 -0.7205,33.1719 -18.834,64.1707 -47.5716,73.719 -28.7374,9.5482 -96.1156,9.3505 -124.8531,9.3505 -28.73741,0 -120.47366,-6.0774 -143.6874,-20.0513 -22.20623,-13.3675 -50.6315,-61.5414 -19.59351,-101.2111 z"
       id="path3330"
       inkscape:connector-curvature="0"
       sodipodi:nodetypes="zsssssz" />
    <path
       style="color:#000000;display:inline;overflow:visible;visibility:visible;fill:#ffffff;fill-opacity:1;fill-rule:nonzero;stroke:none;stroke-width:1px;marker:none;enable-background:accumulate"
       d="m 933.09499,3160.516 c 39.78505,-10.9584 53.20162,-17.1208 58.43434,-65.1641 5.23266,-48.0433 23.16177,-44.6696 23.16177,-44.6696 l 14.7504,30.3838 c 0,0 -18.3423,101.2684 -96.34651,79.4499 z"
       id="path3072"
       inkscape:connector-curvature="0" />
    <path
       style="fill:#ffffff;fill-rule:evenodd;stroke:none;stroke-width:1px;stroke-linecap:butt;stroke-linejoin:miter;stroke-opacity:1"
       d="m 1891.4248,3239.5273 c 26.3898,2.1524 60.7586,-8.5621 39.4235,-40.9681 38.3979,25.9662 74.7721,30.83 113.0657,2.4031 -5.5978,28.6978 57.0153,30.9119 78.4695,11.9225 -6.546,29.906 23.5543,31.0596 48.7068,32.0091 -53.2076,36.5615 -25.2677,48.1891 -4.3022,61.9598 -52.2903,-10.1884 -39.6437,10.4551 -45.8893,22.1285 -44.8572,-26.449 -77.4789,-20.1718 -103.251,4.4257 -13.479,-13.3768 -17.7099,-41.0242 -67.3998,1.4752 18.2722,-36.6892 -5.6785,-32.8382 -44.4553,-14.7522 8.9214,-8.4337 46.471,-30.9658 -14.3679,-28.9705 9.5003,-2.97 17.1236,-6.2033 22.4963,-9.7524 5.3727,-3.5491 -29.1749,-13.0242 -28.6769,-17.2571 0.4981,-4.2329 36.0419,-3.2235 30.9182,-8.2451 -5.1237,-5.0215 -13.2451,-10.4635 -24.7376,-16.3785 z"
       id="path4584"
       inkscape:connector-curvature="0"
       sodipodi:nodetypes="cccccccccccsssc" />
    <path
       style="color:#000000;display:inline;overflow:visible;visibility:visible;fill:#ffffff;fill-opacity:1;fill-rule:nonzero;stroke:none;stroke-width:1px;marker:none;enable-background:accumulate"
       d="m 1929.0839,3276.1051 c -26.7744,0.1934 -96.6935,-12.0611 -103.8888,-13.0148 6.0705,-5.4371 10.1298,-10.8932 13.4021,-15.1162 -13.7156,-0.9263 -59.5001,-2.596 -79.7676,1.5975 50.7453,-11.4228 73.8083,-12.6417 95.8809,-9.8645 -2.9601,5.998 -5.8701,9.4267 -7.3188,12.6033 18.7307,6.708 117.9634,8.8349 106.078,1.4065 z"
       id="path5066"
       inkscape:connector-curvature="0"
       sodipodi:nodetypes="cccccccc" />
  </g>
  <g
     inkscape:groupmode="layer"
     id="layer1"
     inkscape:label="txt">
    <text
       xml:space="preserve"
       style="font-style:normal;font-variant:normal;font-weight:normal;font-stretch:normal;font-size:12px;line-height:125%;font-family:Lavi;-inkscape-font-specification:Lavi;text-align:center;letter-spacing:0px;word-spacing:0px;text-anchor:middle;fill:#000000;fill-opacity:1;stroke:none"
       x="2137.0017"
       y="2370.491"
       id="text4246"
       sodipodi:linespacing="125%"><tspan
         sodipodi:role="line"
         style="font-size:45px"
         x="2137.0017"
         y="2370.491"
         id="tspan4252" /></text>
    <text
       xml:space="preserve"
       style="font-size:12px;font-style:normal;font-variant:normal;font-weight:normal;font-stretch:normal;text-align:center;line-height:125%;letter-spacing:0px;word-spacing:0px;text-anchor:middle;fill:#000000;fill-opacity:1;stroke:none;font-family:Lavi;-inkscape-font-specification:Lavi"
       x="1168.0322"
       y="2032.8386"
       id="text4246-3"
       sodipodi:linespacing="125%"><tspan
         sodipodi:role="line"
         style="font-size:45px"
         x="1168.0322"
         y="2032.8386"
         id="tspan4183">No use in</tspan><tspan
         sodipodi:role="line"
         style="font-size:45px"
         x="1168.0322"
         y="2089.0886"
         id="tspan3951">watching you</tspan><tspan
         sodipodi:role="line"
         style="font-size:45px"
         x="1175.9424"
         y="2145.3386"
         id="tspan3953">dig... </tspan></text>
    <text
       xml:space="preserve"
       style="font-size:12px;font-style:normal;font-variant:normal;font-weight:normal;font-stretch:normal;text-align:center;line-height:125%;letter-spacing:0px;word-spacing:0px;text-anchor:middle;fill:#000000;fill-opacity:1;stroke:none;font-family:Lavi;-inkscape-font-specification:Lavi"
       x="1268.4561"
       y="2249.5215"
       id="text4246-3-7"
       sodipodi:linespacing="125%"><tspan
         sodipodi:role="line"
         style="font-size:45px"
         x="1268.4561"
         y="2249.5215"
         id="tspan4222">Bury all these failed</tspan><tspan
         sodipodi:role="line"
         style="font-size:45px"
         x="1268.4561"
         y="2305.7715"
         id="tspan3964">potions for me and</tspan><tspan
         sodipodi:role="line"
         style="font-size:45px"
         x="1268.4561"
         y="2362.0215"
         id="tspan3966">get in as soon as you</tspan><tspan
         sodipodi:role="line"
         style="font-size:45px"
         x="1276.3662"
         y="2418.2715"
         id="tspan3968">can to rest. </tspan></text>
    <text
       xml:space="preserve"
       style="font-size:12px;font-style:normal;font-variant:normal;font-weight:normal;font-stretch:normal;text-align:center;line-height:125%;letter-spacing:0px;word-spacing:0px;text-anchor:middle;fill:#000000;fill-opacity:1;stroke:none;font-family:Lavi;-inkscape-font-specification:Lavi"
       x="2111.6384"
       y="2365.1826"
       id="text4246-3-7-6"
       sodipodi:linespacing="125%"><tspan
         sodipodi:role="line"
         style="font-size:45px"
         x="2111.6384"
         y="2365.1826"
         id="tspan4193">Seeing you succeed</tspan><tspan
         sodipodi:role="line"
         style="font-size:45px"
         x="2111.6384"
         y="2421.4326"
         id="tspan3979">tomorrow is probably</tspan><tspan
         sodipodi:role="line"
         style="font-size:45px"
         x="2111.6384"
         y="2477.6826"
         id="tspan3981">just wishful thinking,</tspan><tspan
         sodipodi:role="line"
         style="font-size:45px"
         x="2111.6384"
         y="2533.9326"
         id="tspan3983">but who knows!</tspan></text>
    <text
       xml:space="preserve"
       style="font-size:12px;font-style:normal;font-variant:normal;font-weight:normal;font-stretch:normal;text-align:center;line-height:125%;letter-spacing:0px;word-spacing:0px;text-anchor:middle;fill:#000000;fill-opacity:1;stroke:none;font-family:Lavi;-inkscape-font-specification:Lavi"
       x="775.45044"
       y="2707.4324"
       id="text4246-3-7-6-7"
       sodipodi:linespacing="125%"><tspan
         sodipodi:role="line"
         style="font-size:45px"
         x="775.45044"
         y="2707.4324"
         id="tspan4515">Alright,</tspan><tspan
         sodipodi:role="line"
         style="font-size:45px"
         x="783.3606"
         y="2763.6824"
         id="tspan3987">I'll hurry </tspan></text>
    <text
       xml:space="preserve"
       style="font-size:12px;font-style:normal;font-variant:normal;font-weight:normal;font-stretch:normal;text-align:center;line-height:125%;letter-spacing:0px;word-spacing:0px;text-anchor:middle;fill:#000000;fill-opacity:1;stroke:none;font-family:Lavi;-inkscape-font-specification:Lavi"
       x="942.81274"
       y="2838.0046"
       id="text4246-3-7-6-7-0"
       sodipodi:linespacing="125%"><tspan
         sodipodi:role="line"
         style="font-size:45px"
         x="942.81274"
         y="2838.0046"
         id="tspan4774">But, by the way, what's</tspan><tspan
         sodipodi:role="line"
         style="font-size:45px"
         x="942.81274"
         y="2894.2546"
         id="tspan4778">this thing about always</tspan><tspan
         sodipodi:role="line"
         style="font-size:45px"
         x="950.7229"
         y="2950.5046"
         id="tspan4770"><tspan
   style="stroke:#000000;stroke-width:1.29999995;stroke-miterlimit:4;stroke-opacity:1;stroke-dasharray:none"
   id="tspan4772">burying everything</tspan>? </tspan></text>
    <text
       xml:space="preserve"
       style="font-size:12px;font-style:normal;font-variant:normal;font-weight:normal;font-stretch:normal;text-align:center;line-height:125%;letter-spacing:0px;word-spacing:0px;text-anchor:middle;fill:#000000;fill-opacity:1;stroke:none;font-family:Lavi;-inkscape-font-specification:Lavi"
       x="1026.5442"
       y="3025.0105"
       id="text4246-3-7-6-7-0-9"
       sodipodi:linespacing="125%"><tspan
         sodipodi:role="line"
         style="font-size:45px"
         x="1026.5442"
         y="3025.0105"
         id="tspan4464">Wouldn't it be</tspan><tspan
         sodipodi:role="line"
         style="font-size:45px"
         x="1034.4543"
         y="3081.2605"
         id="tspan4782">better if we... </tspan></text>
    <text
       xml:space="preserve"
       style="font-size:12px;font-style:normal;font-variant:normal;font-weight:normal;font-stretch:normal;text-align:center;line-height:125%;letter-spacing:0px;word-spacing:0px;text-anchor:middle;fill:#000000;fill-opacity:1;stroke:none;font-family:Lavi;-inkscape-font-specification:Lavi"
       x="2037.533"
       y="3281.2891"
       id="text4246-3-7-6-7-0-9-3"
       sodipodi:linespacing="125%"><tspan
         sodipodi:role="line"
         style="font-size:45px"
         x="2037.533"
         y="3281.2891"
         id="tspan4464-5">If <tspan
   style="stroke:#000000;stroke-width:2.5999999;stroke-miterlimit:4;stroke-opacity:1;stroke-dasharray:none"
   id="tspan4493">WHAT</tspan>?</tspan></text>
    <text
       xml:space="preserve"
       style="font-size:12px;font-style:normal;font-variant:normal;font-weight:normal;font-stretch:normal;text-align:center;line-height:125%;letter-spacing:0px;word-spacing:0px;text-anchor:middle;fill:#000000;fill-opacity:1;stroke:none;font-family:Lavi;-inkscape-font-specification:Lavi"
       x="1177.4561"
       y="1942.5215"
       id="text4246-3-9"
       sodipodi:linespacing="125%"><tspan
         sodipodi:role="line"
         style="font-size:45px"
         x="1185.3662"
         y="1942.5215"
         id="tspan4183-8">I'm going in. </tspan></text>
  </g>
</svg>
