<?xml version="1.0" encoding="UTF-8" standalone="no"?>
<!-- Created with Inkscape (http://www.inkscape.org/) -->

<svg
   xmlns:dc="http://purl.org/dc/elements/1.1/"
   xmlns:cc="http://creativecommons.org/ns#"
   xmlns:rdf="http://www.w3.org/1999/02/22-rdf-syntax-ns#"
   xmlns:svg="http://www.w3.org/2000/svg"
   xmlns="http://www.w3.org/2000/svg"
   xmlns:xlink="http://www.w3.org/1999/xlink"
   xmlns:sodipodi="http://sodipodi.sourceforge.net/DTD/sodipodi-0.dtd"
   xmlns:inkscape="http://www.inkscape.org/namespaces/inkscape"
   id="svg2"
   version="1.1"
   inkscape:version="0.48.5 r10040"
   width="2481"
   height="3503"
   sodipodi:docname="Pepper-and-Carrot_by-David-Revoy_E19P02.svg">
  <metadata
     id="metadata8">
    <rdf:RDF>
      <cc:Work
         rdf:about="">
        <dc:format>image/svg+xml</dc:format>
        <dc:type
           rdf:resource="http://purl.org/dc/dcmitype/StillImage" />
        <dc:title />
      </cc:Work>
    </rdf:RDF>
  </metadata>
  <defs
     id="defs6">
    <filter
       inkscape:collect="always"
       style="color-interpolation-filters:sRGB"
       id="filter5236-4-16-3"
       x="-0.0089085409"
       width="1.0178171"
       y="-0.027928527"
       height="1.0558571">
      <feGaussianBlur
         inkscape:collect="always"
         stdDeviation="0.49168068"
         id="feGaussianBlur5238-0-4-6" />
    </filter>
    <filter
       inkscape:collect="always"
       style="color-interpolation-filters:sRGB"
       id="filter5236-4-16"
       x="-0.0089085409"
       width="1.0178171"
       y="-0.027928527"
       height="1.0558571">
      <feGaussianBlur
         inkscape:collect="always"
         stdDeviation="0.49168068"
         id="feGaussianBlur5238-0-4" />
    </filter>
  </defs>
  <sodipodi:namedview
     pagecolor="#ffffff"
     bordercolor="#666666"
     borderopacity="1"
     objecttolerance="10"
     gridtolerance="10"
     guidetolerance="10"
     inkscape:pageopacity="0"
     inkscape:pageshadow="2"
     inkscape:window-width="1600"
     inkscape:window-height="837"
     id="namedview4"
     showgrid="false"
     inkscape:zoom="0.42242759"
     inkscape:cx="1329.7232"
     inkscape:cy="501.21382"
     inkscape:window-x="0"
     inkscape:window-y="27"
     inkscape:window-maximized="1"
     inkscape:current-layer="layer1" />
  <g
     inkscape:groupmode="layer"
     id="layer2"
     inkscape:label="artwork"
     sodipodi:insensitive="true">
    <image
       sodipodi:absref="/home/alex/Documents/Code/Pepper_Carrot/peppercarrot_ep19_translation/en/../gfx_Pepper-and-Carrot_by-David-Revoy_E19P02.png"
       xlink:href="../gfx_Pepper-and-Carrot_by-David-Revoy_E19P02.png"
       y="0"
       x="0"
       id="image10"
       height="3503"
       width="2481" />
  </g>
  <g
     inkscape:groupmode="layer"
     id="layer4"
     inkscape:label="translatornotes"
     sodipodi:insensitive="true">
    <path
       inkscape:connector-curvature="0"
       id="path3446"
       d="m 2763.8482,1498.4924 0,-189.0352 -203.8301,0 0,90.9805 -10,0 0,-15.6308 -30.9824,26.9824 30.9824,26.9804 0,-16.6171 10,0 0,76.3398 203.8301,0 z"
       style="color:#000000;clip-rule:nonzero;display:inline;overflow:visible;visibility:visible;opacity:0.481;isolation:auto;mix-blend-mode:normal;color-interpolation:sRGB;color-interpolation-filters:linearRGB;solid-color:#000000;solid-opacity:1;fill:#ffe680;fill-opacity:1;fill-rule:nonzero;stroke:#565656;stroke-width:1.20000005;stroke-linecap:butt;stroke-linejoin:miter;stroke-miterlimit:4;stroke-dasharray:none;stroke-dashoffset:0;stroke-opacity:1;marker:none;color-rendering:auto;image-rendering:auto;shape-rendering:auto;text-rendering:auto;enable-background:accumulate" />
    <flowRoot
       transform="translate(2793.4167,295.2096)"
       style="font-style:normal;font-variant:normal;font-weight:normal;font-stretch:normal;font-size:25.3241539px;line-height:125%;font-family:Lavi;-inkscape-font-specification:'Lavi, Normal';text-align:center;letter-spacing:0px;word-spacing:0px;writing-mode:lr-tb;text-anchor:middle;display:inline;opacity:0.481;fill:#000000;fill-opacity:1;stroke:none;stroke-width:1px;stroke-linecap:butt;stroke-linejoin:miter;stroke-opacity:1"
       id="flowRoot3448"
       xml:space="preserve"><flowRegion
         id="flowRegion3450"><rect
           y="1061.6674"
           x="-275.14545"
           height="247.52747"
           width="291.95547"
           id="rect3452" /></flowRegion><flowPara
         id="flowPara3473">labels</flowPara><flowPara
         id="flowPara4255">in the </flowPara><flowPara
         id="flowPara4257">garden :-)</flowPara></flowRoot>  </g>
  <g
     inkscape:groupmode="layer"
     id="layer3"
     inkscape:label="speechbubbles"
     style="display:inline">
    <path
       style="color:#000000;display:inline;overflow:visible;visibility:visible;fill:#ffffff;fill-opacity:1;fill-rule:nonzero;stroke:none;stroke-width:1px;marker:none;enable-background:accumulate"
       d="m 1032.3542,205.21153 c 23.8691,-33.00508 262.2444,-52.95808 332.4898,1.28361 58.6327,45.27477 51.3245,158.02515 7.0867,183.99506 -44.2378,25.97 -202.0731,22.95568 -272.4966,11.18158 -67.0529,-11.21059 -82.1269,-45.04841 -93.4925,-113.18065 -4.6388,-27.80742 2.5433,-50.27443 26.4126,-83.2796 z"
       id="path4040-4"
       inkscape:connector-curvature="0"
       sodipodi:nodetypes="zssssz" />
    <path
       style="color:#000000;display:inline;overflow:visible;visibility:visible;fill:#ffffff;fill-opacity:1;fill-rule:nonzero;stroke:none;stroke-width:1px;marker:none;enable-background:accumulate"
       d="m 1216.5614,476.56228 c 6.9239,-83.26194 76.1241,-142.52218 253.2604,-122.24973 94.8837,10.85894 202.6906,19.15821 193.6501,141.15955 -9.0406,122.00121 -164.0727,114.85538 -196.1354,116.88586 -32.0628,2.03061 -198.6013,-15.08851 -227.0811,-57.40395 -17.8279,-26.48834 -24.6401,-52.57412 -23.694,-78.39173 z"
       id="path4546-6"
       inkscape:connector-curvature="0"
       sodipodi:nodetypes="cssssc" />
    <path
       style="color:#000000;display:inline;overflow:visible;visibility:visible;fill:#ffffff;fill-opacity:1;fill-rule:nonzero;stroke:none;stroke-width:1px;marker:none;enable-background:accumulate"
       d="m 1373.7671,597.86525 c 49.1874,-54.36806 306.9083,-42.72099 398.1708,-30.49517 135.4887,18.15053 129.7006,68.44448 133.8408,82.83913 4.1399,14.39453 -6.2102,81.13301 -51.7522,94.2191 -45.5418,13.08596 -175.957,19.62893 -221.4989,19.62893 -45.5418,0 -190.9214,-8.32917 -227.7096,-27.48061 -35.1914,-18.32036 -80.2386,-84.34344 -31.0509,-138.71138 z"
       id="path3330"
       inkscape:connector-curvature="0"
       sodipodi:nodetypes="zsssssz" />
    <path
       style="color:#000000;display:inline;overflow:visible;visibility:visible;fill:#ffffff;fill-opacity:1;fill-rule:nonzero;stroke:none;stroke-width:1px;marker:none;enable-background:accumulate"
       d="m 1537.5273,696.39507 c -4.748,19.68499 -0.6503,33.38997 2.5742,37.35036 3.2245,3.96027 2.3513,12.12365 5.2378,17.57337 2.3614,4.51862 3.5729,10.81257 -0.8434,12.64306 -4.4163,1.83058 -29.4289,3.69855 -33.6755,16.66121 -4.2467,12.96272 3.9771,24.00648 14.1454,30.32451 10.1684,6.31815 24.4145,10.44127 22.2717,20.40102 -2.1427,9.95976 -9.8422,13.23017 -15.8741,13.66024 -6.0318,0.43007 -42.6593,-1.86158 -51.9545,1.56498 -9.295,3.4266 -34.8875,18.35716 -31.0179,31.36521 11.9004,-13.15184 18.3151,-19.01847 27.1348,-20.36055 8.8198,-1.34212 24.7212,-5.09072 34.6744,-1.78852 9.9534,3.30225 30.2251,7.01956 38.1327,2.88942 7.9077,-4.13 22.6869,-13.91278 22.9796,-24.81049 0.2928,-10.89767 -5.2053,-22.98724 -21.3925,-31.19418 -10.1682,-6.31811 -14.5522,-10.2849 -13.6078,-13.29434 0.9444,-3.00939 11.8681,-7.35452 23.4562,-6.13032 11.5882,1.22424 17.0469,-9.49086 18.0108,-15.97871 0.9638,-6.48781 -2.7884,-15.67273 -3.2186,-21.7046 -0.4301,-6.03183 -6.7045,-40.19004 -6.7045,-40.19004 z"
       id="path5058"
       inkscape:connector-curvature="0"
       sodipodi:nodetypes="cscsssssscssssccscccc" />
    <path
       style="color:#000000;display:inline;overflow:visible;visibility:visible;fill:#ffffff;fill-opacity:1;fill-rule:nonzero;stroke:none;stroke-width:1px;marker:none;enable-background:accumulate"
       d="m 1386.1881,1850.679 c 6.9079,-72.8146 44.795,-99.1263 128.0819,-102.9449 41.3518,-1.896 191.1218,-8.4705 251.8318,4.7034 60.71,13.1739 112.6774,53.5217 108.0722,106.8774 -4.6052,53.3556 -10.0524,94.6842 -76.3541,109.7874 -66.3016,15.1032 -193.4576,3.9809 -206.6978,4.6086 -26.4802,1.2554 -163.6253,-16.4555 -186.5129,-53.9834 -14.3271,-23.4915 -19.5724,-46.4506 -18.4211,-69.0485 z"
       id="path4546-6-3"
       inkscape:connector-curvature="0"
       sodipodi:nodetypes="cssssssc" />
    <path
       style="color:#000000;display:inline;overflow:visible;visibility:visible;fill:#ffffff;fill-opacity:1;fill-rule:nonzero;stroke:none;stroke-width:1px;marker:none;enable-background:accumulate"
       d="m 1760.2318,1983.0096 c -2.1894,-13.9006 21.8159,-72.4119 155.3725,-63.1448 133.5566,9.2671 147.5063,20.9339 153.6003,70.8244 2.2523,18.4386 -18.5316,45.3021 -38.2367,49.9356 -19.7051,4.6335 -77.3192,17.7137 -110.1609,14.007 -32.8418,-3.7069 -81.3209,-2.8275 -129.6411,-22.2636 -29.1638,-11.7307 -28.7446,-45.6518 -30.9341,-49.3586 z"
       id="path3365"
       inkscape:connector-curvature="0"
       sodipodi:nodetypes="csssssc" />
    <path
       style="fill:#ffffff;fill-opacity:1;stroke:none"
       d="m 1772.3486,2174.102 c -7.3871,-125.6982 70.9159,-167.1213 276.2768,-161.4077 205.3608,5.7134 287.4779,43.6546 294.0579,118.5531 14.7136,167.4797 -112.48,205.7235 -180.3184,214.2661 -135.5047,17.0635 -329.4423,-27.1444 -356.0358,-62.8541 -26.5934,-35.7098 -32.5031,-75.7046 -33.9805,-108.5574 z"
       id="path3238"
       inkscape:connector-curvature="0"
       sodipodi:nodetypes="cssssc" />
    <path
       style="color:#000000;display:inline;overflow:visible;visibility:visible;fill:#ffffff;fill-opacity:1;fill-rule:nonzero;stroke:none;stroke-width:1px;marker:none;enable-background:accumulate"
       d="m 1882.8016,2295.7967 c -30.6436,39.5697 -91.823,73.3362 -171.3605,30.1552 76.0815,26.4581 119.8575,-5.9599 145.0149,-45.5895 21.7184,-34.2122 33.4899,-49.0683 33.4899,-49.0683 z"
       id="path4440"
       inkscape:connector-curvature="0"
       sodipodi:nodetypes="ccscc" />
    <path
       style="color:#000000;display:inline;overflow:visible;visibility:visible;fill:#ffffff;fill-opacity:1;fill-rule:nonzero;stroke:none;stroke-width:1px;marker:none;enable-background:accumulate"
       d="m 99.104281,2756.9074 c 26.232639,-10.9597 38.666349,-18.5558 0.458237,-34.3247 7.844982,-0.1198 51.624252,-2.1442 9.767152,-32.9366 13.8,3.9749 35.86784,14.5291 11.02706,-36.5871 14.93612,8.1494 35.65375,34.2072 17.48056,-14.0742 19.68024,16.3179 45.60842,6.0013 40.30072,-2.5708 15.83874,10.4052 46.94431,9.5448 44.27984,0.7154 11.64511,9.6323 43.19202,12.4562 40.71636,-3.6881 9.67608,11.0973 39.70587,9.9541 36.76192,0.5253 25.36934,11.2241 62.04581,18.1422 75.90708,2.4934 11.83584,14.8098 66.89103,10.3376 113.06616,0.2295 0.7233,10.4538 52.11644,12.2889 94.00148,-4.7288 0.63394,15.8808 15.74858,21.2619 34.21827,9.5749 6.5956,6.5186 4.83525,10.3103 30.75452,-5.1216 -1.23739,10.6121 3.37613,20.4024 21.43492,10.2432 3.14588,6.5649 -8.36616,23.5801 37.27833,-1.2805 0.30174,9.2802 -10.41257,27.5037 28.8906,5.1216 -31.88352,55.1372 -14.21246,49.2359 7.4556,38.4113 -16.87112,32.5259 -38.63091,72.8685 4.24505,71.3855 -33.57227,7.514 -32.98537,18.687 -28.47585,36.1663 -42.07694,-35.1981 -47.02081,-8.4487 -65.23697,-3.8411 -19.23063,-5.8556 -36.94693,-27.3135 -59.64504,2.5608 -34.77236,-12.2937 -41.66636,-1.0176 -53.12155,6.402 -60.74999,-23.5924 -59.31498,-4.468 -86.67197,-5.1217 -16.17448,-29.1834 -52.67449,-7.1717 -79.2163,-10.2429 -33.55031,-23.9307 -83.47464,-2.9536 -109.59281,6.2711 12.76533,-14.9487 -18.6704,-28.2936 -48.56601,4.1237 14.84555,-27.3926 -9.51158,-36.628 -54.98539,-1.3493 21.36932,-32.458 -8.18465,-27.285 -41.27952,-6.4848 32.39001,-31.5409 -1.83686,-34.2446 -21.252449,-31.8718 z"
       id="path3557"
       inkscape:connector-curvature="0"
       sodipodi:nodetypes="cccccccccccccccccccccccccccccc" />
    <path
       style="color:#000000;display:inline;overflow:visible;visibility:visible;fill:#ffffff;fill-opacity:1;fill-rule:nonzero;stroke:none;stroke-width:1px;marker:none;enable-background:accumulate"
       d="m 261.83032,2839.4096 c 10.60717,-70.6242 99.57519,-119.8728 323.5194,-99.848 119.95659,10.7263 256.34032,19.4825 242.19748,122.9836 -14.14297,103.5009 -210.37585,94.9774 -251.03681,96.195 -40.66095,1.2177 -251.24981,-15.9605 -286.39412,-52.3594 -21.99952,-22.7848 -30.05379,-45.0533 -28.28595,-66.9712 z"
       id="path4546"
       inkscape:connector-curvature="0"
       sodipodi:nodetypes="cssssc" />
    <path
       style="fill:#ffffff;stroke:none"
       d="m 1699.0759,2765.6805 c 5.7041,-60.4636 40.1072,-85.0538 55.7177,-93.079 15.6104,-8.0252 81.1443,-18.3199 123.9526,-16.548 42.8084,1.7719 148.9291,10.4999 166.7759,13.4066 17.8468,2.9066 65.4584,48.234 64.9477,87.2344 -0.5106,39.0001 -10.0571,64.619 -36.0695,87.3886 -26.0126,22.7698 -181.2008,27.1856 -190.7622,24.6219 -9.5615,-2.5636 -137.2512,-23.0237 -145.2214,-29.8572 -7.9703,-6.8334 -40.2716,-25.5131 -39.3408,-73.1673 z"
       id="path3278"
       inkscape:connector-curvature="0" />
    <path
       style="color:#000000;fill:#ffffff;fill-opacity:1;fill-rule:nonzero;stroke:none;stroke-width:1px;marker:none;visibility:visible;display:inline;overflow:visible;enable-background:accumulate"
       d="m 1751.8024,2884.441 c 40.137,-46.9028 378.9373,-97.8131 498.0135,-1.1561 119.076,96.657 46.8496,212.6455 -21.4729,249.5509 -68.3223,36.9054 -269.3852,77.3256 -361.1324,45.6924 -91.7471,-31.6332 -163.2125,-78.9187 -167.8779,-175.74 -1.9041,-39.5167 12.3329,-71.4441 52.4697,-118.3472 z"
       id="path4040"
       inkscape:connector-curvature="0"
       sodipodi:nodetypes="zssssz" />
    <path
       style="display:inline;fill:#ffffff;fill-rule:evenodd;stroke:none;stroke-width:1px;stroke-linecap:butt;stroke-linejoin:miter;stroke-opacity:1"
       d="m 1858.2846,3128.185 c 54.0726,28.5286 84.8732,16.9272 83.945,-49.3868 25.7977,71.6603 43.7001,87.6873 54.3174,52.3799 34.1545,30.3481 55.4868,21.8353 72.4233,0 6.3126,28.0816 19.8502,16.7498 31.5662,15.3549 3.8587,6.3532 -9.3945,22.1376 44.1489,1.1073 3.4683,8.4093 8.1404,15.651 39.5035,-2.9931 8.1252,34.1321 34.1946,-1.8917 60.9015,-40.4074 -16.6392,47.3518 -9.7396,54.0398 11.5219,35.9176 -9.7206,19.4998 -15.5345,34.5948 21.3976,1.4966 -12.6437,35.9927 20.5271,11.2875 74.0693,-40.4072 -26.7826,38.2124 -97.8041,102.6164 -51.0254,97.2767 -6.5236,11.2651 -29.7928,21.0802 39.5035,38.9107 -12.9367,7.6442 -52.432,-3.5263 -19.4858,28.8398 4.4141,3.7834 -10.3633,6.0937 17.8398,16.0571 -16.6486,-0.6778 -26.8588,1.7436 -11.5219,16.4623 -30.3899,-0.7959 -19.0193,14.6808 3.292,34.4209 -44.0088,-25.3209 -46.4307,-16.1182 -47.7336,-5.9862 -55.1559,-34.521 -58.3935,-23.6523 -65.8391,-16.4623 -26.8844,0.2694 -53.7688,-4.0779 -80.6533,34.421 -7.0406,-23.9452 -21.1563,-42.3768 -80.653,-25.4415 26.1236,-30.4626 -11.0406,-11.0548 -39.5036,1.4965 15.5869,-38.0554 -23.9704,-13.0797 -74.0692,23.945 28.0551,-42.0237 -3.8089,-26.8437 -51.0255,2.9932 17.8399,-41.2842 -11.214,-61.2497 -80.6531,-62.8558 33.2356,-14.8917 52.6169,-33.6324 18.1059,-67.3454 38.9037,9.9269 50.5081,0.7062 23.0437,-35.9176 42.4336,30.0605 23.1406,-13.5407 6.584,-53.8762 z"
       id="path4508"
       inkscape:connector-curvature="0"
       sodipodi:nodetypes="cccccccccccccccccccccccccccc" />
    <path
       style="color:#000000;display:inline;overflow:visible;visibility:visible;fill:#ffffff;fill-opacity:1;fill-rule:nonzero;stroke:none;stroke-width:1px;marker:none;enable-background:accumulate"
       d="m 1490.4164,2866.2226 c 36.6716,-30.7338 78.1642,-56.332 109.2346,-93.0329 l -8.5001,41.4633 c 17.679,-7.3977 29.5108,-24.339 43.3282,-38.0398 l -1.0152,26.2988 c 41.5356,-17.9715 69.9349,-49.3371 104.6834,-74.2288 l -5.4459,45.8738 c -37.8988,21.0955 -78.4597,35.8216 -113.3641,64.0815 l -1.6444,-25.6614 c -13.3358,8.0961 -26.3965,16.7337 -38.2287,27.7896 l 0.8284,-32.5393 z"
       id="path4032"
       inkscape:connector-curvature="0"
       sodipodi:nodetypes="cccccccccccc" />
    <path
       style="color:#000000;display:inline;overflow:visible;visibility:visible;fill:#ffffff;fill-opacity:1;fill-rule:nonzero;stroke:none;stroke-width:1px;marker:none;enable-background:accumulate"
       d="m 990.3039,2942.0433 c -39.7219,-30.7338 -84.6659,-56.332 -118.3207,-93.0329 l 9.2071,41.4633 c -19.1495,-7.3977 -31.9655,-24.339 -46.9322,-38.0398 l 1.0996,26.2988 c -44.9905,-17.9715 -75.7521,-49.3371 -113.3909,-74.2288 l 5.8989,45.8738 c 41.0512,21.0955 84.9859,35.8216 122.7937,64.0815 l 1.7812,-25.6614 c 14.445,8.0961 28.5921,16.7337 41.4085,27.7896 l -0.8973,-32.5393 z"
       id="path4032-6"
       inkscape:connector-curvature="0"
       sodipodi:nodetypes="cccccccccccc" />
  </g>
  <g
     inkscape:groupmode="layer"
     id="layer1"
     inkscape:label="txt">
    <text
       xml:space="preserve"
       style="font-size:12px;font-style:normal;font-variant:normal;font-weight:normal;font-stretch:normal;text-align:center;line-height:125%;letter-spacing:0px;word-spacing:0px;text-anchor:middle;fill:#000000;fill-opacity:1;stroke:none;font-family:Lavi;-inkscape-font-specification:Lavi"
       x="1190.5322"
       y="235.33875"
       id="text4246"
       sodipodi:linespacing="125%"><tspan
         sodipodi:role="line"
         style="font-size:45px"
         x="1190.5322"
         y="235.33875"
         id="tspan4252">Uhm...</tspan></text>
    <text
       xml:space="preserve"
       style="font-size:12px;font-style:normal;font-variant:normal;font-weight:normal;font-stretch:normal;text-align:center;line-height:125%;letter-spacing:0px;word-spacing:0px;text-anchor:middle;fill:#000000;fill-opacity:1;stroke:none;font-family:Lavi;-inkscape-font-specification:Lavi"
       x="1209.7961"
       y="304.09506"
       id="text4246-3"
       sodipodi:linespacing="125%"><tspan
         sodipodi:role="line"
         style="font-size:45px"
         x="1209.7961"
         y="304.09506"
         id="tspan4164">Well, of course,</tspan><tspan
         sodipodi:role="line"
         style="font-size:45px"
         x="1209.7961"
         y="360.34506"
         id="tspan3831">I'm no expert...</tspan></text>
    <text
       xml:space="preserve"
       style="font-size:12px;font-style:normal;font-variant:normal;font-weight:normal;font-stretch:normal;text-align:center;line-height:125%;letter-spacing:0px;word-spacing:0px;text-anchor:middle;fill:#000000;fill-opacity:1;stroke:none;font-family:Lavi;-inkscape-font-specification:Lavi"
       x="1447.9285"
       y="439.09341"
       id="text4246-3-7"
       sodipodi:linespacing="125%"><tspan
         sodipodi:role="line"
         style="font-size:45px"
         x="1447.9285"
         y="439.09341"
         id="tspan4199">But the vegetable</tspan><tspan
         sodipodi:role="line"
         style="font-size:45px"
         x="1447.9285"
         y="495.34341"
         id="tspan3838">patch this year is</tspan><tspan
         sodipodi:role="line"
         style="font-size:45px"
         x="1447.9285"
         y="551.59338"
         id="tspan3840">really weird</tspan></text>
    <text
       xml:space="preserve"
       style="font-size:12px;font-style:normal;font-variant:normal;font-weight:normal;font-stretch:normal;text-align:center;line-height:125%;letter-spacing:0px;word-spacing:0px;text-anchor:middle;fill:#000000;fill-opacity:1;stroke:none;font-family:Lavi;-inkscape-font-specification:Lavi"
       x="1637.3901"
       y="619.19336"
       id="text4246-3-7-6"
       sodipodi:linespacing="125%"><tspan
         sodipodi:role="line"
         style="font-size:45px"
         x="1637.3901"
         y="619.19336"
         id="tspan4232">and that goes for</tspan><tspan
         sodipodi:role="line"
         style="font-size:45px"
         x="1637.3901"
         y="675.44336"
         id="tspan3847">a lot of the other plants</tspan><tspan
         sodipodi:role="line"
         style="font-size:45px"
         x="1637.3901"
         y="731.69336"
         id="tspan3849">around the house too.</tspan></text>
    <text
       xml:space="preserve"
       style="font-size:12px;font-style:normal;font-variant:normal;font-weight:normal;font-stretch:normal;text-align:center;line-height:125%;letter-spacing:0px;word-spacing:0px;text-anchor:middle;fill:#000000;fill-opacity:1;stroke:none;font-family:Lavi;-inkscape-font-specification:Lavi"
       x="1627.533"
       y="1809.5331"
       id="text4246-3-2"
       sodipodi:linespacing="125%"><tspan
         sodipodi:role="line"
         style="font-size:45px"
         x="1627.533"
         y="1809.5331"
         id="tspan4259">Same with the ants,</tspan><tspan
         sodipodi:role="line"
         style="font-size:45px"
         x="1627.533"
         y="1865.7831"
         id="tspan3856">they're really up to</tspan><tspan
         sodipodi:role="line"
         style="font-size:45px"
         x="1627.533"
         y="1922.0331"
         id="tspan3858">some strange stuff</tspan></text>
    <text
       xml:space="preserve"
       style="font-size:12px;font-style:normal;font-variant:normal;font-weight:normal;font-stretch:normal;text-align:center;line-height:125%;letter-spacing:0px;word-spacing:0px;text-anchor:middle;fill:#000000;fill-opacity:1;stroke:none;font-family:Lavi;-inkscape-font-specification:Lavi"
       x="1928.5547"
       y="1997.0601"
       id="text4246-3-2-9"
       sodipodi:linespacing="125%"><tspan
         sodipodi:role="line"
         style="font-size:45px"
         x="1928.5547"
         y="1997.0601"
         id="tspan4259-0">So, anyway...</tspan></text>
    <text
       xml:space="preserve"
       style="font-size:12px;font-style:normal;font-variant:normal;font-weight:normal;font-stretch:normal;text-align:center;line-height:125%;letter-spacing:0px;word-spacing:0px;text-anchor:middle;fill:#000000;fill-opacity:1;stroke:none;font-family:Lavi;-inkscape-font-specification:Lavi"
       x="2053.186"
       y="2083.1831"
       id="text4246-3-2-9-6"
       sodipodi:linespacing="125%"><tspan
         sodipodi:role="line"
         style="font-size:45px"
         x="2053.186"
         y="2083.1831"
         id="tspan4326">I thought to myself</tspan><tspan
         sodipodi:role="line"
         style="font-size:45px"
         x="2053.186"
         y="2139.4331"
         id="tspan3880">that maybe we have a bit</tspan><tspan
         sodipodi:role="line"
         style="font-size:45px"
         x="2053.186"
         y="2195.6831"
         id="tspan3884">of a problem with pollution</tspan><tspan
         sodipodi:role="line"
         style="font-size:45px"
         x="2053.186"
         y="2251.9331"
         id="tspan3886">and should think about</tspan><tspan
         sodipodi:role="line"
         style="font-size:45px"
         x="2053.186"
         y="2308.1831"
         id="tspan3888">cleaning up a bit...</tspan></text>
    <text
       xml:space="preserve"
       style="font-size:12px;font-style:normal;font-variant:normal;font-weight:normal;font-stretch:normal;text-align:center;line-height:125%;letter-spacing:0px;word-spacing:0px;text-anchor:middle;fill:#000000;fill-opacity:1;stroke:none;font-family:Lavi;-inkscape-font-specification:Lavi"
       x="419.67166"
       y="2684.5779"
       id="text4246-3-2-9-6-6"
       sodipodi:linespacing="125%"><tspan
         sodipodi:role="line"
         style="font-size:45px"
         x="419.67166"
         y="2684.5779"
         id="tspan3892">Listen Miss</tspan><tspan
         sodipodi:role="line"
         style="font-size:45px"
         x="419.67166"
         y="2740.8279"
         id="tspan3900">&quot;I-ruin-all-my-potions&quot;</tspan><tspan
         sodipodi:role="line"
         style="font-size:45px"
         x="419.67166"
         y="2797.0779"
         id="tspan4378" /></text>
    <text
       xml:space="preserve"
       style="font-size:12px;font-style:normal;font-variant:normal;font-weight:normal;font-stretch:normal;text-align:center;line-height:125%;letter-spacing:0px;word-spacing:0px;text-anchor:middle;fill:#000000;fill-opacity:1;stroke:none;font-family:Lavi;-inkscape-font-specification:Lavi"
       x="1897.0891"
       y="2720.126"
       id="text4246-3-2-9-6-6-0"
       sodipodi:linespacing="125%"><tspan
         sodipodi:role="line"
         style="font-size:45px"
         x="1897.0891"
         y="2720.126"
         id="tspan4414">In Chaosah</tspan><tspan
         sodipodi:role="line"
         style="font-size:45px"
         x="1897.0891"
         y="2776.376"
         id="tspan4587">we bury our</tspan><tspan
         sodipodi:role="line"
         style="font-size:45px"
         x="1897.0891"
         y="2832.626"
         id="tspan3913">mistakes</tspan><tspan
         sodipodi:role="line"
         style="font-size:45px"
         x="1897.0891"
         y="2888.876"
         id="tspan4378-7" /></text>
    <text
       xml:space="preserve"
       style="font-size:12px;font-style:normal;font-variant:normal;font-weight:normal;font-stretch:normal;text-align:center;line-height:125%;letter-spacing:0px;word-spacing:0px;text-anchor:middle;fill:#000000;fill-opacity:1;stroke:none;font-family:Lavi;-inkscape-font-specification:Lavi"
       x="2002.6411"
       y="2913.0608"
       id="text4246-3-2-9-6-6-0-5"
       sodipodi:linespacing="125%"><tspan
         sodipodi:role="line"
         style="font-size:45px"
         x="2002.6411"
         y="2913.0608"
         id="tspan4414-3">it's been our tradition</tspan><tspan
         sodipodi:role="line"
         style="font-size:45px"
         x="2002.6411"
         y="2969.3108"
         id="tspan3929">since the beginning of time</tspan><tspan
         sodipodi:role="line"
         style="font-size:45px"
         x="2002.6411"
         y="3025.5608"
         id="tspan3931">and I don't give a hoot what</tspan><tspan
         sodipodi:role="line"
         style="font-size:45px"
         x="2002.6411"
         y="3081.8108"
         id="tspan3933">MOTHER NATURE</tspan><tspan
         sodipodi:role="line"
         style="font-size:45px"
         x="2002.6411"
         y="3138.0608"
         id="tspan3935">thinks about it!</tspan><tspan
         sodipodi:role="line"
         style="font-size:45px"
         x="2002.6411"
         y="3194.3108"
         id="tspan4378-7-6" /></text>
    <text
       xml:space="preserve"
       style="font-size:12px;font-style:normal;font-variant:normal;font-weight:normal;font-stretch:normal;text-align:center;line-height:125%;letter-spacing:0px;word-spacing:0px;text-anchor:middle;fill:#000000;fill-opacity:1;stroke:none;font-family:Lavi;-inkscape-font-specification:Lavi"
       x="2079.4148"
       y="3214.0935"
       id="text4246-3-2-9-6-6-0-5-1"
       sodipodi:linespacing="125%"><tspan
         sodipodi:role="line"
         style="font-size:45px"
         x="2079.4148"
         y="3214.0935"
         id="tspan4544">So you shut it</tspan><tspan
         sodipodi:role="line"
         style="font-size:45px"
         x="2087.325"
         y="3270.3435"
         id="tspan3939">and you DIG!! </tspan><tspan
         sodipodi:role="line"
         style="font-size:45px"
         x="2079.4148"
         y="3326.5935"
         id="tspan4378-7-6-4" /></text>
    <text
       xml:space="preserve"
       style="font-size:12px;font-style:normal;font-variant:normal;font-weight:normal;font-stretch:normal;text-align:center;line-height:125%;letter-spacing:0px;word-spacing:0px;text-anchor:middle;fill:#000000;fill-opacity:1;stroke:none;font-family:Lavi;-inkscape-font-specification:Lavi"
       x="547.53906"
       y="2811.6135"
       id="text4246-3-2-9-6-6-7"
       sodipodi:linespacing="125%"><tspan
         sodipodi:role="line"
         style="font-size:45px"
         x="547.53906"
         y="2811.6135"
         id="tspan4574">your Hippiah costume</tspan><tspan
         sodipodi:role="line"
         style="font-size:45px"
         x="547.53906"
         y="2867.8635"
         id="tspan3907">is no doubt going</tspan><tspan
         sodipodi:role="line"
         style="font-size:45px"
         x="547.53906"
         y="2924.1135"
         id="tspan3605">to your head.</tspan><tspan
         sodipodi:role="line"
         style="font-size:45px"
         x="547.53906"
         y="2980.3635"
         id="tspan4378-5" /></text>
    <text
       sodipodi:linespacing="125%"
       id="text4178-6-5-9-0-7-0-4"
       style="font-size:9.76241112px;font-style:normal;font-variant:normal;font-weight:normal;font-stretch:normal;text-align:center;line-height:125%;letter-spacing:0px;word-spacing:0px;text-anchor:middle;opacity:0.63300003;fill:#ffffff;fill-opacity:1;stroke:none;filter:url(#filter5236-4-16);font-family:Lavi;-inkscape-font-specification:Lavi"
       xml:space="preserve"
       y="3129.8394"
       x="1318.7137"
       transform="matrix(0.68459399,-0.0716406,-0.09363946,0.78222233,128.19701,-965.22278)"><tspan
         y="3129.8394"
         x="1318.7137"
         style="font-size:40.67671585px;font-style:normal;font-variant:normal;font-weight:normal;font-stretch:normal;fill:#ffffff;fill-opacity:1;font-family:Fondamento;-inkscape-font-specification:Fondamento"
         sodipodi:role="line"
         id="tspan4293-1-6-3-5-0-2">Tomatoes</tspan></text>
    <text
       sodipodi:linespacing="125%"
       id="text4178-6-5-9-0-7-0-4-7"
       style="font-style:normal;font-variant:normal;font-weight:normal;font-stretch:normal;font-size:9.76241112px;line-height:125%;font-family:Lavi;-inkscape-font-specification:Lavi;text-align:center;letter-spacing:0px;word-spacing:0px;text-anchor:middle;opacity:0.63300003;fill:#ffffff;fill-opacity:1;stroke:none;filter:url(#filter5236-4-16-3)"
       xml:space="preserve"
       y="3129.8394"
       x="1318.7137"
       transform="matrix(0.57866569,0.12168979,-0.4356083,0.67919126,2328.1699,-927.44478)"><tspan
         y="3129.8394"
         x="1318.7137"
         style="font-style:normal;font-variant:normal;font-weight:normal;font-stretch:normal;font-size:40.67671585px;font-family:Fondamento;-inkscape-font-specification:Fondamento;fill:#ffffff;fill-opacity:1"
         sodipodi:role="line"
         id="tspan4293-1-6-3-5-0-2-5">Aubergines</tspan></text>
  </g>
</svg>
