<?xml version="1.0" encoding="UTF-8" standalone="no"?>
<!-- Created with Inkscape (http://www.inkscape.org/) -->

<svg
   xmlns:dc="http://purl.org/dc/elements/1.1/"
   xmlns:cc="http://creativecommons.org/ns#"
   xmlns:rdf="http://www.w3.org/1999/02/22-rdf-syntax-ns#"
   xmlns:svg="http://www.w3.org/2000/svg"
   xmlns="http://www.w3.org/2000/svg"
   xmlns:xlink="http://www.w3.org/1999/xlink"
   xmlns:sodipodi="http://sodipodi.sourceforge.net/DTD/sodipodi-0.dtd"
   xmlns:inkscape="http://www.inkscape.org/namespaces/inkscape"
   id="svg2"
   version="1.1"
   inkscape:version="0.91 r13725"
   width="2481"
   height="3503"
   sodipodi:docname="Pepper-and-Carrot_by-David-Revoy_E19P02.svg">
  <metadata
     id="metadata8">
    <rdf:RDF>
      <cc:Work
         rdf:about="">
        <dc:format>image/svg+xml</dc:format>
        <dc:type
           rdf:resource="http://purl.org/dc/dcmitype/StillImage" />
        <dc:title />
      </cc:Work>
    </rdf:RDF>
  </metadata>
  <defs
     id="defs6">
    <filter
       inkscape:collect="always"
       style="color-interpolation-filters:sRGB"
       id="filter5236-4-16-3"
       x="-0.0089085409"
       width="1.0178171"
       y="-0.027928527"
       height="1.0558571">
      <feGaussianBlur
         inkscape:collect="always"
         stdDeviation="0.49168068"
         id="feGaussianBlur5238-0-4-6" />
    </filter>
    <filter
       inkscape:collect="always"
       style="color-interpolation-filters:sRGB"
       id="filter5236-4-16"
       x="-0.0089085409"
       width="1.0178171"
       y="-0.027928527"
       height="1.0558571">
      <feGaussianBlur
         inkscape:collect="always"
         stdDeviation="0.49168068"
         id="feGaussianBlur5238-0-4" />
    </filter>
  </defs>
  <sodipodi:namedview
     pagecolor="#ffffff"
     bordercolor="#666666"
     borderopacity="1"
     objecttolerance="10"
     gridtolerance="10"
     guidetolerance="10"
     inkscape:pageopacity="0"
     inkscape:pageshadow="2"
     inkscape:window-width="1440"
     inkscape:window-height="837"
     id="namedview4"
     showgrid="false"
     inkscape:zoom="0.29870142"
     inkscape:cx="1264.7476"
     inkscape:cy="2366.9207"
     inkscape:window-x="-4"
     inkscape:window-y="-4"
     inkscape:window-maximized="1"
     inkscape:current-layer="layer1" />
  <g
     inkscape:groupmode="layer"
     id="layer2"
     inkscape:label="artwork"
     sodipodi:insensitive="true">
    <image
       sodipodi:absref="C:\Users\Katka\Dropbox\Episode 19\cs\..\gfx_Pepper-and-Carrot_by-David-Revoy_E19P02.png"
       xlink:href="../gfx_Pepper-and-Carrot_by-David-Revoy_E19P02.png"
       y="0"
       x="0"
       id="image10"
       height="3503"
       width="2481" />
  </g>
  <g
     inkscape:groupmode="layer"
     id="layer4"
     inkscape:label="translatornotes"
     sodipodi:insensitive="true">
    <path
       inkscape:connector-curvature="0"
       id="path3446"
       d="m 2763.8482,1498.4924 0,-189.0352 -203.8301,0 0,90.9805 -10,0 0,-15.6308 -30.9824,26.9824 30.9824,26.9804 0,-16.6171 10,0 0,76.3398 203.8301,0 z"
       style="color:#000000;clip-rule:nonzero;display:inline;overflow:visible;visibility:visible;opacity:0.481;isolation:auto;mix-blend-mode:normal;color-interpolation:sRGB;color-interpolation-filters:linearRGB;solid-color:#000000;solid-opacity:1;fill:#ffe680;fill-opacity:1;fill-rule:nonzero;stroke:#565656;stroke-width:1.20000005;stroke-linecap:butt;stroke-linejoin:miter;stroke-miterlimit:4;stroke-dasharray:none;stroke-dashoffset:0;stroke-opacity:1;marker:none;color-rendering:auto;image-rendering:auto;shape-rendering:auto;text-rendering:auto;enable-background:accumulate" />
    <flowRoot
       transform="translate(2793.4167,295.2096)"
       style="font-style:normal;font-variant:normal;font-weight:normal;font-stretch:normal;font-size:25.3241539px;line-height:125%;font-family:Lavi;-inkscape-font-specification:'Lavi, Normal';text-align:center;letter-spacing:0px;word-spacing:0px;writing-mode:lr-tb;text-anchor:middle;display:inline;opacity:0.481;fill:#000000;fill-opacity:1;stroke:none;stroke-width:1px;stroke-linecap:butt;stroke-linejoin:miter;stroke-opacity:1"
       id="flowRoot3448"
       xml:space="preserve"><flowRegion
         id="flowRegion3450"><rect
           y="1061.6674"
           x="-275.14545"
           height="247.52747"
           width="291.95547"
           id="rect3452" /></flowRegion><flowPara
         id="flowPara3473">labels</flowPara><flowPara
         id="flowPara4255">in the </flowPara><flowPara
         id="flowPara4257">garden :-)</flowPara></flowRoot>  </g>
  <g
     inkscape:groupmode="layer"
     id="layer3"
     inkscape:label="speechbubbles"
     style="display:inline">
    <path
       style="color:#000000;display:inline;overflow:visible;visibility:visible;fill:#ffffff;fill-opacity:1;fill-rule:nonzero;stroke:none;stroke-width:1px;marker:none;enable-background:accumulate"
       d="m 1032.7468,204.52874 c 25.2789,-33.27491 266.579,-52.28964 342.8296,1.14813 63.645,44.60374 71.4857,141.48874 24.2035,167.96102 -47.2824,26.47238 -234.1545,27.59731 -310.0759,16.62641 -72.2877,-10.44584 -80.7367,-37.67302 -93.80169,-105.67133 -5.33246,-27.75276 11.56539,-46.78923 36.84449,-80.06423 z"
       id="path4040-4"
       inkscape:connector-curvature="0"
       sodipodi:nodetypes="zssssz" />
    <path
       style="color:#000000;display:inline;overflow:visible;visibility:visible;fill:#ffffff;fill-opacity:1;fill-rule:nonzero;stroke:none;stroke-width:1px;marker:none;enable-background:accumulate"
       d="m 1218.6195,471.60657 c 6.8921,-79.99361 75.774,-136.92767 252.0955,-117.45099 94.4472,10.43269 201.7583,18.40618 192.7593,135.61853 -8.999,117.21223 -163.318,110.3469 -195.2332,112.29768 -31.9153,1.9509 -197.6878,-14.49623 -226.0366,-55.15064 -17.7459,-25.44858 -24.5267,-50.5104 -23.585,-75.31458 z"
       id="path4546-6"
       inkscape:connector-curvature="0"
       sodipodi:nodetypes="cssssc" />
    <path
       style="color:#000000;display:inline;overflow:visible;visibility:visible;fill:#ffffff;fill-opacity:1;fill-rule:nonzero;stroke:none;stroke-width:1px;marker:none;enable-background:accumulate"
       d="m 1409.1452,599.75862 c 44.2208,-59.64105 275.9196,-46.86437 357.9673,-33.45281 121.8085,19.9109 116.6048,75.08271 120.3269,90.87345 3.722,15.79061 -5.5831,89.00186 -46.5267,103.35713 -40.9435,14.35513 -158.1906,21.53268 -199.1341,21.53268 -40.9434,0 -171.6442,-9.13699 -204.7177,-30.14587 -31.6382,-20.0972 -72.137,-92.52365 -27.9157,-152.16458 z"
       id="path3330"
       inkscape:connector-curvature="0"
       sodipodi:nodetypes="zsssssz" />
    <path
       style="color:#000000;display:inline;overflow:visible;visibility:visible;fill:#ffffff;fill-opacity:1;fill-rule:nonzero;stroke:none;stroke-width:1px;marker:none;enable-background:accumulate"
       d="m 1537.5273,696.39507 c -4.748,19.68499 -0.6503,33.38997 2.5742,37.35036 3.2245,3.96027 2.3513,12.12365 5.2378,17.57337 2.3614,4.51862 3.5729,10.81257 -0.8434,12.64306 -4.4163,1.83058 -29.4289,3.69855 -33.6755,16.66121 -4.2467,12.96272 3.9771,24.00648 14.1454,30.32451 10.1684,6.31815 24.4145,10.44127 22.2717,20.40102 -2.1427,9.95976 -9.8422,13.23017 -15.8741,13.66024 -6.0318,0.43007 -42.6593,-1.86158 -51.9545,1.56498 -9.295,3.4266 -34.8875,18.35716 -31.0179,31.36521 11.9004,-13.15184 18.3151,-19.01847 27.1348,-20.36055 8.8198,-1.34212 24.7212,-5.09072 34.6744,-1.78852 9.9534,3.30225 30.2251,7.01956 38.1327,2.88942 7.9077,-4.13 22.6869,-13.91278 22.9796,-24.81049 0.2928,-10.89767 -5.2053,-22.98724 -21.3925,-31.19418 -10.1682,-6.31811 -14.5522,-10.2849 -13.6078,-13.29434 0.9444,-3.00939 11.8681,-7.35452 23.4562,-6.13032 11.5882,1.22424 17.0469,-9.49086 18.0108,-15.97871 0.9638,-6.48781 -2.7884,-15.67273 -3.2186,-21.7046 -0.4301,-6.03183 -6.7045,-40.19004 -6.7045,-40.19004 z"
       id="path5058"
       inkscape:connector-curvature="0"
       sodipodi:nodetypes="cscsssssscssssccscccc" />
    <path
       style="color:#000000;display:inline;overflow:visible;visibility:visible;fill:#ffffff;fill-opacity:1;fill-rule:nonzero;stroke:none;stroke-width:1px;marker:none;enable-background:accumulate"
       d="m 1272.6321,1810.8426 c 10.1909,-69.8494 63.7164,-59.5806 186.5852,-63.2437 61.0042,-1.8188 281.9521,-8.1256 371.5145,4.5118 89.5621,12.6375 141.3353,-0.8056 147.5968,50.4452 7.41,60.6518 -2.9934,142.9083 -100.8049,157.3965 -97.8113,14.4881 -285.3978,3.8187 -304.9305,4.4209 -39.0647,1.2043 -241.3878,-15.7854 -275.1527,-51.7851 -21.136,-22.5348 -26.5068,-80.068 -24.8084,-101.7456 z"
       id="path4546-6-3"
       inkscape:connector-curvature="0"
       sodipodi:nodetypes="cssssssc" />
    <path
       style="color:#000000;display:inline;overflow:visible;visibility:visible;fill:#ffffff;fill-opacity:1;fill-rule:nonzero;stroke:none;stroke-width:1px;marker:none;enable-background:accumulate"
       d="m 1760.2399,1983.0096 c -2.3235,-13.9006 23.1518,-72.4119 164.8866,-63.1448 141.7349,9.2671 156.5388,20.9339 163.006,70.8244 2.3902,18.4386 -19.6664,45.3021 -40.5781,49.9356 -20.9118,4.6335 -82.0538,17.7137 -116.9066,14.007 -34.8528,-3.7069 -86.3005,-2.8275 -137.5796,-22.2636 -30.9496,-11.7307 -30.5048,-45.6518 -32.8283,-49.3586 z"
       id="path3365"
       inkscape:connector-curvature="0"
       sodipodi:nodetypes="csssssc" />
    <path
       style="fill:#ffffff;fill-opacity:1;stroke:none"
       d="m 1760.0982,2181.1508 c -11.0377,-128.9785 67.5603,-173.7193 276.8911,-173.5363 209.3308,0.1828 294.032,36.9011 302.8277,113.6938 19.6679,171.7155 -108.8166,214.5432 -177.6749,225.2019 -137.5419,21.2904 -336.3135,-18.7705 -364.3985,-54.7336 -28.085,-35.9632 -35.2223,-76.903 -37.6454,-110.6258 z"
       id="path3238"
       inkscape:connector-curvature="0"
       sodipodi:nodetypes="cssssc" />
    <path
       style="color:#000000;display:inline;overflow:visible;visibility:visible;fill:#ffffff;fill-opacity:1;fill-rule:nonzero;stroke:none;stroke-width:1px;marker:none;enable-background:accumulate"
       d="m 1882.8016,2295.7967 c -30.6436,39.5697 -91.823,73.3362 -171.3605,30.1552 76.0815,26.4581 119.8575,-5.9599 145.0149,-45.5895 21.7184,-34.2122 33.4899,-49.0683 33.4899,-49.0683 z"
       id="path4440"
       inkscape:connector-curvature="0"
       sodipodi:nodetypes="ccscc" />
    <path
       style="color:#000000;display:inline;overflow:visible;visibility:visible;fill:#ffffff;fill-opacity:1;fill-rule:nonzero;stroke:none;stroke-width:1px;marker:none;enable-background:accumulate"
       d="m 99.104281,2756.9074 c 29.153929,-10.9597 42.972269,-18.5558 0.509267,-34.3247 8.718612,-0.1198 57.373182,-2.1442 10.854832,-32.9366 15.33679,3.9749 39.86212,14.5291 12.25505,-36.5871 16.59942,8.1494 39.62419,34.2072 19.42721,-14.0742 21.87185,16.3179 50.68742,6.0013 44.78865,-2.5708 17.60256,10.4052 52.17208,9.5448 49.21089,0.7154 12.94193,9.6323 48.00193,12.4562 45.25059,-3.6881 10.75361,11.0973 44.12755,9.9541 40.85576,0.5253 28.1945,11.2241 68.9553,18.1422 84.36018,2.4934 13.15389,14.8098 74.34009,10.3376 125.65733,0.2295 0.80385,10.4538 57.92018,12.2889 104.46958,-4.7288 0.70454,15.8808 17.50237,21.2619 38.02886,9.5749 7.33009,6.5186 5.37371,10.3103 34.17938,-5.1216 -1.37519,10.6121 3.7521,20.4024 23.82194,10.2432 3.4962,6.5649 -9.29783,23.5801 41.42968,-1.2805 0.33534,9.2802 -11.57212,27.5037 32.10789,5.1216 -35.4341,55.1372 -15.79517,49.2359 8.28587,38.4113 -18.74991,32.5259 -42.9329,72.8685 4.71778,71.3855 -37.31092,7.514 -36.65866,18.687 -31.64696,36.1663 -46.76267,-35.1981 -52.2571,-8.4487 -72.50182,-3.8411 -21.37218,-5.8556 -41.06139,-27.3135 -66.28718,2.5608 -38.64465,-12.2937 -46.30638,-1.0176 -59.03723,6.402 -67.51517,-23.5924 -65.92036,-4.468 -96.32385,-5.1217 -17.97569,-29.1834 -58.54038,-7.1717 -88.03791,-10.2429 -37.28652,-23.9307 -92.77048,-2.9536 -121.79719,6.2711 14.18688,-14.9487 -20.74956,-28.2936 -53.97438,4.1237 16.49877,-27.3926 -10.57079,-36.628 -61.10862,-1.3493 23.74903,-32.458 -9.09611,-27.285 -45.87645,-6.4848 35.997,-31.5409 -2.04142,-34.2446 -23.619149,-31.8718 z"
       id="path3557"
       inkscape:connector-curvature="0"
       sodipodi:nodetypes="cccccccccccccccccccccccccccccc" />
    <path
       style="color:#000000;display:inline;overflow:visible;visibility:visible;fill:#ffffff;fill-opacity:1;fill-rule:nonzero;stroke:none;stroke-width:1px;marker:none;enable-background:accumulate"
       d="m 271.05954,2839.5634 c 8.43841,-73.3533 93.40373,-126.6439 311.0341,-111.7966 116.57455,7.953 249.02327,13.4367 238.01599,120.9006 -11.00741,107.4636 -201.47202,103.79 -240.8598,106.116 -39.38777,2.3262 -243.99617,-9.926 -279.01838,-46.6664 -21.9231,-22.9987 -30.3132,-45.8287 -29.17191,-68.5536 z"
       id="path4546"
       inkscape:connector-curvature="0"
       sodipodi:nodetypes="cssssc" />
    <path
       style="color:#000000;display:inline;overflow:visible;visibility:visible;fill:#ffffff;fill-opacity:1;fill-rule:nonzero;stroke:none;stroke-width:1px;marker:none;enable-background:accumulate"
       d="m 990.3039,2942.0433 c -39.7219,-30.7338 -84.6659,-56.332 -118.3207,-93.0329 l 9.2071,41.4633 c -19.1495,-7.3977 -31.9655,-24.339 -46.9322,-38.0398 l 1.0996,26.2988 c -44.9905,-17.9715 -75.7521,-49.3371 -113.3909,-74.2288 l 5.8989,45.8738 c 41.0512,21.0955 84.9859,35.8216 122.7937,64.0815 l 1.7812,-25.6614 c 14.445,8.0961 28.5921,16.7337 41.4085,27.7896 l -0.8973,-32.5393 z"
       id="path4032-6"
       inkscape:connector-curvature="0"
       sodipodi:nodetypes="cccccccccccc" />
    <path
       style="fill:#ffffff;stroke:none"
       d="m 1699.0736,2771.0202 c 5.0501,-60.4636 35.5091,-85.0538 49.33,-93.079 13.8207,-8.0252 71.8414,-18.3199 109.742,-16.548 37.9006,1.7719 131.855,10.4999 147.6558,13.4066 15.8008,2.9066 57.954,48.234 57.5018,87.2344 -0.4521,39.0001 -8.9041,64.619 -31.9343,87.3886 -23.0304,22.7698 -160.4271,27.1856 -168.8922,24.6219 -8.4654,-2.5636 -121.5161,-23.0237 -128.5726,-29.8572 -7.0564,-6.8334 -35.6546,-25.5131 -34.8305,-73.1673 z"
       id="path3278"
       inkscape:connector-curvature="0" />
    <path
       style="color:#000000;display:inline;overflow:visible;visibility:visible;fill:#ffffff;fill-opacity:1;fill-rule:nonzero;stroke:none;stroke-width:1px;marker:none;enable-background:accumulate"
       d="m 1761.2045,2876.7299 c 38.2809,-40.454 361.4128,-84.3646 474.9822,-0.9971 113.5692,83.3674 44.6829,183.4085 -20.4798,215.2397 -65.1627,31.8312 -256.9272,66.694 -344.4314,39.4101 -87.5042,-27.2839 -155.6646,-68.0681 -160.1142,-151.5772 -1.816,-34.0835 11.7626,-61.6212 50.0432,-102.0755 z"
       id="path4040"
       inkscape:connector-curvature="0"
       sodipodi:nodetypes="zssssz" />
    <path
       style="display:inline;fill:#ffffff;fill-rule:evenodd;stroke:none;stroke-width:1px;stroke-linecap:butt;stroke-linejoin:miter;stroke-opacity:1"
       d="m 1818.2737,3101.4656 c 58.5266,28.5286 91.8642,16.9272 90.8596,-49.3868 27.9227,71.6603 47.2996,87.6873 58.7916,52.3799 36.9678,30.3481 60.0573,21.8353 78.3888,0 6.8327,28.0816 21.4852,16.7498 34.1663,15.3549 4.1766,6.3532 -10.1683,22.1376 47.7856,1.1073 3.7539,8.4093 8.8108,15.651 42.7573,-2.9931 8.7946,34.1321 37.0113,-1.8917 65.9181,-40.4074 -18.0099,47.3518 -10.5418,54.0398 12.4709,35.9176 -10.5213,19.4998 -16.8141,34.5948 23.1602,1.4966 -13.6851,35.9927 22.2178,11.2875 80.1704,-40.4072 -28.9887,38.2124 -72.7185,86.0455 -22.0866,80.7058 -7.0609,11.2651 -20.4105,25.8148 9.6156,55.4816 -14.0023,7.6442 -56.7507,-3.5263 -21.0909,28.8398 4.7779,3.7834 -11.2167,6.0937 19.3095,16.0571 -18.0201,-0.6778 -29.0714,1.7436 -12.4711,16.4623 -32.8932,-0.7959 -20.5859,14.6808 3.5632,34.4209 -47.6339,-25.3209 -50.2552,-16.1182 -51.6656,-5.9862 -59.6991,-34.521 -63.2033,-23.6523 -71.2622,-16.4623 -29.0988,0.2694 -58.1979,-4.0779 -87.2968,34.421 -7.6205,-23.9452 -22.8989,-42.3768 -87.2964,-25.4415 28.2754,-30.4626 -11.9501,-11.0548 -42.7576,1.4965 16.8708,-38.0554 -25.9448,-13.0797 -80.1703,23.945 30.366,-42.0237 -4.1226,-26.8437 -55.2286,2.9932 19.3095,-41.2842 -12.1377,-61.2497 -87.2965,-62.8558 35.9733,-14.8917 26.1765,-26.5306 -11.1772,-60.2436 42.1081,9.9269 38.0975,-25.3338 8.3709,-61.9576 45.9289,30.0605 72.3922,5.3975 54.4718,-34.938 z"
       id="path4508"
       inkscape:connector-curvature="0"
       sodipodi:nodetypes="cccccccccccccccccccccccccccc" />
    <path
       style="color:#000000;display:inline;overflow:visible;visibility:visible;fill:#ffffff;fill-opacity:1;fill-rule:nonzero;stroke:none;stroke-width:1px;marker:none;enable-background:accumulate"
       d="m 1490.4164,2866.2226 c 36.6716,-30.7338 78.1642,-56.332 109.2346,-93.0329 l -8.5001,41.4633 c 17.679,-7.3977 29.5108,-24.339 43.3282,-38.0398 l -1.0152,26.2988 c 41.5356,-17.9715 69.9349,-49.3371 104.6834,-74.2288 l -5.4459,45.8738 c -37.8988,21.0955 -78.4597,35.8216 -113.3641,64.0815 l -1.6444,-25.6614 c -13.3358,8.0961 -26.3965,16.7337 -38.2287,27.7896 l 0.8284,-32.5393 z"
       id="path4032"
       inkscape:connector-curvature="0"
       sodipodi:nodetypes="cccccccccccc" />
  </g>
  <g
     inkscape:groupmode="layer"
     id="layer1"
     inkscape:label="txt">
    <text
       xml:space="preserve"
       style="font-style:normal;font-variant:normal;font-weight:normal;font-stretch:normal;font-size:12px;line-height:125%;font-family:Lavi;-inkscape-font-specification:Lavi;text-align:center;letter-spacing:0px;word-spacing:0px;text-anchor:middle;fill:#000000;fill-opacity:1;stroke:none"
       x="1194.6492"
       y="238.63234"
       id="text4246"
       sodipodi:linespacing="125%"><tspan
         sodipodi:role="line"
         style="font-size:45px"
         x="1194.6492"
         y="238.63234"
         id="tspan3419">Ehm, no já</tspan><tspan
         sodipodi:role="line"
         style="font-size:45px"
         x="1194.6492"
         y="294.88235"
         id="tspan3423" /></text>
    <text
       xml:space="preserve"
       style="font-style:normal;font-variant:normal;font-weight:normal;font-stretch:normal;font-size:12px;line-height:125%;font-family:Lavi;-inkscape-font-specification:Lavi;text-align:center;letter-spacing:0px;word-spacing:0px;text-anchor:middle;fill:#000000;fill-opacity:1;stroke:none"
       x="1213.9131"
       y="295.55231"
       id="text4246-3"
       sodipodi:linespacing="125%"><tspan
         sodipodi:role="line"
         style="font-size:45px"
         x="1213.9131"
         y="295.55231"
         id="tspan3831">samozřejmě nejsem</tspan><tspan
         sodipodi:role="line"
         style="font-size:45px"
         x="1213.9131"
         y="351.80231"
         id="tspan3427">odborník...</tspan></text>
    <text
       xml:space="preserve"
       style="font-style:normal;font-variant:normal;font-weight:normal;font-stretch:normal;font-size:12px;line-height:125%;font-family:Lavi;-inkscape-font-specification:Lavi;text-align:center;letter-spacing:0px;word-spacing:0px;text-anchor:middle;fill:#000000;fill-opacity:1;stroke:none"
       x="1441.2328"
       y="432.39777"
       id="text4246-3-7"
       sodipodi:linespacing="125%"><tspan
         sodipodi:role="line"
         style="font-size:45px"
         x="1441.2328"
         y="432.39777"
         id="tspan4199">Ale náš záhon</tspan><tspan
         sodipodi:role="line"
         style="font-size:45px"
         x="1441.2328"
         y="488.64777"
         id="tspan3429">se zeleninou je letos</tspan><tspan
         sodipodi:role="line"
         style="font-size:45px"
         x="1441.2328"
         y="544.89777"
         id="tspan3840">vážně divný</tspan></text>
    <text
       xml:space="preserve"
       style="font-style:normal;font-variant:normal;font-weight:normal;font-stretch:normal;font-size:12px;line-height:125%;font-family:Lavi;-inkscape-font-specification:Lavi;text-align:center;letter-spacing:0px;word-spacing:0px;text-anchor:middle;fill:#000000;fill-opacity:1;stroke:none"
       x="1637.3901"
       y="619.19336"
       id="text4246-3-7-6"
       sodipodi:linespacing="125%"><tspan
         sodipodi:role="line"
         style="font-size:45px"
         x="1645.3003"
         y="619.19336"
         id="tspan4232">a to samé platí </tspan><tspan
         sodipodi:role="line"
         style="font-size:45px"
         x="1645.3003"
         y="675.44336"
         id="tspan3437">i pro spoustu dalších </tspan><tspan
         sodipodi:role="line"
         style="font-size:45px"
         x="1637.3901"
         y="731.69336"
         id="tspan3849">rostlin kolem domu.</tspan></text>
    <text
       sodipodi:linespacing="125%"
       id="text4178-6-5-9-0-7-0-4"
       style="font-style:normal;font-variant:normal;font-weight:normal;font-stretch:normal;font-size:9.76241112px;line-height:125%;font-family:Lavi;-inkscape-font-specification:Lavi;text-align:center;letter-spacing:0px;word-spacing:0px;text-anchor:middle;opacity:0.63300003;fill:#ffffff;fill-opacity:1;stroke:none;filter:url(#filter5236-4-16)"
       xml:space="preserve"
       y="3129.8394"
       x="1318.7137"
       transform="matrix(0.6851492,-0.06612027,-0.09994133,0.78144216,149.5816,-958.25517)"><tspan
         y="3129.8394"
         x="1318.7137"
         style="font-style:normal;font-variant:normal;font-weight:normal;font-stretch:normal;font-size:55.00672531px;font-family:Fondamento;-inkscape-font-specification:Fondamento;fill:#ffffff;fill-opacity:1"
         sodipodi:role="line"
         id="tspan4293-1-6-3-5-0-2">Rajčata</tspan></text>
    <text
       sodipodi:linespacing="125%"
       id="text4178-6-5-9-0-7-0-4-7"
       style="font-style:normal;font-variant:normal;font-weight:normal;font-stretch:normal;font-size:9.76241112px;line-height:125%;font-family:Lavi;-inkscape-font-specification:Lavi;text-align:center;letter-spacing:0px;word-spacing:0px;text-anchor:middle;opacity:0.63300003;fill:#ffffff;fill-opacity:1;stroke:none;filter:url(#filter5236-4-16-3)"
       xml:space="preserve"
       y="3129.8394"
       x="1318.7137"
       transform="matrix(0.58543203,0.08325699,-0.38986142,0.70644422,2167.1271,-958.73411)"><tspan
         y="3129.8394"
         x="1318.7137"
         style="font-style:normal;font-variant:normal;font-weight:normal;font-stretch:normal;font-size:65.50798035px;font-family:Fondamento;-inkscape-font-specification:Fondamento;fill:#ffffff;fill-opacity:1"
         sodipodi:role="line"
         id="tspan4293-1-6-3-5-0-2-5">Lilky</tspan></text>
    <text
       xml:space="preserve"
       style="font-style:normal;font-variant:normal;font-weight:normal;font-stretch:normal;font-size:12px;line-height:125%;font-family:Lavi;-inkscape-font-specification:Lavi;text-align:center;letter-spacing:0px;word-spacing:0px;text-anchor:middle;fill:#000000;fill-opacity:1;stroke:none"
       x="1627.533"
       y="1809.5331"
       id="text4246-3-2"
       sodipodi:linespacing="125%"><tspan
         sodipodi:role="line"
         style="font-size:45px"
         x="1627.533"
         y="1809.5331"
         id="tspan3503">A to ani nemluvím o mravencích.</tspan><tspan
         sodipodi:role="line"
         style="font-size:45px"
         x="1627.533"
         y="1865.7831"
         id="tspan3509">Poslední dobou to vypadá, že</tspan><tspan
         sodipodi:role="line"
         style="font-size:45px"
         x="1627.533"
         y="1922.0331"
         id="tspan3858">mají něco za lubem.</tspan></text>
    <text
       xml:space="preserve"
       style="font-style:normal;font-variant:normal;font-weight:normal;font-stretch:normal;font-size:12px;line-height:125%;font-family:Lavi;-inkscape-font-specification:Lavi;text-align:center;letter-spacing:0px;word-spacing:0px;text-anchor:middle;fill:#000000;fill-opacity:1;stroke:none"
       x="1928.5547"
       y="1997.0601"
       id="text4246-3-2-9"
       sodipodi:linespacing="125%"><tspan
         sodipodi:role="line"
         style="font-size:45px"
         x="1928.5547"
         y="1997.0601"
         id="tspan4259-0">No, a proto...</tspan></text>
    <text
       xml:space="preserve"
       style="font-style:normal;font-variant:normal;font-weight:normal;font-stretch:normal;font-size:12px;line-height:125%;font-family:Lavi;-inkscape-font-specification:Lavi;text-align:center;letter-spacing:0px;word-spacing:0px;text-anchor:middle;fill:#000000;fill-opacity:1;stroke:none"
       x="2053.186"
       y="2083.1831"
       id="text4246-3-2-9-6"
       sodipodi:linespacing="125%"><tspan
         sodipodi:role="line"
         style="font-size:45px"
         x="2053.186"
         y="2083.1831"
         id="tspan4326">...jsem si tak říkala,</tspan><tspan
         sodipodi:role="line"
         style="font-size:45px"
         x="2053.186"
         y="2139.4331"
         id="tspan3483">že možná máme trochu</tspan><tspan
         sodipodi:role="line"
         style="font-size:45px"
         x="2053.186"
         y="2195.6831"
         id="tspan3485">problém se znečištěním</tspan><tspan
         sodipodi:role="line"
         style="font-size:45px"
         x="2053.186"
         y="2251.9331"
         id="tspan3487">a měli bychom se pokusit</tspan><tspan
         sodipodi:role="line"
         style="font-size:45px"
         x="2053.186"
         y="2308.1831"
         id="tspan3888">to nějak napravit...</tspan></text>
    <text
       xml:space="preserve"
       style="font-style:normal;font-variant:normal;font-weight:normal;font-stretch:normal;font-size:12px;line-height:125%;font-family:Lavi;-inkscape-font-specification:Lavi;text-align:center;letter-spacing:0px;word-spacing:0px;text-anchor:middle;fill:#000000;fill-opacity:1;stroke:none;stroke-width:2.79999995;stroke-miterlimit:4;stroke-dasharray:none"
       x="469.38431"
       y="2689.3125"
       id="text4246-3-2-9-6-6"
       sodipodi:linespacing="125%"><tspan
         sodipodi:role="line"
         style="font-size:45px;stroke-width:2.79999995;stroke-miterlimit:4;stroke-dasharray:none"
         x="469.38431"
         y="2689.3125"
         id="tspan3892">Tak poslouchej, slečinko</tspan><tspan
         sodipodi:role="line"
         style="font-size:45px;stroke-width:2.79999995;stroke-miterlimit:4;stroke-dasharray:none"
         x="469.38431"
         y="2745.5625"
         id="tspan3900">&quot;<tspan
   style="stroke:#000000;stroke-width:2.79999995;stroke-miterlimit:4;stroke-dasharray:none;stroke-opacity:1"
   id="tspan4217">Kazím-všechny-moje-lektvary</tspan>&quot;,</tspan><tspan
         sodipodi:role="line"
         style="font-size:45px;stroke-width:2.79999995;stroke-miterlimit:4;stroke-dasharray:none"
         x="469.38431"
         y="2801.8125"
         id="tspan4378" /></text>
    <text
       xml:space="preserve"
       style="font-style:normal;font-variant:normal;font-weight:normal;font-stretch:normal;font-size:12px;line-height:125%;font-family:Lavi;-inkscape-font-specification:Lavi;text-align:center;letter-spacing:0px;word-spacing:0px;text-anchor:middle;fill:#000000;fill-opacity:1;stroke:none"
       x="547.53906"
       y="2811.6135"
       id="text4246-3-2-9-6-6-7"
       sodipodi:linespacing="125%"><tspan
         sodipodi:role="line"
         style="font-size:45px"
         x="547.53906"
         y="2811.6135"
         id="tspan4574">ten tvůj kostýmek</tspan><tspan
         sodipodi:role="line"
         style="font-size:45px"
         x="547.53906"
         y="2867.8635"
         id="tspan3473">z Hippiah ti bez pochyb</tspan><tspan
         sodipodi:role="line"
         style="font-size:45px"
         x="547.53906"
         y="2924.1135"
         id="tspan4378-5">leze na mozek.</tspan></text>
    <text
       xml:space="preserve"
       style="font-style:normal;font-variant:normal;font-weight:normal;font-stretch:normal;font-size:12px;line-height:125%;font-family:Lavi;-inkscape-font-specification:Lavi;text-align:center;letter-spacing:0px;word-spacing:0px;text-anchor:middle;fill:#000000;fill-opacity:1;stroke:none"
       x="1882.85"
       y="2715.9966"
       id="text4246-3-2-9-6-6-0"
       sodipodi:linespacing="125%"><tspan
         sodipodi:role="line"
         style="font-size:45px"
         x="1882.85"
         y="2715.9966"
         id="tspan4414">V Chaosu</tspan><tspan
         sodipodi:role="line"
         style="font-size:45px"
         x="1882.85"
         y="2772.2466"
         id="tspan3453">svoje chyby</tspan><tspan
         sodipodi:role="line"
         style="font-size:45px"
         x="1882.85"
         y="2828.4966"
         id="tspan3913">zakopáváme!</tspan><tspan
         sodipodi:role="line"
         style="font-size:45px"
         x="1882.85"
         y="2884.7466"
         id="tspan4378-7" /></text>
    <text
       xml:space="preserve"
       style="font-style:normal;font-variant:normal;font-weight:normal;font-stretch:normal;font-size:12px;line-height:125%;font-family:Lavi;-inkscape-font-specification:Lavi;text-align:center;letter-spacing:0px;word-spacing:0px;text-anchor:middle;fill:#000000;fill-opacity:1;stroke:none;stroke-width:2.79999995;stroke-miterlimit:4;stroke-dasharray:none"
       x="2002.6411"
       y="2913.0608"
       id="text4246-3-2-9-6-6-0-5"
       sodipodi:linespacing="125%"><tspan
         sodipodi:role="line"
         style="font-size:45px;stroke-width:2.79999995;stroke-miterlimit:4;stroke-dasharray:none"
         x="2002.6411"
         y="2913.0608"
         id="tspan4414-3">Je to naše tradice</tspan><tspan
         sodipodi:role="line"
         style="font-size:45px;stroke-width:2.79999995;stroke-miterlimit:4;stroke-dasharray:none"
         x="2002.6411"
         y="2969.3108"
         id="tspan3461">od počátku věků a je mi</tspan><tspan
         sodipodi:role="line"
         style="font-size:45px;stroke-width:2.79999995;stroke-miterlimit:4;stroke-dasharray:none"
         x="2002.6411"
         y="3025.5608"
         id="tspan3931">fuk, co si o tom myslí</tspan><tspan
         sodipodi:role="line"
         style="font-size:45px;stroke:#000000;stroke-width:2.79999995;stroke-miterlimit:4;stroke-dasharray:none;stroke-opacity:1"
         x="2002.6411"
         y="3081.8108"
         id="tspan3933">MATIČKA PŘÍRODA!</tspan><tspan
         sodipodi:role="line"
         style="font-size:45px;stroke-width:2.79999995;stroke-miterlimit:4;stroke-dasharray:none"
         x="2002.6411"
         y="3138.0608"
         id="tspan3935" /><tspan
         sodipodi:role="line"
         style="font-size:45px;stroke-width:2.79999995;stroke-miterlimit:4;stroke-dasharray:none"
         x="2002.6411"
         y="3194.3108"
         id="tspan4378-7-6" /></text>
    <text
       xml:space="preserve"
       style="font-style:normal;font-variant:normal;font-weight:normal;font-stretch:normal;font-size:12px;line-height:125%;font-family:Lavi;-inkscape-font-specification:Lavi;text-align:center;letter-spacing:0px;word-spacing:0px;text-anchor:middle;fill:#000000;fill-opacity:1;stroke:none;stroke-width:2.79999995;stroke-miterlimit:4;stroke-dasharray:none"
       x="2055.0681"
       y="3188.7329"
       id="text4246-3-2-9-6-6-0-5-1"
       sodipodi:linespacing="125%"><tspan
         sodipodi:role="line"
         style="font-size:45px;stroke-width:2.79999995;stroke-miterlimit:4;stroke-dasharray:none"
         x="2055.0681"
         y="3188.7329"
         id="tspan4544">Takže si ty svoje moudra</tspan><tspan
         sodipodi:role="line"
         style="font-size:45px;stroke-width:2.79999995;stroke-miterlimit:4;stroke-dasharray:none"
         x="2062.9783"
         y="3244.9829"
         id="tspan3939">nech pro sebe a kopej!!! </tspan><tspan
         sodipodi:role="line"
         style="font-size:45px;stroke-width:2.79999995;stroke-miterlimit:4;stroke-dasharray:none"
         x="2055.0681"
         y="3301.2329"
         id="tspan4378-7-6-4" /></text>
  </g>
</svg>
