<?xml version="1.0" encoding="UTF-8" standalone="no"?>
<!-- Created with Inkscape (http://www.inkscape.org/) -->

<svg
   xmlns:dc="http://purl.org/dc/elements/1.1/"
   xmlns:cc="http://creativecommons.org/ns#"
   xmlns:rdf="http://www.w3.org/1999/02/22-rdf-syntax-ns#"
   xmlns:svg="http://www.w3.org/2000/svg"
   xmlns="http://www.w3.org/2000/svg"
   xmlns:xlink="http://www.w3.org/1999/xlink"
   xmlns:sodipodi="http://sodipodi.sourceforge.net/DTD/sodipodi-0.dtd"
   xmlns:inkscape="http://www.inkscape.org/namespaces/inkscape"
   id="svg2"
   version="1.1"
   inkscape:version="0.91 r13725"
   width="2481"
   height="3503"
   sodipodi:docname="Pepper-and-Carrot_by-David-Revoy_E19P01.svg">
  <metadata
     id="metadata8">
    <rdf:RDF>
      <cc:Work
         rdf:about="">
        <dc:format>image/svg+xml</dc:format>
        <dc:type
           rdf:resource="http://purl.org/dc/dcmitype/StillImage" />
        <dc:title />
      </cc:Work>
    </rdf:RDF>
  </metadata>
  <defs
     id="defs6" />
  <sodipodi:namedview
     pagecolor="#ffffff"
     bordercolor="#666666"
     borderopacity="1"
     objecttolerance="10"
     gridtolerance="10"
     guidetolerance="10"
     inkscape:pageopacity="0"
     inkscape:pageshadow="2"
     inkscape:window-width="1440"
     inkscape:window-height="837"
     id="namedview4"
     showgrid="false"
     inkscape:zoom="0.31941595"
     inkscape:cx="1410.2665"
     inkscape:cy="836.13055"
     inkscape:window-x="-4"
     inkscape:window-y="-4"
     inkscape:window-maximized="1"
     inkscape:current-layer="layer3"
     showguides="false" />
  <g
     inkscape:groupmode="layer"
     id="layer2"
     inkscape:label="artwork"
     sodipodi:insensitive="true">
    <image
       sodipodi:absref="C:\Users\Katka\Dropbox\Episode 19\cs\..\gfx_Pepper-and-Carrot_by-David-Revoy_E19P01.png"
       xlink:href="..\gfx_Pepper-and-Carrot_by-David-Revoy_E19P01.png"
       y="0"
       x="0"
       id="image10"
       height="3503"
       width="2481" />
  </g>
  <g
     inkscape:groupmode="layer"
     id="layer3"
     inkscape:label="speechbubbles">
    <path
       style="color:#000000;display:inline;overflow:visible;visibility:visible;fill:#ffffff;fill-opacity:1;fill-rule:nonzero;stroke:none;stroke-width:1px;marker:none;enable-background:accumulate"
       d="m 1029.8467,1943.2465 c -4.1022,-30.7057 28.0335,-67.7498 144.3765,-59.5623 116.3434,8.1875 139.2305,22.6129 142.6669,62.0186 1.4246,16.3371 -29.5625,41.756 -46.7279,45.8498 -17.1655,4.0936 -88.3264,4.7063 -116.9356,1.4314 -28.6088,-3.275 -90.0027,-10.4377 -107.1681,-25.1752 -17.1656,-14.7373 -14.3044,-21.2873 -16.2118,-24.5623 z"
       id="path3365"
       inkscape:connector-curvature="0"
       sodipodi:nodetypes="csssssc" />
    <path
       style="color:#000000;display:inline;overflow:visible;visibility:visible;fill:#ffffff;fill-opacity:1;fill-rule:nonzero;stroke:none;stroke-width:1px;marker:none;enable-background:accumulate"
       d="m 1361.1496,2071.9137 c -9.4717,56.3607 -22.3217,97.8744 -87.9067,96.8401 -66.3844,24.2075 -139.2852,31.6385 -206.1679,18.5733 -34.7005,-9.2875 -67.10965,-68.9086 -63.4814,-122.9726 3.5064,-48.4619 37.1469,-80.0431 69.5711,-84.5449 47.533,-15.7114 97.1055,-23.365 145.4357,-9.9986 41.4996,7.6314 85.9443,9.7001 122.9066,39.842 12.3523,15.9264 17.0983,39.7731 19.6426,62.2607 z"
       id="path3365-3"
       inkscape:connector-curvature="0"
       sodipodi:nodetypes="cccccccc" />
    <path
       style="fill:#ffffff;stroke:none"
       d="m 1017.5796,2279.7271 c 5.8015,-61.6305 51.1198,-94.9797 117.6384,-103.564 81.5502,-18.3183 157.5619,-26.7108 238.9422,-9.1588 53.2163,14.5189 96.9522,16.1672 138.2971,57.8418 27.417,30.565 37.2887,146.2343 -7.1187,176.2126 -46.2286,43.8283 -170.1019,53.5381 -232.7753,52.3401 -90.2079,1.8038 -169.2663,-6.1775 -213.8153,-42.6819 -41.6557,-35.0232 -46.8422,-85.3666 -41.1684,-130.9898 z"
       id="path3065"
       inkscape:connector-curvature="0"
       sodipodi:nodetypes="cccccccc" />
    <path
       style="display:inline;fill:#ffffff;stroke:none"
       d="m 1639.5841,2318.3167 c -21.9558,36.2988 -64.6442,61.9501 -96.7367,35.7869 -19.4449,-15.8524 -29.1134,-28.291 -29.1134,-28.291 l -6.3679,30.9322 20.7854,19.5483 c 0,0 65.508,31.9103 111.4326,-57.9764 z"
       id="path3063-1"
       inkscape:connector-curvature="0"
       sodipodi:nodetypes="cscccc" />
    <path
       style="color:#000000;display:inline;overflow:visible;visibility:visible;fill:#ffffff;fill-opacity:1;fill-rule:nonzero;stroke:none;stroke-width:1px;marker:none;enable-background:accumulate"
       d="m 1938.1785,2318.7633 c 19.2021,-14.8351 94.8161,-27.5791 170.3357,-26.0229 75.5195,1.5563 147.8999,9.704 192.1468,46.2927 65.1904,53.907 35.4975,177.1599 1.7333,197.9002 -24.4703,15.0314 -97.7087,28.518 -167.8557,30.0346 -70.1467,1.5168 -137.2022,-8.9363 -169.9634,-22.5197 -28.274,-11.723 -53.8144,-34.2326 -72.8315,-120.7802 -6.7646,-30.7859 8.0308,-75.2341 46.4348,-104.9047 z"
       id="path4040"
       inkscape:connector-curvature="0"
       sodipodi:nodetypes="ssssssss" />
    <path
       style="color:#000000;display:inline;overflow:visible;visibility:visible;fill:#ffffff;fill-opacity:1;fill-rule:nonzero;stroke:none;stroke-width:1px;marker:none;enable-background:accumulate"
       d="m 2091.5868,2309.6031 c -12.6779,-33.6245 -30.9699,-60.7293 -65.977,-55.676 52.3023,-18.546 92.9308,35.3617 103.6224,53.2726 10.6914,17.9109 -37.6454,2.4034 -37.6454,2.4034 z"
       id="path5010"
       inkscape:connector-curvature="0" />
    <path
       style="color:#000000;display:inline;overflow:visible;visibility:visible;fill:#ffffff;fill-opacity:1;fill-rule:nonzero;stroke:none;stroke-width:1px;marker:none;enable-background:accumulate"
       d="m 631.15184,2731.0731 c -0.98422,-28.0491 9.88701,-48.1481 51.22173,-66.466 41.33491,-18.3177 99.99718,-9.581 115.38896,-8.9766 72.22966,2.8363 96.43168,12.3078 111.19406,32.9155 14.76247,20.6075 18.53393,16.0794 18.01221,51.772 -0.46708,31.9546 -4.63975,46.9718 -22.35464,53.8408 -17.71501,6.8692 -153.80641,14.7385 -174.75878,14.4324 -20.51398,-0.2997 -46.63271,-3.7351 -66.9712,-14.987 -19.20005,-10.6221 -30.74819,-34.4819 -31.73234,-62.5311 z"
       id="path3373"
       inkscape:connector-curvature="0"
       sodipodi:nodetypes="zsssssssz" />
    <path
       style="color:#000000;display:inline;overflow:visible;visibility:visible;fill:#ffffff;fill-opacity:1;fill-rule:nonzero;stroke:none;stroke-width:1px;marker:none;enable-background:accumulate"
       d="m 693.85774,2836.9634 c 34.79097,-51.7255 58.85784,-57.4576 258.01824,-67.9308 55.29882,-2.908 123.58172,4.2059 167.05912,20.6467 43.4775,16.4409 80.7564,69.9016 74.2596,121.5684 -12.9937,103.3334 -136.2395,92.3715 -173.5965,93.5873 -37.35702,1.2158 -294.46735,4.5514 -331.32239,-42.345 -35.3432,-44.9727 3.95774,-103.6441 5.58193,-125.5266 z"
       id="path4546"
       inkscape:connector-curvature="0"
       sodipodi:nodetypes="csssssc" />
    <path
       style="color:#000000;display:inline;overflow:visible;visibility:visible;fill:#ffffff;fill-opacity:1;fill-rule:nonzero;stroke:none;stroke-width:1px;marker:none;enable-background:accumulate"
       d="m 848.16265,2970.9676 c 33.73134,-47.372 217.19935,-43.328 278.24245,-22.804 61.043,20.5236 87.4323,26.1008 86.5959,68.4123 -0.783,39.6124 -20.4684,76.6298 -51.6999,88.032 -31.2312,11.402 -104.4566,11.166 -135.6879,11.166 -31.23128,0 -130.92846,-7.2574 -156.15671,-23.9445 -24.1333,-15.9628 -55.02533,-73.49 -21.29384,-120.8618 z"
       id="path3330"
       inkscape:connector-curvature="0"
       sodipodi:nodetypes="zsssssz" />
    <path
       style="color:#000000;display:inline;overflow:visible;visibility:visible;fill:#ffffff;fill-opacity:1;fill-rule:nonzero;stroke:none;stroke-width:1px;marker:none;enable-background:accumulate"
       d="m 929.99953,3158.9683 c 39.78505,-10.9584 53.20162,-17.1208 58.43434,-65.1641 5.23266,-48.0433 23.16173,-44.6696 23.16173,-44.6696 l 14.7504,30.3838 c 0,0 -18.3423,101.2684 -96.34647,79.4499 z"
       id="path3072"
       inkscape:connector-curvature="0" />
    <path
       style="fill:#ffffff;fill-rule:evenodd;stroke:none;stroke-width:1px;stroke-linecap:butt;stroke-linejoin:miter;stroke-opacity:1"
       d="m 1894.8801,3246.1132 c 41.1301,2.4984 94.6961,-9.9385 61.444,-47.554 59.8456,30.1404 116.5371,35.7861 176.2202,2.7894 -8.7246,33.3112 88.862,35.8812 122.2998,13.8391 -10.2024,34.7136 36.7109,36.0527 75.9127,37.1548 -82.9275,42.439 -39.3814,55.9358 -6.7053,71.9203 -81.4978,-11.8263 -61.7873,12.1358 -71.5215,25.6858 -69.9127,-30.7009 -120.7558,-23.4146 -160.9233,5.1371 -21.0079,-15.5272 -27.6021,-47.6191 -105.0469,1.7124 28.4785,-42.5872 -8.8503,-38.1172 -69.2865,-17.1237 13.9046,-9.7895 72.4281,-35.9438 -22.3932,-33.6277 14.8068,-3.4475 26.6882,-7.2005 35.0618,-11.3202 8.3737,-4.1196 -45.4709,-15.1179 -44.6948,-20.0313 0.7765,-4.9134 56.1737,-3.7417 48.188,-9.5705 -7.9855,-5.8288 -20.6432,-12.1456 -38.555,-19.0115 z"
       id="path4584"
       inkscape:connector-curvature="0"
       sodipodi:nodetypes="cccccccccccsssc" />
    <path
       style="color:#000000;display:inline;overflow:visible;visibility:visible;fill:#ffffff;fill-opacity:1;fill-rule:nonzero;stroke:none;stroke-width:1px;marker:none;enable-background:accumulate"
       d="m 1929.0839,3276.1051 c -26.7744,0.1934 -96.6935,-12.0611 -103.8888,-13.0148 6.0705,-5.4371 10.1298,-10.8932 13.4021,-15.1162 -13.7156,-0.9263 -59.5001,-2.596 -79.7676,1.5975 50.7453,-11.4228 73.8083,-12.6417 95.8809,-9.8645 -2.9601,5.998 -5.8701,9.4267 -7.3188,12.6033 18.7307,6.708 117.9634,8.8349 106.078,1.4065 z"
       id="path5066"
       inkscape:connector-curvature="0"
       sodipodi:nodetypes="cccccccc" />
  </g>
  <g
     inkscape:groupmode="layer"
     id="layer1"
     inkscape:label="txt"
     style="display:inline">
    <text
       xml:space="preserve"
       style="font-style:normal;font-variant:normal;font-weight:normal;font-stretch:normal;font-size:12px;line-height:125%;font-family:Lavi;-inkscape-font-specification:Lavi;text-align:center;letter-spacing:0px;word-spacing:0px;text-anchor:middle;fill:#000000;fill-opacity:1;stroke:none"
       x="1177.4561"
       y="1950.6425"
       id="text4246-3-9"
       sodipodi:linespacing="125%"><tspan
         sodipodi:role="line"
         style="font-size:45px"
         x="1185.3662"
         y="1950.6425"
         id="tspan4183-8">Jdu dovnitř. </tspan></text>
    <text
       xml:space="preserve"
       style="font-style:normal;font-variant:normal;font-weight:normal;font-stretch:normal;font-size:12px;line-height:125%;font-family:Lavi;-inkscape-font-specification:Lavi;text-align:center;letter-spacing:0px;word-spacing:0px;text-anchor:middle;fill:#000000;fill-opacity:1;stroke:none"
       x="2146.3938"
       y="2373.6216"
       id="text4246"
       sodipodi:linespacing="125%"><text
   xml:space="preserve"
   style="font-style:normal;font-variant:normal;font-weight:normal;font-stretch:normal;font-size:12px;line-height:125%;font-family:Lavi;-inkscape-font-specification:Lavi;text-align:center;letter-spacing:0px;word-spacing:0px;text-anchor:middle;fill:#000000;fill-opacity:1;stroke:none"
   x="1184.1918"
   y="2041.3834"
   id="text4246-3"
   sodipodi:linespacing="125%"><tspan
     sodipodi:role="line"
     style="font-size:45px"
     x="1184.1918"
     y="2041.3834"
     id="tspan4183">Nemá smysl</tspan><tspan
     sodipodi:role="line"
     style="font-size:45px"
     x="1184.1918"
     y="2097.6333"
     id="tspan3380">sledovat tě,</tspan><tspan
     sodipodi:role="line"
     style="font-size:45px"
     x="1192.1019"
     y="2153.8833"
     id="tspan3953">jak kopeš... </tspan></text>
  <tspan
   sodipodi:role="line"
   style="font-size:45px"
   x="1186.3011"
   y="2153.8833"
   id="tspan4252" /></text>
    <text
       xml:space="preserve"
       style="font-style:normal;font-variant:normal;font-weight:normal;font-stretch:normal;font-size:12px;line-height:125%;font-family:Lavi;-inkscape-font-specification:Lavi;text-align:center;letter-spacing:0px;word-spacing:0px;text-anchor:middle;fill:#000000;fill-opacity:1;stroke:none"
       x="1268.4561"
       y="2236.9985"
       id="text4246-3-7"
       sodipodi:linespacing="125%"><tspan
         sodipodi:role="line"
         style="font-size:45px"
         x="1268.4561"
         y="2236.9985"
         id="tspan4222">Zakopej všechny ty</tspan><tspan
         sodipodi:role="line"
         style="font-size:45px"
         x="1276.3662"
         y="2293.2485"
         id="tspan3396">pokažené lektvary </tspan><tspan
         sodipodi:role="line"
         style="font-size:45px"
         x="1268.4561"
         y="2349.4985"
         id="tspan3398">a pospěš si, ať si pak</tspan><tspan
         sodipodi:role="line"
         style="font-size:45px"
         x="1268.4561"
         y="2405.7485"
         id="tspan3968">můžeš odpočinout.</tspan></text>
    <text
       xml:space="preserve"
       style="font-style:normal;font-variant:normal;font-weight:normal;font-stretch:normal;font-size:12px;line-height:125%;font-family:Lavi;-inkscape-font-specification:Lavi;text-align:center;letter-spacing:0px;word-spacing:0px;text-anchor:middle;fill:#000000;fill-opacity:1;stroke:none"
       x="2111.6384"
       y="2365.1826"
       id="text4246-3-7-6"
       sodipodi:linespacing="125%"><tspan
         sodipodi:role="line"
         style="font-size:45px"
         x="2111.6384"
         y="2365.1826"
         id="tspan4193">To, že bys zítra</tspan><tspan
         sodipodi:role="line"
         style="font-size:45px"
         x="2111.6384"
         y="2421.4326"
         id="tspan3381">uspěla je asi jen</tspan><tspan
         sodipodi:role="line"
         style="font-size:45px"
         x="2111.6384"
         y="2477.6826"
         id="tspan3981"> zbožné přání,</tspan><tspan
         sodipodi:role="line"
         style="font-size:45px"
         x="2111.6384"
         y="2533.9326"
         id="tspan3983">ale kdo ví!</tspan></text>
    <text
       xml:space="preserve"
       style="font-style:normal;font-variant:normal;font-weight:normal;font-stretch:normal;font-size:12px;line-height:125%;font-family:Lavi;-inkscape-font-specification:Lavi;text-align:center;letter-spacing:0px;word-spacing:0px;text-anchor:middle;fill:#000000;fill-opacity:1;stroke:none"
       x="775.45044"
       y="2707.4324"
       id="text4246-3-7-6-7"
       sodipodi:linespacing="125%"><tspan
         sodipodi:role="line"
         style="font-size:45px"
         x="775.45044"
         y="2707.4324"
         id="tspan4515">Dobře,</tspan><tspan
         sodipodi:role="line"
         style="font-size:45px"
         x="783.3606"
         y="2763.6824"
         id="tspan3987">pospíším si! </tspan></text>
    <text
       xml:space="preserve"
       style="font-style:normal;font-variant:normal;font-weight:normal;font-stretch:normal;font-size:12px;line-height:125%;font-family:Lavi;-inkscape-font-specification:Lavi;text-align:center;letter-spacing:0px;word-spacing:0px;text-anchor:middle;fill:#000000;fill-opacity:1;stroke:none"
       x="942.81274"
       y="2838.0046"
       id="text4246-3-7-6-7-0"
       sodipodi:linespacing="125%"><tspan
         sodipodi:role="line"
         style="font-size:45px"
         x="942.81274"
         y="2838.0046"
         id="tspan4774">Ale mimochodem,</tspan><tspan
         sodipodi:role="line"
         style="font-size:45px"
         x="942.81274"
         y="2894.2546"
         id="tspan4778">proč pořád</tspan><tspan
         sodipodi:role="line"
         style="font-size:45px"
         x="950.7229"
         y="2950.5046"
         id="tspan4770"><tspan
   style="stroke:#000000;stroke-width:1.29999995;stroke-miterlimit:4;stroke-dasharray:none;stroke-opacity:1"
   id="tspan4772">všechno zakopáváme</tspan>? </tspan></text>
    <text
       xml:space="preserve"
       style="font-style:normal;font-variant:normal;font-weight:normal;font-stretch:normal;font-size:12px;line-height:125%;font-family:Lavi;-inkscape-font-specification:Lavi;text-align:center;letter-spacing:0px;word-spacing:0px;text-anchor:middle;fill:#000000;fill-opacity:1;stroke:none"
       x="1026.5442"
       y="3025.0105"
       id="text4246-3-7-6-7-0-9"
       sodipodi:linespacing="125%"><tspan
         sodipodi:role="line"
         style="font-size:45px"
         x="1026.5442"
         y="3025.0105"
         id="tspan4464">Nebylo by lepší</tspan><tspan
         sodipodi:role="line"
         style="font-size:45px"
         x="1026.5442"
         y="3081.2605"
         id="tspan4782">kdybychom...</tspan></text>
    <text
       xml:space="preserve"
       style="font-style:normal;font-variant:normal;font-weight:normal;font-stretch:normal;font-size:12px;line-height:125%;font-family:Lavi;-inkscape-font-specification:Lavi;text-align:center;letter-spacing:0px;word-spacing:0px;text-anchor:middle;fill:#000000;fill-opacity:1;stroke:none"
       x="2109.5393"
       y="3290.6812"
       id="text4246-3-7-6-7-0-9-3"
       sodipodi:linespacing="125%"><tspan
         sodipodi:role="line"
         style="font-size:45px"
         x="2109.5393"
         y="3290.6812"
         id="tspan4464-5">Kdybychom <tspan
   style="stroke:#000000;stroke-width:2.5999999;stroke-miterlimit:4;stroke-dasharray:none;stroke-opacity:1"
   id="tspan4493">CO</tspan>?</tspan></text>
  </g>
</svg>
