<?xml version="1.0" encoding="UTF-8" standalone="no"?>
<!-- Created with Inkscape (http://www.inkscape.org/) -->

<svg
   xmlns:dc="http://purl.org/dc/elements/1.1/"
   xmlns:cc="http://creativecommons.org/ns#"
   xmlns:rdf="http://www.w3.org/1999/02/22-rdf-syntax-ns#"
   xmlns:svg="http://www.w3.org/2000/svg"
   xmlns="http://www.w3.org/2000/svg"
   xmlns:xlink="http://www.w3.org/1999/xlink"
   xmlns:sodipodi="http://sodipodi.sourceforge.net/DTD/sodipodi-0.dtd"
   xmlns:inkscape="http://www.inkscape.org/namespaces/inkscape"
   id="svg2"
   version="1.1"
   inkscape:version="0.91 r13725"
   width="2481"
   height="3503"
   sodipodi:docname="Pepper-and-Carrot_by-David-Revoy_E19P01.svg">
  <metadata
     id="metadata8">
    <rdf:RDF>
      <cc:Work
         rdf:about="">
        <dc:format>image/svg+xml</dc:format>
        <dc:type
           rdf:resource="http://purl.org/dc/dcmitype/StillImage" />
        <dc:title />
      </cc:Work>
    </rdf:RDF>
  </metadata>
  <defs
     id="defs6" />
  <sodipodi:namedview
     pagecolor="#ffffff"
     bordercolor="#666666"
     borderopacity="1"
     objecttolerance="10"
     gridtolerance="10"
     guidetolerance="10"
     inkscape:pageopacity="0"
     inkscape:pageshadow="2"
     inkscape:window-width="1440"
     inkscape:window-height="811"
     id="namedview4"
     showgrid="false"
     inkscape:zoom="0.39160353"
     inkscape:cx="1589.2419"
     inkscape:cy="592.86433"
     inkscape:window-x="380"
     inkscape:window-y="0"
     inkscape:window-maximized="0"
     inkscape:current-layer="layer1"
     showguides="false" />
  <g
     inkscape:groupmode="layer"
     id="layer2"
     inkscape:label="artwork"
     sodipodi:insensitive="true">
    <image
       sodipodi:absref="/home/koyu/peppercarrot_ep19_translation/de/../gfx_Pepper-and-Carrot_by-David-Revoy_E19P01.png"
       xlink:href="../gfx_Pepper-and-Carrot_by-David-Revoy_E19P01.png"
       y="0"
       x="0"
       id="image10"
       height="3503"
       width="2481" />
  </g>
  <g
     inkscape:groupmode="layer"
     id="layer3"
     inkscape:label="speechbubbles">
    <path
       style="color:#000000;display:inline;overflow:visible;visibility:visible;fill:#ffffff;fill-opacity:1;fill-rule:nonzero;stroke:none;stroke-width:1px;marker:none;enable-background:accumulate"
       d="m 1001.7536,1940.5061 c -5.10751,-38.8196 34.9037,-85.6524 179.759,-75.3015 144.8558,10.3509 173.352,28.5884 177.6306,78.4068 1.7737,20.654 -36.8075,52.7898 -58.1796,57.9653 -21.3724,5.1755 -109.9728,5.95 -145.5932,1.8097 -35.6201,-4.1403 -112.0599,-13.1957 -133.432,-31.8276 -21.3723,-18.6315 -17.81,-26.9124 -20.1848,-31.0527 z"
       id="path3365"
       inkscape:connector-curvature="0"
       sodipodi:nodetypes="csssssc" />
    <path
       style="color:#000000;display:inline;overflow:visible;visibility:visible;fill:#ffffff;fill-opacity:1;fill-rule:nonzero;stroke:none;stroke-width:1px;marker:none;enable-background:accumulate"
       d="m 1512.9892,2098.6104 c -14.1955,65.3107 -78.438,94.5078 -131.7487,112.2183 -99.4925,28.0515 -203.7532,13.9718 -303.9926,-1.168 -52.0067,-10.7624 -105.57746,-57.1607 -100.13978,-119.81 5.25522,-56.1576 55.67328,-92.7538 104.26868,-97.9705 71.2391,-18.2064 145.5352,-27.0754 217.9692,-11.5863 62.197,8.8432 128.8077,11.2404 184.2041,46.1688 18.513,18.4554 25.6259,46.089 29.4391,72.1477 z"
       id="path3365-3"
       inkscape:connector-curvature="0" />
    <path
       style="fill:#ffffff;stroke:none"
       d="m 966.27169,2331.7234 c 6.86649,-72.0502 60.50391,-111.0376 139.23341,-121.0733 96.5204,-21.4153 186.4856,-31.2267 282.805,-10.7072 62.9853,16.9736 114.7498,18.9005 163.6844,67.621 32.45,35.7325 44.1339,170.9577 -8.4254,206.0044 -54.7149,51.2382 -201.3277,62.5896 -275.5061,61.1891 -106.7675,2.1087 -200.3387,-7.222 -253.0656,-49.8981 -49.30246,-40.9444 -55.44106,-99.7993 -48.72571,-153.1359 z"
       id="path3065"
       inkscape:connector-curvature="0"
       sodipodi:nodetypes="cccccccc" />
    <path
       style="display:inline;fill:#ffffff;stroke:none"
       d="m 1672.4566,2432.5878 c -21.9558,36.2988 -64.6442,61.9501 -96.7367,35.7869 -19.4449,-15.8524 -29.1134,-28.291 -29.1134,-28.291 l -6.3679,30.9322 20.7854,19.5483 c 0,0 65.508,31.9103 111.4326,-57.9764 z"
       id="path3063-1"
       inkscape:connector-curvature="0"
       sodipodi:nodetypes="cscccc" />
    <path
       style="color:#000000;display:inline;overflow:visible;visibility:visible;fill:#ffffff;fill-opacity:1;fill-rule:nonzero;stroke:none;stroke-width:1px;marker:none;enable-background:accumulate"
       d="m 1825.3466,2301.7686 c 26.2513,-15.8503 129.6233,-29.4663 232.8663,-27.8037 103.2429,1.6628 202.1942,10.3681 262.6842,49.4606 89.122,57.5958 48.5286,189.2829 2.3697,211.4425 -33.4536,16.06 -133.5777,30.4695 -229.4758,32.0899 -95.8978,1.6206 -187.5695,-9.5478 -232.3574,-24.0608 -38.6533,-12.5252 -94.9698,-46.6099 -99.568,-129.0452 -1.8767,-33.6453 10.9789,-80.3823 63.481,-112.0833 z"
       id="path4040"
       inkscape:connector-curvature="0"
       sodipodi:nodetypes="ssssssss" />
    <path
       style="color:#000000;display:inline;overflow:visible;visibility:visible;fill:#ffffff;fill-opacity:1;fill-rule:nonzero;stroke:none;stroke-width:1px;marker:none;enable-background:accumulate"
       d="m 2091.5868,2276.7306 c -12.6779,-33.6245 -30.9699,-60.7293 -65.977,-55.676 52.3023,-18.546 92.9308,35.3617 103.6224,53.2726 10.6914,17.9109 -37.6454,2.4034 -37.6454,2.4034 z"
       id="path5010"
       inkscape:connector-curvature="0" />
    <path
       style="color:#000000;display:inline;overflow:visible;visibility:visible;fill:#ffffff;fill-opacity:1;fill-rule:nonzero;stroke:none;stroke-width:1px;marker:none;enable-background:accumulate"
       d="m 628.02326,2751.905 c -1.01924,-35.5355 10.23888,-60.999 53.04466,-84.2059 42.80597,-23.2068 103.55598,-12.1382 119.49554,-11.3725 74.80024,3.5932 99.86358,15.5928 115.15134,41.7007 15.28785,26.1077 19.19353,20.3711 18.65325,65.5901 -0.48371,40.4834 -4.80488,59.5087 -23.15023,68.2112 -18.34546,8.7026 -159.28021,18.6722 -180.97826,18.2844 -21.24405,-0.3797 -48.29232,-4.732 -69.35464,-18.9872 -19.88335,-13.4571 -31.84249,-43.6852 -32.86166,-79.2208 z"
       id="path3373"
       inkscape:connector-curvature="0"
       sodipodi:nodetypes="zsssssssz" />
    <path
       style="color:#000000;display:inline;overflow:visible;visibility:visible;fill:#ffffff;fill-opacity:1;fill-rule:nonzero;stroke:none;stroke-width:1px;marker:none;enable-background:accumulate"
       d="m 642.10153,2924.7721 c 9.91133,-71.4433 85.33335,-96.2842 300.62391,-100.5518 56.30767,-1.1161 151.16026,7.4337 195.37846,24.0922 44.2183,16.6585 69.3963,73.9993 62.7888,126.3501 -13.2151,104.7015 -151.2975,87.2502 -189.2911,88.4821 -37.99351,1.2319 -299.48526,4.6116 -336.96834,-42.9057 -35.94549,-45.5681 -34.1836,-73.2947 -32.53173,-95.4669 z"
       id="path4546"
       inkscape:connector-curvature="0"
       sodipodi:nodetypes="csssssc" />
    <path
       style="color:#000000;display:inline;overflow:visible;visibility:visible;fill:#ffffff;fill-opacity:1;fill-rule:nonzero;stroke:none;stroke-width:1px;marker:none;enable-background:accumulate"
       d="m 774.9189,3056.7394 c 38.32171,-42.4872 246.7572,-38.8602 316.1074,-20.4526 69.3502,18.4073 99.3306,23.4094 98.3805,61.358 -0.8897,35.5277 -23.254,68.7281 -58.7356,78.9545 -35.4814,10.2263 -118.6718,10.0146 -154.15326,10.0146 -35.48132,0 -148.74593,-6.509 -177.4074,-21.4754 -27.41752,-14.3168 -62.51353,-65.9121 -24.19164,-108.3991 z"
       id="path3330"
       inkscape:connector-curvature="0"
       sodipodi:nodetypes="zsssssz" />
    <path
       style="color:#000000;display:inline;overflow:visible;visibility:visible;fill:#ffffff;fill-opacity:1;fill-rule:nonzero;stroke:none;stroke-width:1px;marker:none;enable-background:accumulate"
       d="m 918.93079,3229.8083 c 39.78505,-10.9584 53.20162,-17.1208 58.43434,-65.1641 5.23266,-48.0433 23.16167,-44.6696 23.16167,-44.6696 l 14.7504,30.3838 c 0,0 -18.34229,101.2684 -96.34641,79.4499 z"
       id="path3072"
       inkscape:connector-curvature="0" />
    <path
       style="fill:#ffffff;fill-rule:evenodd;stroke:none;stroke-width:1px;stroke-linecap:butt;stroke-linejoin:miter;stroke-opacity:1"
       d="m 1892.3165,3225.7815 c 30.194,2.4626 69.5172,-9.7964 45.1065,-46.8738 43.9331,29.7093 85.5507,35.2742 129.3645,2.7496 -6.4047,32.8346 65.2342,35.3679 89.7811,13.6411 -7.4896,34.217 26.9497,35.5369 55.7281,36.6233 -60.8777,41.8319 -28.9102,55.1356 -4.9225,70.8915 -59.828,-11.6571 -45.3584,11.9622 -52.5043,25.3183 -51.3235,-30.2617 -88.6477,-23.0796 -118.135,5.0637 -15.422,-15.3051 -20.2628,-46.9379 -77.1156,1.6879 20.9062,-41.9781 -6.4971,-37.5719 -50.8637,-16.8787 10.2074,-9.6495 53.1699,-35.4297 -16.4391,-33.1468 10.8699,-3.3981 19.592,-7.0974 25.7392,-11.1582 6.1473,-4.0607 -33.3805,-14.9017 -32.8107,-19.7447 0.5699,-4.8431 41.2374,-3.6882 35.3751,-9.4337 -5.8623,-5.7453 -15.1544,-11.9718 -28.3036,-18.7395 z"
       id="path4584"
       inkscape:connector-curvature="0"
       sodipodi:nodetypes="cccccccccccsssc" />
    <path
       style="color:#000000;display:inline;overflow:visible;visibility:visible;fill:#ffffff;fill-opacity:1;fill-rule:nonzero;stroke:none;stroke-width:1px;marker:none;enable-background:accumulate"
       d="m 1929.0839,3276.1051 c -26.7744,0.1934 -96.6935,-12.0611 -103.8888,-13.0148 6.0705,-5.4371 10.1298,-10.8932 13.4021,-15.1162 -13.7156,-0.9263 -59.5001,-2.596 -79.7676,1.5975 50.7453,-11.4228 73.8083,-12.6417 95.8809,-9.8645 -2.9601,5.998 -5.8701,9.4267 -7.3188,12.6033 18.7307,6.708 117.9634,8.8349 106.078,1.4065 z"
       id="path5066"
       inkscape:connector-curvature="0"
       sodipodi:nodetypes="cccccccc" />
  </g>
  <g
     inkscape:groupmode="layer"
     id="layer1"
     inkscape:label="txt"
     style="display:inline">
    <text
       xml:space="preserve"
       style="font-style:normal;font-variant:normal;font-weight:normal;font-stretch:normal;font-size:12px;line-height:125%;font-family:Lavi;-inkscape-font-specification:Lavi;text-align:center;letter-spacing:0px;word-spacing:0px;text-anchor:middle;fill:#000000;fill-opacity:1;stroke:none"
       x="1179.64"
       y="1952.912"
       id="text4246-3-9"
       sodipodi:linespacing="125%"><tspan
         sodipodi:role="line"
         style="font-size:45px"
         x="1179.64"
         y="1952.912"
         id="tspan4183-8">Ich gehe hinein.</tspan></text>
    <text
       xml:space="preserve"
       style="font-style:normal;font-variant:normal;font-weight:normal;font-stretch:normal;font-size:12px;line-height:125%;font-family:Lavi;-inkscape-font-specification:Lavi;text-align:center;letter-spacing:0px;word-spacing:0px;text-anchor:middle;fill:#000000;fill-opacity:1;stroke:none"
       x="2206.4333"
       y="2393.5132"
       id="text4246"
       sodipodi:linespacing="125%"><text
         xml:space="preserve"
         style="font-style:normal;font-variant:normal;font-weight:normal;font-stretch:normal;font-size:12px;line-height:125%;font-family:Lavi;-inkscape-font-specification:Lavi;text-align:center;letter-spacing:0px;word-spacing:0px;text-anchor:middle;fill:#000000;fill-opacity:1;stroke:none"
         x="1244.2314"
         y="2061.2747"
         id="text4246-3"
         sodipodi:linespacing="125%"><tspan
           sodipodi:role="line"
           style="font-size:45px"
           x="1244.2314"
           y="2061.2747"
           id="tspan3953">Es bringt</tspan><tspan
           sodipodi:role="line"
           style="font-size:45px"
           x="1244.2314"
           y="2117.5247"
           id="tspan3395">nichts, dir beim</tspan><tspan
           sodipodi:role="line"
           style="font-size:45px"
           x="1252.1416"
           y="2173.7747"
           id="tspan3397">Graben zuzusehen … </tspan></text>
<tspan
         sodipodi:role="line"
         style="font-size:45px"
         x="1252.1416"
         y="2173.7747"
         id="tspan4252" /></text>
    <text
       xml:space="preserve"
       style="font-style:normal;font-variant:normal;font-weight:normal;font-stretch:normal;font-size:12px;line-height:125%;font-family:Lavi;-inkscape-font-specification:Lavi;text-align:center;letter-spacing:0px;word-spacing:0px;text-anchor:middle;fill:#000000;fill-opacity:1;stroke:none"
       x="1272.3965"
       y="2267.2444"
       id="text4246-3-7"
       sodipodi:linespacing="125%"><tspan
         sodipodi:role="line"
         style="font-size:45px"
         x="1272.3965"
         y="2267.2444"
         id="tspan3407">Vergrabe all die</tspan><tspan
         sodipodi:role="line"
         style="font-size:45px"
         x="1272.3965"
         y="2323.4944"
         id="tspan3968">misslungenen Zaubertränke</tspan><tspan
         sodipodi:role="line"
         style="font-size:45px"
         x="1272.3965"
         y="2379.7444"
         id="tspan3392">und komm dann so schnell</tspan><tspan
         sodipodi:role="line"
         style="font-size:45px"
         x="1272.3965"
         y="2435.9944"
         id="tspan3394">wie möglich rein, um Dich</tspan><tspan
         sodipodi:role="line"
         style="font-size:45px"
         x="1272.3965"
         y="2492.2444"
         id="tspan3396">auszuruhen.</tspan></text>
    <text
       xml:space="preserve"
       style="font-style:normal;font-variant:normal;font-weight:normal;font-stretch:normal;font-size:12px;line-height:125%;font-family:Lavi;-inkscape-font-specification:Lavi;text-align:center;letter-spacing:0px;word-spacing:0px;text-anchor:middle;fill:#000000;fill-opacity:1;stroke:none"
       x="2067.3403"
       y="2353.4453"
       id="text4246-3-7-6"
       sodipodi:linespacing="125%"><tspan
         sodipodi:role="line"
         style="font-size:45px"
         x="2075.2505"
         y="2353.4453"
         id="tspan3983">Es ist wohl nur ein </tspan><tspan
         sodipodi:role="line"
         style="font-size:45px"
         x="2067.3403"
         y="2409.6953"
         id="tspan3408">frommer Wunsch, dass du</tspan><tspan
         sodipodi:role="line"
         style="font-size:45px"
         x="2075.2505"
         y="2465.9453"
         id="tspan3410">damit morgen fertig bist – </tspan><tspan
         sodipodi:role="line"
         style="font-size:45px"
         x="2075.2505"
         y="2522.1953"
         id="tspan3412">aber wer weiß? </tspan></text>
    <text
       xml:space="preserve"
       style="font-style:normal;font-variant:normal;font-weight:normal;font-stretch:normal;font-size:12px;line-height:125%;font-family:Lavi;-inkscape-font-specification:Lavi;text-align:center;letter-spacing:0px;word-spacing:0px;text-anchor:middle;fill:#000000;fill-opacity:1;stroke:none"
       x="781.15369"
       y="2709.1553"
       id="text4246-3-7-6-7"
       sodipodi:linespacing="125%"><tspan
         sodipodi:role="line"
         style="font-size:45px"
         x="781.15369"
         y="2709.1553"
         id="tspan4515">Okay,</tspan><tspan
         sodipodi:role="line"
         style="font-size:45px"
         x="781.15369"
         y="2765.4053"
         id="tspan3987">ich beeile mich</tspan><tspan
         sodipodi:role="line"
         style="font-size:45px"
         x="789.06384"
         y="2821.6553"
         id="tspan3425">ja schon! </tspan></text>
    <text
       xml:space="preserve"
       style="font-style:normal;font-variant:normal;font-weight:normal;font-stretch:normal;font-size:12px;line-height:125%;font-family:Lavi;-inkscape-font-specification:Lavi;text-align:center;letter-spacing:0px;word-spacing:0px;text-anchor:middle;fill:#000000;fill-opacity:1;stroke:none"
       x="921.0744"
       y="2932.3848"
       id="text4246-3-7-6-7-0"
       sodipodi:linespacing="125%"><tspan
         sodipodi:role="line"
         style="font-size:45px"
         x="921.0744"
         y="2932.3848"
         id="tspan4778">Übrigens, warum müssen</tspan><tspan
         sodipodi:role="line"
         style="font-size:45px"
         x="928.98456"
         y="2988.6348"
         id="tspan4770">wir <tspan
   style="stroke:#000000;stroke-width:1.29999995;stroke-miterlimit:4;stroke-dasharray:none;stroke-opacity:1"
   id="tspan4772">alles vergraben</tspan>? </tspan></text>
    <text
       xml:space="preserve"
       style="font-style:normal;font-variant:normal;font-weight:normal;font-stretch:normal;font-size:12px;line-height:125%;font-family:Lavi;-inkscape-font-specification:Lavi;text-align:center;letter-spacing:0px;word-spacing:0px;text-anchor:middle;fill:#000000;fill-opacity:1;stroke:none"
       x="973.63867"
       y="3091.4644"
       id="text4246-3-7-6-7-0-9"
       sodipodi:linespacing="125%"><tspan
         sodipodi:role="line"
         style="font-size:45px"
         x="973.63867"
         y="3091.4644"
         id="tspan4782">Wäre es nicht</tspan><tspan
         sodipodi:role="line"
         style="font-size:45px"
         x="981.54883"
         y="3147.7144"
         id="tspan3435">besser, wenn wir... </tspan></text>
    <text
       xml:space="preserve"
       style="font-style:normal;font-variant:normal;font-weight:normal;font-stretch:normal;font-size:12px;line-height:125%;font-family:Lavi;-inkscape-font-specification:Lavi;text-align:center;letter-spacing:0px;word-spacing:0px;text-anchor:middle;fill:#000000;fill-opacity:1;stroke:none"
       x="2048.3174"
       y="3273.397"
       id="text4246-3-7-6-7-0-9-3"
       sodipodi:linespacing="125%"><tspan
         sodipodi:role="line"
         style="font-size:45px"
         x="2048.3174"
         y="3273.397"
         id="tspan4464-5">Wenn <tspan
   style="stroke:#000000;stroke-width:2.5999999;stroke-miterlimit:4;stroke-dasharray:none;stroke-opacity:1"
   id="tspan4493">WAS</tspan>?</tspan></text>
    <flowRoot
       xml:space="preserve"
       id="flowRoot3380"
       style="fill:black;stroke:none;stroke-opacity:1;stroke-width:1px;stroke-linejoin:miter;stroke-linecap:butt;fill-opacity:1;font-family:sans-serif;font-style:normal;font-weight:normal;font-size:40px;line-height:125%;letter-spacing:0px;word-spacing:0px"><flowRegion
         id="flowRegion3382"><rect
           id="rect3384"
           width="72.006424"
           height="84.529282"
           x="1111.4034"
           y="2053.4795" /></flowRegion><flowPara
         id="flowPara3386" /></flowRoot>  </g>
</svg>
