<?xml version="1.0" encoding="UTF-8" standalone="no"?>
<!-- Created with Inkscape (http://www.inkscape.org/) -->

<svg
   xmlns:dc="http://purl.org/dc/elements/1.1/"
   xmlns:cc="http://creativecommons.org/ns#"
   xmlns:rdf="http://www.w3.org/1999/02/22-rdf-syntax-ns#"
   xmlns:svg="http://www.w3.org/2000/svg"
   xmlns="http://www.w3.org/2000/svg"
   xmlns:xlink="http://www.w3.org/1999/xlink"
   xmlns:sodipodi="http://sodipodi.sourceforge.net/DTD/sodipodi-0.dtd"
   xmlns:inkscape="http://www.inkscape.org/namespaces/inkscape"
   id="svg2"
   version="1.1"
   inkscape:version="0.91 r13725"
   width="2481"
   height="3503"
   sodipodi:docname="Pepper-and-Carrot_by-David-Revoy_E19P05.svg">
  <metadata
     id="metadata8">
    <rdf:RDF>
      <cc:Work
         rdf:about="">
        <dc:format>image/svg+xml</dc:format>
        <dc:type
           rdf:resource="http://purl.org/dc/dcmitype/StillImage" />
        <dc:title />
      </cc:Work>
    </rdf:RDF>
  </metadata>
  <defs
     id="defs6">
    <filter
       inkscape:collect="always"
       style="color-interpolation-filters:sRGB"
       id="filter4436"
       x="-0.009420248"
       width="1.0188405"
       y="-0.0097332714"
       height="1.0194665">
      <feGaussianBlur
         inkscape:collect="always"
         stdDeviation="0.80032609"
         id="feGaussianBlur4438" />
    </filter>
    <filter
       style="color-interpolation-filters:sRGB"
       id="filter4375-4-1-1-1-9"
       inkscape:label="deevad outline effect">
      <feFlood
         id="feFlood4377-7-9-0-8-1"
         flood-opacity="1"
         flood-color="rgb(0,0,0)"
         result="flood" />
      <feComposite
         id="feComposite4379-3-8-8-2-77"
         in2="SourceGraphic"
         in="flood"
         operator="in"
         result="composite1" />
      <feMorphology
         id="feMorphology4393-1-0-49-8-9"
         operator="dilate"
         radius="4"
         result="result3" />
      <feComposite
         id="feComposite4385-9-5-7-0-8"
         in2="result3"
         in="SourceGraphic"
         operator="over"
         result="composite2" />
    </filter>
  </defs>
  <sodipodi:namedview
     pagecolor="#ffffff"
     bordercolor="#666666"
     borderopacity="1"
     objecttolerance="10"
     gridtolerance="10"
     guidetolerance="10"
     inkscape:pageopacity="0"
     inkscape:pageshadow="2"
     inkscape:window-width="1440"
     inkscape:window-height="811"
     id="namedview4"
     showgrid="false"
     inkscape:zoom="0.34350663"
     inkscape:cx="1426.9624"
     inkscape:cy="609.6827"
     inkscape:window-x="93"
     inkscape:window-y="25"
     inkscape:window-maximized="0"
     inkscape:current-layer="layer3" />
  <g
     inkscape:groupmode="layer"
     id="layer2"
     inkscape:label="artwork"
     sodipodi:insensitive="true">
    <image
       sodipodi:absref="/home/koyu/peppercarrot_ep19_translation/de/../gfx_Pepper-and-Carrot_by-David-Revoy_E19P05.png"
       xlink:href="../gfx_Pepper-and-Carrot_by-David-Revoy_E19P05.png"
       width="2481"
       height="3503"
       id="image10"
       x="0"
       y="0" />
  </g>
  <g
     inkscape:groupmode="layer"
     id="layer3"
     inkscape:label="speechbubbles">
    <path
       style="color:#000000;display:inline;overflow:visible;visibility:visible;fill:#ffffff;fill-opacity:1;fill-rule:nonzero;stroke:none;stroke-width:1px;marker:none;enable-background:accumulate"
       d="m 223.04797,251.15476 c 6.9771,-50.54896 76.98459,-87.56325 256.248,-78.14071 96.02313,5.04718 205.1232,8.33529 196.01787,82.38542 -9.10542,74.05005 -165.99555,72.22256 -198.44128,73.96983 -32.44573,1.74737 -200.98347,-5.93597 -229.81925,-31.10975 -18.05051,-15.75811 -24.95355,-31.45009 -24.00534,-47.10479 z"
       id="path4546"
       inkscape:connector-curvature="0"
       sodipodi:nodetypes="cssssc" />
    <path
       style="color:#000000;display:inline;overflow:visible;visibility:visible;fill:#ffffff;fill-opacity:1;fill-rule:nonzero;stroke:none;stroke-width:1px;marker:none;filter:url(#filter4386);enable-background:accumulate"
       d="m 278.02025,417.19532 c 4.22687,-91.69501 111.87327,-98.33018 150.82938,-99.94288 19.22926,0.47563 129.78486,-8.3624 223.37249,-3.40843 93.58759,4.95395 170.944,17.85413 176.01504,84.71645 8.75344,115.41502 -59.29412,95.94257 -141.16689,104.72064 -81.87274,8.77808 -176.56233,1.48013 -220.08463,2.89165 -85.83746,2.78386 -195.30225,8.01476 -188.96539,-88.97743 z"
       id="path3145"
       inkscape:connector-curvature="0"
       sodipodi:nodetypes="ccssssc" />
    <path
       style="color:#000000;display:inline;overflow:visible;visibility:visible;fill:#ffffff;fill-opacity:1;fill-rule:nonzero;stroke:none;stroke-width:1px;marker:none;enable-background:accumulate"
       d="m 615.11833,361.38463 c 18.72085,42.63412 151.10363,129.12034 165.81283,143.73771 14.70919,14.61736 73.7025,51.80706 97.77206,55.46145 24.06968,3.65429 34.61383,-5.53274 55.60142,-7.98778 12.78199,-1.49519 17.18619,22.92918 50.77997,17.07051 -42.14888,-6.98958 -22.50416,-29.88571 -64.91129,-24.54594 -12.88206,1.62207 -29.12682,8.03372 -50.16944,-3.7592 -55.77193,-31.25628 -135.87479,-117.85288 -157.27,-121.50717 -21.39521,-3.6544 -71.63519,-52.34757 -71.63519,-68.18304 0,-15.83557 -25.98036,9.71346 -25.98036,9.71346 z"
       id="path4562"
       inkscape:connector-curvature="0"
       sodipodi:nodetypes="cssscssssc" />
    <path
       style="color:#000000;display:inline;overflow:visible;visibility:visible;fill:#ffffff;fill-opacity:1;fill-rule:nonzero;stroke:none;stroke-width:1px;marker:none;enable-background:accumulate"
       d="m 1840.742,509.02646 c 7.6238,-68.75332 46.1941,-94.428 168.7735,-90.64666 157.4628,4.85743 243.271,-14.63487 244.9119,114.80848 1.2842,101.30477 -163.0108,93.28096 -192.2355,94.46635 -29.2244,1.18552 -182.1566,-4.88359 -204.268,-39.49879 -14.6923,-23.00074 -18.4526,-57.79204 -17.1819,-79.12938 z"
       id="path4546-6"
       inkscape:connector-curvature="0"
       sodipodi:nodetypes="cssssc" />
    <path
       style="color:#000000;display:inline;overflow:visible;visibility:visible;fill:#ffffff;fill-opacity:1;fill-rule:nonzero;stroke:none;stroke-width:1px;marker:none;enable-background:accumulate"
       d="m 1710.2039,508.14567 c 34.2355,-19.71173 54.3987,3.34417 62.5308,8.32687 8.132,4.9827 37.4163,23.21994 64.0425,5.43127 26.6264,-17.78869 62.8269,-3.31025 62.8269,-3.31025 l -39.1174,27.48072 c 0,0 -38.4369,7.20044 -59.7592,-0.984 -21.3223,-8.18441 -44.9876,-30.85789 -56.2316,-33.04337 -11.2438,-2.1855 -22.2733,-7.94404 -34.292,-3.90124 z"
       id="path4018"
       inkscape:connector-curvature="0" />
    <path
       style="fill:#ffffff;fill-rule:evenodd;stroke:none;stroke-width:1px;stroke-linecap:butt;stroke-linejoin:miter;stroke-opacity:1"
       d="m 588.40376,914.65231 c 3.19663,-13.63689 11.80483,-23.98359 21.17352,-30.89066 4.45851,-3.33465 9.55466,-5.77835 14.76954,-5.13556 5.18067,0.38408 10.24092,2.67713 15.47891,1.88067 6.36924,-0.26307 12.85031,-1.41081 19.14642,0.2292 5.59702,1.78949 11.36355,2.71628 17.13927,2.77002 4.07461,-1.13586 7.80313,1.89157 11.44199,3.70231 3.26677,1.95593 6.60351,4.00801 9.3474,7.03352 2.52795,4.24716 5.55485,7.9421 8.11232,12.15145 1.67342,2.30123 1.51263,5.47984 1.43554,8.42157 -0.21734,6.02406 -0.58538,12.14319 -1.95147,17.94685 -0.81749,3.68454 -3.8391,4.90391 -6.16085,6.59704 -5.49361,3.57416 -11.32711,6.28455 -16.57007,10.49061 -5.19427,2.15366 -10.71435,1.1463 -16.04131,0.82083 -4.46364,-0.64109 -8.95383,-1.53507 -13.45583,-0.78954 -5.72997,0.54557 -11.44255,1.95821 -17.19303,1.77726 -7.20377,-1.24165 -14.10302,-4.29889 -21.08408,-6.75135 -6.26328,-2.16161 -11.97173,-6.2263 -17.44914,-10.57451 -2.92584,-2.46919 -6.02317,-5.33924 -7.05575,-9.88965 -0.84645,-3.13334 -1.04589,-6.48839 -1.08338,-9.79006 z"
       id="path4365"
       inkscape:connector-curvature="0" />
    <path
       style="fill:#ffffff;stroke:none"
       d="m 585.80257,1016.9897 c 25.0585,-22.43253 22.34002,-27.88279 18.28192,-33.62356 -4.05789,-5.74087 -9.0117,-10.26487 -5.47683,-15.76954 3.53471,-5.50448 11.83641,-12.20928 18.64507,-16.88605 6.80865,-4.67676 -0.15106,-6.98609 -1.33267,-11.71084 -1.18153,-4.72486 8.47495,-35.26533 8.47495,-35.26533 0,0 18.8861,11.27031 21.85273,16.73523 2.96681,5.46474 4.10423,7.43623 4.14842,10.18949 0.044,2.75343 -1.45956,10.07055 -7.37678,15.64632 -5.91727,5.57568 -12.97777,12.61891 -18.44474,16.52839 -5.46711,3.90944 -14.50851,8.27169 -13.27858,13.63411 1.23003,5.36237 10.23798,8.00805 0.82597,18.96164 -8.0678,9.38924 -26.31946,21.56014 -26.31946,21.56014 z"
       id="path3023-2"
       inkscape:connector-curvature="0"
       sodipodi:nodetypes="csssscssssssc" />
    <path
       style="fill:#ffffff;stroke:none"
       d="m 920.60629,888.38152 c -0.56464,-16.47336 17.65795,-62.04816 95.76041,-56.80467 78.1024,5.24349 102.2046,24.00836 103.9101,53.30904 2.6982,46.35286 -38.6713,57.58421 -97.7876,59.38885 -60.94251,1.86043 -98.55,-14.22681 -101.88291,-55.89322 z"
       id="path3280"
       inkscape:connector-curvature="0"
       sodipodi:nodetypes="csssc" />
    <path
       style="color:#000000;display:inline;overflow:visible;visibility:visible;fill:#ffffff;fill-opacity:1;fill-rule:nonzero;stroke:none;stroke-width:1px;marker:none;enable-background:accumulate"
       d="m 1193.4265,928.17596 c 84.6089,1.53084 172.5976,10.8463 195.0339,30.0277 45.4587,38.86388 24.5652,107.73924 -24.101,129.33404 -48.6661,21.5949 -206.072,28.6536 -273.527,20.699 -61.6031,-7.2646 -118.41072,-28.2038 -123.61261,-90.4942 13.91593,-109.19987 162.58921,-90.54479 226.20671,-89.56654 z"
       id="path4040-6"
       inkscape:connector-curvature="0"
       sodipodi:nodetypes="cssscc" />
    <path
       style="color:#000000;display:inline;overflow:visible;visibility:visible;fill:#ffffff;fill-opacity:1;fill-rule:nonzero;stroke:none;stroke-width:1px;marker:none;enable-background:accumulate"
       d="m 1290.3321,1173.7871 c 19.4758,-56.0536 -15.5086,-73.6442 -35.8993,-79.8259 -46.2488,-14.0212 -31.454,-39.2745 -31.454,-39.2745 l 33.7545,-1.1746 c 0,0 85.1517,57.8008 33.5988,120.275 z"
       id="path3072"
       inkscape:connector-curvature="0"
       sodipodi:nodetypes="csccc" />
    <path
       inkscape:connector-curvature="0"
       style="color:#000000;display:inline;overflow:visible;visibility:visible;fill:#ffffff;fill-opacity:1;fill-rule:nonzero;stroke:none;stroke-width:1px;marker:none;enable-background:accumulate"
       d="m 2357.9667,1926.0728 -60.0236,40.4352 -0.9465,-13.7589 -19.6364,9.8891 c -79.8025,-16.2677 -182.3429,-17.1588 -262.9456,-10.4315 l -21.8649,-10.3952 -3.8504,12.8773 c -3.6795,0.4063 -7.3192,0.8237 -10.865,1.2617 l -23.6685,-12.7745 2.2934,15.7299 c -0.4423,0.068 -0.8775,0.1371 -1.3167,0.2057 l -32.9831,-14.3395 5.3032,19.4423 c -1.5882,0.3461 -3.1434,0.6949 -4.66,1.0482 l -41.6986,-30.2009 15.6435,38.046 c -2.5909,1.0679 -4.8351,2.1514 -6.7517,3.2478 l -25.0844,-12.5317 13.4535,21.287 c -2.5445,2.0773 -4.9519,4.1099 -7.2622,6.1117 l -19.7304,-3.6239 9.4273,11.4254 c -19.1412,19.4487 -29.2657,40.4504 -28.8776,60.2422 0.077,3.9727 0.3938,7.8301 0.9192,11.5852 l -11.7065,4.2051 14.6935,9.4139 c 1.3508,4.4558 4.3449,18.5833 6.3502,22.7197 l -14.9479,7.547 17.853,8.4628 -19.9945,13.0205 41.7971,-5.6487 c 0.581,0.5123 1.1783,1.016 1.772,1.5221 l -51.2439,27.4971 67.8842,-8.8653 -33.2997,29.0048 66.1909,-15.4672 -18.9012,18.8845 50.2643,-6.7763 3.7902,0.086 c 11.2272,3.9377 25.1986,4.0971 37.3169,7.5863 82.42,6.8231 183.0291,15.6346 270.1393,1.8223 l 41.9643,16.9245 -17.2697,-21.2573 c 0.9213,-0.1816 6.1545,-1.1622 7.0632,-1.3453 l 43.615,25.1744 -8.6579,-19.5279 42.2604,17.9894 -25.5442,-33.8623 23.4546,10.4522 -16.0693,-17.1624 c 2.018,-0.8993 4.0289,-1.8448 6.0315,-2.8346 l 21.9076,5.3242 -13.2603,-9.9176 c 3.3422,-1.8991 6.6338,-3.9146 9.8471,-6.0485 l 34.0856,8.83 -17.8783,-21.199 c 1.9691,-1.7279 3.8857,-3.4995 5.7302,-5.3184 l 26.1281,0.9387 -11.083,-19.1314 c 18.3551,-28.1102 19.5946,-62.8206 -17.2247,-97.3741 l -18.5022,-28.642 -17.2143,2.541 15.2793,-21.1178 -28.4599,9.8254 10.4286,-24.252 -30.6595,15.8054 z"
       id="path4040-0"
       sodipodi:nodetypes="ccccccccccccccccccccccccccccccccccccccccccccccccccccccccccccccccccc" />
    <path
       style="fill:#ffffff;fill-rule:evenodd;stroke:none;stroke-width:1px;stroke-linecap:butt;stroke-linejoin:miter;stroke-opacity:1"
       d="m 1746.4107,2286.5713 120.8192,-66.2832 -29.5759,-16.5028 85.742,-43.3793 -33.6402,-26.9702 -85.496,68.298 33.0867,19.9442 z"
       id="path4667"
       inkscape:connector-curvature="0"
       sodipodi:nodetypes="cccccccc" />
    <path
       style="color:#000000;display:inline;overflow:visible;visibility:visible;fill:#ffffff;fill-opacity:1;fill-rule:nonzero;stroke:none;stroke-width:1px;marker:none;enable-background:accumulate"
       d="m 351.86277,3013.5705 c -3.83833,-24.6348 6.39721,-90.0708 85.0833,-84.6819 78.68602,5.3888 91.48056,36.1822 93.39969,45.4202 1.9192,9.2381 18.55201,61.5869 -42.86148,75.444 -61.41355,13.857 -116.42977,-0.7699 -135.62151,-36.1823 z"
       id="path3525-3"
       inkscape:connector-curvature="0" />
    <path
       style="color:#000000;display:inline;overflow:visible;visibility:visible;fill:#ffffff;fill-opacity:1;fill-rule:nonzero;stroke:none;stroke-width:1px;marker:none;enable-background:accumulate"
       d="m 382.29589,3080.207 c -7.14552,-23.6599 11.90915,-86.5065 158.39271,-81.3308 146.48343,5.1755 170.30198,34.7504 173.87467,43.6228 3.57282,8.8725 34.53679,59.1498 -79.79177,72.4585 -114.32864,13.3087 -216.7479,-0.7394 -252.47561,-34.7505 z"
       id="path3525"
       inkscape:connector-curvature="0" />
    <path
       style="fill:#ffffff;stroke:none"
       d="m 776.83633,3175.8359 c -44.62498,5.3378 -48.87324,-16.857 -54.0967,-32.1561 -5.22349,-15.2991 -11.0824,-20.5456 -20.74361,-24.9442 -9.6612,-4.3986 -33.88162,-7.782 -44.47409,-6.2556 -10.5926,1.5264 -4.87351,-12.4886 -10.52472,-22.0949 -5.65131,-9.6062 -47.54922,-52.2623 -47.54922,-52.2623 0,0 3.4134,45.1382 8.94731,58.4623 5.5339,13.3241 7.48813,18.2238 11.18512,22.9303 3.69708,4.7066 14.53763,14.9729 25.78771,16.1963 11.25004,1.2234 22.42429,-3.0138 31.13833,-3.9792 8.71399,-0.9656 20.03664,6.8038 26.52017,17.5528 6.48353,10.749 24.88779,32.9147 43.24472,32.9979 18.35692,0.083 30.56498,-6.4473 30.56498,-6.4473 z"
       id="path3023"
       inkscape:connector-curvature="0"
       sodipodi:nodetypes="csssscssssssc" />
    <path
       style="color:#000000;display:inline;overflow:visible;visibility:visible;fill:#ffffff;fill-opacity:1;fill-rule:nonzero;stroke:none;stroke-width:1px;marker:none;enable-background:accumulate"
       d="m 1831.0092,3166.9958 c 30.8179,-20.9071 289.3636,-41.8643 379.7043,2.4078 90.3406,44.2721 34.7376,96.1335 -17.5237,112.3681 -52.2608,16.2348 -205.7435,33.2733 -275.5479,18.4739 -69.8046,-14.7995 -124.0734,-36.5355 -127.1834,-80.2089 -1.2693,-17.8247 9.7327,-32.1335 40.5507,-53.0409 z"
       id="path4040"
       inkscape:connector-curvature="0"
       sodipodi:nodetypes="zssssz" />
    <path
       style="fill:#ffffff;stroke:none"
       d="m 1828.1436,3250.351 c -28.7477,21.3713 -48.9321,0.5936 -66.1006,0.6993 -17.1685,0.1058 -34.6307,29.0733 -44.0708,33.857 -9.363,3.7909 -22.9631,-0.7489 -45.2644,-13.4008 36.8449,37.5971 46.7017,28.1197 55.3791,24.5656 11.9288,-4.8858 18.0056,-23.3478 33.4687,-20.4624 14.978,2.7947 62.9102,19.4669 85.0019,10.1395 22.0918,-9.3272 25.641,-6.4328 25.641,-6.4328 z"
       id="path3282"
       inkscape:connector-curvature="0"
       sodipodi:nodetypes="csccssscc" />
  </g>
  <g
     inkscape:groupmode="layer"
     id="layer1"
     inkscape:label="txt">
    <text
       xml:space="preserve"
       style="font-style:normal;font-variant:normal;font-weight:normal;font-stretch:normal;font-size:12px;line-height:125%;font-family:Lavi;-inkscape-font-specification:Lavi;text-align:center;letter-spacing:0px;word-spacing:0px;text-anchor:middle;fill:#000000;fill-opacity:1;stroke:none"
       x="446.5903"
       y="226.00797"
       id="text4246-3-3-2"
       sodipodi:linespacing="125%"><tspan
         sodipodi:role="line"
         style="font-size:45px"
         x="454.50046"
         y="226.00797"
         id="tspan3400">Wir haben alle </tspan><tspan
         sodipodi:role="line"
         style="font-size:45px"
         x="446.5903"
         y="282.25797"
         id="tspan3399">unsere Jugendsünden</tspan></text>
    <text
       xml:space="preserve"
       style="font-style:normal;font-variant:normal;font-weight:normal;font-stretch:normal;font-size:12px;line-height:125%;font-family:Lavi;-inkscape-font-specification:Lavi;text-align:center;letter-spacing:0px;word-spacing:0px;text-anchor:middle;fill:#000000;fill-opacity:1;stroke:none"
       x="556.23083"
       y="371.67728"
       id="text4246-3-3-2-3"
       sodipodi:linespacing="125%"><tspan
         sodipodi:role="line"
         style="font-size:45px"
         x="564.14099"
         y="371.67728"
         id="tspan3414">Die Cayenne, die das </tspan><tspan
         sodipodi:role="line"
         style="font-size:45px"
         x="564.14099"
         y="427.92728"
         id="tspan3406">geschrieben hat, gibt </tspan><tspan
         sodipodi:role="line"
         style="font-size:45px"
         x="556.23083"
         y="484.17728"
         id="tspan3408">es heute nicht mehr.</tspan></text>
    <text
       xml:space="preserve"
       style="font-style:normal;font-variant:normal;font-weight:normal;font-stretch:normal;font-size:12px;line-height:125%;font-family:Lavi;-inkscape-font-specification:Lavi;text-align:center;letter-spacing:0px;word-spacing:0px;text-anchor:middle;fill:#000000;fill-opacity:1;stroke:none"
       x="2053.3948"
       y="477.42865"
       id="text4246-3-3-2-3-5"
       sodipodi:linespacing="125%"><tspan
         sodipodi:role="line"
         style="font-size:45px"
         x="2053.3948"
         y="477.42865"
         id="tspan3742">Das Tagebuch</tspan><tspan
         sodipodi:role="line"
         style="font-size:45px"
         x="2053.3948"
         y="533.67865"
         id="tspan3407">war aus gutem</tspan><tspan
         sodipodi:role="line"
         style="font-size:45px"
         x="2053.3948"
         y="589.92865"
         id="tspan3421">Grund vergraben.</tspan></text>
    <text
       xml:space="preserve"
       style="font-style:normal;font-variant:normal;font-weight:normal;font-stretch:normal;font-size:12px;line-height:125%;font-family:Lavi;-inkscape-font-specification:Lavi;text-align:center;letter-spacing:0px;word-spacing:0px;text-anchor:middle;fill:#000000;fill-opacity:1;stroke:none"
       x="649.6814"
       y="918.87958"
       id="text4246-3-3-2-3-5-6"
       sodipodi:linespacing="125%"><tspan
         sodipodi:role="line"
         style="font-size:45px"
         x="649.6814"
         y="918.87958"
         id="tspan4208-1">...</tspan></text>
    <text
       xml:space="preserve"
       style="font-size:12px;font-style:normal;font-variant:normal;font-weight:normal;font-stretch:normal;text-align:center;line-height:125%;letter-spacing:0px;word-spacing:0px;text-anchor:middle;fill:#000000;fill-opacity:1;stroke:none;font-family:Lavi;-inkscape-font-specification:Lavi"
       x="1020.2921"
       y="900.67383"
       id="text4246-3-3-2-3-5-6-2"
       sodipodi:linespacing="125%"><tspan
         sodipodi:role="line"
         style="font-size:45px"
         x="1020.2921"
         y="900.67383"
         id="tspan4208-1-7">OK!</tspan></text>
    <text
       xml:space="preserve"
       style="font-style:normal;font-variant:normal;font-weight:normal;font-stretch:normal;font-size:12px;line-height:125%;font-family:Lavi;-inkscape-font-specification:Lavi;text-align:center;letter-spacing:0px;word-spacing:0px;text-anchor:middle;fill:#000000;fill-opacity:1;stroke:none"
       x="1187.8596"
       y="1007.8734"
       id="text4246-3-3-2-3-5-6-2-0"
       sodipodi:linespacing="125%"><tspan
         sodipodi:role="line"
         style="font-size:45px"
         x="1187.8596"
         y="1007.8734"
         id="tspan3413">Aber was sagst</tspan><tspan
         sodipodi:role="line"
         style="font-size:45px"
         x="1187.8596"
         y="1064.1234"
         id="tspan3420">du dazu?</tspan></text>
    <text
       sodipodi:linespacing="125%"
       id="text4178-6-5-9-0-7-0-4"
       style="font-style:normal;font-variant:normal;font-weight:normal;font-stretch:normal;font-size:9.76241112px;line-height:125%;font-family:Lavi;-inkscape-font-specification:Lavi;text-align:center;letter-spacing:0px;word-spacing:0px;text-anchor:middle;opacity:0.64099995;fill:#241c1c;fill-opacity:1;stroke:none;filter:url(#filter4436)"
       xml:space="preserve"
       y="3129.8394"
       x="1318.7137"
       transform="matrix(0.68323005,-0.18026525,0.27547669,0.60843919,-261.43744,-182.58505)"><tspan
         y="3129.8394"
         x="1318.7137"
         style="font-style:normal;font-variant:normal;font-weight:normal;font-stretch:normal;font-size:40.67671585px;font-family:Fondamento;-inkscape-font-specification:Fondamento;fill:#241c1c;fill-opacity:1"
         sodipodi:role="line"
         id="tspan4293-1-6-3-5-0-2">CHAOSAH</tspan><tspan
         y="3180.6853"
         x="1318.7137"
         style="font-style:normal;font-variant:normal;font-weight:normal;font-stretch:normal;font-size:40.67671585px;font-family:Fondamento;-inkscape-font-specification:Fondamento;fill:#241c1c;fill-opacity:1"
         sodipodi:role="line"
         id="tspan4422">SUTRA</tspan><tspan
         y="3223.7019"
         x="1318.7137"
         style="font-style:normal;font-variant:normal;font-weight:normal;font-stretch:normal;font-size:32.06008911px;font-family:Fondamento;-inkscape-font-specification:Fondamento;fill:#241c1c;fill-opacity:1"
         sodipodi:role="line"
         id="tspan4426">von</tspan><tspan
         y="3263.7771"
         x="1318.7137"
         style="font-style:normal;font-variant:normal;font-weight:normal;font-stretch:normal;font-size:32.06008911px;font-family:Fondamento;-inkscape-font-specification:Fondamento;fill:#241c1c;fill-opacity:1"
         sodipodi:role="line"
         id="tspan4430">Thymian</tspan></text>
    <text
       xml:space="preserve"
       style="font-style:normal;font-variant:normal;font-weight:normal;font-stretch:normal;font-size:12px;line-height:125%;font-family:Lavi;-inkscape-font-specification:Lavi;text-align:center;letter-spacing:0px;word-spacing:0px;text-anchor:middle;fill:#000000;fill-opacity:1;stroke:none"
       x="2113.9265"
       y="2025.3644"
       id="text4246-3-3-2-3-5-6-2-0-3"
       sodipodi:linespacing="125%"><tspan
         sodipodi:role="line"
         style="font-size:45px"
         x="2121.8367"
         y="2025.3644"
         id="tspan3428">Nur eine jugendliche </tspan><tspan
         sodipodi:role="line"
         style="font-size:45px"
         x="2113.9265"
         y="2081.6143"
         id="tspan3417">Verfehlung. Jedenfalls</tspan><tspan
         sodipodi:role="line"
         style="font-size:45px"
         x="2121.8367"
         y="2137.8643"
         id="tspan3419">nichts für Dein Alter! </tspan></text>
    <use
       x="0"
       y="0"
       xlink:href="#text4178-6-5-9-0-7-0-4"
       id="use4440"
       transform="matrix(1.7191858,0.78546962,-0.89078499,2.0163672,807.20751,-1621.7765)"
       width="100%"
       height="100%" />
    <text
       xml:space="preserve"
       style="font-style:normal;font-variant:normal;font-weight:normal;font-stretch:normal;font-size:12px;line-height:125%;font-family:Lavi;-inkscape-font-specification:Lavi;text-align:center;letter-spacing:0px;word-spacing:0px;text-anchor:middle;fill:#000000;fill-opacity:1;stroke:none"
       x="448.74265"
       y="3004.217"
       id="text4246-3-3-2-3-5-6-2-0-3-6"
       sodipodi:linespacing="125%"><tspan
         sodipodi:role="line"
         style="font-size:45px"
         x="448.74265"
         y="3004.217"
         id="tspan4328-8">Hmm …</tspan></text>
    <text
       xml:space="preserve"
       style="font-style:normal;font-variant:normal;font-weight:normal;font-stretch:normal;font-size:12px;line-height:125%;font-family:Lavi;-inkscape-font-specification:Lavi;text-align:center;letter-spacing:0px;word-spacing:0px;text-anchor:middle;fill:#000000;fill-opacity:1;stroke:none"
       x="553.45013"
       y="3073.6917"
       id="text4246-3-3-2-3-5-6-2-0-3-6-7"
       sodipodi:linespacing="125%"><tspan
         sodipodi:role="line"
         style="font-size:45px"
         x="553.45013"
         y="3073.6917"
         id="tspan4328-8-9">Ich verstehe …</tspan></text>
    <text
       xml:space="preserve"
       style="font-style:normal;font-variant:normal;font-weight:normal;font-stretch:normal;font-size:12px;line-height:125%;font-family:Lavi;-inkscape-font-specification:Lavi;text-align:center;letter-spacing:0px;word-spacing:0px;text-anchor:middle;fill:#000000;fill-opacity:1;stroke:none"
       x="2023.0325"
       y="3199.3425"
       id="text4246-3-3-2-3-5-6-2-0-3-6-7-2"
       sodipodi:linespacing="125%"><tspan
         sodipodi:role="line"
         style="font-size:45px"
         x="2023.0325"
         y="3199.3425"
         id="tspan3431">Euch ist wirklich</tspan><tspan
         sodipodi:role="line"
         style="font-size:45px"
         x="2023.0325"
         y="3255.5925"
         id="tspan3427">gar nichts peinlich …</tspan></text>
  </g>
</svg>
