<?xml version="1.0" encoding="UTF-8" standalone="no"?>
<!-- Created with Inkscape (http://www.inkscape.org/) -->

<svg
   xmlns:dc="http://purl.org/dc/elements/1.1/"
   xmlns:cc="http://creativecommons.org/ns#"
   xmlns:rdf="http://www.w3.org/1999/02/22-rdf-syntax-ns#"
   xmlns:svg="http://www.w3.org/2000/svg"
   xmlns="http://www.w3.org/2000/svg"
   xmlns:xlink="http://www.w3.org/1999/xlink"
   xmlns:sodipodi="http://sodipodi.sourceforge.net/DTD/sodipodi-0.dtd"
   xmlns:inkscape="http://www.inkscape.org/namespaces/inkscape"
   id="svg2"
   version="1.1"
   inkscape:version="0.91 r13725"
   width="2481"
   height="3503"
   sodipodi:docname="Pepper-and-Carrot_by-David-Revoy_E19P02.svg">
  <metadata
     id="metadata8">
    <rdf:RDF>
      <cc:Work
         rdf:about="">
        <dc:format>image/svg+xml</dc:format>
        <dc:type
           rdf:resource="http://purl.org/dc/dcmitype/StillImage" />
        <dc:title />
      </cc:Work>
    </rdf:RDF>
  </metadata>
  <defs
     id="defs6">
    <filter
       inkscape:collect="always"
       style="color-interpolation-filters:sRGB"
       id="filter5236-4-16-3"
       x="-0.0089085409"
       width="1.0178171"
       y="-0.027928527"
       height="1.0558571">
      <feGaussianBlur
         inkscape:collect="always"
         stdDeviation="0.49168068"
         id="feGaussianBlur5238-0-4-6" />
    </filter>
    <filter
       inkscape:collect="always"
       style="color-interpolation-filters:sRGB"
       id="filter5236-4-16"
       x="-0.0089085409"
       width="1.0178171"
       y="-0.027928527"
       height="1.0558571">
      <feGaussianBlur
         inkscape:collect="always"
         stdDeviation="0.49168068"
         id="feGaussianBlur5238-0-4" />
    </filter>
  </defs>
  <sodipodi:namedview
     pagecolor="#ffffff"
     bordercolor="#666666"
     borderopacity="1"
     objecttolerance="10"
     gridtolerance="10"
     guidetolerance="10"
     inkscape:pageopacity="0"
     inkscape:pageshadow="2"
     inkscape:window-width="1440"
     inkscape:window-height="811"
     id="namedview4"
     showgrid="false"
     inkscape:zoom="0.4224276"
     inkscape:cx="1605.8458"
     inkscape:cy="282.32753"
     inkscape:window-x="178"
     inkscape:window-y="27"
     inkscape:window-maximized="0"
     inkscape:current-layer="layer1" />
  <g
     inkscape:groupmode="layer"
     id="layer2"
     inkscape:label="artwork"
     sodipodi:insensitive="true">
    <image
       sodipodi:absref="/home/koyu/peppercarrot_ep19_translation/de/../gfx_Pepper-and-Carrot_by-David-Revoy_E19P02.png"
       xlink:href="../gfx_Pepper-and-Carrot_by-David-Revoy_E19P02.png"
       y="0"
       x="0"
       id="image10"
       height="3503"
       width="2481" />
  </g>
  <g
     inkscape:groupmode="layer"
     id="layer4"
     inkscape:label="translatornotes"
     sodipodi:insensitive="true">
    <path
       inkscape:connector-curvature="0"
       id="path3446"
       d="m 2763.8482,1498.4924 0,-189.0352 -203.8301,0 0,90.9805 -10,0 0,-15.6308 -30.9824,26.9824 30.9824,26.9804 0,-16.6171 10,0 0,76.3398 203.8301,0 z"
       style="color:#000000;clip-rule:nonzero;display:inline;overflow:visible;visibility:visible;opacity:0.481;isolation:auto;mix-blend-mode:normal;color-interpolation:sRGB;color-interpolation-filters:linearRGB;solid-color:#000000;solid-opacity:1;fill:#ffe680;fill-opacity:1;fill-rule:nonzero;stroke:#565656;stroke-width:1.20000005;stroke-linecap:butt;stroke-linejoin:miter;stroke-miterlimit:4;stroke-dasharray:none;stroke-dashoffset:0;stroke-opacity:1;marker:none;color-rendering:auto;image-rendering:auto;shape-rendering:auto;text-rendering:auto;enable-background:accumulate" />
    <flowRoot
       transform="translate(2793.4167,295.2096)"
       style="font-style:normal;font-variant:normal;font-weight:normal;font-stretch:normal;font-size:25.3241539px;line-height:125%;font-family:Lavi;-inkscape-font-specification:'Lavi, Normal';text-align:center;letter-spacing:0px;word-spacing:0px;writing-mode:lr-tb;text-anchor:middle;display:inline;opacity:0.481;fill:#000000;fill-opacity:1;stroke:none;stroke-width:1px;stroke-linecap:butt;stroke-linejoin:miter;stroke-opacity:1"
       id="flowRoot3448"
       xml:space="preserve"><flowRegion
         id="flowRegion3450"><rect
           y="1061.6674"
           x="-275.14545"
           height="247.52747"
           width="291.95547"
           id="rect3452" /></flowRegion><flowPara
         id="flowPara3473">labels</flowPara><flowPara
         id="flowPara4255">in the </flowPara><flowPara
         id="flowPara4257">garden :-)</flowPara></flowRoot>  </g>
  <g
     inkscape:groupmode="layer"
     id="layer3"
     inkscape:label="speechbubbles"
     style="display:inline">
    <path
       style="color:#000000;display:inline;overflow:visible;visibility:visible;fill:#ffffff;fill-opacity:1;fill-rule:nonzero;stroke:none;stroke-width:1px;marker:none;enable-background:accumulate"
       d="m 1032.0256,223.4669 c 26.3789,-33.27491 278.1788,-52.28964 357.7472,1.14813 66.4145,44.60373 74.5965,141.48874 25.2567,167.96101 -49.3398,26.47239 -244.3434,27.59732 -323.5682,16.62641 -75.4332,-10.44583 -84.2499,-37.67302 -97.88341,-105.67132 -5.56449,-27.75276 12.06861,-46.78923 38.44771,-80.06423 z"
       id="path4040-4"
       inkscape:connector-curvature="0"
       sodipodi:nodetypes="zssssz" />
    <path
       style="color:#000000;display:inline;overflow:visible;visibility:visible;fill:#ffffff;fill-opacity:1;fill-rule:nonzero;stroke:none;stroke-width:1px;marker:none;enable-background:accumulate"
       d="m 1153.7918,477.92882 c 9.053,-70.97303 99.5316,-121.48685 331.1354,-104.20648 124.0593,9.25623 265.0159,16.33058 253.1954,120.32533 -11.8204,103.99464 -214.5233,97.90349 -256.4449,99.63428 -41.9217,1.73091 -259.6692,-12.86154 -296.9062,-48.9315 -23.3099,-22.57884 -32.2166,-44.81453 -30.9797,-66.82163 z"
       id="path4546-6"
       inkscape:connector-curvature="0"
       sodipodi:nodetypes="cssssc" />
    <path
       style="color:#000000;display:inline;overflow:visible;visibility:visible;fill:#ffffff;fill-opacity:1;fill-rule:nonzero;stroke:none;stroke-width:1px;marker:none;enable-background:accumulate"
       d="m 1389.2283,598.82638 c 47.3706,-58.39717 295.5723,-45.88695 383.464,-32.75511 130.4844,19.49564 124.9099,73.51677 128.8973,88.97818 3.9869,15.46127 -5.9809,87.14562 -49.8407,101.2015 -43.8597,14.05573 -169.458,21.08358 -213.3177,21.08358 -43.8595,0 -183.8696,-8.94643 -219.2989,-29.51715 -33.8916,-19.67804 -77.2749,-90.59395 -29.904,-148.991 z"
       id="path3330"
       inkscape:connector-curvature="0"
       sodipodi:nodetypes="zsssssz" />
    <path
       style="color:#000000;display:inline;overflow:visible;visibility:visible;fill:#ffffff;fill-opacity:1;fill-rule:nonzero;stroke:none;stroke-width:1px;marker:none;enable-background:accumulate"
       d="m 1530.4255,727.16957 c -4.748,19.68499 -0.6503,33.38997 2.5742,37.35036 3.2245,3.96027 2.3513,12.12365 5.2378,17.57337 2.3614,4.51862 3.5729,10.81257 -0.8434,12.64306 -4.4163,1.83058 -29.4289,3.69855 -33.6755,16.66121 -4.2467,12.96272 3.9771,24.00648 14.1454,30.32451 10.1684,6.31815 24.4145,10.44127 22.2717,20.40102 -2.1427,9.95976 -9.8422,13.23017 -15.8741,13.66024 -6.0318,0.43007 -42.6593,-1.86158 -51.9545,1.56498 -9.295,3.4266 -34.8875,18.35716 -31.0179,31.36521 11.9004,-13.15184 18.3151,-19.01847 27.1348,-20.36055 8.8198,-1.34212 24.7212,-5.09072 34.6744,-1.78852 9.9534,3.30225 30.2251,7.01956 38.1327,2.88942 7.9077,-4.13 22.6869,-13.91278 22.9796,-24.81049 0.2928,-10.89767 -5.2053,-22.98724 -21.3925,-31.19418 -10.1682,-6.31811 -14.5522,-10.2849 -13.6078,-13.29434 0.9444,-3.00939 11.8681,-7.35452 23.4562,-6.13032 11.5882,1.22424 17.0469,-9.49086 18.0108,-15.97871 0.9638,-6.48781 -2.7884,-15.67273 -3.2186,-21.7046 -0.4301,-6.03183 -6.7045,-40.19004 -6.7045,-40.19004 z"
       id="path5058"
       inkscape:connector-curvature="0"
       sodipodi:nodetypes="cscsssssscssssccscccc" />
    <path
       style="color:#000000;display:inline;overflow:visible;visibility:visible;fill:#ffffff;fill-opacity:1;fill-rule:nonzero;stroke:none;stroke-width:1px;marker:none;enable-background:accumulate"
       d="m 1360.1624,1846.3516 c 7.5457,-69.8494 48.9319,-95.0896 139.9108,-98.7527 45.1707,-1.8188 208.7727,-8.1256 275.0897,4.5118 66.3165,12.6375 123.0835,51.3422 118.0529,102.5251 -5.0305,51.1828 -10.9808,90.8284 -83.4057,105.3166 -72.425,14.4881 -211.3242,3.8187 -225.7874,4.4208 -28.9255,1.2044 -178.7367,-15.7853 -203.7379,-51.785 -15.6505,-22.5349 -21.38,-44.559 -20.1224,-66.2366 z"
       id="path4546-6-3"
       inkscape:connector-curvature="0"
       sodipodi:nodetypes="cssssssc" />
    <path
       style="color:#000000;display:inline;overflow:visible;visibility:visible;fill:#ffffff;fill-opacity:1;fill-rule:nonzero;stroke:none;stroke-width:1px;marker:none;enable-background:accumulate"
       d="m 1760.2432,1981.0096 c -2.379,-13.9006 23.7051,-72.4119 168.8276,-63.1448 145.1224,9.2671 160.2801,20.9339 166.9018,70.8244 2.4474,18.4386 -20.1364,45.3021 -41.5479,49.9356 -21.4115,4.6335 -84.0149,17.7137 -119.7007,14.007 -35.6859,-3.7069 -88.3632,-2.8275 -140.8678,-22.2636 -31.6894,-11.7307 -31.2339,-45.6518 -33.613,-49.3586 z"
       id="path3365"
       inkscape:connector-curvature="0"
       sodipodi:nodetypes="csssssc" />
    <path
       style="fill:#ffffff;fill-opacity:1;stroke:none"
       d="m 1742.554,2186.1728 c -11.4534,-129.7381 70.105,-174.7424 287.3202,-174.5584 217.2155,0.1839 305.1068,37.1184 314.2339,114.3634 20.4087,172.7268 -112.9153,215.8067 -184.3671,226.5283 -142.7224,21.4157 -348.9809,-18.8811 -378.1236,-55.056 -29.1429,-36.1751 -36.549,-77.356 -39.0634,-111.2773 z"
       id="path3238"
       inkscape:connector-curvature="0"
       sodipodi:nodetypes="cssssc" />
    <path
       style="color:#000000;display:inline;overflow:visible;visibility:visible;fill:#ffffff;fill-opacity:1;fill-rule:nonzero;stroke:none;stroke-width:1px;marker:none;enable-background:accumulate"
       d="m 1878.067,2298.1639 c -30.6436,39.5697 -91.823,73.3362 -171.3605,30.1552 76.0815,26.4581 119.8575,-5.9599 145.0149,-45.5895 21.7184,-34.2122 33.4899,-49.0683 33.4899,-49.0683 z"
       id="path4440"
       inkscape:connector-curvature="0"
       sodipodi:nodetypes="ccscc" />
    <path
       style="color:#000000;display:inline;overflow:visible;visibility:visible;fill:#ffffff;fill-opacity:1;fill-rule:nonzero;stroke:none;stroke-width:1px;marker:none;enable-background:accumulate"
       d="m 94.300081,2771.0565 c 29.203259,-12.2008 43.044979,-20.6571 0.510128,-38.2116 8.733361,-0.1334 57.470251,-2.3871 10.873201,-36.6664 15.36273,4.425 39.92956,16.1744 12.27578,-40.7303 16.6275,9.0722 39.69122,38.0809 19.46008,-15.668 21.90885,18.1658 50.77318,6.6809 44.86443,-2.8619 17.63234,11.5835 52.26034,10.6257 49.29414,0.7964 12.96382,10.7231 48.08315,13.8668 45.32714,-4.1057 10.77181,12.3539 44.20222,11.0813 40.92489,0.5848 28.2422,12.4951 69.07196,20.1966 84.5029,2.7757 13.17614,16.4869 74.46586,11.5083 125.86992,0.2555 0.80521,11.6376 58.01818,13.6805 104.64634,-5.2643 0.70572,17.6792 17.53197,23.6696 38.09319,10.6592 7.34249,7.2567 5.3828,11.4778 34.2372,-5.7016 -1.37751,11.8138 3.75845,22.7128 23.86224,11.4032 3.50212,7.3083 -9.31355,26.2503 41.49978,-1.4256 0.33591,10.3311 -11.5917,30.6183 32.16221,5.7016 -35.49405,61.381 -15.8219,54.8115 8.29988,42.7611 -18.78163,36.2091 -43.00552,81.1202 4.72577,79.4693 -37.37404,8.3649 -36.72068,20.8031 -31.7005,40.2618 -46.84179,-39.184 -52.34551,-9.4055 -72.62449,-4.2761 -21.40833,-6.5187 -41.13085,-30.4065 -66.39932,2.8508 -38.71003,-13.6859 -46.38472,-1.1328 -59.13711,7.127 -67.6294,-26.2641 -66.03189,-4.974 -96.48682,-5.7017 -18.0061,-32.4882 -58.63942,-7.9839 -88.18686,-11.4028 -37.34959,-26.6407 -92.92742,-3.2881 -122.00325,6.9812 14.2109,-16.6415 -20.78466,-31.4976 -54.06569,4.5907 16.52668,-30.4946 -10.58868,-40.7758 -61.21201,-1.5021 23.78921,-36.1336 -9.11149,-30.3748 -45.95406,-7.2192 36.05789,-35.1126 -2.04487,-38.1225 -23.659109,-35.481 z"
       id="path3557"
       inkscape:connector-curvature="0"
       sodipodi:nodetypes="cccccccccccccccccccccccccccccc" />
    <path
       style="color:#000000;display:inline;overflow:visible;visibility:visible;fill:#ffffff;fill-opacity:1;fill-rule:nonzero;stroke:none;stroke-width:1px;marker:none;enable-background:accumulate"
       d="m 237.92389,2846.4528 c 8.94708,-77.7751 99.03414,-134.2781 329.78333,-118.5358 123.6017,8.4325 264.03447,14.2467 252.36367,128.1886 -11.67094,113.9415 -213.61682,110.0465 -255.3789,112.5127 -41.76208,2.4664 -258.70434,-10.5244 -295.83769,-49.4795 -23.24464,-24.3851 -32.14049,-48.5913 -30.93041,-72.686 z"
       id="path4546"
       inkscape:connector-curvature="0"
       sodipodi:nodetypes="cssssc" />
    <path
       style="color:#000000;display:inline;overflow:visible;visibility:visible;fill:#ffffff;fill-opacity:1;fill-rule:nonzero;stroke:none;stroke-width:1px;marker:none;enable-background:accumulate"
       d="m 990.3039,2942.0433 c -39.7219,-30.7338 -84.6659,-56.332 -118.3207,-93.0329 l 9.2071,41.4633 c -19.1495,-7.3977 -31.9655,-24.339 -46.9322,-38.0398 l 1.0996,26.2988 c -44.9905,-17.9715 -75.7521,-49.3371 -113.3909,-74.2288 l 5.8989,45.8738 c 41.0512,21.0955 84.9859,35.8216 122.7937,64.0815 l 1.7812,-25.6614 c 14.445,8.0961 28.5921,16.7337 41.4085,27.7896 l -0.8973,-32.5393 z"
       id="path4032-6"
       inkscape:connector-curvature="0"
       sodipodi:nodetypes="cccccccccccc" />
    <path
       style="fill:#ffffff;stroke:none"
       d="m 1699.0736,2771.0202 c 5.0501,-60.4636 35.5091,-85.0538 49.33,-93.079 13.8207,-8.0252 71.8414,-18.3199 109.742,-16.548 37.9006,1.7719 131.855,10.4999 147.6558,13.4066 15.8008,2.9066 57.954,48.234 57.5018,87.2344 -0.4521,39.0001 -8.9041,64.619 -31.9343,87.3886 -23.0304,22.7698 -160.4271,27.1856 -168.8922,24.6219 -8.4654,-2.5636 -121.5161,-23.0237 -128.5726,-29.8572 -7.0564,-6.8334 -35.6546,-25.5131 -34.8305,-73.1673 z"
       id="path3278"
       inkscape:connector-curvature="0" />
    <path
       style="color:#000000;display:inline;overflow:visible;visibility:visible;fill:#ffffff;fill-opacity:1;fill-rule:nonzero;stroke:none;stroke-width:1px;marker:none;enable-background:accumulate"
       d="m 1734.3511,2881.1362 c 43.0761,-44.139 406.6845,-92.0495 534.4799,-1.0879 127.7952,90.9615 50.2801,200.1153 -23.0452,234.846 -73.3252,34.7308 -289.1106,72.7693 -387.5758,43 -98.4652,-29.7692 -175.1635,-74.2683 -180.1706,-165.3845 -2.0435,-37.1882 13.236,-67.2342 56.3117,-111.3736 z"
       id="path4040"
       inkscape:connector-curvature="0"
       sodipodi:nodetypes="zssssz" />
    <path
       style="display:inline;fill:#ffffff;fill-rule:evenodd;stroke:none;stroke-width:1px;stroke-linecap:butt;stroke-linejoin:miter;stroke-opacity:1"
       d="m 1867.5492,3105.7491 c 52.8536,28.5286 82.9598,16.9272 82.0525,-49.3868 25.2162,71.6603 42.7149,87.6873 53.0929,52.3799 33.3845,30.3481 54.2359,21.8353 70.7906,0 6.1703,28.0816 19.4027,16.7498 30.8545,15.3549 3.7717,6.3532 -9.1828,22.1376 43.1536,1.1073 3.39,8.4093 7.9569,15.651 38.6129,-2.9931 7.9421,34.1321 33.4238,-1.8917 59.5286,-40.4074 -16.2642,47.3518 -9.52,54.0398 11.262,35.9176 -9.5014,19.4998 -15.1843,34.5948 20.9152,1.4966 -12.3584,35.9927 20.0644,11.2875 72.3996,-40.4072 -26.1789,38.2124 -95.5991,102.6164 -49.8751,97.2767 -6.3765,11.2651 -29.1212,21.0802 38.6129,38.9107 -12.6451,7.6442 -51.2499,-3.5263 -19.0465,28.8398 4.3146,3.7834 -10.1297,6.0937 17.4377,16.0571 -16.2734,-0.6778 -26.2533,1.7436 -11.2623,16.4623 -29.7048,-0.7959 -18.5904,14.6808 3.2178,34.4209 -43.0166,-25.3209 -45.3838,-16.1182 -46.6575,-5.9862 -53.9124,-34.521 -57.077,-23.6523 -64.3547,-16.4623 -26.2783,0.2694 -52.5567,-4.0779 -78.8352,34.421 -6.8817,-23.9452 -20.6791,-42.3768 -78.8346,-25.4415 25.5346,-30.4626 -10.7917,-11.0548 -38.6132,1.4965 15.2356,-38.0554 -23.4298,-13.0797 -72.3992,23.945 27.4227,-42.0237 -3.7231,-26.8437 -49.8752,2.9932 17.4378,-41.2842 -10.9612,-61.2497 -78.8347,-62.8558 32.4863,-14.8917 51.4306,-33.6324 17.6976,-67.3454 38.0266,9.9269 49.3694,0.7062 22.5243,-35.9176 41.4769,30.0605 22.6189,-13.5407 6.4355,-53.8762 z"
       id="path4508"
       inkscape:connector-curvature="0"
       sodipodi:nodetypes="cccccccccccccccccccccccccccc" />
    <path
       style="color:#000000;display:inline;overflow:visible;visibility:visible;fill:#ffffff;fill-opacity:1;fill-rule:nonzero;stroke:none;stroke-width:1px;marker:none;enable-background:accumulate"
       d="m 1490.4164,2866.2226 c 36.6716,-30.7338 78.1642,-56.332 109.2346,-93.0329 l -8.5001,41.4633 c 17.679,-7.3977 29.5108,-24.339 43.3282,-38.0398 l -1.0152,26.2988 c 41.5356,-17.9715 69.9349,-49.3371 104.6834,-74.2288 l -5.4459,45.8738 c -37.8988,21.0955 -78.4597,35.8216 -113.3641,64.0815 l -1.6444,-25.6614 c -13.3358,8.0961 -26.3965,16.7337 -38.2287,27.7896 l 0.8284,-32.5393 z"
       id="path4032"
       inkscape:connector-curvature="0"
       sodipodi:nodetypes="cccccccccccc" />
  </g>
  <g
     inkscape:groupmode="layer"
     id="layer1"
     inkscape:label="txt">
    <text
       xml:space="preserve"
       style="font-style:normal;font-variant:normal;font-weight:normal;font-stretch:normal;font-size:12px;line-height:125%;font-family:Lavi;-inkscape-font-specification:Lavi;text-align:center;letter-spacing:0px;word-spacing:0px;text-anchor:middle;fill:#000000;fill-opacity:1;stroke:none"
       x="1217.8973"
       y="252.7131"
       id="text4246"
       sodipodi:linespacing="125%"><tspan
         sodipodi:role="line"
         style="font-size:45px"
         x="1217.8973"
         y="252.7131"
         id="tspan4252">Ähm …</tspan></text>
    <text
       xml:space="preserve"
       style="font-style:normal;font-variant:normal;font-weight:normal;font-stretch:normal;font-size:12px;line-height:125%;font-family:Lavi;-inkscape-font-specification:Lavi;text-align:center;letter-spacing:0px;word-spacing:0px;text-anchor:middle;fill:#000000;fill-opacity:1;stroke:none"
       x="1217.7985"
       y="312.00034"
       id="text4246-3"
       sodipodi:linespacing="125%"><tspan
         sodipodi:role="line"
         style="font-size:45px"
         x="1217.7985"
         y="312.00034"
         id="tspan3831">also ich bin natürlich</tspan><tspan
         sodipodi:role="line"
         style="font-size:45px"
         x="1217.7985"
         y="368.25034"
         id="tspan3424">keine Expertin …</tspan></text>
    <text
       xml:space="preserve"
       style="font-style:normal;font-variant:normal;font-weight:normal;font-stretch:normal;font-size:12px;line-height:125%;font-family:Lavi;-inkscape-font-specification:Lavi;text-align:center;letter-spacing:0px;word-spacing:0px;text-anchor:middle;fill:#000000;fill-opacity:1;stroke:none"
       x="1447.9285"
       y="433.09341"
       id="text4246-3-7"
       sodipodi:linespacing="125%"><tspan
         sodipodi:role="line"
         style="font-size:45px"
         x="1455.8386"
         y="433.09341"
         id="tspan3462">… aber das </tspan><tspan
         sodipodi:role="line"
         style="font-size:45px"
         x="1455.8386"
         y="489.34341"
         id="tspan3435">Gemüsebeet ist schon sehr </tspan><tspan
         sodipodi:role="line"
         style="font-size:45px"
         x="1447.9285"
         y="545.59338"
         id="tspan3441">eigenartig dieses Jahr,</tspan></text>
    <text
       xml:space="preserve"
       style="font-style:normal;font-variant:normal;font-weight:normal;font-stretch:normal;font-size:12px;line-height:125%;font-family:Lavi;-inkscape-font-specification:Lavi;text-align:center;letter-spacing:0px;word-spacing:0px;text-anchor:middle;fill:#000000;fill-opacity:1;stroke:none"
       x="1632.2766"
       y="624.12958"
       id="text4246-3-7-6"
       sodipodi:linespacing="125%"><tspan
         sodipodi:role="line"
         style="font-size:45px"
         x="1632.2766"
         y="624.12958"
         id="tspan3849">und bei vielen anderen</tspan><tspan
         sodipodi:role="line"
         style="font-size:45px"
         x="1632.2766"
         y="680.37958"
         id="tspan3448">Pflanzen rund ums Haus</tspan><tspan
         sodipodi:role="line"
         style="font-size:45px"
         x="1632.2766"
         y="736.62958"
         id="tspan3450">sieht es ähnlich aus.</tspan></text>
    <text
       sodipodi:linespacing="125%"
       id="text4178-6-5-9-0-7-0-4"
       style="font-style:normal;font-variant:normal;font-weight:normal;font-stretch:normal;font-size:9.76241112px;line-height:125%;font-family:Lavi;-inkscape-font-specification:Lavi;text-align:center;letter-spacing:0px;word-spacing:0px;text-anchor:middle;opacity:0.63300003;fill:#ffffff;fill-opacity:1;stroke:none;filter:url(#filter5236-4-16)"
       xml:space="preserve"
       y="3129.8394"
       x="1318.7137"
       transform="matrix(0.6851492,-0.06612027,-0.09994133,0.78144216,149.5816,-965.35698)"><tspan
         y="3129.8394"
         x="1318.7137"
         style="font-style:normal;font-variant:normal;font-weight:normal;font-stretch:normal;font-size:40.67671585px;font-family:Fondamento;-inkscape-font-specification:Fondamento;fill:#ffffff;fill-opacity:1"
         sodipodi:role="line"
         id="tspan4293-1-6-3-5-0-2">Tomaten</tspan></text>
    <text
       sodipodi:linespacing="125%"
       id="text4178-6-5-9-0-7-0-4-7"
       style="font-style:normal;font-variant:normal;font-weight:normal;font-stretch:normal;font-size:9.76241112px;line-height:125%;font-family:Lavi;-inkscape-font-specification:Lavi;text-align:center;letter-spacing:0px;word-spacing:0px;text-anchor:middle;opacity:0.63300003;fill:#ffffff;fill-opacity:1;stroke:none;filter:url(#filter5236-4-16-3)"
       xml:space="preserve"
       y="3129.8394"
       x="1318.7137"
       transform="matrix(0.58543203,0.08325699,-0.38986142,0.70644422,2171.8616,-965.83592)"><tspan
         y="3129.8394"
         x="1318.7137"
         style="font-style:normal;font-variant:normal;font-weight:normal;font-stretch:normal;font-size:40.67671585px;font-family:Fondamento;-inkscape-font-specification:Fondamento;fill:#ffffff;fill-opacity:1"
         sodipodi:role="line"
         id="tspan4293-1-6-3-5-0-2-5">Auberginen</tspan></text>
    <text
       xml:space="preserve"
       style="font-style:normal;font-variant:normal;font-weight:normal;font-stretch:normal;font-size:12px;line-height:125%;font-family:Lavi;-inkscape-font-specification:Lavi;text-align:center;letter-spacing:0px;word-spacing:0px;text-anchor:middle;fill:#000000;fill-opacity:1;stroke:none"
       x="1623.3389"
       y="1807.339"
       id="text4246-3-2"
       sodipodi:linespacing="125%"><tspan
         sodipodi:role="line"
         style="font-size:45px"
         x="1631.249"
         y="1807.339"
         id="tspan3466">Dasselbe mit den </tspan><tspan
         sodipodi:role="line"
         style="font-size:45px"
         x="1623.3389"
         y="1863.589"
         id="tspan3461">Ameisen, die treiben echt</tspan><tspan
         sodipodi:role="line"
         style="font-size:45px"
         x="1623.3389"
         y="1919.839"
         id="tspan3463">komische Sachen.</tspan></text>
    <text
       xml:space="preserve"
       style="font-style:normal;font-variant:normal;font-weight:normal;font-stretch:normal;font-size:12px;line-height:125%;font-family:Lavi;-inkscape-font-specification:Lavi;text-align:center;letter-spacing:0px;word-spacing:0px;text-anchor:middle;fill:#000000;fill-opacity:1;stroke:none"
       x="1935.3137"
       y="1998.3405"
       id="text4246-3-2-9"
       sodipodi:linespacing="125%"><tspan
         sodipodi:role="line"
         style="font-size:45px"
         x="1935.3137"
         y="1998.3405"
         id="tspan4259-0">Auf jeden Fall …</tspan></text>
    <text
       xml:space="preserve"
       style="font-style:normal;font-variant:normal;font-weight:normal;font-stretch:normal;font-size:12px;line-height:125%;font-family:Lavi;-inkscape-font-specification:Lavi;text-align:center;letter-spacing:0px;word-spacing:0px;text-anchor:middle;fill:#000000;fill-opacity:1;stroke:none"
       x="2040.2504"
       y="2094.5471"
       id="text4246-3-2-9-6"
       sodipodi:linespacing="125%"><tspan
         sodipodi:role="line"
         style="font-size:45px"
         x="2040.2504"
         y="2094.5471"
         id="tspan3514">Ich hab mir gedacht, wir</tspan><tspan
         sodipodi:role="line"
         style="font-size:45px"
         x="2048.1606"
         y="2150.7971"
         id="tspan3511">haben vielleicht ein </tspan><tspan
         sodipodi:role="line"
         style="font-size:45px"
         x="2048.1606"
         y="2207.0471"
         id="tspan3517">Umweltproblem, vielleicht </tspan><tspan
         sodipodi:role="line"
         style="font-size:45px"
         x="2040.2504"
         y="2263.2971"
         id="tspan3519">sollten wir unser Zeug mal</tspan><tspan
         sodipodi:role="line"
         style="font-size:45px"
         x="2040.2504"
         y="2319.5471"
         id="tspan3536">richtig entsorgen?</tspan></text>
    <text
       xml:space="preserve"
       style="font-style:normal;font-variant:normal;font-weight:normal;font-stretch:normal;font-size:12px;line-height:125%;font-family:Lavi;-inkscape-font-specification:Lavi;text-align:center;letter-spacing:0px;word-spacing:0px;text-anchor:middle;fill:#000000;fill-opacity:1;stroke:none;stroke-width:2.79999995;stroke-miterlimit:4;stroke-dasharray:none"
       x="457.55984"
       y="2712.1267"
       id="text4246-3-2-9-6-6"
       sodipodi:linespacing="125%"><tspan
         sodipodi:role="line"
         style="font-size:45px;stroke-width:2.79999995;stroke-miterlimit:4;stroke-dasharray:none"
         x="457.55984"
         y="2712.1267"
         id="tspan3520">Hör zu, Fräulein</tspan><tspan
         sodipodi:role="line"
         style="font-size:45px;stroke-width:2.79999995;stroke-miterlimit:4;stroke-dasharray:none"
         x="457.55984"
         y="2768.3767"
         id="tspan3900"><tspan
   style="stroke:#000000;stroke-width:2.79999995;stroke-miterlimit:4;stroke-dasharray:none;stroke-opacity:1"
   id="tspan4217">„Ich-Ruiniere-All-Meine-Tränke“</tspan>,</tspan><tspan
         sodipodi:role="line"
         style="font-size:45px;stroke-width:2.79999995;stroke-miterlimit:4;stroke-dasharray:none"
         x="457.55984"
         y="2824.6267"
         id="tspan4378" /></text>
    <text
       xml:space="preserve"
       style="font-style:normal;font-variant:normal;font-weight:normal;font-stretch:normal;font-size:12px;line-height:125%;font-family:Lavi;-inkscape-font-specification:Lavi;text-align:center;letter-spacing:0px;word-spacing:0px;text-anchor:middle;fill:#000000;fill-opacity:1;stroke:none"
       x="533.33545"
       y="2825.8171"
       id="text4246-3-2-9-6-6-7"
       sodipodi:linespacing="125%"><tspan
         sodipodi:role="line"
         style="font-size:45px"
         x="541.24561"
         y="2825.8171"
         id="tspan4378-5">deine Hippiah-Verkleidung </tspan><tspan
         sodipodi:role="line"
         style="font-size:45px"
         x="533.33545"
         y="2882.0671"
         id="tspan3547">ist dir zweifellos zu</tspan><tspan
         sodipodi:role="line"
         style="font-size:45px"
         x="533.33545"
         y="2938.3171"
         id="tspan3549">Kopfe gestiegen.</tspan></text>
    <text
       xml:space="preserve"
       style="font-style:normal;font-variant:normal;font-weight:normal;font-stretch:normal;font-size:12px;line-height:125%;font-family:Lavi;-inkscape-font-specification:Lavi;text-align:center;letter-spacing:0px;word-spacing:0px;text-anchor:middle;fill:#000000;fill-opacity:1;stroke:none"
       x="1882.85"
       y="2725.4656"
       id="text4246-3-2-9-6-6-0"
       sodipodi:linespacing="125%"><tspan
         sodipodi:role="line"
         style="font-size:45px"
         x="1882.85"
         y="2725.4656"
         id="tspan4414">In Chaosah</tspan><tspan
         sodipodi:role="line"
         style="font-size:45px"
         x="1882.85"
         y="2781.7156"
         id="tspan4587">vergraben wir</tspan><tspan
         sodipodi:role="line"
         style="font-size:45px"
         x="1882.85"
         y="2837.9656"
         id="tspan3913">unsere Fehler!</tspan><tspan
         sodipodi:role="line"
         style="font-size:45px"
         x="1882.85"
         y="2894.2156"
         id="tspan4378-7" /></text>
    <text
       xml:space="preserve"
       style="font-style:normal;font-variant:normal;font-weight:normal;font-stretch:normal;font-size:12px;line-height:125%;font-family:Lavi;-inkscape-font-specification:Lavi;text-align:center;letter-spacing:0px;word-spacing:0px;text-anchor:middle;fill:#000000;fill-opacity:1;stroke:none;stroke-width:2.79999995;stroke-miterlimit:4;stroke-dasharray:none"
       x="2006.0837"
       y="2908.1658"
       id="text4246-3-2-9-6-6-0-5"
       sodipodi:linespacing="125%"><tspan
         sodipodi:role="line"
         style="font-size:45px;stroke-width:2.79999995;stroke-miterlimit:4;stroke-dasharray:none"
         x="2006.0837"
         y="2908.1658"
         id="tspan4414-3">So ist es unsere Tradition</tspan><tspan
         sodipodi:role="line"
         style="font-size:45px;stroke-width:2.79999995;stroke-miterlimit:4;stroke-dasharray:none"
         x="2006.0837"
         y="2964.4158"
         id="tspan3555">seit Anbeginn der Zeit, und es</tspan><tspan
         sodipodi:role="line"
         style="font-size:45px;stroke-width:2.79999995;stroke-miterlimit:4;stroke-dasharray:none"
         x="2006.0837"
         y="3020.6658"
         id="tspan3559">kümmert mich 'nen Dreck, was</tspan><tspan
         sodipodi:role="line"
         style="font-size:45px;stroke:#000000;stroke-width:2.79999995;stroke-miterlimit:4;stroke-dasharray:none;stroke-opacity:1"
         x="2006.0837"
         y="3076.9158"
         id="tspan3933">MUTTER NATUR</tspan><tspan
         sodipodi:role="line"
         style="font-size:45px;stroke-width:2.79999995;stroke-miterlimit:4;stroke-dasharray:none"
         x="2006.0837"
         y="3133.1658"
         id="tspan3935">darüber denkt!</tspan><tspan
         sodipodi:role="line"
         style="font-size:45px;stroke-width:2.79999995;stroke-miterlimit:4;stroke-dasharray:none"
         x="2006.0837"
         y="3189.4158"
         id="tspan4378-7-6" /></text>
    <text
       xml:space="preserve"
       style="font-style:normal;font-variant:normal;font-weight:normal;font-stretch:normal;font-size:12px;line-height:125%;font-family:Lavi;-inkscape-font-specification:Lavi;text-align:center;letter-spacing:0px;word-spacing:0px;text-anchor:middle;fill:#000000;fill-opacity:1;stroke:none;stroke-width:2.79999995;stroke-miterlimit:4;stroke-dasharray:none"
       x="2086.7371"
       y="3212.3086"
       id="text4246-3-2-9-6-6-0-5-1"
       sodipodi:linespacing="125%"><tspan
         sodipodi:role="line"
         style="font-size:45px;stroke-width:2.79999995;stroke-miterlimit:4;stroke-dasharray:none"
         x="2094.6472"
         y="3212.3086"
         id="tspan4544">Also halt die Klappe </tspan><tspan
         sodipodi:role="line"
         style="font-size:45px;stroke-width:2.79999995;stroke-miterlimit:4;stroke-dasharray:none"
         x="2094.6472"
         y="3268.5586"
         id="tspan3939">und <tspan
   style="stroke:#000000;stroke-width:2.79999995;stroke-miterlimit:4;stroke-dasharray:none;stroke-opacity:1"
   id="tspan4219">GRAB'</tspan>!! </tspan><tspan
         sodipodi:role="line"
         style="font-size:45px;stroke-width:2.79999995;stroke-miterlimit:4;stroke-dasharray:none"
         x="2086.7371"
         y="3324.8086"
         id="tspan4378-7-6-4" /></text>
    <text
       xml:space="preserve"
       style="font-style:normal;font-weight:normal;font-size:40px;line-height:125%;font-family:Sans;letter-spacing:0px;word-spacing:0px;fill:#000000;fill-opacity:1;stroke:none;stroke-width:1px;stroke-linecap:butt;stroke-linejoin:miter;stroke-opacity:1"
       x="1429.8308"
       y="624.40021"
       id="text3452"
       sodipodi:linespacing="125%"><tspan
         sodipodi:role="line"
         id="tspan3454"
         x="1429.8308"
         y="624.40021" /></text>
    <text
       xml:space="preserve"
       style="font-style:normal;font-weight:normal;font-size:40px;line-height:125%;font-family:Sans;letter-spacing:0px;word-spacing:0px;fill:#000000;fill-opacity:1;stroke:none;stroke-width:1px;stroke-linecap:butt;stroke-linejoin:miter;stroke-opacity:1"
       x="2028.75"
       y="2170.2273"
       id="text3505"
       sodipodi:linespacing="125%"><tspan
         sodipodi:role="line"
         id="tspan3507"
         x="2028.75"
         y="2170.2273" /><tspan
         sodipodi:role="line"
         x="2028.75"
         y="2220.2273"
         id="tspan3509" /></text>
  </g>
</svg>
