<?xml version="1.0" encoding="UTF-8" standalone="no"?>
<!-- Created with Inkscape (http://www.inkscape.org/) -->

<svg
   xmlns:dc="http://purl.org/dc/elements/1.1/"
   xmlns:cc="http://creativecommons.org/ns#"
   xmlns:rdf="http://www.w3.org/1999/02/22-rdf-syntax-ns#"
   xmlns:svg="http://www.w3.org/2000/svg"
   xmlns="http://www.w3.org/2000/svg"
   xmlns:xlink="http://www.w3.org/1999/xlink"
   xmlns:sodipodi="http://sodipodi.sourceforge.net/DTD/sodipodi-0.dtd"
   xmlns:inkscape="http://www.inkscape.org/namespaces/inkscape"
   id="svg2"
   version="1.1"
   inkscape:version="0.91 r13725"
   width="2481"
   height="3503"
   sodipodi:docname="Pepper-and-Carrot_by-David-Revoy_E19P06.svg">
  <metadata
     id="metadata8">
    <rdf:RDF>
      <cc:Work
         rdf:about="">
        <dc:format>image/svg+xml</dc:format>
        <dc:type
           rdf:resource="http://purl.org/dc/dcmitype/StillImage" />
        <dc:title />
      </cc:Work>
    </rdf:RDF>
  </metadata>
  <defs
     id="defs6" />
  <sodipodi:namedview
     pagecolor="#ffffff"
     bordercolor="#666666"
     borderopacity="1"
     objecttolerance="10"
     gridtolerance="10"
     guidetolerance="10"
     inkscape:pageopacity="0"
     inkscape:pageshadow="2"
     inkscape:window-width="1024"
     inkscape:window-height="717"
     id="namedview4"
     showgrid="false"
     inkscape:zoom="0.2124132"
     inkscape:cx="825.89021"
     inkscape:cy="1522.4193"
     inkscape:window-x="0"
     inkscape:window-y="25"
     inkscape:window-maximized="1"
     inkscape:current-layer="layer1" />
  <g
     inkscape:groupmode="layer"
     id="layer2"
     inkscape:label="artwork"
     sodipodi:insensitive="true">
    <image
       sodipodi:absref="/home/koyu/Projekte/peppercarrot_ep19_translation/de/../gfx_Pepper-and-Carrot_by-David-Revoy_E19P06.png"
       xlink:href="../gfx_Pepper-and-Carrot_by-David-Revoy_E19P06.png"
       y="0"
       x="0"
       id="image10"
       height="3503"
       width="2481" />
  </g>
  <g
     inkscape:groupmode="layer"
     id="layer3"
     inkscape:label="speechbubbles">
    <path
       style="fill:#ffffff;stroke:none"
       d="m 481.27782,827.21649 -20.91977,12.96296 c -46.25534,-5.04051 -174.08164,-11.95044 -239.31966,-8.33486 l -26.58596,8.87047 -14.3811,-16.37609 -6.53867,20.46857 -13.07337,-14.32781 -13.86853,13.09594 -15.68884,-9.55187 5.66618,20.46858 -8.71689,12.28155 -17.43381,-8.87047 9.58938,36.84469 c 10e-6,0 -5.34057,4.02908 -11.44219,4.02908 15.30764,29.67904 17.33499,183.27037 12.23291,235.96537 l -12.24637,9.2307 12.23846,11.6405 4.88075,4.3195 -20.5142,14.6211 15.36438,-0.9725 -11.94172,16.2584 12.6401,9.554 -0.87248,12.2794 -1.74299,7.5077 10.10773,8.185 -17.42731,18.0219 24.46256,-5.0239 0.72608,0.6504 c 0,0 -16.54338,24.7562 -21.08602,34.0563 13.30441,-5.6458 34.16106,-14.2702 35.90435,-14.9526 0.13984,-0.054 0.48458,-0.023 0.91601,0.043 l -10.94262,19.1594 26.39207,-14.8563 c 1.80177,0.5199 3.61718,1.0355 5.39712,1.5113 l -5.05808,17.3048 28.27479,-13.9412 c 9.08248,1.6416 20.3198,4.6407 23.00899,5.1084 3.92244,0.6824 24.84253,-6.8232 29.63667,-6.1408 4.79414,0.6822 48.81223,8.187 52.73467,8.187 3.92245,0 27.89271,-2.7287 33.12265,-3.411 5.22992,-0.6822 32.68697,3.411 37.4811,3.411 4.79404,0 13.07556,-6.8233 17.43379,-7.5056 4.35836,-0.6823 16.56119,4.0949 19.61204,5.4594 3.05077,1.3648 24.842,3.4111 30.07193,3.4111 5.22993,0 42.7511,-7.1472 52.29943,-4.0946 6.93673,2.2176 70.15596,0.1985 104.11414,-2.1866 l -3.57104,16.1614 22.02571,-17.9124 c 1.81226,-0.2909 2.86501,-0.5727 2.94982,-0.8383 0,0 6.97308,12.965 9.15215,12.965 2.17916,0 5.66644,-10.9189 6.97392,-12.2835 1.30749,-1.3647 10.46083,6.1417 12.6401,5.4593 2.17917,-0.6823 3.05072,-14.3279 3.05072,-14.3279 l 2.17823,-6.8241 c 0,0 6.10193,-2.0465 8.71691,-4.776 2.61495,-2.7292 -0.43653,-14.3286 -3.92321,-19.7871 3.05087,-2.7293 10.46013,-7.5043 11.76763,-10.2334 1.30756,-2.7295 -3.05072,-11.6001 -3.05072,-11.6001 0,0 2.61563,-4.7754 3.9232,-8.1869 1.30749,-3.4119 -8.16063,-14.7973 -8.16063,-14.7973 0,0 8.16008,-11.1314 8.59588,-15.2253 0.38519,-3.6187 -1.95584,-7.2323 -5.81457,-8.0239 l 12.1178,-7.1525 -13.70844,-2.42 c -1.05752,-38.1375 -1.76711,-165.2013 5.86008,-197.54262 l 16.46042,-13.38625 -16.04694,-6.28739 c -1.11733,-1.57248 -2.3318,-3.18966 -3.59676,-4.79657 l 16.04353,-18.47971 -23.50556,-9.21116 0,-12.18245 -8.7169,-6.82218 c 0,0 0.37656,-1.78973 0.74982,-4.37123 l 9.05917,-17.68312 -35.24603,14.45535 0.0752,0.33657 c -10.36608,-1.78366 -18.74945,-6.5558 -18.74945,-6.5558 l 4.7937,-30.70391 -32.25213,15.01126 -2.17824,-12.96296 -13.5106,12.28157 -4.35846,-19.78719 -13.5106,15.01125 -11.33237,-7.79742 -2.54913,2.41196 -10.45989,-8.87048 -10.45988,8.18702 -20.83867,4.29037 -6.10144,-19.10373 z"
       id="path3894"
       inkscape:connector-curvature="0"
       sodipodi:nodetypes="ccccccccccccccccccccccccccccccccccccccscsscssccccscccccccccccccccccccccccccccccccccccccccc" />
    <path
       style="color:#000000;display:inline;overflow:visible;visibility:visible;fill:#ffffff;fill-opacity:1;fill-rule:nonzero;stroke:none;stroke-width:1px;marker:none;enable-background:accumulate"
       d="m 535.70109,762.59499 c 38.34876,34.92863 35.4166,55.61846 35.05492,70.73951 -5.21085,0.99543 -14.03945,4.31409 -14.03945,4.31409 0,0 2.34858,29.8366 -0.92638,41.34315 -3.27496,11.50653 -19.13613,8.37057 -19.13613,8.37057 0,0 -6.17597,-57.93992 -11.57097,-70.14779 14.42663,-2.21185 21.11631,-4.94055 26.71433,-3.83376 3.38923,-8.44544 -2.96428,-38.06103 -16.09632,-50.78577 z"
       id="path4456"
       inkscape:connector-curvature="0" />
    <path
       style="color:#000000;display:inline;overflow:visible;visibility:visible;fill:#ffffff;fill-opacity:1;fill-rule:nonzero;stroke:none;stroke-width:1px;marker:none;enable-background:accumulate"
       d="m 801.3132,181.03872 -51.73607,-16.98785 28.74649,50.64166 -48.6377,-18.28541 38.12398,50.64523 -48.05463,-2.79075 33.1246,36.39372 -27.32166,7.23539 27.8368,31.55922 -28.74424,9.43785 25.85614,33.30283 -28.52683,23.06876 17.01511,22.01092 -20.63367,19.355 18.70972,12.98813 -16.45041,29.66965 22.22241,5.26068 -23.09531,30.51991 35.78025,-9.68193 -11.23735,35.11099 41.74774,-20.13162 -18.13299,43.73025 36.59827,-0.40286 -50.60531,98.91716 79.41152,-61.01088 6.04821,52.30645 39.34186,-45.95064 0.99701,32.05325 34.75912,-40.44164 -0.7464,40.09852 38.40356,-47.22725 0.0945,149.99472 64.9207,-127.86478 11.5251,52.81293 10.5397,-49.32243 11.2901,21.68097 10.949,-27.26037 10.6101,43.02041 19.4175,-49.61324 76.4455,72.67377 -13.3623,-87.19579 63.4471,11.83601 -21.2748,-42.78792 91.4157,22.76168 -43.0646,-39.44484 77.6488,21.33905 -86.8661,-70.28788 79.8823,18.26225 -59.2528,-56.02799 55.1627,-4.77214 -50.7755,-38.607 90.6877,-6.30313 -82.7921,-32.15481 74.3467,-16.66003 -56.0399,-33.65401 64.6887,-27.83672 -69.2183,-21.5161 50.9703,-71.69964 -71.1876,18.11223 8.1987,-49.00887 -66.5939,36.6867 31.2,-87.46295 -84.789,77.48189 4.2338,-24.82185 -30.0811,20.39691 18.5438,-56.06995 -56.7578,53.04238 5.7721,-24.58061 -17.316,23.28701 3.8479,-32.34314 -29.8218,38.81169 2.7456,-33.81651 -18.221,18.24099 -0.4689,-17.31565 -16.7636,13.48533 -22.59798,-58.77423 -33.71586,60.61243 -16.57596,-26.0707 -19.18809,24.96938 -13.32766,-29.36977 -20.06601,35.09579 -32.6444,-47.5738 2.13432,47.20518 -78.74561,-51.13719 z"
       id="path4024"
       inkscape:connector-curvature="0"
       sodipodi:nodetypes="ccccccccccccccccccccccccccccccccccccccccccccccccccccccccccccccccccccccccccccccccccccc" />
    <path
       style="color:#000000;display:inline;overflow:visible;visibility:visible;fill:#ffffff;fill-opacity:1;fill-rule:nonzero;stroke:none;stroke-width:1px;marker:none;enable-background:accumulate"
       d="m 1019.5375,547.92594 c 15.7981,16.30726 34.6833,141.58053 227.5736,231.14516 -154.1725,-93.5024 -173.4435,-224.61445 -180.0947,-249.55706 -53.9051,-8.39388 -24.7768,9.78373 -47.4789,18.4119 z"
       id="path4024-3"
       inkscape:connector-curvature="0"
       sodipodi:nodetypes="cccc" />
    <path
       style="color:#000000;display:inline;overflow:visible;visibility:visible;fill:#ffffff;fill-opacity:1;fill-rule:nonzero;stroke:none;stroke-width:1px;marker:none;enable-background:accumulate"
       d="m 1165.7536,858.24078 c 28.961,44.03488 26.3945,130.36717 18.3117,150.34892 -8.0828,19.9817 -19.1821,49.9462 -58.1326,50.2525 -38.9506,0.3064 -309.43062,23.4584 -349.6799,-22.7008 -40.24929,-46.15927 -39.70015,-126.94282 -5.16902,-181.43608 34.53113,-54.49326 221.14913,-44.89527 221.14913,-44.89527 0,0 129.11259,-7.65482 173.52069,48.43073 z"
       id="path3992"
       inkscape:connector-curvature="0" />
    <path
       style="display:inline;fill:#ffffff;fill-rule:evenodd;stroke:none;stroke-width:1px;stroke-linecap:butt;stroke-linejoin:miter;stroke-opacity:1"
       d="m 727.10685,996.89136 c 74.866,73.60324 103.78855,3.96944 102.68898,-66.62566 30.56158,76.2866 51.76994,93.3483 64.34785,55.7614 40.46149,32.3075 65.73312,23.245 85.79709,0 7.47835,29.8947 23.51573,17.8312 37.39523,16.3462 4.5714,6.7635 -11.1293,23.5669 52.3016,1.1789 4.1088,8.9521 9.6437,16.6614 46.7984,-3.1864 9.6256,36.3357 40.509,-2.01383 72.1476,-43.01599 -19.7117,50.40869 -20.8834,52.65279 4.3042,33.36049 -3.7956,8.56916 -9.9761,25.7196 15.4916,7.14359 -14.9785,38.31631 35.7014,-11.18964 99.1309,-66.22169 -31.7284,40.67928 -105.608,136.6484 -50.1911,130.9639 -7.7282,11.9924 -33.6691,26.098 44.3605,36.547 -15.3256,8.1378 -62.1143,-3.7539 -23.0841,30.7017 5.2293,4.0276 -12.277,6.4871 21.1342,17.0938 -19.723,-0.7216 -31.8186,1.8562 -13.6496,17.525 -36.0017,-0.8472 -22.5314,15.6287 3.8999,36.6432 -52.1355,-26.9556 -55.0047,-17.1588 -56.5481,-6.3727 -65.3412,-36.7496 -69.1768,-25.1792 -77.9972,-17.5251 -31.849,0.2868 -63.6979,-4.3411 -95.5469,36.6433 -8.3408,-25.4912 -25.0631,-45.1128 -95.54659,-27.0841 30.94761,-32.4293 -13.07948,-11.7684 -46.79837,1.5931 18.46514,-40.5122 -28.397,-13.9241 -87.74711,25.491 33.23583,-44.7368 -36.02827,-48.3517 -91.964,-16.5884 39.05508,-34.6799 50.49092,-43.5858 -31.77091,-45.2956 39.37305,-15.8531 30.0734,-37.6472 -10.81042,-73.5366 46.08773,10.5678 59.83505,0.7517 27.29901,-38.2364 50.26943,32.0011 24.17136,-0.3644 4.55734,-43.30394 z"
       id="path4508"
       inkscape:connector-curvature="0"
       sodipodi:nodetypes="cccccccccccccccccccccccccccc" />
    <path
       style="color:#000000;display:inline;overflow:visible;visibility:visible;fill:#ffffff;fill-opacity:1;fill-rule:nonzero;stroke:none;stroke-width:1px;marker:none;enable-background:accumulate"
       d="m 701.32735,1192.5775 c 10.39388,-57.0318 97.57309,-96.8019 317.01475,-80.6312 117.5446,8.6619 259.209,-3.5616 245.3505,94.9884 -11.7801,83.77 -215.7733,69.9004 -255.6167,70.8837 -39.84346,0.9834 -243.79137,3.1783 -278.22905,-26.2153 -21.5572,-18.3996 -30.2518,-41.326 -28.5195,-59.0256 z"
       id="path4546-6-3"
       inkscape:connector-curvature="0"
       sodipodi:nodetypes="cssssc" />
    <path
       style="color:#000000;fill:#ffffff;fill-opacity:1;fill-rule:nonzero;stroke:none;stroke-width:1px;marker:none;visibility:visible;display:inline;overflow:visible;enable-background:accumulate"
       d="m 139.92716,1488.4784 c 38.50476,-47.6958 252.02205,-40.4013 318.43462,-28.1166 72.47738,13.4065 94.79201,32.4028 98.03297,74.0366 1.00107,12.8598 -4.86144,71.1761 -40.51247,82.6562 -35.65088,11.48 -137.74206,17.22 -173.39309,17.22 -35.65087,0 -149.45648,-7.307 -178.25484,-24.108 -27.54847,-16.0721 -62.81212,-73.9926 -24.30719,-121.6882 z"
       id="path3330"
       inkscape:connector-curvature="0"
       sodipodi:nodetypes="zsssssz" />
    <path
       style="color:#000000;display:inline;overflow:visible;visibility:visible;fill:#ffffff;fill-opacity:1;fill-rule:nonzero;stroke:none;stroke-width:1px;marker:none;enable-background:accumulate"
       d="m 190.48548,1712.1318 c -1.4269,-39.45 5.84941,-65.6111 38.52722,-86.5705 29.74864,-19.0807 95.25594,-24.3535 138.96646,-24.3535 70.65194,-0.2693 252.01153,-7.3698 230.61083,115.8776 -0.84524,58.4565 -106.23447,61.0053 -127.63859,65.7393 -21.40413,4.7339 -106.96997,5.7778 -126.94718,4.1999 -73.44134,2.8685 -150.96794,-26.8138 -153.51874,-74.8928 z"
       id="path3357"
       inkscape:connector-curvature="0"
       sodipodi:nodetypes="csccscc" />
    <path
       style="color:#000000;display:inline;overflow:visible;visibility:visible;fill:#ffffff;fill-opacity:1;fill-rule:nonzero;stroke:none;stroke-width:1px;marker:none;enable-background:accumulate"
       d="m 453.45684,1711.8886 c -0.37144,57.0275 25.35707,95.1396 67.76656,103.3368 -67.9487,-0.4363 -102.57173,-72.2713 -100.82948,-96.6104 1.70602,-23.8329 33.06292,-6.7264 33.06292,-6.7264 z"
       id="path5010"
       inkscape:connector-curvature="0"
       sodipodi:nodetypes="ccsc" />
    <path
       style="color:#000000;display:inline;overflow:visible;visibility:visible;fill:#ffffff;fill-opacity:1;fill-rule:nonzero;stroke:none;stroke-width:1px;marker:none;enable-background:accumulate"
       d="m 232.60887,2112.7468 c 28.82884,-21.6901 278.41375,-34.8028 344.5222,0.8436 55.17978,29.7537 33.65046,103.8509 -15.42321,120.9177 -49.0735,17.0669 -212.3232,15.086 -283.87185,7.3484 -68.12416,-7.3674 -79.56334,-29.6049 -82.91431,-74.38 -1.36765,-18.2745 8.85821,-33.0393 37.68717,-54.7297 z"
       id="path4040-4"
       inkscape:connector-curvature="0"
       sodipodi:nodetypes="zssssz" />
    <path
       style="color:#000000;display:inline;overflow:visible;visibility:visible;fill:#ffffff;fill-opacity:1;fill-rule:nonzero;stroke:none;stroke-width:1px;marker:none;enable-background:accumulate"
       d="m 535.00775,1986.8306 c -11.22357,-11.0259 -34.07155,-13.8129 -52.41966,-13.1663 -5.21231,0.2939 -10.58546,0.9606 -15.40703,2.9669 -4.5497,3.204 -5.8508,9.2452 -4.71647,14.4517 1.1116,7.6336 5.4512,15.1923 3.33691,23.0221 -1.67716,5.6622 -7.62933,7.7967 -12.46033,10.0265 -12.42532,5.4417 -25.66044,9.2324 -37.15366,16.6288 -13.48154,7.4861 -27.12386,16.3412 -35.233,29.8576 -3.11895,5.4019 -5.62626,11.4889 -5.13528,17.8477 0.51982,16.3695 10.44001,32.6806 25.75127,39.1373 10.15783,3.1917 22.85144,-2.6898 25.43476,-13.369 1.44801,-5.6168 -1.12924,-11.3042 -4.7776,-15.4765 -5.27333,-8.9228 -5.03206,-20.3779 -0.31332,-29.473 3.77147,-7.5698 9.88065,-13.877 17.08927,-18.2489 8.233,-8.5339 20.53978,-9.9068 31.26386,-13.4482 4.87531,-1.6909 9.9467,-3.8199 13.48797,-7.6632 3.74598,-6.6816 1.05856,-14.5289 -1.98107,-20.9052 -2.96548,-6.6569 -7.15746,-14.0436 -4.63677,-21.5174 1.0509,-5.4219 7.54846,-5.1616 11.76803,-6.5249 14.15942,-2.6164 28.95507,-0.7769 42.45081,4.0015 1.25162,0.5512 2.45101,1.1992 3.65131,1.8525 z"
       id="path4496"
       inkscape:connector-curvature="0"
       sodipodi:nodetypes="ccccccccccccccccccccc" />
    <path
       style="color:#000000;display:inline;overflow:visible;visibility:visible;fill:#ffffff;fill-opacity:1;fill-rule:nonzero;stroke:none;stroke-width:1px;marker:none;enable-background:accumulate"
       d="m 215.29356,2553.0724 c 9.655,-94.8888 99.91909,-162.6351 329.5865,-140.1187 123.02226,12.061 262.8327,21.1632 250.11894,160.1972 -12.7139,139.034 -213.80757,131.4011 -255.42473,133.8198 -41.61715,2.4187 -257.55967,-16.5396 -294.1705,-64.6591 -22.91755,-30.1213 -31.54594,-59.8204 -30.11021,-89.2392 z"
       id="path4546-6"
       inkscape:connector-curvature="0"
       sodipodi:nodetypes="cssssc" />
    <path
       style="fill:#ffffff;stroke:none"
       d="m 694.38649,2534.9643 c 31.16173,50.5895 56.21292,58.6934 72.83219,79.5631 16.61925,20.8701 -4.22375,65.3135 0.2296,80.4242 5.36252,14.254 23.11118,27.2288 57.37772,44.4988 -73.16324,-15.6884 -73.36945,-34.9149 -78.29883,-48.1564 -6.77646,-18.203 5.60657,-39.7648 -12.3168,-56.2686 -17.36077,-15.9861 -80.58056,-61.1983 -92.85364,-95.1241 -12.2733,-33.9259 -18.60006,-35.9967 -18.60006,-35.9967 z"
       id="path3282"
       inkscape:connector-curvature="0"
       sodipodi:nodetypes="csccssscc" />
  </g>
  <g
     inkscape:groupmode="layer"
     id="layer1"
     inkscape:label="txt">
    <text
       xml:space="preserve"
       style="font-style:normal;font-variant:normal;font-weight:normal;font-stretch:normal;font-size:11.0573225px;line-height:125%;font-family:Lavi;-inkscape-font-specification:Lavi;text-align:center;letter-spacing:0px;word-spacing:0px;text-anchor:middle;fill:#000000;fill-opacity:1;stroke:none"
       x="386.09131"
       y="934.58612"
       id="text4246"
       sodipodi:linespacing="125%"><tspan
         sodipodi:role="line"
         style="font-size:55.28661346px"
         x="386.09131"
         y="934.58612"
         id="tspan4150">Aber die <tspan
   style="stroke:#000000;stroke-width:1.79999995;stroke-miterlimit:4;stroke-dasharray:none;stroke-opacity:1"
   id="tspan4183">Umgebung</tspan>!</tspan><tspan
         sodipodi:role="line"
         style="font-size:55.28661346px"
         x="386.09131"
         y="1003.6944"
         id="tspan4176"><tspan
   style="stroke:#000000;stroke-width:1.79999995;stroke-miterlimit:4;stroke-dasharray:none;stroke-opacity:1"
   id="tspan4185">Natur</tspan>!</tspan></text>
    <text
       xml:space="preserve"
       style="font-style:normal;font-variant:normal;font-weight:normal;font-stretch:normal;font-size:12px;line-height:125%;font-family:Lavi;-inkscape-font-specification:Lavi;text-align:center;letter-spacing:0px;word-spacing:0px;text-anchor:middle;fill:#000000;fill-opacity:1;stroke:none"
       x="393.99847"
       y="1068.822"
       id="text4246-70"
       sodipodi:linespacing="125%"><tspan
         sodipodi:role="line"
         style="font-size:45px"
         x="393.99847"
         y="1068.822"
         id="tspan4208">Wir können nicht weiterhin</tspan><tspan
         sodipodi:role="line"
         style="font-size:45px"
         x="393.99847"
         y="1125.072"
         id="tspan3632">alles so verschmutzen</tspan><tspan
         sodipodi:role="line"
         style="font-size:45px"
         x="393.99847"
         y="1181.322"
         id="tspan3390">ohne unter den ernsten</tspan><tspan
         sodipodi:role="line"
         style="font-size:45px"
         x="401.90863"
         y="1237.572"
         id="tspan3630">Konsequenzen zu leiden!!! </tspan></text>
    <text
       xml:space="preserve"
       style="font-style:normal;font-variant:normal;font-weight:normal;font-stretch:normal;font-size:11.69629097px;line-height:125%;font-family:Lavi;-inkscape-font-specification:Lavi;text-align:center;letter-spacing:0px;word-spacing:0px;text-anchor:middle;fill:#000000;fill-opacity:1;stroke:none"
       x="1036.2029"
       y="276.43994"
       id="text4246-7"
       sodipodi:linespacing="125%"
       transform="scale(0.97469088,1.0259663)"><tspan
         sodipodi:role="line"
         style="font-size:58.48145294px;stroke:#000000;stroke-width:1.89999998;stroke-miterlimit:4;stroke-dasharray:none;stroke-opacity:1"
         x="1036.2029"
         y="276.43994"
         id="tspan4224">Es hat noch nie</tspan><tspan
         sodipodi:role="line"
         style="font-size:58.48145294px;stroke:#000000;stroke-width:1.89999998;stroke-miterlimit:4;stroke-dasharray:none;stroke-opacity:1"
         x="1036.2029"
         y="349.54175"
         id="tspan3645">irgendwelche</tspan><tspan
         sodipodi:role="line"
         style="font-size:58.48145294px;stroke:#000000;stroke-width:1.89999998;stroke-miterlimit:4;stroke-dasharray:none;stroke-opacity:1"
         x="1036.2029"
         y="422.64359"
         id="tspan3649">Probleme bis</tspan><tspan
         sodipodi:role="line"
         style="font-size:58.48145294px;stroke:#000000;stroke-width:1.89999998;stroke-miterlimit:4;stroke-dasharray:none;stroke-opacity:1"
         x="1036.2029"
         y="495.74539"
         id="tspan3403">jetzt verursacht!</tspan></text>
    <text
       xml:space="preserve"
       style="font-style:normal;font-variant:normal;font-weight:normal;font-stretch:normal;font-size:12px;line-height:125%;font-family:Lavi;-inkscape-font-specification:Lavi;text-align:center;letter-spacing:0px;word-spacing:0px;text-anchor:middle;fill:#000000;fill-opacity:1;stroke:none"
       x="969.58252"
       y="880.27979"
       id="text4246-70-2"
       sodipodi:linespacing="125%"><tspan
         sodipodi:role="line"
         style="font-size:45px"
         x="969.58252"
         y="880.27979"
         id="tspan4320">Wir sind Hexen</tspan><tspan
         sodipodi:role="line"
         style="font-size:45px"
         x="969.58252"
         y="936.52979"
         id="tspan3653">von Chaosah!</tspan><tspan
         sodipodi:role="line"
         style="font-size:45px"
         x="969.58252"
         y="992.77979"
         id="tspan4328">Und unsere Probleme</tspan><tspan
         sodipodi:role="line"
         style="font-size:45px"
         x="969.58252"
         y="1049.0298"
         id="tspan3657">werden</tspan></text>
    <text
       xml:space="preserve"
       style="font-style:normal;font-variant:normal;font-weight:normal;font-stretch:normal;font-size:11.69629097px;line-height:125%;font-family:Lavi;-inkscape-font-specification:Lavi;text-align:center;letter-spacing:0px;word-spacing:0px;text-anchor:middle;fill:#000000;fill-opacity:1;stroke:none"
       x="1000.3171"
       y="1096.5863"
       id="text4246-7-9"
       sodipodi:linespacing="125%"
       transform="scale(0.97469088,1.0259663)"><tspan
         sodipodi:role="line"
         style="font-size:58.48145294px;stroke:#000000;stroke-width:2.24178886;stroke-miterlimit:4;stroke-dasharray:none;stroke-opacity:1"
         x="1010.597"
         y="1096.5863"
         id="tspan4221-2">tief vergraben! </tspan></text>
    <text
       xml:space="preserve"
       style="font-style:normal;font-variant:normal;font-weight:normal;font-stretch:normal;font-size:12px;line-height:125%;font-family:Lavi;-inkscape-font-specification:Lavi;text-align:center;letter-spacing:0px;word-spacing:0px;text-anchor:middle;fill:#000000;fill-opacity:1;stroke:none"
       x="973.31299"
       y="1195.8076"
       id="text4246-70-2-8"
       sodipodi:linespacing="125%"><tspan
         sodipodi:role="line"
         style="font-size:45px"
         x="973.31299"
         y="1195.8076"
         id="tspan4366">Wir werden keine</tspan><tspan
         sodipodi:role="line"
         style="font-size:45px"
         x="973.31299"
         y="1252.0576"
         id="tspan3661">Traditionen diskutieren!</tspan></text>
    <text
       xml:space="preserve"
       style="font-style:normal;font-variant:normal;font-weight:normal;font-stretch:normal;font-size:12px;line-height:125%;font-family:Lavi;-inkscape-font-specification:Lavi;text-align:center;letter-spacing:0px;word-spacing:0px;text-anchor:middle;fill:#000000;fill-opacity:1;stroke:none"
       x="339.98892"
       y="1527.9012"
       id="text4246-70-2-2"
       sodipodi:linespacing="125%"><tspan
         sodipodi:role="line"
         style="font-size:45px"
         x="339.98892"
         y="1527.9012"
         id="tspan4406">Oh, schaut, was</tspan><tspan
         sodipodi:role="line"
         style="font-size:45px"
         x="339.98892"
         y="1584.1512"
         id="tspan3668">ich gefunden habe!</tspan></text>
    <text
       xml:space="preserve"
       style="font-style:normal;font-variant:normal;font-weight:normal;font-stretch:normal;font-size:12px;line-height:125%;font-family:Lavi;-inkscape-font-specification:Lavi;text-align:center;letter-spacing:0px;word-spacing:0px;text-anchor:middle;fill:#000000;fill-opacity:1;stroke:none"
       x="395.67731"
       y="1656.1158"
       id="text4246-70-2-2-2"
       sodipodi:linespacing="125%"><tspan
         sodipodi:role="line"
         style="font-size:45px"
         x="395.67731"
         y="1656.1158"
         id="tspan4406-9">Ich kann</tspan><tspan
         sodipodi:role="line"
         style="font-size:45px"
         x="395.67731"
         y="1712.3658"
         id="tspan3670">es gar nicht</tspan><tspan
         sodipodi:role="line"
         style="font-size:45px"
         x="395.67731"
         y="1768.6158"
         id="tspan3388">fassen!</tspan></text>
    <text
       xml:space="preserve"
       style="font-style:normal;font-variant:normal;font-weight:normal;font-stretch:normal;font-size:12px;line-height:125%;font-family:Lavi;-inkscape-font-specification:Lavi;text-align:center;letter-spacing:0px;word-spacing:0px;text-anchor:middle;fill:#000000;fill-opacity:1;stroke:none"
       x="401.46512"
       y="2154.6685"
       id="text4246-70-2-2-2-7"
       sodipodi:linespacing="125%"><tspan
         sodipodi:role="line"
         style="font-size:45px"
         x="401.46512"
         y="2154.6685"
         id="tspan4455">Wie ist das hier</tspan><tspan
         sodipodi:role="line"
         style="font-size:45px"
         x="401.46512"
         y="2210.9185"
         id="tspan3674">runtergekommen?</tspan></text>
    <text
       xml:space="preserve"
       style="font-style:normal;font-variant:normal;font-weight:normal;font-stretch:normal;font-size:12px;line-height:125%;font-family:Lavi;-inkscape-font-specification:Lavi;text-align:center;letter-spacing:0px;word-spacing:0px;text-anchor:middle;fill:#000000;fill-opacity:1;stroke:none"
       x="505.07574"
       y="2486.4219"
       id="text4246-70-2-2-2-7-6"
       sodipodi:linespacing="125%"><tspan
         sodipodi:role="line"
         style="font-size:45px"
         x="505.07574"
         y="2486.4219"
         id="tspan4486">Die muss auf jeden</tspan><tspan
         sodipodi:role="line"
         style="font-size:45px"
         x="505.07574"
         y="2542.6719"
         id="tspan3681">Fall noch etwas gestimmt</tspan><tspan
         sodipodi:role="line"
         style="font-size:45px"
         x="505.07574"
         y="2598.9219"
         id="tspan3683">werden, aber sie lässt sich</tspan><tspan
         sodipodi:role="line"
         style="font-size:45px"
         x="505.07574"
         y="2655.1719"
         id="tspan3391">noch gut spielen.</tspan></text>
  </g>
</svg>
