<?xml version="1.0" encoding="UTF-8" standalone="no"?>
<!-- Created with Inkscape (http://www.inkscape.org/) -->

<svg
   xmlns:dc="http://purl.org/dc/elements/1.1/"
   xmlns:cc="http://creativecommons.org/ns#"
   xmlns:rdf="http://www.w3.org/1999/02/22-rdf-syntax-ns#"
   xmlns:svg="http://www.w3.org/2000/svg"
   xmlns="http://www.w3.org/2000/svg"
   xmlns:xlink="http://www.w3.org/1999/xlink"
   xmlns:sodipodi="http://sodipodi.sourceforge.net/DTD/sodipodi-0.dtd"
   xmlns:inkscape="http://www.inkscape.org/namespaces/inkscape"
   id="svg2"
   version="1.1"
   inkscape:version="0.91 r13725"
   width="2481"
   height="3503"
   sodipodi:docname="Pepper-and-Carrot_by-David-Revoy_E19P02.svg">
  <metadata
     id="metadata8">
    <rdf:RDF>
      <cc:Work
         rdf:about="">
        <dc:format>image/svg+xml</dc:format>
        <dc:type
           rdf:resource="http://purl.org/dc/dcmitype/StillImage" />
        <dc:title />
      </cc:Work>
    </rdf:RDF>
  </metadata>
  <defs
     id="defs6">
    <filter
       inkscape:collect="always"
       style="color-interpolation-filters:sRGB"
       id="filter5236-4-16-3"
       x="-0.0089085409"
       width="1.0178171"
       y="-0.027928527"
       height="1.0558571">
      <feGaussianBlur
         inkscape:collect="always"
         stdDeviation="0.49168068"
         id="feGaussianBlur5238-0-4-6" />
    </filter>
    <filter
       inkscape:collect="always"
       style="color-interpolation-filters:sRGB"
       id="filter5236-4-16"
       x="-0.0089085409"
       width="1.0178171"
       y="-0.027928527"
       height="1.0558571">
      <feGaussianBlur
         inkscape:collect="always"
         stdDeviation="0.49168068"
         id="feGaussianBlur5238-0-4" />
    </filter>
  </defs>
  <sodipodi:namedview
     pagecolor="#ffffff"
     bordercolor="#666666"
     borderopacity="1"
     objecttolerance="10"
     gridtolerance="10"
     guidetolerance="10"
     inkscape:pageopacity="0"
     inkscape:pageshadow="2"
     inkscape:window-width="1024"
     inkscape:window-height="717"
     id="namedview4"
     showgrid="false"
     inkscape:zoom="0.4224276"
     inkscape:cx="1127.3216"
     inkscape:cy="498.45334"
     inkscape:window-x="0"
     inkscape:window-y="25"
     inkscape:window-maximized="1"
     inkscape:current-layer="layer1" />
  <g
     inkscape:groupmode="layer"
     id="layer2"
     inkscape:label="artwork"
     sodipodi:insensitive="true">
    <image
       sodipodi:absref="/home/koyu/peppercarrot_ep19_translation/de/../gfx_Pepper-and-Carrot_by-David-Revoy_E19P02.png"
       xlink:href="../gfx_Pepper-and-Carrot_by-David-Revoy_E19P02.png"
       y="0"
       x="0"
       id="image10"
       height="3503"
       width="2481" />
  </g>
  <g
     inkscape:groupmode="layer"
     id="layer4"
     inkscape:label="translatornotes"
     sodipodi:insensitive="true">
    <path
       inkscape:connector-curvature="0"
       id="path3446"
       d="m 2763.8482,1498.4924 0,-189.0352 -203.8301,0 0,90.9805 -10,0 0,-15.6308 -30.9824,26.9824 30.9824,26.9804 0,-16.6171 10,0 0,76.3398 203.8301,0 z"
       style="color:#000000;clip-rule:nonzero;display:inline;overflow:visible;visibility:visible;opacity:0.481;isolation:auto;mix-blend-mode:normal;color-interpolation:sRGB;color-interpolation-filters:linearRGB;solid-color:#000000;solid-opacity:1;fill:#ffe680;fill-opacity:1;fill-rule:nonzero;stroke:#565656;stroke-width:1.20000005;stroke-linecap:butt;stroke-linejoin:miter;stroke-miterlimit:4;stroke-dasharray:none;stroke-dashoffset:0;stroke-opacity:1;marker:none;color-rendering:auto;image-rendering:auto;shape-rendering:auto;text-rendering:auto;enable-background:accumulate" />
    <flowRoot
       transform="translate(2793.4167,295.2096)"
       style="font-style:normal;font-variant:normal;font-weight:normal;font-stretch:normal;font-size:25.3241539px;line-height:125%;font-family:Lavi;-inkscape-font-specification:'Lavi, Normal';text-align:center;letter-spacing:0px;word-spacing:0px;writing-mode:lr-tb;text-anchor:middle;display:inline;opacity:0.481;fill:#000000;fill-opacity:1;stroke:none;stroke-width:1px;stroke-linecap:butt;stroke-linejoin:miter;stroke-opacity:1"
       id="flowRoot3448"
       xml:space="preserve"><flowRegion
         id="flowRegion3450"><rect
           y="1061.6674"
           x="-275.14545"
           height="247.52747"
           width="291.95547"
           id="rect3452" /></flowRegion><flowPara
         id="flowPara3473">labels</flowPara><flowPara
         id="flowPara4255">in the </flowPara><flowPara
         id="flowPara4257">garden :-)</flowPara></flowRoot>  </g>
  <g
     inkscape:groupmode="layer"
     id="layer3"
     inkscape:label="speechbubbles"
     style="display:inline">
    <path
       style="color:#000000;display:inline;overflow:visible;visibility:visible;fill:#ffffff;fill-opacity:1;fill-rule:nonzero;stroke:none;stroke-width:1px;marker:none;enable-background:accumulate"
       d="m 992.08762,207.25116 c 31.32868,-36.08117 330.37758,-56.69952 424.87668,1.24496 78.8768,48.36542 88.5941,153.42129 29.9959,182.12612 -58.5982,28.70495 -290.1932,29.92475 -384.2842,18.02861 -89.58784,-11.32679 -100.05892,-40.8502 -116.25069,-114.58319 -6.60864,-30.09331 14.33324,-50.73523 45.66231,-86.8165 z"
       id="path4040-4"
       inkscape:connector-curvature="0"
       sodipodi:nodetypes="zssssz" />
    <path
       style="color:#000000;display:inline;overflow:visible;visibility:visible;fill:#ffffff;fill-opacity:1;fill-rule:nonzero;stroke:none;stroke-width:1px;marker:none;enable-background:accumulate"
       d="m 1218.6195,471.60657 c 6.8921,-79.99361 75.774,-136.92767 252.0955,-117.45099 94.4472,10.43269 201.7583,18.40618 192.7593,135.61853 -8.999,117.21223 -163.318,110.3469 -195.2332,112.29768 -31.9153,1.9509 -197.6878,-14.49623 -226.0366,-55.15064 -17.7459,-25.44858 -24.5267,-50.5104 -23.585,-75.31458 z"
       id="path4546-6"
       inkscape:connector-curvature="0"
       sodipodi:nodetypes="cssssc" />
    <path
       style="color:#000000;display:inline;overflow:visible;visibility:visible;fill:#ffffff;fill-opacity:1;fill-rule:nonzero;stroke:none;stroke-width:1px;marker:none;enable-background:accumulate"
       d="m 1358.4008,602.08921 c 52.62,-62.75077 328.3268,-49.3079 425.9584,-35.19706 144.9443,20.94907 138.7521,78.99756 143.1813,95.61164 4.4288,16.61394 -6.6436,93.64246 -55.3639,108.74623 -48.7201,15.10361 -188.2368,22.6554 -236.9569,22.6554 -48.72,0 -204.2455,-9.6134 -243.601,-31.7177 -37.6474,-21.14507 -85.8383,-97.34787 -33.2179,-160.09851 z"
       id="path3330"
       inkscape:connector-curvature="0"
       sodipodi:nodetypes="zsssssz" />
    <path
       style="color:#000000;display:inline;overflow:visible;visibility:visible;fill:#ffffff;fill-opacity:1;fill-rule:nonzero;stroke:none;stroke-width:1px;marker:none;enable-background:accumulate"
       d="m 1530.4255,727.16957 c -4.748,19.68499 -0.6503,33.38997 2.5742,37.35036 3.2245,3.96027 2.3513,12.12365 5.2378,17.57337 2.3614,4.51862 3.5729,10.81257 -0.8434,12.64306 -4.4163,1.83058 -29.4289,3.69855 -33.6755,16.66121 -4.2467,12.96272 3.9771,24.00648 14.1454,30.32451 10.1684,6.31815 24.4145,10.44127 22.2717,20.40102 -2.1427,9.95976 -9.8422,13.23017 -15.8741,13.66024 -6.0318,0.43007 -42.6593,-1.86158 -51.9545,1.56498 -9.295,3.4266 -34.8875,18.35716 -31.0179,31.36521 11.9004,-13.15184 18.3151,-19.01847 27.1348,-20.36055 8.8198,-1.34212 24.7212,-5.09072 34.6744,-1.78852 9.9534,3.30225 30.2251,7.01956 38.1327,2.88942 7.9077,-4.13 22.6869,-13.91278 22.9796,-24.81049 0.2928,-10.89767 -5.2053,-22.98724 -21.3925,-31.19418 -10.1682,-6.31811 -14.5522,-10.2849 -13.6078,-13.29434 0.9444,-3.00939 11.8681,-7.35452 23.4562,-6.13032 11.5882,1.22424 17.0469,-9.49086 18.0108,-15.97871 0.9638,-6.48781 -2.7884,-15.67273 -3.2186,-21.7046 -0.4301,-6.03183 -6.7045,-40.19004 -6.7045,-40.19004 z"
       id="path5058"
       inkscape:connector-curvature="0"
       sodipodi:nodetypes="cscsssssscssssccscccc" />
    <path
       style="color:#000000;display:inline;overflow:visible;visibility:visible;fill:#ffffff;fill-opacity:1;fill-rule:nonzero;stroke:none;stroke-width:1px;marker:none;enable-background:accumulate"
       d="m 1367.2575,1859.3265 c 7.2444,-78.74 46.9779,-107.1928 134.3237,-111.3222 43.367,-2.0502 200.4359,-9.1598 264.1046,5.0861 63.6684,14.246 118.1685,57.8772 113.3388,115.5747 -4.8296,57.6975 -10.5423,102.3893 -80.0751,118.7216 -69.5328,16.3321 -202.8854,4.3047 -216.771,4.9835 -27.7705,1.3576 -171.5993,-17.7945 -195.6022,-58.3764 -15.0254,-25.4031 -20.5262,-50.2305 -19.3188,-74.6673 z"
       id="path4546-6-3"
       inkscape:connector-curvature="0"
       sodipodi:nodetypes="cssssssc" />
    <path
       style="color:#000000;display:inline;overflow:visible;visibility:visible;fill:#ffffff;fill-opacity:1;fill-rule:nonzero;stroke:none;stroke-width:1px;marker:none;enable-background:accumulate"
       d="m 1760.2432,1983.0096 c -2.379,-13.9006 23.7051,-72.4119 168.8276,-63.1448 145.1224,9.2671 160.2801,20.9339 166.9018,70.8244 2.4474,18.4386 -20.1364,45.3021 -41.5479,49.9356 -21.4115,4.6335 -84.0149,17.7137 -119.7007,14.007 -35.6859,-3.7069 -88.3632,-2.8275 -140.8678,-22.2636 -31.6894,-11.7307 -31.2339,-45.6518 -33.613,-49.3586 z"
       id="path3365"
       inkscape:connector-curvature="0"
       sodipodi:nodetypes="csssssc" />
    <path
       style="fill:#ffffff;fill-opacity:1;stroke:none"
       d="m 1760.0982,2258.5858 c -11.0377,-186.5308 67.5603,-251.2357 276.8911,-250.9711 209.3308,0.2644 294.032,53.367 302.8277,164.4259 19.6679,248.3378 -108.8166,310.276 -177.6749,325.6908 -137.5419,30.7905 -336.3135,-27.1462 -364.3985,-79.1567 -28.085,-52.0106 -35.2223,-111.2184 -37.6454,-159.9889 z"
       id="path3238"
       inkscape:connector-curvature="0"
       sodipodi:nodetypes="cssssc" />
    <path
       style="color:#000000;display:inline;overflow:visible;visibility:visible;fill:#ffffff;fill-opacity:1;fill-rule:nonzero;stroke:none;stroke-width:1px;marker:none;enable-background:accumulate"
       d="m 1811.7835,2409.4256 c -30.6436,39.5697 -91.823,73.3362 -171.3605,30.1552 76.0815,26.4581 119.8575,-5.9599 145.0149,-45.5895 21.7184,-34.2122 33.4899,-49.0683 33.4899,-49.0683 z"
       id="path4440"
       inkscape:connector-curvature="0"
       sodipodi:nodetypes="ccscc" />
    <path
       style="color:#000000;display:inline;overflow:visible;visibility:visible;fill:#ffffff;fill-opacity:1;fill-rule:nonzero;stroke:none;stroke-width:1px;marker:none;enable-background:accumulate"
       d="m 94.300081,2771.0565 c 29.203259,-12.2008 43.044979,-20.6571 0.510128,-38.2116 8.733361,-0.1334 57.470251,-2.3871 10.873201,-36.6664 15.36273,4.425 39.92956,16.1744 12.27578,-40.7303 16.6275,9.0722 39.69122,38.0809 19.46008,-15.668 21.90885,18.1658 50.77318,6.6809 44.86443,-2.8619 17.63234,11.5835 52.26034,10.6257 49.29414,0.7964 12.96382,10.7231 48.08315,13.8668 45.32714,-4.1057 10.77181,12.3539 44.20222,11.0813 40.92489,0.5848 28.2422,12.4951 69.07196,20.1966 84.5029,2.7757 13.17614,16.4869 74.46586,11.5083 125.86992,0.2555 0.80521,11.6376 58.01818,13.6805 104.64634,-5.2643 0.70572,17.6792 17.53197,23.6696 38.09319,10.6592 7.34249,7.2567 5.3828,11.4778 34.2372,-5.7016 -1.37751,11.8138 3.75845,22.7128 23.86224,11.4032 3.50212,7.3083 -9.31355,26.2503 41.49978,-1.4256 0.33591,10.3311 -11.5917,30.6183 32.16221,5.7016 -35.49405,61.381 -15.8219,54.8115 8.29988,42.7611 -18.78163,36.2091 -43.00552,81.1202 4.72577,79.4693 -37.37404,8.3649 -36.72068,20.8031 -31.7005,40.2618 -46.84179,-39.184 -52.34551,-9.4055 -72.62449,-4.2761 -21.40833,-6.5187 -41.13085,-30.4065 -66.39932,2.8508 -38.71003,-13.6859 -46.38472,-1.1328 -59.13711,7.127 -67.6294,-26.2641 -66.03189,-4.974 -96.48682,-5.7017 -18.0061,-32.4882 -58.63942,-7.9839 -88.18686,-11.4028 -37.34959,-26.6407 -92.92742,-3.2881 -122.00325,6.9812 14.2109,-16.6415 -20.78466,-31.4976 -54.06569,4.5907 16.52668,-30.4946 -10.58868,-40.7758 -61.21201,-1.5021 23.78921,-36.1336 -9.11149,-30.3748 -45.95406,-7.2192 36.05789,-35.1126 -2.04487,-38.1225 -23.659109,-35.481 z"
       id="path3557"
       inkscape:connector-curvature="0"
       sodipodi:nodetypes="cccccccccccccccccccccccccccccc" />
    <path
       style="color:#000000;display:inline;overflow:visible;visibility:visible;fill:#ffffff;fill-opacity:1;fill-rule:nonzero;stroke:none;stroke-width:1px;marker:none;enable-background:accumulate"
       d="m 237.92389,2846.4528 c 8.94708,-77.7751 99.03414,-134.2781 329.78333,-118.5358 123.6017,8.4325 264.03447,14.2467 252.36367,128.1886 -11.67094,113.9415 -213.61682,110.0465 -255.3789,112.5127 -41.76208,2.4664 -258.70434,-10.5244 -295.83769,-49.4795 -23.24464,-24.3851 -32.14049,-48.5913 -30.93041,-72.686 z"
       id="path4546"
       inkscape:connector-curvature="0"
       sodipodi:nodetypes="cssssc" />
    <path
       style="color:#000000;display:inline;overflow:visible;visibility:visible;fill:#ffffff;fill-opacity:1;fill-rule:nonzero;stroke:none;stroke-width:1px;marker:none;enable-background:accumulate"
       d="m 990.3039,2942.0433 c -39.7219,-30.7338 -84.6659,-56.332 -118.3207,-93.0329 l 9.2071,41.4633 c -19.1495,-7.3977 -31.9655,-24.339 -46.9322,-38.0398 l 1.0996,26.2988 c -44.9905,-17.9715 -75.7521,-49.3371 -113.3909,-74.2288 l 5.8989,45.8738 c 41.0512,21.0955 84.9859,35.8216 122.7937,64.0815 l 1.7812,-25.6614 c 14.445,8.0961 28.5921,16.7337 41.4085,27.7896 l -0.8973,-32.5393 z"
       id="path4032-6"
       inkscape:connector-curvature="0"
       sodipodi:nodetypes="cccccccccccc" />
    <path
       style="fill:#ffffff;stroke:none"
       d="m 1699.0736,2771.0202 c 5.0501,-60.4636 35.5091,-85.0538 49.33,-93.079 13.8207,-8.0252 71.8414,-18.3199 109.742,-16.548 37.9006,1.7719 131.855,10.4999 147.6558,13.4066 15.8008,2.9066 57.954,48.234 57.5018,87.2344 -0.4521,39.0001 -8.9041,64.619 -31.9343,87.3886 -23.0304,22.7698 -160.4271,27.1856 -168.8922,24.6219 -8.4654,-2.5636 -121.5161,-23.0237 -128.5726,-29.8572 -7.0564,-6.8334 -35.6546,-25.5131 -34.8305,-73.1673 z"
       id="path3278"
       inkscape:connector-curvature="0" />
    <path
       style="color:#000000;display:inline;overflow:visible;visibility:visible;fill:#ffffff;fill-opacity:1;fill-rule:nonzero;stroke:none;stroke-width:1px;marker:none;enable-background:accumulate"
       d="m 1751.8024,2891.4177 c 40.137,-52.7374 378.9373,-109.9808 498.0135,-1.2999 119.076,108.6808 46.8496,239.098 -21.4729,280.5943 -68.3223,41.4964 -269.3852,86.9447 -361.1324,51.3764 -91.7471,-35.5682 -163.2125,-88.7359 -167.8779,-197.6015 -1.9041,-44.4325 12.3329,-80.3316 52.4697,-133.0693 z"
       id="path4040"
       inkscape:connector-curvature="0"
       sodipodi:nodetypes="zssssz" />
    <path
       style="display:inline;fill:#ffffff;fill-rule:evenodd;stroke:none;stroke-width:1px;stroke-linecap:butt;stroke-linejoin:miter;stroke-opacity:1"
       d="m 1887.2122,3167.7491 c 48.1261,28.5286 75.5394,16.9272 74.7133,-49.3868 22.9607,71.6603 38.8942,87.6873 48.344,52.3799 30.3984,30.3481 49.3847,21.8353 64.4586,0 5.6184,28.0816 17.6672,16.7498 28.0947,15.3549 3.4344,6.3532 -8.3613,22.1376 39.2938,1.1073 3.0868,8.4093 7.2451,15.651 35.1591,-2.9931 7.2317,34.1321 30.4341,-1.8917 54.204,-40.4074 -14.8094,47.3518 -8.6685,54.0398 10.2547,35.9176 -8.6516,19.4998 -13.8261,34.5948 19.0445,1.4966 -11.2532,35.9927 18.2696,11.2875 65.9236,-40.4072 -23.8372,38.2124 -87.0482,102.6164 -45.4139,97.2767 -5.8062,11.2651 -26.5164,21.0802 35.1591,38.9107 -11.514,7.6442 -46.6658,-3.5263 -17.3429,28.8398 3.9288,3.7834 -9.2235,6.0937 15.878,16.0571 -14.8178,-0.6778 -23.9051,1.7436 -10.2549,16.4623 -27.0478,-0.7959 -16.9276,14.6808 2.93,34.4209 -39.169,-25.3209 -41.3245,-16.1182 -42.4842,-5.9862 -49.0902,-34.521 -51.9717,-23.6523 -58.5985,-16.4623 -23.9278,0.2694 -47.8557,-4.0779 -71.7836,34.421 -6.2663,-23.9452 -18.8296,-42.3768 -71.7833,-25.4415 23.2507,-30.4626 -9.8264,-11.0548 -35.1593,1.4965 13.8728,-38.0554 -21.3342,-13.0797 -65.9235,23.945 24.9698,-42.0237 -3.39,-26.8437 -45.4141,2.9932 15.8781,-41.2842 -9.9807,-61.2497 -71.7833,-62.8558 29.5806,-14.8917 46.8304,-33.6324 16.1147,-67.3454 34.6253,9.9269 44.9535,0.7062 20.5095,-35.9176 37.767,30.0605 20.5958,-13.5407 5.8599,-53.8762 z"
       id="path4508"
       inkscape:connector-curvature="0"
       sodipodi:nodetypes="cccccccccccccccccccccccccccc" />
    <path
       style="color:#000000;display:inline;overflow:visible;visibility:visible;fill:#ffffff;fill-opacity:1;fill-rule:nonzero;stroke:none;stroke-width:1px;marker:none;enable-background:accumulate"
       d="m 1490.4164,2866.2226 c 36.6716,-30.7338 78.1642,-56.332 109.2346,-93.0329 l -8.5001,41.4633 c 17.679,-7.3977 29.5108,-24.339 43.3282,-38.0398 l -1.0152,26.2988 c 41.5356,-17.9715 69.9349,-49.3371 104.6834,-74.2288 l -5.4459,45.8738 c -37.8988,21.0955 -78.4597,35.8216 -113.3641,64.0815 l -1.6444,-25.6614 c -13.3358,8.0961 -26.3965,16.7337 -38.2287,27.7896 l 0.8284,-32.5393 z"
       id="path4032"
       inkscape:connector-curvature="0"
       sodipodi:nodetypes="cccccccccccc" />
  </g>
  <g
     inkscape:groupmode="layer"
     id="layer1"
     inkscape:label="txt">
    <text
       xml:space="preserve"
       style="font-style:normal;font-variant:normal;font-weight:normal;font-stretch:normal;font-size:12px;line-height:125%;font-family:Lavi;-inkscape-font-specification:Lavi;text-align:center;letter-spacing:0px;word-spacing:0px;text-anchor:middle;fill:#000000;fill-opacity:1;stroke:none"
       x="1217.8973"
       y="252.7131"
       id="text4246"
       sodipodi:linespacing="125%"><tspan
         sodipodi:role="line"
         style="font-size:45px"
         x="1217.8973"
         y="252.7131"
         id="tspan4252">Ähm...</tspan></text>
    <text
       xml:space="preserve"
       style="font-style:normal;font-variant:normal;font-weight:normal;font-stretch:normal;font-size:12px;line-height:125%;font-family:Lavi;-inkscape-font-specification:Lavi;text-align:center;letter-spacing:0px;word-spacing:0px;text-anchor:middle;fill:#000000;fill-opacity:1;stroke:none"
       x="1217.7985"
       y="312.00034"
       id="text4246-3"
       sodipodi:linespacing="125%"><tspan
         sodipodi:role="line"
         style="font-size:45px"
         x="1217.7985"
         y="312.00034"
         id="tspan4164">Ja, natürlich,</tspan><tspan
         sodipodi:role="line"
         style="font-size:45px"
         x="1217.7985"
         y="368.25034"
         id="tspan3831">Ich bin kein Experte...</tspan></text>
    <text
       xml:space="preserve"
       style="font-style:normal;font-variant:normal;font-weight:normal;font-stretch:normal;font-size:12px;line-height:125%;font-family:Lavi;-inkscape-font-specification:Lavi;text-align:center;letter-spacing:0px;word-spacing:0px;text-anchor:middle;fill:#000000;fill-opacity:1;stroke:none"
       x="1447.9285"
       y="439.09341"
       id="text4246-3-7"
       sodipodi:linespacing="125%"><tspan
         sodipodi:role="line"
         style="font-size:45px"
         x="1447.9285"
         y="439.09341"
         id="tspan3840">Das Gemüsebeet</tspan><tspan
         sodipodi:role="line"
         style="font-size:45px"
         x="1447.9285"
         y="495.34341"
         id="tspan3460">verhält sich dieses</tspan><tspan
         sodipodi:role="line"
         style="font-size:45px"
         x="1447.9285"
         y="551.59338"
         id="tspan3462">Jahr sehr komisch</tspan></text>
    <text
       xml:space="preserve"
       style="font-style:normal;font-variant:normal;font-weight:normal;font-stretch:normal;font-size:12px;line-height:125%;font-family:Lavi;-inkscape-font-specification:Lavi;text-align:center;letter-spacing:0px;word-spacing:0px;text-anchor:middle;fill:#000000;fill-opacity:1;stroke:none"
       x="1632.2766"
       y="636.12958"
       id="text4246-3-7-6"
       sodipodi:linespacing="125%"><tspan
         sodipodi:role="line"
         style="font-size:45px"
         x="1632.2766"
         y="636.12958"
         id="tspan4232">und dasselbe gilt für</tspan><tspan
         sodipodi:role="line"
         style="font-size:45px"
         x="1632.2766"
         y="692.37958"
         id="tspan3847">sehr viele andere Pflanzen</tspan><tspan
         sodipodi:role="line"
         style="font-size:45px"
         x="1632.2766"
         y="748.62958"
         id="tspan3849">um das Haus herum auch.</tspan></text>
    <text
       sodipodi:linespacing="125%"
       id="text4178-6-5-9-0-7-0-4"
       style="font-style:normal;font-variant:normal;font-weight:normal;font-stretch:normal;font-size:9.76241112px;line-height:125%;font-family:Lavi;-inkscape-font-specification:Lavi;text-align:center;letter-spacing:0px;word-spacing:0px;text-anchor:middle;opacity:0.63300003;fill:#ffffff;fill-opacity:1;stroke:none;filter:url(#filter5236-4-16)"
       xml:space="preserve"
       y="3129.8394"
       x="1318.7137"
       transform="matrix(0.6851492,-0.06612027,-0.09994133,0.78144216,149.5816,-965.35698)"><tspan
         y="3129.8394"
         x="1318.7137"
         style="font-style:normal;font-variant:normal;font-weight:normal;font-stretch:normal;font-size:40.67671585px;font-family:Fondamento;-inkscape-font-specification:Fondamento;fill:#ffffff;fill-opacity:1"
         sodipodi:role="line"
         id="tspan4293-1-6-3-5-0-2">Tomaten</tspan></text>
    <text
       sodipodi:linespacing="125%"
       id="text4178-6-5-9-0-7-0-4-7"
       style="font-style:normal;font-variant:normal;font-weight:normal;font-stretch:normal;font-size:9.76241112px;line-height:125%;font-family:Lavi;-inkscape-font-specification:Lavi;text-align:center;letter-spacing:0px;word-spacing:0px;text-anchor:middle;opacity:0.63300003;fill:#ffffff;fill-opacity:1;stroke:none;filter:url(#filter5236-4-16-3)"
       xml:space="preserve"
       y="3129.8394"
       x="1318.7137"
       transform="matrix(0.58543203,0.08325699,-0.38986142,0.70644422,2171.8616,-965.83592)"><tspan
         y="3129.8394"
         x="1318.7137"
         style="font-style:normal;font-variant:normal;font-weight:normal;font-stretch:normal;font-size:40.67671585px;font-family:Fondamento;-inkscape-font-specification:Fondamento;fill:#ffffff;fill-opacity:1"
         sodipodi:role="line"
         id="tspan4293-1-6-3-5-0-2-5">Auberginen</tspan></text>
    <text
       xml:space="preserve"
       style="font-style:normal;font-variant:normal;font-weight:normal;font-stretch:normal;font-size:12px;line-height:125%;font-family:Lavi;-inkscape-font-specification:Lavi;text-align:center;letter-spacing:0px;word-spacing:0px;text-anchor:middle;fill:#000000;fill-opacity:1;stroke:none"
       x="1623.3389"
       y="1831.339"
       id="text4246-3-2"
       sodipodi:linespacing="125%"><tspan
         sodipodi:role="line"
         style="font-size:45px"
         x="1623.3389"
         y="1831.339"
         id="tspan4259">Manche Ameisen</tspan><tspan
         sodipodi:role="line"
         style="font-size:45px"
         x="1623.3389"
         y="1887.589"
         id="tspan3858">machen schon</tspan><tspan
         sodipodi:role="line"
         style="font-size:45px"
         x="1623.3389"
         y="1943.839"
         id="tspan3466">echt komische Sachen</tspan></text>
    <text
       xml:space="preserve"
       style="font-style:normal;font-variant:normal;font-weight:normal;font-stretch:normal;font-size:12px;line-height:125%;font-family:Lavi;-inkscape-font-specification:Lavi;text-align:center;letter-spacing:0px;word-spacing:0px;text-anchor:middle;fill:#000000;fill-opacity:1;stroke:none"
       x="1931.3137"
       y="2000.3405"
       id="text4246-3-2-9"
       sodipodi:linespacing="125%"><tspan
         sodipodi:role="line"
         style="font-size:45px"
         x="1931.3137"
         y="2000.3405"
         id="tspan4259-0">Auf jeden Fall...</tspan></text>
    <text
       xml:space="preserve"
       style="font-style:normal;font-variant:normal;font-weight:normal;font-stretch:normal;font-size:12px;line-height:125%;font-family:Lavi;-inkscape-font-specification:Lavi;text-align:center;letter-spacing:0px;word-spacing:0px;text-anchor:middle;fill:#000000;fill-opacity:1;stroke:none"
       x="2050.0112"
       y="2105.5688"
       id="text4246-3-2-9-6"
       sodipodi:linespacing="125%"><tspan
         sodipodi:role="line"
         style="font-size:45px"
         x="2050.0112"
         y="2105.5688"
         id="tspan3880">Ich dachte halt, dass</tspan><tspan
         sodipodi:role="line"
         style="font-size:45px"
         x="2050.0112"
         y="2161.8188"
         id="tspan3884">wir vielleicht ein Problem</tspan><tspan
         sodipodi:role="line"
         style="font-size:45px"
         x="2050.0112"
         y="2218.0688"
         id="tspan3888">mit der Umweltver-</tspan><tspan
         sodipodi:role="line"
         style="font-size:45px"
         x="2050.0112"
         y="2274.3188"
         id="tspan3518">schmutzung haben</tspan><tspan
         sodipodi:role="line"
         style="font-size:45px"
         x="2050.0112"
         y="2330.5688"
         id="tspan3484">und darüber nachdenken</tspan><tspan
         sodipodi:role="line"
         style="font-size:45px"
         x="2050.0112"
         y="2386.8188"
         id="tspan3510">sollten etwas aufzu-</tspan><tspan
         sodipodi:role="line"
         style="font-size:45px"
         x="2050.0112"
         y="2443.0688"
         id="tspan3514">räumen.</tspan></text>
    <text
       xml:space="preserve"
       style="font-style:normal;font-variant:normal;font-weight:normal;font-stretch:normal;font-size:12px;line-height:125%;font-family:Lavi;-inkscape-font-specification:Lavi;text-align:center;letter-spacing:0px;word-spacing:0px;text-anchor:middle;fill:#000000;fill-opacity:1;stroke:none;stroke-width:2.79999995;stroke-miterlimit:4;stroke-dasharray:none"
       x="457.55984"
       y="2712.1267"
       id="text4246-3-2-9-6-6"
       sodipodi:linespacing="125%"><tspan
         sodipodi:role="line"
         style="font-size:45px;stroke-width:2.79999995;stroke-miterlimit:4;stroke-dasharray:none"
         x="457.55984"
         y="2712.1267"
         id="tspan3520">Hör zu, Frau</tspan><tspan
         sodipodi:role="line"
         style="font-size:45px;stroke-width:2.79999995;stroke-miterlimit:4;stroke-dasharray:none"
         x="457.55984"
         y="2768.3767"
         id="tspan3900">&quot;<tspan
   style="stroke:#000000;stroke-width:2.79999995;stroke-miterlimit:4;stroke-dasharray:none;stroke-opacity:1"
   id="tspan4217">Ich-Ruiniere-All-Meine-Tränke</tspan>&quot;,</tspan><tspan
         sodipodi:role="line"
         style="font-size:45px;stroke-width:2.79999995;stroke-miterlimit:4;stroke-dasharray:none"
         x="457.55984"
         y="2824.6267"
         id="tspan4378" /></text>
    <text
       xml:space="preserve"
       style="font-style:normal;font-variant:normal;font-weight:normal;font-stretch:normal;font-size:12px;line-height:125%;font-family:Lavi;-inkscape-font-specification:Lavi;text-align:center;letter-spacing:0px;word-spacing:0px;text-anchor:middle;fill:#000000;fill-opacity:1;stroke:none"
       x="547.53906"
       y="2811.6135"
       id="text4246-3-2-9-6-6-7"
       sodipodi:linespacing="125%"><tspan
         sodipodi:role="line"
         style="font-size:45px"
         x="555.44922"
         y="2811.6135"
         id="tspan4574">dein Hippiah-Kostüm </tspan><tspan
         sodipodi:role="line"
         style="font-size:45px"
         x="547.53906"
         y="2867.8635"
         id="tspan3605">geht ohne Zweifel</tspan><tspan
         sodipodi:role="line"
         style="font-size:45px"
         x="547.53906"
         y="2924.1135"
         id="tspan3530">in deinen Kopf.</tspan><tspan
         sodipodi:role="line"
         style="font-size:45px"
         x="547.53906"
         y="2980.3635"
         id="tspan4378-5" /></text>
    <text
       xml:space="preserve"
       style="font-style:normal;font-variant:normal;font-weight:normal;font-stretch:normal;font-size:12px;line-height:125%;font-family:Lavi;-inkscape-font-specification:Lavi;text-align:center;letter-spacing:0px;word-spacing:0px;text-anchor:middle;fill:#000000;fill-opacity:1;stroke:none"
       x="1882.85"
       y="2725.4656"
       id="text4246-3-2-9-6-6-0"
       sodipodi:linespacing="125%"><tspan
         sodipodi:role="line"
         style="font-size:45px"
         x="1882.85"
         y="2725.4656"
         id="tspan4414">In Chaosah</tspan><tspan
         sodipodi:role="line"
         style="font-size:45px"
         x="1882.85"
         y="2781.7156"
         id="tspan4587">vergraben wir</tspan><tspan
         sodipodi:role="line"
         style="font-size:45px"
         x="1882.85"
         y="2837.9656"
         id="tspan3913">unsere Fehler!</tspan><tspan
         sodipodi:role="line"
         style="font-size:45px"
         x="1882.85"
         y="2894.2156"
         id="tspan4378-7" /></text>
    <text
       xml:space="preserve"
       style="font-style:normal;font-variant:normal;font-weight:normal;font-stretch:normal;font-size:12px;line-height:125%;font-family:Lavi;-inkscape-font-specification:Lavi;text-align:center;letter-spacing:0px;word-spacing:0px;text-anchor:middle;fill:#000000;fill-opacity:1;stroke:none;stroke-width:2.79999995;stroke-miterlimit:4;stroke-dasharray:none"
       x="2006.0837"
       y="2908.1658"
       id="text4246-3-2-9-6-6-0-5"
       sodipodi:linespacing="125%"><tspan
         sodipodi:role="line"
         style="font-size:45px;stroke-width:2.79999995;stroke-miterlimit:4;stroke-dasharray:none"
         x="2006.0837"
         y="2908.1658"
         id="tspan4414-3">Es ist unsere Tradition</tspan><tspan
         sodipodi:role="line"
         style="font-size:45px;stroke-width:2.79999995;stroke-miterlimit:4;stroke-dasharray:none"
         x="2006.0837"
         y="2964.4158"
         id="tspan3929">seit Beginn der Zeit</tspan><tspan
         sodipodi:role="line"
         style="font-size:45px;stroke-width:2.79999995;stroke-miterlimit:4;stroke-dasharray:none"
         x="2006.0837"
         y="3020.6658"
         id="tspan3931">und es kümmert mich</tspan><tspan
         sodipodi:role="line"
         style="font-size:45px;stroke-width:2.79999995;stroke-miterlimit:4;stroke-dasharray:none"
         x="2006.0837"
         y="3076.9158"
         id="tspan3532">'nen Dreck, was</tspan><tspan
         sodipodi:role="line"
         style="font-size:45px;stroke:#000000;stroke-width:2.79999995;stroke-miterlimit:4;stroke-dasharray:none;stroke-opacity:1"
         x="2006.0837"
         y="3133.1658"
         id="tspan3933">MUTTER NATUR</tspan><tspan
         sodipodi:role="line"
         style="font-size:45px;stroke-width:2.79999995;stroke-miterlimit:4;stroke-dasharray:none"
         x="2006.0837"
         y="3189.4158"
         id="tspan3935">darüber denkt!</tspan><tspan
         sodipodi:role="line"
         style="font-size:45px;stroke-width:2.79999995;stroke-miterlimit:4;stroke-dasharray:none"
         x="2006.0837"
         y="3245.6658"
         id="tspan4378-7-6" /></text>
    <text
       xml:space="preserve"
       style="font-style:normal;font-variant:normal;font-weight:normal;font-stretch:normal;font-size:12px;line-height:125%;font-family:Lavi;-inkscape-font-specification:Lavi;text-align:center;letter-spacing:0px;word-spacing:0px;text-anchor:middle;fill:#000000;fill-opacity:1;stroke:none;stroke-width:2.79999995;stroke-miterlimit:4;stroke-dasharray:none"
       x="2086.7371"
       y="3242.3086"
       id="text4246-3-2-9-6-6-0-5-1"
       sodipodi:linespacing="125%"><tspan
         sodipodi:role="line"
         style="font-size:45px;stroke-width:2.79999995;stroke-miterlimit:4;stroke-dasharray:none"
         x="2086.7371"
         y="3242.3086"
         id="tspan4544">Also sei ruhig</tspan><tspan
         sodipodi:role="line"
         style="font-size:45px;stroke-width:2.79999995;stroke-miterlimit:4;stroke-dasharray:none"
         x="2094.6472"
         y="3298.5586"
         id="tspan3939">und <tspan
   style="stroke:#000000;stroke-width:2.79999995;stroke-miterlimit:4;stroke-dasharray:none;stroke-opacity:1"
   id="tspan4219">GRAB'</tspan>!! </tspan><tspan
         sodipodi:role="line"
         style="font-size:45px;stroke-width:2.79999995;stroke-miterlimit:4;stroke-dasharray:none"
         x="2086.7371"
         y="3354.8086"
         id="tspan4378-7-6-4" /></text>
  </g>
</svg>
