<?xml version="1.0" encoding="UTF-8" standalone="no"?>
<!-- Created with Inkscape (http://www.inkscape.org/) -->

<svg
   xmlns:dc="http://purl.org/dc/elements/1.1/"
   xmlns:cc="http://creativecommons.org/ns#"
   xmlns:rdf="http://www.w3.org/1999/02/22-rdf-syntax-ns#"
   xmlns:svg="http://www.w3.org/2000/svg"
   xmlns="http://www.w3.org/2000/svg"
   xmlns:xlink="http://www.w3.org/1999/xlink"
   xmlns:sodipodi="http://sodipodi.sourceforge.net/DTD/sodipodi-0.dtd"
   xmlns:inkscape="http://www.inkscape.org/namespaces/inkscape"
   id="svg2"
   version="1.1"
   inkscape:version="0.91 r13725"
   width="2481"
   height="3503"
   sodipodi:docname="Pepper-and-Carrot_by-David-Revoy_E19P02.svg">
  <metadata
     id="metadata8">
    <rdf:RDF>
      <cc:Work
         rdf:about="">
        <dc:format>image/svg+xml</dc:format>
        <dc:type
           rdf:resource="http://purl.org/dc/dcmitype/StillImage" />
        <dc:title />
      </cc:Work>
    </rdf:RDF>
  </metadata>
  <defs
     id="defs6">
    <filter
       inkscape:collect="always"
       style="color-interpolation-filters:sRGB"
       id="filter5236-4-16-3"
       x="-0.0089085409"
       width="1.0178171"
       y="-0.027928527"
       height="1.0558571">
      <feGaussianBlur
         inkscape:collect="always"
         stdDeviation="0.49168068"
         id="feGaussianBlur5238-0-4-6" />
    </filter>
    <filter
       inkscape:collect="always"
       style="color-interpolation-filters:sRGB"
       id="filter5236-4-16"
       x="-0.0089085409"
       width="1.0178171"
       y="-0.027928527"
       height="1.0558571">
      <feGaussianBlur
         inkscape:collect="always"
         stdDeviation="0.49168068"
         id="feGaussianBlur5238-0-4" />
    </filter>
  </defs>
  <sodipodi:namedview
     pagecolor="#ffffff"
     bordercolor="#666666"
     borderopacity="1"
     objecttolerance="10"
     gridtolerance="10"
     guidetolerance="10"
     inkscape:pageopacity="0"
     inkscape:pageshadow="2"
     inkscape:window-width="1151"
     inkscape:window-height="937"
     id="namedview4"
     showgrid="false"
     inkscape:zoom="0.29870142"
     inkscape:cx="1527.0073"
     inkscape:cy="798.12784"
     inkscape:window-x="54"
     inkscape:window-y="-8"
     inkscape:window-maximized="1"
     inkscape:current-layer="layer1" />
  <g
     inkscape:groupmode="layer"
     id="layer2"
     inkscape:label="artwork"
     sodipodi:insensitive="true">
    <image
       sodipodi:absref="F:\pc\peppercarrot_ep19_translation\jb\..\gfx_Pepper-and-Carrot_by-David-Revoy_E19P02.png"
       xlink:href="../gfx_Pepper-and-Carrot_by-David-Revoy_E19P02.png"
       y="0"
       x="0"
       id="image10"
       height="3503"
       width="2481" />
  </g>
  <g
     inkscape:groupmode="layer"
     id="layer4"
     inkscape:label="translatornotes"
     sodipodi:insensitive="true">
    <path
       inkscape:connector-curvature="0"
       id="path3446"
       d="m 2763.8482,1498.4924 0,-189.0352 -203.8301,0 0,90.9805 -10,0 0,-15.6308 -30.9824,26.9824 30.9824,26.9804 0,-16.6171 10,0 0,76.3398 203.8301,0 z"
       style="color:#000000;clip-rule:nonzero;display:inline;overflow:visible;visibility:visible;opacity:0.481;isolation:auto;mix-blend-mode:normal;color-interpolation:sRGB;color-interpolation-filters:linearRGB;solid-color:#000000;solid-opacity:1;fill:#ffe680;fill-opacity:1;fill-rule:nonzero;stroke:#565656;stroke-width:1.20000005;stroke-linecap:butt;stroke-linejoin:miter;stroke-miterlimit:4;stroke-dasharray:none;stroke-dashoffset:0;stroke-opacity:1;marker:none;color-rendering:auto;image-rendering:auto;shape-rendering:auto;text-rendering:auto;enable-background:accumulate" />
    <flowRoot
       transform="translate(2793.4167,295.2096)"
       style="font-style:normal;font-variant:normal;font-weight:normal;font-stretch:normal;font-size:25.3241539px;line-height:125%;font-family:Lavi;-inkscape-font-specification:'Lavi, Normal';text-align:center;letter-spacing:0px;word-spacing:0px;writing-mode:lr-tb;text-anchor:middle;display:inline;opacity:0.481;fill:#000000;fill-opacity:1;stroke:none;stroke-width:1px;stroke-linecap:butt;stroke-linejoin:miter;stroke-opacity:1"
       id="flowRoot3448"
       xml:space="preserve"><flowRegion
         id="flowRegion3450"><rect
           y="1061.6674"
           x="-275.14545"
           height="247.52747"
           width="291.95547"
           id="rect3452" /></flowRegion><flowPara
         id="flowPara3473">labels</flowPara><flowPara
         id="flowPara4255">in the </flowPara><flowPara
         id="flowPara4257">garden :-)</flowPara></flowRoot>  </g>
  <g
     inkscape:groupmode="layer"
     id="layer3"
     inkscape:label="speechbubbles"
     style="display:inline">
    <path
       style="color:#000000;display:inline;overflow:visible;visibility:visible;fill:#ffffff;fill-opacity:1;fill-rule:nonzero;stroke:none;stroke-width:1px;marker:none;enable-background:accumulate"
       d="m 1044.2756,204.52874 c 23.4914,-33.27491 247.7294,-52.28964 318.5883,1.14813 59.1448,44.60374 66.4311,141.48874 22.4921,167.96102 -43.9391,26.47238 -217.5976,27.59731 -288.1506,16.62641 -67.1763,-10.44584 -75.0279,-37.67302 -87.1691,-105.67133 -4.9554,-27.75276 10.7476,-46.78923 34.2393,-80.06423 z"
       id="path4040-4"
       inkscape:connector-curvature="0"
       sodipodi:nodetypes="zssssz" />
    <path
       style="color:#000000;display:inline;overflow:visible;visibility:visible;fill:#ffffff;fill-opacity:1;fill-rule:nonzero;stroke:none;stroke-width:1px;marker:none;enable-background:accumulate"
       d="m 1218.6195,471.60657 c 6.8921,-79.99361 75.774,-136.92767 252.0955,-117.45099 94.4472,10.43269 201.7583,18.40618 192.7593,135.61853 -8.999,117.21223 -163.318,110.3469 -195.2332,112.29768 -31.9153,1.9509 -197.6878,-14.49623 -226.0366,-55.15064 -17.7459,-25.44858 -24.5267,-50.5104 -23.585,-75.31458 z"
       id="path4546-6"
       inkscape:connector-curvature="0"
       sodipodi:nodetypes="cssssc" />
    <path
       style="color:#000000;display:inline;overflow:visible;visibility:visible;fill:#ffffff;fill-opacity:1;fill-rule:nonzero;stroke:none;stroke-width:1px;marker:none;enable-background:accumulate"
       d="m 1376.2281,597.42803 c 50.1003,-56.53134 312.6047,-44.42084 405.5611,-31.70856 138.0035,18.87273 132.1079,71.16786 136.325,86.13526 4.2167,14.96728 -6.3255,84.36126 -52.7128,97.96804 -46.3871,13.60664 -179.2229,20.40995 -225.61,20.40995 -46.3871,0 -194.4651,-8.66058 -231.9361,-28.57405 -35.8446,-19.04932 -81.7279,-87.69942 -31.6272,-144.23064 z"
       id="path3330"
       inkscape:connector-curvature="0"
       sodipodi:nodetypes="zsssssz" />
    <path
       style="color:#000000;display:inline;overflow:visible;visibility:visible;fill:#ffffff;fill-opacity:1;fill-rule:nonzero;stroke:none;stroke-width:1px;marker:none;enable-background:accumulate"
       d="m 1537.5273,696.39507 c -4.748,19.68499 -0.6503,33.38997 2.5742,37.35036 3.2245,3.96027 2.3513,12.12365 5.2378,17.57337 2.3614,4.51862 3.5729,10.81257 -0.8434,12.64306 -4.4163,1.83058 -29.4289,3.69855 -33.6755,16.66121 -4.2467,12.96272 3.9771,24.00648 14.1454,30.32451 10.1684,6.31815 24.4145,10.44127 22.2717,20.40102 -2.1427,9.95976 -9.8422,13.23017 -15.8741,13.66024 -6.0318,0.43007 -42.6593,-1.86158 -51.9545,1.56498 -9.295,3.4266 -34.8875,18.35716 -31.0179,31.36521 11.9004,-13.15184 18.3151,-19.01847 27.1348,-20.36055 8.8198,-1.34212 24.7212,-5.09072 34.6744,-1.78852 9.9534,3.30225 30.2251,7.01956 38.1327,2.88942 7.9077,-4.13 22.6869,-13.91278 22.9796,-24.81049 0.2928,-10.89767 -5.2053,-22.98724 -21.3925,-31.19418 -10.1682,-6.31811 -14.5522,-10.2849 -13.6078,-13.29434 0.9444,-3.00939 11.8681,-7.35452 23.4562,-6.13032 11.5882,1.22424 17.0469,-9.49086 18.0108,-15.97871 0.9638,-6.48781 -2.7884,-15.67273 -3.2186,-21.7046 -0.4301,-6.03183 -6.7045,-40.19004 -6.7045,-40.19004 z"
       id="path5058"
       inkscape:connector-curvature="0"
       sodipodi:nodetypes="cscsssssscssssccscccc" />
    <path
       style="color:#000000;display:inline;overflow:visible;visibility:visible;fill:#ffffff;fill-opacity:1;fill-rule:nonzero;stroke:none;stroke-width:1px;marker:none;enable-background:accumulate"
       d="m 1386.1852,1846.3516 c 6.7758,-69.8494 43.9384,-95.0896 125.6328,-98.7527 40.5611,-1.8188 187.4674,-8.1256 247.0166,4.5118 59.5491,12.6375 110.5229,51.3422 106.0057,102.5251 -4.5171,51.1828 -9.8602,90.8284 -74.8941,105.3166 -65.0339,14.4881 -189.7585,3.8187 -202.7456,4.4209 -25.9738,1.2043 -160.4966,-15.7854 -182.9466,-51.7851 -14.0531,-22.5348 -19.1981,-44.559 -18.0688,-66.2366 z"
       id="path4546-6-3"
       inkscape:connector-curvature="0"
       sodipodi:nodetypes="cssssssc" />
    <path
       style="color:#000000;display:inline;overflow:visible;visibility:visible;fill:#ffffff;fill-opacity:1;fill-rule:nonzero;stroke:none;stroke-width:1px;marker:none;enable-background:accumulate"
       d="m 1760.2318,1983.0096 c -2.1894,-13.9006 21.8159,-72.4119 155.3725,-63.1448 133.5566,9.2671 147.5063,20.9339 153.6003,70.8244 2.2523,18.4386 -18.5316,45.3021 -38.2367,49.9356 -19.7051,4.6335 -77.3192,17.7137 -110.1609,14.007 -32.8418,-3.7069 -81.3209,-2.8275 -129.6411,-22.2636 -29.1638,-11.7307 -28.7446,-45.6518 -30.9341,-49.3586 z"
       id="path3365"
       inkscape:connector-curvature="0"
       sodipodi:nodetypes="csssssc" />
    <path
       style="fill:#ffffff;fill-opacity:1;stroke:none"
       d="m 1760.0982,2181.1508 c -11.0377,-128.9785 67.5603,-173.7193 276.8911,-173.5363 209.3308,0.1828 294.032,36.9011 302.8277,113.6938 19.6679,171.7155 -108.8166,214.5432 -177.6749,225.2019 -137.5419,21.2904 -336.3135,-18.7705 -364.3985,-54.7336 -28.085,-35.9632 -35.2223,-76.903 -37.6454,-110.6258 z"
       id="path3238"
       inkscape:connector-curvature="0"
       sodipodi:nodetypes="cssssc" />
    <path
       style="color:#000000;display:inline;overflow:visible;visibility:visible;fill:#ffffff;fill-opacity:1;fill-rule:nonzero;stroke:none;stroke-width:1px;marker:none;enable-background:accumulate"
       d="m 1882.8016,2295.7967 c -30.6436,39.5697 -91.823,73.3362 -171.3605,30.1552 76.0815,26.4581 119.8575,-5.9599 145.0149,-45.5895 21.7184,-34.2122 33.4899,-49.0683 33.4899,-49.0683 z"
       id="path4440"
       inkscape:connector-curvature="0"
       sodipodi:nodetypes="ccscc" />
    <path
       style="color:#000000;display:inline;overflow:visible;visibility:visible;fill:#ffffff;fill-opacity:1;fill-rule:nonzero;stroke:none;stroke-width:1px;marker:none;enable-background:accumulate"
       d="m 99.104281,2756.9074 c 26.232639,-10.9597 38.666349,-18.5558 0.458237,-34.3247 7.844982,-0.1198 51.624252,-2.1442 9.767152,-32.9366 13.8,3.9749 35.86784,14.5291 11.02706,-36.5871 14.93612,8.1494 35.65375,34.2072 17.48056,-14.0742 19.68024,16.3179 45.60842,6.0013 40.30072,-2.5708 15.83874,10.4052 46.94431,9.5448 44.27984,0.7154 11.64511,9.6323 43.19202,12.4562 40.71636,-3.6881 9.67608,11.0973 39.70587,9.9541 36.76192,0.5253 25.36934,11.2241 62.04581,18.1422 75.90708,2.4934 11.83584,14.8098 66.89103,10.3376 113.06616,0.2295 0.7233,10.4538 52.11644,12.2889 94.00148,-4.7288 0.63394,15.8808 15.74858,21.2619 34.21827,9.5749 6.5956,6.5186 4.83525,10.3103 30.75452,-5.1216 -1.23739,10.6121 3.37613,20.4024 21.43492,10.2432 3.14588,6.5649 -8.36616,23.5801 37.27833,-1.2805 0.30174,9.2802 -10.41257,27.5037 28.8906,5.1216 -31.88352,55.1372 -14.21246,49.2359 7.4556,38.4113 -16.87112,32.5259 -38.63091,72.8685 4.24505,71.3855 -33.57227,7.514 -32.98537,18.687 -28.47585,36.1663 -42.07694,-35.1981 -47.02081,-8.4487 -65.23697,-3.8411 -19.23063,-5.8556 -36.94693,-27.3135 -59.64504,2.5608 -34.77236,-12.2937 -41.66636,-1.0176 -53.12155,6.402 -60.74999,-23.5924 -59.31498,-4.468 -86.67197,-5.1217 -16.17448,-29.1834 -52.67449,-7.1717 -79.2163,-10.2429 -33.55031,-23.9307 -83.47464,-2.9536 -109.59281,6.2711 12.76533,-14.9487 -18.6704,-28.2936 -48.56601,4.1237 14.84555,-27.3926 -9.51158,-36.628 -54.98539,-1.3493 21.36932,-32.458 -8.18465,-27.285 -41.27952,-6.4848 32.39001,-31.5409 -1.83686,-34.2446 -21.252449,-31.8718 z"
       id="path3557"
       inkscape:connector-curvature="0"
       sodipodi:nodetypes="cccccccccccccccccccccccccccccc" />
    <path
       style="color:#000000;display:inline;overflow:visible;visibility:visible;fill:#ffffff;fill-opacity:1;fill-rule:nonzero;stroke:none;stroke-width:1px;marker:none;enable-background:accumulate"
       d="m 271.05954,2839.5634 c 8.43841,-73.3533 93.40373,-126.6439 311.0341,-111.7966 116.57455,7.953 249.02327,13.4367 238.01599,120.9006 -11.00741,107.4636 -201.47202,103.79 -240.8598,106.116 -39.38777,2.3262 -243.99617,-9.926 -279.01838,-46.6664 -21.9231,-22.9987 -30.3132,-45.8287 -29.17191,-68.5536 z"
       id="path4546"
       inkscape:connector-curvature="0"
       sodipodi:nodetypes="cssssc" />
    <path
       style="color:#000000;display:inline;overflow:visible;visibility:visible;fill:#ffffff;fill-opacity:1;fill-rule:nonzero;stroke:none;stroke-width:1px;marker:none;enable-background:accumulate"
       d="m 990.3039,2942.0433 c -39.7219,-30.7338 -84.6659,-56.332 -118.3207,-93.0329 l 9.2071,41.4633 c -19.1495,-7.3977 -31.9655,-24.339 -46.9322,-38.0398 l 1.0996,26.2988 c -44.9905,-17.9715 -75.7521,-49.3371 -113.3909,-74.2288 l 5.8989,45.8738 c 41.0512,21.0955 84.9859,35.8216 122.7937,64.0815 l 1.7812,-25.6614 c 14.445,8.0961 28.5921,16.7337 41.4085,27.7896 l -0.8973,-32.5393 z"
       id="path4032-6"
       inkscape:connector-curvature="0"
       sodipodi:nodetypes="cccccccccccc" />
    <path
       style="fill:#ffffff;stroke:none"
       d="m 1699.0736,2771.0202 c 5.0501,-60.4636 35.5091,-85.0538 49.33,-93.079 13.8207,-8.0252 71.8414,-18.3199 109.742,-16.548 37.9006,1.7719 131.855,10.4999 147.6558,13.4066 15.8008,2.9066 57.954,48.234 57.5018,87.2344 -0.4521,39.0001 -8.9041,64.619 -31.9343,87.3886 -23.0304,22.7698 -160.4271,27.1856 -168.8922,24.6219 -8.4654,-2.5636 -121.5161,-23.0237 -128.5726,-29.8572 -7.0564,-6.8334 -35.6546,-25.5131 -34.8305,-73.1673 z"
       id="path3278"
       inkscape:connector-curvature="0" />
    <path
       style="color:#000000;fill:#ffffff;fill-opacity:1;fill-rule:nonzero;stroke:none;stroke-width:1px;marker:none;visibility:visible;display:inline;overflow:visible;enable-background:accumulate"
       d="m 1751.8024,2884.441 c 40.137,-46.9028 378.9373,-97.8131 498.0135,-1.1561 119.076,96.657 46.8496,212.6455 -21.4729,249.5509 -68.3223,36.9054 -269.3852,77.3256 -361.1324,45.6924 -91.7471,-31.6332 -163.2125,-78.9187 -167.8779,-175.74 -1.9041,-39.5167 12.3329,-71.4441 52.4697,-118.3472 z"
       id="path4040"
       inkscape:connector-curvature="0"
       sodipodi:nodetypes="zssssz" />
    <path
       style="display:inline;fill:#ffffff;fill-rule:evenodd;stroke:none;stroke-width:1px;stroke-linecap:butt;stroke-linejoin:miter;stroke-opacity:1"
       d="m 1889.5795,3122.771 c 48.1261,28.5286 75.5394,16.9272 74.7133,-49.3868 22.9607,71.6603 38.8942,87.6873 48.344,52.3799 30.3984,30.3481 49.3847,21.8353 64.4586,0 5.6184,28.0816 17.6672,16.7498 28.0947,15.3549 3.4344,6.3532 -8.3613,22.1376 39.2938,1.1073 3.0868,8.4093 7.2451,15.651 35.1591,-2.9931 7.2317,34.1321 30.4341,-1.8917 54.204,-40.4074 -14.8094,47.3518 -8.6685,54.0398 10.2547,35.9176 -8.6516,19.4998 -13.8261,34.5948 19.0445,1.4966 -11.2532,35.9927 18.2696,11.2875 65.9236,-40.4072 -23.8372,38.2124 -87.0482,102.6164 -45.4139,97.2767 -5.8062,11.2651 -26.5164,21.0802 35.1591,38.9107 -11.514,7.6442 -46.6658,-3.5263 -17.3429,28.8398 3.9288,3.7834 -9.2235,6.0937 15.878,16.0571 -14.8178,-0.6778 -23.9051,1.7436 -10.2549,16.4623 -27.0478,-0.7959 -16.9276,14.6808 2.93,34.4209 -39.169,-25.3209 -41.3245,-16.1182 -42.4842,-5.9862 -49.0902,-34.521 -51.9717,-23.6523 -58.5985,-16.4623 -23.9278,0.2694 -47.8557,-4.0779 -71.7836,34.421 -6.2663,-23.9452 -18.8296,-42.3768 -71.7833,-25.4415 23.2507,-30.4626 -9.8264,-11.0548 -35.1593,1.4965 13.8728,-38.0554 -21.3342,-13.0797 -65.9235,23.945 24.9698,-42.0237 -3.39,-26.8437 -45.4141,2.9932 15.8781,-41.2842 -9.9807,-61.2497 -71.7833,-62.8558 29.5806,-14.8917 46.8304,-33.6324 16.1147,-67.3454 34.6253,9.9269 44.9535,0.7062 20.5095,-35.9176 37.767,30.0605 20.5958,-13.5407 5.8599,-53.8762 z"
       id="path4508"
       inkscape:connector-curvature="0"
       sodipodi:nodetypes="cccccccccccccccccccccccccccc" />
    <path
       style="color:#000000;display:inline;overflow:visible;visibility:visible;fill:#ffffff;fill-opacity:1;fill-rule:nonzero;stroke:none;stroke-width:1px;marker:none;enable-background:accumulate"
       d="m 1490.4164,2866.2226 c 36.6716,-30.7338 78.1642,-56.332 109.2346,-93.0329 l -8.5001,41.4633 c 17.679,-7.3977 29.5108,-24.339 43.3282,-38.0398 l -1.0152,26.2988 c 41.5356,-17.9715 69.9349,-49.3371 104.6834,-74.2288 l -5.4459,45.8738 c -37.8988,21.0955 -78.4597,35.8216 -113.3641,64.0815 l -1.6444,-25.6614 c -13.3358,8.0961 -26.3965,16.7337 -38.2287,27.7896 l 0.8284,-32.5393 z"
       id="path4032"
       inkscape:connector-curvature="0"
       sodipodi:nodetypes="cccccccccccc" />
  </g>
  <g
     inkscape:groupmode="layer"
     id="layer1"
     inkscape:label="txt">
    <text
       xml:space="preserve"
       style="font-style:normal;font-variant:normal;font-weight:normal;font-stretch:normal;font-size:12px;line-height:125%;font-family:Lavi;-inkscape-font-specification:Lavi;text-align:center;letter-spacing:0px;word-spacing:0px;text-anchor:middle;fill:#000000;fill-opacity:1;stroke:none"
       x="1194.6492"
       y="257.16327"
       id="text4246"
       sodipodi:linespacing="125%"><tspan
         sodipodi:role="line"
         style="font-size:45px"
         x="1194.6492"
         y="257.16327"
         id="tspan4252">i y</tspan></text>
    <text
       xml:space="preserve"
       style="font-style:normal;font-variant:normal;font-weight:normal;font-stretch:normal;font-size:12px;line-height:125%;font-family:Lavi;-inkscape-font-specification:Lavi;text-align:center;letter-spacing:0px;word-spacing:0px;text-anchor:middle;fill:#000000;fill-opacity:1;stroke:none"
       x="1213.9131"
       y="325.91959"
       id="text4246-3"
       sodipodi:linespacing="125%"><tspan
         sodipodi:role="line"
         style="font-size:45px"
         x="1213.9131"
         y="325.91959"
         id="tspan3831">li'a mi na certu</tspan></text>
    <text
       xml:space="preserve"
       style="font-style:normal;font-variant:normal;font-weight:normal;font-stretch:normal;font-size:12px;line-height:125%;font-family:Lavi;-inkscape-font-specification:Lavi;text-align:center;letter-spacing:0px;word-spacing:0px;text-anchor:middle;fill:#000000;fill-opacity:1;stroke:none"
       x="1447.9285"
       y="439.09341"
       id="text4246-3-7"
       sodipodi:linespacing="125%"><tspan
         sodipodi:role="line"
         style="font-size:45px"
         x="1447.9285"
         y="439.09341"
         id="tspan3840">i ku'i lo spati pe</tspan><tspan
         sodipodi:role="line"
         style="font-size:45px"
         x="1447.9285"
         y="495.34341"
         id="tspan4227">le foldi ca lo ca citsi</tspan><tspan
         sodipodi:role="line"
         style="font-size:45px"
         x="1447.9285"
         y="551.59338"
         id="tspan4231">cu cizra</tspan></text>
    <text
       xml:space="preserve"
       style="font-style:normal;font-variant:normal;font-weight:normal;font-stretch:normal;font-size:12px;line-height:125%;font-family:Lavi;-inkscape-font-specification:Lavi;text-align:center;letter-spacing:0px;word-spacing:0px;text-anchor:middle;fill:#000000;fill-opacity:1;stroke:none"
       x="1637.3901"
       y="619.19336"
       id="text4246-3-7-6"
       sodipodi:linespacing="125%"><tspan
         sodipodi:role="line"
         style="font-size:45px"
         x="1637.3901"
         y="619.19336"
         id="tspan3849">i so'i drata spati</tspan><tspan
         sodipodi:role="line"
         style="font-size:45px"
         x="1637.3901"
         y="675.44336"
         id="tspan4240">poi sruri</tspan><tspan
         sodipodi:role="line"
         style="font-size:45px"
         x="1637.3901"
         y="731.69336"
         id="tspan4242">le zdani cu simsa</tspan></text>
    <text
       sodipodi:linespacing="125%"
       id="text4178-6-5-9-0-7-0-4"
       style="font-style:normal;font-variant:normal;font-weight:normal;font-stretch:normal;font-size:9.76241112px;line-height:125%;font-family:Lavi;-inkscape-font-specification:Lavi;text-align:center;letter-spacing:0px;word-spacing:0px;text-anchor:middle;opacity:0.63300003;fill:#ffffff;fill-opacity:1;stroke:none;filter:url(#filter5236-4-16)"
       xml:space="preserve"
       y="3129.8394"
       x="1318.7137"
       transform="matrix(0.6851492,-0.06612027,-0.09994133,0.78144216,149.5816,-965.35698)"><tspan
         y="3129.8394"
         x="1318.7137"
         style="font-style:normal;font-variant:normal;font-weight:normal;font-stretch:normal;font-size:40.67671585px;font-family:Fondamento;-inkscape-font-specification:Fondamento;fill:#ffffff;fill-opacity:1"
         sodipodi:role="line"
         id="tspan4293-1-6-3-5-0-2">tamca</tspan></text>
    <text
       sodipodi:linespacing="125%"
       id="text4178-6-5-9-0-7-0-4-7"
       style="font-style:normal;font-variant:normal;font-weight:normal;font-stretch:normal;font-size:9.76241112px;line-height:125%;font-family:Lavi;-inkscape-font-specification:Lavi;text-align:center;letter-spacing:0px;word-spacing:0px;text-anchor:middle;opacity:0.63300003;fill:#ffffff;fill-opacity:1;stroke:none;filter:url(#filter5236-4-16-3)"
       xml:space="preserve"
       y="3129.8394"
       x="1318.7137"
       transform="matrix(0.58543203,0.08325699,-0.38986142,0.70644422,2171.8616,-965.83592)"><tspan
         y="3129.8394"
         x="1318.7137"
         style="font-style:normal;font-variant:normal;font-weight:normal;font-stretch:normal;font-size:40.67671585px;font-family:Fondamento;-inkscape-font-specification:Fondamento;fill:#ffffff;fill-opacity:1"
         sodipodi:role="line"
         id="tspan4293-1-6-3-5-0-2-5">brinjela</tspan></text>
    <text
       xml:space="preserve"
       style="font-style:normal;font-variant:normal;font-weight:normal;font-stretch:normal;font-size:12px;line-height:125%;font-family:Lavi;-inkscape-font-specification:Lavi;text-align:center;letter-spacing:0px;word-spacing:0px;text-anchor:middle;fill:#000000;fill-opacity:1;stroke:none"
       x="1627.533"
       y="1809.5331"
       id="text4246-3-2"
       sodipodi:linespacing="125%"><tspan
         sodipodi:role="line"
         style="font-size:45px"
         x="1635.4431"
         y="1809.5331"
         id="tspan3858">i lo manti cu </tspan><tspan
         sodipodi:role="line"
         style="font-size:45px"
         x="1627.533"
         y="1865.7831"
         id="tspan4249">simsa zukte</tspan><tspan
         sodipodi:role="line"
         style="font-size:45px"
         x="1627.533"
         y="1922.0331"
         id="tspan4251">lo cizra</tspan></text>
    <text
       xml:space="preserve"
       style="font-style:normal;font-variant:normal;font-weight:normal;font-stretch:normal;font-size:12px;line-height:125%;font-family:Lavi;-inkscape-font-specification:Lavi;text-align:center;letter-spacing:0px;word-spacing:0px;text-anchor:middle;fill:#000000;fill-opacity:1;stroke:none"
       x="1918.5547"
       y="1997.0601"
       id="text4246-3-2-9"
       sodipodi:linespacing="125%"><tspan
         sodipodi:role="line"
         style="font-size:45px"
         x="1918.5547"
         y="1997.0601"
         id="tspan4259-0">i ta'o nai mi</tspan></text>
    <text
       xml:space="preserve"
       style="font-style:normal;font-variant:normal;font-weight:normal;font-stretch:normal;font-size:12px;line-height:125%;font-family:Lavi;-inkscape-font-specification:Lavi;text-align:center;letter-spacing:0px;word-spacing:0px;text-anchor:middle;fill:#000000;fill-opacity:1;stroke:none"
       x="2053.186"
       y="2083.1831"
       id="text4246-3-2-9-6"
       sodipodi:linespacing="125%"><tspan
         sodipodi:role="line"
         style="font-size:45px"
         x="2053.186"
         y="2083.1831"
         id="tspan3888">pu pensi lo nu cumki fa</tspan><tspan
         sodipodi:role="line"
         style="font-size:45px"
         x="2053.186"
         y="2139.4331"
         id="tspan4267">lo nu lo du'e mabla xukmi</tspan><tspan
         sodipodi:role="line"
         style="font-size:45px"
         x="2053.186"
         y="2195.6831"
         id="tspan4269">cu jai nabmi i ju'o cu'i</tspan><tspan
         sodipodi:role="line"
         style="font-size:45px"
         x="2053.186"
         y="2251.9331"
         id="tspan4271">sarcu fa lo nu ma'a</tspan><tspan
         sodipodi:role="line"
         style="font-size:45px"
         x="2053.186"
         y="2308.1831"
         id="tspan4273">co'a daspo le xukmi</tspan></text>
    <text
       xml:space="preserve"
       style="font-style:normal;font-variant:normal;font-weight:normal;font-stretch:normal;font-size:12px;line-height:125%;font-family:Lavi;-inkscape-font-specification:Lavi;text-align:center;letter-spacing:0px;word-spacing:0px;text-anchor:middle;fill:#000000;fill-opacity:1;stroke:none;stroke-width:2.79999995;stroke-miterlimit:4;stroke-dasharray:none"
       x="419.67166"
       y="2684.5779"
       id="text4246-3-2-9-6-6"
       sodipodi:linespacing="125%"><tspan
         sodipodi:role="line"
         style="font-size:45px;stroke-width:2.79999995;stroke-miterlimit:4;stroke-dasharray:none"
         x="419.67166"
         y="2684.5779"
         id="tspan4378">i ju'i la'e lu</tspan><tspan
         sodipodi:role="line"
         style="font-size:45px;stroke-width:2.79999995;stroke-miterlimit:4;stroke-dasharray:none"
         x="419.67166"
         y="2740.8279"
         id="tspan4283">ro mixre pe mi cu mabla li'u</tspan></text>
    <text
       xml:space="preserve"
       style="font-style:normal;font-variant:normal;font-weight:normal;font-stretch:normal;font-size:12px;line-height:125%;font-family:Lavi;-inkscape-font-specification:Lavi;text-align:center;letter-spacing:0px;word-spacing:0px;text-anchor:middle;fill:#000000;fill-opacity:1;stroke:none"
       x="547.53906"
       y="2811.6135"
       id="text4246-3-2-9-6-6-7"
       sodipodi:linespacing="125%"><tspan
         sodipodi:role="line"
         style="font-size:45px"
         x="547.53906"
         y="2811.6135"
         id="tspan4574">na ku ri'a tu'a ti noi me</tspan><tspan
         sodipodi:role="line"
         style="font-size:45px"
         x="547.53906"
         y="2867.8635"
         id="tspan5403">lo pastu pe la rarna</tspan><tspan
         sodipodi:role="line"
         style="font-size:45px"
         x="547.53906"
         y="2924.1135"
         id="tspan4378-5">do co'a certu</tspan></text>
    <text
       xml:space="preserve"
       style="font-style:normal;font-variant:normal;font-weight:normal;font-stretch:normal;font-size:12px;line-height:125%;font-family:Lavi;-inkscape-font-specification:Lavi;text-align:center;letter-spacing:0px;word-spacing:0px;text-anchor:middle;fill:#000000;fill-opacity:1;stroke:none"
       x="1882.85"
       y="2725.4656"
       id="text4246-3-2-9-6-6-0"
       sodipodi:linespacing="125%"><tspan
         sodipodi:role="line"
         style="font-size:45px"
         x="1882.85"
         y="2725.4656"
         id="tspan3913">i lo te makfa</tspan><tspan
         sodipodi:role="line"
         style="font-size:45px"
         x="1882.85"
         y="2781.7156"
         id="tspan5427">pe la kalsa</tspan><tspan
         sodipodi:role="line"
         style="font-size:45px"
         x="1882.85"
         y="2837.9656"
         id="tspan5429">cu setca</tspan><tspan
         sodipodi:role="line"
         style="font-size:45px"
         x="1882.85"
         y="2894.2156"
         id="tspan5425" /><tspan
         sodipodi:role="line"
         style="font-size:45px"
         x="1882.85"
         y="2950.4656"
         id="tspan4378-7" /></text>
    <text
       xml:space="preserve"
       style="font-style:normal;font-variant:normal;font-weight:normal;font-stretch:normal;font-size:12px;line-height:125%;font-family:Lavi;-inkscape-font-specification:Lavi;text-align:center;letter-spacing:0px;word-spacing:0px;text-anchor:middle;fill:#000000;fill-opacity:1;stroke:none;stroke-width:2.79999995;stroke-miterlimit:4;stroke-dasharray:none"
       x="2002.6411"
       y="2913.0608"
       id="text4246-3-2-9-6-6-0-5"
       sodipodi:linespacing="125%"><tspan
         sodipodi:role="line"
         style="font-size:45px;stroke-width:2.79999995;stroke-miterlimit:4;stroke-dasharray:none"
         x="2002.6411"
         y="2913.0608"
         id="tspan4414-3">lo se fliba se cupra</tspan><tspan
         sodipodi:role="line"
         style="font-size:45px;stroke-width:2.79999995;stroke-miterlimit:4;stroke-dasharray:none"
         x="2002.6411"
         y="2969.3108"
         id="tspan5431">lo dertu co'a lo krasi be</tspan><tspan
         sodipodi:role="line"
         style="font-size:45px;stroke-width:2.79999995;stroke-miterlimit:4;stroke-dasharray:none"
         x="2002.6411"
         y="3025.5608"
         id="tspan5439">le munje i mi mi ba'e na</tspan><tspan
         sodipodi:role="line"
         style="font-size:45px;stroke-width:2.79999995;stroke-miterlimit:4;stroke-dasharray:none"
         x="2002.6411"
         y="3081.8108"
         id="tspan4378-7-6">se vajni lo srana se pensi</tspan><tspan
         sodipodi:role="line"
         style="font-size:45px;stroke-width:2.79999995;stroke-miterlimit:4;stroke-dasharray:none"
         x="2002.6411"
         y="3138.0608"
         id="tspan5457">be le planeta</tspan></text>
    <text
       xml:space="preserve"
       style="font-style:normal;font-variant:normal;font-weight:normal;font-stretch:normal;font-size:12px;line-height:125%;font-family:Lavi;-inkscape-font-specification:Lavi;text-align:center;letter-spacing:0px;word-spacing:0px;text-anchor:middle;fill:#000000;fill-opacity:1;stroke:none;stroke-width:2.79999995;stroke-miterlimit:4;stroke-dasharray:none"
       x="2083.4753"
       y="3219.5076"
       id="text4246-3-2-9-6-6-0-5-1"
       sodipodi:linespacing="125%"><tspan
         sodipodi:role="line"
         style="font-size:45px;stroke-width:2.79999995;stroke-miterlimit:4;stroke-dasharray:none"
         x="2083.4753"
         y="3219.5076"
         id="tspan4544">i e'i ko smaji gi'e</tspan><tspan
         sodipodi:role="line"
         style="font-size:45px;stroke-width:2.79999995;stroke-miterlimit:4;stroke-dasharray:none"
         x="2083.4753"
         y="3275.7576"
         id="tspan3939">ba'e <tspan
   style="stroke:#000000;stroke-width:2.79999995;stroke-miterlimit:4;stroke-dasharray:none;stroke-opacity:1"
   id="tspan4219">KAKPA</tspan></tspan><tspan
         sodipodi:role="line"
         style="font-size:45px;stroke-width:2.79999995;stroke-miterlimit:4;stroke-dasharray:none"
         x="2083.4753"
         y="3332.0076"
         id="tspan4378-7-6-4" /></text>
  </g>
</svg>
