<?xml version="1.0" encoding="UTF-8" standalone="no"?>
<!-- Created with Inkscape (http://www.inkscape.org/) -->

<svg
   xmlns:dc="http://purl.org/dc/elements/1.1/"
   xmlns:cc="http://creativecommons.org/ns#"
   xmlns:rdf="http://www.w3.org/1999/02/22-rdf-syntax-ns#"
   xmlns:svg="http://www.w3.org/2000/svg"
   xmlns="http://www.w3.org/2000/svg"
   xmlns:xlink="http://www.w3.org/1999/xlink"
   xmlns:sodipodi="http://sodipodi.sourceforge.net/DTD/sodipodi-0.dtd"
   xmlns:inkscape="http://www.inkscape.org/namespaces/inkscape"
   id="svg2"
   version="1.1"
   inkscape:version="0.91 r13725"
   width="2481"
   height="3503"
   sodipodi:docname="Pepper-and-Carrot_by-David-Revoy_E19P02.svg">
  <metadata
     id="metadata8">
    <rdf:RDF>
      <cc:Work
         rdf:about="">
        <dc:format>image/svg+xml</dc:format>
        <dc:type
           rdf:resource="http://purl.org/dc/dcmitype/StillImage" />
        <dc:title></dc:title>
      </cc:Work>
    </rdf:RDF>
  </metadata>
  <defs
     id="defs6">
    <filter
       inkscape:collect="always"
       style="color-interpolation-filters:sRGB"
       id="filter5236-4-16-3"
       x="-0.0089085409"
       width="1.0178171"
       y="-0.027928527"
       height="1.0558571">
      <feGaussianBlur
         inkscape:collect="always"
         stdDeviation="0.49168068"
         id="feGaussianBlur5238-0-4-6" />
    </filter>
    <filter
       inkscape:collect="always"
       style="color-interpolation-filters:sRGB"
       id="filter5236-4-16"
       x="-0.0089085409"
       width="1.0178171"
       y="-0.027928527"
       height="1.0558571">
      <feGaussianBlur
         inkscape:collect="always"
         stdDeviation="0.49168068"
         id="feGaussianBlur5238-0-4" />
    </filter>
  </defs>
  <sodipodi:namedview
     pagecolor="#ffffff"
     bordercolor="#666666"
     borderopacity="1"
     objecttolerance="10"
     gridtolerance="10"
     guidetolerance="10"
     inkscape:pageopacity="0"
     inkscape:pageshadow="2"
     inkscape:window-width="1855"
     inkscape:window-height="1056"
     id="namedview4"
     showgrid="false"
     inkscape:zoom="0.14935071"
     inkscape:cx="1986.4149"
     inkscape:cy="1140.5288"
     inkscape:window-x="65"
     inkscape:window-y="24"
     inkscape:window-maximized="1"
     inkscape:current-layer="layer1" />
  <g
     inkscape:groupmode="layer"
     id="layer2"
     inkscape:label="artwork"
     sodipodi:insensitive="true">
    <image
       sodipodi:absref="/home/thomas/Data/Copy/PepperCarrot/Git/peppercarrot_ep19_translation1/no/../gfx_Pepper-and-Carrot_by-David-Revoy_E19P02.png"
       xlink:href="../gfx_Pepper-and-Carrot_by-David-Revoy_E19P02.png"
       y="0"
       x="0"
       id="image10"
       height="3503"
       width="2481" />
  </g>
  <g
     inkscape:groupmode="layer"
     id="layer4"
     inkscape:label="translatornotes"
     sodipodi:insensitive="true">
    <path
       inkscape:connector-curvature="0"
       id="path3446"
       d="m 2763.8482,1498.4924 0,-189.0352 -203.8301,0 0,90.9805 -10,0 0,-15.6308 -30.9824,26.9824 30.9824,26.9804 0,-16.6171 10,0 0,76.3398 203.8301,0 z"
       style="color:#000000;clip-rule:nonzero;display:inline;overflow:visible;visibility:visible;opacity:0.481;isolation:auto;mix-blend-mode:normal;color-interpolation:sRGB;color-interpolation-filters:linearRGB;solid-color:#000000;solid-opacity:1;fill:#ffe680;fill-opacity:1;fill-rule:nonzero;stroke:#565656;stroke-width:1.20000005;stroke-linecap:butt;stroke-linejoin:miter;stroke-miterlimit:4;stroke-dasharray:none;stroke-dashoffset:0;stroke-opacity:1;marker:none;color-rendering:auto;image-rendering:auto;shape-rendering:auto;text-rendering:auto;enable-background:accumulate" />
    <flowRoot
       transform="translate(2793.4167,295.2096)"
       style="font-style:normal;font-variant:normal;font-weight:normal;font-stretch:normal;font-size:25.3241539px;line-height:125%;font-family:Lavi;-inkscape-font-specification:'Lavi, Normal';text-align:center;letter-spacing:0px;word-spacing:0px;writing-mode:lr-tb;text-anchor:middle;display:inline;opacity:0.481;fill:#000000;fill-opacity:1;stroke:none;stroke-width:1px;stroke-linecap:butt;stroke-linejoin:miter;stroke-opacity:1"
       id="flowRoot3448"
       xml:space="preserve"><flowRegion
         id="flowRegion3450"><rect
           y="1061.6674"
           x="-275.14545"
           height="247.52747"
           width="291.95547"
           id="rect3452" /></flowRegion><flowPara
         id="flowPara3473">labels</flowPara><flowPara
         id="flowPara4255">in the </flowPara><flowPara
         id="flowPara4257">garden :-)</flowPara></flowRoot>  </g>
  <g
     inkscape:groupmode="layer"
     id="layer3"
     inkscape:label="speechbubbles"
     style="display:inline">
    <path
       style="color:#000000;display:inline;overflow:visible;visibility:visible;fill:#ffffff;fill-opacity:1;fill-rule:nonzero;stroke:none;stroke-width:1px;marker:none;enable-background:accumulate"
       d="m 1017.873,204.52874 c 27.2038,-33.27491 286.8785,-52.28964 368.9354,1.14813 68.4915,44.60374 88.7656,139.12147 37.8828,165.59375 -50.8828,26.47238 -282.7594,29.96458 -364.462,18.99368 -77.79236,-10.44584 -83.33379,-41.22392 -86.74097,-113.95677 -1.32613,-28.30879 17.1806,-38.50379 44.38477,-71.77879 z"
       id="path4040-4"
       inkscape:connector-curvature="0"
       sodipodi:nodetypes="zssssz" />
    <path
       style="color:#000000;display:inline;overflow:visible;visibility:visible;fill:#ffffff;fill-opacity:1;fill-rule:nonzero;stroke:none;stroke-width:1px;marker:none;enable-background:accumulate"
       d="m 1218.6195,471.60657 c 6.8921,-79.99361 75.774,-136.92767 252.0955,-117.45099 94.4472,10.43269 213.5946,32.6098 204.5956,149.82215 -8.999,117.21223 -190.5416,116.26507 -222.4568,118.21585 -31.9153,1.9509 -188.2187,-12.12896 -216.5675,-52.78337 -17.7459,-25.44858 -18.6085,-72.99946 -17.6668,-97.80364 z"
       id="path4546-6"
       inkscape:connector-curvature="0"
       sodipodi:nodetypes="cssssc" />
    <path
       style="color:#000000;display:inline;overflow:visible;visibility:visible;fill:#ffffff;fill-opacity:1;fill-rule:nonzero;stroke:none;stroke-width:1px;marker:none;enable-background:accumulate"
       d="m 1396.3499,623.46799 c 50.1003,-56.53134 296.0338,-45.60447 398.4593,-49.46308 139.1893,-5.24359 122.6388,61.69878 126.8559,76.66618 4.2167,14.96728 -14.611,111.58486 -60.9983,125.19164 -46.3871,13.60664 -146.0811,12.12451 -192.4682,12.12451 -46.3871,0 -194.4651,-8.66058 -231.9361,-28.57405 -35.8446,-19.04932 -90.0133,-79.41398 -39.9126,-135.9452 z"
       id="path3330"
       inkscape:connector-curvature="0"
       sodipodi:nodetypes="zsssssz" />
    <path
       style="color:#000000;display:inline;overflow:visible;visibility:visible;fill:#ffffff;fill-opacity:1;fill-rule:nonzero;stroke:none;stroke-width:1px;marker:none;enable-background:accumulate"
       d="m 1537.5273,696.39507 c -4.748,19.68499 -0.6503,33.38997 2.5742,37.35036 3.2245,3.96027 2.3513,12.12365 5.2378,17.57337 2.3614,4.51862 3.5729,10.81257 -0.8434,12.64306 -4.4163,1.83058 -29.4289,3.69855 -33.6755,16.66121 -4.2467,12.96272 3.9771,24.00648 14.1454,30.32451 10.1684,6.31815 24.4145,10.44127 22.2717,20.40102 -2.1427,9.95976 -9.8422,13.23017 -15.8741,13.66024 -6.0318,0.43007 -42.6593,-1.86158 -51.9545,1.56498 -9.295,3.4266 -34.8875,18.35716 -31.0179,31.36521 11.9004,-13.15184 18.3151,-19.01847 27.1348,-20.36055 8.8198,-1.34212 24.7212,-5.09072 34.6744,-1.78852 9.9534,3.30225 30.2251,7.01956 38.1327,2.88942 7.9077,-4.13 22.6869,-13.91278 22.9796,-24.81049 0.2928,-10.89767 -5.2053,-22.98724 -21.3925,-31.19418 -10.1682,-6.31811 -14.5522,-10.2849 -13.6078,-13.29434 0.9444,-3.00939 11.8681,-7.35452 23.4562,-6.13032 11.5882,1.22424 17.0469,-9.49086 18.0108,-15.97871 0.9638,-6.48781 -2.7884,-15.67273 -3.2186,-21.7046 -0.4301,-6.03183 -6.7045,-40.19004 -6.7045,-40.19004 z"
       id="path5058"
       inkscape:connector-curvature="0"
       sodipodi:nodetypes="cscsssssscssssccscccc" />
    <path
       style="color:#000000;display:inline;overflow:visible;visibility:visible;fill:#ffffff;fill-opacity:1;fill-rule:nonzero;stroke:none;stroke-width:1px;marker:none;enable-background:accumulate"
       d="m 1386.1852,1846.3516 c 6.7758,-69.8494 43.9384,-95.0896 125.6328,-98.7527 40.5611,-1.8188 187.4674,-8.1256 247.0166,4.5118 59.5491,12.6375 110.5229,51.3422 106.0057,102.5251 -4.5171,51.1828 -9.8602,90.8284 -74.8941,105.3166 -65.0339,14.4881 -189.7585,3.8187 -202.7456,4.4209 -25.9738,1.2043 -160.4966,-15.7854 -182.9466,-51.7851 -14.0531,-22.5348 -19.1981,-44.559 -18.0688,-66.2366 z"
       id="path4546-6-3"
       inkscape:connector-curvature="0"
       sodipodi:nodetypes="cssssssc" />
    <path
       style="color:#000000;display:inline;overflow:visible;visibility:visible;fill:#ffffff;fill-opacity:1;fill-rule:nonzero;stroke:none;stroke-width:1px;marker:none;enable-background:accumulate"
       d="m 1760.2318,1983.0096 c -2.1894,-13.9006 21.8159,-72.4119 155.3725,-63.1448 133.5566,9.2671 147.5063,20.9339 153.6003,70.8244 2.2523,18.4386 -18.5316,45.3021 -38.2367,49.9356 -19.7051,4.6335 -77.3192,17.7137 -110.1609,14.007 -32.8418,-3.7069 -81.3209,-2.8275 -129.6411,-22.2636 -29.1638,-11.7307 -28.7446,-45.6518 -30.9341,-49.3586 z"
       id="path3365"
       inkscape:connector-curvature="0"
       sodipodi:nodetypes="csssssc" />
    <path
       style="fill:#ffffff;fill-opacity:1;stroke:none"
       d="m 1684.7721,2157.716 c -11.0377,-128.9785 142.8864,-150.2845 352.2172,-150.1015 209.3308,0.1828 319.1407,18.4881 326.2625,130.4329 10.9735,172.4895 -41.8601,192.7824 -110.7184,203.4411 -137.5419,21.2904 -459.9224,16.833 -474.8768,-26.277 -26.4111,-76.1371 -90.4614,-43.4249 -92.8845,-157.4955 z"
       id="path3238"
       inkscape:connector-curvature="0"
       sodipodi:nodetypes="cssssc" />
    <path
       style="color:#000000;display:inline;overflow:visible;visibility:visible;fill:#ffffff;fill-opacity:1;fill-rule:nonzero;stroke:none;stroke-width:1px;marker:none;enable-background:accumulate"
       d="m 1822.5407,2319.2314 c -30.6436,39.5697 -91.823,73.3362 -171.3605,30.1552 76.0815,26.4581 119.8575,-5.9599 145.0149,-45.5895 21.7184,-34.2122 33.4899,-49.0683 33.4899,-49.0683 z"
       id="path4440"
       inkscape:connector-curvature="0"
       sodipodi:nodetypes="ccscc" />
    <path
       style="color:#000000;display:inline;overflow:visible;visibility:visible;fill:#ffffff;fill-opacity:1;fill-rule:nonzero;stroke:none;stroke-width:1px;marker:none;enable-background:accumulate"
       d="m 100.28792,2748.622 c 26.23263,-10.9597 38.66634,-18.5558 0.45823,-34.3247 7.84498,-0.1198 51.62425,-2.1442 9.76715,-32.9366 13.8,3.9749 35.86784,14.5291 11.02706,-36.5871 14.93612,8.1494 35.65375,34.2072 17.48056,-14.0742 19.68024,16.3179 45.60842,6.0013 40.30072,-2.5708 15.83874,10.4052 46.94431,9.5448 44.27984,0.7154 11.64511,9.6323 43.19202,12.4562 40.71636,-3.6881 9.67608,11.0973 39.70587,9.9541 36.76192,0.5253 25.36934,11.2241 62.04581,18.1422 75.90708,2.4934 11.83584,14.8098 66.89103,10.3376 113.06616,0.2295 0.7233,10.4538 52.11644,12.2889 94.00148,-4.7288 0.63394,15.8808 15.74858,21.2619 34.21827,9.5749 6.5956,6.5186 4.83525,10.3103 30.75452,-5.1216 -1.23739,10.6121 3.37613,20.4024 21.43492,10.2432 3.14588,6.5649 -8.36616,23.5801 37.27833,-1.2805 0.30174,9.2802 -10.41257,27.5037 28.8906,5.1216 -31.88352,55.1372 -14.21246,49.2359 7.4556,38.4113 -16.87112,32.5259 -38.63091,72.8685 4.24505,71.3855 -33.57227,7.514 -28.25083,15.1361 -23.74131,32.6154 -39.70967,-10.3418 -10.32813,41.264 -28.54429,45.8716 -19.23063,-5.8556 -79.55778,-40.3335 -102.25589,-10.4592 -34.77236,-12.2937 -41.66636,-1.0176 -53.12155,6.402 -60.74999,-23.5924 -60.49862,19.2047 -87.85561,18.551 -16.17448,-29.1834 -52.67449,-7.1717 -79.2163,-10.2429 -33.55031,-23.9307 -104.39854,21.3181 -130.51671,30.5428 12.76533,-14.9487 -14.48562,-45.0327 -44.38123,-12.6154 14.84555,-27.3926 8.41118,-67.8333 -37.06263,-32.5546 21.36932,-32.458 -7.00102,-60.4268 -40.09589,-39.6266 32.39001,-31.5409 -1.83686,-34.2446 -21.25244,-31.8718 z"
       id="path3557"
       inkscape:connector-curvature="0"
       sodipodi:nodetypes="cccccccccccccccccccccccccccccc" />
    <path
       style="color:#000000;display:inline;overflow:visible;visibility:visible;fill:#ffffff;fill-opacity:1;fill-rule:nonzero;stroke:none;stroke-width:1px;marker:none;enable-background:accumulate"
       d="m 222.53052,2888.0924 c 8.43841,-73.3533 93.40373,-126.6439 311.0341,-111.7966 116.57455,7.953 249.02327,13.4367 238.01599,120.9006 -11.00741,107.4636 -201.47202,103.79 -240.8598,106.116 -39.38777,2.3262 -243.99617,-9.926 -279.01838,-46.6664 -21.9231,-22.9987 -30.3132,-45.8287 -29.17191,-68.5536 z"
       id="path4546"
       inkscape:connector-curvature="0"
       sodipodi:nodetypes="cssssc" />
    <path
       style="color:#000000;display:inline;overflow:visible;visibility:visible;fill:#ffffff;fill-opacity:1;fill-rule:nonzero;stroke:none;stroke-width:1px;marker:none;enable-background:accumulate"
       d="m 990.3039,2942.0433 c -39.7219,-30.7338 -84.6659,-56.332 -118.3207,-93.0329 l 9.2071,41.4633 c -19.1495,-7.3977 -31.9655,-24.339 -46.9322,-38.0398 l 1.0996,26.2988 c -44.9905,-17.9715 -72.2012,-38.6844 -109.84,-63.5761 l 2.348,35.2211 c 41.0512,21.0955 84.9859,35.8216 122.7937,64.0815 l 1.7812,-25.6614 c 14.445,8.0961 28.5921,16.7337 41.4085,27.7896 l -0.8973,-32.5393 z"
       id="path4032-6"
       inkscape:connector-curvature="0"
       sodipodi:nodetypes="cccccccccccc" />
    <path
       style="fill:#ffffff;stroke:none"
       d="m 1699.0736,2771.0202 c 5.0501,-60.4636 35.5091,-85.0538 49.33,-93.079 13.8207,-8.0252 71.8414,-18.3199 109.742,-16.548 37.9006,1.7719 131.855,10.4999 147.6558,13.4066 15.8008,2.9066 57.954,48.234 57.5018,87.2344 -0.4521,39.0001 -8.9041,64.619 -31.9343,87.3886 -23.0304,22.7698 -160.4271,27.1856 -168.8922,24.6219 -8.4654,-2.5636 -121.5161,-23.0237 -128.5726,-29.8572 -7.0564,-6.8334 -35.6546,-25.5131 -34.8305,-73.1673 z"
       id="path3278"
       inkscape:connector-curvature="0" />
    <path
       style="color:#000000;display:inline;overflow:visible;visibility:visible;fill:#ffffff;fill-opacity:1;fill-rule:nonzero;stroke:none;stroke-width:1px;marker:none;enable-background:accumulate"
       d="m 1725.8568,2867.7019 c 40.137,-46.9028 433.2581,-78.3913 561.6221,5.5395 67.1847,43.9288 9.1866,222.689 -59.1359,259.5944 -68.3223,36.9054 -269.3852,77.3256 -361.1324,45.6924 -91.7471,-31.6332 -163.2125,-78.9187 -167.8779,-175.74 -1.9041,-39.5167 -13.6127,-88.1832 26.5241,-135.0863 z"
       id="path4040"
       inkscape:connector-curvature="0"
       sodipodi:nodetypes="zssssz" />
    <path
       style="display:inline;fill:#ffffff;fill-rule:evenodd;stroke:none;stroke-width:1px;stroke-linecap:butt;stroke-linejoin:miter;stroke-opacity:1"
       d="m 1889.5795,3122.771 c 48.1261,28.5286 75.5394,16.9272 74.7133,-49.3868 22.9607,71.6603 38.8942,87.6873 48.344,52.3799 30.3984,30.3481 49.3847,21.8353 64.4586,0 5.6184,28.0816 17.6672,16.7498 28.0947,15.3549 3.4344,6.3532 -8.3613,22.1376 39.2938,1.1073 3.0868,8.4093 7.2451,15.651 35.1591,-2.9931 7.2317,34.1321 30.4341,-1.8917 54.204,-40.4074 -14.8094,47.3518 -8.6685,54.0398 10.2547,35.9176 -8.6516,19.4998 -13.8261,34.5948 19.0445,1.4966 -11.2532,35.9927 18.2696,11.2875 65.9236,-40.4072 -23.8372,38.2124 -87.0482,102.6164 -45.4139,97.2767 -5.8062,11.2651 -26.5164,21.0802 35.1591,38.9107 -11.514,7.6442 -46.6658,-3.5263 -17.3429,28.8398 3.9288,3.7834 -9.2235,6.0937 15.878,16.0571 -14.8178,-0.6778 -23.9051,1.7436 -10.2549,16.4623 -27.0478,-0.7959 -16.9276,14.6808 2.93,34.4209 -39.169,-25.3209 -41.3245,-16.1182 -42.4842,-5.9862 -49.0902,-34.521 -51.9717,-23.6523 -58.5985,-16.4623 -23.9278,0.2694 -47.8557,-4.0779 -71.7836,34.421 -6.2663,-23.9452 -18.8296,-42.3768 -71.7833,-25.4415 23.2507,-30.4626 -9.8264,-11.0548 -35.1593,1.4965 13.8728,-38.0554 -21.3342,-13.0797 -65.9235,23.945 24.9698,-42.0237 -3.39,-26.8437 -45.4141,2.9932 15.8781,-41.2842 -9.9807,-61.2497 -71.7833,-62.8558 29.5806,-14.8917 46.8304,-33.6324 16.1147,-67.3454 34.6253,9.9269 44.9535,0.7062 20.5095,-35.9176 37.767,30.0605 20.5958,-13.5407 5.8599,-53.8762 z"
       id="path4508"
       inkscape:connector-curvature="0"
       sodipodi:nodetypes="cccccccccccccccccccccccccccc" />
    <path
       style="color:#000000;display:inline;overflow:visible;visibility:visible;fill:#ffffff;fill-opacity:1;fill-rule:nonzero;stroke:none;stroke-width:1px;marker:none;enable-background:accumulate"
       d="m 1490.4164,2866.2226 c 36.6716,-30.7338 78.1642,-56.332 109.2346,-93.0329 l -8.5001,41.4633 c 17.679,-7.3977 29.5108,-24.339 43.3282,-38.0398 l -1.0152,26.2988 c 41.5356,-17.9715 69.9349,-49.3371 104.6834,-74.2288 l -5.4459,45.8738 c -37.8988,21.0955 -78.4597,35.8216 -113.3641,64.0815 l -1.6444,-25.6614 c -13.3358,8.0961 -26.3965,16.7337 -38.2287,27.7896 l 0.8284,-32.5393 z"
       id="path4032"
       inkscape:connector-curvature="0"
       sodipodi:nodetypes="cccccccccccc" />
  </g>
  <g
     inkscape:groupmode="layer"
     id="layer1"
     inkscape:label="txt">
    <text
       xml:space="preserve"
       style="font-style:normal;font-variant:normal;font-weight:normal;font-stretch:normal;font-size:12px;line-height:125%;font-family:Lavi;-inkscape-font-specification:Lavi;text-align:center;letter-spacing:0px;word-spacing:0px;text-anchor:middle;fill:#000000;fill-opacity:1;stroke:none"
       x="1194.6492"
       y="229.16325"
       id="text4246"
       sodipodi:linespacing="125%"><tspan
         sodipodi:role="line"
         style="font-size:45px"
         x="1194.6492"
         y="229.16325"
         id="tspan4252">Øhm...</tspan></text>
    <text
       xml:space="preserve"
       style="font-style:normal;font-variant:normal;font-weight:normal;font-stretch:normal;font-size:12px;line-height:125%;font-family:Lavi;-inkscape-font-specification:Lavi;text-align:center;letter-spacing:0px;word-spacing:0px;text-anchor:middle;fill:#000000;fill-opacity:1;stroke:none"
       x="1213.9131"
       y="286.08325"
       id="text4246-3"
       sodipodi:linespacing="125%"><tspan
         sodipodi:role="line"
         style="font-size:45px"
         x="1213.9131"
         y="286.08325"
         id="tspan4247">N<tspan
   style="font-size:40px"
   id="tspan4222">å</tspan> er jo ikke jeg</tspan><tspan
         sodipodi:role="line"
         style="font-size:45px"
         x="1213.9131"
         y="342.33325"
         id="tspan4251">noen ekspert ass<tspan
   style="font-size:40px"
   id="tspan4224">å</tspan>...</tspan></text>
    <text
       xml:space="preserve"
       style="font-style:normal;font-variant:normal;font-weight:normal;font-stretch:normal;font-size:12px;line-height:125%;font-family:Lavi;-inkscape-font-specification:Lavi;text-align:center;letter-spacing:0px;word-spacing:0px;text-anchor:middle;fill:#000000;fill-opacity:1;stroke:none"
       x="1436.092"
       y="408.31891"
       id="text4246-3-7"
       sodipodi:linespacing="125%"><tspan
         sodipodi:role="line"
         style="font-size:45px"
         x="1436.092"
         y="408.31891"
         id="tspan3840">Men, <tspan
   style="font-size:40px"
   id="tspan4234">å</tspan>rets</tspan><tspan
         sodipodi:role="line"
         style="font-size:45px"
         x="1436.092"
         y="464.56891"
         id="tspan4258">grønnsakshage er</tspan><tspan
         sodipodi:role="line"
         style="font-size:45px"
         x="1436.092"
         y="520.81891"
         id="tspan4260">jo virkelig utenom</tspan><tspan
         sodipodi:role="line"
         style="font-size:45px"
         x="1436.092"
         y="577.06891"
         id="tspan4270">det vanlige...</tspan></text>
    <text
       xml:space="preserve"
       style="font-style:normal;font-variant:normal;font-weight:normal;font-stretch:normal;font-size:12px;line-height:125%;font-family:Lavi;-inkscape-font-specification:Lavi;text-align:center;letter-spacing:0px;word-spacing:0px;text-anchor:middle;fill:#000000;fill-opacity:1;stroke:none"
       x="1649.2264"
       y="636.94788"
       id="text4246-3-7-6"
       sodipodi:linespacing="125%"><tspan
         sodipodi:role="line"
         style="font-size:45px"
         x="1649.2264"
         y="636.94788"
         id="tspan3849">...det gjelder fors<tspan
   style="font-size:40px"
   id="tspan4240">å</tspan>vidt</tspan><tspan
         sodipodi:role="line"
         style="font-size:45px"
         x="1649.2264"
         y="693.19788"
         id="tspan4277">for resten av plantene</tspan><tspan
         sodipodi:role="line"
         style="font-size:45px"
         x="1649.2264"
         y="749.44788"
         id="tspan4279">rundt huset ogs<tspan
   style="font-size:40px"
   id="tspan4242">å</tspan>.</tspan></text>
    <text
       sodipodi:linespacing="125%"
       id="text4178-6-5-9-0-7-0-4"
       style="font-style:normal;font-variant:normal;font-weight:normal;font-stretch:normal;font-size:9.76241112px;line-height:125%;font-family:Lavi;-inkscape-font-specification:Lavi;text-align:center;letter-spacing:0px;word-spacing:0px;text-anchor:middle;opacity:0.63300003;fill:#ffffff;fill-opacity:1;stroke:none;filter:url(#filter5236-4-16)"
       xml:space="preserve"
       y="3129.8394"
       x="1318.7137"
       transform="matrix(0.6851492,-0.06612027,-0.09994133,0.78144216,149.5816,-965.35698)"><tspan
         y="3129.8394"
         x="1318.7137"
         style="font-style:normal;font-variant:normal;font-weight:normal;font-stretch:normal;font-size:40.67671585px;font-family:Fondamento;-inkscape-font-specification:Fondamento;fill:#ffffff;fill-opacity:1"
         sodipodi:role="line"
         id="tspan4293-1-6-3-5-0-2">Tomater</tspan></text>
    <text
       sodipodi:linespacing="125%"
       id="text4178-6-5-9-0-7-0-4-7"
       style="font-style:normal;font-variant:normal;font-weight:normal;font-stretch:normal;font-size:9.76241112px;line-height:125%;font-family:Lavi;-inkscape-font-specification:Lavi;text-align:center;letter-spacing:0px;word-spacing:0px;text-anchor:middle;opacity:0.63300003;fill:#ffffff;fill-opacity:1;stroke:none;filter:url(#filter5236-4-16-3)"
       xml:space="preserve"
       y="3129.8394"
       x="1318.7137"
       transform="matrix(0.58543203,0.08325699,-0.38986142,0.70644422,2171.8616,-965.83592)"><tspan
         y="3129.8394"
         x="1318.7137"
         style="font-style:normal;font-variant:normal;font-weight:normal;font-stretch:normal;font-size:40.67671585px;font-family:Fondamento;-inkscape-font-specification:Fondamento;fill:#ffffff;fill-opacity:1"
         sodipodi:role="line"
         id="tspan4293-1-6-3-5-0-2-5">Auberginer</tspan></text>
    <text
       xml:space="preserve"
       style="font-style:normal;font-variant:normal;font-weight:normal;font-stretch:normal;font-size:12px;line-height:125%;font-family:Lavi;-inkscape-font-specification:Lavi;text-align:center;letter-spacing:0px;word-spacing:0px;text-anchor:middle;fill:#000000;fill-opacity:1;stroke:none"
       x="1627.533"
       y="1809.5331"
       id="text4246-3-2"
       sodipodi:linespacing="125%"><tspan
         sodipodi:role="line"
         style="font-size:45px"
         x="1627.533"
         y="1809.5331"
         id="tspan3858">Det er noe med</tspan><tspan
         sodipodi:role="line"
         style="font-size:45px"
         x="1627.533"
         y="1865.7831"
         id="tspan4338">disse maurene som</tspan><tspan
         sodipodi:role="line"
         style="font-size:45px"
         x="1627.533"
         y="1922.0331"
         id="tspan4340">skurrer litt ogs<tspan
   style="font-size:40px"
   id="tspan4244">å</tspan>.</tspan></text>
    <text
       xml:space="preserve"
       style="font-style:normal;font-variant:normal;font-weight:normal;font-stretch:normal;font-size:12px;line-height:125%;font-family:Lavi;-inkscape-font-specification:Lavi;text-align:center;letter-spacing:0px;word-spacing:0px;text-anchor:middle;fill:#000000;fill-opacity:1;stroke:none"
       x="1928.5547"
       y="1997.0601"
       id="text4246-3-2-9"
       sodipodi:linespacing="125%"><tspan
         sodipodi:role="line"
         style="font-size:45px"
         x="1928.5547"
         y="1997.0601"
         id="tspan4259-0">S<tspan
   style="font-size:40px"
   id="tspan4248">å</tspan>, alts<tspan
   style="font-size:40px"
   id="tspan4246">å</tspan>...</tspan></text>
    <text
       xml:space="preserve"
       style="font-style:normal;font-variant:normal;font-weight:normal;font-stretch:normal;font-size:12px;line-height:125%;font-family:Lavi;-inkscape-font-specification:Lavi;text-align:center;letter-spacing:0px;word-spacing:0px;text-anchor:middle;fill:#000000;fill-opacity:1;stroke:none"
       x="2024.7295"
       y="2088.2048"
       id="text4246-3-2-9-6"
       sodipodi:linespacing="125%"><tspan
         sodipodi:role="line"
         style="font-size:45px"
         x="2024.7295"
         y="2088.2048"
         id="tspan3888">jeg tenkte litt for meg</tspan><tspan
         sodipodi:role="line"
         style="font-size:45px"
         x="2024.7295"
         y="2144.4548"
         id="tspan4358">selv og kom til at vi kanskje kan</tspan><tspan
         sodipodi:role="line"
         style="font-size:45px"
         x="2024.7295"
         y="2200.7048"
         id="tspan4261">ha et lite forurensingsproblem</tspan><tspan
         sodipodi:role="line"
         style="font-size:45px"
         x="2024.7295"
         y="2256.9548"
         id="tspan4360">og at det kan være p<tspan
   style="font-size:40px"
   id="tspan4250">å</tspan></tspan><tspan
         sodipodi:role="line"
         style="font-size:45px"
         x="2024.7295"
         y="2313.2048"
         id="tspan4362">tide <tspan
   style="font-size:40px"
   id="tspan4253">å</tspan> rense opp litt...</tspan></text>
    <text
       xml:space="preserve"
       style="font-style:normal;font-variant:normal;font-weight:normal;font-stretch:normal;font-size:12px;line-height:125%;font-family:Lavi;-inkscape-font-specification:Lavi;text-align:center;letter-spacing:0px;word-spacing:0px;text-anchor:middle;fill:#000000;fill-opacity:1;stroke:none;stroke-width:2.79999995;stroke-miterlimit:4;stroke-dasharray:none"
       x="434.73688"
       y="2683.741"
       id="text4246-3-2-9-6-6"
       sodipodi:linespacing="125%"><tspan
         sodipodi:role="line"
         style="font-size:45px;stroke-width:2.79999995;stroke-miterlimit:4;stroke-dasharray:none"
         x="434.73688"
         y="2683.741"
         id="tspan3892">Hør nå her, frøken</tspan><tspan
         sodipodi:role="line"
         style="font-size:45px;stroke-width:2.79999995;stroke-miterlimit:4;stroke-dasharray:none"
         x="434.73688"
         y="2739.991"
         id="tspan3900">&quot;<tspan
   style="stroke:#000000;stroke-width:2.79999995;stroke-miterlimit:4;stroke-dasharray:none;stroke-opacity:1"
   id="tspan4217">Jeg-Skal-Uskadeliggjøre-</tspan></tspan><tspan
         sodipodi:role="line"
         style="font-size:45px;stroke-width:2.79999995;stroke-miterlimit:4;stroke-dasharray:none"
         x="434.73688"
         y="2796.241"
         id="tspan4423"><tspan
   style="stroke:#000000;stroke-width:2.79999995;stroke-miterlimit:4;stroke-dasharray:none;stroke-opacity:1"
   id="tspan4425">Alle-Eliksirene-Mine</tspan>&quot;,</tspan><tspan
         sodipodi:role="line"
         style="font-size:45px;stroke-width:2.79999995;stroke-miterlimit:4;stroke-dasharray:none"
         x="434.73688"
         y="2852.491"
         id="tspan4378" /></text>
    <text
       xml:space="preserve"
       style="font-style:normal;font-variant:normal;font-weight:normal;font-stretch:normal;font-size:12px;line-height:125%;font-family:Lavi;-inkscape-font-specification:Lavi;text-align:center;letter-spacing:0px;word-spacing:0px;text-anchor:middle;fill:#000000;fill-opacity:1;stroke:none"
       x="503.74457"
       y="2857.7754"
       id="text4246-3-2-9-6-6-7"
       sodipodi:linespacing="125%"><tspan
         sodipodi:role="line"
         style="font-size:45px"
         x="503.74457"
         y="2857.7754"
         id="tspan3605">Hippiakostymet ditt</tspan><tspan
         sodipodi:role="line"
         style="font-size:45px"
         x="503.74457"
         y="2914.0254"
         id="tspan4287">har helt klart gått til</tspan><tspan
         sodipodi:role="line"
         style="font-size:45px"
         x="503.74457"
         y="2970.2754"
         id="tspan4289">hodet p<tspan
   style="font-size:40px"
   id="tspan4291">å</tspan> deg.</tspan><tspan
         sodipodi:role="line"
         style="font-size:45px"
         x="503.74457"
         y="3026.5254"
         id="tspan4378-5" /></text>
    <text
       xml:space="preserve"
       style="font-style:normal;font-variant:normal;font-weight:normal;font-stretch:normal;font-size:12px;line-height:125%;font-family:Lavi;-inkscape-font-specification:Lavi;text-align:center;letter-spacing:0px;word-spacing:0px;text-anchor:middle;fill:#000000;fill-opacity:1;stroke:none"
       x="1879.5022"
       y="2717.0959"
       id="text4246-3-2-9-6-6-0"
       sodipodi:linespacing="125%"><tspan
         sodipodi:role="line"
         style="font-size:45px"
         x="1879.5022"
         y="2717.0959"
         id="tspan3913">I Kaosia</tspan><tspan
         sodipodi:role="line"
         style="font-size:45px"
         x="1879.5022"
         y="2773.3459"
         id="tspan4432">graver vi ned</tspan><tspan
         sodipodi:role="line"
         style="font-size:45px"
         x="1879.5022"
         y="2829.5959"
         id="tspan4438">feilene v<tspan
   style="font-size:40px"
   id="tspan4293">å</tspan>re!</tspan><tspan
         sodipodi:role="line"
         style="font-size:45px"
         x="1879.5022"
         y="2885.8459"
         id="tspan4378-7" /></text>
    <text
       xml:space="preserve"
       style="font-style:normal;font-variant:normal;font-weight:normal;font-stretch:normal;font-size:12px;line-height:125%;font-family:Lavi;-inkscape-font-specification:Lavi;text-align:center;letter-spacing:0px;word-spacing:0px;text-anchor:middle;fill:#000000;fill-opacity:1;stroke:none;stroke-width:2.79999995;stroke-miterlimit:4;stroke-dasharray:none"
       x="2002.6411"
       y="2913.0608"
       id="text4246-3-2-9-6-6-0-5"
       sodipodi:linespacing="125%"><tspan
         sodipodi:role="line"
         style="font-size:45px;stroke-width:2.79999995;stroke-miterlimit:4;stroke-dasharray:none"
         x="2002.6411"
         y="2913.0608"
         id="tspan3931">Det har vært en tradisjon</tspan><tspan
         sodipodi:role="line"
         style="font-size:45px;stroke-width:2.79999995;stroke-miterlimit:4;stroke-dasharray:none"
         x="2002.6411"
         y="2969.3108"
         id="tspan4445">siden tidenes morgen og jeg</tspan><tspan
         sodipodi:role="line"
         style="font-size:45px;stroke-width:2.79999995;stroke-miterlimit:4;stroke-dasharray:none"
         x="2002.6411"
         y="3025.5608"
         id="tspan4447">bryr meg katten om hva</tspan><tspan
         sodipodi:role="line"
         style="font-size:45px;stroke:#000000;stroke-width:2.79999995;stroke-miterlimit:4;stroke-dasharray:none;stroke-opacity:1"
         x="2002.6411"
         y="3081.8108"
         id="tspan3933">MODER JORD</tspan><tspan
         sodipodi:role="line"
         style="font-size:45px;stroke-width:2.79999995;stroke-miterlimit:4;stroke-dasharray:none"
         x="2002.6411"
         y="3138.0608"
         id="tspan3935">synest om det!</tspan><tspan
         sodipodi:role="line"
         style="font-size:45px;stroke-width:2.79999995;stroke-miterlimit:4;stroke-dasharray:none"
         x="2002.6411"
         y="3194.3108"
         id="tspan4378-7-6" /></text>
    <text
       xml:space="preserve"
       style="font-style:normal;font-variant:normal;font-weight:normal;font-stretch:normal;font-size:12px;line-height:125%;font-family:Lavi;-inkscape-font-specification:Lavi;text-align:center;letter-spacing:0px;word-spacing:0px;text-anchor:middle;fill:#000000;fill-opacity:1;stroke:none;stroke-width:2.79999995;stroke-miterlimit:4;stroke-dasharray:none"
       x="2083.4753"
       y="3219.5076"
       id="text4246-3-2-9-6-6-0-5-1"
       sodipodi:linespacing="125%"><tspan
         sodipodi:role="line"
         style="font-size:45px;stroke-width:2.79999995;stroke-miterlimit:4;stroke-dasharray:none"
         x="2083.4753"
         y="3219.5076"
         id="tspan4544">S<tspan
   style="font-size:40px"
   id="tspan4295">å</tspan> klapp igjen</tspan><tspan
         sodipodi:role="line"
         style="font-size:45px;stroke-width:2.79999995;stroke-miterlimit:4;stroke-dasharray:none"
         x="2091.3855"
         y="3275.7576"
         id="tspan3939">og <tspan
   style="stroke:#000000;stroke-width:2.79999995;stroke-miterlimit:4;stroke-dasharray:none;stroke-opacity:1"
   id="tspan4219">GRAV</tspan>!! </tspan><tspan
         sodipodi:role="line"
         style="font-size:45px;stroke-width:2.79999995;stroke-miterlimit:4;stroke-dasharray:none"
         x="2083.4753"
         y="3332.0076"
         id="tspan4378-7-6-4" /></text>
  </g>
</svg>
