<?xml version="1.0" encoding="UTF-8" standalone="no"?>
<!-- Created with Inkscape (http://www.inkscape.org/) -->

<svg
   xmlns:dc="http://purl.org/dc/elements/1.1/"
   xmlns:cc="http://creativecommons.org/ns#"
   xmlns:rdf="http://www.w3.org/1999/02/22-rdf-syntax-ns#"
   xmlns:svg="http://www.w3.org/2000/svg"
   xmlns="http://www.w3.org/2000/svg"
   xmlns:xlink="http://www.w3.org/1999/xlink"
   xmlns:sodipodi="http://sodipodi.sourceforge.net/DTD/sodipodi-0.dtd"
   xmlns:inkscape="http://www.inkscape.org/namespaces/inkscape"
   id="svg2"
   version="1.1"
   inkscape:version="0.91 r13725"
   width="2481"
   height="3503"
   sodipodi:docname="Pepper-and-Carrot_by-David-Revoy_E19P06.svg">
  <metadata
     id="metadata8">
    <rdf:RDF>
      <cc:Work
         rdf:about="">
        <dc:format>image/svg+xml</dc:format>
        <dc:type
           rdf:resource="http://purl.org/dc/dcmitype/StillImage" />
        <dc:title />
      </cc:Work>
    </rdf:RDF>
  </metadata>
  <defs
     id="defs6" />
  <sodipodi:namedview
     pagecolor="#ffffff"
     bordercolor="#666666"
     borderopacity="1"
     objecttolerance="10"
     gridtolerance="10"
     guidetolerance="10"
     inkscape:pageopacity="0"
     inkscape:pageshadow="2"
     inkscape:window-width="1920"
     inkscape:window-height="1029"
     id="namedview4"
     showgrid="false"
     inkscape:zoom="0.30039762"
     inkscape:cx="1229.4982"
     inkscape:cy="1948.9457"
     inkscape:window-x="0"
     inkscape:window-y="0"
     inkscape:window-maximized="1"
     inkscape:current-layer="layer1" />
  <g
     inkscape:groupmode="layer"
     id="layer2"
     inkscape:label="artwork"
     sodipodi:insensitive="true">
    <image
       sodipodi:absref="/media/WinMedia/PepperCarrotNew/peppercarrot_ep19_translation/pl/../gfx_Pepper-and-Carrot_by-David-Revoy_E19P06.png"
       xlink:href="../gfx_Pepper-and-Carrot_by-David-Revoy_E19P06.png"
       y="0"
       x="0"
       id="image10"
       height="3503"
       width="2481" />
  </g>
  <g
     inkscape:groupmode="layer"
     id="layer3"
     inkscape:label="speechbubbles">
    <path
       style="fill:#ffffff;stroke:none"
       d="m 481.27782,827.21649 -20.91977,12.96296 c -46.25534,-5.04051 -174.08164,-11.95044 -239.31966,-8.33486 l -26.58596,8.87047 -14.3811,-16.37609 -6.53867,20.46857 -13.07337,-14.32781 -13.86853,13.09594 -15.68884,-9.55187 5.66618,20.46858 -8.71689,12.28155 -17.43381,-8.87047 9.58938,36.84469 c 10e-6,0 -5.34057,4.02908 -11.44219,4.02908 15.30764,29.67904 17.33499,183.27037 12.23291,235.96537 l -12.24637,9.2307 12.23846,11.6405 4.88075,4.3195 -20.5142,14.6211 15.36438,-0.9725 -11.94172,16.2584 12.6401,9.554 -0.87248,12.2794 -1.74299,7.5077 10.10773,8.185 -17.42731,18.0219 24.46256,-5.0239 0.72608,0.6504 c 0,0 -16.54338,24.7562 -21.08602,34.0563 13.30441,-5.6458 34.16106,-14.2702 35.90435,-14.9526 0.13984,-0.054 0.48458,-0.023 0.91601,0.043 l -10.94262,19.1594 26.39207,-14.8563 c 1.80177,0.5199 3.61718,1.0355 5.39712,1.5113 l -5.05808,17.3048 28.27479,-13.9412 c 9.08248,1.6416 20.3198,4.6407 23.00899,5.1084 3.92244,0.6824 24.84253,-6.8232 29.63667,-6.1408 4.79414,0.6822 48.81223,8.187 52.73467,8.187 3.92245,0 27.89271,-2.7287 33.12265,-3.411 5.22992,-0.6822 32.68697,3.411 37.4811,3.411 4.79404,0 13.07556,-6.8233 17.43379,-7.5056 4.35836,-0.6823 16.56119,4.0949 19.61204,5.4594 3.05077,1.3648 24.842,3.4111 30.07193,3.4111 5.22993,0 42.7511,-7.1472 52.29943,-4.0946 6.93673,2.2176 70.15596,0.1985 104.11414,-2.1866 l -3.57104,16.1614 22.02571,-17.9124 c 1.81226,-0.2909 2.86501,-0.5727 2.94982,-0.8383 0,0 6.97308,12.965 9.15215,12.965 2.17916,0 5.66644,-10.9189 6.97392,-12.2835 1.30749,-1.3647 10.46083,6.1417 12.6401,5.4593 2.17917,-0.6823 3.05072,-14.3279 3.05072,-14.3279 l 2.17823,-6.8241 c 0,0 6.10193,-2.0465 8.71691,-4.776 2.61495,-2.7292 -0.43653,-14.3286 -3.92321,-19.7871 3.05087,-2.7293 10.46013,-7.5043 11.76763,-10.2334 1.30756,-2.7295 -3.05072,-11.6001 -3.05072,-11.6001 0,0 2.61563,-4.7754 3.9232,-8.1869 1.30749,-3.4119 -8.16063,-14.7973 -8.16063,-14.7973 0,0 8.16008,-11.1314 8.59588,-15.2253 0.38519,-3.6187 -1.95584,-7.2323 -5.81457,-8.0239 l 12.1178,-7.1525 -13.70844,-2.42 c -1.05752,-38.1375 -1.76711,-165.2013 5.86008,-197.54262 l 16.46042,-13.38625 -16.04694,-6.28739 c -1.11733,-1.57248 -2.3318,-3.18966 -3.59676,-4.79657 l 16.04353,-18.47971 -23.50556,-9.21116 0,-12.18245 -8.7169,-6.82218 c 0,0 0.37656,-1.78973 0.74982,-4.37123 l 9.05917,-17.68312 -35.24603,14.45535 0.0752,0.33657 c -10.36608,-1.78366 -18.74945,-6.5558 -18.74945,-6.5558 l 4.7937,-30.70391 -32.25213,15.01126 -2.17824,-12.96296 -13.5106,12.28157 -4.35846,-19.78719 -13.5106,15.01125 -11.33237,-7.79742 -2.54913,2.41196 -10.45989,-8.87048 -10.45988,8.18702 -20.83867,4.29037 -6.10144,-19.10373 z"
       id="path3894"
       inkscape:connector-curvature="0"
       sodipodi:nodetypes="ccccccccccccccccccccccccccccccccccccccscsscssccccscccccccccccccccccccccccccccccccccccccccc" />
    <path
       style="color:#000000;display:inline;overflow:visible;visibility:visible;fill:#ffffff;fill-opacity:1;fill-rule:nonzero;stroke:none;stroke-width:1px;marker:none;enable-background:accumulate"
       d="m 535.70109,762.59499 c 38.34876,34.92863 35.4166,55.61846 35.05492,70.73951 -5.21085,0.99543 -14.03945,4.31409 -14.03945,4.31409 0,0 2.34858,29.8366 -0.92638,41.34315 -3.27496,11.50653 -19.13613,8.37057 -19.13613,8.37057 0,0 -6.17597,-57.93992 -11.57097,-70.14779 14.42663,-2.21185 21.11631,-4.94055 26.71433,-3.83376 3.38923,-8.44544 -2.96428,-38.06103 -16.09632,-50.78577 z"
       id="path4456"
       inkscape:connector-curvature="0" />
    <path
       style="color:#000000;display:inline;overflow:visible;visibility:visible;fill:#ffffff;fill-opacity:1;fill-rule:nonzero;stroke:none;stroke-width:1px;marker:none;enable-background:accumulate"
       d="m 782.81669,170.4513 -40.2,-14.4857 22.33662,43.1826 -37.7925,-15.59213 29.62312,43.18563 -37.33944,-2.37969 25.7385,31.03324 -21.22949,6.16968 21.62976,26.91083 -22.33486,8.04774 20.09075,28.39761 -22.16593,19.67094 13.22109,18.76891 -16.03279,16.50418 14.53784,11.07509 -12.78231,25.29958 17.26727,4.48582 -17.94553,26.02461 27.80199,-8.25588 -8.73165,29.93945 32.43886,-17.1664 -14.08971,37.28917 28.43761,-0.34352 -39.32137,84.34754 61.70439,-52.02452 4.69958,44.60217 30.56944,-39.18252 0.7747,27.33209 27.00855,-34.48494 -0.57997,34.19236 29.84036,-40.27109 0.0734,127.90182 50.44473,-109.03143 8.95524,45.03406 8.18962,-42.05768 8.77262,18.48756 8.50759,-23.24516 8.24425,36.68388 15.08779,-42.30565 59.3997,61.96957 -10.3828,-74.35262 49.2997,10.09267 -16.5309,-36.48564 71.0319,19.40909 -33.4621,-33.63496 60.3347,18.19599 -67.4967,-59.9351 62.0702,15.57238 -46.0407,-47.77556 42.8626,-4.06925 -39.4536,-32.92053 70.4661,-5.37473 -64.3311,-27.41869 57.7689,-14.20615 -43.5442,-28.69708 50.2645,-23.73661 -53.784,-18.34698 39.605,-61.13892 -55.3143,15.44447 6.3706,-41.7903 -51.7449,31.28307 24.2431,-74.58043 -65.8828,66.06949 3.2897,-21.16581 -23.3736,17.39263 14.4089,-47.81134 -44.102,45.2297 4.485,-20.9601 -13.45482,19.85704 2.98986,-27.57928 -23.17212,33.09507 2.13339,-28.83564 -14.15808,15.55426 -0.36435,-14.76521 -13.02568,11.49906 -17.55909,-50.11731 -26.19792,51.68476 -12.87986,-22.23072 -14.90955,21.29161 -10.35586,-25.04386 -15.59171,29.92649 -25.36537,-40.5666 1.65841,40.25227 -61.18697,-43.60513 z"
       id="path4024"
       inkscape:connector-curvature="0"
       sodipodi:nodetypes="ccccccccccccccccccccccccccccccccccccccccccccccccccccccccccccccccccccccccccccccccccccc" />
    <path
       style="color:#000000;display:inline;overflow:visible;visibility:visible;fill:#ffffff;fill-opacity:1;fill-rule:nonzero;stroke:none;stroke-width:1px;marker:none;enable-background:accumulate"
       d="m 981.87504,489.07837 c 15.79816,16.30726 34.68336,141.58053 227.57366,231.14516 -154.1725,-93.5024 -173.4435,-224.61445 -180.0947,-249.55706 -53.90514,-8.39388 -24.7768,9.78373 -47.47896,18.4119 z"
       id="path4024-3"
       inkscape:connector-curvature="0"
       sodipodi:nodetypes="cccc" />
    <path
       style="color:#000000;display:inline;overflow:visible;visibility:visible;fill:#ffffff;fill-opacity:1;fill-rule:nonzero;stroke:none;stroke-width:1px;marker:none;enable-background:accumulate"
       d="m 1165.7536,858.24078 c 28.961,44.03488 26.3945,130.36717 18.3117,150.34892 -8.0828,19.9817 -19.1821,49.9462 -58.1326,50.2525 -38.9506,0.3064 -309.43062,23.4584 -349.6799,-22.7008 -40.24929,-46.15927 -39.70015,-126.94282 -5.16902,-181.43608 34.53113,-54.49326 221.14913,-44.89527 221.14913,-44.89527 0,0 129.11259,-7.65482 173.52069,48.43073 z"
       id="path3992"
       inkscape:connector-curvature="0" />
    <path
       style="display:inline;fill:#ffffff;fill-rule:evenodd;stroke:none;stroke-width:1px;stroke-linecap:butt;stroke-linejoin:miter;stroke-opacity:1"
       d="m 727.10685,996.89136 c 74.866,73.60324 103.78855,3.96944 102.68898,-66.62566 30.56158,76.2866 51.76994,93.3483 64.34785,55.7614 40.46149,32.3075 65.73312,23.245 85.79709,0 7.47835,29.8947 23.51573,17.8312 37.39523,16.3462 4.5714,6.7635 -11.1293,23.5669 52.3016,1.1789 4.1088,8.9521 9.6437,16.6614 46.7984,-3.1864 9.6256,36.3357 40.509,-2.01383 72.1476,-43.01599 -19.7117,50.40869 -20.8834,52.65279 4.3042,33.36049 -3.7956,8.56916 -9.9761,25.7196 15.4916,7.14359 -14.9785,38.31631 35.7014,-11.18964 99.1309,-66.22169 -31.7284,40.67928 -105.608,136.6484 -50.1911,130.9639 -7.7282,11.9924 -33.6691,26.098 44.3605,36.547 -15.3256,8.1378 -62.1143,-3.7539 -23.0841,30.7017 5.2293,4.0276 -12.277,6.4871 21.1342,17.0938 -19.723,-0.7216 -31.8186,1.8562 -13.6496,17.525 -36.0017,-0.8472 -22.5314,15.6287 3.8999,36.6432 -52.1355,-26.9556 -55.0047,-17.1588 -56.5481,-6.3727 -65.3412,-36.7496 -69.1768,-25.1792 -77.9972,-17.5251 -31.849,0.2868 -63.6979,-4.3411 -95.5469,36.6433 -8.3408,-25.4912 -25.0631,-45.1128 -95.54659,-27.0841 30.94761,-32.4293 -13.07948,-11.7684 -46.79837,1.5931 18.46514,-40.5122 -28.397,-13.9241 -87.74711,25.491 33.23583,-44.7368 -36.02827,-48.3517 -91.964,-16.5884 39.05508,-34.6799 50.49092,-43.5858 -31.77091,-45.2956 39.37305,-15.8531 30.0734,-37.6472 -10.81042,-73.5366 46.08773,10.5678 59.83505,0.7517 27.29901,-38.2364 50.26943,32.0011 24.17136,-0.3644 4.55734,-43.30394 z"
       id="path4508"
       inkscape:connector-curvature="0"
       sodipodi:nodetypes="cccccccccccccccccccccccccccc" />
    <path
       style="color:#000000;display:inline;overflow:visible;visibility:visible;fill:#ffffff;fill-opacity:1;fill-rule:nonzero;stroke:none;stroke-width:1px;marker:none;enable-background:accumulate"
       d="m 760.12564,1192.5775 c 8.00598,-57.0318 75.15648,-96.8019 244.18316,-80.6312 90.5398,8.6619 199.6579,-3.5616 188.9833,94.9884 -9.0737,83.77 -166.2012,69.9004 -196.89089,70.8837 -30.68973,0.9834 -187.78228,3.1783 -214.30819,-26.2153 -16.60461,-18.3996 -23.3017,-41.326 -21.96738,-59.0256 z"
       id="path4546-6-3"
       inkscape:connector-curvature="0"
       sodipodi:nodetypes="cssssc" />
    <path
       style="color:#000000;fill:#ffffff;fill-opacity:1;fill-rule:nonzero;stroke:none;stroke-width:1px;marker:none;visibility:visible;display:inline;overflow:visible;enable-background:accumulate"
       d="m 139.92716,1488.4784 c 38.50476,-47.6958 252.02205,-40.4013 318.43462,-28.1166 72.47738,13.4065 94.79201,32.4028 98.03297,74.0366 1.00107,12.8598 -4.86144,71.1761 -40.51247,82.6562 -35.65088,11.48 -137.74206,17.22 -173.39309,17.22 -35.65087,0 -149.45648,-7.307 -178.25484,-24.108 -27.54847,-16.0721 -62.81212,-73.9926 -24.30719,-121.6882 z"
       id="path3330"
       inkscape:connector-curvature="0"
       sodipodi:nodetypes="zsssssz" />
    <path
       style="color:#000000;display:inline;overflow:visible;visibility:visible;fill:#ffffff;fill-opacity:1;fill-rule:nonzero;stroke:none;stroke-width:1px;marker:none;enable-background:accumulate"
       d="m 265.76142,1678.0072 c -1.00912,-29.0026 4.13675,-48.2355 27.24676,-63.6443 21.03848,-14.0276 67.36577,-17.904 98.27821,-17.904 49.96563,-0.198 178.2246,-5.4181 163.08985,85.1901 -0.59776,42.9756 -75.12988,44.8494 -90.26705,48.3297 -15.13717,3.4803 -75.65003,4.2477 -89.77807,3.0877 -51.93832,2.1088 -106.76576,-19.7128 -108.5697,-55.0592 z"
       id="path3357"
       inkscape:connector-curvature="0"
       sodipodi:nodetypes="csccscc" />
    <path
       style="color:#000000;display:inline;overflow:visible;visibility:visible;fill:#ffffff;fill-opacity:1;fill-rule:nonzero;stroke:none;stroke-width:1px;marker:none;enable-background:accumulate"
       d="m 453.45684,1711.8886 c -0.37144,57.0275 25.35707,95.1396 67.76656,103.3368 -67.9487,-0.4363 -102.57173,-72.2713 -100.82948,-96.6104 1.70602,-23.8329 33.06292,-6.7264 33.06292,-6.7264 z"
       id="path5010"
       inkscape:connector-curvature="0"
       sodipodi:nodetypes="ccsc" />
    <path
       style="color:#000000;display:inline;overflow:visible;visibility:visible;fill:#ffffff;fill-opacity:1;fill-rule:nonzero;stroke:none;stroke-width:1px;marker:none;enable-background:accumulate"
       d="m 232.60887,2112.7468 c 28.82884,-21.6901 278.41375,-34.8028 344.5222,0.8436 55.17978,29.7537 33.65046,103.8509 -15.42321,120.9177 -49.0735,17.0669 -212.3232,15.086 -283.87185,7.3484 -68.12416,-7.3674 -79.56334,-29.6049 -82.91431,-74.38 -1.36765,-18.2745 8.85821,-33.0393 37.68717,-54.7297 z"
       id="path4040-4"
       inkscape:connector-curvature="0"
       sodipodi:nodetypes="zssssz" />
    <path
       style="color:#000000;display:inline;overflow:visible;visibility:visible;fill:#ffffff;fill-opacity:1;fill-rule:nonzero;stroke:none;stroke-width:1px;marker:none;enable-background:accumulate"
       d="m 535.00775,1986.8306 c -11.22357,-11.0259 -34.07155,-13.8129 -52.41966,-13.1663 -5.21231,0.2939 -10.58546,0.9606 -15.40703,2.9669 -4.5497,3.204 -5.8508,9.2452 -4.71647,14.4517 1.1116,7.6336 5.4512,15.1923 3.33691,23.0221 -1.67716,5.6622 -7.62933,7.7967 -12.46033,10.0265 -12.42532,5.4417 -25.66044,9.2324 -37.15366,16.6288 -13.48154,7.4861 -27.12386,16.3412 -35.233,29.8576 -3.11895,5.4019 -5.62626,11.4889 -5.13528,17.8477 0.51982,16.3695 10.44001,32.6806 25.75127,39.1373 10.15783,3.1917 22.85144,-2.6898 25.43476,-13.369 1.44801,-5.6168 -1.12924,-11.3042 -4.7776,-15.4765 -5.27333,-8.9228 -5.03206,-20.3779 -0.31332,-29.473 3.77147,-7.5698 9.88065,-13.877 17.08927,-18.2489 8.233,-8.5339 20.53978,-9.9068 31.26386,-13.4482 4.87531,-1.6909 9.9467,-3.8199 13.48797,-7.6632 3.74598,-6.6816 1.05856,-14.5289 -1.98107,-20.9052 -2.96548,-6.6569 -7.15746,-14.0436 -4.63677,-21.5174 1.0509,-5.4219 7.54846,-5.1616 11.76803,-6.5249 14.15942,-2.6164 28.95507,-0.7769 42.45081,4.0015 1.25162,0.5512 2.45101,1.1992 3.65131,1.8525 z"
       id="path4496"
       inkscape:connector-curvature="0"
       sodipodi:nodetypes="ccccccccccccccccccccc" />
    <path
       style="color:#000000;display:inline;overflow:visible;visibility:visible;fill:#ffffff;fill-opacity:1;fill-rule:nonzero;stroke:none;stroke-width:1px;marker:none;enable-background:accumulate"
       d="m 215.29356,2528.0155 c 9.655,-78.4304 99.91909,-134.4262 329.5865,-115.8152 123.02226,9.969 262.8327,17.4924 250.11894,132.4111 -12.7139,114.9186 -213.80757,108.6096 -255.42473,110.6088 -41.61715,1.9992 -257.55967,-13.6708 -294.1705,-53.444 -22.91755,-24.8968 -31.54594,-49.4446 -30.11021,-73.7607 z"
       id="path4546-6"
       inkscape:connector-curvature="0"
       sodipodi:nodetypes="cssssc" />
    <path
       style="fill:#ffffff;stroke:none"
       d="m 694.38649,2534.9643 c 31.16173,50.5895 56.21292,58.6934 72.83219,79.5631 16.61925,20.8701 -4.22375,65.3135 0.2296,80.4242 5.36252,14.254 23.11118,27.2288 57.37772,44.4988 -73.16324,-15.6884 -73.36945,-34.9149 -78.29883,-48.1564 -6.77646,-18.203 5.60657,-39.7648 -12.3168,-56.2686 -17.36077,-15.9861 -80.58056,-61.1983 -92.85364,-95.1241 -12.2733,-33.9259 -18.60006,-35.9967 -18.60006,-35.9967 z"
       id="path3282"
       inkscape:connector-curvature="0"
       sodipodi:nodetypes="csccssscc" />
  </g>
  <g
     inkscape:groupmode="layer"
     id="layer1"
     inkscape:label="txt">
    <text
       xml:space="preserve"
       style="font-style:normal;font-variant:normal;font-weight:normal;font-stretch:normal;font-size:11.0573225px;line-height:125%;font-family:Lavi;-inkscape-font-specification:Lavi;text-align:center;letter-spacing:0px;word-spacing:0px;text-anchor:middle;fill:#000000;fill-opacity:1;stroke:none"
       x="393.68546"
       y="916.58612"
       id="text4246"
       sodipodi:linespacing="125%"><tspan
         sodipodi:role="line"
         style="font-size:55.28661346px"
         x="393.68546"
         y="916.58612"
         id="tspan4176">A co</tspan><tspan
         sodipodi:role="line"
         style="font-size:55.28661346px"
         x="393.68546"
         y="985.6944"
         id="tspan4191">ze środowiskiem?</tspan></text>
    <text
       xml:space="preserve"
       style="font-style:normal;font-variant:normal;font-weight:normal;font-stretch:normal;font-size:12px;line-height:125%;font-family:Lavi;-inkscape-font-specification:Lavi;text-align:center;letter-spacing:0px;word-spacing:0px;text-anchor:middle;fill:#000000;fill-opacity:1;stroke:none"
       x="393.98053"
       y="1068.822"
       id="text4246-70"
       sodipodi:linespacing="125%"><tspan
         sodipodi:role="line"
         style="font-size:45px"
         x="393.98053"
         y="1068.822"
         id="tspan3630">Takie zanieczyszczanie</tspan><tspan
         sodipodi:role="line"
         style="font-size:45px"
         x="393.98053"
         y="1125.072"
         id="tspan4202">nie obejdzie się</tspan><tspan
         sodipodi:role="line"
         style="font-size:45px"
         x="393.98053"
         y="1181.322"
         id="tspan4204">bez poważnych</tspan><tspan
         sodipodi:role="line"
         style="font-size:45px"
         x="393.98053"
         y="1237.572"
         id="tspan4206">konsekwencji!</tspan></text>
    <text
       xml:space="preserve"
       style="font-style:normal;font-variant:normal;font-weight:normal;font-stretch:normal;font-size:11.69629097px;line-height:125%;font-family:Lavi;-inkscape-font-specification:Lavi;text-align:center;letter-spacing:0px;word-spacing:0px;text-anchor:middle;fill:#000000;fill-opacity:1;stroke:none"
       x="972.51471"
       y="242.65163"
       id="text4246-7"
       sodipodi:linespacing="125%"
       transform="scale(0.97469088,1.0259663)"><tspan
         sodipodi:role="line"
         style="font-size:58.48145294px;stroke:#000000;stroke-width:1.89999998;stroke-miterlimit:4;stroke-dasharray:none;stroke-opacity:1"
         x="972.51471"
         y="242.65163"
         id="tspan3649">Do tej pory</tspan><tspan
         sodipodi:role="line"
         style="font-size:58.48145294px;stroke:#000000;stroke-width:1.89999998;stroke-miterlimit:4;stroke-dasharray:none;stroke-opacity:1"
         x="972.51471"
         y="315.75345"
         id="tspan4217">nie miałyśmy</tspan><tspan
         sodipodi:role="line"
         style="font-size:58.48145294px;stroke:#000000;stroke-width:1.89999998;stroke-miterlimit:4;stroke-dasharray:none;stroke-opacity:1"
         x="972.51471"
         y="388.85526"
         id="tspan4219">z tym</tspan><tspan
         sodipodi:role="line"
         style="font-size:58.48145294px;stroke:#000000;stroke-width:1.89999998;stroke-miterlimit:4;stroke-dasharray:none;stroke-opacity:1"
         x="972.51471"
         y="461.95706"
         id="tspan4221">problemu!</tspan></text>
    <g
       id="g4246"
       transform="translate(-2.798354,0)">
      <text
         sodipodi:linespacing="125%"
         id="text4246-70-2"
         y="880.27979"
         x="969.58252"
         style="font-style:normal;font-variant:normal;font-weight:normal;font-stretch:normal;font-size:12px;line-height:125%;font-family:Lavi;-inkscape-font-specification:Lavi;text-align:center;letter-spacing:0px;word-spacing:0px;text-anchor:middle;fill:#000000;fill-opacity:1;stroke:none"
         xml:space="preserve"><tspan
           id="tspan3657"
           y="880.27979"
           x="969.58252"
           style="font-size:45px"
           sodipodi:role="line">Jesteśmy</tspan><tspan
           id="tspan4232"
           y="936.52979"
           x="969.58252"
           style="font-size:45px"
           sodipodi:role="line">wiedźmami Chaosu,</tspan><tspan
           id="tspan4234"
           y="992.77979"
           x="969.58252"
           style="font-size:45px"
           sodipodi:role="line">a nasze pomyłki</tspan><tspan
           id="tspan4244"
           y="1049.0298"
           x="969.58252"
           style="font-size:45px"
           sodipodi:role="line">są zakopywane</tspan><tspan
           y="1105.2798"
           x="969.58252"
           style="font-size:45px"
           sodipodi:role="line"
           id="tspan4189">głęboko pod ziemią!</tspan><tspan
           y="1161.5298"
           x="969.58252"
           style="font-size:45px"
           sodipodi:role="line"
           id="tspan4192">Nie będziemy</tspan><tspan
           y="1217.7798"
           x="969.58252"
           style="font-size:45px"
           sodipodi:role="line"
           id="tspan4194">o tym dyskutować!</tspan></text>
      <text
         transform="scale(0.97469088,1.0259663)"
         sodipodi:linespacing="125%"
         id="text4246-7-9"
         y="1096.5863"
         x="1000.3171"
         style="font-style:normal;font-variant:normal;font-weight:normal;font-stretch:normal;font-size:11.69629097px;line-height:125%;font-family:Lavi;-inkscape-font-specification:Lavi;text-align:center;letter-spacing:0px;word-spacing:0px;text-anchor:middle;fill:#000000;fill-opacity:1;stroke:none"
         xml:space="preserve"><tspan
           id="tspan4221-2"
           y="1096.5863"
           x="1000.3171"
           style="font-size:58.48145294px;stroke:#000000;stroke-width:2.24178886;stroke-miterlimit:4;stroke-dasharray:none;stroke-opacity:1"
           sodipodi:role="line" /></text>
    </g>
    <text
       xml:space="preserve"
       style="font-style:normal;font-variant:normal;font-weight:normal;font-stretch:normal;font-size:12px;line-height:125%;font-family:Lavi;-inkscape-font-specification:Lavi;text-align:center;letter-spacing:0px;word-spacing:0px;text-anchor:middle;fill:#000000;fill-opacity:1;stroke:none"
       x="340.22971"
       y="1517.3076"
       id="text4246-70-2-2"
       sodipodi:linespacing="125%"><tspan
         sodipodi:role="line"
         style="font-size:45px"
         x="340.22971"
         y="1517.3076"
         id="tspan3668">Spójrzcie,</tspan><tspan
         sodipodi:role="line"
         style="font-size:45px"
         x="340.22971"
         y="1573.5576"
         id="tspan4261">co znalazłam!</tspan></text>
    <text
       xml:space="preserve"
       style="font-style:normal;font-variant:normal;font-weight:normal;font-stretch:normal;font-size:12px;line-height:125%;font-family:Lavi;-inkscape-font-specification:Lavi;text-align:center;letter-spacing:0px;word-spacing:0px;text-anchor:middle;fill:#000000;fill-opacity:1;stroke:none"
       x="408.14322"
       y="1649.2581"
       id="text4246-70-2-2-2"
       sodipodi:linespacing="125%"><tspan
         sodipodi:role="line"
         style="font-size:45px"
         x="408.14322"
         y="1649.2581"
         id="tspan3670">Niewiary-</tspan><tspan
         sodipodi:role="line"
         style="font-size:45px"
         x="408.14322"
         y="1705.5081"
         id="tspan4265">godne!</tspan></text>
    <text
       xml:space="preserve"
       style="font-style:normal;font-variant:normal;font-weight:normal;font-stretch:normal;font-size:12px;line-height:125%;font-family:Lavi;-inkscape-font-specification:Lavi;text-align:center;letter-spacing:0px;word-spacing:0px;text-anchor:middle;fill:#000000;fill-opacity:1;stroke:none"
       x="402.34402"
       y="2159.3267"
       id="text4246-70-2-2-2-7"
       sodipodi:linespacing="125%"><tspan
         sodipodi:role="line"
         style="font-size:45px"
         x="402.34402"
         y="2159.3267"
         id="tspan3674">Jak to się tutaj</tspan><tspan
         sodipodi:role="line"
         style="font-size:45px"
         x="402.34402"
         y="2215.5767"
         id="tspan4269">znalazło?</tspan></text>
    <text
       xml:space="preserve"
       style="font-style:normal;font-variant:normal;font-weight:normal;font-stretch:normal;font-size:12px;line-height:125%;font-family:Lavi;-inkscape-font-specification:Lavi;text-align:center;letter-spacing:0px;word-spacing:0px;text-anchor:middle;fill:#000000;fill-opacity:1;stroke:none"
       x="508.50623"
       y="2487.3948"
       id="text4246-70-2-2-2-7-6"
       sodipodi:linespacing="125%"><tspan
         sodipodi:role="line"
         style="font-size:45px"
         x="508.50623"
         y="2487.3948"
         id="tspan4276">Potrzebuje strojenia,</tspan><tspan
         sodipodi:role="line"
         style="font-size:45px"
         x="508.50623"
         y="2543.6448"
         id="tspan4280">ale i bez niego</tspan><tspan
         sodipodi:role="line"
         style="font-size:45px"
         x="508.50623"
         y="2599.8948"
         id="tspan4284">da się coś wybrzdąkać.</tspan></text>
  </g>
</svg>
