<?xml version="1.0" encoding="UTF-8" standalone="no"?>
<!-- Created with Inkscape (http://www.inkscape.org/) -->

<svg
   xmlns:dc="http://purl.org/dc/elements/1.1/"
   xmlns:cc="http://creativecommons.org/ns#"
   xmlns:rdf="http://www.w3.org/1999/02/22-rdf-syntax-ns#"
   xmlns:svg="http://www.w3.org/2000/svg"
   xmlns="http://www.w3.org/2000/svg"
   xmlns:xlink="http://www.w3.org/1999/xlink"
   xmlns:sodipodi="http://sodipodi.sourceforge.net/DTD/sodipodi-0.dtd"
   xmlns:inkscape="http://www.inkscape.org/namespaces/inkscape"
   id="svg2"
   version="1.1"
   inkscape:version="0.91 r"
   width="2481"
   height="3503"
   sodipodi:docname="Pepper-and-Carrot_by-David-Revoy_E19P01.svg">
  <metadata
     id="metadata8">
    <rdf:RDF>
      <cc:Work
         rdf:about="">
        <dc:format>image/svg+xml</dc:format>
        <dc:type
           rdf:resource="http://purl.org/dc/dcmitype/StillImage" />
        <dc:title />
      </cc:Work>
    </rdf:RDF>
  </metadata>
  <defs
     id="defs6" />
  <sodipodi:namedview
     pagecolor="#ffffff"
     bordercolor="#666666"
     borderopacity="1"
     objecttolerance="10"
     gridtolerance="10"
     guidetolerance="10"
     inkscape:pageopacity="0"
     inkscape:pageshadow="2"
     inkscape:window-width="2560"
     inkscape:window-height="1028"
     id="namedview4"
     showgrid="false"
     inkscape:zoom="0.45172237"
     inkscape:cx="541.46802"
     inkscape:cy="1791.9625"
     inkscape:window-x="0"
     inkscape:window-y="0"
     inkscape:window-maximized="1"
     inkscape:current-layer="layer1"
     showguides="false" />
  <g
     inkscape:groupmode="layer"
     id="layer2"
     inkscape:label="artwork"
     sodipodi:insensitive="true">
    <image
       sodipodi:absref="/media/forge/Trashcan/Tests/pct/peppercarrot_ep19_translation/pl/../gfx_Pepper-and-Carrot_by-David-Revoy_E19P01.png"
       xlink:href="../gfx_Pepper-and-Carrot_by-David-Revoy_E19P01.png"
       y="0"
       x="0"
       id="image10"
       height="3503"
       width="2481" />
  </g>
  <g
     inkscape:groupmode="layer"
     id="layer3"
     inkscape:label="speechbubbles">
    <path
       style="color:#000000;display:inline;overflow:visible;visibility:visible;fill:#ffffff;fill-opacity:1;fill-rule:nonzero;stroke:none;stroke-width:1px;marker:none;enable-background:accumulate"
       d="m 1029.8393,1944.6884 c -4.0128,-29.8516 27.4228,-65.8653 141.2314,-57.9056 113.8089,7.9598 136.1975,21.984 139.559,60.2936 1.3936,15.8826 -28.9185,40.5945 -45.71,44.5744 -16.7915,3.9798 -86.4023,4.5754 -114.3882,1.3916 -27.9856,-3.1839 -88.0421,-10.1473 -104.8336,-24.4749 -16.7916,-14.3274 -13.9928,-20.6952 -15.8586,-23.8791 z"
       id="path3365"
       inkscape:connector-curvature="0"
       sodipodi:nodetypes="csssssc" />
    <path
       style="color:#000000;display:inline;overflow:visible;visibility:visible;fill:#ffffff;fill-opacity:1;fill-rule:nonzero;stroke:none;stroke-width:1px;marker:none;enable-background:accumulate"
       d="m 1339.2346,2076.8706 c -8.8916,54.0667 -49.131,78.2371 -82.523,92.8985 -62.3188,23.2222 -127.6242,11.5665 -190.4108,-0.9669 -32.5753,-8.9095 -66.1303,-47.3197 -62.7243,-99.1832 3.2917,-46.4894 34.8719,-76.7852 65.3104,-81.1038 44.6219,-15.0719 91.1584,-22.414 136.5287,-9.5916 38.958,7.3208 80.6808,9.3053 115.3794,38.2204 11.5958,15.2781 16.0511,38.1542 18.4396,59.7266 z"
       id="path3365-3"
       inkscape:connector-curvature="0" />
    <path
       style="fill:#ffffff;stroke:none"
       d="m 1017.5796,2279.7271 c 5.8015,-61.6305 51.1198,-94.9797 117.6384,-103.564 81.5502,-18.3183 157.5619,-26.7108 238.9422,-9.1588 53.2163,14.5189 96.9522,16.1672 138.2971,57.8418 27.417,30.565 37.2887,146.2343 -7.1187,176.2126 -46.2286,43.8283 -170.1019,53.5381 -232.7753,52.3401 -90.2079,1.8038 -169.2663,-6.1775 -213.8153,-42.6819 -41.6557,-35.0232 -46.8422,-85.3666 -41.1684,-130.9898 z"
       id="path3065"
       inkscape:connector-curvature="0"
       sodipodi:nodetypes="cccccccc" />
    <path
       style="display:inline;fill:#ffffff;stroke:none"
       d="m 1639.5841,2318.3167 c -21.9558,36.2988 -64.6442,61.9501 -96.7367,35.7869 -19.4449,-15.8524 -29.1134,-28.291 -29.1134,-28.291 l -6.3679,30.9322 20.7854,19.5483 c 0,0 65.508,31.9103 111.4326,-57.9764 z"
       id="path3063-1"
       inkscape:connector-curvature="0"
       sodipodi:nodetypes="cscccc" />
    <path
       style="color:#000000;display:inline;overflow:visible;visibility:visible;fill:#ffffff;fill-opacity:1;fill-rule:nonzero;stroke:none;stroke-width:1px;marker:none;enable-background:accumulate"
       d="m 1913.7084,2318.7633 c 22.0218,-14.8351 108.7391,-27.5791 195.348,-26.0229 86.6089,1.5563 169.6176,9.704 220.3618,46.2927 74.763,53.907 40.7099,177.1599 1.9878,197.9002 -28.0636,15.0314 -112.0563,28.518 -192.5037,30.0346 -80.4472,1.5168 -157.3491,-8.9363 -194.921,-22.5197 -32.4257,-11.723 -79.6687,-43.6247 -83.5261,-120.7802 -1.5743,-31.4904 9.21,-75.2341 53.2532,-104.9047 z"
       id="path4040"
       inkscape:connector-curvature="0"
       sodipodi:nodetypes="ssssssss" />
    <path
       style="color:#000000;display:inline;overflow:visible;visibility:visible;fill:#ffffff;fill-opacity:1;fill-rule:nonzero;stroke:none;stroke-width:1px;marker:none;enable-background:accumulate"
       d="m 2091.5868,2309.6031 c -12.6779,-33.6245 -30.9699,-60.7293 -65.977,-55.676 52.3023,-18.546 92.9308,35.3617 103.6224,53.2726 10.6914,17.9109 -37.6454,2.4034 -37.6454,2.4034 z"
       id="path5010"
       inkscape:connector-curvature="0" />
    <path
       style="color:#000000;display:inline;overflow:visible;visibility:visible;fill:#ffffff;fill-opacity:1;fill-rule:nonzero;stroke:none;stroke-width:1px;marker:none;enable-background:accumulate"
       d="m 628.01922,2726.3612 c -0.95298,-26.3558 9.57321,-45.2414 49.59603,-62.4534 40.023,-17.2119 96.82343,-9.0026 111.7267,-8.4347 69.9372,2.665 93.37108,11.5648 107.66493,30.9284 14.29393,19.3634 17.94569,15.1087 17.44053,48.6465 -0.45226,30.0255 -4.49249,44.1361 -21.64514,50.5905 -17.15276,6.4545 -148.92483,13.8487 -169.21221,13.5611 -19.86289,-0.2816 -45.15266,-3.5096 -64.84564,-14.0823 -18.59066,-9.9808 -29.77229,-32.4002 -30.7252,-58.7561 z"
       id="path3373"
       inkscape:connector-curvature="0"
       sodipodi:nodetypes="zsssssssz" />
    <path
       style="color:#000000;display:inline;overflow:visible;visibility:visible;fill:#ffffff;fill-opacity:1;fill-rule:nonzero;stroke:none;stroke-width:1px;marker:none;enable-background:accumulate"
       d="m 653.17027,2853.9321 c 9.91133,-71.4433 85.33335,-96.2842 300.62391,-100.5518 56.30772,-1.1161 151.16032,7.4337 195.37852,24.0922 44.2183,16.6585 69.3963,73.9993 62.7888,126.3501 -13.2151,104.7015 -151.2975,87.2502 -189.2911,88.4821 -37.99357,1.2319 -299.48532,4.6116 -336.9684,-42.9057 -35.94549,-45.5681 -34.1836,-73.2947 -32.53173,-95.4669 z"
       id="path4546"
       inkscape:connector-curvature="0"
       sodipodi:nodetypes="csssssc" />
    <path
       style="color:#000000;display:inline;overflow:visible;visibility:visible;fill:#ffffff;fill-opacity:1;fill-rule:nonzero;stroke:none;stroke-width:1px;marker:none;enable-background:accumulate"
       d="m 847.67224,2985.8994 c 32.61893,-42.4872 210.03646,-38.8602 269.06646,-20.4526 59.0299,18.4073 84.5489,23.4094 83.7401,61.358 -0.7572,35.5277 -19.7934,68.7281 -49.9949,78.9545 -30.2013,10.2263 -101.0118,10.0146 -131.2132,10.0146 -30.20128,0 -126.6106,-6.509 -151.00686,-21.4754 -23.33742,-14.3168 -53.21068,-65.9121 -20.5916,-108.3991 z"
       id="path3330"
       inkscape:connector-curvature="0"
       sodipodi:nodetypes="zsssssz" />
    <path
       style="color:#000000;display:inline;overflow:visible;visibility:visible;fill:#ffffff;fill-opacity:1;fill-rule:nonzero;stroke:none;stroke-width:1px;marker:none;enable-background:accumulate"
       d="m 929.99953,3158.9683 c 39.78505,-10.9584 53.20162,-17.1208 58.43434,-65.1641 5.23266,-48.0433 23.16173,-44.6696 23.16173,-44.6696 l 14.7504,30.3838 c 0,0 -18.3423,101.2684 -96.34647,79.4499 z"
       id="path3072"
       inkscape:connector-curvature="0" />
    <path
       style="fill:#ffffff;fill-rule:evenodd;stroke:none;stroke-width:1px;stroke-linecap:butt;stroke-linejoin:miter;stroke-opacity:1"
       d="m 1891.4248,3239.5273 c 26.3898,2.1524 60.7586,-8.5621 39.4235,-40.9681 38.3979,25.9662 74.7721,30.83 113.0657,2.4031 -5.5978,28.6978 57.0153,30.9119 78.4695,11.9225 -6.546,29.906 23.5543,31.0596 48.7068,32.0091 -53.2076,36.5615 -25.2677,48.1891 -4.3022,61.9598 -52.2903,-10.1884 -39.6437,10.4551 -45.8893,22.1285 -44.8572,-26.449 -77.4789,-20.1718 -103.251,4.4257 -13.479,-13.3768 -17.7099,-41.0242 -67.3998,1.4752 18.2722,-36.6892 -5.6785,-32.8382 -44.4553,-14.7522 8.9214,-8.4337 46.471,-30.9658 -14.3679,-28.9705 9.5003,-2.97 17.1236,-6.2033 22.4963,-9.7524 5.3727,-3.5491 -29.1749,-13.0242 -28.6769,-17.2571 0.4981,-4.2329 36.0419,-3.2235 30.9182,-8.2451 -5.1237,-5.0215 -13.2451,-10.4635 -24.7376,-16.3785 z"
       id="path4584"
       inkscape:connector-curvature="0"
       sodipodi:nodetypes="cccccccccccsssc" />
    <path
       style="color:#000000;display:inline;overflow:visible;visibility:visible;fill:#ffffff;fill-opacity:1;fill-rule:nonzero;stroke:none;stroke-width:1px;marker:none;enable-background:accumulate"
       d="m 1929.0839,3276.1051 c -26.7744,0.1934 -96.6935,-12.0611 -103.8888,-13.0148 6.0705,-5.4371 10.1298,-10.8932 13.4021,-15.1162 -13.7156,-0.9263 -59.5001,-2.596 -79.7676,1.5975 50.7453,-11.4228 73.8083,-12.6417 95.8809,-9.8645 -2.9601,5.998 -5.8701,9.4267 -7.3188,12.6033 18.7307,6.708 117.9634,8.8349 106.078,1.4065 z"
       id="path5066"
       inkscape:connector-curvature="0"
       sodipodi:nodetypes="cccccccc" />
  </g>
  <g
     inkscape:groupmode="layer"
     id="layer1"
     inkscape:label="txt"
     style="display:inline">
    <text
       xml:space="preserve"
       style="font-style:normal;font-variant:normal;font-weight:normal;font-stretch:normal;font-size:12px;line-height:125%;font-family:Lavi;-inkscape-font-specification:Lavi;text-align:center;letter-spacing:0px;word-spacing:0px;text-anchor:middle;fill:#000000;fill-opacity:1;stroke:none"
       x="1172.9918"
       y="1953.326"
       id="text4246-3-9"
       sodipodi:linespacing="125%"><tspan
         sodipodi:role="line"
         style="font-size:45px"
         x="1172.9918"
         y="1953.326"
         id="tspan4183-8">Idę.</tspan></text>
    <text
       xml:space="preserve"
       style="font-style:normal;font-variant:normal;font-weight:normal;font-stretch:normal;font-size:12px;line-height:125%;font-family:Lavi;-inkscape-font-specification:Lavi;text-align:center;letter-spacing:0px;word-spacing:0px;text-anchor:middle;fill:#000000;fill-opacity:1;stroke:none"
       x="2132.8508"
       y="2365.9688"
       id="text4246"
       sodipodi:linespacing="125%"><text
         xml:space="preserve"
         style="font-style:normal;font-variant:normal;font-weight:normal;font-stretch:normal;font-size:45px;line-height:125%;font-family:Lavi;-inkscape-font-specification:Lavi;text-align:center;letter-spacing:0px;word-spacing:0px;text-anchor:middle;fill:#000000;fill-opacity:1;stroke:none"
         x="1170.6487"
         y="2033.7303"
         id="text4246-3"
         sodipodi:linespacing="125%">Nie ma sensu</text>
<tspan
         sodipodi:role="line"
         style="font-size:45px"
         x="1170.6487"
         y="2033.7303"
         id="tspan4191" /><tspan
         sodipodi:role="line"
         style="font-size:45px"
         x="1170.6487"
         y="2089.9805"
         id="tspan4203">patrzeć,</tspan><tspan
         sodipodi:role="line"
         style="font-size:45px"
         x="1170.6487"
         y="2146.2305"
         id="tspan4205">jak kopiesz.</tspan></text>
    <text
       xml:space="preserve"
       style="font-style:normal;font-variant:normal;font-weight:normal;font-stretch:normal;font-size:12px;line-height:125%;font-family:Lavi;-inkscape-font-specification:Lavi;text-align:center;letter-spacing:0px;word-spacing:0px;text-anchor:middle;fill:#000000;fill-opacity:1;stroke:none"
       x="1276.1121"
       y="2260.9343"
       id="text4246-3-7"
       sodipodi:linespacing="125%"><tspan
         sodipodi:role="line"
         style="font-size:45px"
         x="1276.1121"
         y="2260.9343"
         id="tspan4220">Jak najszybciej</tspan><tspan
         sodipodi:role="line"
         style="font-size:45px"
         x="1276.1121"
         y="2317.1843"
         id="tspan4250">pozbądź się tych mikstur</tspan><tspan
         sodipodi:role="line"
         style="font-size:45px"
         x="1276.1121"
         y="2373.4343"
         id="tspan4252">i udaj się na spoczynek.</tspan></text>
    <text
       xml:space="preserve"
       style="font-style:normal;font-variant:normal;font-weight:normal;font-stretch:normal;font-size:12px;line-height:125%;font-family:Lavi;-inkscape-font-specification:Lavi;text-align:center;letter-spacing:0px;word-spacing:0px;text-anchor:middle;fill:#000000;fill-opacity:1;stroke:none"
       x="2119.4424"
       y="2391.5229"
       id="text4246-3-7-6"
       sodipodi:linespacing="125%"><tspan
         sodipodi:role="line"
         style="font-size:45px"
         x="2119.4424"
         y="2391.5229"
         id="tspan4189">Jutro pewnie i tak</tspan><tspan
         sodipodi:role="line"
         style="font-size:45px"
         x="2119.4424"
         y="2447.7729"
         id="tspan4196">nie wygrasz, ale kto wie,</tspan><tspan
         sodipodi:role="line"
         style="font-size:45px"
         x="2119.4424"
         y="2504.0229"
         id="tspan4198">kto wie.</tspan></text>
    <text
       xml:space="preserve"
       style="font-style:normal;font-variant:normal;font-weight:normal;font-stretch:normal;font-size:12px;line-height:125%;font-family:Lavi;-inkscape-font-specification:Lavi;text-align:center;letter-spacing:0px;word-spacing:0px;text-anchor:middle;fill:#000000;fill-opacity:1;stroke:none"
       x="774.33942"
       y="2710.7134"
       id="text4246-3-7-6-7"
       sodipodi:linespacing="125%"><tspan
         sodipodi:role="line"
         style="font-size:42.5px"
         x="774.33942"
         y="2710.7134"
         id="tspan3987">Jasne,</tspan><tspan
         sodipodi:role="line"
         style="font-size:42.5px"
         x="774.33942"
         y="2763.8384"
         id="tspan4256">pospieszę się.</tspan></text>
    <text
       xml:space="preserve"
       style="font-style:normal;font-variant:normal;font-weight:normal;font-stretch:normal;font-size:12px;line-height:125%;font-family:Lavi;-inkscape-font-specification:Lavi;text-align:center;letter-spacing:0px;word-spacing:0px;text-anchor:middle;fill:#000000;fill-opacity:1;stroke:none"
       x="932.02167"
       y="2826.9932"
       id="text4246-3-7-6-7-0"
       sodipodi:linespacing="125%"><tspan
         sodipodi:role="line"
         style="font-size:45px"
         x="932.02167"
         y="2826.9932"
         id="tspan4263">Poza tym,</tspan><tspan
         sodipodi:role="line"
         style="font-size:45px"
         x="932.02167"
         y="2883.2432"
         id="tspan4267">dlaczego musimy</tspan><tspan
         sodipodi:role="line"
         style="font-size:45px"
         x="932.02167"
         y="2939.4932"
         id="tspan4273">wszystko zakopać?</tspan></text>
    <text
       xml:space="preserve"
       style="font-style:normal;font-variant:normal;font-weight:normal;font-stretch:normal;font-size:12px;line-height:125%;font-family:Lavi;-inkscape-font-specification:Lavi;text-align:center;letter-spacing:0px;word-spacing:0px;text-anchor:middle;fill:#000000;fill-opacity:1;stroke:none"
       x="1019.3007"
       y="3017.603"
       id="text4246-3-7-6-7-0-9"
       sodipodi:linespacing="125%"><tspan
         sodipodi:role="line"
         style="font-size:45px"
         x="1019.3007"
         y="3017.603"
         id="tspan4782">Nie byłoby</tspan><tspan
         sodipodi:role="line"
         style="font-size:45px"
         x="1019.3007"
         y="3073.853"
         id="tspan4277">lepiej, gdyby...</tspan></text>
    <text
       xml:space="preserve"
       style="font-style:normal;font-variant:normal;font-weight:normal;font-stretch:normal;font-size:42.5px;line-height:125%;font-family:Lavi;-inkscape-font-specification:Lavi;text-align:center;letter-spacing:0px;word-spacing:0px;text-anchor:middle;fill:#000000;fill-opacity:1;stroke:none"
       x="2028.5259"
       y="3277.0728"
       id="text4246-3-7-6-7-0-9-3"
       sodipodi:linespacing="125%"><tspan
         sodipodi:role="line"
         style="font-size:40px"
         x="2028.5259"
         y="3277.0728"
         id="tspan4464-5">Gdyby CO?!</tspan></text>
  </g>
</svg>
