<?xml version="1.0" encoding="UTF-8" standalone="no"?>
<!-- Created with Inkscape (http://www.inkscape.org/) -->

<svg
   xmlns:dc="http://purl.org/dc/elements/1.1/"
   xmlns:cc="http://creativecommons.org/ns#"
   xmlns:rdf="http://www.w3.org/1999/02/22-rdf-syntax-ns#"
   xmlns:svg="http://www.w3.org/2000/svg"
   xmlns="http://www.w3.org/2000/svg"
   xmlns:xlink="http://www.w3.org/1999/xlink"
   xmlns:sodipodi="http://sodipodi.sourceforge.net/DTD/sodipodi-0.dtd"
   xmlns:inkscape="http://www.inkscape.org/namespaces/inkscape"
   id="svg2"
   version="1.1"
   inkscape:version="0.91 r13725"
   width="2481"
   height="3503"
   sodipodi:docname="Pepper-and-Carrot_by-David-Revoy_E19P02.svg">
  <metadata
     id="metadata8">
    <rdf:RDF>
      <cc:Work
         rdf:about="">
        <dc:format>image/svg+xml</dc:format>
        <dc:type
           rdf:resource="http://purl.org/dc/dcmitype/StillImage" />
        <dc:title />
      </cc:Work>
    </rdf:RDF>
  </metadata>
  <defs
     id="defs6">
    <filter
       inkscape:collect="always"
       style="color-interpolation-filters:sRGB"
       id="filter5236-4-16-3"
       x="-0.0089085409"
       width="1.0178171"
       y="-0.027928527"
       height="1.0558571">
      <feGaussianBlur
         inkscape:collect="always"
         stdDeviation="0.49168068"
         id="feGaussianBlur5238-0-4-6" />
    </filter>
    <filter
       inkscape:collect="always"
       style="color-interpolation-filters:sRGB"
       id="filter5236-4-16"
       x="-0.0089085409"
       width="1.0178171"
       y="-0.027928527"
       height="1.0558571">
      <feGaussianBlur
         inkscape:collect="always"
         stdDeviation="0.49168068"
         id="feGaussianBlur5238-0-4" />
    </filter>
  </defs>
  <sodipodi:namedview
     pagecolor="#ffffff"
     bordercolor="#666666"
     borderopacity="1"
     objecttolerance="10"
     gridtolerance="10"
     guidetolerance="10"
     inkscape:pageopacity="0"
     inkscape:pageshadow="2"
     inkscape:window-width="1252"
     inkscape:window-height="1048"
     id="namedview4"
     showgrid="false"
     inkscape:zoom="0.4224276"
     inkscape:cx="1359.5184"
     inkscape:cy="2417.6985"
     inkscape:window-x="659"
     inkscape:window-y="-2"
     inkscape:window-maximized="0"
     inkscape:current-layer="layer3" />
  <g
     inkscape:groupmode="layer"
     id="layer2"
     inkscape:label="artwork"
     sodipodi:insensitive="true">
    <image
       sodipodi:absref="C:\Users\Kari\Documents\Pepper and Carrot\Episode 19\fi\..\peppercarrot_ep19_translation-master\en\.\..\gfx_Pepper-and-Carrot_by-David-Revoy_E19P02.png"
       xlink:href="..\peppercarrot_ep19_translation-master\en\.\..\gfx_Pepper-and-Carrot_by-David-Revoy_E19P02.png"
       y="0"
       x="0"
       id="image10"
       height="3503"
       width="2481" />
  </g>
  <g
     inkscape:groupmode="layer"
     id="layer4"
     inkscape:label="translatornotes"
     sodipodi:insensitive="true">
    <path
       inkscape:connector-curvature="0"
       id="path3446"
       d="m 2763.8482,1498.4924 0,-189.0352 -203.8301,0 0,90.9805 -10,0 0,-15.6308 -30.9824,26.9824 30.9824,26.9804 0,-16.6171 10,0 0,76.3398 203.8301,0 z"
       style="color:#000000;clip-rule:nonzero;display:inline;overflow:visible;visibility:visible;opacity:0.481;isolation:auto;mix-blend-mode:normal;color-interpolation:sRGB;color-interpolation-filters:linearRGB;solid-color:#000000;solid-opacity:1;fill:#ffe680;fill-opacity:1;fill-rule:nonzero;stroke:#565656;stroke-width:1.20000005;stroke-linecap:butt;stroke-linejoin:miter;stroke-miterlimit:4;stroke-dasharray:none;stroke-dashoffset:0;stroke-opacity:1;marker:none;color-rendering:auto;image-rendering:auto;shape-rendering:auto;text-rendering:auto;enable-background:accumulate" />
    <flowRoot
       transform="translate(2793.4167,295.2096)"
       style="font-style:normal;font-variant:normal;font-weight:normal;font-stretch:normal;font-size:25.3241539px;line-height:125%;font-family:Lavi;-inkscape-font-specification:'Lavi, Normal';text-align:center;letter-spacing:0px;word-spacing:0px;writing-mode:lr-tb;text-anchor:middle;display:inline;opacity:0.481;fill:#000000;fill-opacity:1;stroke:none;stroke-width:1px;stroke-linecap:butt;stroke-linejoin:miter;stroke-opacity:1"
       id="flowRoot3448"
       xml:space="preserve"><flowRegion
         id="flowRegion3450"><rect
           y="1061.6674"
           x="-275.14545"
           height="247.52747"
           width="291.95547"
           id="rect3452" /></flowRegion><flowPara
         id="flowPara3473">labels</flowPara><flowPara
         id="flowPara4255">in the </flowPara><flowPara
         id="flowPara4257">garden :-)</flowPara></flowRoot>  </g>
  <g
     inkscape:groupmode="layer"
     id="layer3"
     inkscape:label="speechbubbles"
     style="display:inline">
    <path
       style="color:#000000;display:inline;overflow:visible;visibility:visible;fill:#ffffff;fill-opacity:1;fill-rule:nonzero;stroke:none;stroke-width:1px;marker:none;enable-background:accumulate"
       d="m 1058.3774,203.16753 c 21.8414,-31.87178 230.3298,-50.0847 296.2118,1.09972 54.9907,42.72289 61.7652,135.52246 20.9123,160.87846 -40.853,25.3561 -202.3143,26.43359 -267.9119,15.92531 -62.4581,-10.00536 -69.7582,-36.08443 -81.0467,-101.21539 -4.6074,-26.58249 9.9928,-44.81623 31.8345,-76.6881 z"
       id="path4040-4"
       inkscape:connector-curvature="0"
       sodipodi:nodetypes="zssssz" />
    <path
       style="color:#000000;display:inline;overflow:visible;visibility:visible;fill:#ffffff;fill-opacity:1;fill-rule:nonzero;stroke:none;stroke-width:1px;marker:none;enable-background:accumulate"
       d="m 1218.6195,471.60657 c 6.8921,-79.99361 75.774,-136.92767 252.0955,-117.45099 94.4472,10.43269 201.7583,18.40618 192.7593,135.61853 -8.999,117.21223 -163.318,110.3469 -195.2332,112.29768 -31.9153,1.9509 -197.6878,-14.49623 -226.0366,-55.15064 -17.7459,-25.44858 -24.5267,-50.5104 -23.585,-75.31458 z"
       id="path4546-6"
       inkscape:connector-curvature="0"
       sodipodi:nodetypes="cssssc" />
    <path
       style="color:#000000;display:inline;overflow:visible;visibility:visible;fill:#ffffff;fill-opacity:1;fill-rule:nonzero;stroke:none;stroke-width:1px;marker:none;enable-background:accumulate"
       d="m 1376.2281,597.42803 c 50.1003,-56.53134 312.6047,-44.42084 405.5611,-31.70856 138.0035,18.87273 132.1079,71.16786 136.325,86.13526 4.2167,14.96728 -6.3255,84.36126 -52.7128,97.96804 -46.3871,13.60664 -179.2229,20.40995 -225.61,20.40995 -46.3871,0 -194.4651,-8.66058 -231.9361,-28.57405 -35.8446,-19.04932 -81.7279,-87.69942 -31.6272,-144.23064 z"
       id="path3330"
       inkscape:connector-curvature="0"
       sodipodi:nodetypes="zsssssz" />
    <path
       style="color:#000000;display:inline;overflow:visible;visibility:visible;fill:#ffffff;fill-opacity:1;fill-rule:nonzero;stroke:none;stroke-width:1px;marker:none;enable-background:accumulate"
       d="m 1537.5273,696.39507 c -4.748,19.68499 -0.6503,33.38997 2.5742,37.35036 3.2245,3.96027 2.3513,12.12365 5.2378,17.57337 2.3614,4.51862 3.5729,10.81257 -0.8434,12.64306 -4.4163,1.83058 -29.4289,3.69855 -33.6755,16.66121 -4.2467,12.96272 3.9771,24.00648 14.1454,30.32451 10.1684,6.31815 24.4145,10.44127 22.2717,20.40102 -2.1427,9.95976 -9.8422,13.23017 -15.8741,13.66024 -6.0318,0.43007 -42.6593,-1.86158 -51.9545,1.56498 -9.295,3.4266 -34.8875,18.35716 -31.0179,31.36521 11.9004,-13.15184 18.3151,-19.01847 27.1348,-20.36055 8.8198,-1.34212 24.7212,-5.09072 34.6744,-1.78852 9.9534,3.30225 30.2251,7.01956 38.1327,2.88942 7.9077,-4.13 22.6869,-13.91278 22.9796,-24.81049 0.2928,-10.89767 -5.2053,-22.98724 -21.3925,-31.19418 -10.1682,-6.31811 -14.5522,-10.2849 -13.6078,-13.29434 0.9444,-3.00939 11.8681,-7.35452 23.4562,-6.13032 11.5882,1.22424 17.0469,-9.49086 18.0108,-15.97871 0.9638,-6.48781 -2.7884,-15.67273 -3.2186,-21.7046 -0.4301,-6.03183 -6.7045,-40.19004 -6.7045,-40.19004 z"
       id="path5058"
       inkscape:connector-curvature="0"
       sodipodi:nodetypes="cscsssssscssssccscccc" />
    <path
       style="color:#000000;display:inline;overflow:visible;visibility:visible;fill:#ffffff;fill-opacity:1;fill-rule:nonzero;stroke:none;stroke-width:1px;marker:none;enable-background:accumulate"
       d="m 1362.5601,1846.3516 c 8.9186,-69.8494 57.8334,-95.0896 165.3628,-98.7527 53.3881,-1.8188 246.7519,-8.1256 325.1328,4.5118 78.3809,12.6375 145.4746,51.3422 139.5289,102.5251 -5.9456,51.1828 -12.9784,90.8284 -98.5785,105.3166 -85.6002,14.4881 -249.7676,3.8187 -266.8616,4.4209 -34.1878,1.2043 -211.2519,-15.7854 -240.8015,-51.7851 -18.4972,-22.5348 -25.2693,-44.559 -23.7829,-66.2366 z"
       id="path4546-6-3"
       inkscape:connector-curvature="0"
       sodipodi:nodetypes="cssssssc" />
    <path
       style="color:#000000;display:inline;overflow:visible;visibility:visible;fill:#ffffff;fill-opacity:1;fill-rule:nonzero;stroke:none;stroke-width:1px;marker:none;enable-background:accumulate"
       d="m 1760.2318,1983.0096 c -2.1894,-13.9006 21.8159,-72.4119 155.3725,-63.1448 133.5566,9.2671 147.5063,20.9339 153.6003,70.8244 2.2523,18.4386 -18.5316,45.3021 -38.2367,49.9356 -19.7051,4.6335 -77.3192,17.7137 -110.1609,14.007 -32.8418,-3.7069 -81.3209,-2.8275 -129.6411,-22.2636 -29.1638,-11.7307 -28.7446,-45.6518 -30.9341,-49.3586 z"
       id="path3365"
       inkscape:connector-curvature="0"
       sodipodi:nodetypes="csssssc" />
    <path
       style="fill:#ffffff;fill-opacity:1;stroke:none"
       d="m 1696.3583,2181.1508 c -12.9657,-128.9785 79.3616,-173.7193 325.2572,-173.5363 245.8958,0.1828 345.3922,36.9011 355.7244,113.6938 23.1033,171.7155 -127.8242,214.5432 -208.7104,225.2019 -161.5671,21.2904 -395.0593,-18.7705 -428.0501,-54.7336 -32.9907,-35.9632 -41.3748,-76.903 -44.2211,-110.6258 z"
       id="path3238"
       inkscape:connector-curvature="0"
       sodipodi:nodetypes="cssssc" />
    <path
       style="color:#000000;display:inline;overflow:visible;visibility:visible;fill:#ffffff;fill-opacity:1;fill-rule:nonzero;stroke:none;stroke-width:1px;marker:none;enable-background:accumulate"
       d="m 1882.8016,2295.7967 c -30.6436,39.5697 -91.823,73.3362 -171.3605,30.1552 76.0815,26.4581 119.8575,-5.9599 145.0149,-45.5895 21.7184,-34.2122 33.4899,-49.0683 33.4899,-49.0683 z"
       id="path4440"
       inkscape:connector-curvature="0"
       sodipodi:nodetypes="ccscc" />
    <path
       style="color:#000000;display:inline;overflow:visible;visibility:visible;fill:#ffffff;fill-opacity:1;fill-rule:nonzero;stroke:none;stroke-width:1px;marker:none;enable-background:accumulate"
       d="m 101.47155,2779.5765 c 27.09507,-12.9482 39.93756,-21.9225 0.4733,-40.5523 8.1029,-0.1415 53.32149,-2.5332 10.08827,-38.9123 14.25369,4.6961 37.04704,17.1652 11.38959,-43.225 15.42716,9.6279 36.82591,40.4133 18.05526,-16.6278 20.32725,19.2785 47.10786,7.0902 41.62566,-3.0371 16.35947,12.2929 48.48768,11.2765 45.73561,0.8452 12.02796,11.3798 44.61202,14.7161 42.05498,-4.3573 9.99419,13.1107 41.01125,11.7601 37.97052,0.6207 26.20339,13.2604 64.08566,21.4336 78.40263,2.9457 12.22497,17.4967 69.09018,12.2131 116.78339,0.2712 0.74708,12.3503 53.82985,14.5184 97.09192,-5.5868 0.65478,18.7621 16.26634,25.1195 35.34325,11.312 6.81244,7.7013 4.99422,12.181 31.76562,-6.0507 -1.27808,12.5374 3.48712,24.1039 22.13962,12.1015 3.24931,7.756 -8.64121,27.8583 38.50392,-1.5127 0.31166,10.9639 -10.75491,32.4936 29.84042,6.0508 -32.93174,65.1407 -14.67972,58.1687 7.70072,45.3802 -17.42579,38.4271 -39.90097,86.089 4.38461,84.3369 -34.67601,8.8773 -34.06982,22.0774 -29.41204,42.7279 -43.46028,-41.584 -48.56669,-9.9815 -67.38173,-4.5379 -19.86287,-6.918 -38.16163,-32.269 -61.60596,3.0254 -35.91556,-14.5242 -43.03621,-1.2022 -54.86801,7.5635 -62.74724,-27.8727 -61.26505,-5.2786 -89.52144,-6.051 -16.70624,-34.4781 -54.40625,-8.4728 -81.82066,-12.1012 -34.65332,-28.2724 -86.21899,-3.4895 -113.19583,7.4089 13.185,-17.6608 -19.28422,-33.4269 -50.1627,4.8719 15.33362,-32.3625 -9.82429,-43.2735 -56.79312,-1.5942 22.07187,-38.3468 -8.45373,-32.2353 -42.63664,-7.6613 33.45488,-37.2634 -1.89725,-40.4576 -21.95116,-37.6542 z"
       id="path3557"
       inkscape:connector-curvature="0"
       sodipodi:nodetypes="cccccccccccccccccccccccccccccc" />
    <path
       style="color:#000000;display:inline;overflow:visible;visibility:visible;fill:#ffffff;fill-opacity:1;fill-rule:nonzero;stroke:none;stroke-width:1px;marker:none;enable-background:accumulate"
       d="m 271.05954,2877.3902 c 8.43841,-79.3991 93.40373,-137.0817 311.0341,-121.0107 116.57455,8.6085 249.02327,14.5441 238.01599,130.8649 -11.00741,116.3205 -201.47202,112.3441 -240.8598,114.8619 -39.38777,2.5178 -243.99617,-10.7441 -279.01838,-50.5126 -21.9231,-24.8942 -30.3132,-49.6058 -29.17191,-74.2035 z"
       id="path4546"
       inkscape:connector-curvature="0"
       sodipodi:nodetypes="cssssc" />
    <path
       style="color:#000000;display:inline;overflow:visible;visibility:visible;fill:#ffffff;fill-opacity:1;fill-rule:nonzero;stroke:none;stroke-width:1px;marker:none;enable-background:accumulate"
       d="m 990.3039,2942.0433 c -39.7219,-30.7338 -84.6659,-56.332 -118.3207,-93.0329 l 9.2071,41.4633 c -19.1495,-7.3977 -31.9655,-24.339 -46.9322,-38.0398 l 1.0996,26.2988 c -44.9905,-17.9715 -75.7521,-49.3371 -113.3909,-74.2288 l 5.8989,45.8738 c 41.0512,21.0955 84.9859,35.8216 122.7937,64.0815 l 1.7812,-25.6614 c 14.445,8.0961 28.5921,16.7337 41.4085,27.7896 l -0.8973,-32.5393 z"
       id="path4032-6"
       inkscape:connector-curvature="0"
       sodipodi:nodetypes="cccccccccccc" />
    <path
       style="fill:#ffffff;stroke:none"
       d="m 1699.0833,2771.0202 c 7.8727,-60.4636 55.3557,-85.0538 76.9013,-93.079 21.5453,-8.0252 111.9947,-18.3199 171.0785,-16.548 59.0838,1.7719 205.5508,10.4999 230.1828,13.4066 24.6321,2.9066 90.3455,48.234 89.6405,87.2344 -0.7048,39.0001 -13.8808,64.619 -49.7829,87.3886 -35.9024,22.7698 -250.0922,27.1856 -263.2886,24.6219 -13.1968,-2.5636 -189.4332,-23.0237 -200.4337,-29.8572 -11.0004,-6.8334 -55.5826,-25.5131 -54.2979,-73.1673 z"
       id="path3278"
       inkscape:connector-curvature="0" />
    <path
       style="color:#000000;display:inline;overflow:visible;visibility:visible;fill:#ffffff;fill-opacity:1;fill-rule:nonzero;stroke:none;stroke-width:1px;marker:none;enable-background:accumulate"
       d="m 1734.621,2884.7692 c 45.0869,-43.2178 425.6692,-90.1281 559.4304,-1.0652 133.7609,89.063 52.6273,195.9386 -24.121,229.9445 -76.748,34.0059 -302.6068,71.2504 -405.6686,42.1024 -103.0617,-29.1478 -183.3405,-72.7182 -188.5813,-161.9326 -2.1389,-36.412 13.8539,-65.831 58.9405,-109.0491 z"
       id="path4040"
       inkscape:connector-curvature="0"
       sodipodi:nodetypes="zssssz" />
    <path
       style="display:inline;fill:#ffffff;fill-rule:evenodd;stroke:none;stroke-width:1px;stroke-linecap:butt;stroke-linejoin:miter;stroke-opacity:1"
       d="m 1889.1622,3103.4383 c 47.6533,31.0356 74.7973,18.4147 73.9793,-53.7268 22.7352,77.9577 38.5122,95.3931 47.8692,56.9829 30.0997,33.0151 48.8995,23.7542 63.8254,0 5.5632,30.5494 17.4936,18.2218 27.8187,16.7043 3.4006,6.9115 -8.2792,24.083 38.9078,1.2046 3.0565,9.1483 7.1739,17.0264 34.8137,-3.2561 7.1607,37.1315 30.1352,-2.058 53.6716,-43.9583 -14.664,51.5129 -8.5834,58.7887 10.1539,39.0739 -8.5666,21.2134 -13.6903,37.6349 18.8574,1.6281 -11.1426,39.1557 18.0902,12.2795 65.2761,-43.9581 -23.6031,41.5705 -86.1931,111.6341 -44.9678,105.8252 -5.7492,12.2551 -26.256,22.9327 34.8137,42.3301 -11.4009,8.316 -46.2074,-3.8362 -17.1725,31.3742 3.8902,4.1159 -9.1329,6.6292 15.722,17.4681 -14.6723,-0.7373 -23.6703,1.8969 -10.1542,17.909 -26.7821,-0.8658 -16.7613,15.9709 2.9012,37.4457 -38.7842,-27.546 -40.9185,-17.5346 -42.0668,-6.5122 -48.608,-37.5546 -51.4612,-25.7308 -58.0229,-17.909 -23.6928,0.2931 -47.3856,-4.4362 -71.0785,37.4459 -6.2047,-26.0495 -18.6446,-46.1008 -71.0781,-27.6773 23.0223,-33.1396 -9.7299,-12.0263 -34.8139,1.628 13.7365,-41.3996 -21.1247,-14.2291 -65.276,26.0493 24.7246,-45.7167 -3.3567,-29.2027 -44.9679,3.2562 15.7221,-44.9122 -9.8827,-66.6322 -71.0782,-68.3794 29.29,-16.2004 46.3704,-36.588 15.9564,-73.2636 34.2852,10.7993 44.5119,0.7683 20.308,-39.074 37.396,32.7022 20.3935,-14.7306 5.8024,-58.6107 z"
       id="path4508"
       inkscape:connector-curvature="0"
       sodipodi:nodetypes="cccccccccccccccccccccccccccc" />
    <path
       style="color:#000000;display:inline;overflow:visible;visibility:visible;fill:#ffffff;fill-opacity:1;fill-rule:nonzero;stroke:none;stroke-width:1px;marker:none;enable-background:accumulate"
       d="m 1490.4164,2866.2226 c 36.6716,-30.7338 78.1642,-56.332 109.2346,-93.0329 l -8.5001,41.4633 c 17.679,-7.3977 29.5108,-24.339 43.3282,-38.0398 l -1.0152,26.2988 c 41.5356,-17.9715 69.9349,-49.3371 104.6834,-74.2288 l -5.4459,45.8738 c -37.8988,21.0955 -78.4597,35.8216 -113.3641,64.0815 l -1.6444,-25.6614 c -13.3358,8.0961 -26.3965,16.7337 -38.2287,27.7896 l 0.8284,-32.5393 z"
       id="path4032"
       inkscape:connector-curvature="0"
       sodipodi:nodetypes="cccccccccccc" />
  </g>
  <g
     inkscape:groupmode="layer"
     id="layer1"
     inkscape:label="txt">
    <text
       xml:space="preserve"
       style="font-style:normal;font-variant:normal;font-weight:normal;font-stretch:normal;font-size:12px;line-height:125%;font-family:Lavi;-inkscape-font-specification:Lavi;text-align:center;letter-spacing:0px;word-spacing:0px;text-anchor:middle;fill:#000000;fill-opacity:1;stroke:none"
       x="1194.6492"
       y="229.16325"
       id="text4246"
       sodipodi:linespacing="125%"><tspan
         sodipodi:role="line"
         style="font-size:45px"
         x="1194.6492"
         y="229.16325"
         id="tspan4252">Öö...</tspan></text>
    <text
       xml:space="preserve"
       style="font-style:normal;font-variant:normal;font-weight:normal;font-stretch:normal;font-size:12px;line-height:125%;font-family:Lavi;-inkscape-font-specification:Lavi;text-align:center;letter-spacing:0px;word-spacing:0px;text-anchor:middle;fill:#000000;fill-opacity:1;stroke:none"
       x="1213.9131"
       y="283.71597"
       id="text4246-3"
       sodipodi:linespacing="125%"><tspan
         sodipodi:role="line"
         style="font-size:45px"
         x="1213.9131"
         y="283.71597"
         id="tspan4164">En ole mikään</tspan><tspan
         sodipodi:role="line"
         style="font-size:45px"
         x="1213.9131"
         y="339.96597"
         id="tspan3831">asiantuntija...</tspan></text>
    <text
       xml:space="preserve"
       style="font-style:normal;font-variant:normal;font-weight:normal;font-stretch:normal;font-size:12px;line-height:125%;font-family:Lavi;-inkscape-font-specification:Lavi;text-align:center;letter-spacing:0px;word-spacing:0px;text-anchor:middle;fill:#000000;fill-opacity:1;stroke:none"
       x="1445.5612"
       y="434.35889"
       id="text4246-3-7"
       sodipodi:linespacing="125%"><tspan
         sodipodi:role="line"
         style="font-size:45px"
         x="1445.5612"
         y="434.35889"
         id="tspan3840">mutta kasvimaa</tspan><tspan
         sodipodi:role="line"
         style="font-size:45px"
         x="1445.5612"
         y="490.60889"
         id="tspan3428">on tänä vuonna</tspan><tspan
         sodipodi:role="line"
         style="font-size:45px"
         x="1445.5612"
         y="546.85883"
         id="tspan3430">tosi outo</tspan></text>
    <text
       xml:space="preserve"
       style="font-style:normal;font-variant:normal;font-weight:normal;font-stretch:normal;font-size:12px;line-height:125%;font-family:Lavi;-inkscape-font-specification:Lavi;text-align:center;letter-spacing:0px;word-spacing:0px;text-anchor:middle;fill:#000000;fill-opacity:1;stroke:none"
       x="1637.3901"
       y="619.19336"
       id="text4246-3-7-6"
       sodipodi:linespacing="125%"><tspan
         sodipodi:role="line"
         style="font-size:45px"
         x="1637.3901"
         y="619.19336"
         id="tspan3849">ja samoin monet</tspan><tspan
         sodipodi:role="line"
         style="font-size:45px"
         x="1637.3901"
         y="675.44336"
         id="tspan3437">muutkin kasvit talon</tspan><tspan
         sodipodi:role="line"
         style="font-size:45px"
         x="1637.3901"
         y="731.69336"
         id="tspan3439">ympärillä.</tspan></text>
    <text
       sodipodi:linespacing="125%"
       id="text4178-6-5-9-0-7-0-4"
       style="font-style:normal;font-variant:normal;font-weight:normal;font-stretch:normal;font-size:9.76241112px;line-height:125%;font-family:Lavi;-inkscape-font-specification:Lavi;text-align:center;letter-spacing:0px;word-spacing:0px;text-anchor:middle;opacity:0.63300003;fill:#ffffff;fill-opacity:1;stroke:none;filter:url(#filter5236-4-16)"
       xml:space="preserve"
       y="3129.8394"
       x="1318.7137"
       transform="matrix(0.6851492,-0.06612027,-0.09994133,0.78144216,149.5816,-965.35698)"><tspan
         y="3129.8394"
         x="1318.7137"
         style="font-style:normal;font-variant:normal;font-weight:normal;font-stretch:normal;font-size:40.67671585px;font-family:Fondamento;-inkscape-font-specification:Fondamento;fill:#ffffff;fill-opacity:1"
         sodipodi:role="line"
         id="tspan4293-1-6-3-5-0-2">Tomaatit</tspan></text>
    <text
       sodipodi:linespacing="125%"
       id="text4178-6-5-9-0-7-0-4-7"
       style="font-style:normal;font-variant:normal;font-weight:normal;font-stretch:normal;font-size:9.76241112px;line-height:125%;font-family:Lavi;-inkscape-font-specification:Lavi;text-align:center;letter-spacing:0px;word-spacing:0px;text-anchor:middle;opacity:0.63300003;fill:#ffffff;fill-opacity:1;stroke:none;filter:url(#filter5236-4-16-3)"
       xml:space="preserve"
       y="3129.8394"
       x="1318.7137"
       transform="matrix(0.58543203,0.08325699,-0.38986142,0.70644422,2170.1877,-965.83592)"><tspan
         y="3129.8394"
         x="1318.7137"
         style="font-style:normal;font-variant:normal;font-weight:normal;font-stretch:normal;font-size:40.67671585px;font-family:Fondamento;-inkscape-font-specification:Fondamento;fill:#ffffff;fill-opacity:1"
         sodipodi:role="line"
         id="tspan4293-1-6-3-5-0-2-5">Munakoisot</tspan></text>
    <text
       xml:space="preserve"
       style="font-style:normal;font-variant:normal;font-weight:normal;font-stretch:normal;font-size:12px;line-height:125%;font-family:Lavi;-inkscape-font-specification:Lavi;text-align:center;letter-spacing:0px;word-spacing:0px;text-anchor:middle;fill:#000000;fill-opacity:1;stroke:none"
       x="1667.7766"
       y="1814.2676"
       id="text4246-3-2"
       sodipodi:linespacing="125%"><tspan
         sodipodi:role="line"
         style="font-size:45px"
         x="1667.7766"
         y="1814.2676"
         id="tspan4259">Sama juttu muurahaisten</tspan><tspan
         sodipodi:role="line"
         style="font-size:45px"
         x="1667.7766"
         y="1870.5176"
         id="tspan3441">kanssa. Niillä on jotain</tspan><tspan
         sodipodi:role="line"
         style="font-size:45px"
         x="1667.7766"
         y="1926.7676"
         id="tspan3858">kummaa tekeillä.</tspan></text>
    <text
       xml:space="preserve"
       style="font-style:normal;font-variant:normal;font-weight:normal;font-stretch:normal;font-size:12px;line-height:125%;font-family:Lavi;-inkscape-font-specification:Lavi;text-align:center;letter-spacing:0px;word-spacing:0px;text-anchor:middle;fill:#000000;fill-opacity:1;stroke:none"
       x="1928.5547"
       y="1997.0601"
       id="text4246-3-2-9"
       sodipodi:linespacing="125%"><tspan
         sodipodi:role="line"
         style="font-size:45px"
         x="1928.5547"
         y="1997.0601"
         id="tspan4259-0">Joten...</tspan></text>
    <text
       xml:space="preserve"
       style="font-style:normal;font-variant:normal;font-weight:normal;font-stretch:normal;font-size:12px;line-height:125%;font-family:Lavi;-inkscape-font-specification:Lavi;text-align:center;letter-spacing:0px;word-spacing:0px;text-anchor:middle;fill:#000000;fill-opacity:1;stroke:none"
       x="2041.3497"
       y="2099.7539"
       id="text4246-3-2-9-6"
       sodipodi:linespacing="125%"><tspan
         sodipodi:role="line"
         style="font-size:45px"
         x="2041.3497"
         y="2099.7539"
         id="tspan3455">ajattelin, että meillä on</tspan><tspan
         sodipodi:role="line"
         style="font-size:45px"
         x="2041.3497"
         y="2156.0039"
         id="tspan3888">ehkä ongelma ympäristön</tspan><tspan
         sodipodi:role="line"
         style="font-size:45px"
         x="2041.3497"
         y="2212.2539"
         id="tspan3465">saastumisessa ja meidän pitäisi</tspan><tspan
         sodipodi:role="line"
         style="font-size:45px"
         x="2041.3497"
         y="2268.5039"
         id="tspan3467">miettiä puhdistustoimia...</tspan></text>
    <text
       xml:space="preserve"
       style="font-style:normal;font-variant:normal;font-weight:normal;font-stretch:normal;font-size:12px;line-height:125%;font-family:Lavi;-inkscape-font-specification:Lavi;text-align:center;letter-spacing:0px;word-spacing:0px;text-anchor:middle;fill:#000000;fill-opacity:1;stroke:none;stroke-width:2.79999995;stroke-miterlimit:4;stroke-dasharray:none"
       x="440.97708"
       y="2696.4143"
       id="text4246-3-2-9-6-6"
       sodipodi:linespacing="125%"><tspan
         sodipodi:role="line"
         style="font-size:45px;stroke-width:2.79999995;stroke-miterlimit:4;stroke-dasharray:none"
         x="440.97708"
         y="2696.4143"
         id="tspan3900">Kuulehan nyt, neiti<tspan
   style="stroke:#000000;stroke-width:2.79999995;stroke-miterlimit:4;stroke-dasharray:none;stroke-opacity:1"
   id="tspan4217" /></tspan><tspan
         sodipodi:role="line"
         style="font-size:45px;stroke-width:2.79999995;stroke-miterlimit:4;stroke-dasharray:none"
         x="440.97708"
         y="2752.6643"
         id="tspan3471"><tspan
   style="stroke:#000000;stroke-width:2.79999995;stroke-miterlimit:4;stroke-dasharray:none;stroke-opacity:1"
   id="tspan3473">&quot;Mokaan-Kaikki-Taikajuomani</tspan>&quot;,</tspan><tspan
         sodipodi:role="line"
         style="font-size:45px;stroke-width:2.79999995;stroke-miterlimit:4;stroke-dasharray:none"
         x="440.97708"
         y="2808.9143"
         id="tspan4378" /></text>
    <text
       xml:space="preserve"
       style="font-style:normal;font-variant:normal;font-weight:normal;font-stretch:normal;font-size:12px;line-height:125%;font-family:Lavi;-inkscape-font-specification:Lavi;text-align:center;letter-spacing:0px;word-spacing:0px;text-anchor:middle;fill:#000000;fill-opacity:1;stroke:none"
       x="535.7027"
       y="2832.9189"
       id="text4246-3-2-9-6-6-7"
       sodipodi:linespacing="125%"><tspan
         sodipodi:role="line"
         style="font-size:45px"
         x="535.7027"
         y="2832.9189"
         id="tspan4574">Hippiah-kolttusi</tspan><tspan
         sodipodi:role="line"
         style="font-size:45px"
         x="535.7027"
         y="2889.1689"
         id="tspan3477">alkaa epäilemättä</tspan><tspan
         sodipodi:role="line"
         style="font-size:45px"
         x="535.7027"
         y="2945.4189"
         id="tspan3605">vaikuttaa aivoihisi.</tspan><tspan
         sodipodi:role="line"
         style="font-size:45px"
         x="535.7027"
         y="3001.6689"
         id="tspan4378-5" /></text>
    <text
       xml:space="preserve"
       style="font-style:normal;font-variant:normal;font-weight:normal;font-stretch:normal;font-size:12px;line-height:125%;font-family:Lavi;-inkscape-font-specification:Lavi;text-align:center;letter-spacing:0px;word-spacing:0px;text-anchor:middle;fill:#000000;fill-opacity:1;stroke:none"
       x="1984.6426"
       y="2715.9966"
       id="text4246-3-2-9-6-6-0"
       sodipodi:linespacing="125%"><tspan
         sodipodi:role="line"
         style="font-size:45px"
         x="1984.6426"
         y="2715.9966"
         id="tspan4414">Mutta me</tspan><tspan
         sodipodi:role="line"
         style="font-size:45px"
         x="1984.6426"
         y="2772.2466"
         id="tspan3488">Chaosah-noidat</tspan><tspan
         sodipodi:role="line"
         style="font-size:45px"
         x="1984.6426"
         y="2828.4966"
         id="tspan3913">hautaamme virheemme!</tspan><tspan
         sodipodi:role="line"
         style="font-size:45px"
         x="1984.6426"
         y="2884.7466"
         id="tspan4378-7" /></text>
    <text
       xml:space="preserve"
       style="font-style:normal;font-variant:normal;font-weight:normal;font-stretch:normal;font-size:12px;line-height:125%;font-family:Lavi;-inkscape-font-specification:Lavi;text-align:center;letter-spacing:0px;word-spacing:0px;text-anchor:middle;fill:#000000;fill-opacity:1;stroke:none;stroke-width:2.79999995;stroke-miterlimit:4;stroke-dasharray:none"
       x="2031.0483"
       y="2929.6318"
       id="text4246-3-2-9-6-6-0-5"
       sodipodi:linespacing="125%"><tspan
         sodipodi:role="line"
         style="font-size:45px;stroke-width:2.79999995;stroke-miterlimit:4;stroke-dasharray:none"
         x="2031.0483"
         y="2929.6318"
         id="tspan3931">Se on ollut perinteemme</tspan><tspan
         sodipodi:role="line"
         style="font-size:45px;stroke:none;stroke-width:2.79999995;stroke-miterlimit:4;stroke-dasharray:none;stroke-opacity:1"
         x="2031.0483"
         y="2985.8818"
         id="tspan3933">aikojen alusta asti, enkä välitä</tspan><tspan
         sodipodi:role="line"
         style="font-size:45px;stroke:none;stroke-width:2.79999995;stroke-miterlimit:4;stroke-dasharray:none;stroke-opacity:1"
         x="2031.0483"
         y="3042.1318"
         id="tspan3503">vähääkään, mitä mieltä</tspan><tspan
         sodipodi:role="line"
         style="font-size:45px;stroke-width:2.79999995;stroke-miterlimit:4;stroke-dasharray:none"
         x="2031.0483"
         y="3098.3818"
         id="tspan3935"><tspan
   id="tspan3507"
   style="font-size:45px;stroke:#000000;stroke-width:2.79999995;stroke-miterlimit:4;stroke-dasharray:none;stroke-opacity:1">LUONTOÄITI </tspan>on siitä!</tspan><tspan
         sodipodi:role="line"
         style="font-size:45px;stroke-width:2.79999995;stroke-miterlimit:4;stroke-dasharray:none"
         x="2031.0483"
         y="3154.6318"
         id="tspan4378-7-6" /></text>
    <text
       xml:space="preserve"
       style="font-style:normal;font-variant:normal;font-weight:normal;font-stretch:normal;font-size:12px;line-height:125%;font-family:Lavi;-inkscape-font-specification:Lavi;text-align:center;letter-spacing:0px;word-spacing:0px;text-anchor:middle;fill:#000000;fill-opacity:1;stroke:none;stroke-width:2.79999995;stroke-miterlimit:4;stroke-dasharray:none"
       x="2083.4753"
       y="3212.4058"
       id="text4246-3-2-9-6-6-0-5-1"
       sodipodi:linespacing="125%"><tspan
         sodipodi:role="line"
         style="font-size:45px;stroke-width:2.79999995;stroke-miterlimit:4;stroke-dasharray:none"
         x="2083.4753"
         y="3212.4058"
         id="tspan4544">Joten suu kiinni</tspan><tspan
         sodipodi:role="line"
         style="font-size:45px;stroke-width:2.79999995;stroke-miterlimit:4;stroke-dasharray:none"
         x="2091.3855"
         y="3268.6558"
         id="tspan3939">ja <tspan
   style="stroke:#000000;stroke-width:2.79999995;stroke-miterlimit:4;stroke-dasharray:none;stroke-opacity:1"
   id="tspan4219">KAIVA</tspan>!! </tspan><tspan
         sodipodi:role="line"
         style="font-size:45px;stroke-width:2.79999995;stroke-miterlimit:4;stroke-dasharray:none"
         x="2083.4753"
         y="3324.9058"
         id="tspan4378-7-6-4" /></text>
  </g>
</svg>
