<?xml version="1.0" encoding="UTF-8" standalone="no"?>
<!-- Created with Inkscape (http://www.inkscape.org/) -->

<svg
   xmlns:dc="http://purl.org/dc/elements/1.1/"
   xmlns:cc="http://creativecommons.org/ns#"
   xmlns:rdf="http://www.w3.org/1999/02/22-rdf-syntax-ns#"
   xmlns:svg="http://www.w3.org/2000/svg"
   xmlns="http://www.w3.org/2000/svg"
   xmlns:xlink="http://www.w3.org/1999/xlink"
   xmlns:sodipodi="http://sodipodi.sourceforge.net/DTD/sodipodi-0.dtd"
   xmlns:inkscape="http://www.inkscape.org/namespaces/inkscape"
   id="svg2"
   version="1.1"
   inkscape:version="0.91 r13725"
   width="2481"
   height="3503"
   sodipodi:docname="Pepper-and-Carrot_by-David-Revoy_E19P01.svg">
  <metadata
     id="metadata8">
    <rdf:RDF>
      <cc:Work
         rdf:about="">
        <dc:format>image/svg+xml</dc:format>
        <dc:type
           rdf:resource="http://purl.org/dc/dcmitype/StillImage" />
        <dc:title />
      </cc:Work>
    </rdf:RDF>
  </metadata>
  <defs
     id="defs6" />
  <sodipodi:namedview
     pagecolor="#ffffff"
     bordercolor="#666666"
     borderopacity="1"
     objecttolerance="10"
     gridtolerance="10"
     guidetolerance="10"
     inkscape:pageopacity="0"
     inkscape:pageshadow="2"
     inkscape:window-width="1367"
     inkscape:window-height="1035"
     id="namedview4"
     showgrid="false"
     inkscape:zoom="0.45172237"
     inkscape:cx="1363.9455"
     inkscape:cy="680.51648"
     inkscape:window-x="535"
     inkscape:window-y="-3"
     inkscape:window-maximized="0"
     inkscape:current-layer="layer1"
     showguides="false" />
  <g
     inkscape:groupmode="layer"
     id="layer2"
     inkscape:label="artwork"
     sodipodi:insensitive="true">
    <image
       sodipodi:absref="C:\Users\Kari\Documents\Pepper and Carrot\Episode 19\fi\..\peppercarrot_ep19_translation-master\en\.\..\gfx_Pepper-and-Carrot_by-David-Revoy_E19P01.png"
       xlink:href="..\peppercarrot_ep19_translation-master\en\.\..\gfx_Pepper-and-Carrot_by-David-Revoy_E19P01.png"
       y="0"
       x="0"
       id="image10"
       height="3503"
       width="2481" />
  </g>
  <g
     inkscape:groupmode="layer"
     id="layer3"
     inkscape:label="speechbubbles">
    <path
       style="color:#000000;display:inline;overflow:visible;visibility:visible;fill:#ffffff;fill-opacity:1;fill-rule:nonzero;stroke:none;stroke-width:1px;marker:none;enable-background:accumulate"
       d="m 1014.3928,1944.6884 c -4.6131,-29.8516 31.5251,-65.8653 162.3588,-57.9056 130.834,7.9598 156.5718,21.984 160.4361,60.2936 1.6021,15.8826 -33.2445,40.5945 -52.5479,44.5744 -19.3034,3.9798 -99.3275,4.5754 -131.4999,1.3916 -32.1721,-3.1839 -101.2127,-10.1473 -120.5161,-24.4749 -19.3035,-14.3274 -16.0861,-20.6952 -18.231,-23.8791 z"
       id="path3365"
       inkscape:connector-curvature="0"
       sodipodi:nodetypes="csssssc" />
    <path
       style="color:#000000;display:inline;overflow:visible;visibility:visible;fill:#ffffff;fill-opacity:1;fill-rule:nonzero;stroke:none;stroke-width:1px;marker:none;enable-background:accumulate"
       d="m 1339.2346,2076.8706 c -8.8916,54.0667 -49.131,78.2371 -82.523,92.8985 -62.3188,23.2222 -127.6242,11.5665 -190.4108,-0.9669 -32.5753,-8.9095 -66.1303,-47.3197 -62.7243,-99.1832 3.2917,-46.4894 34.8719,-76.7852 65.3104,-81.1038 44.6219,-15.0719 91.1584,-22.414 136.5287,-9.5916 38.958,7.3208 80.6808,9.3053 115.3794,38.2204 11.5958,15.2781 16.0511,38.1542 18.4396,59.7266 z"
       id="path3365-3"
       inkscape:connector-curvature="0" />
    <path
       style="fill:#ffffff;stroke:none"
       d="m 993.31733,2279.7271 c 6.0731,-61.6305 53.51297,-94.9797 123.14557,-103.564 85.368,-18.3183 164.9381,-26.7108 250.1282,-9.1588 55.7076,14.5189 101.491,16.1672 144.7715,57.8418 28.7005,30.565 39.0343,146.2343 -7.452,176.2126 -48.3928,43.8283 -178.0652,53.5381 -243.6726,52.3401 -94.4309,1.8038 -177.1904,-6.1775 -223.825,-42.6819 -43.60578,-35.0232 -49.03508,-85.3666 -43.09567,-130.9898 z"
       id="path3065"
       inkscape:connector-curvature="0"
       sodipodi:nodetypes="cccccccc" />
    <path
       style="display:inline;fill:#ffffff;stroke:none"
       d="m 1639.5841,2318.3167 c -21.9558,36.2988 -64.6442,61.9501 -96.7367,35.7869 -19.4449,-15.8524 -29.1134,-28.291 -29.1134,-28.291 l -6.3679,30.9322 20.7854,19.5483 c 0,0 65.508,31.9103 111.4326,-57.9764 z"
       id="path3063-1"
       inkscape:connector-curvature="0"
       sodipodi:nodetypes="cscccc" />
    <path
       style="color:#000000;display:inline;overflow:visible;visibility:visible;fill:#ffffff;fill-opacity:1;fill-rule:nonzero;stroke:none;stroke-width:1px;marker:none;enable-background:accumulate"
       d="m 1915.0897,2318.7633 c 22.5915,-14.8351 111.552,-27.5791 200.4012,-26.0229 88.8493,1.5563 174.0053,9.704 226.0621,46.2927 76.697,53.907 41.763,177.1599 2.0392,197.9002 -28.7895,15.0314 -114.9549,28.518 -197.4833,30.0346 -82.5282,1.5168 -161.4194,-8.9363 -199.9632,-22.5197 -33.2645,-11.723 -81.7296,-43.6247 -85.6867,-120.7802 -1.6151,-31.4904 9.4482,-75.2341 54.6307,-104.9047 z"
       id="path4040"
       inkscape:connector-curvature="0"
       sodipodi:nodetypes="ssssssss" />
    <path
       style="color:#000000;display:inline;overflow:visible;visibility:visible;fill:#ffffff;fill-opacity:1;fill-rule:nonzero;stroke:none;stroke-width:1px;marker:none;enable-background:accumulate"
       d="m 2091.5868,2309.6031 c -12.6779,-33.6245 -30.9699,-60.7293 -65.977,-55.676 52.3023,-18.546 92.9308,35.3617 103.6224,53.2726 10.6914,17.9109 -37.6454,2.4034 -37.6454,2.4034 z"
       id="path5010"
       inkscape:connector-curvature="0" />
    <path
       style="color:#000000;display:inline;overflow:visible;visibility:visible;fill:#ffffff;fill-opacity:1;fill-rule:nonzero;stroke:none;stroke-width:1px;marker:none;enable-background:accumulate"
       d="m 628.0502,2739.6884 c -1.46101,-31.1452 14.67666,-53.4628 76.03551,-73.8026 61.35912,-20.3396 148.43966,-10.6385 171.28781,-9.9674 107.22049,3.1493 143.14688,13.6664 165.06078,36.5487 21.914,22.8822 27.5124,17.8543 26.738,57.4867 -0.6934,35.4818 -6.8874,52.1566 -33.1841,59.7839 -26.2969,7.6274 -228.31616,16.3653 -259.41868,16.0254 -30.45172,-0.3328 -69.22339,-4.1474 -99.41462,-16.6413 -28.50128,-11.7946 -45.6438,-38.2881 -47.1047,-69.4334 z"
       id="path3373"
       inkscape:connector-curvature="0"
       sodipodi:nodetypes="zsssssssz" />
    <path
       style="color:#000000;display:inline;overflow:visible;visibility:visible;fill:#ffffff;fill-opacity:1;fill-rule:nonzero;stroke:none;stroke-width:1px;marker:none;enable-background:accumulate"
       d="m 653.18698,2886.027 c 10.14619,-54.9407 87.35539,-74.0435 307.74744,-77.3254 57.64198,-0.8583 154.74218,5.7166 200.00818,18.5272 45.2661,12.8106 71.0407,56.9062 64.2766,97.1645 -13.5282,80.5165 -154.8826,67.0963 -193.7765,68.0436 -38.89384,0.9474 -306.58185,3.5464 -344.95313,-32.9948 -36.79724,-35.0424 -34.9936,-56.3644 -33.30259,-73.4151 z"
       id="path4546"
       inkscape:connector-curvature="0"
       sodipodi:nodetypes="csssssc" />
    <path
       style="color:#000000;display:inline;overflow:visible;visibility:visible;fill:#ffffff;fill-opacity:1;fill-rule:nonzero;stroke:none;stroke-width:1px;marker:none;enable-background:accumulate"
       d="m 829.56907,2987.7155 c 36.74853,-44.7899 236.62733,-40.9663 303.13063,-21.5611 66.5032,19.4049 95.253,24.6781 94.3417,64.6835 -0.853,37.4532 -22.2993,72.453 -56.3243,83.2336 -34.0248,10.7806 -113.8,10.5574 -147.825,10.5574 -34.02478,0 -142.63965,-6.8618 -170.1245,-22.6393 -26.29198,-15.0928 -59.94724,-69.4844 -23.19853,-114.2741 z"
       id="path3330"
       inkscape:connector-curvature="0"
       sodipodi:nodetypes="zsssssz" />
    <path
       style="color:#000000;display:inline;overflow:visible;visibility:visible;fill:#ffffff;fill-opacity:1;fill-rule:nonzero;stroke:none;stroke-width:1px;marker:none;enable-background:accumulate"
       d="m 929.99953,3158.9683 c 39.78505,-10.9584 53.20162,-17.1208 58.43434,-65.1641 5.23266,-48.0433 23.16173,-44.6696 23.16173,-44.6696 l 14.7504,30.3838 c 0,0 -18.3423,101.2684 -96.34647,79.4499 z"
       id="path3072"
       inkscape:connector-curvature="0" />
    <path
       style="fill:#ffffff;fill-rule:evenodd;stroke:none;stroke-width:1px;stroke-linecap:butt;stroke-linejoin:miter;stroke-opacity:1"
       d="m 1893.4848,3239.5273 c 35.1779,2.1524 80.9917,-8.5621 52.5519,-40.9681 51.1847,25.9662 99.6718,30.83 150.7176,2.4031 -7.4619,28.6978 76.0019,30.9119 104.6006,11.9225 -8.7259,29.906 31.3981,31.0596 64.9266,32.0091 -70.9262,36.5615 -33.682,48.1891 -5.7349,61.9598 -69.7034,-10.1884 -52.8454,10.4551 -61.1709,22.1285 -59.795,-26.449 -103.28,-20.1718 -137.6344,4.4257 -17.9677,-13.3768 -23.6076,-41.0242 -89.8447,1.4752 24.357,-36.6892 -7.5694,-32.8382 -59.2593,-14.7522 11.8923,-8.4337 61.9463,-30.9658 -19.1525,-28.9705 12.664,-2.97 22.8259,-6.2033 29.9877,-9.7524 7.162,-3.5491 -38.8903,-13.0242 -38.2265,-17.2571 0.664,-4.2329 48.0441,-3.2235 41.2143,-8.2451 -6.83,-5.0215 -17.656,-10.4635 -32.9755,-16.3785 z"
       id="path4584"
       inkscape:connector-curvature="0"
       sodipodi:nodetypes="cccccccccccsssc" />
    <path
       style="color:#000000;display:inline;overflow:visible;visibility:visible;fill:#ffffff;fill-opacity:1;fill-rule:nonzero;stroke:none;stroke-width:1px;marker:none;enable-background:accumulate"
       d="m 1929.0839,3276.1051 c -26.7744,0.1934 -96.6935,-12.0611 -103.8888,-13.0148 6.0705,-5.4371 10.1298,-10.8932 13.4021,-15.1162 -13.7156,-0.9263 -59.5001,-2.596 -79.7676,1.5975 50.7453,-11.4228 73.8083,-12.6417 95.8809,-9.8645 -2.9601,5.998 -5.8701,9.4267 -7.3188,12.6033 18.7307,6.708 117.9634,8.8349 106.078,1.4065 z"
       id="path5066"
       inkscape:connector-curvature="0"
       sodipodi:nodetypes="cccccccc" />
  </g>
  <g
     inkscape:groupmode="layer"
     id="layer1"
     inkscape:label="txt"
     style="display:inline">
    <text
       xml:space="preserve"
       style="font-style:normal;font-variant:normal;font-weight:normal;font-stretch:normal;font-size:12px;line-height:125%;font-family:Lavi;-inkscape-font-specification:Lavi;text-align:center;letter-spacing:0px;word-spacing:0px;text-anchor:middle;fill:#000000;fill-opacity:1;stroke:none"
       x="1177.4561"
       y="1950.6425"
       id="text4246-3-9"
       sodipodi:linespacing="125%"><tspan
         sodipodi:role="line"
         style="font-size:45px"
         x="1185.3662"
         y="1950.6425"
         id="tspan4183-8">Menen sisälle. </tspan></text>
    <text
       xml:space="preserve"
       style="font-style:normal;font-variant:normal;font-weight:normal;font-stretch:normal;font-size:12px;line-height:125%;font-family:Lavi;-inkscape-font-specification:Lavi;text-align:center;letter-spacing:0px;word-spacing:0px;text-anchor:middle;fill:#000000;fill-opacity:1;stroke:none"
       x="2132.5742"
       y="2390.4148"
       id="text4246"
       sodipodi:linespacing="125%"><text
   xml:space="preserve"
   style="font-style:normal;font-variant:normal;font-weight:normal;font-stretch:normal;font-size:12px;line-height:125%;font-family:Lavi;-inkscape-font-specification:Lavi;text-align:center;letter-spacing:0px;word-spacing:0px;text-anchor:middle;fill:#000000;fill-opacity:1;stroke:none"
   x="1170.3722"
   y="2058.1765"
   id="text4246-3"
   sodipodi:linespacing="125%"><tspan
     sodipodi:role="line"
     style="font-size:45px"
     x="1170.3722"
     y="2058.1765"
     id="tspan3953">Jatka sinä</tspan><tspan
     sodipodi:role="line"
     style="font-size:45px"
     x="1178.2823"
     y="2114.4265"
     id="tspan3385">kaivamista. </tspan></text>

 <tspan
   sodipodi:role="line"
   style="font-size:45px"
   x="1172.4816"
   y="2114.4265"
   id="tspan4252" /></text>
    <text
       xml:space="preserve"
       style="font-style:normal;font-variant:normal;font-weight:normal;font-stretch:normal;font-size:12px;line-height:125%;font-family:Lavi;-inkscape-font-specification:Lavi;text-align:center;letter-spacing:0px;word-spacing:0px;text-anchor:middle;fill:#000000;fill-opacity:1;stroke:none"
       x="1259.6011"
       y="2242.8801"
       id="text4246-3-7"
       sodipodi:linespacing="125%"><tspan
         sodipodi:role="line"
         style="font-size:45px"
         x="1259.6011"
         y="2242.8801"
         id="tspan3389">Hautaa kaikki epä-</tspan><tspan
         sodipodi:role="line"
         style="font-size:45px"
         x="1259.6011"
         y="2299.1301"
         id="tspan3968">onnistuneet taikajuomat</tspan><tspan
         sodipodi:role="line"
         style="font-size:45px"
         x="1259.6011"
         y="2355.3801"
         id="tspan3410">ja tule sitten sisään</tspan><tspan
         sodipodi:role="line"
         style="font-size:45px"
         x="1267.5112"
         y="2411.6301"
         id="tspan3414">lepäämään. </tspan></text>
    <text
       xml:space="preserve"
       style="font-style:normal;font-variant:normal;font-weight:normal;font-stretch:normal;font-size:12px;line-height:125%;font-family:Lavi;-inkscape-font-specification:Lavi;text-align:center;letter-spacing:0px;word-spacing:0px;text-anchor:middle;fill:#000000;fill-opacity:1;stroke:none"
       x="2120.4934"
       y="2365.1826"
       id="text4246-3-7-6"
       sodipodi:linespacing="125%"><tspan
         sodipodi:role="line"
         style="font-size:45px"
         x="2120.4934"
         y="2365.1826"
         id="tspan4193">Lienee turha toivoa,</tspan><tspan
         sodipodi:role="line"
         style="font-size:45px"
         x="2120.4934"
         y="2421.4326"
         id="tspan3983">että saisit kaiken</tspan><tspan
         sodipodi:role="line"
         style="font-size:45px"
         x="2120.4934"
         y="2477.6826"
         id="tspan3425">huomiseksi valmiiksi,</tspan><tspan
         sodipodi:role="line"
         style="font-size:45px"
         x="2120.4934"
         y="2533.9326"
         id="tspan3427">mutta kuka tietää!</tspan></text>
    <text
       xml:space="preserve"
       style="font-style:normal;font-variant:normal;font-weight:normal;font-stretch:normal;font-size:12px;line-height:125%;font-family:Lavi;-inkscape-font-specification:Lavi;text-align:center;letter-spacing:0px;word-spacing:0px;text-anchor:middle;fill:#000000;fill-opacity:1;stroke:none"
       x="844.07666"
       y="2720.7148"
       id="text4246-3-7-6-7"
       sodipodi:linespacing="125%"><tspan
         sodipodi:role="line"
         style="font-size:45px"
         x="844.07666"
         y="2720.7148"
         id="tspan3987">Hyvä on,</tspan><tspan
         sodipodi:role="line"
         style="font-size:45px"
         x="844.07666"
         y="2776.9648"
         id="tspan3439">pistän tuulemaan!</tspan></text>
    <text
       xml:space="preserve"
       style="font-style:normal;font-variant:normal;font-weight:normal;font-stretch:normal;font-size:12px;line-height:125%;font-family:Lavi;-inkscape-font-specification:Lavi;text-align:center;letter-spacing:0px;word-spacing:0px;text-anchor:middle;fill:#000000;fill-opacity:1;stroke:none"
       x="936.17151"
       y="2895.562"
       id="text4246-3-7-6-7-0"
       sodipodi:linespacing="125%"><tspan
         sodipodi:role="line"
         style="font-size:45px"
         x="936.17151"
         y="2895.562"
         id="tspan4770">Mutta miksi meidän pitää</tspan><tspan
         sodipodi:role="line"
         style="font-size:45px"
         x="944.08167"
         y="2951.812"
         id="tspan3443">aina <tspan
   style="stroke:#000000;stroke-width:1.29999995;stroke-miterlimit:4;stroke-dasharray:none;stroke-opacity:1"
   id="tspan4772">haudata kaikki</tspan>? </tspan></text>
    <text
       xml:space="preserve"
       style="font-style:normal;font-variant:normal;font-weight:normal;font-stretch:normal;font-size:12px;line-height:125%;font-family:Lavi;-inkscape-font-specification:Lavi;text-align:center;letter-spacing:0px;word-spacing:0px;text-anchor:middle;fill:#000000;fill-opacity:1;stroke:none"
       x="1026.5442"
       y="3025.0105"
       id="text4246-3-7-6-7-0-9"
       sodipodi:linespacing="125%"><tspan
         sodipodi:role="line"
         style="font-size:45px"
         x="1026.5442"
         y="3025.0105"
         id="tspan4464">Eikö olisi</tspan><tspan
         sodipodi:role="line"
         style="font-size:45px"
         x="1034.4543"
         y="3081.2605"
         id="tspan4782">parempi, että... </tspan></text>
    <text
       xml:space="preserve"
       style="font-style:normal;font-variant:normal;font-weight:normal;font-stretch:normal;font-size:12px;line-height:125%;font-family:Lavi;-inkscape-font-specification:Lavi;text-align:center;letter-spacing:0px;word-spacing:0px;text-anchor:middle;fill:#000000;fill-opacity:1;stroke:none"
       x="2077.3804"
       y="3279.0752"
       id="text4246-3-7-6-7-0-9-3"
       sodipodi:linespacing="125%"><tspan
         sodipodi:role="line"
         style="font-size:45px"
         x="2077.3804"
         y="3279.0752"
         id="tspan4464-5">Että <tspan
   style="stroke:#000000;stroke-width:2.5999999;stroke-miterlimit:4;stroke-dasharray:none;stroke-opacity:1"
   id="tspan4493">MITÄ</tspan>?</tspan></text>
  </g>
</svg>
