<?xml version="1.0" encoding="UTF-8" standalone="no"?>
<!-- Created with Inkscape (http://www.inkscape.org/) -->

<svg
   xmlns:dc="http://purl.org/dc/elements/1.1/"
   xmlns:cc="http://creativecommons.org/ns#"
   xmlns:rdf="http://www.w3.org/1999/02/22-rdf-syntax-ns#"
   xmlns:svg="http://www.w3.org/2000/svg"
   xmlns="http://www.w3.org/2000/svg"
   xmlns:xlink="http://www.w3.org/1999/xlink"
   xmlns:sodipodi="http://sodipodi.sourceforge.net/DTD/sodipodi-0.dtd"
   xmlns:inkscape="http://www.inkscape.org/namespaces/inkscape"
   id="svg2"
   version="1.1"
   inkscape:version="0.91 r13725"
   width="2481"
   height="3503"
   sodipodi:docname="Pepper-and-Carrot_by-David-Revoy_E19P01.svg">
  <metadata
     id="metadata8">
    <rdf:RDF>
      <cc:Work
         rdf:about="">
        <dc:format>image/svg+xml</dc:format>
        <dc:type
           rdf:resource="http://purl.org/dc/dcmitype/StillImage" />
        <dc:title />
      </cc:Work>
    </rdf:RDF>
  </metadata>
  <defs
     id="defs6" />
  <sodipodi:namedview
     pagecolor="#ffffff"
     bordercolor="#666666"
     borderopacity="1"
     objecttolerance="10"
     gridtolerance="10"
     guidetolerance="10"
     inkscape:pageopacity="0"
     inkscape:pageshadow="2"
     inkscape:window-width="1920"
     inkscape:window-height="1017"
     id="namedview4"
     showgrid="false"
     inkscape:zoom="0.6388319"
     inkscape:cx="1399.172"
     inkscape:cy="675.59455"
     inkscape:window-x="-8"
     inkscape:window-y="-8"
     inkscape:window-maximized="1"
     inkscape:current-layer="layer3"
     showguides="false"
     inkscape:snap-grids="true"
     inkscape:snap-text-baseline="false" />
  <g
     inkscape:groupmode="layer"
     id="layer2"
     inkscape:label="artwork"
     sodipodi:insensitive="true">
    <image
       sodipodi:absref="E:\Program Files\Pepper and Carrot Repo\peppercarrot_ep19_translation\el\..\gfx_Pepper-and-Carrot_by-David-Revoy_E19P01.png"
       xlink:href="../gfx_Pepper-and-Carrot_by-David-Revoy_E19P01.png"
       width="2481"
       height="3503"
       id="image10"
       x="0"
       y="0" />
  </g>
  <g
     inkscape:groupmode="layer"
     id="layer3"
     inkscape:label="speechbubbles">
    <path
       style="color:#000000;display:inline;overflow:visible;visibility:visible;fill:#ffffff;fill-opacity:1;fill-rule:nonzero;stroke:none;stroke-width:1px;marker:none;enable-background:accumulate"
       d="m 1017.3534,1944.6884 c -4.4596,-29.8516 30.4763,-65.8653 156.957,-57.9056 126.4811,7.9598 151.3626,21.984 155.0984,60.2936 1.5487,15.8826 -32.1385,40.5945 -50.7997,44.5744 -18.6611,3.9798 -96.0228,4.5754 -127.1248,1.3916 -31.1017,-3.1839 -97.8453,-10.1473 -116.5065,-24.4749 -18.6612,-14.3274 -15.5508,-20.6952 -17.6244,-23.8791 z"
       id="path3365"
       inkscape:connector-curvature="0"
       sodipodi:nodetypes="csssssc" />
    <path
       style="color:#000000;display:inline;overflow:visible;visibility:visible;fill:#ffffff;fill-opacity:1;fill-rule:nonzero;stroke:none;stroke-width:1px;marker:none;enable-background:accumulate"
       d="m 1351.7575,2069.0438 c -9.3889,54.0667 -51.8786,78.2371 -87.1379,92.8985 -65.8039,23.2222 -134.7613,11.5665 -201.0591,-0.9669 -34.397,-8.9095 -69.82852,-47.3197 -66.23203,-99.1832 3.47583,-46.4894 36.82203,-76.7852 68.96273,-81.1038 47.1173,-15.0719 96.2562,-22.414 144.1638,-9.5916 41.1366,7.3208 85.1927,9.3053 121.8317,38.2204 12.2443,15.2781 16.9487,38.1542 19.4708,59.7266 z"
       id="path3365-3"
       inkscape:connector-curvature="0" />
    <path
       style="fill:#ffffff;stroke:none"
       d="m 1006.7136,2275.031 c 6.0809,-61.6305 53.5812,-94.9797 123.3027,-103.564 85.4768,-18.3183 165.1484,-26.7108 250.4472,-9.1588 55.7786,14.5189 101.6204,16.1672 144.956,57.8418 28.7372,30.565 39.0842,146.2343 -7.4614,176.2126 -48.4545,43.8283 -178.2923,53.5381 -243.9834,52.3401 -94.5514,1.8038 -177.4164,-6.1775 -224.1105,-42.6819 -43.6614,-35.0232 -49.0976,-85.3666 -43.1506,-130.9898 z"
       id="path3065"
       inkscape:connector-curvature="0"
       sodipodi:nodetypes="cccccccc" />
    <path
       style="display:inline;fill:#ffffff;stroke:none"
       d="m 1639.5841,2318.3167 c -21.9558,36.2988 -64.6442,61.9501 -96.7367,35.7869 -19.4449,-15.8524 -29.1134,-28.291 -29.1134,-28.291 l -6.3679,30.9322 20.7854,19.5483 c 0,0 65.508,31.9103 111.4326,-57.9764 z"
       id="path3063-1"
       inkscape:connector-curvature="0"
       sodipodi:nodetypes="cscccc" />
    <path
       style="color:#000000;display:inline;overflow:visible;visibility:visible;fill:#ffffff;fill-opacity:1;fill-rule:nonzero;stroke:none;stroke-width:1px;marker:none;enable-background:accumulate"
       d="m 1904.3163,2308.7017 c 22.0218,-17.1193 108.7391,-31.8254 195.348,-30.0296 86.6089,1.7959 169.6176,11.1981 220.3618,53.4203 74.763,62.2069 40.7099,204.4368 1.9878,228.3704 -28.0636,17.3458 -112.0563,32.9089 -192.5037,34.659 -80.4472,1.7503 -157.3491,-10.3122 -194.921,-25.987 -32.4257,-13.528 -79.6687,-50.3415 -83.5261,-139.3765 -1.5743,-36.3389 9.21,-86.8177 53.2532,-121.0566 z"
       id="path4040"
       inkscape:connector-curvature="0"
       sodipodi:nodetypes="ssssssss" />
    <path
       style="color:#000000;display:inline;overflow:visible;visibility:visible;fill:#ffffff;fill-opacity:1;fill-rule:nonzero;stroke:none;stroke-width:1px;marker:none;enable-background:accumulate"
       d="m 2074.3679,2292.3842 c -12.6779,-33.6245 -30.9699,-60.7293 -65.977,-55.676 52.3023,-18.546 92.9308,35.3617 103.6224,53.2726 10.6914,17.9109 -37.6454,2.4034 -37.6454,2.4034 z"
       id="path5010"
       inkscape:connector-curvature="0" />
    <path
       style="color:#000000;display:inline;overflow:visible;visibility:visible;fill:#ffffff;fill-opacity:1;fill-rule:nonzero;stroke:none;stroke-width:1px;marker:none;enable-background:accumulate"
       d="m 628.01922,2726.3612 c -0.95298,-26.3558 9.57321,-45.2414 49.59603,-62.4534 40.023,-17.2119 96.82343,-9.0026 111.7267,-8.4347 69.9372,2.665 93.37108,11.5648 107.66493,30.9284 14.29393,19.3634 17.94569,15.1087 17.44053,48.6465 -0.45226,30.0255 -4.49249,44.1361 -21.64514,50.5905 -17.15276,6.4545 -148.92483,13.8487 -169.21221,13.5611 -19.86289,-0.2816 -45.15266,-3.5096 -64.84564,-14.0823 -18.59066,-9.9808 -29.77229,-32.4002 -30.7252,-58.7561 z"
       id="path3373"
       inkscape:connector-curvature="0"
       sodipodi:nodetypes="zsssssssz" />
    <path
       style="color:#000000;display:inline;overflow:visible;visibility:visible;fill:#ffffff;fill-opacity:1;fill-rule:nonzero;stroke:none;stroke-width:1px;marker:none;enable-background:accumulate"
       d="m 653.17027,2853.9321 c 9.91133,-71.4433 85.33335,-96.2842 300.62391,-100.5518 56.30772,-1.1161 151.16032,7.4337 195.37852,24.0922 44.2183,16.6585 69.3963,73.9993 62.7888,126.3501 -13.2151,104.7015 -151.2975,87.2502 -189.2911,88.4821 -37.99357,1.2319 -299.48532,4.6116 -336.9684,-42.9057 -35.94549,-45.5681 -34.1836,-73.2947 -32.53173,-95.4669 z"
       id="path4546"
       inkscape:connector-curvature="0"
       sodipodi:nodetypes="csssssc" />
    <path
       style="color:#000000;display:inline;overflow:visible;visibility:visible;fill:#ffffff;fill-opacity:1;fill-rule:nonzero;stroke:none;stroke-width:1px;marker:none;enable-background:accumulate"
       d="m 847.67224,2985.8994 c 32.61893,-42.4872 210.03646,-38.8602 269.06646,-20.4526 59.0299,18.4073 84.5489,23.4094 83.7401,61.358 -0.7572,35.5277 -19.7934,68.7281 -49.9949,78.9545 -30.2013,10.2263 -101.0118,10.0146 -131.2132,10.0146 -30.20128,0 -126.6106,-6.509 -151.00686,-21.4754 -23.33742,-14.3168 -53.21068,-65.9121 -20.5916,-108.3991 z"
       id="path3330"
       inkscape:connector-curvature="0"
       sodipodi:nodetypes="zsssssz" />
    <path
       style="color:#000000;display:inline;overflow:visible;visibility:visible;fill:#ffffff;fill-opacity:1;fill-rule:nonzero;stroke:none;stroke-width:1px;marker:none;enable-background:accumulate"
       d="m 929.99953,3158.9683 c 39.78505,-10.9584 53.20162,-17.1208 58.43434,-65.1641 5.23266,-48.0433 23.16173,-44.6696 23.16173,-44.6696 l 14.7504,30.3838 c 0,0 -18.3423,101.2684 -96.34647,79.4499 z"
       id="path3072"
       inkscape:connector-curvature="0" />
    <path
       style="fill:#ffffff;fill-rule:evenodd;stroke:none;stroke-width:1px;stroke-linecap:butt;stroke-linejoin:miter;stroke-opacity:1"
       d="m 1891.4248,3239.5273 c 26.3898,2.1524 60.7586,-8.5621 39.4235,-40.9681 38.3979,25.9662 74.7721,30.83 113.0657,2.4031 -5.5978,28.6978 57.0153,30.9119 78.4695,11.9225 -6.546,29.906 23.5543,31.0596 48.7068,32.0091 -53.2076,36.5615 -25.2677,48.1891 -4.3022,61.9598 -52.2903,-10.1884 -39.6437,10.4551 -45.8893,22.1285 -44.8572,-26.449 -77.4789,-20.1718 -103.251,4.4257 -13.479,-13.3768 -17.7099,-41.0242 -67.3998,1.4752 18.2722,-36.6892 -5.6785,-32.8382 -44.4553,-14.7522 8.9214,-8.4337 46.471,-30.9658 -14.3679,-28.9705 9.5003,-2.97 17.1236,-6.2033 22.4963,-9.7524 5.3727,-3.5491 -29.1749,-13.0242 -28.6769,-17.2571 0.4981,-4.2329 36.0419,-3.2235 30.9182,-8.2451 -5.1237,-5.0215 -13.2451,-10.4635 -24.7376,-16.3785 z"
       id="path4584"
       inkscape:connector-curvature="0"
       sodipodi:nodetypes="cccccccccccsssc" />
    <path
       style="color:#000000;display:inline;overflow:visible;visibility:visible;fill:#ffffff;fill-opacity:1;fill-rule:nonzero;stroke:none;stroke-width:1px;marker:none;enable-background:accumulate"
       d="m 1929.0839,3276.1051 c -26.7744,0.1934 -96.6935,-12.0611 -103.8888,-13.0148 6.0705,-5.4371 10.1298,-10.8932 13.4021,-15.1162 -13.7156,-0.9263 -59.5001,-2.596 -79.7676,1.5975 50.7453,-11.4228 73.8083,-12.6417 95.8809,-9.8645 -2.9601,5.998 -5.8701,9.4267 -7.3188,12.6033 18.7307,6.708 117.9634,8.8349 106.078,1.4065 z"
       id="path5066"
       inkscape:connector-curvature="0"
       sodipodi:nodetypes="cccccccc" />
  </g>
  <g
     inkscape:groupmode="layer"
     id="layer1"
     inkscape:label="txt"
     style="display:inline">
    <text
       xml:space="preserve"
       style="font-style:normal;font-variant:normal;font-weight:normal;font-stretch:expanded;font-size:12px;line-height:125%;font-family:Pecita;-inkscape-font-specification:'Pecita Expanded';text-align:center;letter-spacing:0px;word-spacing:0px;text-anchor:middle;fill:#000000;fill-opacity:1;stroke:none"
       x="1177.4561"
       y="1950.6425"
       id="text4246-3-9"
       sodipodi:linespacing="125%"><tspan
         sodipodi:role="line"
         style="font-style:normal;font-variant:normal;font-weight:normal;font-stretch:expanded;font-size:45px;font-family:Pecita;-inkscape-font-specification:'Pecita Expanded'"
         x="1177.4561"
         y="1950.6425"
         id="tspan4183-8">Εγώ πάω μέσα</tspan></text>
    <text
       xml:space="preserve"
       style="font-style:normal;font-variant:normal;font-weight:normal;font-stretch:expanded;font-size:12px;line-height:125%;font-family:Pecita;-inkscape-font-specification:'Pecita Expanded';text-align:center;letter-spacing:0px;word-spacing:0px;text-anchor:middle;fill:#000000;fill-opacity:1;stroke:none"
       x="2137.0017"
       y="2370.491"
       id="text4246"
       sodipodi:linespacing="125%"><text
         xml:space="preserve"
         style="font-style:normal;font-variant:normal;font-weight:normal;font-stretch:expanded;font-size:12px;line-height:125%;font-family:Pecita;-inkscape-font-specification:'Pecita Expanded';text-align:center;letter-spacing:0px;word-spacing:0px;text-anchor:middle;fill:#000000;fill-opacity:1;stroke:none"
         x="1174.7997"
         y="2038.2527"
         id="text4246-3"
         sodipodi:linespacing="125%"><tspan
           sodipodi:role="line"
           style="font-style:normal;font-variant:normal;font-weight:normal;font-stretch:expanded;font-size:45px;font-family:Pecita;-inkscape-font-specification:'Pecita Expanded'"
           x="1174.7997"
           y="2038.2527"
           id="tspan3953">Δεν υπάρχει λόγος</tspan><tspan
           sodipodi:role="line"
           style="font-style:normal;font-variant:normal;font-weight:normal;font-stretch:expanded;font-size:45px;font-family:Pecita;-inkscape-font-specification:'Pecita Expanded'"
           x="1185.3905"
           y="2094.5027"
           id="tspan3394">να σε βλέπω να </tspan><tspan
           sodipodi:role="line"
           style="font-style:normal;font-variant:normal;font-weight:normal;font-stretch:expanded;font-size:45px;font-family:Pecita;-inkscape-font-specification:'Pecita Expanded'"
           x="1185.3905"
           y="2150.7527"
           id="tspan3396">σκάβεις... </tspan></text>
<tspan
         sodipodi:role="line"
         style="font-style:normal;font-variant:normal;font-weight:normal;font-stretch:expanded;font-size:45px;font-family:Pecita;-inkscape-font-specification:'Pecita Expanded'"
         x="1185.3905"
         y="2150.7527"
         id="tspan4252" /></text>
    <text
       xml:space="preserve"
       style="font-style:normal;font-variant:normal;font-weight:normal;font-stretch:expanded;font-size:12px;line-height:125%;font-family:Pecita;-inkscape-font-specification:'Pecita Expanded';text-align:center;letter-spacing:0px;word-spacing:0px;text-anchor:middle;fill:#000000;fill-opacity:1;stroke:none"
       x="1268.4561"
       y="2249.5215"
       id="text4246-3-7"
       sodipodi:linespacing="125%"><tspan
         sodipodi:role="line"
         style="font-style:normal;font-variant:normal;font-weight:normal;font-stretch:expanded;font-size:45px;font-family:Pecita;-inkscape-font-specification:'Pecita Expanded'"
         x="1268.4561"
         y="2249.5215"
         id="tspan3968">Θάψε όλα αυτά τα</tspan><tspan
         sodipodi:role="line"
         style="font-style:normal;font-variant:normal;font-weight:normal;font-stretch:expanded;font-size:45px;font-family:Pecita;-inkscape-font-specification:'Pecita Expanded'"
         x="1268.4561"
         y="2305.7715"
         id="tspan3406"> αποτυχημένα φίλτρα για μένα</tspan><tspan
         sodipodi:role="line"
         style="font-style:normal;font-variant:normal;font-weight:normal;font-stretch:expanded;font-size:45px;font-family:Pecita;-inkscape-font-specification:'Pecita Expanded'"
         x="1279.0469"
         y="2362.0215"
         id="tspan3414"> και έλα μέσα </tspan><tspan
         sodipodi:role="line"
         style="font-style:normal;font-variant:normal;font-weight:normal;font-stretch:expanded;font-size:45px;font-family:Pecita;-inkscape-font-specification:'Pecita Expanded'"
         x="1279.0469"
         y="2418.2715"
         id="tspan3408">να ξεκουραστείς. </tspan></text>
    <text
       xml:space="preserve"
       style="font-style:normal;font-variant:normal;font-weight:normal;font-stretch:expanded;font-size:12px;line-height:125%;font-family:Pecita;-inkscape-font-specification:'Pecita Expanded';text-align:center;letter-spacing:0px;word-spacing:0px;text-anchor:middle;fill:#000000;fill-opacity:1;stroke:none"
       x="2110.073"
       y="2337.0061"
       id="text4246-3-7-6"
       sodipodi:linespacing="125%"><tspan
         sodipodi:role="line"
         style="font-style:normal;font-variant:normal;font-weight:normal;font-stretch:expanded;font-size:45px;font-family:Pecita;-inkscape-font-specification:'Pecita Expanded'"
         x="2120.6638"
         y="2337.0061"
         id="tspan3983">Το να σε δώ να </tspan><tspan
         sodipodi:role="line"
         style="font-style:normal;font-variant:normal;font-weight:normal;font-stretch:expanded;font-size:45px;font-family:Pecita;-inkscape-font-specification:'Pecita Expanded'"
         x="2110.073"
         y="2393.2561"
         id="tspan3422">επιτυγχαίνεις αύριο είναι</tspan><tspan
         sodipodi:role="line"
         style="font-style:normal;font-variant:normal;font-weight:normal;font-stretch:expanded;font-size:45px;font-family:Pecita;-inkscape-font-specification:'Pecita Expanded'"
         x="2120.6638"
         y="2449.5061"
         id="tspan3424">μάλλον υπερβολικά </tspan><tspan
         sodipodi:role="line"
         style="font-style:normal;font-variant:normal;font-weight:normal;font-stretch:expanded;font-size:45px;font-family:Pecita;-inkscape-font-specification:'Pecita Expanded'"
         x="2120.6638"
         y="2505.7561"
         id="tspan3426">αισιόδοξο, αλλά ποτέ </tspan><tspan
         sodipodi:role="line"
         style="font-style:normal;font-variant:normal;font-weight:normal;font-stretch:expanded;font-size:45px;font-family:Pecita;-inkscape-font-specification:'Pecita Expanded'"
         x="2110.073"
         y="2562.0061"
         id="tspan3428">δεν ξέρεις...</tspan></text>
    <text
       xml:space="preserve"
       style="font-style:normal;font-variant:normal;font-weight:normal;font-stretch:expanded;font-size:12px;line-height:125%;font-family:Pecita;-inkscape-font-specification:'Pecita Expanded';text-align:center;letter-spacing:0px;word-spacing:0px;text-anchor:middle;fill:#000000;fill-opacity:1;stroke:none"
       x="775.45044"
       y="2707.4324"
       id="text4246-3-7-6-7"
       sodipodi:linespacing="125%"><tspan
         sodipodi:role="line"
         style="font-style:normal;font-variant:normal;font-weight:normal;font-stretch:expanded;font-size:45px;font-family:Pecita;-inkscape-font-specification:'Pecita Expanded'"
         x="775.45044"
         y="2707.4324"
         id="tspan3987">Εντάξει,</tspan><tspan
         sodipodi:role="line"
         style="font-style:normal;font-variant:normal;font-weight:normal;font-stretch:expanded;font-size:45px;font-family:Pecita;-inkscape-font-specification:'Pecita Expanded'"
         x="775.45044"
         y="2763.6824"
         id="tspan3432">θα βιαστώ!</tspan></text>
    <text
       xml:space="preserve"
       style="font-style:normal;font-variant:normal;font-weight:normal;font-stretch:expanded;font-size:12px;line-height:125%;font-family:Pecita;-inkscape-font-specification:'Pecita Expanded';text-align:center;letter-spacing:0px;word-spacing:0px;text-anchor:middle;fill:#000000;fill-opacity:1;stroke:none"
       x="942.81274"
       y="2838.0046"
       id="text4246-3-7-6-7-0"
       sodipodi:linespacing="125%"><tspan
         sodipodi:role="line"
         style="font-style:normal;font-variant:normal;font-weight:normal;font-stretch:expanded;font-size:45px;font-family:Pecita;-inkscape-font-specification:'Pecita Expanded'"
         x="953.40356"
         y="2838.0046"
         id="tspan4770">Και, επί τη ευκαιρία, για </tspan><tspan
         sodipodi:role="line"
         style="font-style:normal;font-variant:normal;font-weight:normal;font-stretch:expanded;font-size:45px;font-family:Pecita;-inkscape-font-specification:'Pecita Expanded'"
         x="953.40356"
         y="2894.2546"
         id="tspan3439">ποιο λόγο πρέπει να τα </tspan><tspan
         sodipodi:role="line"
         style="font-style:normal;font-variant:normal;font-weight:normal;font-stretch:expanded;font-size:45px;font-family:Pecita;-inkscape-font-specification:'Pecita Expanded'"
         x="942.81274"
         y="2950.5046"
         id="tspan3441">θάβουμε όλα;</tspan></text>
    <text
       xml:space="preserve"
       style="font-style:normal;font-variant:normal;font-weight:normal;font-stretch:expanded;font-size:12px;line-height:125%;font-family:Pecita;-inkscape-font-specification:'Pecita Expanded';text-align:center;letter-spacing:0px;word-spacing:0px;text-anchor:middle;fill:#000000;fill-opacity:1;stroke:none"
       x="1026.5442"
       y="3025.0105"
       id="text4246-3-7-6-7-0-9"
       sodipodi:linespacing="125%"><tspan
         sodipodi:role="line"
         style="font-style:normal;font-variant:normal;font-weight:normal;font-stretch:expanded;font-size:45px;font-family:Pecita;-inkscape-font-specification:'Pecita Expanded'"
         x="1037.135"
         y="3025.0105"
         id="tspan4782">Δεν θα ήταν </tspan><tspan
         sodipodi:role="line"
         style="font-style:normal;font-variant:normal;font-weight:normal;font-stretch:expanded;font-size:45px;font-family:Pecita;-inkscape-font-specification:'Pecita Expanded'"
         x="1026.5442"
         y="3081.2605"
         id="tspan3445">καλύτερα αν...</tspan></text>
    <text
       xml:space="preserve"
       style="font-style:normal;font-variant:normal;font-weight:normal;font-stretch:expanded;font-size:12px;line-height:125%;font-family:Pecita;-inkscape-font-specification:'Pecita Expanded';text-align:center;letter-spacing:0px;word-spacing:0px;text-anchor:middle;fill:#000000;fill-opacity:1;stroke:none"
       x="2037.533"
       y="3281.2891"
       id="text4246-3-7-6-7-0-9-3"
       sodipodi:linespacing="125%"><tspan
         sodipodi:role="line"
         style="font-style:normal;font-variant:normal;font-weight:normal;font-stretch:expanded;font-size:45px;font-family:Pecita;-inkscape-font-specification:'Pecita Expanded'"
         x="2037.533"
         y="3281.2891"
         id="tspan4464-5">Αν <tspan
   style="font-size:60px"
   id="tspan3449">ΤΙ;</tspan></tspan></text>
  </g>
</svg>
