<?xml version="1.0" encoding="UTF-8" standalone="no"?>
<!-- Created with Inkscape (http://www.inkscape.org/) -->

<svg
   xmlns:dc="http://purl.org/dc/elements/1.1/"
   xmlns:cc="http://creativecommons.org/ns#"
   xmlns:rdf="http://www.w3.org/1999/02/22-rdf-syntax-ns#"
   xmlns:svg="http://www.w3.org/2000/svg"
   xmlns="http://www.w3.org/2000/svg"
   xmlns:xlink="http://www.w3.org/1999/xlink"
   xmlns:sodipodi="http://sodipodi.sourceforge.net/DTD/sodipodi-0.dtd"
   xmlns:inkscape="http://www.inkscape.org/namespaces/inkscape"
   id="svg2"
   version="1.1"
   inkscape:version="0.91 r13725"
   width="2481"
   height="3503"
   sodipodi:docname="Pepper-and-Carrot_by-David-Revoy_E19P02.svg">
  <metadata
     id="metadata8">
    <rdf:RDF>
      <cc:Work
         rdf:about="">
        <dc:format>image/svg+xml</dc:format>
        <dc:type
           rdf:resource="http://purl.org/dc/dcmitype/StillImage" />
        <dc:title />
      </cc:Work>
    </rdf:RDF>
  </metadata>
  <defs
     id="defs6">
    <filter
       inkscape:collect="always"
       style="color-interpolation-filters:sRGB"
       id="filter5236-4-16-3"
       x="-0.0089085409"
       width="1.0178171"
       y="-0.027928527"
       height="1.0558571">
      <feGaussianBlur
         inkscape:collect="always"
         stdDeviation="0.49168068"
         id="feGaussianBlur5238-0-4-6" />
    </filter>
    <filter
       inkscape:collect="always"
       style="color-interpolation-filters:sRGB"
       id="filter5236-4-16"
       x="-0.0089085409"
       width="1.0178171"
       y="-0.027928527"
       height="1.0558571">
      <feGaussianBlur
         inkscape:collect="always"
         stdDeviation="0.49168068"
         id="feGaussianBlur5238-0-4" />
    </filter>
  </defs>
  <sodipodi:namedview
     pagecolor="#ffffff"
     bordercolor="#666666"
     borderopacity="1"
     objecttolerance="10"
     gridtolerance="10"
     guidetolerance="10"
     inkscape:pageopacity="0"
     inkscape:pageshadow="2"
     inkscape:window-width="1920"
     inkscape:window-height="1017"
     id="namedview4"
     showgrid="false"
     inkscape:zoom="0.29870142"
     inkscape:cx="1114.2387"
     inkscape:cy="2734.3768"
     inkscape:window-x="-8"
     inkscape:window-y="-8"
     inkscape:window-maximized="1"
     inkscape:current-layer="layer1" />
  <g
     inkscape:groupmode="layer"
     id="layer2"
     inkscape:label="artwork"
     sodipodi:insensitive="true">
    <image
       sodipodi:absref="E:\Program Files\Pepper and Carrot Repo\peppercarrot_ep19_translation\el\..\gfx_Pepper-and-Carrot_by-David-Revoy_E19P02.png"
       xlink:href="..\gfx_Pepper-and-Carrot_by-David-Revoy_E19P02.png"
       y="0"
       x="0"
       id="image10"
       height="3503"
       width="2481" />
  </g>
  <g
     inkscape:groupmode="layer"
     id="layer4"
     inkscape:label="translatornotes"
     sodipodi:insensitive="true">
    <path
       inkscape:connector-curvature="0"
       id="path3446"
       d="m 2763.8482,1498.4924 0,-189.0352 -203.8301,0 0,90.9805 -10,0 0,-15.6308 -30.9824,26.9824 30.9824,26.9804 0,-16.6171 10,0 0,76.3398 203.8301,0 z"
       style="color:#000000;clip-rule:nonzero;display:inline;overflow:visible;visibility:visible;opacity:0.481;isolation:auto;mix-blend-mode:normal;color-interpolation:sRGB;color-interpolation-filters:linearRGB;solid-color:#000000;solid-opacity:1;fill:#ffe680;fill-opacity:1;fill-rule:nonzero;stroke:#565656;stroke-width:1.20000005;stroke-linecap:butt;stroke-linejoin:miter;stroke-miterlimit:4;stroke-dasharray:none;stroke-dashoffset:0;stroke-opacity:1;marker:none;color-rendering:auto;image-rendering:auto;shape-rendering:auto;text-rendering:auto;enable-background:accumulate" />
    <flowRoot
       transform="translate(2793.4167,295.2096)"
       style="font-style:normal;font-variant:normal;font-weight:normal;font-stretch:normal;font-size:25.3241539px;line-height:125%;font-family:Lavi;-inkscape-font-specification:'Lavi, Normal';text-align:center;letter-spacing:0px;word-spacing:0px;writing-mode:lr-tb;text-anchor:middle;display:inline;opacity:0.481;fill:#000000;fill-opacity:1;stroke:none;stroke-width:1px;stroke-linecap:butt;stroke-linejoin:miter;stroke-opacity:1"
       id="flowRoot3448"
       xml:space="preserve"><flowRegion
         id="flowRegion3450"><rect
           y="1061.6674"
           x="-275.14545"
           height="247.52747"
           width="291.95547"
           id="rect3452" /></flowRegion><flowPara
         id="flowPara3473">labels</flowPara><flowPara
         id="flowPara4255">in the </flowPara><flowPara
         id="flowPara4257">garden :-)</flowPara></flowRoot>  </g>
  <g
     inkscape:groupmode="layer"
     id="layer3"
     inkscape:label="speechbubbles"
     style="display:inline">
    <path
       style="color:#000000;display:inline;overflow:visible;visibility:visible;fill:#ffffff;fill-opacity:1;fill-rule:nonzero;stroke:none;stroke-width:1px;marker:none;enable-background:accumulate"
       d="m 1044.2756,204.52874 c 23.4914,-33.27491 247.7294,-52.28964 318.5883,1.14813 59.1448,44.60374 66.4311,141.48874 22.4921,167.96102 -43.9391,26.47238 -217.5976,27.59731 -288.1506,16.62641 -67.1763,-10.44584 -75.0279,-37.67302 -87.1691,-105.67133 -4.9554,-27.75276 10.7476,-46.78923 34.2393,-80.06423 z"
       id="path4040-4"
       inkscape:connector-curvature="0"
       sodipodi:nodetypes="zssssz" />
    <path
       style="color:#000000;display:inline;overflow:visible;visibility:visible;fill:#ffffff;fill-opacity:1;fill-rule:nonzero;stroke:none;stroke-width:1px;marker:none;enable-background:accumulate"
       d="m 1218.6195,471.60657 c 6.8921,-79.99361 75.774,-136.92767 252.0955,-117.45099 94.4472,10.43269 201.7583,18.40618 192.7593,135.61853 -8.999,117.21223 -163.318,110.3469 -195.2332,112.29768 -31.9153,1.9509 -197.6878,-14.49623 -226.0366,-55.15064 -17.7459,-25.44858 -24.5267,-50.5104 -23.585,-75.31458 z"
       id="path4546-6"
       inkscape:connector-curvature="0"
       sodipodi:nodetypes="cssssc" />
    <path
       style="color:#000000;display:inline;overflow:visible;visibility:visible;fill:#ffffff;fill-opacity:1;fill-rule:nonzero;stroke:none;stroke-width:1px;marker:none;enable-background:accumulate"
       d="m 1352.4098,597.42803 c 55.1398,-56.53134 344.049,-44.42084 446.3557,-31.70856 151.885,18.87273 145.3964,71.16786 150.0377,86.13526 4.6409,14.96728 -6.9618,84.36126 -58.0151,97.96804 -51.0531,13.60664 -197.2506,20.40995 -248.3036,20.40995 -51.0531,0 -214.026,-8.66058 -255.2661,-28.57405 -39.4502,-19.04932 -89.9488,-87.69942 -34.8086,-144.23064 z"
       id="path3330"
       inkscape:connector-curvature="0"
       sodipodi:nodetypes="zsssssz" />
    <path
       style="color:#000000;display:inline;overflow:visible;visibility:visible;fill:#ffffff;fill-opacity:1;fill-rule:nonzero;stroke:none;stroke-width:1px;marker:none;enable-background:accumulate"
       d="m 1537.5273,696.39507 c -4.748,19.68499 -0.6503,33.38997 2.5742,37.35036 3.2245,3.96027 2.3513,12.12365 5.2378,17.57337 2.3614,4.51862 3.5729,10.81257 -0.8434,12.64306 -4.4163,1.83058 -29.4289,3.69855 -33.6755,16.66121 -4.2467,12.96272 3.9771,24.00648 14.1454,30.32451 10.1684,6.31815 24.4145,10.44127 22.2717,20.40102 -2.1427,9.95976 -9.8422,13.23017 -15.8741,13.66024 -6.0318,0.43007 -42.6593,-1.86158 -51.9545,1.56498 -9.295,3.4266 -34.8875,18.35716 -31.0179,31.36521 11.9004,-13.15184 18.3151,-19.01847 27.1348,-20.36055 8.8198,-1.34212 24.7212,-5.09072 34.6744,-1.78852 9.9534,3.30225 30.2251,7.01956 38.1327,2.88942 7.9077,-4.13 22.6869,-13.91278 22.9796,-24.81049 0.2928,-10.89767 -5.2053,-22.98724 -21.3925,-31.19418 -10.1682,-6.31811 -14.5522,-10.2849 -13.6078,-13.29434 0.9444,-3.00939 11.8681,-7.35452 23.4562,-6.13032 11.5882,1.22424 17.0469,-9.49086 18.0108,-15.97871 0.9638,-6.48781 -2.7884,-15.67273 -3.2186,-21.7046 -0.4301,-6.03183 -6.7045,-40.19004 -6.7045,-40.19004 z"
       id="path5058"
       inkscape:connector-curvature="0"
       sodipodi:nodetypes="cscsssssscssssccscccc" />
    <path
       style="color:#000000;display:inline;overflow:visible;visibility:visible;fill:#ffffff;fill-opacity:1;fill-rule:nonzero;stroke:none;stroke-width:1px;marker:none;enable-background:accumulate"
       d="m 1357.7943,1851.0861 c 7.5125,-69.8494 48.7148,-95.0896 139.2901,-98.7527 44.9703,-1.8188 207.8464,-8.1256 273.869,4.5118 66.0225,12.6375 122.5375,51.3422 117.5293,102.5251 -5.0082,51.1828 -10.9321,90.8284 -83.0357,105.3166 -72.1036,14.4881 -210.3866,3.8187 -224.7854,4.4209 -28.7973,1.2043 -177.9437,-15.7854 -202.8342,-51.7851 -15.5808,-22.5348 -21.2852,-44.559 -20.0331,-66.2366 z"
       id="path4546-6-3"
       inkscape:connector-curvature="0"
       sodipodi:nodetypes="cssssssc" />
    <path
       style="color:#000000;display:inline;overflow:visible;visibility:visible;fill:#ffffff;fill-opacity:1;fill-rule:nonzero;stroke:none;stroke-width:1px;marker:none;enable-background:accumulate"
       d="m 1760.2368,1983.0096 c -2.2732,-13.9006 22.6509,-72.4119 161.3189,-63.1448 138.668,9.2671 153.1516,20.9339 159.4788,70.8244 2.3385,18.4386 -19.2408,45.3021 -39.7001,49.9356 -20.4592,4.6335 -80.2783,17.7137 -114.3769,14.007 -34.0987,-3.7069 -84.4332,-2.8275 -134.6027,-22.2636 -30.2799,-11.7307 -29.8447,-45.6518 -32.118,-49.3586 z"
       id="path3365"
       inkscape:connector-curvature="0"
       sodipodi:nodetypes="csssssc" />
    <path
       style="fill:#ffffff;fill-opacity:1;stroke:none"
       d="m 1748.3111,2212.1248 c -11.5758,-151.9994 70.8536,-204.7259 290.3886,-204.5102 219.535,0.2154 308.3651,43.4875 317.5896,133.9866 20.6266,202.3645 -114.1211,252.8363 -186.336,265.3975 -144.2466,25.0904 -352.7077,-22.1208 -382.1617,-64.5029 -29.4541,-42.3821 -36.9393,-90.6291 -39.4805,-130.371 z"
       id="path3238"
       inkscape:connector-curvature="0"
       sodipodi:nodetypes="cssssc" />
    <path
       style="color:#000000;display:inline;overflow:visible;visibility:visible;fill:#ffffff;fill-opacity:1;fill-rule:nonzero;stroke:none;stroke-width:1px;marker:none;enable-background:accumulate"
       d="m 1844.9253,2307.633 c -30.6436,39.5697 -91.823,73.3362 -171.3605,30.1552 76.0815,26.4581 119.8575,-5.9599 145.0149,-45.5895 21.7184,-34.2122 33.4899,-49.0683 33.4899,-49.0683 z"
       id="path4440"
       inkscape:connector-curvature="0"
       sodipodi:nodetypes="ccscc" />
    <path
       style="color:#000000;display:inline;overflow:visible;visibility:visible;fill:#ffffff;fill-opacity:1;fill-rule:nonzero;stroke:none;stroke-width:1px;marker:none;enable-background:accumulate"
       d="m 73.064316,2756.9074 c 27.957514,-10.9597 41.208774,-18.5558 0.488367,-34.3247 8.360812,-0.1198 55.018697,-2.1442 10.409372,-32.9366 14.70739,3.9749 38.226255,14.5291 11.75212,-36.5871 15.918215,8.1494 37.998095,34.2072 18.629955,-14.0742 20.97428,16.3179 48.60732,6.0013 42.95062,-2.5708 16.88018,10.4052 50.03104,9.5448 47.19137,0.7154 12.41081,9.6323 46.03203,12.4562 43.39359,-3.6881 10.31231,11.0973 42.31665,9.9541 39.17912,0.5253 27.03746,11.2241 66.12551,18.1422 80.89821,2.4934 12.61408,14.8098 71.28931,10.3376 120.5006,0.2295 0.77086,10.4538 55.54325,12.2889 100.18236,-4.7288 0.67562,15.8808 16.7841,21.2619 36.46823,9.5749 7.02928,6.5186 5.15318,10.3103 32.77672,-5.1216 -1.31875,10.6121 3.59812,20.4024 22.84433,10.2432 3.35273,6.5649 -8.91626,23.5801 39.72949,-1.2805 0.32158,9.2802 -11.09722,27.5037 30.79025,5.1216 -33.97996,55.1372 -15.14697,49.2359 7.94583,38.4113 -17.98045,32.5259 -41.17101,72.8685 4.52417,71.3855 -35.77975,7.514 -35.15426,18.687 -30.34822,36.1663 -44.84363,-35.1981 -50.11257,-8.4487 -69.5265,-3.8411 -20.4951,-5.8556 -39.3763,-27.3135 -63.56688,2.5608 -37.05875,-12.2937 -44.40605,-1.0176 -56.61446,6.402 -64.74448,-23.5924 -63.21512,-4.468 -92.37091,-5.1217 -17.238,-29.1834 -56.138,-7.1717 -84.42501,-10.2429 -35.75635,-23.9307 -88.96336,-2.9536 -116.79887,6.2711 13.60469,-14.9487 -19.89804,-28.2936 -51.75938,4.1237 15.82169,-27.3926 -10.13699,-36.628 -58.60084,-1.3493 22.77441,-32.458 -8.72282,-27.285 -43.993775,-6.4848 34.519745,-31.5409 -1.95764,-34.2446 -22.649859,-31.8718 z"
       id="path3557"
       inkscape:connector-curvature="0"
       sodipodi:nodetypes="cccccccccccccccccccccccccccccc" />
    <path
       style="color:#000000;display:inline;overflow:visible;visibility:visible;fill:#ffffff;fill-opacity:1;fill-rule:nonzero;stroke:none;stroke-width:1px;marker:none;enable-background:accumulate"
       d="m 271.05954,2839.5634 c 8.43841,-73.3533 93.40373,-126.6439 311.0341,-111.7966 116.57455,7.953 249.02327,13.4367 238.01599,120.9006 -11.00741,107.4636 -201.47202,103.79 -240.8598,106.116 -39.38777,2.3262 -243.99617,-9.926 -279.01838,-46.6664 -21.9231,-22.9987 -30.3132,-45.8287 -29.17191,-68.5536 z"
       id="path4546"
       inkscape:connector-curvature="0"
       sodipodi:nodetypes="cssssc" />
    <path
       style="color:#000000;display:inline;overflow:visible;visibility:visible;fill:#ffffff;fill-opacity:1;fill-rule:nonzero;stroke:none;stroke-width:1px;marker:none;enable-background:accumulate"
       d="m 990.3039,2942.0433 c -39.7219,-30.7338 -84.6659,-56.332 -118.3207,-93.0329 l 9.2071,41.4633 c -19.1495,-7.3977 -31.9655,-24.339 -46.9322,-38.0398 l 1.0996,26.2988 c -44.9905,-17.9715 -75.7521,-49.3371 -113.3909,-74.2288 l 5.8989,45.8738 c 41.0512,21.0955 84.9859,35.8216 122.7937,64.0815 l 1.7812,-25.6614 c 14.445,8.0961 28.5921,16.7337 41.4085,27.7896 l -0.8973,-32.5393 z"
       id="path4032-6"
       inkscape:connector-curvature="0"
       sodipodi:nodetypes="cccccccccccc" />
    <path
       style="fill:#ffffff;stroke:none"
       d="m 1699.0736,2771.0202 c 5.0501,-60.4636 35.5091,-85.0538 49.33,-93.079 13.8207,-8.0252 71.8414,-18.3199 109.742,-16.548 37.9006,1.7719 131.855,10.4999 147.6558,13.4066 15.8008,2.9066 57.954,48.234 57.5018,87.2344 -0.4521,39.0001 -8.9041,64.619 -31.9343,87.3886 -23.0304,22.7698 -160.4271,27.1856 -168.8922,24.6219 -8.4654,-2.5636 -121.5161,-23.0237 -128.5726,-29.8572 -7.0564,-6.8334 -35.6546,-25.5131 -34.8305,-73.1673 z"
       id="path3278"
       inkscape:connector-curvature="0" />
    <path
       style="color:#000000;fill:#ffffff;fill-opacity:1;fill-rule:nonzero;stroke:none;stroke-width:1px;marker:none;visibility:visible;display:inline;overflow:visible;enable-background:accumulate"
       d="m 1751.8024,2884.441 c 40.137,-46.9028 378.9373,-97.8131 498.0135,-1.1561 119.076,96.657 46.8496,212.6455 -21.4729,249.5509 -68.3223,36.9054 -269.3852,77.3256 -361.1324,45.6924 -91.7471,-31.6332 -163.2125,-78.9187 -167.8779,-175.74 -1.9041,-39.5167 12.3329,-71.4441 52.4697,-118.3472 z"
       id="path4040"
       inkscape:connector-curvature="0"
       sodipodi:nodetypes="zssssz" />
    <path
       style="display:inline;fill:#ffffff;fill-rule:evenodd;stroke:none;stroke-width:1px;stroke-linecap:butt;stroke-linejoin:miter;stroke-opacity:1"
       d="m 1889.5795,3122.771 c 48.1261,28.5286 75.5394,16.9272 74.7133,-49.3868 22.9607,71.6603 38.8942,87.6873 48.344,52.3799 30.3984,30.3481 49.3847,21.8353 64.4586,0 5.6184,28.0816 17.6672,16.7498 28.0947,15.3549 3.4344,6.3532 -8.3613,22.1376 39.2938,1.1073 3.0868,8.4093 7.2451,15.651 35.1591,-2.9931 7.2317,34.1321 30.4341,-1.8917 54.204,-40.4074 -14.8094,47.3518 -8.6685,54.0398 10.2547,35.9176 -8.6516,19.4998 -13.8261,34.5948 19.0445,1.4966 -11.2532,35.9927 18.2696,11.2875 65.9236,-40.4072 -23.8372,38.2124 -87.0482,102.6164 -45.4139,97.2767 -5.8062,11.2651 -26.5164,21.0802 35.1591,38.9107 -11.514,7.6442 -46.6658,-3.5263 -17.3429,28.8398 3.9288,3.7834 -9.2235,6.0937 15.878,16.0571 -14.8178,-0.6778 -23.9051,1.7436 -10.2549,16.4623 -27.0478,-0.7959 -16.9276,14.6808 2.93,34.4209 -39.169,-25.3209 -41.3245,-16.1182 -42.4842,-5.9862 -49.0902,-34.521 -51.9717,-23.6523 -58.5985,-16.4623 -23.9278,0.2694 -47.8557,-4.0779 -71.7836,34.421 -6.2663,-23.9452 -18.8296,-42.3768 -71.7833,-25.4415 23.2507,-30.4626 -9.8264,-11.0548 -35.1593,1.4965 13.8728,-38.0554 -21.3342,-13.0797 -65.9235,23.945 24.9698,-42.0237 -3.39,-26.8437 -45.4141,2.9932 15.8781,-41.2842 -9.9807,-61.2497 -71.7833,-62.8558 29.5806,-14.8917 46.8304,-33.6324 16.1147,-67.3454 34.6253,9.9269 44.9535,0.7062 20.5095,-35.9176 37.767,30.0605 20.5958,-13.5407 5.8599,-53.8762 z"
       id="path4508"
       inkscape:connector-curvature="0"
       sodipodi:nodetypes="cccccccccccccccccccccccccccc" />
    <path
       style="color:#000000;display:inline;overflow:visible;visibility:visible;fill:#ffffff;fill-opacity:1;fill-rule:nonzero;stroke:none;stroke-width:1px;marker:none;enable-background:accumulate"
       d="m 1490.4164,2866.2226 c 36.6716,-30.7338 78.1642,-56.332 109.2346,-93.0329 l -8.5001,41.4633 c 17.679,-7.3977 29.5108,-24.339 43.3282,-38.0398 l -1.0152,26.2988 c 41.5356,-17.9715 69.9349,-49.3371 104.6834,-74.2288 l -5.4459,45.8738 c -37.8988,21.0955 -78.4597,35.8216 -113.3641,64.0815 l -1.6444,-25.6614 c -13.3358,8.0961 -26.3965,16.7337 -38.2287,27.7896 l 0.8284,-32.5393 z"
       id="path4032"
       inkscape:connector-curvature="0"
       sodipodi:nodetypes="cccccccccccc" />
  </g>
  <g
     inkscape:groupmode="layer"
     id="layer1"
     inkscape:label="txt">
    <text
       xml:space="preserve"
       style="font-style:normal;font-variant:normal;font-weight:normal;font-stretch:expanded;font-size:12px;line-height:125%;font-family:PECITA;-inkscape-font-specification:'PECITA Expanded';text-align:center;letter-spacing:0px;word-spacing:0px;text-anchor:middle;fill:#000000;fill-opacity:1;stroke:none;"
       x="1194.6492"
       y="229.16325"
       id="text4246"
       sodipodi:linespacing="125%"><tspan
         sodipodi:role="line"
         style="font-size:45px;-inkscape-font-specification:'PECITA Expanded';font-family:PECITA;font-weight:normal;font-style:normal;font-stretch:expanded;font-variant:normal;"
         x="1194.6492"
         y="229.16325"
         id="tspan4252">Εμμ...</tspan></text>
    <text
       xml:space="preserve"
       style="font-style:normal;font-variant:normal;font-weight:normal;font-stretch:expanded;font-size:12px;line-height:125%;font-family:PECITA;-inkscape-font-specification:'PECITA Expanded';text-align:center;letter-spacing:0px;word-spacing:0px;text-anchor:middle;fill:#000000;fill-opacity:1;stroke:none;"
       x="1213.9131"
       y="297.91959"
       id="text4246-3"
       sodipodi:linespacing="125%"><tspan
         sodipodi:role="line"
         style="font-size:45px;-inkscape-font-specification:'PECITA Expanded';font-family:PECITA;font-weight:normal;font-style:normal;font-stretch:expanded;font-variant:normal;"
         x="1221.0762"
         y="297.91959"
         id="tspan4164">Λοιπόν, δεν είμαι </tspan><tspan
         sodipodi:role="line"
         style="font-size:45px;-inkscape-font-specification:'PECITA Expanded';font-family:PECITA;font-weight:normal;font-style:normal;font-stretch:expanded;font-variant:normal;"
         x="1213.9131"
         y="354.16959"
         id="tspan3831">και ειδική...</tspan></text>
    <text
       xml:space="preserve"
       style="font-style:normal;font-variant:normal;font-weight:normal;font-stretch:expanded;font-size:12px;line-height:125%;font-family:PECITA;-inkscape-font-specification:'PECITA Expanded';text-align:center;letter-spacing:0px;word-spacing:0px;text-anchor:middle;fill:#000000;fill-opacity:1;stroke:none;"
       x="1447.9285"
       y="439.09341"
       id="text4246-3-7"
       sodipodi:linespacing="125%"><tspan
         sodipodi:role="line"
         style="font-size:45px;-inkscape-font-specification:'PECITA Expanded';font-family:PECITA;font-weight:normal;font-style:normal;font-stretch:expanded;font-variant:normal;"
         x="1447.9285"
         y="439.09341"
         id="tspan4199">Αλλά οι σοδειές μας</tspan><tspan
         sodipodi:role="line"
         style="font-size:45px;-inkscape-font-specification:'PECITA Expanded';font-family:PECITA;font-weight:normal;font-style:normal;font-stretch:expanded;font-variant:normal;"
         x="1447.9285"
         y="495.34341"
         id="tspan3840">φέτος φαίνονται</tspan><tspan
         sodipodi:role="line"
         style="font-size:45px;-inkscape-font-specification:'PECITA Expanded';font-family:PECITA;font-weight:normal;font-style:normal;font-stretch:expanded;font-variant:normal;"
         x="1447.9285"
         y="551.59338"
         id="tspan3429"> πολύ παράξενες...</tspan></text>
    <text
       xml:space="preserve"
       style="font-style:normal;font-variant:normal;font-weight:normal;font-stretch:expanded;font-size:12px;line-height:125%;font-family:PECITA;-inkscape-font-specification:'PECITA Expanded';text-align:center;letter-spacing:0px;word-spacing:0px;text-anchor:middle;fill:#000000;fill-opacity:1;stroke:none;"
       x="1637.3901"
       y="619.19336"
       id="text4246-3-7-6"
       sodipodi:linespacing="125%"><tspan
         sodipodi:role="line"
         style="font-size:45px;-inkscape-font-specification:'PECITA Expanded';font-family:PECITA;font-weight:normal;font-style:normal;font-stretch:expanded;font-variant:normal;"
         x="1644.5532"
         y="619.19336"
         id="tspan3849">και αυτό ισχύει και </tspan><tspan
         sodipodi:role="line"
         style="font-size:45px;-inkscape-font-specification:'PECITA Expanded';font-family:PECITA;font-weight:normal;font-style:normal;font-stretch:expanded;font-variant:normal;"
         x="1637.3901"
         y="675.44336"
         id="tspan3441">για τα φυτά που βρίσκονται</tspan><tspan
         sodipodi:role="line"
         style="font-size:45px;-inkscape-font-specification:'PECITA Expanded';font-family:PECITA;font-weight:normal;font-style:normal;font-stretch:expanded;font-variant:normal;"
         x="1637.3901"
         y="731.69336"
         id="tspan3443">γύρω από το σπίτι μας...</tspan></text>
    <text
       sodipodi:linespacing="125%"
       id="text4178-6-5-9-0-7-0-4"
       style="font-style:normal;font-variant:normal;font-weight:normal;font-stretch:expanded;font-size:55.00672366px;line-height:125%;font-family:PECITA;-inkscape-font-specification:'PECITA Expanded';text-align:center;letter-spacing:0px;word-spacing:0px;text-anchor:middle;opacity:0.63300003;fill:#ffffff;fill-opacity:1;stroke:none;filter:url(#filter5236-4-16);"
       xml:space="preserve"
       y="3129.8394"
       x="1318.7137"
       transform="matrix(0.6851492,-0.06612027,-0.09994133,0.78144216,149.5816,-965.35698)"><tspan
         y="3129.8394"
         x="1318.7137"
         style="font-style:normal;font-variant:normal;font-weight:normal;font-stretch:expanded;font-size:55.00672366px;font-family:PECITA;-inkscape-font-specification:'PECITA Expanded';fill:#ffffff;fill-opacity:1;"
         sodipodi:role="line"
         id="tspan4293-1-6-3-5-0-2">Ντομάτες</tspan></text>
    <text
       sodipodi:linespacing="125%"
       id="text4178-6-5-9-0-7-0-4-7"
       style="font-style:normal;font-variant:normal;font-weight:normal;font-stretch:expanded;font-size:56.14969492px;line-height:125%;font-family:PECITA;-inkscape-font-specification:'PECITA Expanded';text-align:center;letter-spacing:0px;word-spacing:0px;text-anchor:middle;opacity:0.63300003;fill:#ffffff;fill-opacity:1;stroke:none;filter:url(#filter5236-4-16-3);"
       xml:space="preserve"
       y="3129.8394"
       x="1318.7137"
       transform="matrix(0.58543203,0.08325699,-0.38986142,0.70644422,2171.8616,-965.83592)"><tspan
         y="3129.8394"
         x="1318.7137"
         style="font-style:normal;font-variant:normal;font-weight:normal;font-stretch:expanded;font-size:56.14969492px;font-family:PECITA;-inkscape-font-specification:'PECITA Expanded';fill:#ffffff;fill-opacity:1;"
         sodipodi:role="line"
         id="tspan4293-1-6-3-5-0-2-5">Μελιτζάνες</tspan></text>
    <text
       xml:space="preserve"
       style="font-style:normal;font-variant:normal;font-weight:normal;font-stretch:expanded;font-size:12px;line-height:125%;font-family:PECITA;-inkscape-font-specification:'PECITA Expanded';text-align:center;letter-spacing:0px;word-spacing:0px;text-anchor:middle;fill:#000000;fill-opacity:1;stroke:none;"
       x="1627.533"
       y="1809.5331"
       id="text4246-3-2"
       sodipodi:linespacing="125%"><tspan
         sodipodi:role="line"
         style="font-size:45px;-inkscape-font-specification:'PECITA Expanded';font-family:PECITA;font-weight:normal;font-style:normal;font-stretch:expanded;font-variant:normal;"
         x="1634.696"
         y="1809.5331"
         id="tspan3858">Το ίδιο και με τα </tspan><tspan
         sodipodi:role="line"
         style="font-size:45px;-inkscape-font-specification:'PECITA Expanded';font-family:PECITA;font-weight:normal;font-style:normal;font-stretch:expanded;font-variant:normal;"
         x="1627.533"
         y="1865.7831"
         id="tspan3449">μυρμήγκια, φαίρονται πολύ</tspan><tspan
         sodipodi:role="line"
         style="font-size:45px;-inkscape-font-specification:'PECITA Expanded';font-family:PECITA;font-weight:normal;font-style:normal;font-stretch:expanded;font-variant:normal;"
         x="1627.533"
         y="1922.0331"
         id="tspan3451"> παράξενα, τελευταία...</tspan></text>
    <text
       xml:space="preserve"
       style="font-style:normal;font-variant:normal;font-weight:normal;font-stretch:expanded;font-size:12px;line-height:125%;font-family:PECITA;-inkscape-font-specification:'PECITA Expanded';text-align:center;letter-spacing:0px;word-spacing:0px;text-anchor:middle;fill:#000000;fill-opacity:1;stroke:none;"
       x="1928.5547"
       y="1997.0601"
       id="text4246-3-2-9"
       sodipodi:linespacing="125%"><tspan
         sodipodi:role="line"
         style="font-size:45px;-inkscape-font-specification:'PECITA Expanded';font-family:PECITA;font-weight:normal;font-style:normal;font-stretch:expanded;font-variant:normal;"
         x="1928.5547"
         y="1997.0601"
         id="tspan4259-0">Τέλος πάντων...</tspan></text>
    <text
       xml:space="preserve"
       style="font-style:normal;font-variant:normal;font-weight:normal;font-stretch:expanded;font-size:12px;line-height:125%;font-family:PECITA;-inkscape-font-specification:'PECITA Expanded';text-align:center;letter-spacing:0px;word-spacing:0px;text-anchor:middle;fill:#000000;fill-opacity:1;stroke:none;"
       x="2053.186"
       y="2083.1831"
       id="text4246-3-2-9-6"
       sodipodi:linespacing="125%"><tspan
         sodipodi:role="line"
         style="font-size:45px;-inkscape-font-specification:'PECITA Expanded';font-family:PECITA;font-weight:normal;font-style:normal;font-stretch:expanded;font-variant:normal;"
         x="2060.3491"
         y="2083.1831"
         id="tspan4326">υπέθεσα πως ίσως και </tspan><tspan
         sodipodi:role="line"
         style="font-size:45px;-inkscape-font-specification:'PECITA Expanded';font-family:PECITA;font-weight:normal;font-style:normal;font-stretch:expanded;font-variant:normal;"
         x="2053.186"
         y="2139.4331"
         id="tspan3463">να έχουμε ένα μικρό πρόβλημα</tspan><tspan
         sodipodi:role="line"
         style="font-size:45px;-inkscape-font-specification:'PECITA Expanded';font-family:PECITA;font-weight:normal;font-style:normal;font-stretch:expanded;font-variant:normal;"
         x="2060.3491"
         y="2195.6831"
         id="tspan3467">με την μόλυνση και μάλλον </tspan><tspan
         sodipodi:role="line"
         style="font-size:45px;-inkscape-font-specification:'PECITA Expanded';font-family:PECITA;font-weight:normal;font-style:normal;font-stretch:expanded;font-variant:normal;"
         x="2060.3491"
         y="2251.9331"
         id="tspan3483">πρέπει να είμαστε </tspan><tspan
         sodipodi:role="line"
         style="font-size:45px;-inkscape-font-specification:'PECITA Expanded';font-family:PECITA;font-weight:normal;font-style:normal;font-stretch:expanded;font-variant:normal;"
         x="2060.3491"
         y="2308.1831"
         id="tspan3469">πιο προσεκτικές με </tspan><tspan
         sodipodi:role="line"
         style="font-size:45px;-inkscape-font-specification:'PECITA Expanded';font-family:PECITA;font-weight:normal;font-style:normal;font-stretch:expanded;font-variant:normal;"
         x="2053.186"
         y="2364.4331"
         id="tspan3888">τα απορρίματά μας...</tspan></text>
    <text
       xml:space="preserve"
       style="font-style:normal;font-variant:normal;font-weight:normal;font-stretch:expanded;font-size:12px;line-height:125%;font-family:PECITA;-inkscape-font-specification:'PECITA Expanded';text-align:center;letter-spacing:0px;word-spacing:0px;text-anchor:middle;fill:#000000;fill-opacity:1;stroke:none;stroke-width:2.79999995;stroke-miterlimit:4;stroke-dasharray:none;"
       x="419.67166"
       y="2684.5779"
       id="text4246-3-2-9-6-6"
       sodipodi:linespacing="125%"><tspan
         sodipodi:role="line"
         style="font-size:45px;stroke-width:2.79999995;stroke-miterlimit:4;stroke-dasharray:none;-inkscape-font-specification:'PECITA Expanded';font-family:PECITA;font-weight:normal;font-style:normal;font-stretch:expanded;font-variant:normal;"
         x="419.67166"
         y="2684.5779"
         id="tspan3892">Για άκου εδώ δεσποινίς</tspan><tspan
         sodipodi:role="line"
         style="font-size:50px;stroke-width:2.79999995;stroke-miterlimit:4;stroke-dasharray:none;-inkscape-font-specification:'PECITA Expanded';font-family:PECITA;font-weight:normal;font-style:normal;font-stretch:expanded;font-variant:normal"
         x="419.67166"
         y="2740.8279"
         id="tspan3900">&quot;Καταστρέφω-όλα-μου-τα-φίλτρα&quot;!</tspan><tspan
         sodipodi:role="line"
         style="font-size:45px;stroke-width:2.79999995;stroke-miterlimit:4;stroke-dasharray:none;-inkscape-font-specification:'PECITA Expanded';font-family:PECITA;font-weight:normal;font-style:normal;font-stretch:expanded;font-variant:normal;"
         x="419.67166"
         y="2797.0779"
         id="tspan4378" /></text>
    <text
       xml:space="preserve"
       style="font-style:normal;font-variant:normal;font-weight:normal;font-stretch:expanded;font-size:12px;line-height:125%;font-family:PECITA;-inkscape-font-specification:'PECITA Expanded';text-align:center;letter-spacing:0px;word-spacing:0px;text-anchor:middle;fill:#000000;fill-opacity:1;stroke:none;"
       x="547.53906"
       y="2811.6135"
       id="text4246-3-2-9-6-6-7"
       sodipodi:linespacing="125%"><tspan
         sodipodi:role="line"
         style="font-size:45px;-inkscape-font-specification:'PECITA Expanded';font-family:PECITA;font-weight:normal;font-style:normal;font-stretch:expanded;font-variant:normal;"
         x="554.70215"
         y="2811.6135"
         id="tspan4378-5">Ξέχνα αυτά που </tspan><tspan
         sodipodi:role="line"
         style="font-size:45px;-inkscape-font-specification:'PECITA Expanded';font-family:PECITA;font-weight:normal;font-style:normal;font-stretch:expanded;font-variant:normal;"
         x="547.53906"
         y="2867.8635"
         id="tspan3491">έμαθες πίσω στη σχολή</tspan><tspan
         sodipodi:role="line"
         style="font-size:45px;-inkscape-font-specification:'PECITA Expanded';font-family:PECITA;font-weight:normal;font-style:normal;font-stretch:expanded;font-variant:normal;"
         x="547.53906"
         y="2924.1135"
         id="tspan3493">της Χίππινα.</tspan></text>
    <text
       xml:space="preserve"
       style="font-style:normal;font-variant:normal;font-weight:normal;font-stretch:expanded;font-size:12px;line-height:125%;font-family:PECITA;-inkscape-font-specification:'PECITA Expanded';text-align:center;letter-spacing:0px;word-spacing:0px;text-anchor:middle;fill:#000000;fill-opacity:1;stroke:none;"
       x="1882.85"
       y="2725.4656"
       id="text4246-3-2-9-6-6-0"
       sodipodi:linespacing="125%"><tspan
         sodipodi:role="line"
         style="font-size:45px;-inkscape-font-specification:'PECITA Expanded';font-family:PECITA;font-weight:normal;font-style:normal;font-stretch:expanded;font-variant:normal;"
         x="1882.85"
         y="2725.4656"
         id="tspan4378-7">Στην Χαωδία,</tspan><tspan
         sodipodi:role="line"
         style="font-size:45px;-inkscape-font-specification:'PECITA Expanded';font-family:PECITA;font-weight:normal;font-style:normal;font-stretch:expanded;font-variant:normal;"
         x="1890.0131"
         y="2781.7156"
         id="tspan3501">ΘΑΒΟΥΜΕ </tspan><tspan
         sodipodi:role="line"
         style="font-size:45px;-inkscape-font-specification:'PECITA Expanded';font-family:PECITA;font-weight:normal;font-style:normal;font-stretch:expanded;font-variant:normal;"
         x="1882.85"
         y="2837.9656"
         id="tspan3503">τα λάθη μας!</tspan></text>
    <text
       xml:space="preserve"
       style="font-style:normal;font-variant:normal;font-weight:normal;font-stretch:expanded;font-size:12px;line-height:125%;font-family:PECITA;-inkscape-font-specification:'PECITA Expanded';text-align:center;letter-spacing:0px;word-spacing:0px;text-anchor:middle;fill:#000000;fill-opacity:1;stroke:none;stroke-width:2.79999995;stroke-miterlimit:4;stroke-dasharray:none;"
       x="2002.6411"
       y="2913.0608"
       id="text4246-3-2-9-6-6-0-5"
       sodipodi:linespacing="125%"><tspan
         sodipodi:role="line"
         style="font-size:45px;stroke-width:2.79999995;stroke-miterlimit:4;stroke-dasharray:none;-inkscape-font-specification:'PECITA Expanded';font-family:PECITA;font-weight:normal;font-style:normal;font-stretch:expanded;font-variant:normal;"
         x="2002.6411"
         y="2913.0608"
         id="tspan4378-7-6">Είναι η παράδοσή μας</tspan><tspan
         sodipodi:role="line"
         style="font-size:45px;stroke-width:2.79999995;stroke-miterlimit:4;stroke-dasharray:none;-inkscape-font-specification:'PECITA Expanded';font-family:PECITA;font-weight:normal;font-style:normal;font-stretch:expanded;font-variant:normal;"
         x="2002.6411"
         y="2969.3108"
         id="tspan3515">από την αρχή του χρόνου</tspan><tspan
         sodipodi:role="line"
         style="font-size:45px;stroke-width:2.79999995;stroke-miterlimit:4;stroke-dasharray:none;-inkscape-font-specification:'PECITA Expanded';font-family:PECITA;font-weight:normal;font-style:normal;font-stretch:expanded;font-variant:normal;"
         x="2009.8042"
         y="3025.5608"
         id="tspan3519">και δεν δίνω ΜΙΑ για τις </tspan><tspan
         sodipodi:role="line"
         style="font-size:45px;stroke-width:2.79999995;stroke-miterlimit:4;stroke-dasharray:none;-inkscape-font-specification:'PECITA Expanded';font-family:PECITA;font-weight:normal;font-style:normal;font-stretch:expanded;font-variant:normal;"
         x="2002.6411"
         y="3081.8108"
         id="tspan3523">ανησυχίες της</tspan><tspan
         sodipodi:role="line"
         style="font-size:45px;stroke-width:2.79999995;stroke-miterlimit:4;stroke-dasharray:none;-inkscape-font-specification:'PECITA Expanded';font-family:PECITA;font-weight:normal;font-style:normal;font-stretch:expanded;font-variant:normal;"
         x="2009.8042"
         y="3138.0608"
         id="tspan3525">ΜΗΤΕΡΑΣ ΦΥΣΗΣ! </tspan></text>
    <text
       xml:space="preserve"
       style="font-style:normal;font-variant:normal;font-weight:normal;font-stretch:expanded;font-size:12px;line-height:125%;font-family:PECITA;-inkscape-font-specification:'PECITA Expanded';text-align:center;letter-spacing:0px;word-spacing:0px;text-anchor:middle;fill:#000000;fill-opacity:1;stroke:none;stroke-width:2.79999995;stroke-miterlimit:4;stroke-dasharray:none;"
       x="2083.4753"
       y="3219.5076"
       id="text4246-3-2-9-6-6-0-5-1"
       sodipodi:linespacing="125%"><tspan
         sodipodi:role="line"
         style="font-size:45px;stroke-width:2.79999995;stroke-miterlimit:4;stroke-dasharray:none;-inkscape-font-specification:'PECITA Expanded';font-family:PECITA;font-weight:normal;font-style:normal;font-stretch:expanded;font-variant:normal;"
         x="2083.4753"
         y="3219.5076"
         id="tspan4378-7-6-4">Οπότε στάματα</tspan><tspan
         sodipodi:role="line"
         style="font-size:45px;stroke-width:2.79999995;stroke-miterlimit:4;stroke-dasharray:none;-inkscape-font-specification:'PECITA Expanded';font-family:PECITA;font-weight:normal;font-style:normal;font-stretch:expanded;font-variant:normal;"
         x="2083.4753"
         y="3275.7576"
         id="tspan3531">να μιλάς και <tspan
   style="-inkscape-font-specification:'PECITA Expanded';font-family:PECITA;font-weight:normal;font-style:normal;font-stretch:expanded;font-variant:normal;"
   id="tspan3533">ΣΚΑΒΕ</tspan>!</tspan></text>
  </g>
</svg>
