<?xml version="1.0" encoding="UTF-8" standalone="no"?>
<!-- Created with Inkscape (http://www.inkscape.org/) -->

<svg
   xmlns:dc="http://purl.org/dc/elements/1.1/"
   xmlns:cc="http://creativecommons.org/ns#"
   xmlns:rdf="http://www.w3.org/1999/02/22-rdf-syntax-ns#"
   xmlns:svg="http://www.w3.org/2000/svg"
   xmlns="http://www.w3.org/2000/svg"
   xmlns:xlink="http://www.w3.org/1999/xlink"
   xmlns:sodipodi="http://sodipodi.sourceforge.net/DTD/sodipodi-0.dtd"
   xmlns:inkscape="http://www.inkscape.org/namespaces/inkscape"
   id="svg2"
   version="1.1"
   inkscape:version="0.91 r13725"
   width="2481"
   height="3503"
   sodipodi:docname="Pepper-and-Carrot_by-David-Revoy_E19P03.svg">
  <metadata
     id="metadata8">
    <rdf:RDF>
      <cc:Work
         rdf:about="">
        <dc:format>image/svg+xml</dc:format>
        <dc:type
           rdf:resource="http://purl.org/dc/dcmitype/StillImage" />
        <dc:title />
      </cc:Work>
    </rdf:RDF>
  </metadata>
  <defs
     id="defs6">
    <filter
       inkscape:collect="always"
       style="color-interpolation-filters:sRGB"
       id="filter4290"
       x="-0.0263734"
       width="1.0527468"
       y="-0.063105625"
       height="1.1262112">
      <feGaussianBlur
         inkscape:collect="always"
         stdDeviation="4.2854759"
         id="feGaussianBlur4292" />
    </filter>
  </defs>
  <sodipodi:namedview
     pagecolor="#ffffff"
     bordercolor="#666666"
     borderopacity="1"
     objecttolerance="10"
     gridtolerance="10"
     guidetolerance="10"
     inkscape:pageopacity="0"
     inkscape:pageshadow="2"
     inkscape:window-width="1920"
     inkscape:window-height="1017"
     id="namedview4"
     showgrid="false"
     inkscape:zoom="0.9116848"
     inkscape:cx="1331.7405"
     inkscape:cy="276.83469"
     inkscape:window-x="-8"
     inkscape:window-y="-8"
     inkscape:window-maximized="1"
     inkscape:current-layer="layer1" />
  <g
     inkscape:groupmode="layer"
     id="layer2"
     inkscape:label="artwork"
     sodipodi:insensitive="true">
    <image
       sodipodi:absref="E:\Program Files\Pepper and Carrot Repo\peppercarrot_ep19_translation\el\..\gfx_Pepper-and-Carrot_by-David-Revoy_E19P03.png"
       xlink:href="..\gfx_Pepper-and-Carrot_by-David-Revoy_E19P03.png"
       width="2481"
       height="3503"
       id="image10"
       x="0"
       y="0" />
  </g>
  <g
     inkscape:groupmode="layer"
     id="layer3"
     inkscape:label="speechbubbles">
    <path
       style="opacity:0.818;fill:#3797aa;stroke:none;fill-opacity:1;filter:url(#filter4290)"
       d="m 757.91682,547.95632 c 10.78775,5.37741 19.14955,14.84596 30.44219,19.31347 26.21575,11.72459 54.23131,20.44572 82.82199,21.46258 10.78006,0.6048 21.21295,-2.34223 30.72486,-7.53313 15.9811,-3.99025 32.62516,-0.14466 48.6511,2.006 21.85331,3.29662 46.23501,7.6202 65.96104,-5.90477 15.7206,-9.41707 25.9773,-25.65792 39.6794,-37.58852 11.2841,-7.55869 25.5178,-8.20778 36.8078,-16.0064 18.802,-10.84366 25.4032,-40.16031 13.3989,-58.77952 -12.5261,-16.64496 -33.8685,-20.78182 -52.6216,-23.96589 -18.5842,-2.02486 -37.1278,-4.43636 -55.69153,-6.57322 -25.0718,-1.39125 -50.20928,-0.10049 -75.17639,2.399 -27.62546,1.09595 -53.76233,-14.92426 -81.54597,-10.02392 -14.88451,0.43368 -29.85614,-0.34389 -44.5288,2.99063 -17.47363,2.31042 -34.44978,9.82459 -46.7547,23.45666 -10.72674,10.01983 -22.34354,20.30342 -26.79001,35.32555 -5.22782,17.81668 15.23603,50.37977 34.62172,59.42148 z"
       id="path3250-3-6"
       inkscape:connector-curvature="0"
       sodipodi:nodetypes="ccccccccccccccccc" />
    <path
       style="opacity:0.81800005;fill:#3797aa;stroke:none;filter:url(#filter4290);fill-opacity:1;color:#000000;clip-rule:nonzero;display:inline;overflow:visible;visibility:visible;isolation:auto;mix-blend-mode:normal;color-interpolation:sRGB;color-interpolation-filters:linearRGB;solid-color:#000000;solid-opacity:1;fill-rule:nonzero;stroke-width:1;stroke-linecap:butt;stroke-linejoin:miter;stroke-miterlimit:4;stroke-dasharray:none;stroke-dashoffset:0;stroke-opacity:1;filter-blend-mode:normal;filter-gaussianBlur-deviation:0;color-rendering:auto;image-rendering:auto;shape-rendering:auto;text-rendering:auto;enable-background:accumulate"
       d="m 1713.1988,426.91208 c 1.4311,23.08058 -31.5228,28.65986 -39.0016,35.27672 -7.4788,6.61681 -34.7137,19.36411 -47.313,23.47432 -12.5993,4.11007 -54.1865,5.71364 -69.508,-3.10449 -15.3214,-8.81856 -56.575,3.0863 -79.4461,-0.85361 -22.8711,-3.93974 -34.2593,-19.51277 -44.4205,-27.12235 -10.1612,-7.60996 -22.8977,-8.44486 -22.9034,-42.18095 -0.01,-33.7362 61.4125,-31.20206 73.9721,-34.01391 12.5596,-2.81194 43.878,-25.27207 62.5183,-22.99886 18.6403,2.27328 50.0961,13.32507 67.6964,15.61629 17.6004,2.29123 12.1966,-2.16778 44.4804,3.75648 14.8354,2.72237 24.7667,10.88933 29.8076,15.99249 5.0408,5.10314 22.6866,13.0773 24.1178,36.15787 z"
       id="path3250-3"
       inkscape:connector-curvature="0"
       sodipodi:nodetypes="zssszsssssssz" />
    <path
       style="opacity:0.81800005;fill:#3797aa;fill-opacity:1;stroke:none;filter:url(#filter4290);color:#000000;clip-rule:nonzero;display:inline;overflow:visible;visibility:visible;isolation:auto;mix-blend-mode:normal;color-interpolation:sRGB;color-interpolation-filters:linearRGB;solid-color:#000000;solid-opacity:1;fill-rule:nonzero;stroke-width:0.96210748;stroke-linecap:butt;stroke-linejoin:miter;stroke-miterlimit:4;stroke-dasharray:none;stroke-dashoffset:0;stroke-opacity:1;filter-blend-mode:normal;filter-gaussianBlur-deviation:0;color-rendering:auto;image-rendering:auto;shape-rendering:auto;text-rendering:auto;enable-background:accumulate"
       d="m 1833.2394,820.46626 c -2.5264,-31.97778 36.2035,-38.91224 44.7995,-47.89133 8.596,-8.979 38.1934,-42.72495 52.9295,-48.11249 14.7361,-5.38734 65.9259,10.14118 84.3461,22.71154 18.42,12.57096 72.2946,-14.60357 99.4573,-8.60433 27.1627,5.99903 35.6123,39.50796 47.8923,50.28243 12.28,10.77498 27.3572,12.23477 28.5853,58.92575 1.228,46.69117 -71.4235,41.71658 -86.1597,45.30814 -14.7361,3.59166 -59.5243,25.89015 -81.6284,22.29869 -22.1041,-3.59156 -51.0646,-11.60067 -71.9408,-15.19213 -20.8761,-3.59156 -56.5509,17.58353 -70.059,3.21729 -13.5081,-14.36684 -12.2801,-25.14152 -18.4202,-32.32473 -6.14,-7.18322 -27.2755,-18.64104 -29.8019,-50.61883 z"
       id="path3250"
       inkscape:connector-curvature="0"
       sodipodi:nodetypes="zssszsssssssz"
       transform="matrix(0.99418775,0,0,1.0866368,146.26486,70.23617)" />
    <path
       style="color:#000000;fill:#ffffff;fill-opacity:1;fill-rule:nonzero;stroke:none;stroke-width:1px;marker:none;visibility:visible;display:inline;overflow:visible;enable-background:accumulate"
       d="m 1277.3558,1636.0613 c -27.5438,-21.7501 -42.4721,-29.9459 -6.2947,-55.5427 -47.5051,7.4396 -18.3326,-9.441 -6.6012,-20.7897 -52.1687,15.9892 -37.5481,-4.8025 -24.2033,-18.7163 -15.1395,10.5819 -43.5199,20.2395 -18.3547,-6.2922 -10.8027,8.6269 -44.8298,30.3647 -30.9679,-1.4768 -11.4432,12.0752 -16.9394,17.9629 -14.3525,3.2811 -7.5918,8.5614 -10.8081,7.5732 -10.6867,-1.8835 -22.4175,20.9989 -8.9801,2.0999 -8.4571,-3.2035 -14.0641,17.1054 -21.2662,11.4455 -17.333,2.3118 -6.9855,9.1055 -27.3314,9.3255 -27.6638,0.068 -8.0864,8.571 -15.7221,9.6308 -25.9878,-0.7476 -3.0757,3.8132 -5.8956,10.3085 -9.9061,4.3116 -4.1295,2.0045 -8.2871,7.2224 -12.3532,2.0621 -43.5704,19.6894 -63.0104,10.3684 -83.19563,-4.8628 4.58295,10.3216 10.2305,26.0939 -38.27843,1.8447 15.58812,26.772 -1.04568,24.1352 -30.32173,11.4479 18.39243,11.3705 19.28788,17.7224 -23.53834,11.5339 29.80433,9.4982 57.26423,18.9667 10.85924,27.4992 10.81785,3.7581 46.35604,-4.3095 7.06136,38.5439 29.66133,-8.5054 68.39923,-5.6873 60.20054,27.3849 16.60108,-14.7365 41.22089,-43.7505 44.32959,8.6963 11.167,-30.3637 27.445,-34.032 37.0273,-2.489 2.4368,-11.9484 20.2042,-30.0954 43.7585,3.5125 -7.0163,-13.7638 -4.1263,-40.2822 26.511,1.0754 -1.4657,-6.9755 -15.1605,-52.1065 66.5954,1.5833 -37.522,-44.0242 -38.7995,-17.9468 69.0659,47.4709 -131.9199,-93.8738 -23.3225,-78.052 5.6833,-61.3139 -33.2743,-27.1459 -18.4539,-33.2975 17.404,-15.3093 z"
       id="path3549"
       inkscape:connector-curvature="0"
       sodipodi:nodetypes="cccccccccccccccccccccccccccccc" />
    <path
       style="color:#000000;display:inline;overflow:visible;visibility:visible;fill:#ffffff;fill-opacity:1;fill-rule:nonzero;stroke:#ffffff;stroke-width:8.12237167;stroke-miterlimit:4;stroke-dasharray:none;stroke-dashoffset:0;stroke-opacity:1;marker:none;enable-background:accumulate"
       d="m 1692.0846,2656.613 c 4.1857,-58.5707 39.2937,-99.4139 127.665,-82.8067 47.3364,8.8956 101.1553,16.1574 95.5742,101.9937 -5.5809,85.8364 -83.017,78.7675 -99.0624,79.7774 -16.0453,1.0099 -99.1464,-13.2365 -113.0148,-43.4232 -8.6813,-18.8961 -11.8597,-37.364 -11.162,-55.5412 z"
       id="path4546-6"
       inkscape:connector-curvature="0"
       sodipodi:nodetypes="cssssc" />
    <path
       style="color:#000000;display:inline;overflow:visible;visibility:visible;fill:#ffffff;fill-opacity:1;fill-rule:nonzero;stroke:none;stroke-width:1px;marker:none;enable-background:accumulate"
       d="m 1827.4084,2846.6353 c -38.9829,-24.3744 -35.2819,-89.0806 -37.3787,-128.9314 -2.9638,-56.3326 1.3429,-30.7581 1.3429,-30.7581 l -8.5494,-20.5266 c -7.1172,-2.1741 -33.277,154.0001 44.5852,180.2161 z"
       id="path3072-1"
       inkscape:connector-curvature="0"
       sodipodi:nodetypes="csccc" />
  </g>
  <g
     inkscape:groupmode="layer"
     id="layer1"
     inkscape:label="txt">
    <text
       xml:space="preserve"
       style="font-style:normal;font-variant:normal;font-weight:normal;font-stretch:expanded;font-size:12px;line-height:125%;font-family:pecita;-inkscape-font-specification:'pecita Expanded';text-align:center;letter-spacing:0px;word-spacing:0px;text-anchor:middle;fill:#ffffff;fill-opacity:1;stroke:none;"
       x="913.09369"
       y="489.81882"
       id="text4246-3-2-9-6-6-0-5-1"
       sodipodi:linespacing="125%"><tspan
         sodipodi:role="line"
         style="font-size:45px;fill:#ffffff;-inkscape-font-specification:'pecita Expanded';font-family:pecita;font-weight:normal;font-style:normal;font-stretch:expanded;font-variant:normal;"
         x="913.09369"
         y="489.81882"
         id="tspan4378-7-6-4">θάβουμε τα</tspan><tspan
         sodipodi:role="line"
         style="font-size:45px;fill:#ffffff;-inkscape-font-specification:'pecita Expanded';font-family:pecita;font-weight:normal;font-style:normal;font-stretch:expanded;font-variant:normal;"
         x="913.09369"
         y="546.06885"
         id="tspan3370">λάθη μας...</tspan></text>
    <text
       xml:space="preserve"
       style="font-style:normal;font-variant:normal;font-weight:normal;font-stretch:expanded;font-size:12px;line-height:125%;font-family:pecita;-inkscape-font-specification:'pecita Expanded';text-align:center;letter-spacing:0px;word-spacing:0px;text-anchor:middle;fill:#ffffff;fill-opacity:1;stroke:none;"
       x="1562.3771"
       y="438.56467"
       id="text4246-3-2-9-6-6-0-5-1-3-3"
       sodipodi:linespacing="125%"><tspan
         sodipodi:role="line"
         style="font-size:45px;fill:#ffffff;-inkscape-font-specification:'pecita Expanded';font-family:pecita;font-weight:normal;font-style:normal;font-stretch:expanded;font-variant:normal;"
         x="1562.3771"
         y="438.56467"
         id="tspan4178-6">παράδοση...</tspan><tspan
         sodipodi:role="line"
         style="font-size:45px;fill:#ffffff;-inkscape-font-specification:'pecita Expanded';font-family:pecita;font-weight:normal;font-style:normal;font-stretch:expanded;font-variant:normal;"
         x="1562.3771"
         y="494.81467"
         id="tspan4378-7-6-4-5-2" /></text>
    <text
       xml:space="preserve"
       style="font-style:normal;font-variant:normal;font-weight:normal;font-stretch:expanded;font-size:12px;line-height:125%;font-family:pecita;-inkscape-font-specification:'pecita Expanded';text-align:center;letter-spacing:0px;word-spacing:0px;text-anchor:middle;fill:#ffffff;fill-opacity:1;stroke:none"
       x="2141.5022"
       y="913.46783"
       id="text4246-3-2-9-6-6-0-5-1-3"
       sodipodi:linespacing="125%"><tspan
         sodipodi:role="line"
         style="font-style:normal;font-variant:normal;font-weight:normal;font-stretch:expanded;font-size:45px;font-family:pecita;-inkscape-font-specification:'pecita Expanded';fill:#ffffff"
         x="2152.093"
         y="913.46783"
         id="tspan4378-7-6-4-5">από την </tspan><tspan
         sodipodi:role="line"
         style="font-style:normal;font-variant:normal;font-weight:normal;font-stretch:expanded;font-size:45px;font-family:pecita;-inkscape-font-specification:'pecita Expanded';fill:#ffffff"
         x="2152.093"
         y="969.71783"
         id="tspan3378">αρχή του </tspan><tspan
         sodipodi:role="line"
         style="font-style:normal;font-variant:normal;font-weight:normal;font-stretch:expanded;font-size:45px;font-family:pecita;-inkscape-font-specification:'pecita Expanded';fill:#ffffff"
         x="2141.5022"
         y="1025.9679"
         id="tspan3380">χρόνου...</tspan></text>
    <text
       xml:space="preserve"
       style="font-style:normal;font-variant:normal;font-weight:normal;font-stretch:expanded;font-size:12px;line-height:125%;font-family:pecita;-inkscape-font-specification:'pecita Expanded';text-align:center;letter-spacing:0px;word-spacing:0px;text-anchor:middle;fill:#000000;fill-opacity:1;stroke:none;"
       x="1087.9318"
       y="1608.6235"
       id="text4246-3-2-9-6-6-0-5-1-3-9"
       sodipodi:linespacing="125%"><tspan
         sodipodi:role="line"
         style="font-size:45px;-inkscape-font-specification:'pecita Expanded';font-family:pecita;font-weight:normal;font-style:normal;font-stretch:expanded;font-variant:normal;"
         x="1087.9318"
         y="1608.6235"
         id="tspan4236">ΜΑ ΒΕΒΑΙΑ!!!</tspan><tspan
         sodipodi:role="line"
         style="font-size:45px;-inkscape-font-specification:'pecita Expanded';font-family:pecita;font-weight:normal;font-style:normal;font-stretch:expanded;font-variant:normal;"
         x="1087.9318"
         y="1664.8735"
         id="tspan4378-7-6-4-5-7" /></text>
    <text
       xml:space="preserve"
       style="font-style:normal;font-variant:normal;font-weight:normal;font-stretch:expanded;font-size:8.43194294px;line-height:125%;font-family:pecita;-inkscape-font-specification:'pecita Expanded';text-align:center;letter-spacing:0px;word-spacing:0px;text-anchor:middle;fill:#000000;fill-opacity:1;stroke:none"
       x="1302.8601"
       y="3308.5044"
       id="text4246-3-2-9-6-6-0-5-1-3-9-0-3"
       sodipodi:linespacing="125%"
       transform="matrix(0.95684986,-0.26535014,0.03415032,1.0356256,0,0)"><tspan
         sodipodi:role="line"
         style="font-style:normal;font-variant:normal;font-weight:normal;font-stretch:expanded;font-size:31.61978531px;font-family:pecita;-inkscape-font-specification:'pecita Expanded'"
         x="1302.8601"
         y="3308.5044"
         id="tspan4378-7-6-4-5-7-3-3">ZZZ...</tspan></text>
    <text
       xml:space="preserve"
       style="font-style:normal;font-variant:normal;font-weight:normal;font-stretch:expanded;font-size:9.94673252px;line-height:125%;font-family:pecita;-inkscape-font-specification:'pecita Expanded';text-align:center;letter-spacing:0px;word-spacing:0px;text-anchor:middle;fill:#000000;fill-opacity:1;stroke:none;"
       x="1801.1611"
       y="2616.5117"
       id="text4246-3-2-9-6-6-0-5-1-3-9-0"
       sodipodi:linespacing="125%"><tspan
         sodipodi:role="line"
         style="font-size:37.30024719px;-inkscape-font-specification:'pecita Expanded';font-family:pecita;font-weight:normal;font-style:normal;font-stretch:expanded;font-variant:normal;"
         x="1807.0986"
         y="2616.5117"
         id="tspan4378-7-6-4-5-7-3">Έλα, </tspan><tspan
         sodipodi:role="line"
         style="font-size:37.30024719px;-inkscape-font-specification:'pecita Expanded';font-family:pecita;font-weight:normal;font-style:normal;font-stretch:expanded;font-variant:normal;"
         x="1801.1611"
         y="2663.137"
         id="tspan3388">πιο γρήγορα</tspan><tspan
         sodipodi:role="line"
         style="font-size:37.30024719px;-inkscape-font-specification:'pecita Expanded';font-family:pecita;font-weight:normal;font-style:normal;font-stretch:expanded;font-variant:normal;"
         x="1801.1611"
         y="2709.7625"
         id="tspan3390">Καροτούλη!</tspan></text>
  </g>
</svg>
