<?xml version="1.0" encoding="UTF-8" standalone="no"?>
<!-- Created with Inkscape (http://www.inkscape.org/) -->

<svg
   xmlns:dc="http://purl.org/dc/elements/1.1/"
   xmlns:cc="http://creativecommons.org/ns#"
   xmlns:rdf="http://www.w3.org/1999/02/22-rdf-syntax-ns#"
   xmlns:svg="http://www.w3.org/2000/svg"
   xmlns="http://www.w3.org/2000/svg"
   xmlns:xlink="http://www.w3.org/1999/xlink"
   xmlns:sodipodi="http://sodipodi.sourceforge.net/DTD/sodipodi-0.dtd"
   xmlns:inkscape="http://www.inkscape.org/namespaces/inkscape"
   id="svg2"
   version="1.1"
   inkscape:version="0.91 r13725"
   width="2481"
   height="3503"
   sodipodi:docname="Pepper-and-Carrot_by-David-Revoy_E19P02.svg">
  <metadata
     id="metadata8">
    <rdf:RDF>
      <cc:Work
         rdf:about="">
        <dc:format>image/svg+xml</dc:format>
        <dc:type
           rdf:resource="http://purl.org/dc/dcmitype/StillImage" />
        <dc:title />
      </cc:Work>
    </rdf:RDF>
  </metadata>
  <defs
     id="defs6">
    <filter
       inkscape:collect="always"
       style="color-interpolation-filters:sRGB"
       id="filter5236-4-16-3"
       x="-0.0089085409"
       width="1.0178171"
       y="-0.027928527"
       height="1.0558571">
      <feGaussianBlur
         inkscape:collect="always"
         stdDeviation="0.49168068"
         id="feGaussianBlur5238-0-4-6" />
    </filter>
    <filter
       inkscape:collect="always"
       style="color-interpolation-filters:sRGB"
       id="filter5236-4-16"
       x="-0.0089085409"
       width="1.0178171"
       y="-0.027928527"
       height="1.0558571">
      <feGaussianBlur
         inkscape:collect="always"
         stdDeviation="0.49168068"
         id="feGaussianBlur5238-0-4" />
    </filter>
  </defs>
  <sodipodi:namedview
     pagecolor="#ffffff"
     bordercolor="#666666"
     borderopacity="1"
     objecttolerance="10"
     gridtolerance="10"
     guidetolerance="10"
     inkscape:pageopacity="0"
     inkscape:pageshadow="2"
     inkscape:window-width="1304"
     inkscape:window-height="745"
     id="namedview4"
     showgrid="false"
     inkscape:zoom="0.4224276"
     inkscape:cx="1610.4693"
     inkscape:cy="818.75753"
     inkscape:window-x="-8"
     inkscape:window-y="-8"
     inkscape:window-maximized="1"
     inkscape:current-layer="layer1" />
  <g
     inkscape:groupmode="layer"
     id="layer2"
     inkscape:label="artwork"
     sodipodi:insensitive="true">
    <image
       sodipodi:absref="E:\Projects\Pepper&amp;Carrot\peppercarrot_ep19_translation\hu\..\gfx_Pepper-and-Carrot_by-David-Revoy_E19P02.png"
       xlink:href="../gfx_Pepper-and-Carrot_by-David-Revoy_E19P02.png"
       width="2481"
       height="3503"
       id="image10"
       x="0"
       y="0" />
  </g>
  <g
     inkscape:groupmode="layer"
     id="layer4"
     inkscape:label="translatornotes"
     sodipodi:insensitive="true">
    <path
       inkscape:connector-curvature="0"
       id="path3446"
       d="m 2763.8482,1498.4924 0,-189.0352 -203.8301,0 0,90.9805 -10,0 0,-15.6308 -30.9824,26.9824 30.9824,26.9804 0,-16.6171 10,0 0,76.3398 203.8301,0 z"
       style="color:#000000;clip-rule:nonzero;display:inline;overflow:visible;visibility:visible;opacity:0.481;isolation:auto;mix-blend-mode:normal;color-interpolation:sRGB;color-interpolation-filters:linearRGB;solid-color:#000000;solid-opacity:1;fill:#ffe680;fill-opacity:1;fill-rule:nonzero;stroke:#565656;stroke-width:1.20000005;stroke-linecap:butt;stroke-linejoin:miter;stroke-miterlimit:4;stroke-dasharray:none;stroke-dashoffset:0;stroke-opacity:1;marker:none;color-rendering:auto;image-rendering:auto;shape-rendering:auto;text-rendering:auto;enable-background:accumulate" />
    <flowRoot
       transform="translate(2793.4167,295.2096)"
       style="font-style:normal;font-variant:normal;font-weight:normal;font-stretch:normal;font-size:25.3241539px;line-height:125%;font-family:Lavi;-inkscape-font-specification:'Lavi, Normal';text-align:center;letter-spacing:0px;word-spacing:0px;writing-mode:lr-tb;text-anchor:middle;display:inline;opacity:0.481;fill:#000000;fill-opacity:1;stroke:none;stroke-width:1px;stroke-linecap:butt;stroke-linejoin:miter;stroke-opacity:1"
       id="flowRoot3448"
       xml:space="preserve"><flowRegion
         id="flowRegion3450"><rect
           y="1061.6674"
           x="-275.14545"
           height="247.52747"
           width="291.95547"
           id="rect3452" /></flowRegion><flowPara
         id="flowPara3473">labels</flowPara><flowPara
         id="flowPara4255">in the </flowPara><flowPara
         id="flowPara4257">garden :-)</flowPara></flowRoot>  </g>
  <g
     inkscape:groupmode="layer"
     id="layer3"
     inkscape:label="speechbubbles"
     style="display:inline">
    <path
       style="color:#000000;display:inline;overflow:visible;visibility:visible;fill:#ffffff;fill-opacity:1;fill-rule:nonzero;stroke:none;stroke-width:1px;marker:none;enable-background:accumulate"
       d="m 1016.8951,204.52874 c 27.3413,-33.27491 288.3285,-52.28964 370.8001,1.14813 68.8377,44.60374 77.3182,141.48874 26.1782,167.96102 -51.14,26.47238 -253.2585,27.59731 -335.3741,16.62641 -78.1855,-10.44584 -87.32385,-37.67302 -101.45481,-105.67133 -5.76752,-27.75276 12.50897,-46.78923 39.85061,-80.06423 z"
       id="path4040-4"
       inkscape:connector-curvature="0"
       sodipodi:nodetypes="zssssz" />
    <path
       style="color:#000000;display:inline;overflow:visible;visibility:visible;fill:#ffffff;fill-opacity:1;fill-rule:nonzero;stroke:none;stroke-width:1px;marker:none;enable-background:accumulate"
       d="m 1218.6195,471.60657 c 6.8921,-79.99361 75.774,-136.92767 252.0955,-117.45099 94.4472,10.43269 201.7583,18.40618 192.7593,135.61853 -8.999,117.21223 -163.318,110.3469 -195.2332,112.29768 -31.9153,1.9509 -197.6878,-14.49623 -226.0366,-55.15064 -17.7459,-25.44858 -24.5267,-50.5104 -23.585,-75.31458 z"
       id="path4546-6"
       inkscape:connector-curvature="0"
       sodipodi:nodetypes="cssssc" />
    <path
       style="color:#000000;display:inline;overflow:visible;visibility:visible;fill:#ffffff;fill-opacity:1;fill-rule:nonzero;stroke:none;stroke-width:1px;marker:none;enable-background:accumulate"
       d="m 1358.7711,582.21882 c 53.4599,-61.50688 333.5675,-48.33049 432.7575,-34.49936 147.2578,20.5338 140.9669,77.43162 145.4668,93.71636 4.4994,16.28461 -6.7497,91.78623 -56.2477,106.59059 -49.4977,14.80421 -191.2413,22.20631 -240.7391,22.20631 -49.4978,0 -207.5057,-9.42283 -247.4894,-31.08896 -38.2483,-20.72593 -87.2085,-95.41819 -33.7481,-156.92494 z"
       id="path3330"
       inkscape:connector-curvature="0"
       sodipodi:nodetypes="zsssssz" />
    <path
       style="color:#000000;display:inline;overflow:visible;visibility:visible;fill:#ffffff;fill-opacity:1;fill-rule:nonzero;stroke:none;stroke-width:1px;marker:none;enable-background:accumulate"
       d="m 1537.5273,696.39507 c -4.748,19.68499 -0.6503,33.38997 2.5742,37.35036 3.2245,3.96027 2.3513,12.12365 5.2378,17.57337 2.3614,4.51862 3.5729,10.81257 -0.8434,12.64306 -4.4163,1.83058 -29.4289,3.69855 -33.6755,16.66121 -4.2467,12.96272 3.9771,24.00648 14.1454,30.32451 10.1684,6.31815 24.4145,10.44127 22.2717,20.40102 -2.1427,9.95976 -9.8422,13.23017 -15.8741,13.66024 -6.0318,0.43007 -42.6593,-1.86158 -51.9545,1.56498 -9.295,3.4266 -34.8875,18.35716 -31.0179,31.36521 11.9004,-13.15184 18.3151,-19.01847 27.1348,-20.36055 8.8198,-1.34212 24.7212,-5.09072 34.6744,-1.78852 9.9534,3.30225 30.2251,7.01956 38.1327,2.88942 7.9077,-4.13 22.6869,-13.91278 22.9796,-24.81049 0.2928,-10.89767 -5.2053,-22.98724 -21.3925,-31.19418 -10.1682,-6.31811 -14.5522,-10.2849 -13.6078,-13.29434 0.9444,-3.00939 11.8681,-7.35452 23.4562,-6.13032 11.5882,1.22424 17.0469,-9.49086 18.0108,-15.97871 0.9638,-6.48781 -2.7884,-15.67273 -3.2186,-21.7046 -0.4301,-6.03183 -6.7045,-40.19004 -6.7045,-40.19004 z"
       id="path5058"
       inkscape:connector-curvature="0"
       sodipodi:nodetypes="cscsssssscssssccscccc" />
    <path
       style="color:#000000;display:inline;overflow:visible;visibility:visible;fill:#ffffff;fill-opacity:1;fill-rule:nonzero;stroke:none;stroke-width:1px;marker:none;enable-background:accumulate"
       d="m 1325.9622,1839.0767 c 8.4804,-74.0404 54.9919,-100.7951 157.2378,-104.678 50.765,-1.9279 234.628,-8.6131 309.1578,4.7825 74.5296,13.3958 138.3267,54.4228 132.6731,108.6768 -5.6534,54.2538 -12.3406,96.2782 -93.7349,111.6357 -81.3943,15.3574 -237.4954,4.0479 -253.7496,4.6862 -32.508,1.2766 -200.8722,-16.7325 -228.9699,-54.8923 -17.5883,-23.8869 -24.0277,-47.2326 -22.6143,-70.2109 z"
       id="path4546-6-3"
       inkscape:connector-curvature="0"
       sodipodi:nodetypes="cssssssc" />
    <path
       style="color:#000000;display:inline;overflow:visible;visibility:visible;fill:#ffffff;fill-opacity:1;fill-rule:nonzero;stroke:none;stroke-width:1px;marker:none;enable-background:accumulate"
       d="m 1743.5155,1983.0096 c -2.5686,-13.9006 25.5944,-72.4119 182.2825,-63.1448 156.6883,9.2671 173.0541,20.9339 180.2035,70.8244 2.6424,18.4386 -21.7412,45.3021 -44.8591,49.9356 -23.118,4.6335 -90.7107,17.7137 -129.2405,14.007 -38.5299,-3.7069 -95.4055,-2.8275 -152.0946,-22.2636 -34.2149,-11.7307 -33.7231,-45.6518 -36.2918,-49.3586 z"
       id="path3365"
       inkscape:connector-curvature="0"
       sodipodi:nodetypes="csssssc" />
    <path
       style="fill:#ffffff;fill-opacity:1;stroke:none"
       d="m 1760.0982,2182.8356 c -11.0377,-130.2307 67.5603,-175.4059 276.8911,-175.2211 209.3308,0.1846 294.032,37.2594 302.8277,114.7976 19.6679,173.3826 -41.8601,213.2783 -110.7184,224.0404 -137.5419,21.4971 -396.5744,1.1342 -424.6594,-35.178 -28.085,-36.3124 -41.9179,-94.3887 -44.341,-128.4389 z"
       id="path3238"
       inkscape:connector-curvature="0"
       sodipodi:nodetypes="cssssc" />
    <path
       style="color:#000000;display:inline;overflow:visible;visibility:visible;fill:#ffffff;fill-opacity:1;fill-rule:nonzero;stroke:none;stroke-width:1px;marker:none;enable-background:accumulate"
       d="m 1882.8016,2295.7967 c -30.6436,39.5697 -91.823,73.3362 -171.3605,30.1552 76.0815,26.4581 119.8575,-5.9599 145.0149,-45.5895 21.7184,-34.2122 33.4899,-49.0683 33.4899,-49.0683 z"
       id="path4440"
       inkscape:connector-curvature="0"
       sodipodi:nodetypes="ccscc" />
    <path
       style="color:#000000;display:inline;overflow:visible;visibility:visible;fill:#ffffff;fill-opacity:1;fill-rule:nonzero;stroke:none;stroke-width:1px;marker:none;enable-background:accumulate"
       d="m 90.88691,2780.9628 c 30.87317,-14.4732 45.50639,-24.5044 0.539298,-45.3285 9.232752,-0.1582 60.756542,-2.8316 11.494952,-43.4954 16.24121,5.2491 42.21283,19.1868 12.97773,-48.3162 17.57831,10.7619 41.96087,45.1733 20.57287,-18.5861 23.16165,21.5491 53.6765,7.9252 47.42988,-3.395 18.64059,13.7409 55.24871,12.6048 52.1129,0.9448 13.70511,12.7202 50.83265,16.4493 47.91905,-4.8704 11.38776,14.6548 46.7298,13.1451 43.26506,0.6937 29.85716,14.8222 73.02166,23.9581 89.33498,3.2927 13.92958,19.5575 78.72398,13.6516 133.06746,0.3031 0.85124,13.805 61.33579,16.2284 110.63025,-6.2448 0.74609,20.9719 18.53448,28.078 40.27145,12.6444 7.76236,8.6083 5.6906,13.6156 36.19496,-6.7635 -1.45628,14.0141 3.97337,26.943 25.22674,13.527 3.70239,8.6695 -9.84612,31.1394 43.87283,-1.691 0.35512,12.2552 -12.25454,36.3208 34.00133,6.7635 -37.52369,72.8131 -16.72664,65.0199 8.77449,50.7252 -19.85561,42.953 -45.46469,96.2287 4.99599,94.2702 -39.51118,9.9229 -38.82046,24.6777 -33.51321,47.7605 -49.52031,-46.4819 -55.33874,-11.1572 -76.77732,-5.0725 -22.63251,-7.7327 -43.48281,-36.0696 -70.19619,3.3817 -40.92356,-16.2348 -49.0371,-1.3438 -62.51871,8.4544 -71.4966,-31.1556 -69.80774,-5.9003 -102.00416,-6.7636 -19.03573,-38.539 -61.99256,-9.4708 -93.22959,-13.5266 -39.48533,-31.6023 -98.24123,-3.9004 -128.97968,8.2816 15.02351,-19.741 -21.97317,-37.3641 -57.15729,5.4456 17.47172,-36.1741 -11.19416,-48.3702 -64.71225,-1.7818 25.14953,-42.8634 -9.63251,-36.0321 -48.58184,-8.5637 38.11978,-41.6524 -2.1618,-45.2228 -25.01198,-42.0893 z"
       id="path3557"
       inkscape:connector-curvature="0"
       sodipodi:nodetypes="cccccccccccccccccccccccccccccc" />
    <path
       style="color:#000000;display:inline;overflow:visible;visibility:visible;fill:#ffffff;fill-opacity:1;fill-rule:nonzero;stroke:none;stroke-width:1px;marker:none;enable-background:accumulate"
       d="m 291.13906,2885.5634 c 7.82181,-73.3533 86.57865,-126.6439 288.3066,-111.7966 108.05636,7.953 230.82696,13.4367 220.62399,120.9006 -10.20309,107.4636 -186.75031,103.79 -223.26,106.116 -36.50967,2.3262 -226.16718,-9.926 -258.63029,-46.6664 -20.32117,-22.9987 -28.09819,-45.8287 -27.0403,-68.5536 z"
       id="path4546"
       inkscape:connector-curvature="0"
       sodipodi:nodetypes="cssssc" />
    <path
       style="color:#000000;display:inline;overflow:visible;visibility:visible;fill:#ffffff;fill-opacity:1;fill-rule:nonzero;stroke:none;stroke-width:1px;marker:none;enable-background:accumulate"
       d="m 990.3039,2942.0433 c -39.7219,-30.7338 -84.6659,-56.332 -118.3207,-93.0329 l 9.2071,41.4633 c -19.1495,-7.3977 -31.9655,-24.339 -46.9322,-38.0398 l 1.0996,26.2988 c -44.9905,-17.9715 -75.7521,-49.3371 -113.3909,-74.2288 l 5.8989,45.8738 c 41.0512,21.0955 84.9859,35.8216 122.7937,64.0815 l 1.7812,-25.6614 c 14.445,8.0961 28.5921,16.7337 41.4085,27.7896 l -0.8973,-32.5393 z"
       id="path4032-6"
       inkscape:connector-curvature="0"
       sodipodi:nodetypes="cccccccccccc" />
    <path
       style="fill:#ffffff;stroke:none"
       d="m 1699.0852,2771.0202 c 8.392,-60.4636 59.0072,-85.0538 81.9741,-93.079 22.9666,-8.0252 119.3826,-18.3199 182.364,-16.548 62.9813,1.7719 219.1102,10.4999 245.3672,13.4066 26.257,2.9066 96.3051,48.234 95.5537,87.2344 -0.7513,39.0001 -14.7964,64.619 -53.0669,87.3886 -38.2708,22.7698 -266.5899,27.1856 -280.6568,24.6219 -14.0674,-2.5636 -201.9296,-23.0237 -213.6557,-29.8572 -11.726,-6.8334 -59.2491,-25.5131 -57.8796,-73.1673 z"
       id="path3278"
       inkscape:connector-curvature="0" />
    <path
       style="color:#000000;fill:#ffffff;fill-opacity:1;fill-rule:nonzero;stroke:none;stroke-width:1px;marker:none;visibility:visible;display:inline;overflow:visible;enable-background:accumulate"
       d="m 1751.8024,2884.441 c 40.137,-46.9028 378.9373,-97.8131 498.0135,-1.1561 119.076,96.657 46.8496,212.6455 -21.4729,249.5509 -68.3223,36.9054 -269.3852,77.3256 -361.1324,45.6924 -91.7471,-31.6332 -163.2125,-78.9187 -167.8779,-175.74 -1.9041,-39.5167 12.3329,-71.4441 52.4697,-118.3472 z"
       id="path4040"
       inkscape:connector-curvature="0"
       sodipodi:nodetypes="zssssz" />
    <path
       style="display:inline;fill:#ffffff;fill-rule:evenodd;stroke:none;stroke-width:1px;stroke-linecap:butt;stroke-linejoin:miter;stroke-opacity:1"
       d="m 1856.4879,3122.771 c 56.149,28.5286 88.1323,16.9272 87.1685,-49.3868 26.7883,71.6603 45.378,87.6873 56.4032,52.3799 35.4659,30.3481 57.6174,21.8353 75.2042,0 6.555,28.0816 20.6124,16.7498 32.7782,15.3549 4.0069,6.3532 -9.7552,22.1376 45.8443,1.1073 3.6014,8.4093 8.4529,15.651 41.0203,-2.9931 8.4373,34.1321 35.5077,-1.8917 63.2401,-40.4074 -17.2782,47.3518 -10.1136,54.0398 11.9642,35.9176 -10.0938,19.4998 -16.1309,34.5948 22.2194,1.4966 -13.1292,35.9927 21.3152,11.2875 76.9134,-40.4072 -27.811,38.2124 -101.5596,102.6164 -52.9847,97.2767 -6.7741,11.2651 -30.9368,21.0802 41.0204,38.9107 -13.4335,7.6442 -54.4453,-3.5263 -20.2341,28.8398 4.5838,3.7834 -10.7611,6.0937 18.525,16.0571 -17.2881,-0.6778 -27.8903,1.7436 -11.9645,16.4623 -31.5568,-0.7959 -19.7495,14.6808 3.4185,34.4209 -45.6987,-25.3209 -48.2136,-16.1182 -49.5666,-5.9862 -57.2738,-34.521 -60.6357,-23.6523 -68.3672,-16.4623 -27.9167,0.2694 -55.8335,-4.0779 -83.7503,34.421 -7.3109,-23.9452 -21.9686,-42.3768 -83.75,-25.4415 27.1267,-30.4626 -11.4645,-11.0548 -41.0205,1.4965 16.1854,-38.0554 -24.8908,-13.0797 -76.9133,23.945 29.1324,-42.0237 -0.6074,-43.5828 -49.6371,-13.7459 18.525,-41.2842 8.4424,-54.5541 -63.663,-56.1602 34.5119,-14.8917 31.2025,-23.5889 -4.6337,-57.3019 40.3975,9.9269 32.3606,-5.9894 3.8417,-42.6132 44.0629,30.0605 44.1161,-6.8451 26.9236,-47.1806 z"
       id="path4508"
       inkscape:connector-curvature="0"
       sodipodi:nodetypes="cccccccccccccccccccccccccccc" />
    <path
       style="color:#000000;display:inline;overflow:visible;visibility:visible;fill:#ffffff;fill-opacity:1;fill-rule:nonzero;stroke:none;stroke-width:1px;marker:none;enable-background:accumulate"
       d="m 1490.4164,2866.2226 c 36.6716,-30.7338 78.1642,-56.332 109.2346,-93.0329 l -8.5001,41.4633 c 17.679,-7.3977 29.5108,-24.339 43.3282,-38.0398 l -1.0152,26.2988 c 41.5356,-17.9715 69.9349,-49.3371 104.6834,-74.2288 l -5.4459,45.8738 c -37.8988,21.0955 -78.4597,35.8216 -113.3641,64.0815 l -1.6444,-25.6614 c -13.3358,8.0961 -26.3965,16.7337 -38.2287,27.7896 l 0.8284,-32.5393 z"
       id="path4032"
       inkscape:connector-curvature="0"
       sodipodi:nodetypes="cccccccccccc" />
  </g>
  <g
     inkscape:groupmode="layer"
     id="layer1"
     inkscape:label="txt">
    <text
       xml:space="preserve"
       style="font-style:normal;font-variant:normal;font-weight:normal;font-stretch:normal;font-size:12px;line-height:125%;font-family:Lavi;-inkscape-font-specification:Lavi;text-align:center;letter-spacing:0px;word-spacing:0px;text-anchor:middle;fill:#000000;fill-opacity:1;stroke:none"
       x="1194.6492"
       y="237.16325"
       id="text4246"
       sodipodi:linespacing="125%"><tspan
         sodipodi:role="line"
         style="font-size:45px"
         x="1194.6492"
         y="237.16325"
         id="tspan4252">Őőő...</tspan></text>
    <text
       xml:space="preserve"
       style="font-style:normal;font-variant:normal;font-weight:normal;font-stretch:normal;font-size:12px;line-height:125%;font-family:Lavi;-inkscape-font-specification:Lavi;text-align:center;letter-spacing:0px;word-spacing:0px;text-anchor:middle;fill:#000000;fill-opacity:1;stroke:none"
       x="1213.9131"
       y="295.91959"
       id="text4246-3"
       sodipodi:linespacing="125%"><tspan
         sodipodi:role="line"
         style="font-size:45px"
         x="1213.9131"
         y="295.91959"
         id="tspan4222">Hááát.. nem vagyok</tspan><tspan
         sodipodi:role="line"
         style="font-size:45px"
         x="1213.9131"
         y="352.16959"
         id="tspan4226">benne szakértő...</tspan></text>
    <text
       xml:space="preserve"
       style="font-style:normal;font-variant:normal;font-weight:normal;font-stretch:normal;font-size:12px;line-height:125%;font-family:Lavi;-inkscape-font-specification:Lavi;text-align:center;letter-spacing:0px;word-spacing:0px;text-anchor:middle;fill:#000000;fill-opacity:1;stroke:none"
       x="1441.9285"
       y="435.09341"
       id="text4246-3-7"
       sodipodi:linespacing="125%"><tspan
         sodipodi:role="line"
         style="font-size:45px"
         x="1441.9285"
         y="435.09341"
         id="tspan3840">De a vetemé-</tspan><tspan
         sodipodi:role="line"
         style="font-size:45px"
         x="1441.9285"
         y="491.34341"
         id="tspan4233">nyesünk idén eléggé</tspan><tspan
         sodipodi:role="line"
         style="font-size:45px"
         x="1441.9285"
         y="547.59338"
         id="tspan4235">furán néz ki.</tspan></text>
    <text
       xml:space="preserve"
       style="font-style:normal;font-variant:normal;font-weight:normal;font-stretch:normal;font-size:12px;line-height:125%;font-family:Lavi;-inkscape-font-specification:Lavi;text-align:center;letter-spacing:0px;word-spacing:0px;text-anchor:middle;fill:#000000;fill-opacity:1;stroke:none"
       x="1637.3901"
       y="619.19336"
       id="text4246-3-7-6"
       sodipodi:linespacing="125%"><tspan
         sodipodi:role="line"
         style="font-size:45px"
         x="1637.3901"
         y="619.19336"
         id="tspan4242">És nem csak a veteményes,</tspan><tspan
         sodipodi:role="line"
         style="font-size:45px"
         x="1637.3901"
         y="675.44336"
         id="tspan4244">hanem a többi ház körüli</tspan><tspan
         sodipodi:role="line"
         style="font-size:45px"
         x="1637.3901"
         y="731.69336"
         id="tspan4262">növényünk is.</tspan></text>
    <text
       sodipodi:linespacing="125%"
       id="text4178-6-5-9-0-7-0-4"
       style="font-style:normal;font-variant:normal;font-weight:normal;font-stretch:normal;font-size:9.76241112px;line-height:125%;font-family:Lavi;-inkscape-font-specification:Lavi;text-align:center;letter-spacing:0px;word-spacing:0px;text-anchor:middle;opacity:0.63300003;fill:#ffffff;fill-opacity:1;stroke:none;filter:url(#filter5236-4-16)"
       xml:space="preserve"
       y="3129.8394"
       x="1318.7137"
       transform="matrix(0.6851492,-0.06612027,-0.09994133,0.78144216,149.5816,-965.35698)"><tspan
         y="3129.8394"
         x="1318.7137"
         style="font-style:normal;font-variant:normal;font-weight:normal;font-stretch:normal;font-size:40.67671585px;font-family:Fondamento;-inkscape-font-specification:Fondamento;fill:#ffffff;fill-opacity:1"
         sodipodi:role="line"
         id="tspan4293-1-6-3-5-0-2">Paradicsom</tspan></text>
    <text
       sodipodi:linespacing="125%"
       id="text4178-6-5-9-0-7-0-4-7"
       style="font-style:normal;font-variant:normal;font-weight:normal;font-stretch:normal;font-size:9.76241112px;line-height:125%;font-family:Lavi;-inkscape-font-specification:Lavi;text-align:center;letter-spacing:0px;word-spacing:0px;text-anchor:middle;opacity:0.63300003;fill:#ffffff;fill-opacity:1;stroke:none;filter:url(#filter5236-4-16-3)"
       xml:space="preserve"
       y="3129.8394"
       x="1318.7137"
       transform="matrix(0.58543203,0.08325699,-0.38986142,0.70644422,2171.8616,-965.83592)"><tspan
         y="3129.8394"
         x="1318.7137"
         style="font-style:normal;font-variant:normal;font-weight:normal;font-stretch:normal;font-size:40.67671585px;font-family:Fondamento;-inkscape-font-specification:Fondamento;fill:#ffffff;fill-opacity:1"
         sodipodi:role="line"
         id="tspan4293-1-6-3-5-0-2-5">Padlizsán</tspan></text>
    <text
       xml:space="preserve"
       style="font-style:normal;font-variant:normal;font-weight:normal;font-stretch:normal;font-size:12px;line-height:125%;font-family:Lavi;-inkscape-font-specification:Lavi;text-align:center;letter-spacing:0px;word-spacing:0px;text-anchor:middle;fill:#000000;fill-opacity:1;stroke:none"
       x="1627.533"
       y="1809.5331"
       id="text4246-3-2"
       sodipodi:linespacing="125%"><tspan
         sodipodi:role="line"
         style="font-size:45px"
         x="1627.533"
         y="1809.5331"
         id="tspan3858">Vagy vegyük a hangyákat,</tspan><tspan
         sodipodi:role="line"
         style="font-size:45px"
         x="1627.533"
         y="1865.7831"
         id="tspan4277">valami nagyon szokatlan</tspan><tspan
         sodipodi:role="line"
         style="font-size:45px"
         x="1627.533"
         y="1922.0331"
         id="tspan4279">dologra készülnek.</tspan></text>
    <text
       xml:space="preserve"
       style="font-style:normal;font-variant:normal;font-weight:normal;font-stretch:normal;font-size:12px;line-height:125%;font-family:Lavi;-inkscape-font-specification:Lavi;text-align:center;letter-spacing:0px;word-spacing:0px;text-anchor:middle;fill:#000000;fill-opacity:1;stroke:none"
       x="1928.5547"
       y="1997.0601"
       id="text4246-3-2-9"
       sodipodi:linespacing="125%"><tspan
         sodipodi:role="line"
         style="font-size:45px"
         x="1928.5547"
         y="1997.0601"
         id="tspan4259-0">Mindenesetre...</tspan></text>
    <text
       xml:space="preserve"
       style="font-style:normal;font-variant:normal;font-weight:normal;font-stretch:normal;font-size:12px;line-height:125%;font-family:Lavi;-inkscape-font-specification:Lavi;text-align:center;letter-spacing:0px;word-spacing:0px;text-anchor:middle;fill:#000000;fill-opacity:1;stroke:none"
       x="2053.186"
       y="2083.1831"
       id="text4246-3-2-9-6"
       sodipodi:linespacing="125%"><tspan
         sodipodi:role="line"
         style="font-size:45px"
         x="2053.186"
         y="2083.1831"
         id="tspan4319">Azt hiszem, hogy van</tspan><tspan
         sodipodi:role="line"
         style="font-size:45px"
         x="2053.186"
         y="2139.4331"
         id="tspan4297">egy apró szennyezési</tspan><tspan
         sodipodi:role="line"
         style="font-size:45px"
         x="2053.186"
         y="2195.6831"
         id="tspan4313">problémánk, és talán egy</tspan><tspan
         sodipodi:role="line"
         style="font-size:45px"
         x="2053.186"
         y="2251.9331"
         id="tspan4301">kicsit jobban rendbe</tspan><tspan
         sodipodi:role="line"
         style="font-size:45px"
         x="2053.186"
         y="2308.1831"
         id="tspan4317">tehetnénk a dolgokat...</tspan></text>
    <text
       xml:space="preserve"
       style="font-style:normal;font-variant:normal;font-weight:normal;font-stretch:normal;font-size:12px;line-height:125%;font-family:Lavi;-inkscape-font-specification:Lavi;text-align:center;letter-spacing:0px;word-spacing:0px;text-anchor:middle;fill:#000000;fill-opacity:1;stroke:none;stroke-width:2.79999995;stroke-miterlimit:4;stroke-dasharray:none"
       x="471.67166"
       y="2680.5779"
       id="text4246-3-2-9-6-6"
       sodipodi:linespacing="125%"><tspan
         sodipodi:role="line"
         style="font-size:45px;stroke-width:2.79999995;stroke-miterlimit:4;stroke-dasharray:none"
         x="471.67166"
         y="2680.5779"
         id="tspan3892">Ide figyelj, kedves</tspan><tspan
         sodipodi:role="line"
         style="font-size:45px;stroke-width:2.79999995;stroke-miterlimit:4;stroke-dasharray:none"
         x="471.67166"
         y="2736.8279"
         id="tspan3900">„<tspan
   style="stroke:#000000;stroke-width:2.79999995;stroke-miterlimit:4;stroke-dasharray:none;stroke-opacity:1"
   id="tspan4217">Elrontom-Az-Összes-Bájitalomat</tspan>”</tspan><tspan
         sodipodi:role="line"
         style="font-size:45px;stroke-width:2.79999995;stroke-miterlimit:4;stroke-dasharray:none"
         x="471.67166"
         y="2793.0779"
         id="tspan4339">kisasszony!</tspan><tspan
         sodipodi:role="line"
         style="font-size:45px;stroke-width:2.79999995;stroke-miterlimit:4;stroke-dasharray:none"
         x="471.67166"
         y="2849.3279"
         id="tspan4378" /></text>
    <text
       xml:space="preserve"
       style="font-style:normal;font-variant:normal;font-weight:normal;font-stretch:normal;font-size:12px;line-height:125%;font-family:Lavi;-inkscape-font-specification:Lavi;text-align:center;letter-spacing:0px;word-spacing:0px;text-anchor:middle;fill:#000000;fill-opacity:1;stroke:none"
       x="547.53906"
       y="2853.6135"
       id="text4246-3-2-9-6-6-7"
       sodipodi:linespacing="125%"><tspan
         sodipodi:role="line"
         style="font-size:45px"
         x="547.53906"
         y="2853.6135"
         id="tspan4378-5">Túlságosan a fejedbe</tspan><tspan
         sodipodi:role="line"
         style="font-size:45px"
         x="547.53906"
         y="2909.8635"
         id="tspan4350">szállt az a Hippiah</tspan><tspan
         sodipodi:role="line"
         style="font-size:45px"
         x="547.53906"
         y="2966.1135"
         id="tspan4352">jelmezed!</tspan></text>
    <text
       xml:space="preserve"
       style="font-style:normal;font-variant:normal;font-weight:normal;font-stretch:normal;font-size:12px;line-height:125%;font-family:Lavi;-inkscape-font-specification:Lavi;text-align:center;letter-spacing:0px;word-spacing:0px;text-anchor:middle;fill:#000000;fill-opacity:1;stroke:none"
       x="1998.85"
       y="2757.4656"
       id="text4246-3-2-9-6-6-0"
       sodipodi:linespacing="125%"><tspan
         sodipodi:role="line"
         style="font-size:45px"
         x="1998.85"
         y="2757.4656"
         id="tspan4378-7">Mi, Káoszah boszorkányok</tspan><tspan
         sodipodi:role="line"
         style="font-size:45px"
         x="1998.85"
         y="2813.7156"
         id="tspan4363">eltemetjük a hibáinkat!</tspan></text>
    <text
       xml:space="preserve"
       style="font-style:normal;font-variant:normal;font-weight:normal;font-stretch:normal;font-size:12px;line-height:125%;font-family:Lavi;-inkscape-font-specification:Lavi;text-align:center;letter-spacing:0px;word-spacing:0px;text-anchor:middle;fill:#000000;fill-opacity:1;stroke:none;stroke-width:2.79999995;stroke-miterlimit:4;stroke-dasharray:none"
       x="2002.6411"
       y="2915.0608"
       id="text4246-3-2-9-6-6-0-5"
       sodipodi:linespacing="125%"><tspan
         sodipodi:role="line"
         style="font-size:45px;stroke-width:2.79999995;stroke-miterlimit:4;stroke-dasharray:none"
         x="2002.6411"
         y="2915.0608"
         id="tspan3931">Ez a hagyományunk</tspan><tspan
         sodipodi:role="line"
         style="font-size:45px;stroke-width:2.79999995;stroke-miterlimit:4;stroke-dasharray:none"
         x="2002.6411"
         y="2971.3108"
         id="tspan4370">a kezdetek kezdete óta,</tspan><tspan
         sodipodi:role="line"
         style="font-size:45px;stroke-width:2.79999995;stroke-miterlimit:4;stroke-dasharray:none"
         x="2002.6411"
         y="3027.5608"
         id="tspan4372">és fütyülök arra, hogy az</tspan><tspan
         sodipodi:role="line"
         style="font-size:45px;stroke:#000000;stroke-width:2.79999995;stroke-miterlimit:4;stroke-dasharray:none;stroke-opacity:1"
         x="2002.6411"
         y="3083.8108"
         id="tspan3933">ANYATERMÉSZET</tspan><tspan
         sodipodi:role="line"
         style="font-size:45px;stroke-width:2.79999995;stroke-miterlimit:4;stroke-dasharray:none"
         x="2002.6411"
         y="3140.0608"
         id="tspan3935">mit gondol!</tspan><tspan
         sodipodi:role="line"
         style="font-size:45px;stroke-width:2.79999995;stroke-miterlimit:4;stroke-dasharray:none"
         x="2002.6411"
         y="3196.3108"
         id="tspan4378-7-6" /></text>
    <text
       xml:space="preserve"
       style="font-style:normal;font-variant:normal;font-weight:normal;font-stretch:normal;font-size:12px;line-height:125%;font-family:Lavi;-inkscape-font-specification:Lavi;text-align:center;letter-spacing:0px;word-spacing:0px;text-anchor:middle;fill:#000000;fill-opacity:1;stroke:none;stroke-width:2.79999995;stroke-miterlimit:4;stroke-dasharray:none"
       x="2083.4753"
       y="3219.5076"
       id="text4246-3-2-9-6-6-0-5-1"
       sodipodi:linespacing="125%"><tspan
         sodipodi:role="line"
         style="font-size:45px;stroke-width:2.79999995;stroke-miterlimit:4;stroke-dasharray:none"
         x="2083.4753"
         y="3219.5076"
         id="tspan3939">Egy szóval, fogd be</tspan><tspan
         sodipodi:role="line"
         style="font-size:45px;stroke-width:2.79999995;stroke-miterlimit:4;stroke-dasharray:none"
         x="2091.3855"
         y="3275.7576"
         id="tspan4376">a szád és <tspan
   style="stroke:#000000;stroke-width:2.79999995;stroke-miterlimit:4;stroke-dasharray:none;stroke-opacity:1"
   id="tspan4219">ÁSS</tspan>! </tspan><tspan
         sodipodi:role="line"
         style="font-size:45px;stroke-width:2.79999995;stroke-miterlimit:4;stroke-dasharray:none"
         x="2083.4753"
         y="3332.0076"
         id="tspan4378-7-6-4" /></text>
  </g>
</svg>
