<?xml version="1.0" encoding="UTF-8" standalone="no"?>
<!-- Created with Inkscape (http://www.inkscape.org/) -->

<svg
   xmlns:dc="http://purl.org/dc/elements/1.1/"
   xmlns:cc="http://creativecommons.org/ns#"
   xmlns:rdf="http://www.w3.org/1999/02/22-rdf-syntax-ns#"
   xmlns:svg="http://www.w3.org/2000/svg"
   xmlns="http://www.w3.org/2000/svg"
   xmlns:xlink="http://www.w3.org/1999/xlink"
   xmlns:sodipodi="http://sodipodi.sourceforge.net/DTD/sodipodi-0.dtd"
   xmlns:inkscape="http://www.inkscape.org/namespaces/inkscape"
   id="svg2"
   version="1.1"
   inkscape:version="0.91 r13725"
   width="2481"
   height="3503"
   sodipodi:docname="Pepper-and-Carrot_by-David-Revoy_E19P01.svg">
  <metadata
     id="metadata8">
    <rdf:RDF>
      <cc:Work
         rdf:about="">
        <dc:format>image/svg+xml</dc:format>
        <dc:type
           rdf:resource="http://purl.org/dc/dcmitype/StillImage" />
        <dc:title />
      </cc:Work>
    </rdf:RDF>
  </metadata>
  <defs
     id="defs6" />
  <sodipodi:namedview
     pagecolor="#ffffff"
     bordercolor="#666666"
     borderopacity="1"
     objecttolerance="10"
     gridtolerance="10"
     guidetolerance="10"
     inkscape:pageopacity="0"
     inkscape:pageshadow="2"
     inkscape:window-width="1304"
     inkscape:window-height="745"
     id="namedview4"
     showgrid="false"
     inkscape:zoom="0.31941595"
     inkscape:cx="1123.7841"
     inkscape:cy="624.36633"
     inkscape:window-x="-8"
     inkscape:window-y="-8"
     inkscape:window-maximized="1"
     inkscape:current-layer="layer1"
     showguides="true" />
  <g
     inkscape:groupmode="layer"
     id="layer2"
     inkscape:label="artwork"
     sodipodi:insensitive="true">
    <image
       sodipodi:absref="E:\Projects\Pepper&amp;Carrot\peppercarrot_ep19_translation\hu\..\gfx_Pepper-and-Carrot_by-David-Revoy_E19P01.png"
       xlink:href="..\gfx_Pepper-and-Carrot_by-David-Revoy_E19P01.png"
       y="0"
       x="0"
       id="image10"
       height="3503"
       width="2481" />
  </g>
  <g
     inkscape:groupmode="layer"
     id="layer3"
     inkscape:label="speechbubbles">
    <path
       style="color:#000000;display:inline;overflow:visible;visibility:visible;fill:#ffffff;fill-opacity:1;fill-rule:nonzero;stroke:none;stroke-width:1px;marker:none;enable-background:accumulate"
       d="m 1029.8393,1944.6884 c -4.0128,-29.8516 27.4228,-65.8653 141.2314,-57.9056 113.8089,7.9598 136.1975,21.984 139.559,60.2936 1.3936,15.8826 -28.9185,40.5945 -45.71,44.5744 -16.7915,3.9798 -86.4023,4.5754 -114.3882,1.3916 -27.9856,-3.1839 -88.0421,-10.1473 -104.8336,-24.4749 -16.7916,-14.3274 -13.9928,-20.6952 -15.8586,-23.8791 z"
       id="path3365"
       inkscape:connector-curvature="0"
       sodipodi:nodetypes="csssssc" />
    <path
       style="color:#000000;display:inline;overflow:visible;visibility:visible;fill:#ffffff;fill-opacity:1;fill-rule:nonzero;stroke:none;stroke-width:1px;marker:none;enable-background:accumulate"
       d="m 1370.5417,2076.7705 c -10.549,60.4919 -58.2894,87.5346 -97.906,103.9383 -73.9356,25.9819 -151.4145,12.9411 -225.9051,-1.0818 -38.6476,-9.9683 -78.45755,-52.943 -74.41664,-110.9699 3.9053,-52.014 41.37234,-85.9101 77.48484,-90.7419 52.9398,-16.863 108.1511,-25.0776 161.9789,-10.7315 46.2201,8.1908 95.7204,10.4111 136.8871,42.7624 13.7574,17.0938 19.0432,42.6884 21.8769,66.8244 z"
       id="path3365-3"
       inkscape:connector-curvature="0" />
    <path
       style="fill:#ffffff;stroke:none"
       d="m 946.04216,2287.4856 c 7.23312,-65.5379 63.73454,-101.0015 146.66774,-110.13 101.6741,-19.4797 196.4431,-28.4043 297.9053,-9.7395 66.3484,15.4394 120.8769,17.1922 172.4244,61.509 34.1826,32.5028 46.4903,155.5056 -8.8754,187.3845 -57.6363,46.607 -212.0775,56.9325 -290.2167,55.6585 -112.4682,1.9182 -211.0356,-6.5692 -266.57787,-45.3879 -51.93501,-37.2437 -58.40137,-90.7789 -51.32747,-139.2946 z"
       id="path3065"
       inkscape:connector-curvature="0"
       sodipodi:nodetypes="cccccccc" />
    <path
       style="display:inline;fill:#ffffff;stroke:none"
       d="m 1639.5841,2318.3167 c -21.9558,36.2988 -64.6442,61.9501 -96.7367,35.7869 -19.4449,-15.8524 -29.1134,-28.291 -29.1134,-28.291 l -6.3679,30.9322 20.7854,19.5483 c 0,0 65.508,31.9103 111.4326,-57.9764 z"
       id="path3063-1"
       inkscape:connector-curvature="0"
       sodipodi:nodetypes="cscccc" />
    <path
       style="color:#000000;display:inline;overflow:visible;visibility:visible;fill:#ffffff;fill-opacity:1;fill-rule:nonzero;stroke:none;stroke-width:1px;marker:none;enable-background:accumulate"
       d="m 1903.7902,2318.7633 c 23.0959,-14.8351 114.043,-27.5791 204.8764,-26.0229 90.8334,1.5563 177.891,9.704 231.1104,46.2927 78.4097,53.907 42.6956,177.1599 2.0847,197.9002 -29.4324,15.0314 -117.522,28.518 -201.8934,30.0346 -84.3711,1.5168 -165.0241,-8.9363 -204.4286,-22.5197 -34.0073,-11.723 -83.5547,-43.6247 -87.6003,-120.7802 -1.6511,-31.4904 9.6593,-75.2341 55.8508,-104.9047 z"
       id="path4040"
       inkscape:connector-curvature="0"
       sodipodi:nodetypes="ssssssss" />
    <path
       style="color:#000000;display:inline;overflow:visible;visibility:visible;fill:#ffffff;fill-opacity:1;fill-rule:nonzero;stroke:none;stroke-width:1px;marker:none;enable-background:accumulate"
       d="m 2091.5868,2309.6031 c -12.6779,-33.6245 -30.9699,-60.7293 -65.977,-55.676 52.3023,-18.546 92.9308,35.3617 103.6224,53.2726 10.6914,17.9109 -37.6454,2.4034 -37.6454,2.4034 z"
       id="path5010"
       inkscape:connector-curvature="0" />
    <path
       style="color:#000000;display:inline;overflow:visible;visibility:visible;fill:#ffffff;fill-opacity:1;fill-rule:nonzero;stroke:none;stroke-width:1px;marker:none;enable-background:accumulate"
       d="m 628.01922,2726.3612 c -0.95298,-26.3558 9.57321,-45.2414 49.59603,-62.4534 40.023,-17.2119 96.82343,-9.0026 111.7267,-8.4347 69.9372,2.665 93.37108,11.5648 107.66493,30.9284 14.29393,19.3634 17.94569,15.1087 17.44053,48.6465 -0.45226,30.0255 -4.49249,44.1361 -21.64514,50.5905 -17.15276,6.4545 -148.92483,13.8487 -169.21221,13.5611 -19.86289,-0.2816 -45.15266,-3.5096 -64.84564,-14.0823 -18.59066,-9.9808 -29.77229,-32.4002 -30.7252,-58.7561 z"
       id="path3373"
       inkscape:connector-curvature="0"
       sodipodi:nodetypes="zsssssssz" />
    <path
       style="color:#000000;display:inline;overflow:visible;visibility:visible;fill:#ffffff;fill-opacity:1;fill-rule:nonzero;stroke:none;stroke-width:1px;marker:none;enable-background:accumulate"
       d="m 671.9073,2853.9321 c 9.24705,-71.4433 79.61414,-96.2842 280.47551,-100.5518 52.53389,-1.1161 141.02929,7.4337 182.28389,24.0922 41.2547,16.6585 64.7452,73.9993 58.5805,126.3501 -12.3293,104.7015 -141.1572,87.2502 -176.6044,88.4821 -35.44716,1.2319 -279.41322,4.6116 -314.38411,-42.9057 -33.53636,-45.5681 -31.89255,-73.2947 -30.35139,-95.4669 z"
       id="path4546"
       inkscape:connector-curvature="0"
       sodipodi:nodetypes="csssssc" />
    <path
       style="color:#000000;display:inline;overflow:visible;visibility:visible;fill:#ffffff;fill-opacity:1;fill-rule:nonzero;stroke:none;stroke-width:1px;marker:none;enable-background:accumulate"
       d="m 862.09977,2985.8994 c 29.83792,-42.4872 192.12923,-38.8602 246.12643,-20.4526 53.9972,18.4073 77.3405,23.4094 76.6006,61.358 -0.6926,35.5277 -18.1058,68.7281 -45.7324,78.9545 -27.6264,10.2263 -92.3998,10.0146 -120.0263,10.0146 -27.62636,0 -115.81603,-6.509 -138.13232,-21.4754 -21.34772,-14.3168 -48.67405,-65.9121 -18.83601,-108.3991 z"
       id="path3330"
       inkscape:connector-curvature="0"
       sodipodi:nodetypes="zsssssz" />
    <path
       style="color:#000000;display:inline;overflow:visible;visibility:visible;fill:#ffffff;fill-opacity:1;fill-rule:nonzero;stroke:none;stroke-width:1px;marker:none;enable-background:accumulate"
       d="m 929.99953,3158.9683 c 39.78505,-10.9584 53.20162,-17.1208 58.43434,-65.1641 5.23266,-48.0433 23.16173,-44.6696 23.16173,-44.6696 l 14.7504,30.3838 c 0,0 -18.3423,101.2684 -96.34647,79.4499 z"
       id="path3072"
       inkscape:connector-curvature="0" />
    <path
       style="fill:#ffffff;fill-rule:evenodd;stroke:none;stroke-width:1px;stroke-linecap:butt;stroke-linejoin:miter;stroke-opacity:1"
       d="m 1869.2245,3239.5273 c 38.529,2.1524 88.7072,-8.5621 57.5582,-40.9681 56.0606,25.9662 109.1668,30.83 165.0752,2.4031 -8.1728,28.6978 83.2421,30.9119 114.5651,11.9225 -9.5572,29.906 34.3891,31.0596 71.1116,32.0091 -77.6828,36.5615 -36.8907,48.1891 -6.2812,61.9598 -76.3435,-10.1884 -57.8794,10.4551 -66.9982,22.1285 -65.4912,-26.449 -113.1186,-20.1718 -150.7458,4.4257 -19.6793,-13.3768 -25.8563,-41.0242 -98.4032,1.4752 26.6772,-36.6892 -8.2907,-32.8382 -64.9045,-14.7522 13.025,-8.4337 67.8473,-30.9658 -20.9772,-28.9705 13.8705,-2.97 25.0003,-6.2033 32.8445,-9.7524 7.8441,-3.5491 -42.5952,-13.0242 -41.868,-17.2571 0.7272,-4.2329 52.621,-3.2235 45.1403,-8.2451 -7.4805,-5.0215 -19.3378,-10.4635 -36.1168,-16.3785 z"
       id="path4584"
       inkscape:connector-curvature="0"
       sodipodi:nodetypes="cccccccccccsssc" />
    <path
       style="color:#000000;display:inline;overflow:visible;visibility:visible;fill:#ffffff;fill-opacity:1;fill-rule:nonzero;stroke:none;stroke-width:1px;marker:none;enable-background:accumulate"
       d="m 1929.0839,3276.1051 c -26.7744,0.1934 -96.6935,-12.0611 -103.8888,-13.0148 6.0705,-5.4371 10.1298,-10.8932 13.4021,-15.1162 -13.7156,-0.9263 -59.5001,-2.596 -79.7676,1.5975 50.7453,-11.4228 73.8083,-12.6417 95.8809,-9.8645 -2.9601,5.998 -5.8701,9.4267 -7.3188,12.6033 18.7307,6.708 117.9634,8.8349 106.078,1.4065 z"
       id="path5066"
       inkscape:connector-curvature="0"
       sodipodi:nodetypes="cccccccc" />
  </g>
  <g
     inkscape:groupmode="layer"
     id="layer1"
     inkscape:label="txt"
     style="display:inline">
    <text
       xml:space="preserve"
       style="font-style:normal;font-variant:normal;font-weight:normal;font-stretch:normal;font-size:12px;line-height:125%;font-family:Lavi;-inkscape-font-specification:Lavi;text-align:center;letter-spacing:0px;word-spacing:0px;text-anchor:middle;fill:#000000;fill-opacity:1;stroke:none"
       x="1177.4561"
       y="1950.6425"
       id="text4246-3-9"
       sodipodi:linespacing="125%"><tspan
         sodipodi:role="line"
         style="font-size:45px"
         x="1177.4561"
         y="1950.6425"
         id="tspan4183-8">Bemegyek.</tspan></text>
    <text
       xml:space="preserve"
       style="font-style:normal;font-variant:normal;font-weight:normal;font-stretch:normal;font-size:12px;line-height:125%;font-family:Lavi;-inkscape-font-specification:Lavi;text-align:center;letter-spacing:0px;word-spacing:0px;text-anchor:middle;fill:#000000;fill-opacity:1;stroke:none"
       x="2137.0017"
       y="2370.491"
       id="text4246"
       sodipodi:linespacing="125%"><text
         xml:space="preserve"
         style="font-style:normal;font-variant:normal;font-weight:normal;font-stretch:normal;font-size:12px;line-height:125%;font-family:Lavi;-inkscape-font-specification:Lavi;text-align:center;letter-spacing:0px;word-spacing:0px;text-anchor:middle;fill:#000000;fill-opacity:1;stroke:none"
         x="1174.7997"
         y="2038.2527"
         id="text4246-3"
         sodipodi:linespacing="125%"><tspan
           sodipodi:role="line"
           style="font-size:45px"
           x="1174.7997"
           y="2038.2527"
           id="tspan3953">Nincs értelme</tspan></text>
<tspan
         sodipodi:role="line"
         style="font-size:45px"
         x="1174.7997"
         y="2038.2527"
         id="tspan3450" /><tspan
         sodipodi:role="line"
         style="font-size:45px"
         x="1174.7997"
         y="2094.5027"
         id="tspan3457">azt bámulnom,</tspan><tspan
         sodipodi:role="line"
         style="font-size:45px"
         x="1174.7997"
         y="2150.7527"
         id="tspan3459">ahogy ásol.</tspan></text>
    <text
       xml:space="preserve"
       style="font-style:normal;font-variant:normal;font-weight:normal;font-stretch:normal;font-size:12px;line-height:125%;font-family:Lavi;-inkscape-font-specification:Lavi;text-align:center;letter-spacing:0px;word-spacing:0px;text-anchor:middle;fill:#000000;fill-opacity:1;stroke:none"
       x="1268.4561"
       y="2221.5215"
       id="text4246-3-7"
       sodipodi:linespacing="125%"><tspan
         sodipodi:role="line"
         style="font-size:45px"
         x="1268.4561"
         y="2221.5215"
         id="tspan3968">Temesd be nekem</tspan><tspan
         sodipodi:role="line"
         style="font-size:45px"
         x="1268.4561"
         y="2277.7715"
         id="tspan3476">ezeket az elszúrt bájitalokat.</tspan><tspan
         sodipodi:role="line"
         style="font-size:45px"
         x="1268.4561"
         y="2334.0215"
         id="tspan3470">Minél hamarabb kész vagy,</tspan><tspan
         sodipodi:role="line"
         style="font-size:45px"
         x="1268.4561"
         y="2390.2715"
         id="tspan3472">annál hamarabb bejöhetsz</tspan><tspan
         sodipodi:role="line"
         style="font-size:45px"
         x="1268.4561"
         y="2446.5215"
         id="tspan3474">pihenni.</tspan></text>
    <text
       xml:space="preserve"
       style="font-style:normal;font-variant:normal;font-weight:normal;font-stretch:normal;font-size:12px;line-height:125%;font-family:Lavi;-inkscape-font-specification:Lavi;text-align:center;letter-spacing:0px;word-spacing:0px;text-anchor:middle;fill:#000000;fill-opacity:1;stroke:none"
       x="2113.6384"
       y="2365.1826"
       id="text4246-3-7-6"
       sodipodi:linespacing="125%"><tspan
         sodipodi:role="line"
         style="font-size:45px"
         x="2113.6384"
         y="2365.1826"
         id="tspan3983">Az, hogy holnapra</tspan><tspan
         sodipodi:role="line"
         style="font-size:45px"
         x="2113.6384"
         y="2421.4326"
         id="tspan3491">kész leszel, valószínűleg</tspan><tspan
         sodipodi:role="line"
         style="font-size:45px"
         x="2113.6384"
         y="2477.6826"
         id="tspan3497">hiú ábránd...</tspan><tspan
         sodipodi:role="line"
         style="font-size:45px"
         x="2113.6384"
         y="2533.9326"
         id="tspan3499">de ki tudja.</tspan></text>
    <text
       xml:space="preserve"
       style="font-style:normal;font-variant:normal;font-weight:normal;font-stretch:normal;font-size:12px;line-height:125%;font-family:Lavi;-inkscape-font-specification:Lavi;text-align:center;letter-spacing:0px;word-spacing:0px;text-anchor:middle;fill:#000000;fill-opacity:1;stroke:none"
       x="775.45044"
       y="2707.4324"
       id="text4246-3-7-6-7"
       sodipodi:linespacing="125%"><tspan
         sodipodi:role="line"
         style="font-size:45px"
         x="775.45044"
         y="2707.4324"
         id="tspan3987">Rendben,</tspan><tspan
         sodipodi:role="line"
         style="font-size:45px"
         x="775.45044"
         y="2763.6824"
         id="tspan3383">sietni fogok!</tspan></text>
    <text
       xml:space="preserve"
       style="font-style:normal;font-variant:normal;font-weight:normal;font-stretch:normal;font-size:12px;line-height:125%;font-family:Lavi;-inkscape-font-specification:Lavi;text-align:center;letter-spacing:0px;word-spacing:0px;text-anchor:middle;fill:#000000;fill-opacity:1;stroke:none"
       x="938.81274"
       y="2840.0046"
       id="text4246-3-7-6-7-0"
       sodipodi:linespacing="125%"><tspan
         sodipodi:role="line"
         style="font-size:45px"
         x="938.81274"
         y="2840.0046"
         id="tspan4770">De ha már itt tartunk,</tspan><tspan
         sodipodi:role="line"
         style="font-size:45px;stroke:#000000;stroke-opacity:1"
         x="938.81274"
         y="2896.2546"
         id="tspan3390">miért ásunk el folyton</tspan><tspan
         sodipodi:role="line"
         style="font-size:45px;stroke:#000000;stroke-opacity:1"
         x="938.81274"
         y="2952.5046"
         id="tspan3392">mindent?</tspan></text>
    <text
       xml:space="preserve"
       style="font-style:normal;font-variant:normal;font-weight:normal;font-stretch:normal;font-size:12px;line-height:125%;font-family:Lavi;-inkscape-font-specification:Lavi;text-align:center;letter-spacing:0px;word-spacing:0px;text-anchor:middle;fill:#000000;fill-opacity:1;stroke:none"
       x="1026.5442"
       y="3025.0105"
       id="text4246-3-7-6-7-0-9"
       sodipodi:linespacing="125%"><tspan
         sodipodi:role="line"
         style="font-size:45px"
         x="1026.5442"
         y="3025.0105"
         id="tspan4782">Nem lenne</tspan><tspan
         sodipodi:role="line"
         style="font-size:45px"
         x="1026.5442"
         y="3081.2605"
         id="tspan4196">jobb, ha...</tspan></text>
    <text
       xml:space="preserve"
       style="font-style:normal;font-variant:normal;font-weight:normal;font-stretch:normal;font-size:12px;line-height:125%;font-family:Lavi;-inkscape-font-specification:Lavi;text-align:center;letter-spacing:0px;word-spacing:0px;text-anchor:middle;fill:#000000;fill-opacity:1;stroke:none"
       x="2065.533"
       y="3283.2891"
       id="text4246-3-7-6-7-0-9-3"
       sodipodi:linespacing="125%"><tspan
         sodipodi:role="line"
         style="font-size:45px"
         x="2065.533"
         y="3283.2891"
         id="tspan4464-5">Ha <tspan
   style="stroke:#000000;stroke-width:2.5999999;stroke-miterlimit:4;stroke-dasharray:none;stroke-opacity:1"
   id="tspan4493">MICSODA</tspan>?</tspan></text>
  </g>
</svg>
