<?xml version="1.0" encoding="UTF-8" standalone="no"?>
<!-- Created with Inkscape (http://www.inkscape.org/) -->

<svg
   xmlns:dc="http://purl.org/dc/elements/1.1/"
   xmlns:cc="http://creativecommons.org/ns#"
   xmlns:rdf="http://www.w3.org/1999/02/22-rdf-syntax-ns#"
   xmlns:svg="http://www.w3.org/2000/svg"
   xmlns="http://www.w3.org/2000/svg"
   xmlns:xlink="http://www.w3.org/1999/xlink"
   xmlns:sodipodi="http://sodipodi.sourceforge.net/DTD/sodipodi-0.dtd"
   xmlns:inkscape="http://www.inkscape.org/namespaces/inkscape"
   id="svg2"
   version="1.1"
   inkscape:version="0.91 r13725"
   width="2481"
   height="3503"
   sodipodi:docname="Pepper-and-Carrot_by-David-Revoy_E19P05.svg">
  <metadata
     id="metadata8">
    <rdf:RDF>
      <cc:Work
         rdf:about="">
        <dc:format>image/svg+xml</dc:format>
        <dc:type
           rdf:resource="http://purl.org/dc/dcmitype/StillImage" />
        <dc:title />
      </cc:Work>
    </rdf:RDF>
  </metadata>
  <defs
     id="defs6">
    <filter
       inkscape:collect="always"
       style="color-interpolation-filters:sRGB"
       id="filter4436"
       x="-0.009420248"
       width="1.0188405"
       y="-0.0097332714"
       height="1.0194665">
      <feGaussianBlur
         inkscape:collect="always"
         stdDeviation="0.80032609"
         id="feGaussianBlur4438" />
    </filter>
    <filter
       style="color-interpolation-filters:sRGB"
       id="filter4375-4-1-1-1-9"
       inkscape:label="deevad outline effect">
      <feFlood
         id="feFlood4377-7-9-0-8-1"
         flood-opacity="1"
         flood-color="rgb(0,0,0)"
         result="flood" />
      <feComposite
         id="feComposite4379-3-8-8-2-77"
         in2="SourceGraphic"
         in="flood"
         operator="in"
         result="composite1" />
      <feMorphology
         id="feMorphology4393-1-0-49-8-9"
         operator="dilate"
         radius="4"
         result="result3" />
      <feComposite
         id="feComposite4385-9-5-7-0-8"
         in2="result3"
         in="SourceGraphic"
         operator="over"
         result="composite2" />
    </filter>
  </defs>
  <sodipodi:namedview
     pagecolor="#ffffff"
     bordercolor="#666666"
     borderopacity="1"
     objecttolerance="10"
     gridtolerance="10"
     guidetolerance="10"
     inkscape:pageopacity="0"
     inkscape:pageshadow="2"
     inkscape:window-width="1304"
     inkscape:window-height="745"
     id="namedview4"
     showgrid="false"
     inkscape:zoom="0.34350663"
     inkscape:cx="1310.2259"
     inkscape:cy="692.30273"
     inkscape:window-x="-8"
     inkscape:window-y="-8"
     inkscape:window-maximized="1"
     inkscape:current-layer="layer1" />
  <g
     inkscape:groupmode="layer"
     id="layer2"
     inkscape:label="artwork"
     sodipodi:insensitive="true">
    <image
       sodipodi:absref="E:\Projects\Pepper&amp;Carrot\peppercarrot_ep19_translation\hu\..\gfx_Pepper-and-Carrot_by-David-Revoy_E19P05.png"
       xlink:href="../gfx_Pepper-and-Carrot_by-David-Revoy_E19P05.png"
       width="2481"
       height="3503"
       id="image10"
       x="0"
       y="0" />
  </g>
  <g
     inkscape:groupmode="layer"
     id="layer3"
     inkscape:label="speechbubbles">
    <path
       style="color:#000000;display:inline;overflow:visible;visibility:visible;fill:#ffffff;fill-opacity:1;fill-rule:nonzero;stroke:none;stroke-width:1px;marker:none;enable-background:accumulate"
       d="m 175.39383,232.3284 c 8.05348,-58.92795 88.86119,-102.07772 295.78001,-91.0933 110.83686,5.8838 236.76805,9.71695 226.25803,96.04161 -10.51014,86.32456 -191.6041,84.19414 -229.05531,86.23105 -37.45121,2.03701 -231.98969,-6.91992 -265.27402,-36.2665 -20.83521,-18.37017 -28.8032,-36.66325 -27.70871,-54.91286 z"
       id="path4546"
       inkscape:connector-curvature="0"
       sodipodi:nodetypes="cssssc" />
    <path
       style="color:#000000;display:inline;overflow:visible;visibility:visible;fill:#ffffff;fill-opacity:1;fill-rule:nonzero;stroke:none;stroke-width:1px;marker:none;filter:url(#filter4386);enable-background:accumulate"
       d="m 292.57324,388.36133 c 4.18222,-76.66435 110.69164,-82.21188 149.23628,-83.56023 19.02617,0.39767 128.41405,-6.99163 221.01318,-2.84972 92.59911,4.1419 169.13847,14.92748 174.15595,70.82971 8.66098,96.49618 -58.66785,80.21566 -139.67586,87.55482 -81.00799,7.33917 -174.69746,1.23751 -217.76006,2.41765 -84.93083,2.32752 -193.23943,6.70097 -186.96949,-74.39223 z"
       id="path3145"
       inkscape:connector-curvature="0"
       sodipodi:nodetypes="ccssssc" />
    <path
       style="color:#000000;display:inline;overflow:visible;visibility:visible;fill:#ffffff;fill-opacity:1;fill-rule:nonzero;stroke:none;stroke-width:1px;marker:none;enable-background:accumulate"
       d="m 446.27152,300.25044 c 18.72085,42.63412 151.10363,129.12034 165.81283,143.73771 14.70919,14.61736 73.7025,51.80706 97.77206,55.46145 24.06968,3.65429 34.61383,-5.53274 55.60142,-7.98778 12.78199,-1.49519 17.18619,22.92918 50.77997,17.07051 -42.14888,-6.98958 -22.50416,-29.88571 -64.91129,-24.54594 -12.88206,1.62207 -29.12682,8.03372 -50.16944,-3.7592 -55.77193,-31.25628 -135.87479,-117.85288 -157.27,-121.50717 -21.39521,-3.6544 -71.63519,-52.34757 -71.63519,-68.18304 0,-15.83557 -25.98036,9.71346 -25.98036,9.71346 z"
       id="path4562"
       inkscape:connector-curvature="0"
       sodipodi:nodetypes="cssscssssc" />
    <path
       style="color:#000000;display:inline;overflow:visible;visibility:visible;fill:#ffffff;fill-opacity:1;fill-rule:nonzero;stroke:none;stroke-width:1px;marker:none;enable-background:accumulate"
       d="m 1814.5578,520.42948 c 8.1599,-53.96411 49.4429,-74.11602 180.6435,-71.14807 168.5372,3.81257 260.3804,-11.48682 262.1367,90.11254 1.3745,79.51356 -174.4755,73.21571 -205.7555,74.14612 -31.2799,0.93051 -194.9679,-3.8331 -218.6344,-31.00238 -15.7256,-18.05316 -19.7504,-45.36066 -18.3903,-62.10821 z"
       id="path4546-6"
       inkscape:connector-curvature="0"
       sodipodi:nodetypes="cssssc" />
    <path
       style="color:#000000;display:inline;overflow:visible;visibility:visible;fill:#ffffff;fill-opacity:1;fill-rule:nonzero;stroke:none;stroke-width:1px;marker:none;enable-background:accumulate"
       d="m 1701.8598,502.58041 c 34.2355,-19.71173 54.3987,3.34417 62.5308,8.32687 8.132,4.9827 37.4163,23.21994 64.0425,5.43127 26.6264,-17.78869 62.8269,-3.31025 62.8269,-3.31025 l -39.1174,27.48072 c 0,0 -38.4369,7.20044 -59.7592,-0.984 -21.3223,-8.18441 -44.9876,-30.85789 -56.2316,-33.04337 -11.2438,-2.1855 -22.2733,-7.94404 -34.292,-3.90124 z"
       id="path4018"
       inkscape:connector-curvature="0" />
    <path
       style="fill:#ffffff;fill-rule:evenodd;stroke:none;stroke-width:1px;stroke-linecap:butt;stroke-linejoin:miter;stroke-opacity:1"
       d="m 588.40376,914.65231 c 3.19663,-13.63689 11.80483,-23.98359 21.17352,-30.89066 4.45851,-3.33465 9.55466,-5.77835 14.76954,-5.13556 5.18067,0.38408 10.24092,2.67713 15.47891,1.88067 6.36924,-0.26307 12.85031,-1.41081 19.14642,0.2292 5.59702,1.78949 11.36355,2.71628 17.13927,2.77002 4.07461,-1.13586 7.80313,1.89157 11.44199,3.70231 3.26677,1.95593 6.60351,4.00801 9.3474,7.03352 2.52795,4.24716 5.55485,7.9421 8.11232,12.15145 1.67342,2.30123 1.51263,5.47984 1.43554,8.42157 -0.21734,6.02406 -0.58538,12.14319 -1.95147,17.94685 -0.81749,3.68454 -3.8391,4.90391 -6.16085,6.59704 -5.49361,3.57416 -11.32711,6.28455 -16.57007,10.49061 -5.19427,2.15366 -10.71435,1.1463 -16.04131,0.82083 -4.46364,-0.64109 -8.95383,-1.53507 -13.45583,-0.78954 -5.72997,0.54557 -11.44255,1.95821 -17.19303,1.77726 -7.20377,-1.24165 -14.10302,-4.29889 -21.08408,-6.75135 -6.26328,-2.16161 -11.97173,-6.2263 -17.44914,-10.57451 -2.92584,-2.46919 -6.02317,-5.33924 -7.05575,-9.88965 -0.84645,-3.13334 -1.04589,-6.48839 -1.08338,-9.79006 z"
       id="path4365"
       inkscape:connector-curvature="0" />
    <path
       style="fill:#ffffff;stroke:none"
       d="m 585.80257,1016.9897 c 25.0585,-22.43253 22.34002,-27.88279 18.28192,-33.62356 -4.05789,-5.74087 -9.0117,-10.26487 -5.47683,-15.76954 3.53471,-5.50448 11.83641,-12.20928 18.64507,-16.88605 6.80865,-4.67676 -0.15106,-6.98609 -1.33267,-11.71084 -1.18153,-4.72486 8.47495,-35.26533 8.47495,-35.26533 0,0 18.8861,11.27031 21.85273,16.73523 2.96681,5.46474 4.10423,7.43623 4.14842,10.18949 0.044,2.75343 -1.45956,10.07055 -7.37678,15.64632 -5.91727,5.57568 -12.97777,12.61891 -18.44474,16.52839 -5.46711,3.90944 -14.50851,8.27169 -13.27858,13.63411 1.23003,5.36237 10.23798,8.00805 0.82597,18.96164 -8.0678,9.38924 -26.31946,21.56014 -26.31946,21.56014 z"
       id="path3023-2"
       inkscape:connector-curvature="0"
       sodipodi:nodetypes="csssscssssssc" />
    <path
       style="fill:#ffffff;stroke:none"
       d="m 930.60629,910.38152 c -0.56464,-16.47336 17.65795,-62.04816 95.76041,-56.80467 78.1024,5.24349 102.2046,24.00836 103.9101,53.30904 2.6982,46.35286 -38.6713,57.58421 -97.7876,59.38885 -60.94251,1.86043 -98.55,-14.22681 -101.88291,-55.89322 z"
       id="path3280"
       inkscape:connector-curvature="0"
       sodipodi:nodetypes="csssc" />
    <path
       style="color:#000000;display:inline;overflow:visible;visibility:visible;fill:#ffffff;fill-opacity:1;fill-rule:nonzero;stroke:none;stroke-width:1px;marker:none;enable-background:accumulate"
       d="m 1193.0761,946.44945 c 74.678,1.28998 152.3391,9.13975 172.1419,25.30318 40.123,32.74907 21.6819,90.78767 -21.2721,108.98477 -42.954,18.1972 -181.8845,24.1453 -241.4221,17.4423 -54.3724,-6.1216 -104.51232,-23.7663 -109.10364,-76.256 12.28254,-92.0185 143.50544,-76.29859 199.65594,-75.47425 z"
       id="path4040-6"
       inkscape:connector-curvature="0"
       sodipodi:nodetypes="cssscc" />
    <path
       style="color:#000000;display:inline;overflow:visible;visibility:visible;fill:#ffffff;fill-opacity:1;fill-rule:nonzero;stroke:none;stroke-width:1px;marker:none;enable-background:accumulate"
       d="m 1290.3321,1173.7871 c 19.4758,-56.0536 -15.5086,-73.6442 -35.8993,-79.8259 -46.2488,-14.0212 -31.454,-39.2745 -31.454,-39.2745 l 33.7545,-1.1746 c 0,0 85.1517,57.8008 33.5988,120.275 z"
       id="path3072"
       inkscape:connector-curvature="0"
       sodipodi:nodetypes="csccc" />
    <path
       inkscape:connector-curvature="0"
       style="color:#000000;display:inline;overflow:visible;visibility:visible;fill:#ffffff;fill-opacity:1;fill-rule:nonzero;stroke:none;stroke-width:1px;marker:none;enable-background:accumulate"
       d="m 2380.2717,1949.362 -68.6422,40.0137 -1.0825,-13.6154 -22.4559,9.7859 c -91.2612,-16.098 -208.5252,-16.9799 -300.7015,-10.3227 l -25.0044,-10.2868 -4.4033,12.743 c -4.2079,0.4021 -8.3701,0.8151 -12.4251,1.2486 l -27.067,-12.6414 2.6228,15.566 c -0.5058,0.068 -1.0035,0.1356 -1.5059,0.2036 l -37.7191,-14.1901 6.0647,19.2397 c -1.8162,0.3424 -3.5947,0.6877 -5.329,1.0372 l -47.6861,-29.8861 17.8898,37.6495 c -2.963,1.0568 -5.5294,2.1289 -7.7212,3.2139 l -28.6862,-12.4011 15.3852,21.0652 c -2.9098,2.0556 -5.6629,4.067 -8.3049,6.0479 l -22.5634,-3.5861 10.7808,11.3063 c -21.8895,19.246 -33.4678,40.0288 -33.0241,59.6143 0.089,3.9312 0.4505,7.7484 1.0512,11.4644 l -13.3873,4.1613 16.8033,9.3158 c 1.5447,4.4093 4.9687,18.3895 7.262,22.4829 l -17.0942,7.4683 20.4165,8.3746 -22.8655,12.8848 47.7986,-5.5899 c 0.6645,0.507 1.3475,1.0055 2.0265,1.5063 l -58.6019,27.2104 77.6315,-8.7728 -38.0811,28.7024 75.695,-15.306 -21.6152,18.6877 57.4818,-6.7056 4.3344,0.085 c 12.8393,3.8966 28.8168,4.0543 42.6752,7.5072 94.2545,6.752 209.3098,15.4716 308.928,1.8033 l 47.9899,16.7481 -19.7495,-21.0357 c 1.0536,-0.1797 7.0382,-1.1502 8.0774,-1.3313 l 49.8776,24.912 -9.901,-19.3244 48.3284,17.8019 -29.212,-33.5093 26.8224,10.3432 -18.3767,-16.9835 c 2.3078,-0.89 4.6074,-1.8256 6.8976,-2.805 l 25.0532,5.2686 -15.1643,-9.8142 c 3.8221,-1.8793 7.5863,-3.8738 11.2611,-5.9854 l 38.9798,8.738 -20.4453,-20.9781 c 2.2518,-1.7099 4.4435,-3.463 6.5529,-5.263 l 29.8797,0.929 -12.6743,-18.932 c 20.9907,-27.8172 22.4082,-62.1658 -19.6979,-96.3591 l -21.1589,-28.3435 -19.6861,2.5145 17.4732,-20.8976 -32.5464,9.7229 11.926,-23.9992 -35.0618,15.6406 z"
       id="path4040-0"
       sodipodi:nodetypes="ccccccccccccccccccccccccccccccccccccccccccccccccccccccccccccccccccc" />
    <path
       style="fill:#ffffff;fill-rule:evenodd;stroke:none;stroke-width:1px;stroke-linecap:butt;stroke-linejoin:miter;stroke-opacity:1"
       d="m 1731.8549,2318.594 120.8192,-66.2832 -29.5759,-16.5028 85.742,-43.3793 -33.6402,-26.9702 -85.496,68.298 33.0867,19.9442 z"
       id="path4667"
       inkscape:connector-curvature="0"
       sodipodi:nodetypes="cccccccc" />
    <path
       style="color:#000000;display:inline;overflow:visible;visibility:visible;fill:#ffffff;fill-opacity:1;fill-rule:nonzero;stroke:none;stroke-width:1px;marker:none;enable-background:accumulate"
       d="m 351.86277,3013.5705 c -3.83833,-24.6348 6.39721,-90.0708 85.0833,-84.6819 78.68602,5.3888 91.48056,36.1822 93.39969,45.4202 1.9192,9.2381 18.55201,61.5869 -42.86148,75.444 -61.41355,13.857 -116.42977,-0.7699 -135.62151,-36.1823 z"
       id="path3525-3"
       inkscape:connector-curvature="0" />
    <path
       style="color:#000000;display:inline;overflow:visible;visibility:visible;fill:#ffffff;fill-opacity:1;fill-rule:nonzero;stroke:none;stroke-width:1px;marker:none;enable-background:accumulate"
       d="m 409.6903,3080.207 c -5.6772,-23.6599 9.46198,-86.5065 125.845,-81.3308 116.38293,5.1755 135.30707,34.7504 138.14562,43.6228 2.83865,8.8725 27.43991,59.1498 -63.39556,72.4585 -90.83555,13.3087 -172.20894,-0.7394 -200.59506,-34.7505 z"
       id="path3525"
       inkscape:connector-curvature="0" />
    <path
       style="fill:#ffffff;stroke:none"
       d="m 776.83633,3175.8359 c -44.62498,5.3378 -48.87324,-16.857 -54.0967,-32.1561 -5.22349,-15.2991 -11.0824,-20.5456 -20.74361,-24.9442 -9.6612,-4.3986 -33.88162,-7.782 -44.47409,-6.2556 -10.5926,1.5264 -4.87351,-12.4886 -10.52472,-22.0949 -5.65131,-9.6062 -47.54922,-52.2623 -47.54922,-52.2623 0,0 3.4134,45.1382 8.94731,58.4623 5.5339,13.3241 7.48813,18.2238 11.18512,22.9303 3.69708,4.7066 14.53763,14.9729 25.78771,16.1963 11.25004,1.2234 22.42429,-3.0138 31.13833,-3.9792 8.71399,-0.9656 20.03664,6.8038 26.52017,17.5528 6.48353,10.749 24.88779,32.9147 43.24472,32.9979 18.35692,0.083 30.56498,-6.4473 30.56498,-6.4473 z"
       id="path3023"
       inkscape:connector-curvature="0"
       sodipodi:nodetypes="csssscssssssc" />
    <path
       style="color:#000000;display:inline;overflow:visible;visibility:visible;fill:#ffffff;fill-opacity:1;fill-rule:nonzero;stroke:none;stroke-width:1px;marker:none;enable-background:accumulate"
       d="m 1818.9778,3152.8047 c 27.7527,-29.8891 260.5837,-59.8498 341.9391,3.4422 81.3555,63.292 31.2828,137.4339 -15.7807,160.6431 -47.0632,23.2095 -185.2806,47.568 -248.1422,26.4105 -62.8619,-21.1575 -111.7332,-52.2317 -114.5339,-114.6677 -1.1431,-25.4825 8.7647,-45.9386 36.5177,-75.8281 z"
       id="path4040"
       inkscape:connector-curvature="0"
       sodipodi:nodetypes="zssssz" />
    <path
       style="fill:#ffffff;stroke:none"
       d="m 1793.2098,3259.0845 c -28.7477,21.3713 -48.9321,0.5936 -66.1006,0.6993 -17.1685,0.1058 -34.6307,29.0733 -44.0708,33.857 -9.363,3.7909 -22.9631,-0.7489 -45.2644,-13.4008 36.8449,37.5971 46.7017,28.1197 55.3791,24.5656 11.9288,-4.8858 18.0056,-23.3478 33.4687,-20.4624 14.978,2.7947 62.9102,19.4669 85.0019,10.1395 22.0918,-9.3272 25.641,-6.4328 25.641,-6.4328 z"
       id="path3282"
       inkscape:connector-curvature="0"
       sodipodi:nodetypes="csccssscc" />
  </g>
  <g
     inkscape:groupmode="layer"
     id="layer1"
     inkscape:label="txt">
    <text
       xml:space="preserve"
       style="font-style:normal;font-variant:normal;font-weight:normal;font-stretch:normal;font-size:12px;line-height:125%;font-family:Lavi;-inkscape-font-specification:Lavi;text-align:center;letter-spacing:0px;word-spacing:0px;text-anchor:middle;fill:#000000;fill-opacity:1;stroke:none"
       x="434.37378"
       y="212.50937"
       id="text4246-3-3-2"
       sodipodi:linespacing="125%"><tspan
         sodipodi:role="line"
         style="font-size:45px"
         x="434.37378"
         y="212.50937"
         id="tspan3752">Mindannyiunknak</tspan><tspan
         sodipodi:role="line"
         style="font-size:45px"
         x="434.37378"
         y="268.75937"
         id="tspan4198">megvoltak a tévedései.</tspan></text>
    <text
       xml:space="preserve"
       style="font-style:normal;font-variant:normal;font-weight:normal;font-stretch:normal;font-size:12px;line-height:125%;font-family:Lavi;-inkscape-font-specification:Lavi;text-align:center;letter-spacing:0px;word-spacing:0px;text-anchor:middle;fill:#000000;fill-opacity:1;stroke:none"
       x="566.86279"
       y="369.82779"
       id="text4246-3-3-2-3"
       sodipodi:linespacing="125%"><tspan
         sodipodi:role="line"
         style="font-size:45px"
         x="566.86279"
         y="369.82779"
         id="tspan4173">Már nem az a Cayenne</tspan><tspan
         sodipodi:role="line"
         style="font-size:45px"
         x="566.86279"
         y="426.07779"
         id="tspan4202">vagyok, aki ezt írta.</tspan></text>
    <text
       xml:space="preserve"
       style="font-style:normal;font-variant:normal;font-weight:normal;font-stretch:normal;font-size:12px;line-height:125%;font-family:Lavi;-inkscape-font-specification:Lavi;text-align:center;letter-spacing:0px;word-spacing:0px;text-anchor:middle;fill:#000000;fill-opacity:1;stroke:none"
       x="2039.3848"
       y="516.67371"
       id="text4246-3-3-2-3-5"
       sodipodi:linespacing="125%"><tspan
         sodipodi:role="line"
         style="font-size:45px"
         x="2039.3848"
         y="516.67371"
         id="tspan3742">A naplót nagyon</tspan><tspan
         sodipodi:role="line"
         style="font-size:45px"
         x="2039.3848"
         y="572.92371"
         id="tspan4209">jó okkal ástam el.</tspan></text>
    <text
       xml:space="preserve"
       style="font-style:normal;font-variant:normal;font-weight:normal;font-stretch:normal;font-size:12px;line-height:125%;font-family:Lavi;-inkscape-font-specification:Lavi;text-align:center;letter-spacing:0px;word-spacing:0px;text-anchor:middle;fill:#000000;fill-opacity:1;stroke:none"
       x="649.6814"
       y="918.87958"
       id="text4246-3-3-2-3-5-6"
       sodipodi:linespacing="125%"><tspan
         sodipodi:role="line"
         style="font-size:45px"
         x="649.6814"
         y="918.87958"
         id="tspan4208-1">...</tspan></text>
    <text
       xml:space="preserve"
       style="font-style:normal;font-variant:normal;font-weight:normal;font-stretch:normal;font-size:12px;line-height:125%;font-family:Lavi;-inkscape-font-specification:Lavi;text-align:center;letter-spacing:0px;word-spacing:0px;text-anchor:middle;fill:#000000;fill-opacity:1;stroke:none"
       x="1030.2921"
       y="922.67383"
       id="text4246-3-3-2-3-5-6-2"
       sodipodi:linespacing="125%"><tspan
         sodipodi:role="line"
         style="font-size:45px"
         x="1030.2921"
         y="922.67383"
         id="tspan4208-1-7">Oké!</tspan></text>
    <text
       xml:space="preserve"
       style="font-style:normal;font-variant:normal;font-weight:normal;font-stretch:normal;font-size:12px;line-height:125%;font-family:Lavi;-inkscape-font-specification:Lavi;text-align:center;letter-spacing:0px;word-spacing:0px;text-anchor:middle;fill:#000000;fill-opacity:1;stroke:none"
       x="1187.8596"
       y="1007.8734"
       id="text4246-3-3-2-3-5-6-2-0"
       sodipodi:linespacing="125%"><tspan
         sodipodi:role="line"
         style="font-size:45px"
         x="1187.8596"
         y="1007.8734"
         id="tspan3735">És erre</tspan><tspan
         sodipodi:role="line"
         style="font-size:45px"
         x="1187.8596"
         y="1064.1234"
         id="tspan4213">mit mondtok?</tspan></text>
    <text
       sodipodi:linespacing="125%"
       id="text4178-6-5-9-0-7-0-4"
       style="font-style:normal;font-variant:normal;font-weight:normal;font-stretch:normal;font-size:9.76241112px;line-height:125%;font-family:Lavi;-inkscape-font-specification:Lavi;text-align:center;letter-spacing:0px;word-spacing:0px;text-anchor:middle;opacity:0.64099995;fill:#241c1c;fill-opacity:1;stroke:none;filter:url(#filter4436)"
       xml:space="preserve"
       y="3129.8394"
       x="1318.7137"
       transform="matrix(0.68323005,-0.18026525,0.27547669,0.60843919,-261.43744,-182.58505)"><tspan
         y="3129.8394"
         x="1318.7137"
         style="font-style:normal;font-variant:normal;font-weight:normal;font-stretch:normal;font-size:40.67671585px;font-family:Fondamento;-inkscape-font-specification:Fondamento;fill:#241c1c;fill-opacity:1"
         sodipodi:role="line"
         id="tspan4293-1-6-3-5-0-2">KÁOSZAH</tspan><tspan
         y="3180.6853"
         x="1318.7137"
         style="font-style:normal;font-variant:normal;font-weight:normal;font-stretch:normal;font-size:40.67671585px;font-family:Fondamento;-inkscape-font-specification:Fondamento;fill:#241c1c;fill-opacity:1"
         sodipodi:role="line"
         id="tspan4422">SZÚTRA</tspan><tspan
         y="3223.7019"
         x="1318.7137"
         style="font-style:normal;font-variant:normal;font-weight:normal;font-stretch:normal;font-size:32.06008911px;font-family:Fondamento;-inkscape-font-specification:Fondamento;fill:#241c1c;fill-opacity:1"
         sodipodi:role="line"
         id="tspan4426">írta:</tspan><tspan
         y="3263.7771"
         x="1318.7137"
         style="font-style:normal;font-variant:normal;font-weight:normal;font-stretch:normal;font-size:32.06008911px;font-family:Fondamento;-inkscape-font-specification:Fondamento;fill:#241c1c;fill-opacity:1"
         sodipodi:role="line"
         id="tspan4430">Kakukkfű</tspan></text>
    <text
       xml:space="preserve"
       style="font-style:normal;font-variant:normal;font-weight:normal;font-stretch:normal;font-size:12px;line-height:125%;font-family:Lavi;-inkscape-font-specification:Lavi;text-align:center;letter-spacing:0px;word-spacing:0px;text-anchor:middle;fill:#000000;fill-opacity:1;stroke:none"
       x="2108.282"
       y="2046.4531"
       id="text4246-3-3-2-3-5-6-2-0-3"
       sodipodi:linespacing="125%"><tspan
         sodipodi:role="line"
         style="font-size:45px"
         x="2108.282"
         y="2046.4531"
         id="tspan3721">Egyszerűen egy fiatalkori</tspan><tspan
         sodipodi:role="line"
         style="font-size:45px"
         x="2108.282"
         y="2102.7031"
         id="tspan4224">botlásom volt, és amúgy sem</tspan><tspan
         sodipodi:role="line"
         style="font-size:45px"
         x="2108.282"
         y="2158.9531"
         id="tspan4226">illik még a korodhoz!</tspan></text>
    <use
       x="0"
       y="0"
       xlink:href="#text4178-6-5-9-0-7-0-4"
       id="use4440"
       transform="matrix(1.7191858,0.78546962,-0.89078499,2.0163672,807.20751,-1621.7765)"
       width="100%"
       height="100%" />
    <text
       xml:space="preserve"
       style="font-size:12px;font-style:normal;font-variant:normal;font-weight:normal;font-stretch:normal;text-align:center;line-height:125%;letter-spacing:0px;word-spacing:0px;text-anchor:middle;fill:#000000;fill-opacity:1;stroke:none;font-family:Lavi;-inkscape-font-specification:Lavi"
       x="448.74265"
       y="3004.217"
       id="text4246-3-3-2-3-5-6-2-0-3-6"
       sodipodi:linespacing="125%"><tspan
         sodipodi:role="line"
         style="font-size:45px"
         x="448.74265"
         y="3004.217"
         id="tspan4328-8">Hmm...</tspan></text>
    <text
       xml:space="preserve"
       style="font-style:normal;font-variant:normal;font-weight:normal;font-stretch:normal;font-size:12px;line-height:125%;font-family:Lavi;-inkscape-font-specification:Lavi;text-align:center;letter-spacing:0px;word-spacing:0px;text-anchor:middle;fill:#000000;fill-opacity:1;stroke:none"
       x="553.45013"
       y="3073.6917"
       id="text4246-3-3-2-3-5-6-2-0-3-6-7"
       sodipodi:linespacing="125%"><tspan
         sodipodi:role="line"
         style="font-size:45px"
         x="553.45013"
         y="3073.6917"
         id="tspan4328-8-9">Értem...</tspan></text>
    <text
       xml:space="preserve"
       style="font-style:normal;font-variant:normal;font-weight:normal;font-stretch:normal;font-size:12px;line-height:125%;font-family:Lavi;-inkscape-font-specification:Lavi;text-align:center;letter-spacing:0px;word-spacing:0px;text-anchor:middle;fill:#000000;fill-opacity:1;stroke:none"
       x="1997.0325"
       y="3199.3425"
       id="text4246-3-3-2-3-5-6-2-0-3-6-7-2"
       sodipodi:linespacing="125%"><tspan
         sodipodi:role="line"
         style="font-size:45px"
         x="1997.0325"
         y="3199.3425"
         id="tspan3702">Ti tényleg nem</tspan><tspan
         sodipodi:role="line"
         style="font-size:45px"
         x="1997.0325"
         y="3255.5925"
         id="tspan4233">jöttök zavarba</tspan><tspan
         sodipodi:role="line"
         style="font-size:45px"
         x="1997.0325"
         y="3311.8425"
         id="tspan4235">tőlük...</tspan></text>
  </g>
</svg>
