<?xml version="1.0" encoding="UTF-8" standalone="no"?>
<!-- Created with Inkscape (http://www.inkscape.org/) -->

<svg
   xmlns:dc="http://purl.org/dc/elements/1.1/"
   xmlns:cc="http://creativecommons.org/ns#"
   xmlns:rdf="http://www.w3.org/1999/02/22-rdf-syntax-ns#"
   xmlns:svg="http://www.w3.org/2000/svg"
   xmlns="http://www.w3.org/2000/svg"
   xmlns:xlink="http://www.w3.org/1999/xlink"
   xmlns:sodipodi="http://sodipodi.sourceforge.net/DTD/sodipodi-0.dtd"
   xmlns:inkscape="http://www.inkscape.org/namespaces/inkscape"
   id="svg2"
   version="1.1"
   inkscape:version="0.48.5 r10040"
   width="2481"
   height="3503"
   sodipodi:docname="Pepper-and-Carrot_by-David-Revoy_E19P05.svg">
  <metadata
     id="metadata8">
    <rdf:RDF>
      <cc:Work
         rdf:about="">
        <dc:format>image/svg+xml</dc:format>
        <dc:type
           rdf:resource="http://purl.org/dc/dcmitype/StillImage" />
        <dc:title />
      </cc:Work>
    </rdf:RDF>
  </metadata>
  <defs
     id="defs6">
    <filter
       inkscape:collect="always"
       style="color-interpolation-filters:sRGB"
       id="filter4436"
       x="-0.009420248"
       width="1.0188405"
       y="-0.0097332714"
       height="1.0194665">
      <feGaussianBlur
         inkscape:collect="always"
         stdDeviation="0.80032609"
         id="feGaussianBlur4438" />
    </filter>
    <filter
       style="color-interpolation-filters:sRGB"
       id="filter4375-4-1-1-1-9"
       inkscape:label="deevad outline effect">
      <feFlood
         id="feFlood4377-7-9-0-8-1"
         flood-opacity="1"
         flood-color="rgb(0,0,0)"
         result="flood" />
      <feComposite
         id="feComposite4379-3-8-8-2-77"
         in2="SourceGraphic"
         in="flood"
         operator="in"
         result="composite1" />
      <feMorphology
         id="feMorphology4393-1-0-49-8-9"
         operator="dilate"
         radius="4"
         result="result3" />
      <feComposite
         id="feComposite4385-9-5-7-0-8"
         in2="result3"
         in="SourceGraphic"
         operator="over"
         result="composite2" />
    </filter>
  </defs>
  <sodipodi:namedview
     pagecolor="#ffffff"
     bordercolor="#666666"
     borderopacity="1"
     objecttolerance="10"
     gridtolerance="10"
     guidetolerance="10"
     inkscape:pageopacity="0"
     inkscape:pageshadow="2"
     inkscape:window-width="1680"
     inkscape:window-height="959"
     id="namedview4"
     showgrid="false"
     inkscape:zoom="0.38212572"
     inkscape:cx="1368.4892"
     inkscape:cy="661.9581"
     inkscape:window-x="0"
     inkscape:window-y="1"
     inkscape:window-maximized="1"
     inkscape:current-layer="layer1" />
  <g
     inkscape:groupmode="layer"
     id="layer2"
     inkscape:label="artwork"
     sodipodi:insensitive="true">
    <image
       sodipodi:absref="/Users/gand/Documents/Pepper&amp;Carrot/peppercarrot_ep19_translation/it/../gfx_Pepper-and-Carrot_by-David-Revoy_E19P05.png"
       xlink:href="../gfx_Pepper-and-Carrot_by-David-Revoy_E19P05.png"
       y="0"
       x="0"
       id="image10"
       height="3503"
       width="2481" />
  </g>
  <g
     inkscape:groupmode="layer"
     id="layer3"
     inkscape:label="speechbubbles">
    <path
       style="color:#000000;display:inline;overflow:visible;visibility:visible;fill:#ffffff;fill-opacity:1;fill-rule:nonzero;stroke:none;stroke-width:1px;marker:none;enable-background:accumulate"
       d="m 204.4944,224.99712 c 7.1565,-54.27296 78.96402,-94.01413 262.83667,-83.89742 98.49209,5.41901 210.39734,8.94936 201.0579,88.45484 -9.33954,79.50539 -170.26365,77.54326 -203.54362,79.41926 -33.27998,1.8761 -206.15118,-6.37328 -235.72838,-33.40164 -18.51463,-16.91902 -25.59516,-33.76705 -24.62257,-50.57504 z"
       id="path4546"
       inkscape:connector-curvature="0"
       sodipodi:nodetypes="cssssc" />
    <path
       style="color:#000000;fill:#ffffff;fill-opacity:1;fill-rule:nonzero;stroke:none;stroke-width:1px;marker:none;visibility:visible;display:inline;overflow:visible;filter:url(#filter4386);enable-background:accumulate"
       d="m 272.20907,385.66437 c 4.40544,-79.3972 116.59977,-85.14248 157.20172,-86.5389 20.04168,0.41185 135.26811,-7.24086 232.80969,-2.9513 97.54156,4.28955 178.16619,15.4596 183.45147,73.35458 9.12326,99.93596 -61.79922,83.07509 -147.13102,90.67587 -85.33176,7.60079 -184.02189,1.28162 -229.38293,2.50383 -89.46399,2.4105 -203.55353,6.93985 -196.94893,-77.04408 z"
       id="path3145"
       inkscape:connector-curvature="0"
       sodipodi:nodetypes="ccssssc" />
    <path
       style="color:#000000;display:inline;overflow:visible;visibility:visible;fill:#ffffff;fill-opacity:1;fill-rule:nonzero;stroke:none;stroke-width:1px;marker:none;enable-background:accumulate"
       d="m 446.27152,300.25044 c 18.72085,42.63412 151.10363,129.12034 165.81283,143.73771 14.70919,14.61736 73.7025,51.80706 97.77206,55.46145 24.06968,3.65429 34.61383,-5.53274 55.60142,-7.98778 12.78199,-1.49519 17.18619,22.92918 50.77997,17.07051 -42.14888,-6.98958 -22.50416,-29.88571 -64.91129,-24.54594 -12.88206,1.62207 -29.12682,8.03372 -50.16944,-3.7592 -55.77193,-31.25628 -135.87479,-117.85288 -157.27,-121.50717 -21.39521,-3.6544 -71.63519,-52.34757 -71.63519,-68.18304 0,-15.83557 -25.98036,9.71346 -25.98036,9.71346 z"
       id="path4562"
       inkscape:connector-curvature="0"
       sodipodi:nodetypes="cssscssssc" />
    <path
       style="color:#000000;fill:#ffffff;fill-opacity:1;fill-rule:nonzero;stroke:none;stroke-width:1px;marker:none;visibility:visible;display:inline;overflow:visible;enable-background:accumulate"
       d="m 1800.0182,512.78858 c 8.6961,-70.18454 52.6918,-96.39369 192.5135,-92.53363 179.6117,4.95855 277.4898,-14.93951 279.3615,117.19841 1.4649,103.41361 -185.9401,95.22276 -219.2755,96.43283 -33.3353,1.2102 -207.7791,-4.98525 -233.0008,-40.32102 -16.7589,-23.47955 -21.0482,-58.99509 -19.5987,-80.77659 z"
       id="path4546-6"
       inkscape:connector-curvature="0"
       sodipodi:nodetypes="cssssc" />
    <path
       style="color:#000000;display:inline;overflow:visible;visibility:visible;fill:#ffffff;fill-opacity:1;fill-rule:nonzero;stroke:none;stroke-width:1px;marker:none;enable-background:accumulate"
       d="m 1701.8598,502.58041 c 34.2355,-19.71173 54.3987,3.34417 62.5308,8.32687 8.132,4.9827 37.4163,23.21994 64.0425,5.43127 26.6264,-17.78869 62.8269,-3.31025 62.8269,-3.31025 l -39.1174,27.48072 c 0,0 -38.4369,7.20044 -59.7592,-0.984 -21.3223,-8.18441 -44.9876,-30.85789 -56.2316,-33.04337 -11.2438,-2.1855 -22.2733,-7.94404 -34.292,-3.90124 z"
       id="path4018"
       inkscape:connector-curvature="0" />
    <path
       style="fill:#ffffff;fill-rule:evenodd;stroke:none;stroke-width:1px;stroke-linecap:butt;stroke-linejoin:miter;stroke-opacity:1"
       d="m 588.40376,914.65231 c 3.19663,-13.63689 11.80483,-23.98359 21.17352,-30.89066 4.45851,-3.33465 9.55466,-5.77835 14.76954,-5.13556 5.18067,0.38408 10.24092,2.67713 15.47891,1.88067 6.36924,-0.26307 12.85031,-1.41081 19.14642,0.2292 5.59702,1.78949 11.36355,2.71628 17.13927,2.77002 4.07461,-1.13586 7.80313,1.89157 11.44199,3.70231 3.26677,1.95593 6.60351,4.00801 9.3474,7.03352 2.52795,4.24716 5.55485,7.9421 8.11232,12.15145 1.67342,2.30123 1.51263,5.47984 1.43554,8.42157 -0.21734,6.02406 -0.58538,12.14319 -1.95147,17.94685 -0.81749,3.68454 -3.8391,4.90391 -6.16085,6.59704 -5.49361,3.57416 -11.32711,6.28455 -16.57007,10.49061 -5.19427,2.15366 -10.71435,1.1463 -16.04131,0.82083 -4.46364,-0.64109 -8.95383,-1.53507 -13.45583,-0.78954 -5.72997,0.54557 -11.44255,1.95821 -17.19303,1.77726 -7.20377,-1.24165 -14.10302,-4.29889 -21.08408,-6.75135 -6.26328,-2.16161 -11.97173,-6.2263 -17.44914,-10.57451 -2.92584,-2.46919 -6.02317,-5.33924 -7.05575,-9.88965 -0.84645,-3.13334 -1.04589,-6.48839 -1.08338,-9.79006 z"
       id="path4365"
       inkscape:connector-curvature="0" />
    <path
       style="fill:#ffffff;stroke:none"
       d="m 585.80257,1016.9897 c 25.0585,-22.43253 22.34002,-27.88279 18.28192,-33.62356 -4.05789,-5.74087 -9.0117,-10.26487 -5.47683,-15.76954 3.53471,-5.50448 11.83641,-12.20928 18.64507,-16.88605 6.80865,-4.67676 -0.15106,-6.98609 -1.33267,-11.71084 -1.18153,-4.72486 8.47495,-35.26533 8.47495,-35.26533 0,0 18.8861,11.27031 21.85273,16.73523 2.96681,5.46474 4.10423,7.43623 4.14842,10.18949 0.044,2.75343 -1.45956,10.07055 -7.37678,15.64632 -5.91727,5.57568 -12.97777,12.61891 -18.44474,16.52839 -5.46711,3.90944 -14.50851,8.27169 -13.27858,13.63411 1.23003,5.36237 10.23798,8.00805 0.82597,18.96164 -8.0678,9.38924 -26.31946,21.56014 -26.31946,21.56014 z"
       id="path3023-2"
       inkscape:connector-curvature="0"
       sodipodi:nodetypes="csssscssssssc" />
    <path
       style="fill:#ffffff;stroke:none"
       d="m 888.58821,888.38152 c -0.77032,-16.47336 24.08975,-62.04816 130.64059,-56.80467 106.5507,5.24349 139.432,24.00836 141.7587,53.30904 3.6811,46.35286 -52.757,57.58421 -133.4061,59.38885 -83.14049,1.86043 -134.4463,-14.22681 -138.99319,-55.89322 z"
       id="path3280"
       inkscape:connector-curvature="0"
       sodipodi:nodetypes="csssc" />
    <path
       style="color:#000000;fill:#ffffff;fill-opacity:1;fill-rule:nonzero;stroke:none;stroke-width:1px;marker:none;visibility:visible;display:inline;overflow:visible;enable-background:accumulate"
       d="m 1196.1429,933.80067 c 79.0918,1.36224 161.3429,9.65172 182.3162,26.72055 42.4944,34.58352 22.9634,95.87308 -22.5294,115.08958 -45.4927,19.2165 -192.6345,25.4977 -255.6909,18.4192 -57.5861,-6.4645 -110.68941,-25.0974 -115.5521,-80.5274 13.00851,-97.1729 151.9872,-80.57244 211.4562,-79.70193 z"
       id="path4040-6"
       inkscape:connector-curvature="0"
       sodipodi:nodetypes="cssscc" />
    <path
       style="color:#000000;display:inline;overflow:visible;visibility:visible;fill:#ffffff;fill-opacity:1;fill-rule:nonzero;stroke:none;stroke-width:1px;marker:none;enable-background:accumulate"
       d="m 1290.3321,1173.7871 c 19.4758,-56.0536 -15.5086,-73.6442 -35.8993,-79.8259 -46.2488,-14.0212 -31.454,-39.2745 -31.454,-39.2745 l 33.7545,-1.1746 c 0,0 85.1517,57.8008 33.5988,120.275 z"
       id="path3072"
       inkscape:connector-curvature="0"
       sodipodi:nodetypes="csccc" />
    <path
       inkscape:connector-curvature="0"
       style="color:#000000;fill:#ffffff;fill-opacity:1;fill-rule:nonzero;stroke:none;stroke-width:1px;marker:none;visibility:visible;display:inline;overflow:visible;enable-background:accumulate"
       d="m 2318.1535,1926.0728 -52.5404,46.7573 -0.8284,-15.9101 -17.1883,11.4352 c -69.8534,-18.8111 -159.6099,-19.8416 -230.1637,-12.0624 l -19.1389,-12.0205 -3.3704,14.8906 c -3.2207,0.4699 -6.4067,0.9525 -9.5104,1.459 l -20.7177,-14.7718 2.0076,18.1893 c -0.3873,0.079 -0.7682,0.1585 -1.1528,0.2379 l -28.871,-16.5815 4.6421,22.4821 c -1.3902,0.4002 -2.7515,0.8036 -4.079,1.2121 l -36.5,-34.9229 13.6933,43.9946 c -2.268,1.2349 -4.2324,2.4877 -5.9101,3.7556 l -21.957,-14.4911 11.7762,24.6153 c -2.2273,2.4021 -4.3346,4.7525 -6.3567,7.0672 l -17.2706,-4.1905 8.2519,13.2118 c -16.7548,22.4896 -25.6171,46.7749 -25.2774,69.6612 0.068,4.5938 0.3448,9.0543 0.8046,13.3965 l -10.247,4.8626 12.8617,10.8858 c 1.1823,5.1525 3.8032,21.4888 5.5584,26.272 l -13.0842,8.727 15.6272,9.7859 -17.5017,15.0563 36.5861,-6.5319 c 0.5086,0.5924 1.0314,1.1749 1.5511,1.7601 l -44.8552,31.7963 59.4209,-10.2514 -29.1482,33.5397 57.9387,-17.8855 -16.5447,21.8371 43.9977,-7.8357 3.3178,0.099 c 9.8275,4.5533 22.057,4.7376 32.6646,8.7724 72.1445,7.8899 160.2104,18.0791 236.4604,2.1072 l 36.7325,19.5707 -15.1167,-24.5809 c 0.8065,-0.21 5.3873,-1.344 6.1826,-1.5557 l 38.1775,29.1105 -7.5785,-22.5811 36.9917,20.802 -22.3596,-39.1567 20.5304,12.0864 -14.0657,-19.8457 c 1.7664,-1.04 3.5265,-2.1333 5.2795,-3.2778 l 19.1762,6.1566 -11.6071,-11.4682 c 2.9256,-2.1961 5.8068,-4.5267 8.6195,-6.9942 l 29.8361,10.2106 -15.6494,-24.5135 c 1.7236,-1.9981 3.4012,-4.0467 5.0158,-6.15 l 22.8706,1.0855 -9.7013,-22.1226 c 16.0669,-32.5053 17.1519,-72.6427 -15.0771,-112.5987 l -16.1956,-33.1202 -15.0681,2.9383 13.3743,-24.4196 -24.9117,11.3616 9.1286,-28.0439 -26.8373,18.2766 z"
       id="path4040-0"
       sodipodi:nodetypes="ccccccccccccccccccccccccccccccccccccccccccccccccccccccccccccccccccc" />
    <path
       style="fill:#ffffff;fill-rule:evenodd;stroke:none;stroke-width:1px;stroke-linecap:butt;stroke-linejoin:miter;stroke-opacity:1"
       d="m 1731.8549,2318.594 120.8192,-66.2832 -29.5759,-16.5028 85.742,-43.3793 -33.6402,-26.9702 -85.496,68.298 33.0867,19.9442 z"
       id="path4667"
       inkscape:connector-curvature="0"
       sodipodi:nodetypes="cccccccc" />
    <path
       style="color:#000000;display:inline;overflow:visible;visibility:visible;fill:#ffffff;fill-opacity:1;fill-rule:nonzero;stroke:none;stroke-width:1px;marker:none;enable-background:accumulate"
       d="m 351.86277,3013.5705 c -3.83833,-24.6348 6.39721,-90.0708 85.0833,-84.6819 78.68602,5.3888 91.48056,36.1822 93.39969,45.4202 1.9192,9.2381 18.55201,61.5869 -42.86148,75.444 -61.41355,13.857 -116.42977,-0.7699 -135.62151,-36.1823 z"
       id="path3525-3"
       inkscape:connector-curvature="0" />
    <path
       style="color:#000000;display:inline;overflow:visible;visibility:visible;fill:#ffffff;fill-opacity:1;fill-rule:nonzero;stroke:none;stroke-width:1px;marker:none;enable-background:accumulate"
       d="m 409.6903,3080.207 c -5.6772,-23.6599 9.46198,-86.5065 125.845,-81.3308 116.38293,5.1755 135.30707,34.7504 138.14562,43.6228 2.83865,8.8725 27.43991,59.1498 -63.39556,72.4585 -90.83555,13.3087 -172.20894,-0.7394 -200.59506,-34.7505 z"
       id="path3525"
       inkscape:connector-curvature="0" />
    <path
       style="fill:#ffffff;stroke:none"
       d="m 776.83633,3175.8359 c -44.62498,5.3378 -48.87324,-16.857 -54.0967,-32.1561 -5.22349,-15.2991 -11.0824,-20.5456 -20.74361,-24.9442 -9.6612,-4.3986 -33.88162,-7.782 -44.47409,-6.2556 -10.5926,1.5264 -4.87351,-12.4886 -10.52472,-22.0949 -5.65131,-9.6062 -47.54922,-52.2623 -47.54922,-52.2623 0,0 3.4134,45.1382 8.94731,58.4623 5.5339,13.3241 7.48813,18.2238 11.18512,22.9303 3.69708,4.7066 14.53763,14.9729 25.78771,16.1963 11.25004,1.2234 22.42429,-3.0138 31.13833,-3.9792 8.71399,-0.9656 20.03664,6.8038 26.52017,17.5528 6.48353,10.749 24.88779,32.9147 43.24472,32.9979 18.35692,0.083 30.56498,-6.4473 30.56498,-6.4473 z"
       id="path3023"
       inkscape:connector-curvature="0"
       sodipodi:nodetypes="csssscssssssc" />
    <path
       style="color:#000000;display:inline;overflow:visible;visibility:visible;fill:#ffffff;fill-opacity:1;fill-rule:nonzero;stroke:none;stroke-width:1px;marker:none;enable-background:accumulate"
       d="m 1811.2966,3170.2116 c 33.1167,-27.2694 310.9484,-54.6041 408.0279,3.1405 97.0796,57.7445 37.329,125.3879 -18.8307,146.5629 -56.1594,21.1752 -221.091,43.3987 -296.1023,24.0956 -75.0116,-19.3031 -133.3286,-47.6536 -136.6706,-104.6172 -1.364,-23.249 10.4588,-41.9121 43.5757,-69.1818 z"
       id="path4040"
       inkscape:connector-curvature="0"
       sodipodi:nodetypes="zssssz" />
    <path
       style="fill:#ffffff;stroke:none"
       d="m 1793.2098,3259.0845 c -28.7477,21.3713 -48.9321,0.5936 -66.1006,0.6993 -17.1685,0.1058 -34.6307,29.0733 -44.0708,33.857 -9.363,3.7909 -22.9631,-0.7489 -45.2644,-13.4008 36.8449,37.5971 46.7017,28.1197 55.3791,24.5656 11.9288,-4.8858 18.0056,-23.3478 33.4687,-20.4624 14.978,2.7947 62.9102,19.4669 85.0019,10.1395 22.0918,-9.3272 25.641,-6.4328 25.641,-6.4328 z"
       id="path3282"
       inkscape:connector-curvature="0"
       sodipodi:nodetypes="csccssscc" />
  </g>
  <g
     inkscape:groupmode="layer"
     id="layer1"
     inkscape:label="txt">
    <text
       xml:space="preserve"
       style="font-size:12px;font-style:normal;font-variant:normal;font-weight:normal;font-stretch:normal;text-align:center;line-height:125%;letter-spacing:0px;word-spacing:0px;text-anchor:middle;fill:#000000;fill-opacity:1;stroke:none;font-family:Lavi;-inkscape-font-specification:Lavi"
       x="434.37378"
       y="212.50937"
       id="text4246-3-3-2"
       sodipodi:linespacing="125%"><tspan
         sodipodi:role="line"
         style="font-size:45px"
         x="434.37378"
         y="212.50937"
         id="tspan3752">Tutti abbiamo avuto</tspan><tspan
         sodipodi:role="line"
         style="font-size:45px"
         x="434.37378"
         y="268.75937"
         id="tspan3099">i nostri fallimenti.</tspan></text>
    <text
       xml:space="preserve"
       style="font-size:12px;font-style:normal;font-variant:normal;font-weight:normal;font-stretch:normal;text-align:center;line-height:125%;letter-spacing:0px;word-spacing:0px;text-anchor:middle;fill:#000000;fill-opacity:1;stroke:none;font-family:Lavi;-inkscape-font-specification:Lavi"
       x="566.86279"
       y="369.82779"
       id="text4246-3-3-2-3"
       sodipodi:linespacing="125%"><tspan
         sodipodi:role="line"
         style="font-size:45px"
         x="566.86279"
         y="369.82779"
         id="tspan4173">Non sono più la Cayenne</tspan><tspan
         sodipodi:role="line"
         style="font-size:45px"
         x="566.86279"
         y="426.07779"
         id="tspan3103">che aveva scritto quello.</tspan></text>
    <text
       xml:space="preserve"
       style="font-size:12px;font-style:normal;font-variant:normal;font-weight:normal;font-stretch:normal;text-align:center;line-height:125%;letter-spacing:0px;word-spacing:0px;text-anchor:middle;fill:#000000;fill-opacity:1;stroke:none;font-family:Lavi;-inkscape-font-specification:Lavi"
       x="2039.3848"
       y="482.67374"
       id="text4246-3-3-2-3-5"
       sodipodi:linespacing="125%"><tspan
         sodipodi:role="line"
         style="font-size:45px"
         x="2039.3848"
         y="482.67374"
         id="tspan3744">Quel diario è stato</tspan><tspan
         sodipodi:role="line"
         style="font-size:45px"
         x="2039.3848"
         y="538.92371"
         id="tspan3748">seppellito per un</tspan><tspan
         sodipodi:role="line"
         style="font-size:45px"
         x="2039.3848"
         y="595.17371"
         id="tspan3742">motivo ben preciso.</tspan></text>
    <text
       xml:space="preserve"
       style="font-style:normal;font-variant:normal;font-weight:normal;font-stretch:normal;font-size:12px;line-height:125%;font-family:Lavi;-inkscape-font-specification:Lavi;text-align:center;letter-spacing:0px;word-spacing:0px;text-anchor:middle;fill:#000000;fill-opacity:1;stroke:none"
       x="649.6814"
       y="918.87958"
       id="text4246-3-3-2-3-5-6"
       sodipodi:linespacing="125%"><tspan
         sodipodi:role="line"
         style="font-size:45px"
         x="649.6814"
         y="918.87958"
         id="tspan4208-1">...</tspan></text>
    <text
       xml:space="preserve"
       style="font-size:12px;font-style:normal;font-variant:normal;font-weight:normal;font-stretch:normal;text-align:center;line-height:125%;letter-spacing:0px;word-spacing:0px;text-anchor:middle;fill:#000000;fill-opacity:1;stroke:none;font-family:Lavi;-inkscape-font-specification:Lavi"
       x="1020.2921"
       y="900.67383"
       id="text4246-3-3-2-3-5-6-2"
       sodipodi:linespacing="125%"><tspan
         sodipodi:role="line"
         style="font-size:45px"
         x="1020.2921"
         y="900.67383"
         id="tspan4208-1-7">D'accordo!</tspan></text>
    <text
       xml:space="preserve"
       style="font-size:12px;font-style:normal;font-variant:normal;font-weight:normal;font-stretch:normal;text-align:center;line-height:125%;letter-spacing:0px;word-spacing:0px;text-anchor:middle;fill:#000000;fill-opacity:1;stroke:none;font-family:Lavi;-inkscape-font-specification:Lavi"
       x="1187.8596"
       y="1007.8734"
       id="text4246-3-3-2-3-5-6-2-0"
       sodipodi:linespacing="125%"><tspan
         sodipodi:role="line"
         style="font-size:45px"
         x="1187.8596"
         y="1007.8734"
         id="tspan3735">Ma cosa ne dite</tspan><tspan
         sodipodi:role="line"
         style="font-size:45px"
         x="1187.8596"
         y="1064.1234"
         id="tspan3115">di questo?</tspan></text>
    <text
       sodipodi:linespacing="125%"
       id="text4178-6-5-9-0-7-0-4"
       style="font-size:9.76241112px;font-style:normal;font-variant:normal;font-weight:normal;font-stretch:normal;text-align:center;line-height:125%;letter-spacing:0px;word-spacing:0px;text-anchor:middle;opacity:0.64099995;fill:#241c1c;fill-opacity:1;stroke:none;filter:url(#filter4436);font-family:Lavi;-inkscape-font-specification:Lavi"
       xml:space="preserve"
       y="3129.8394"
       x="1318.7137"
       transform="matrix(0.68323005,-0.18026525,0.27547669,0.60843919,-261.43744,-182.58505)"><tspan
         y="3129.8394"
         x="1318.7137"
         style="font-size:40.67671585px;font-style:normal;font-variant:normal;font-weight:normal;font-stretch:normal;fill:#241c1c;fill-opacity:1;font-family:Fondamento;-inkscape-font-specification:Fondamento"
         sodipodi:role="line"
         id="tspan4293-1-6-3-5-0-2">CHAOSAH</tspan><tspan
         y="3180.6853"
         x="1318.7137"
         style="font-size:40.67671585px;font-style:normal;font-variant:normal;font-weight:normal;font-stretch:normal;fill:#241c1c;fill-opacity:1;font-family:Fondamento;-inkscape-font-specification:Fondamento"
         sodipodi:role="line"
         id="tspan4422">SUTRA</tspan><tspan
         y="3223.7019"
         x="1318.7137"
         style="font-size:32.06008911px;font-style:normal;font-variant:normal;font-weight:normal;font-stretch:normal;fill:#241c1c;fill-opacity:1;font-family:Fondamento;-inkscape-font-specification:Fondamento"
         sodipodi:role="line"
         id="tspan4426">di</tspan><tspan
         y="3263.7771"
         x="1318.7137"
         style="font-size:32.06008911px;font-style:normal;font-variant:normal;font-weight:normal;font-stretch:normal;fill:#241c1c;fill-opacity:1;font-family:Fondamento;-inkscape-font-specification:Fondamento"
         sodipodi:role="line"
         id="tspan4430">Thyme</tspan></text>
    <text
       xml:space="preserve"
       style="font-size:12px;font-style:normal;font-variant:normal;font-weight:normal;font-stretch:normal;text-align:center;line-height:125%;letter-spacing:0px;word-spacing:0px;text-anchor:middle;fill:#000000;fill-opacity:1;stroke:none;font-family:Lavi;-inkscape-font-specification:Lavi"
       x="2108.282"
       y="2030.4532"
       id="text4246-3-3-2-3-5-6-2-0-3"
       sodipodi:linespacing="125%"><tspan
         sodipodi:role="line"
         style="font-size:45px"
         x="2108.282"
         y="2030.4532"
         id="tspan3725">È solo un errore</tspan><tspan
         sodipodi:role="line"
         style="font-size:45px"
         x="2108.282"
         y="2086.7031"
         id="tspan3723">di gioventù, e poi</tspan><tspan
         sodipodi:role="line"
         style="font-size:45px"
         x="2108.282"
         y="2142.9531"
         id="tspan3719">non è adatto alla</tspan><tspan
         sodipodi:role="line"
         style="font-size:45px"
         x="2108.282"
         y="2199.2031"
         id="tspan3721">tua età!</tspan></text>
    <use
       x="0"
       y="0"
       xlink:href="#text4178-6-5-9-0-7-0-4"
       id="use4440"
       transform="matrix(1.7191858,0.78546962,-0.89078499,2.0163672,807.20751,-1621.7765)"
       width="100%"
       height="100%" />
    <text
       xml:space="preserve"
       style="font-size:12px;font-style:normal;font-variant:normal;font-weight:normal;font-stretch:normal;text-align:center;line-height:125%;letter-spacing:0px;word-spacing:0px;text-anchor:middle;fill:#000000;fill-opacity:1;stroke:none;font-family:Lavi;-inkscape-font-specification:Lavi"
       x="448.74265"
       y="3004.217"
       id="text4246-3-3-2-3-5-6-2-0-3-6"
       sodipodi:linespacing="125%"><tspan
         sodipodi:role="line"
         style="font-size:45px"
         x="448.74265"
         y="3004.217"
         id="tspan4328-8">Hmm...</tspan></text>
    <text
       xml:space="preserve"
       style="font-size:12px;font-style:normal;font-variant:normal;font-weight:normal;font-stretch:normal;text-align:center;line-height:125%;letter-spacing:0px;word-spacing:0px;text-anchor:middle;fill:#000000;fill-opacity:1;stroke:none;font-family:Lavi;-inkscape-font-specification:Lavi"
       x="553.45013"
       y="3073.6917"
       id="text4246-3-3-2-3-5-6-2-0-3-6-7"
       sodipodi:linespacing="125%"><tspan
         sodipodi:role="line"
         style="font-size:45px"
         x="553.45013"
         y="3073.6917"
         id="tspan4328-8-9">Capisco ...</tspan></text>
    <text
       xml:space="preserve"
       style="font-size:12px;font-style:normal;font-variant:normal;font-weight:normal;font-stretch:normal;text-align:center;line-height:125%;letter-spacing:0px;word-spacing:0px;text-anchor:middle;fill:#000000;fill-opacity:1;stroke:none;font-family:Lavi;-inkscape-font-specification:Lavi"
       x="2023.0325"
       y="3209.8103"
       id="text4246-3-3-2-3-5-6-2-0-3-6-7-2"
       sodipodi:linespacing="125%"><tspan
         sodipodi:role="line"
         style="font-size:45px"
         x="2023.0325"
         y="3209.8103"
         id="tspan3609">Non siete veramente</tspan><tspan
         sodipodi:role="line"
         style="font-size:45px"
         x="2023.0325"
         y="3266.0603"
         id="tspan3702">pentite di</tspan><tspan
         sodipodi:role="line"
         style="font-size:45px"
         x="2023.0325"
         y="3322.3103"
         id="tspan3171">tutto questo...</tspan></text>
  </g>
</svg>
