<?xml version="1.0" encoding="UTF-8" standalone="no"?>
<!-- Created with Inkscape (http://www.inkscape.org/) -->

<svg
   xmlns:dc="http://purl.org/dc/elements/1.1/"
   xmlns:cc="http://creativecommons.org/ns#"
   xmlns:rdf="http://www.w3.org/1999/02/22-rdf-syntax-ns#"
   xmlns:svg="http://www.w3.org/2000/svg"
   xmlns="http://www.w3.org/2000/svg"
   xmlns:xlink="http://www.w3.org/1999/xlink"
   xmlns:sodipodi="http://sodipodi.sourceforge.net/DTD/sodipodi-0.dtd"
   xmlns:inkscape="http://www.inkscape.org/namespaces/inkscape"
   id="svg2"
   version="1.1"
   inkscape:version="0.48.5 r10040"
   width="2481"
   height="3503"
   sodipodi:docname="Pepper-and-Carrot_by-David-Revoy_E19P02.svg">
  <metadata
     id="metadata8">
    <rdf:RDF>
      <cc:Work
         rdf:about="">
        <dc:format>image/svg+xml</dc:format>
        <dc:type
           rdf:resource="http://purl.org/dc/dcmitype/StillImage" />
        <dc:title />
      </cc:Work>
    </rdf:RDF>
  </metadata>
  <defs
     id="defs6">
    <filter
       inkscape:collect="always"
       style="color-interpolation-filters:sRGB"
       id="filter5236-4-16-3"
       x="-0.0089085409"
       width="1.0178171"
       y="-0.027928527"
       height="1.0558571">
      <feGaussianBlur
         inkscape:collect="always"
         stdDeviation="0.49168068"
         id="feGaussianBlur5238-0-4-6" />
    </filter>
    <filter
       inkscape:collect="always"
       style="color-interpolation-filters:sRGB"
       id="filter5236-4-16"
       x="-0.0089085409"
       width="1.0178171"
       y="-0.027928527"
       height="1.0558571">
      <feGaussianBlur
         inkscape:collect="always"
         stdDeviation="0.49168068"
         id="feGaussianBlur5238-0-4" />
    </filter>
  </defs>
  <sodipodi:namedview
     pagecolor="#ffffff"
     bordercolor="#666666"
     borderopacity="1"
     objecttolerance="10"
     gridtolerance="10"
     guidetolerance="10"
     inkscape:pageopacity="0"
     inkscape:pageshadow="2"
     inkscape:window-width="1680"
     inkscape:window-height="959"
     id="namedview4"
     showgrid="false"
     inkscape:zoom="0.4224276"
     inkscape:cx="1311.0733"
     inkscape:cy="713.26433"
     inkscape:window-x="0"
     inkscape:window-y="1"
     inkscape:window-maximized="1"
     inkscape:current-layer="layer1" />
  <g
     inkscape:groupmode="layer"
     id="layer2"
     inkscape:label="artwork"
     sodipodi:insensitive="true">
    <image
       sodipodi:absref="/Users/gand/Documents/Pepper&amp;Carrot/peppercarrot_ep19_translation/it/../gfx_Pepper-and-Carrot_by-David-Revoy_E19P02.png"
       xlink:href="../gfx_Pepper-and-Carrot_by-David-Revoy_E19P02.png"
       width="2481"
       height="3503"
       id="image10"
       x="0"
       y="0" />
  </g>
  <g
     inkscape:groupmode="layer"
     id="layer4"
     inkscape:label="translatornotes"
     sodipodi:insensitive="true">
    <path
       inkscape:connector-curvature="0"
       id="path3446"
       d="m 2763.8482,1498.4924 0,-189.0352 -203.8301,0 0,90.9805 -10,0 0,-15.6308 -30.9824,26.9824 30.9824,26.9804 0,-16.6171 10,0 0,76.3398 203.8301,0 z"
       style="color:#000000;clip-rule:nonzero;display:inline;overflow:visible;visibility:visible;opacity:0.481;isolation:auto;mix-blend-mode:normal;color-interpolation:sRGB;color-interpolation-filters:linearRGB;solid-color:#000000;solid-opacity:1;fill:#ffe680;fill-opacity:1;fill-rule:nonzero;stroke:#565656;stroke-width:1.20000005;stroke-linecap:butt;stroke-linejoin:miter;stroke-miterlimit:4;stroke-dasharray:none;stroke-dashoffset:0;stroke-opacity:1;marker:none;color-rendering:auto;image-rendering:auto;shape-rendering:auto;text-rendering:auto;enable-background:accumulate" />
    <flowRoot
       transform="translate(2793.4167,295.2096)"
       style="font-style:normal;font-variant:normal;font-weight:normal;font-stretch:normal;font-size:25.3241539px;line-height:125%;font-family:Lavi;-inkscape-font-specification:'Lavi, Normal';text-align:center;letter-spacing:0px;word-spacing:0px;writing-mode:lr-tb;text-anchor:middle;display:inline;opacity:0.481;fill:#000000;fill-opacity:1;stroke:none;stroke-width:1px;stroke-linecap:butt;stroke-linejoin:miter;stroke-opacity:1"
       id="flowRoot3448"
       xml:space="preserve"><flowRegion
         id="flowRegion3450"><rect
           y="1061.6674"
           x="-275.14545"
           height="247.52747"
           width="291.95547"
           id="rect3452" /></flowRegion><flowPara
         id="flowPara3473">labels</flowPara><flowPara
         id="flowPara4255">in the </flowPara><flowPara
         id="flowPara4257">garden :-)</flowPara></flowRoot>  </g>
  <g
     inkscape:groupmode="layer"
     id="layer3"
     inkscape:label="speechbubbles"
     style="display:inline">
    <path
       style="color:#000000;fill:#ffffff;fill-opacity:1;fill-rule:nonzero;stroke:none;stroke-width:1px;marker:none;visibility:visible;display:inline;overflow:visible;enable-background:accumulate"
       d="m 1032.9526,202.82723 c 25.4163,-31.521 268.0289,-49.53347 344.6942,1.08761 63.9912,42.25269 71.8746,134.0309 24.3352,159.10783 -47.5396,25.07703 -235.4281,26.14266 -311.7624,15.75003 -72.6809,-9.89524 -81.1759,-35.68728 -94.31193,-100.10141 -5.36147,-26.28992 11.62833,-44.32298 37.04493,-75.84406 z"
       id="path4040-4"
       inkscape:connector-curvature="0"
       sodipodi:nodetypes="zssssz" />
    <path
       style="color:#000000;fill:#ffffff;fill-opacity:1;fill-rule:nonzero;stroke:none;stroke-width:1px;marker:none;visibility:visible;display:inline;overflow:visible;enable-background:accumulate"
       d="m 1206.7899,471.60657 c 7.4415,-79.99361 81.8141,-136.92767 272.1904,-117.45099 101.9757,10.43269 217.8408,18.40618 208.1244,135.61853 -9.7163,117.21223 -176.3362,110.3469 -210.7954,112.29768 -34.4593,1.9509 -213.4459,-14.49623 -244.0543,-55.15064 -19.1605,-25.44858 -26.4818,-50.5104 -25.4651,-75.31458 z"
       id="path4546-6"
       inkscape:connector-curvature="0"
       sodipodi:nodetypes="cssssc" />
    <path
       style="color:#000000;display:inline;overflow:visible;visibility:visible;fill:#ffffff;fill-opacity:1;fill-rule:nonzero;stroke:none;stroke-width:1px;marker:none;enable-background:accumulate"
       d="m 1376.2281,597.42803 c 50.1003,-56.53134 312.6047,-44.42084 405.5611,-31.70856 138.0035,18.87273 132.1079,71.16786 136.325,86.13526 4.2167,14.96728 -6.3255,84.36126 -52.7128,97.96804 -46.3871,13.60664 -179.2229,20.40995 -225.61,20.40995 -46.3871,0 -194.4651,-8.66058 -231.9361,-28.57405 -35.8446,-19.04932 -81.7279,-87.69942 -31.6272,-144.23064 z"
       id="path3330"
       inkscape:connector-curvature="0"
       sodipodi:nodetypes="zsssssz" />
    <path
       style="color:#000000;display:inline;overflow:visible;visibility:visible;fill:#ffffff;fill-opacity:1;fill-rule:nonzero;stroke:none;stroke-width:1px;marker:none;enable-background:accumulate"
       d="m 1537.5273,696.39507 c -4.748,19.68499 -0.6503,33.38997 2.5742,37.35036 3.2245,3.96027 2.3513,12.12365 5.2378,17.57337 2.3614,4.51862 3.5729,10.81257 -0.8434,12.64306 -4.4163,1.83058 -29.4289,3.69855 -33.6755,16.66121 -4.2467,12.96272 3.9771,24.00648 14.1454,30.32451 10.1684,6.31815 24.4145,10.44127 22.2717,20.40102 -2.1427,9.95976 -9.8422,13.23017 -15.8741,13.66024 -6.0318,0.43007 -42.6593,-1.86158 -51.9545,1.56498 -9.295,3.4266 -34.8875,18.35716 -31.0179,31.36521 11.9004,-13.15184 18.3151,-19.01847 27.1348,-20.36055 8.8198,-1.34212 24.7212,-5.09072 34.6744,-1.78852 9.9534,3.30225 30.2251,7.01956 38.1327,2.88942 7.9077,-4.13 22.6869,-13.91278 22.9796,-24.81049 0.2928,-10.89767 -5.2053,-22.98724 -21.3925,-31.19418 -10.1682,-6.31811 -14.5522,-10.2849 -13.6078,-13.29434 0.9444,-3.00939 11.8681,-7.35452 23.4562,-6.13032 11.5882,1.22424 17.0469,-9.49086 18.0108,-15.97871 0.9638,-6.48781 -2.7884,-15.67273 -3.2186,-21.7046 -0.4301,-6.03183 -6.7045,-40.19004 -6.7045,-40.19004 z"
       id="path5058"
       inkscape:connector-curvature="0"
       sodipodi:nodetypes="cscsssssscssssccscccc" />
    <path
       style="color:#000000;fill:#ffffff;fill-opacity:1;fill-rule:nonzero;stroke:none;stroke-width:1px;marker:none;visibility:visible;display:inline;overflow:visible;enable-background:accumulate"
       d="m 1345.9625,1846.3516 c 7.7132,-69.8494 50.0174,-95.0896 143.0146,-98.7527 46.1729,-1.8188 213.4044,-8.1256 281.1925,4.5118 67.788,12.6375 125.8142,51.3422 120.6721,102.5251 -5.1421,51.1828 -11.2244,90.8284 -85.2561,105.3166 -74.0316,14.4881 -216.0124,3.8187 -230.7963,4.4209 -29.5675,1.2043 -182.7021,-15.7854 -208.2581,-51.7851 -15.9974,-22.5348 -21.8543,-44.559 -20.5687,-66.2366 z"
       id="path4546-6-3"
       inkscape:connector-curvature="0"
       sodipodi:nodetypes="cssssssc" />
    <path
       style="color:#000000;fill:#ffffff;fill-opacity:1;fill-rule:nonzero;stroke:none;stroke-width:1px;marker:none;visibility:visible;display:inline;overflow:visible;enable-background:accumulate"
       d="m 1722.3999,1984.2639 c -2.9268,-13.6594 29.1632,-71.1553 207.7003,-62.049 178.5371,9.1063 197.185,20.5706 205.3314,69.5953 3.0107,18.1186 -24.7729,44.5159 -51.1144,49.069 -26.3417,4.5531 -103.3597,17.4063 -147.2621,13.7639 -43.9026,-3.6425 -108.7089,-2.7784 -173.3029,-21.8772 -38.9858,-11.5271 -38.4254,-44.8596 -41.3523,-48.502 z"
       id="path3365"
       inkscape:connector-curvature="0"
       sodipodi:nodetypes="csssssc" />
    <path
       style="fill:#ffffff;fill-opacity:1;stroke:none"
       d="m 1760.0982,2181.1508 c -11.0377,-128.9785 67.5603,-173.7193 276.8911,-173.5363 209.3308,0.1828 294.032,36.9011 302.8277,113.6938 19.6679,171.7155 -108.8166,214.5432 -177.6749,225.2019 -137.5419,21.2904 -336.3135,-18.7705 -364.3985,-54.7336 -28.085,-35.9632 -35.2223,-76.903 -37.6454,-110.6258 z"
       id="path3238"
       inkscape:connector-curvature="0"
       sodipodi:nodetypes="cssssc" />
    <path
       style="color:#000000;display:inline;overflow:visible;visibility:visible;fill:#ffffff;fill-opacity:1;fill-rule:nonzero;stroke:none;stroke-width:1px;marker:none;enable-background:accumulate"
       d="m 1882.8016,2295.7967 c -30.6436,39.5697 -91.823,73.3362 -171.3605,30.1552 76.0815,26.4581 119.8575,-5.9599 145.0149,-45.5895 21.7184,-34.2122 33.4899,-49.0683 33.4899,-49.0683 z"
       id="path4440"
       inkscape:connector-curvature="0"
       sodipodi:nodetypes="ccscc" />
    <path
       style="color:#000000;display:inline;overflow:visible;visibility:visible;fill:#ffffff;fill-opacity:1;fill-rule:nonzero;stroke:none;stroke-width:1px;marker:none;enable-background:accumulate"
       d="m 99.104281,2756.9074 c 26.232639,-10.9597 38.666349,-18.5558 0.458237,-34.3247 7.844982,-0.1198 51.624252,-2.1442 9.767152,-32.9366 13.8,3.9749 35.86784,14.5291 11.02706,-36.5871 14.93612,8.1494 35.65375,34.2072 17.48056,-14.0742 19.68024,16.3179 45.60842,6.0013 40.30072,-2.5708 15.83874,10.4052 46.94431,9.5448 44.27984,0.7154 11.64511,9.6323 43.19202,12.4562 40.71636,-3.6881 9.67608,11.0973 39.70587,9.9541 36.76192,0.5253 25.36934,11.2241 62.04581,18.1422 75.90708,2.4934 11.83584,14.8098 66.89103,10.3376 113.06616,0.2295 0.7233,10.4538 52.11644,12.2889 94.00148,-4.7288 0.63394,15.8808 15.74858,21.2619 34.21827,9.5749 6.5956,6.5186 4.83525,10.3103 30.75452,-5.1216 -1.23739,10.6121 3.37613,20.4024 21.43492,10.2432 3.14588,6.5649 -8.36616,23.5801 37.27833,-1.2805 0.30174,9.2802 -10.41257,27.5037 28.8906,5.1216 -31.88352,55.1372 -14.21246,49.2359 7.4556,38.4113 -16.87112,32.5259 -38.63091,72.8685 4.24505,71.3855 -33.57227,7.514 -32.98537,18.687 -28.47585,36.1663 -42.07694,-35.1981 -47.02081,-8.4487 -65.23697,-3.8411 -19.23063,-5.8556 -36.94693,-27.3135 -59.64504,2.5608 -34.77236,-12.2937 -41.66636,-1.0176 -53.12155,6.402 -60.74999,-23.5924 -59.31498,-4.468 -86.67197,-5.1217 -16.17448,-29.1834 -52.67449,-7.1717 -79.2163,-10.2429 -33.55031,-23.9307 -83.47464,-2.9536 -109.59281,6.2711 12.76533,-14.9487 -18.6704,-28.2936 -48.56601,4.1237 14.84555,-27.3926 -9.51158,-36.628 -54.98539,-1.3493 21.36932,-32.458 -8.18465,-27.285 -41.27952,-6.4848 32.39001,-31.5409 -1.83686,-34.2446 -21.252449,-31.8718 z"
       id="path3557"
       inkscape:connector-curvature="0"
       sodipodi:nodetypes="cccccccccccccccccccccccccccccc" />
    <path
       style="color:#000000;fill:#ffffff;fill-opacity:1;fill-rule:nonzero;stroke:none;stroke-width:1px;marker:none;visibility:visible;display:inline;overflow:visible;enable-background:accumulate"
       d="m 259.22538,2839.5634 c 8.62008,-73.3533 95.41459,-126.6439 317.73025,-111.7966 119.08425,7.953 254.38441,13.4367 243.14016,120.9006 -11.24438,107.4636 -205.80944,103.79 -246.04519,106.116 -40.23574,2.3262 -249.24908,-9.926 -285.02528,-46.6664 -22.39507,-22.9987 -30.9658,-45.8287 -29.79994,-68.5536 z"
       id="path4546"
       inkscape:connector-curvature="0"
       sodipodi:nodetypes="cssssc" />
    <path
       style="color:#000000;display:inline;overflow:visible;visibility:visible;fill:#ffffff;fill-opacity:1;fill-rule:nonzero;stroke:none;stroke-width:1px;marker:none;enable-background:accumulate"
       d="m 990.3039,2942.0433 c -39.7219,-30.7338 -84.6659,-56.332 -118.3207,-93.0329 l 9.2071,41.4633 c -19.1495,-7.3977 -31.9655,-24.339 -46.9322,-38.0398 l 1.0996,26.2988 c -44.9905,-17.9715 -75.7521,-49.3371 -113.3909,-74.2288 l 5.8989,45.8738 c 41.0512,21.0955 84.9859,35.8216 122.7937,64.0815 l 1.7812,-25.6614 c 14.445,8.0961 28.5921,16.7337 41.4085,27.7896 l -0.8973,-32.5393 z"
       id="path4032-6"
       inkscape:connector-curvature="0"
       sodipodi:nodetypes="cccccccccccc" />
    <path
       style="fill:#ffffff;stroke:none"
       d="m 1699.0736,2771.0202 c 5.0501,-60.4636 35.5091,-85.0538 49.33,-93.079 13.8207,-8.0252 71.8414,-18.3199 109.742,-16.548 37.9006,1.7719 131.855,10.4999 147.6558,13.4066 15.8008,2.9066 57.954,48.234 57.5018,87.2344 -0.4521,39.0001 -8.9041,64.619 -31.9343,87.3886 -23.0304,22.7698 -160.4271,27.1856 -168.8922,24.6219 -8.4654,-2.5636 -121.5161,-23.0237 -128.5726,-29.8572 -7.0564,-6.8334 -35.6546,-25.5131 -34.8305,-73.1673 z"
       id="path3278"
       inkscape:connector-curvature="0" />
    <path
       style="color:#000000;fill:#ffffff;fill-opacity:1;fill-rule:nonzero;stroke:none;stroke-width:1px;marker:none;visibility:visible;display:inline;overflow:visible;enable-background:accumulate"
       d="m 1720.6202,2884.441 c 45.2416,-46.9028 427.1297,-97.8131 561.3497,-1.1561 134.2198,96.657 52.8078,212.6455 -24.2038,249.5509 -77.0114,36.9054 -303.645,77.3256 -407.0603,45.6924 -103.4153,-31.6332 -183.9695,-78.9187 -189.2282,-175.74 -2.1463,-39.5167 13.9013,-71.4441 59.1426,-118.3472 z"
       id="path4040"
       inkscape:connector-curvature="0"
       sodipodi:nodetypes="zssssz" />
    <path
       style="display:inline;fill:#ffffff;fill-rule:evenodd;stroke:none;stroke-width:1px;stroke-linecap:butt;stroke-linejoin:miter;stroke-opacity:1"
       d="m 1889.5795,3122.771 c 48.1261,28.5286 75.5394,16.9272 74.7133,-49.3868 22.9607,71.6603 38.8942,87.6873 48.344,52.3799 30.3984,30.3481 49.3847,21.8353 64.4586,0 5.6184,28.0816 17.6672,16.7498 28.0947,15.3549 3.4344,6.3532 -8.3613,22.1376 39.2938,1.1073 3.0868,8.4093 7.2451,15.651 35.1591,-2.9931 7.2317,34.1321 30.4341,-1.8917 54.204,-40.4074 -14.8094,47.3518 -8.6685,54.0398 10.2547,35.9176 -8.6516,19.4998 -13.8261,34.5948 19.0445,1.4966 -11.2532,35.9927 18.2696,11.2875 65.9236,-40.4072 -23.8372,38.2124 -87.0482,102.6164 -45.4139,97.2767 -5.8062,11.2651 -26.5164,21.0802 35.1591,38.9107 -11.514,7.6442 -46.6658,-3.5263 -17.3429,28.8398 3.9288,3.7834 -9.2235,6.0937 15.878,16.0571 -14.8178,-0.6778 -23.9051,1.7436 -10.2549,16.4623 -27.0478,-0.7959 -16.9276,14.6808 2.93,34.4209 -39.169,-25.3209 -41.3245,-16.1182 -42.4842,-5.9862 -49.0902,-34.521 -51.9717,-23.6523 -58.5985,-16.4623 -23.9278,0.2694 -47.8557,-4.0779 -71.7836,34.421 -6.2663,-23.9452 -18.8296,-42.3768 -71.7833,-25.4415 23.2507,-30.4626 -9.8264,-11.0548 -35.1593,1.4965 13.8728,-38.0554 -21.3342,-13.0797 -65.9235,23.945 24.9698,-42.0237 -3.39,-26.8437 -45.4141,2.9932 15.8781,-41.2842 -9.9807,-61.2497 -71.7833,-62.8558 29.5806,-14.8917 46.8304,-33.6324 16.1147,-67.3454 34.6253,9.9269 44.9535,0.7062 20.5095,-35.9176 37.767,30.0605 20.5958,-13.5407 5.8599,-53.8762 z"
       id="path4508"
       inkscape:connector-curvature="0"
       sodipodi:nodetypes="cccccccccccccccccccccccccccc" />
    <path
       style="color:#000000;display:inline;overflow:visible;visibility:visible;fill:#ffffff;fill-opacity:1;fill-rule:nonzero;stroke:none;stroke-width:1px;marker:none;enable-background:accumulate"
       d="m 1490.4164,2866.2226 c 36.6716,-30.7338 78.1642,-56.332 109.2346,-93.0329 l -8.5001,41.4633 c 17.679,-7.3977 29.5108,-24.339 43.3282,-38.0398 l -1.0152,26.2988 c 41.5356,-17.9715 69.9349,-49.3371 104.6834,-74.2288 l -5.4459,45.8738 c -37.8988,21.0955 -78.4597,35.8216 -113.3641,64.0815 l -1.6444,-25.6614 c -13.3358,8.0961 -26.3965,16.7337 -38.2287,27.7896 l 0.8284,-32.5393 z"
       id="path4032"
       inkscape:connector-curvature="0"
       sodipodi:nodetypes="cccccccccccc" />
  </g>
  <g
     inkscape:groupmode="layer"
     id="layer1"
     inkscape:label="txt">
    <text
       xml:space="preserve"
       style="font-style:normal;font-variant:normal;font-weight:normal;font-stretch:normal;font-size:12px;line-height:125%;font-family:Lavi;-inkscape-font-specification:Lavi;text-align:center;letter-spacing:0px;word-spacing:0px;text-anchor:middle;fill:#000000;fill-opacity:1;stroke:none"
       x="1194.6492"
       y="229.16325"
       id="text4246"
       sodipodi:linespacing="125%"><tspan
         sodipodi:role="line"
         style="font-size:45px"
         x="1194.6492"
         y="229.16325"
         id="tspan4252">Uhm...</tspan></text>
    <text
       xml:space="preserve"
       style="font-size:12px;font-style:normal;font-variant:normal;font-weight:normal;font-stretch:normal;text-align:center;line-height:125%;letter-spacing:0px;word-spacing:0px;text-anchor:middle;fill:#000000;fill-opacity:1;stroke:none;font-family:Lavi;-inkscape-font-specification:Lavi"
       x="1213.9131"
       y="295.55231"
       id="text4246-3"
       sodipodi:linespacing="125%"><tspan
         sodipodi:role="line"
         style="font-size:45px"
         x="1213.9131"
         y="295.55231"
         id="tspan3831">Si, certo, non sono</tspan><tspan
         sodipodi:role="line"
         style="font-size:45px"
         x="1213.9131"
         y="351.80231"
         id="tspan3070">un'esperta...</tspan></text>
    <text
       xml:space="preserve"
       style="font-size:12px;font-style:normal;font-variant:normal;font-weight:normal;font-stretch:normal;text-align:center;line-height:125%;letter-spacing:0px;word-spacing:0px;text-anchor:middle;fill:#000000;fill-opacity:1;stroke:none;font-family:Lavi;-inkscape-font-specification:Lavi"
       x="1445.5612"
       y="431.99161"
       id="text4246-3-7"
       sodipodi:linespacing="125%"><tspan
         sodipodi:role="line"
         style="font-size:45px"
         x="1445.5612"
         y="431.99161"
         id="tspan4199">Ma quest'anno</tspan><tspan
         sodipodi:role="line"
         style="font-size:45px"
         x="1445.5612"
         y="488.24161"
         id="tspan3838">il nostro giardino</tspan><tspan
         sodipodi:role="line"
         style="font-size:45px"
         x="1445.5612"
         y="544.49158"
         id="tspan3840">è piuttosto strano</tspan></text>
    <text
       xml:space="preserve"
       style="font-size:12px;font-style:normal;font-variant:normal;font-weight:normal;font-stretch:normal;text-align:center;line-height:125%;letter-spacing:0px;word-spacing:0px;text-anchor:middle;fill:#000000;fill-opacity:1;stroke:none;font-family:Lavi;-inkscape-font-specification:Lavi"
       x="1630.2883"
       y="616.82611"
       id="text4246-3-7-6"
       sodipodi:linespacing="125%"><tspan
         sodipodi:role="line"
         style="font-size:45px"
         x="1630.2883"
         y="616.82611"
         id="tspan3849">e questo anche</tspan><tspan
         sodipodi:role="line"
         style="font-size:45px"
         x="1630.2883"
         y="673.07611"
         id="tspan3081">per un sacco di piante</tspan><tspan
         sodipodi:role="line"
         style="font-size:45px"
         x="1630.2883"
         y="729.32611"
         id="tspan3083">intorno alla casa.</tspan></text>
    <text
       sodipodi:linespacing="125%"
       id="text4178-6-5-9-0-7-0-4"
       style="font-size:9.76241112px;font-style:normal;font-variant:normal;font-weight:normal;font-stretch:normal;text-align:center;line-height:125%;letter-spacing:0px;word-spacing:0px;text-anchor:middle;opacity:0.63300003;fill:#ffffff;fill-opacity:1;stroke:none;filter:url(#filter5236-4-16);font-family:Lavi;-inkscape-font-specification:Lavi"
       xml:space="preserve"
       y="3129.8394"
       x="1318.7137"
       transform="matrix(0.6851492,-0.06612027,-0.09994133,0.78144216,149.5816,-965.35698)"><tspan
         y="3129.8394"
         x="1318.7137"
         style="font-size:40.67671585px;font-style:normal;font-variant:normal;font-weight:normal;font-stretch:normal;fill:#ffffff;fill-opacity:1;font-family:Fondamento;-inkscape-font-specification:Fondamento"
         sodipodi:role="line"
         id="tspan4293-1-6-3-5-0-2">Pomodori</tspan></text>
    <text
       sodipodi:linespacing="125%"
       id="text4178-6-5-9-0-7-0-4-7"
       style="font-size:9.76241112px;font-style:normal;font-variant:normal;font-weight:normal;font-stretch:normal;text-align:center;line-height:125%;letter-spacing:0px;word-spacing:0px;text-anchor:middle;opacity:0.63300003;fill:#ffffff;fill-opacity:1;stroke:none;filter:url(#filter5236-4-16-3);font-family:Lavi;-inkscape-font-specification:Lavi"
       xml:space="preserve"
       y="3129.8394"
       x="1318.7137"
       transform="matrix(0.58543203,0.08325699,-0.38986142,0.70644422,2171.8616,-965.83592)"><tspan
         y="3129.8394"
         x="1318.7137"
         style="font-size:40.67671585px;font-style:normal;font-variant:normal;font-weight:normal;font-stretch:normal;fill:#ffffff;fill-opacity:1;font-family:Fondamento;-inkscape-font-specification:Fondamento"
         sodipodi:role="line"
         id="tspan4293-1-6-3-5-0-2-5">Melanzane</tspan></text>
    <text
       xml:space="preserve"
       style="font-size:12px;font-style:normal;font-variant:normal;font-weight:normal;font-stretch:normal;text-align:center;line-height:125%;letter-spacing:0px;word-spacing:0px;text-anchor:middle;fill:#000000;fill-opacity:1;stroke:none;font-family:Lavi;-inkscape-font-specification:Lavi"
       x="1627.533"
       y="1809.5331"
       id="text4246-3-2"
       sodipodi:linespacing="125%"><tspan
         sodipodi:role="line"
         style="font-size:45px"
         x="1627.533"
         y="1809.5331"
         id="tspan3096">Stessa cosa con le</tspan><tspan
         sodipodi:role="line"
         style="font-size:45px"
         x="1627.533"
         y="1865.7831"
         id="tspan3102">formiche, fanno davvero</tspan><tspan
         sodipodi:role="line"
         style="font-size:45px"
         x="1627.533"
         y="1922.0331"
         id="tspan3098">delle cose strambe</tspan></text>
    <text
       xml:space="preserve"
       style="font-size:12px;font-style:normal;font-variant:normal;font-weight:normal;font-stretch:normal;text-align:center;line-height:125%;letter-spacing:0px;word-spacing:0px;text-anchor:middle;fill:#000000;fill-opacity:1;stroke:none;font-family:Lavi;-inkscape-font-specification:Lavi"
       x="1928.5547"
       y="1997.0601"
       id="text4246-3-2-9"
       sodipodi:linespacing="125%"><tspan
         sodipodi:role="line"
         style="font-size:45px"
         x="1928.5547"
         y="1997.0601"
         id="tspan4259-0">Bhe, in ogni caso...</tspan></text>
    <text
       xml:space="preserve"
       style="font-size:12px;font-style:normal;font-variant:normal;font-weight:normal;font-stretch:normal;text-align:center;line-height:125%;letter-spacing:0px;word-spacing:0px;text-anchor:middle;fill:#000000;fill-opacity:1;stroke:none;font-family:Lavi;-inkscape-font-specification:Lavi"
       x="2053.186"
       y="2083.1831"
       id="text4246-3-2-9-6"
       sodipodi:linespacing="125%"><tspan
         sodipodi:role="line"
         style="font-size:45px"
         x="2053.186"
         y="2083.1831"
         id="tspan4326">Mi sono detta che</tspan><tspan
         sodipodi:role="line"
         style="font-size:45px"
         x="2053.186"
         y="2139.4331"
         id="tspan3884">forse abbiamo un piccolo</tspan><tspan
         sodipodi:role="line"
         style="font-size:45px"
         x="2053.186"
         y="2195.6831"
         id="tspan3108">problema di inquinamento</tspan><tspan
         sodipodi:role="line"
         style="font-size:45px"
         x="2053.186"
         y="2251.9331"
         id="tspan3886">e dovremmo pensare</tspan><tspan
         sodipodi:role="line"
         style="font-size:45px"
         x="2053.186"
         y="2308.1831"
         id="tspan3888">di ripulire un po'...</tspan></text>
    <text
       xml:space="preserve"
       style="font-size:12px;font-style:normal;font-variant:normal;font-weight:normal;font-stretch:normal;text-align:center;line-height:125%;letter-spacing:0px;word-spacing:0px;text-anchor:middle;fill:#000000;fill-opacity:1;stroke:none;font-family:Lavi;-inkscape-font-specification:Lavi"
       x="419.67166"
       y="2684.5779"
       id="text4246-3-2-9-6-6"
       sodipodi:linespacing="125%"><tspan
         sodipodi:role="line"
         style="font-size:45px"
         x="419.67166"
         y="2684.5779"
         id="tspan3892">Ascolta, Signorina</tspan><tspan
         sodipodi:role="line"
         style="font-size:45px"
         x="419.67166"
         y="2740.8279"
         id="tspan3900">&quot;<tspan
   style="stroke:#000000;stroke-width:2.79999995;stroke-miterlimit:4;stroke-opacity:1;stroke-dasharray:none"
   id="tspan4217">Mi-Rovino-Tutte-Le-Pozioni</tspan>&quot;,</tspan><tspan
         sodipodi:role="line"
         style="font-size:45px"
         x="419.67166"
         y="2797.0779"
         id="tspan4378" /></text>
    <text
       xml:space="preserve"
       style="font-size:12px;font-style:normal;font-variant:normal;font-weight:normal;font-stretch:normal;text-align:center;line-height:125%;letter-spacing:0px;word-spacing:0px;text-anchor:middle;fill:#000000;fill-opacity:1;stroke:none;font-family:Lavi;-inkscape-font-specification:Lavi"
       x="547.53906"
       y="2811.6135"
       id="text4246-3-2-9-6-6-7"
       sodipodi:linespacing="125%"><tspan
         sodipodi:role="line"
         style="font-size:45px"
         x="555.44922"
         y="2811.6135"
         id="tspan4574">il tuo costume di Hippiah </tspan><tspan
         sodipodi:role="line"
         style="font-size:45px"
         x="547.53906"
         y="2867.8635"
         id="tspan3907">senza dubbio ti</tspan><tspan
         sodipodi:role="line"
         style="font-size:45px"
         x="547.53906"
         y="2924.1135"
         id="tspan3605">ha dato alla testa.</tspan><tspan
         sodipodi:role="line"
         style="font-size:45px"
         x="547.53906"
         y="2980.3635"
         id="tspan4378-5" /></text>
    <text
       xml:space="preserve"
       style="font-size:12px;font-style:normal;font-variant:normal;font-weight:normal;font-stretch:normal;text-align:center;line-height:125%;letter-spacing:0px;word-spacing:0px;text-anchor:middle;fill:#000000;fill-opacity:1;stroke:none;font-family:Lavi;-inkscape-font-specification:Lavi"
       x="1882.85"
       y="2725.4656"
       id="text4246-3-2-9-6-6-0"
       sodipodi:linespacing="125%"><tspan
         sodipodi:role="line"
         style="font-size:45px"
         x="1882.85"
         y="2725.4656"
         id="tspan4414">In Chaosah,</tspan><tspan
         sodipodi:role="line"
         style="font-size:45px"
         x="1882.85"
         y="2781.7156"
         id="tspan4587">noi seppelliamo</tspan><tspan
         sodipodi:role="line"
         style="font-size:45px"
         x="1882.85"
         y="2837.9656"
         id="tspan3913">i nostri errori!</tspan><tspan
         sodipodi:role="line"
         style="font-size:45px"
         x="1882.85"
         y="2894.2156"
         id="tspan4378-7" /></text>
    <text
       xml:space="preserve"
       style="font-size:12px;font-style:normal;font-variant:normal;font-weight:normal;font-stretch:normal;text-align:center;line-height:125%;letter-spacing:0px;word-spacing:0px;text-anchor:middle;fill:#000000;fill-opacity:1;stroke:none;font-family:Lavi;-inkscape-font-specification:Lavi"
       x="2002.6411"
       y="2913.0608"
       id="text4246-3-2-9-6-6-0-5"
       sodipodi:linespacing="125%"><tspan
         sodipodi:role="line"
         style="font-size:45px"
         x="2002.6411"
         y="2913.0608"
         id="tspan3935">È la nostra tradizione</tspan><tspan
         sodipodi:role="line"
         style="font-size:45px"
         x="2002.6411"
         y="2969.3108"
         id="tspan3124">dalla notte dei tempi</tspan><tspan
         sodipodi:role="line"
         style="font-size:45px"
         x="2002.6411"
         y="3025.5608"
         id="tspan3126">e non me ne frega un fico secco</tspan><tspan
         sodipodi:role="line"
         style="font-size:45px"
         x="2010.5513"
         y="3081.8108"
         id="tspan3128">di cosa ne pensa </tspan><tspan
         sodipodi:role="line"
         style="font-size:45px"
         x="2002.6411"
         y="3138.0608"
         id="tspan3130">MADRE NATURA !</tspan><tspan
         sodipodi:role="line"
         style="font-size:45px"
         x="2002.6411"
         y="3194.3108"
         id="tspan4378-7-6" /></text>
    <text
       xml:space="preserve"
       style="font-size:12px;font-style:normal;font-variant:normal;font-weight:normal;font-stretch:normal;text-align:center;line-height:125%;letter-spacing:0px;word-spacing:0px;text-anchor:middle;fill:#000000;fill-opacity:1;stroke:none;font-family:Lavi;-inkscape-font-specification:Lavi"
       x="2083.4753"
       y="3219.5076"
       id="text4246-3-2-9-6-6-0-5-1"
       sodipodi:linespacing="125%"><tspan
         sodipodi:role="line"
         style="font-size:45px"
         x="2083.4753"
         y="3219.5076"
         id="tspan4544">Quindi stai zitta</tspan><tspan
         sodipodi:role="line"
         style="font-size:45px"
         x="2091.3855"
         y="3275.7576"
         id="tspan3153">e<tspan
   style="stroke:#000000;stroke-width:2.79999995;stroke-miterlimit:4;stroke-opacity:1;stroke-dasharray:none"
   id="tspan4219"> SCAVA</tspan>!! </tspan><tspan
         sodipodi:role="line"
         style="font-size:45px"
         x="2083.4753"
         y="3332.0076"
         id="tspan4378-7-6-4" /></text>
  </g>
</svg>
