<?xml version="1.0" encoding="UTF-8" standalone="no"?>
<!-- Created with Inkscape (http://www.inkscape.org/) -->

<svg
   xmlns:dc="http://purl.org/dc/elements/1.1/"
   xmlns:cc="http://creativecommons.org/ns#"
   xmlns:rdf="http://www.w3.org/1999/02/22-rdf-syntax-ns#"
   xmlns:svg="http://www.w3.org/2000/svg"
   xmlns="http://www.w3.org/2000/svg"
   xmlns:xlink="http://www.w3.org/1999/xlink"
   xmlns:sodipodi="http://sodipodi.sourceforge.net/DTD/sodipodi-0.dtd"
   xmlns:inkscape="http://www.inkscape.org/namespaces/inkscape"
   id="svg2"
   version="1.1"
   inkscape:version="0.48.5 r10040"
   width="2481"
   height="3503"
   sodipodi:docname="Pepper-and-Carrot_by-David-Revoy_E19P01.svg">
  <metadata
     id="metadata8">
    <rdf:RDF>
      <cc:Work
         rdf:about="">
        <dc:format>image/svg+xml</dc:format>
        <dc:type
           rdf:resource="http://purl.org/dc/dcmitype/StillImage" />
        <dc:title />
      </cc:Work>
    </rdf:RDF>
  </metadata>
  <defs
     id="defs6" />
  <sodipodi:namedview
     pagecolor="#ffffff"
     bordercolor="#666666"
     borderopacity="1"
     objecttolerance="10"
     gridtolerance="10"
     guidetolerance="10"
     inkscape:pageopacity="0"
     inkscape:pageshadow="2"
     inkscape:window-width="1680"
     inkscape:window-height="959"
     id="namedview4"
     showgrid="false"
     inkscape:zoom="0.31941595"
     inkscape:cx="1159.8094"
     inkscape:cy="1337.0448"
     inkscape:window-x="0"
     inkscape:window-y="1"
     inkscape:window-maximized="1"
     inkscape:current-layer="layer1"
     showguides="false" />
  <g
     inkscape:groupmode="layer"
     id="layer2"
     inkscape:label="artwork"
     sodipodi:insensitive="true">
    <image
       sodipodi:absref="/Users/gand/Documents/Pepper&amp;Carrot/peppercarrot_ep19_translation/it/../gfx_Pepper-and-Carrot_by-David-Revoy_E19P01.png"
       xlink:href="../gfx_Pepper-and-Carrot_by-David-Revoy_E19P01.png"
       y="0"
       x="0"
       id="image10"
       height="3503"
       width="2481" />
  </g>
  <g
     inkscape:groupmode="layer"
     id="layer3"
     inkscape:label="speechbubbles">
    <path
       style="color:#000000;fill:#ffffff;fill-opacity:1;fill-rule:nonzero;stroke:none;stroke-width:1px;marker:none;visibility:visible;display:inline;overflow:visible;enable-background:accumulate"
       d="m 992.38185,1944.6884 c -5.35324,-29.8516 36.58305,-65.8653 188.40815,-57.9056 151.8254,7.9598 181.6926,21.984 186.177,60.2936 1.8592,15.8826 -38.5784,40.5945 -60.9789,44.5744 -22.4005,3.9798 -115.2639,4.5754 -152.5982,1.3916 -37.3339,-3.1839 -117.4516,-10.1473 -139.8521,-24.4749 -22.40062,-14.3274 -18.6669,-20.6952 -21.15595,-23.8791 z"
       id="path3365"
       inkscape:connector-curvature="0"
       sodipodi:nodetypes="csssssc" />
    <path
       style="color:#000000;display:inline;overflow:visible;visibility:visible;fill:#ffffff;fill-opacity:1;fill-rule:nonzero;stroke:none;stroke-width:1px;marker:none;enable-background:accumulate"
       d="m 1339.2346,2076.8706 c -8.8916,54.0667 -49.131,78.2371 -82.523,92.8985 -62.3188,23.2222 -127.6242,11.5665 -190.4108,-0.9669 -32.5753,-8.9095 -66.1303,-47.3197 -62.7243,-99.1832 3.2917,-46.4894 34.8719,-76.7852 65.3104,-81.1038 44.6219,-15.0719 91.1584,-22.414 136.5287,-9.5916 38.958,7.3208 80.6808,9.3053 115.3794,38.2204 11.5958,15.2781 16.0511,38.1542 18.4396,59.7266 z"
       id="path3365-3"
       inkscape:connector-curvature="0" />
    <path
       style="fill:#ffffff;stroke:none"
       d="m 967.67119,2279.7271 c 6.36019,-61.6305 56.04261,-94.9797 128.96691,-103.564 89.4035,-18.3183 172.735,-26.7108 261.9522,-9.1588 58.341,14.5189 106.2887,16.1672 151.6151,57.8418 30.0572,30.565 40.8796,146.2343 -7.8043,176.2126 -50.6803,43.8283 -186.4826,53.5381 -255.1914,52.3401 -98.8949,1.8038 -185.5666,-6.1775 -234.4056,-42.6819 -45.66713,-35.0232 -51.35309,-85.3666 -45.13291,-130.9898 z"
       id="path3065"
       inkscape:connector-curvature="0"
       sodipodi:nodetypes="cccccccc" />
    <path
       style="display:inline;fill:#ffffff;stroke:none"
       d="m 1639.5841,2318.3167 c -21.9558,36.2988 -64.6442,61.9501 -96.7367,35.7869 -19.4449,-15.8524 -29.1134,-28.291 -29.1134,-28.291 l -6.3679,30.9322 20.7854,19.5483 c 0,0 65.508,31.9103 111.4326,-57.9764 z"
       id="path3063-1"
       inkscape:connector-curvature="0"
       sodipodi:nodetypes="cscccc" />
    <path
       style="color:#000000;fill:#ffffff;fill-opacity:1;fill-rule:nonzero;stroke:none;stroke-width:1px;marker:none;visibility:visible;display:inline;overflow:visible;enable-background:accumulate"
       d="m 1913.7084,2313.6928 c 22.0218,-11.9588 108.7391,-22.2319 195.348,-20.9774 86.6089,1.2545 169.6176,7.8225 220.3618,37.3172 74.763,43.4552 40.7099,142.8112 1.9878,159.5302 -28.0636,12.1171 -112.0563,22.9888 -192.5037,24.2114 -80.4472,1.2227 -157.3491,-7.2037 -194.921,-18.1535 -32.4257,-9.4501 -79.6687,-35.1665 -83.5261,-97.3627 -1.5743,-25.3848 9.21,-60.6473 53.2532,-84.5652 z"
       id="path4040"
       inkscape:connector-curvature="0"
       sodipodi:nodetypes="ssssssss" />
    <path
       style="color:#000000;display:inline;overflow:visible;visibility:visible;fill:#ffffff;fill-opacity:1;fill-rule:nonzero;stroke:none;stroke-width:1px;marker:none;enable-background:accumulate"
       d="m 2091.5868,2309.6031 c -12.6779,-33.6245 -30.9699,-60.7293 -65.977,-55.676 52.3023,-18.546 92.9308,35.3617 103.6224,53.2726 10.6914,17.9109 -37.6454,2.4034 -37.6454,2.4034 z"
       id="path5010"
       inkscape:connector-curvature="0" />
    <path
       style="color:#000000;fill:#ffffff;fill-opacity:1;fill-rule:nonzero;stroke:none;stroke-width:1px;marker:none;visibility:visible;display:inline;overflow:visible;enable-background:accumulate"
       d="m 599.85041,2726.3612 c -1.07793,-26.3558 10.8284,-45.2414 56.09882,-62.4534 45.27063,-17.2119 109.51846,-9.0026 126.37577,-8.4347 79.10704,2.665 105.61345,11.5648 121.78145,30.9284 16.16808,19.3634 20.29864,15.1087 19.72725,48.6465 -0.51157,30.0255 -5.08153,44.1361 -24.48315,50.5905 -19.40175,6.4545 -168.45114,13.8487 -191.39851,13.5611 -22.46721,-0.2816 -51.07286,-3.5096 -73.34789,-14.0823 -21.02818,-9.9808 -33.67589,-32.4002 -34.75374,-58.7561 z"
       id="path3373"
       inkscape:connector-curvature="0"
       sodipodi:nodetypes="zsssssssz" />
    <path
       style="color:#000000;display:inline;overflow:visible;visibility:visible;fill:#ffffff;fill-opacity:1;fill-rule:nonzero;stroke:none;stroke-width:1px;marker:none;enable-background:accumulate"
       d="m 653.17027,2853.9321 c 9.91133,-71.4433 85.33335,-96.2842 300.62391,-100.5518 56.30772,-1.1161 151.16032,7.4337 195.37852,24.0922 44.2183,16.6585 69.3963,73.9993 62.7888,126.3501 -13.2151,104.7015 -151.2975,87.2502 -189.2911,88.4821 -37.99357,1.2319 -299.48532,4.6116 -336.9684,-42.9057 -35.94549,-45.5681 -34.1836,-73.2947 -32.53173,-95.4669 z"
       id="path4546"
       inkscape:connector-curvature="0"
       sodipodi:nodetypes="csssssc" />
    <path
       style="color:#000000;display:inline;overflow:visible;visibility:visible;fill:#ffffff;fill-opacity:1;fill-rule:nonzero;stroke:none;stroke-width:1px;marker:none;enable-background:accumulate"
       d="m 847.67224,2985.8994 c 32.61893,-42.4872 210.03646,-38.8602 269.06646,-20.4526 59.0299,18.4073 84.5489,23.4094 83.7401,61.358 -0.7572,35.5277 -19.7934,68.7281 -49.9949,78.9545 -30.2013,10.2263 -101.0118,10.0146 -131.2132,10.0146 -30.20128,0 -126.6106,-6.509 -151.00686,-21.4754 -23.33742,-14.3168 -53.21068,-65.9121 -20.5916,-108.3991 z"
       id="path3330"
       inkscape:connector-curvature="0"
       sodipodi:nodetypes="zsssssz" />
    <path
       style="color:#000000;display:inline;overflow:visible;visibility:visible;fill:#ffffff;fill-opacity:1;fill-rule:nonzero;stroke:none;stroke-width:1px;marker:none;enable-background:accumulate"
       d="m 929.99953,3158.9683 c 39.78505,-10.9584 53.20162,-17.1208 58.43434,-65.1641 5.23266,-48.0433 23.16173,-44.6696 23.16173,-44.6696 l 14.7504,30.3838 c 0,0 -18.3423,101.2684 -96.34647,79.4499 z"
       id="path3072"
       inkscape:connector-curvature="0" />
    <path
       style="fill:#ffffff;fill-rule:evenodd;stroke:none;stroke-width:1px;stroke-linecap:butt;stroke-linejoin:miter;stroke-opacity:1"
       d="m 1891.4248,3239.5273 c 26.3898,2.1524 60.7586,-8.5621 39.4235,-40.9681 38.3979,25.9662 74.7721,30.83 113.0657,2.4031 -5.5978,28.6978 57.0153,30.9119 78.4695,11.9225 -6.546,29.906 23.5543,31.0596 48.7068,32.0091 -53.2076,36.5615 -25.2677,48.1891 -4.3022,61.9598 -52.2903,-10.1884 -39.6437,10.4551 -45.8893,22.1285 -44.8572,-26.449 -77.4789,-20.1718 -103.251,4.4257 -13.479,-13.3768 -17.7099,-41.0242 -67.3998,1.4752 18.2722,-36.6892 -5.6785,-32.8382 -44.4553,-14.7522 8.9214,-8.4337 46.471,-30.9658 -14.3679,-28.9705 9.5003,-2.97 17.1236,-6.2033 22.4963,-9.7524 5.3727,-3.5491 -29.1749,-13.0242 -28.6769,-17.2571 0.4981,-4.2329 36.0419,-3.2235 30.9182,-8.2451 -5.1237,-5.0215 -13.2451,-10.4635 -24.7376,-16.3785 z"
       id="path4584"
       inkscape:connector-curvature="0"
       sodipodi:nodetypes="cccccccccccsssc" />
    <path
       style="color:#000000;display:inline;overflow:visible;visibility:visible;fill:#ffffff;fill-opacity:1;fill-rule:nonzero;stroke:none;stroke-width:1px;marker:none;enable-background:accumulate"
       d="m 1929.0839,3276.1051 c -26.7744,0.1934 -96.6935,-12.0611 -103.8888,-13.0148 6.0705,-5.4371 10.1298,-10.8932 13.4021,-15.1162 -13.7156,-0.9263 -59.5001,-2.596 -79.7676,1.5975 50.7453,-11.4228 73.8083,-12.6417 95.8809,-9.8645 -2.9601,5.998 -5.8701,9.4267 -7.3188,12.6033 18.7307,6.708 117.9634,8.8349 106.078,1.4065 z"
       id="path5066"
       inkscape:connector-curvature="0"
       sodipodi:nodetypes="cccccccc" />
  </g>
  <g
     inkscape:groupmode="layer"
     id="layer1"
     inkscape:label="txt"
     style="display:inline">
    <text
       xml:space="preserve"
       style="font-size:12px;font-style:normal;font-variant:normal;font-weight:normal;font-stretch:normal;text-align:center;line-height:125%;letter-spacing:0px;word-spacing:0px;text-anchor:middle;fill:#000000;fill-opacity:1;stroke:none;font-family:Lavi;-inkscape-font-specification:Lavi"
       x="1177.4561"
       y="1950.6425"
       id="text4246-3-9"
       sodipodi:linespacing="125%"><tspan
         sodipodi:role="line"
         style="font-size:45px"
         x="1185.3662"
         y="1950.6425"
         id="tspan4183-8">Io torno dentro. </tspan></text>
    <text
       xml:space="preserve"
       style="font-size:12px;font-style:normal;font-variant:normal;font-weight:normal;font-stretch:normal;text-align:center;line-height:125%;letter-spacing:0px;word-spacing:0px;text-anchor:middle;fill:#000000;fill-opacity:1;stroke:none;font-family:Lavi;-inkscape-font-specification:Lavi"
       x="2137.0017"
       y="2363.6216"
       id="text4246"
       sodipodi:linespacing="125%"><text
         xml:space="preserve"
         style="font-size:12px;font-style:normal;font-variant:normal;font-weight:normal;font-stretch:normal;text-align:center;line-height:125%;letter-spacing:0px;word-spacing:0px;text-anchor:middle;fill:#000000;fill-opacity:1;stroke:none;font-family:Lavi;-inkscape-font-specification:Lavi"
         x="1174.7997"
         y="2031.3834"
         id="text4246-3"
         sodipodi:linespacing="125%"><tspan
           sodipodi:role="line"
           style="font-size:45px"
           x="1174.7997"
           y="2031.3834"
           id="tspan3953">Non serve</tspan><tspan
           sodipodi:role="line"
           style="font-size:45px"
           x="1182.7098"
           y="2087.6333"
           id="tspan3036">stare a </tspan><tspan
           sodipodi:role="line"
           style="font-size:45px"
           x="1182.7098"
           y="2143.8833"
           id="tspan3038">guardarti... </tspan></text>
<tspan
         sodipodi:role="line"
         style="font-size:45px"
         x="1182.7098"
         y="2143.8833"
         id="tspan4252" /></text>
    <text
       xml:space="preserve"
       style="font-size:12px;font-style:normal;font-variant:normal;font-weight:normal;font-stretch:normal;text-align:center;line-height:125%;letter-spacing:0px;word-spacing:0px;text-anchor:middle;fill:#000000;fill-opacity:1;stroke:none;font-family:Lavi;-inkscape-font-specification:Lavi"
       x="1253.064"
       y="2242.3909"
       id="text4246-3-7"
       sodipodi:linespacing="125%"><tspan
         sodipodi:role="line"
         style="font-size:45px"
         x="1253.064"
         y="2242.3909"
         id="tspan3964">Sotterrami tutte</tspan><tspan
         sodipodi:role="line"
         style="font-size:45px"
         x="1253.064"
         y="2298.6409"
         id="tspan3044">queste pozioni sbagliate</tspan><tspan
         sodipodi:role="line"
         style="font-size:45px"
         x="1253.064"
         y="2354.8909"
         id="tspan3968">e rientra il prima possibile</tspan><tspan
         sodipodi:role="line"
         style="font-size:45px"
         x="1260.9741"
         y="2411.1409"
         id="tspan3051">per riposarti.  </tspan></text>
    <text
       xml:space="preserve"
       style="font-size:12px;font-style:normal;font-variant:normal;font-weight:normal;font-stretch:normal;text-align:center;line-height:125%;letter-spacing:0px;word-spacing:0px;text-anchor:middle;fill:#000000;fill-opacity:1;stroke:none;font-family:Lavi;-inkscape-font-specification:Lavi"
       x="2111.6384"
       y="2365.1826"
       id="text4246-3-7-6"
       sodipodi:linespacing="125%"><tspan
         sodipodi:role="line"
         style="font-size:45px"
         x="2111.6384"
         y="2365.1826"
         id="tspan3981">Forse ce la farai</tspan><tspan
         sodipodi:role="line"
         style="font-size:45px"
         x="2111.6384"
         y="2421.4326"
         id="tspan3058">entro domani mattina,</tspan><tspan
         sodipodi:role="line"
         style="font-size:45px"
         x="2111.6384"
         y="2477.6826"
         id="tspan3983">chi lo sa!</tspan></text>
    <text
       xml:space="preserve"
       style="font-size:12px;font-style:normal;font-variant:normal;font-weight:normal;font-stretch:normal;text-align:center;line-height:125%;letter-spacing:0px;word-spacing:0px;text-anchor:middle;fill:#000000;fill-opacity:1;stroke:none;font-family:Lavi;-inkscape-font-specification:Lavi"
       x="769.18903"
       y="2710.563"
       id="text4246-3-7-6-7"
       sodipodi:linespacing="125%"><tspan
         sodipodi:role="line"
         style="font-size:45px"
         x="769.18903"
         y="2710.563"
         id="tspan4515">D'accordo,</tspan><tspan
         sodipodi:role="line"
         style="font-size:45px"
         x="777.09918"
         y="2766.813"
         id="tspan3987">mi sbrigherò! </tspan></text>
    <text
       xml:space="preserve"
       style="font-size:12px;font-style:normal;font-variant:normal;font-weight:normal;font-stretch:normal;text-align:center;line-height:125%;letter-spacing:0px;word-spacing:0px;text-anchor:middle;fill:#000000;fill-opacity:1;stroke:none;font-family:Lavi;-inkscape-font-specification:Lavi"
       x="942.81274"
       y="2838.0046"
       id="text4246-3-7-6-7-0"
       sodipodi:linespacing="125%"><tspan
         sodipodi:role="line"
         style="font-size:45px"
         x="942.81274"
         y="2838.0046"
         id="tspan4774">Ma, a proposito,</tspan><tspan
         sodipodi:role="line"
         style="font-size:45px"
         x="950.7229"
         y="2894.2546"
         id="tspan4778">cos'è questa cosa di </tspan><tspan
         sodipodi:role="line"
         style="font-size:45px"
         x="950.7229"
         y="2950.5046"
         id="tspan4770">seppellire sempre tutto? </tspan></text>
    <text
       xml:space="preserve"
       style="font-size:12px;font-style:normal;font-variant:normal;font-weight:normal;font-stretch:normal;text-align:center;line-height:125%;letter-spacing:0px;word-spacing:0px;text-anchor:middle;fill:#000000;fill-opacity:1;stroke:none;font-family:Lavi;-inkscape-font-specification:Lavi"
       x="1026.5442"
       y="3025.0105"
       id="text4246-3-7-6-7-0-9"
       sodipodi:linespacing="125%"><tspan
         sodipodi:role="line"
         style="font-size:45px"
         x="1026.5442"
         y="3025.0105"
         id="tspan4464">Non sarebbe</tspan><tspan
         sodipodi:role="line"
         style="font-size:45px"
         x="1034.4543"
         y="3081.2605"
         id="tspan4782">meglo se noi... </tspan></text>
    <text
       xml:space="preserve"
       style="font-size:12px;font-style:normal;font-variant:normal;font-weight:normal;font-stretch:normal;text-align:center;line-height:125%;letter-spacing:0px;word-spacing:0px;text-anchor:middle;fill:#000000;fill-opacity:1;stroke:none;font-family:Lavi;-inkscape-font-specification:Lavi"
       x="2037.533"
       y="3281.2891"
       id="text4246-3-7-6-7-0-9-3"
       sodipodi:linespacing="125%"><tspan
         sodipodi:role="line"
         style="font-size:45px"
         x="2037.533"
         y="3281.2891"
         id="tspan4464-5">Se <tspan
   style="stroke:#000000;stroke-width:2.5999999;stroke-miterlimit:4;stroke-opacity:1;stroke-dasharray:none"
   id="tspan4493">COSA</tspan>?</tspan></text>
  </g>
</svg>
