<?xml version="1.0" encoding="UTF-8" standalone="no"?>
<!-- Created with Inkscape (http://www.inkscape.org/) -->

<svg
   xmlns:dc="http://purl.org/dc/elements/1.1/"
   xmlns:cc="http://creativecommons.org/ns#"
   xmlns:rdf="http://www.w3.org/1999/02/22-rdf-syntax-ns#"
   xmlns:svg="http://www.w3.org/2000/svg"
   xmlns="http://www.w3.org/2000/svg"
   xmlns:xlink="http://www.w3.org/1999/xlink"
   xmlns:sodipodi="http://sodipodi.sourceforge.net/DTD/sodipodi-0.dtd"
   xmlns:inkscape="http://www.inkscape.org/namespaces/inkscape"
   id="svg2"
   version="1.1"
   inkscape:version="0.91 r13725"
   width="2481"
   height="3503"
   sodipodi:docname="Pepper-and-Carrot_by-David-Revoy_E19P01.svg">
  <metadata
     id="metadata8">
    <rdf:RDF>
      <cc:Work
         rdf:about="">
        <dc:format>image/svg+xml</dc:format>
        <dc:type
           rdf:resource="http://purl.org/dc/dcmitype/StillImage" />
        <dc:title />
      </cc:Work>
    </rdf:RDF>
  </metadata>
  <defs
     id="defs6" />
  <sodipodi:namedview
     pagecolor="#ffffff"
     bordercolor="#666666"
     borderopacity="1"
     objecttolerance="10"
     gridtolerance="10"
     guidetolerance="10"
     inkscape:pageopacity="0"
     inkscape:pageshadow="2"
     inkscape:window-width="1920"
     inkscape:window-height="1017"
     id="namedview4"
     showgrid="false"
     inkscape:zoom="0.30245747"
     inkscape:cx="1371.4033"
     inkscape:cy="477.32321"
     inkscape:window-x="-8"
     inkscape:window-y="-8"
     inkscape:window-maximized="1"
     inkscape:current-layer="layer1"
     showguides="false" />
  <g
     inkscape:groupmode="layer"
     id="layer2"
     inkscape:label="artwork"
     sodipodi:insensitive="true">
    <image
       sodipodi:absref="D:\AR GRIPI\Pepper&amp;Carrot\peppercarrot_ep19_translation-master\peppercarrot_ep19_translation-master\br\..\gfx_Pepper-and-Carrot_by-David-Revoy_E19P01.png"
       xlink:href="../gfx_Pepper-and-Carrot_by-David-Revoy_E19P01.png"
       width="2481"
       height="3503"
       id="image10"
       x="0"
       y="0" />
  </g>
  <g
     inkscape:groupmode="layer"
     id="layer3"
     inkscape:label="speechbubbles">
    <path
       style="color:#000000;display:inline;overflow:visible;visibility:visible;fill:#ffffff;fill-opacity:1;fill-rule:nonzero;stroke:none;stroke-width:1px;marker:none;enable-background:accumulate"
       d="m 1029.8667,1927.431 c -4.3431,-35.2635 29.68,-77.8062 152.8565,-68.4035 123.1768,9.4029 147.4082,25.9696 151.0464,71.2244 1.5083,18.762 -31.2988,47.954 -49.4725,52.6554 -18.1736,4.7013 -93.5143,5.4049 -123.8037,1.6439 -30.2892,-3.7611 -95.2891,-11.9869 -113.4628,-28.912 -18.1737,-16.9249 -15.1445,-24.4471 -17.1639,-28.2082 z"
       id="path3365"
       inkscape:connector-curvature="0"
       sodipodi:nodetypes="csssssc"
       inkscape:transform-center-x="16.53125"
       inkscape:transform-center-y="13.225" />
    <path
       style="color:#000000;display:inline;overflow:visible;visibility:visible;fill:#ffffff;fill-opacity:1;fill-rule:nonzero;stroke:none;stroke-width:1px;marker:none;enable-background:accumulate"
       d="m 1492.5412,2079.5776 c -14.5816,54.0667 -80.5709,78.2371 -135.331,92.8985 -102.1979,23.2222 -209.2935,11.5665 -312.2587,-0.9669 -53.4208,-8.9095 -108.44835,-47.3197 -102.86276,-99.1832 5.39823,-46.4894 57.18716,-76.7852 107.10386,-81.1038 73.1764,-15.0719 149.4925,-22.414 223.8962,-9.5916 63.888,7.3208 132.31,9.3053 189.213,38.2204 19.0162,15.2781 26.3224,38.1542 30.2394,59.7266 z"
       id="path3365-3"
       inkscape:connector-curvature="0" />
    <path
       style="fill:#ffffff;stroke:none"
       d="m 957.9035,2303.3382 c 6.38457,-65.0079 63.1134,-123.6524 136.3172,-132.7072 89.7463,-19.3221 185.1501,-16.91 274.7094,1.6039 58.5646,15.3145 90.0465,33.0113 135.5467,76.9697 30.1726,32.2399 46.9127,133.5962 -1.9577,165.2173 -50.8748,46.2301 -187.1977,56.472 -256.1701,55.2084 -99.274,1.9026 -199.01,-9.3322 -248.03646,-47.837 -45.8422,-36.9425 -46.65305,-70.3318 -40.40904,-118.4551 z"
       id="path3065"
       inkscape:connector-curvature="0"
       sodipodi:nodetypes="cccccccc" />
    <path
       style="display:inline;fill:#ffffff;stroke:none"
       d="m 1642.9487,2316.2979 c -21.9558,36.2988 -64.6442,61.9501 -96.7367,35.7869 -19.4449,-15.8524 -29.1134,-28.291 -29.1134,-28.291 l -6.3679,30.9322 20.7854,19.5483 c 0,0 65.508,31.9103 111.4326,-57.9764 z"
       id="path3063-1"
       inkscape:connector-curvature="0"
       sodipodi:nodetypes="cscccc" />
    <path
       style="color:#000000;display:inline;overflow:visible;visibility:visible;fill:#ffffff;fill-opacity:1;fill-rule:nonzero;stroke:none;stroke-width:1px;marker:none;enable-background:accumulate"
       d="m 1914.396,2252.1692 c 22.3054,-20.1955 110.1395,-37.5444 197.8638,-35.4259 87.7242,2.1186 171.8018,13.2104 223.1996,63.0198 75.7258,73.3855 41.2341,241.1739 2.0134,269.4085 -28.425,20.4627 -113.4994,38.8225 -194.9828,40.8871 -81.4832,2.0649 -159.3755,-12.1652 -197.4312,-30.6569 -32.8432,-15.9588 -80.6946,-59.3877 -84.6018,-164.4222 -1.5945,-42.869 9.3287,-102.4188 53.939,-142.8104 z"
       id="path4040"
       inkscape:connector-curvature="0"
       sodipodi:nodetypes="ssssssss" />
    <path
       style="color:#000000;display:inline;overflow:visible;visibility:visible;fill:#ffffff;fill-opacity:1;fill-rule:nonzero;stroke:none;stroke-width:1px;marker:none;enable-background:accumulate"
       d="m 2091.5868,2235.6031 c -12.6779,-33.6245 -30.9699,-60.7293 -65.977,-55.676 52.3023,-18.546 92.9308,35.3617 103.6224,53.2726 10.6914,17.9109 -37.6454,2.4034 -37.6454,2.4034 z"
       id="path5010"
       inkscape:connector-curvature="0" />
    <path
       style="color:#000000;display:inline;overflow:visible;visibility:visible;fill:#ffffff;fill-opacity:1;fill-rule:nonzero;stroke:none;stroke-width:1px;marker:none;enable-background:accumulate"
       d="m 589.19653,2726.3612 c -1.22698,-26.3558 12.3258,-45.2414 63.85643,-62.4534 51.53087,-17.2119 124.66319,-9.0026 143.85163,-8.4347 90.04631,2.665 120.21817,11.5648 138.62194,30.9284 18.40389,19.3634 23.10564,15.1087 22.45523,48.6465 -0.58229,30.0255 -5.78422,44.1361 -27.8688,50.5905 -22.0847,6.4545 -191.74536,13.8487 -217.86599,13.5611 -25.57408,-0.2816 -58.13545,-3.5096 -83.49079,-14.0823 -23.93605,-9.9808 -38.33275,-32.4002 -39.55965,-58.7561 z"
       id="path3373"
       inkscape:connector-curvature="0"
       sodipodi:nodetypes="zsssssssz" />
    <path
       style="color:#000000;display:inline;overflow:visible;visibility:visible;fill:#ffffff;fill-opacity:1;fill-rule:nonzero;stroke:none;stroke-width:1px;marker:none;enable-background:accumulate"
       d="m 681.6041,2857.9187 c 9.37295,-68.447 79.42521,-107.7189 283.021,-111.8075 53.249,-1.0693 137.2217,17.4372 179.038,33.397 41.8164,15.9598 72.6267,76.0534 66.3782,126.2086 -12.4973,100.3103 -143.0789,83.591 -179.0087,84.7711 -35.92969,1.1803 -295.9444,22.2443 -337.75508,-38.5274 -31.38462,-45.6174 -13.23556,-72.7995 -11.67342,-94.0418 z"
       id="path4546"
       inkscape:connector-curvature="0"
       sodipodi:nodetypes="csssssc" />
    <path
       style="color:#000000;display:inline;overflow:visible;visibility:visible;fill:#ffffff;fill-opacity:1;fill-rule:nonzero;stroke:none;stroke-width:1px;marker:none;enable-background:accumulate"
       d="m 864.77409,2990.4513 c 31.03786,-39.6698 199.85571,-36.2833 256.02451,-19.0964 56.1686,17.1867 80.4507,21.8571 79.6811,57.2893 -0.7205,33.1719 -18.834,64.1707 -47.5716,73.719 -28.7374,9.5482 -96.1156,9.3505 -124.8531,9.3505 -28.73741,0 -120.47366,-6.0774 -143.6874,-20.0513 -22.20623,-13.3675 -50.6315,-61.5414 -19.59351,-101.2111 z"
       id="path3330"
       inkscape:connector-curvature="0"
       sodipodi:nodetypes="zsssssz" />
    <path
       style="color:#000000;display:inline;overflow:visible;visibility:visible;fill:#ffffff;fill-opacity:1;fill-rule:nonzero;stroke:none;stroke-width:1px;marker:none;enable-background:accumulate"
       d="m 933.09499,3160.516 c 39.78505,-10.9584 53.20162,-17.1208 58.43434,-65.1641 5.23266,-48.0433 23.16177,-44.6696 23.16177,-44.6696 l 14.7504,30.3838 c 0,0 -18.3423,101.2684 -96.34651,79.4499 z"
       id="path3072"
       inkscape:connector-curvature="0" />
    <path
       style="fill:#ffffff;fill-rule:evenodd;stroke:none;stroke-width:1px;stroke-linecap:butt;stroke-linejoin:miter;stroke-opacity:1"
       d="m 1893.2135,3239.5273 c 34.0206,2.1524 78.3275,-8.5621 50.8231,-40.9681 49.501,25.9662 96.3931,30.83 145.7596,2.4031 -7.2165,28.6978 73.5017,30.9119 101.1596,11.9225 -8.4388,29.906 30.3652,31.0596 62.7907,32.0091 -68.593,36.5615 -32.574,48.1891 -5.5462,61.9598 -67.4104,-10.1884 -51.107,10.4551 -59.1585,22.1285 -57.828,-26.449 -99.8826,-20.1718 -133.1069,4.4257 -17.3765,-13.3768 -22.8308,-41.0242 -86.889,1.4752 23.5558,-36.6892 -7.3205,-32.8382 -57.3099,-14.7522 11.5011,-8.4337 59.9085,-30.9658 -18.5225,-28.9705 12.2474,-2.97 22.075,-6.2033 29.0013,-9.7524 6.9263,-3.5491 -37.6111,-13.0242 -36.9691,-17.2571 0.6422,-4.2329 46.4637,-3.2235 39.8585,-8.2451 -6.6053,-5.0215 -17.075,-10.4635 -31.8907,-16.3785 z"
       id="path4584"
       inkscape:connector-curvature="0"
       sodipodi:nodetypes="cccccccccccsssc" />
    <path
       style="color:#000000;display:inline;overflow:visible;visibility:visible;fill:#ffffff;fill-opacity:1;fill-rule:nonzero;stroke:none;stroke-width:1px;marker:none;enable-background:accumulate"
       d="m 1929.0839,3276.1051 c -26.7744,0.1934 -96.6935,-12.0611 -103.8888,-13.0148 6.0705,-5.4371 10.1298,-10.8932 13.4021,-15.1162 -13.7156,-0.9263 -59.5001,-2.596 -79.7676,1.5975 50.7453,-11.4228 73.8083,-12.6417 95.8809,-9.8645 -2.9601,5.998 -5.8701,9.4267 -7.3188,12.6033 18.7307,6.708 117.9634,8.8349 106.078,1.4065 z"
       id="path5066"
       inkscape:connector-curvature="0"
       sodipodi:nodetypes="cccccccc" />
  </g>
  <g
     inkscape:groupmode="layer"
     id="layer1"
     inkscape:label="txt">
    <text
       xml:space="preserve"
       style="font-style:normal;font-variant:normal;font-weight:normal;font-stretch:normal;font-size:12px;line-height:125%;font-family:Lavi;-inkscape-font-specification:Lavi;text-align:center;letter-spacing:0px;word-spacing:0px;text-anchor:middle;fill:#000000;fill-opacity:1;stroke:none"
       x="2137.0017"
       y="2370.491"
       id="text4246"
       sodipodi:linespacing="125%"><tspan
         sodipodi:role="line"
         style="font-size:45px"
         x="2137.0017"
         y="2370.491"
         id="tspan4252" /></text>
    <text
       xml:space="preserve"
       style="font-style:normal;font-variant:normal;font-weight:normal;font-stretch:normal;font-size:12px;line-height:125%;font-family:Lavi;-inkscape-font-specification:Lavi;text-align:center;letter-spacing:0px;word-spacing:0px;text-anchor:middle;fill:#000000;fill-opacity:1;stroke:none"
       x="1218.851"
       y="2032.8386"
       id="text4246-3"
       sodipodi:linespacing="125%"><tspan
         sodipodi:role="line"
         style="font-size:45px"
         x="1218.851"
         y="2032.8386"
         id="tspan4170">N'eus ket</tspan><tspan
         sodipodi:role="line"
         style="font-size:45px"
         x="1218.851"
         y="2089.0886"
         id="tspan4179">ezhomm ken da evezhiañ</tspan><tspan
         sodipodi:role="line"
         style="font-size:45px"
         x="1226.7611"
         y="2145.3386"
         id="tspan4183">ouzhit pelloc'h... </tspan></text>
    <text
       xml:space="preserve"
       style="font-style:normal;font-variant:normal;font-weight:normal;font-stretch:normal;font-size:12px;line-height:125%;font-family:Lavi;-inkscape-font-specification:Lavi;text-align:center;letter-spacing:0px;word-spacing:0px;text-anchor:middle;fill:#000000;fill-opacity:1;stroke:none"
       x="1242.4561"
       y="2217.5215"
       id="text4246-3-7"
       sodipodi:linespacing="125%"><tspan
         sodipodi:role="line"
         style="font-size:45px"
         x="1242.4561"
         y="2217.5215"
         id="tspan4214">Laka douar 'ta</tspan><tspan
         sodipodi:role="line"
         style="font-size:45px"
         x="1242.4561"
         y="2273.7715"
         id="tspan4218">war an holl zrammoù</tspan><tspan
         sodipodi:role="line"
         style="font-size:45px"
         x="1242.4561"
         y="2330.0215"
         id="tspan4220">c'hwitet-se ha kae d'ar gêr</tspan><tspan
         sodipodi:role="line"
         style="font-size:45px"
         x="1242.4561"
         y="2386.2715"
         id="tspan4222">an abretañ ar gwellañ</tspan><tspan
         sodipodi:role="line"
         style="font-size:45px"
         x="1250.3662"
         y="2442.5215"
         id="tspan4186">da ziskuizhañ. </tspan></text>
    <text
       xml:space="preserve"
       style="font-style:normal;font-variant:normal;font-weight:normal;font-stretch:normal;font-size:12px;line-height:125%;font-family:Lavi;-inkscape-font-specification:Lavi;text-align:center;letter-spacing:0px;word-spacing:0px;text-anchor:middle;fill:#000000;fill-opacity:1;stroke:none"
       x="2126.8633"
       y="2299.1389"
       id="text4246-3-7-6"
       sodipodi:linespacing="125%"><tspan
         sodipodi:role="line"
         style="font-size:45px"
         x="2126.8633"
         y="2299.1389"
         id="tspan4268">Da welet oc'h ober</tspan><tspan
         sodipodi:role="line"
         style="font-size:45px"
         x="2126.8633"
         y="2355.3889"
         id="tspan4188">tro-vat en ur fardañ</tspan><tspan
         sodipodi:role="line"
         style="font-size:45px"
         x="2126.8633"
         y="2411.6389"
         id="tspan4190">unan warc'hoazh</tspan><tspan
         sodipodi:role="line"
         style="font-size:45px"
         x="2126.8633"
         y="2467.8889"
         id="tspan4219">a vo un hunvre</tspan><tspan
         sodipodi:role="line"
         style="font-size:45px"
         x="2126.8633"
         y="2524.1389"
         id="tspan4193">deuet da wir, piv 'oar!</tspan></text>
    <text
       xml:space="preserve"
       style="font-style:normal;font-variant:normal;font-weight:normal;font-stretch:normal;font-size:12px;line-height:125%;font-family:Lavi;-inkscape-font-specification:Lavi;text-align:center;letter-spacing:0px;word-spacing:0px;text-anchor:middle;fill:#000000;fill-opacity:1;stroke:none"
       x="775.45044"
       y="2707.4324"
       id="text4246-3-7-6-7"
       sodipodi:linespacing="125%"><tspan
         sodipodi:role="line"
         style="font-size:45px"
         x="775.45044"
         y="2707.4324"
         id="tspan4364">Mat eo</tspan><tspan
         sodipodi:role="line"
         style="font-size:45px"
         x="783.3606"
         y="2763.6824"
         id="tspan4515">hastañ 'ran! </tspan></text>
    <text
       xml:space="preserve"
       style="font-style:normal;font-variant:normal;font-weight:normal;font-stretch:normal;font-size:12px;line-height:125%;font-family:Lavi;-inkscape-font-specification:Lavi;text-align:center;letter-spacing:0px;word-spacing:0px;text-anchor:middle;fill:#000000;fill-opacity:1;stroke:none;stroke-width:1.29999995;stroke-miterlimit:4;stroke-dasharray:none"
       x="936.81274"
       y="2832.0046"
       id="text4246-3-7-6-7-0"
       sodipodi:linespacing="125%"><tspan
         sodipodi:role="line"
         style="font-size:45px;stroke-width:1.29999995;stroke-miterlimit:4;stroke-dasharray:none"
         x="936.81274"
         y="2832.0046"
         id="tspan4423">Pa soñjan, petra eo se</tspan><tspan
         sodipodi:role="line"
         style="font-size:45px;stroke-width:1.29999995;stroke-miterlimit:4;stroke-dasharray:none"
         x="936.81274"
         y="2888.2546"
         id="tspan4431">kaout c'hoant da zouarañ</tspan><tspan
         sodipodi:role="line"
         style="font-size:45px;stroke-width:1.29999995;stroke-miterlimit:4;stroke-dasharray:none"
         x="936.81274"
         y="2944.5046"
         id="tspan4433"><tspan
           style="stroke:#000000;stroke-width:1.29999995;stroke-miterlimit:4;stroke-dasharray:none;stroke-opacity:1"
           id="tspan4550">pep tra dalc'hmat?</tspan></tspan></text>
    <text
       xml:space="preserve"
       style="font-style:normal;font-variant:normal;font-weight:normal;font-stretch:normal;font-size:12px;line-height:125%;font-family:Lavi;-inkscape-font-specification:Lavi;text-align:center;letter-spacing:0px;word-spacing:0px;text-anchor:middle;fill:#000000;fill-opacity:1;stroke:none"
       x="1026.5442"
       y="3019.0105"
       id="text4246-3-7-6-7-0-9"
       sodipodi:linespacing="125%"><tspan
         sodipodi:role="line"
         style="font-size:45px"
         x="1026.5442"
         y="3019.0105"
         id="tspan4464">Ne vefe ket</tspan><tspan
         sodipodi:role="line"
         style="font-size:45px"
         x="1026.5442"
         y="3075.2605"
         id="tspan4231">gwelloc'h ma...</tspan></text>
    <text
       xml:space="preserve"
       style="font-style:normal;font-variant:normal;font-weight:normal;font-stretch:normal;font-size:12px;line-height:125%;font-family:Lavi;-inkscape-font-specification:Lavi;text-align:center;letter-spacing:0px;word-spacing:0px;text-anchor:middle;fill:#000000;fill-opacity:1;stroke:none;stroke-width:2.5999999;stroke-miterlimit:4;stroke-dasharray:none"
       x="2069.533"
       y="3281.2891"
       id="text4246-3-7-6-7-0-9-3"
       sodipodi:linespacing="125%"><tspan
         sodipodi:role="line"
         style="font-size:45px;stroke-width:2.5999999;stroke-miterlimit:4;stroke-dasharray:none"
         x="2069.533"
         y="3281.2891"
         id="tspan4464-5">ma... <tspan
   style="stroke:#000000;stroke-width:2.5999999;stroke-miterlimit:4;stroke-dasharray:none;stroke-opacity:1"
   id="tspan4493">PETRA</tspan>?</tspan></text>
    <text
       xml:space="preserve"
       style="font-style:normal;font-variant:normal;font-weight:normal;font-stretch:normal;font-size:12px;line-height:125%;font-family:Lavi;-inkscape-font-specification:Lavi;text-align:center;letter-spacing:0px;word-spacing:0px;text-anchor:middle;fill:#000000;fill-opacity:1;stroke:none"
       x="1180.7623"
       y="1906.1527"
       id="text4246-3-9"
       sodipodi:linespacing="125%"><tspan
         sodipodi:role="line"
         style="font-size:45px"
         x="1180.7623"
         y="1906.1527"
         id="tspan4183-8">Ec'h an</tspan><tspan
         sodipodi:role="line"
         style="font-size:45px"
         x="1188.6725"
         y="1962.4027"
         id="tspan4180">d'ar gêr. </tspan></text>
  </g>
</svg>
