<?xml version="1.0" encoding="UTF-8" standalone="no"?>
<!-- Created with Inkscape (http://www.inkscape.org/) -->

<svg
   xmlns:dc="http://purl.org/dc/elements/1.1/"
   xmlns:cc="http://creativecommons.org/ns#"
   xmlns:rdf="http://www.w3.org/1999/02/22-rdf-syntax-ns#"
   xmlns:svg="http://www.w3.org/2000/svg"
   xmlns="http://www.w3.org/2000/svg"
   xmlns:xlink="http://www.w3.org/1999/xlink"
   xmlns:sodipodi="http://sodipodi.sourceforge.net/DTD/sodipodi-0.dtd"
   xmlns:inkscape="http://www.inkscape.org/namespaces/inkscape"
   id="svg2"
   version="1.1"
   inkscape:version="0.48.1 r9760"
   width="2481"
   height="3503"
   sodipodi:docname="Pepper-and-Carrot_by-David-Revoy_E19P02.svg">
  <metadata
     id="metadata8">
    <rdf:RDF>
      <cc:Work
         rdf:about="">
        <dc:format>image/svg+xml</dc:format>
        <dc:type
           rdf:resource="http://purl.org/dc/dcmitype/StillImage" />
        <dc:title />
      </cc:Work>
    </rdf:RDF>
  </metadata>
  <defs
     id="defs6">
    <filter
       inkscape:collect="always"
       style="color-interpolation-filters:sRGB"
       id="filter5236-4-16-3"
       x="-0.0089085409"
       width="1.0178171"
       y="-0.027928527"
       height="1.0558571">
      <feGaussianBlur
         inkscape:collect="always"
         stdDeviation="0.49168068"
         id="feGaussianBlur5238-0-4-6" />
    </filter>
    <filter
       inkscape:collect="always"
       style="color-interpolation-filters:sRGB"
       id="filter5236-4-16"
       x="-0.0089085409"
       width="1.0178171"
       y="-0.027928527"
       height="1.0558571">
      <feGaussianBlur
         inkscape:collect="always"
         stdDeviation="0.49168068"
         id="feGaussianBlur5238-0-4" />
    </filter>
  </defs>
  <sodipodi:namedview
     pagecolor="#ffffff"
     bordercolor="#666666"
     borderopacity="1"
     objecttolerance="10"
     gridtolerance="10"
     guidetolerance="10"
     inkscape:pageopacity="0"
     inkscape:pageshadow="2"
     inkscape:window-width="1280"
     inkscape:window-height="752"
     id="namedview4"
     showgrid="false"
     inkscape:zoom="0.4224276"
     inkscape:cx="1373.8345"
     inkscape:cy="2781.9394"
     inkscape:window-x="23"
     inkscape:window-y="0"
     inkscape:window-maximized="0"
     inkscape:current-layer="layer1" />
  <g
     inkscape:groupmode="layer"
     id="layer2"
     inkscape:label="artwork"
     sodipodi:insensitive="true">
    <image
       sodipodi:absref="/Users/su_huynh/Downloads/peppercarrot_ep19_translation-master/vi/../gfx_Pepper-and-Carrot_by-David-Revoy_E19P02.png"
       xlink:href="../gfx_Pepper-and-Carrot_by-David-Revoy_E19P02.png"
       y="0"
       x="0"
       id="image10"
       height="3503"
       width="2481" />
  </g>
  <g
     inkscape:groupmode="layer"
     id="layer4"
     inkscape:label="translatornotes"
     sodipodi:insensitive="true">
    <path
       inkscape:connector-curvature="0"
       id="path3446"
       d="m 2763.8482,1498.4924 0,-189.0352 -203.8301,0 0,90.9805 -10,0 0,-15.6308 -30.9824,26.9824 30.9824,26.9804 0,-16.6171 10,0 0,76.3398 203.8301,0 z"
       style="color:#000000;clip-rule:nonzero;display:inline;overflow:visible;visibility:visible;opacity:0.481;isolation:auto;mix-blend-mode:normal;color-interpolation:sRGB;color-interpolation-filters:linearRGB;solid-color:#000000;solid-opacity:1;fill:#ffe680;fill-opacity:1;fill-rule:nonzero;stroke:#565656;stroke-width:1.20000005;stroke-linecap:butt;stroke-linejoin:miter;stroke-miterlimit:4;stroke-dasharray:none;stroke-dashoffset:0;stroke-opacity:1;marker:none;color-rendering:auto;image-rendering:auto;shape-rendering:auto;text-rendering:auto;enable-background:accumulate" />
    <flowRoot
       transform="translate(2793.4167,295.2096)"
       style="font-style:normal;font-variant:normal;font-weight:normal;font-stretch:normal;font-size:25.3241539px;line-height:125%;font-family:Lavi;-inkscape-font-specification:'Lavi, Normal';text-align:center;letter-spacing:0px;word-spacing:0px;writing-mode:lr-tb;text-anchor:middle;display:inline;opacity:0.481;fill:#000000;fill-opacity:1;stroke:none;stroke-width:1px;stroke-linecap:butt;stroke-linejoin:miter;stroke-opacity:1"
       id="flowRoot3448"
       xml:space="preserve"><flowRegion
         id="flowRegion3450"><rect
           y="1061.6674"
           x="-275.14545"
           height="247.52747"
           width="291.95547"
           id="rect3452" /></flowRegion><flowPara
         id="flowPara3473">labels</flowPara><flowPara
         id="flowPara4255">in the </flowPara><flowPara
         id="flowPara4257">garden :-)</flowPara></flowRoot>  </g>
  <g
     inkscape:groupmode="layer"
     id="layer3"
     inkscape:label="speechbubbles"
     style="display:inline">
    <path
       style="color:#000000;fill:#ffffff;fill-opacity:1;fill-rule:nonzero;stroke:none;stroke-width:1px;marker:none;visibility:visible;display:inline;overflow:visible;enable-background:accumulate"
       d="m 989.60858,204.52874 c 31.35072,-33.27491 330.61122,-52.28964 425.17722,1.14813 78.9326,44.60374 88.6567,141.48874 30.0171,167.96102 -58.6395,26.47238 -290.3984,27.59731 -384.556,16.62641 -89.65122,-10.44584 -100.12971,-37.67302 -116.33293,-105.67133 -6.61332,-27.75276 14.34338,-46.78923 45.69461,-80.06423 z"
       id="path4040-4"
       inkscape:connector-curvature="0"
       sodipodi:nodetypes="zssssz" />
    <path
       style="color:#000000;fill:#ffffff;fill-opacity:1;fill-rule:nonzero;stroke:none;stroke-width:1px;marker:none;visibility:visible;display:inline;overflow:visible;enable-background:accumulate"
       d="m 1242.2877,465.34489 c 6.3056,-59.38296 69.326,-101.64775 230.6434,-87.18931 86.4102,7.74467 184.5897,13.66376 176.3565,100.67592 -8.2332,87.01207 -149.4205,81.91561 -178.6199,83.36377 -29.1994,1.44824 -180.8655,-10.76123 -206.802,-40.94088 -16.2358,-18.89166 -22.4396,-37.49621 -21.578,-55.9095 z"
       id="path4546-6"
       inkscape:connector-curvature="0"
       sodipodi:nodetypes="cssssc" />
    <path
       style="color:#000000;fill:#ffffff;fill-opacity:1;fill-rule:nonzero;stroke:none;stroke-width:1px;marker:none;visibility:visible;display:inline;overflow:visible;enable-background:accumulate"
       d="m 1435.3666,597.42803 c 39.1696,-56.53134 244.4012,-44.42084 317.0767,-31.70856 107.8941,18.87273 103.2848,71.16786 106.5818,86.13526 3.2968,14.96728 -4.9454,84.36126 -41.2119,97.96804 -36.2665,13.60664 -140.1205,20.40995 -176.387,20.40995 -36.2664,0 -152.037,-8.66058 -181.3327,-28.57405 -28.0241,-19.04932 -63.8968,-87.69942 -24.7269,-144.23064 z"
       id="path3330"
       inkscape:connector-curvature="0"
       sodipodi:nodetypes="zsssssz" />
    <path
       style="color:#000000;display:inline;overflow:visible;visibility:visible;fill:#ffffff;fill-opacity:1;fill-rule:nonzero;stroke:none;stroke-width:1px;marker:none;enable-background:accumulate"
       d="m 1537.5273,696.39507 c -4.748,19.68499 -0.6503,33.38997 2.5742,37.35036 3.2245,3.96027 2.3513,12.12365 5.2378,17.57337 2.3614,4.51862 3.5729,10.81257 -0.8434,12.64306 -4.4163,1.83058 -29.4289,3.69855 -33.6755,16.66121 -4.2467,12.96272 3.9771,24.00648 14.1454,30.32451 10.1684,6.31815 24.4145,10.44127 22.2717,20.40102 -2.1427,9.95976 -9.8422,13.23017 -15.8741,13.66024 -6.0318,0.43007 -42.6593,-1.86158 -51.9545,1.56498 -9.295,3.4266 -34.8875,18.35716 -31.0179,31.36521 11.9004,-13.15184 18.3151,-19.01847 27.1348,-20.36055 8.8198,-1.34212 24.7212,-5.09072 34.6744,-1.78852 9.9534,3.30225 30.2251,7.01956 38.1327,2.88942 7.9077,-4.13 22.6869,-13.91278 22.9796,-24.81049 0.2928,-10.89767 -5.2053,-22.98724 -21.3925,-31.19418 -10.1682,-6.31811 -14.5522,-10.2849 -13.6078,-13.29434 0.9444,-3.00939 11.8681,-7.35452 23.4562,-6.13032 11.5882,1.22424 17.0469,-9.49086 18.0108,-15.97871 0.9638,-6.48781 -2.7884,-15.67273 -3.2186,-21.7046 -0.4301,-6.03183 -6.7045,-40.19004 -6.7045,-40.19004 z"
       id="path5058"
       inkscape:connector-curvature="0"
       sodipodi:nodetypes="cscsssssscssssccscccc" />
    <path
       style="color:#000000;fill:#ffffff;fill-opacity:1;fill-rule:nonzero;stroke:none;stroke-width:1px;marker:none;visibility:visible;display:inline;overflow:visible;enable-background:accumulate"
       d="m 1371.986,1846.3516 c 7.2113,-69.8494 46.7621,-95.0896 133.7065,-98.7527 43.1677,-1.8188 199.5149,-8.1256 262.891,4.5118 63.376,12.6375 117.6255,51.3422 112.818,102.5251 -4.8074,51.1828 -10.4938,90.8284 -79.7071,105.3166 -69.2132,14.4881 -201.9531,3.8187 -215.7749,4.4209 -27.6429,1.2043 -170.8108,-15.7854 -194.7034,-51.7851 -14.9563,-22.5348 -20.432,-44.559 -19.2301,-66.2366 z"
       id="path4546-6-3"
       inkscape:connector-curvature="0"
       sodipodi:nodetypes="cssssssc" />
    <path
       style="color:#000000;fill:#ffffff;fill-opacity:1;fill-rule:nonzero;stroke:none;stroke-width:1px;marker:none;visibility:visible;display:inline;overflow:visible;enable-background:accumulate"
       d="m 1790.9932,1983.0096 c -1.8205,-13.9006 18.1404,-72.4119 129.1956,-63.1448 111.0552,9.2671 122.6546,20.9339 127.722,70.8244 1.8728,18.4386 -15.4095,45.3021 -31.7946,49.9356 -16.3853,4.6335 -64.2926,17.7137 -91.6012,14.007 -27.3088,-3.7069 -67.6202,-2.8275 -107.7994,-22.2636 -24.2504,-11.7307 -23.9018,-45.6518 -25.7224,-49.3586 z"
       id="path3365"
       inkscape:connector-curvature="0"
       sodipodi:nodetypes="csssssc" />
    <path
       style="fill:#ffffff;fill-opacity:1;stroke:none"
       d="m 1786.0479,2154.8346 c -10.0513,-97.1032 61.5225,-130.787 252.1456,-130.6492 190.6232,0.1375 267.7548,27.7814 275.7644,85.5959 17.9102,129.2786 -99.0918,161.5219 -161.7963,169.5465 -125.25,16.0288 -306.2576,-14.1316 -331.8326,-41.2069 -25.5751,-27.0754 -32.0745,-57.8976 -34.2811,-83.2863 z"
       id="path3238"
       inkscape:connector-curvature="0"
       sodipodi:nodetypes="cssssc" />
    <path
       style="color:#000000;fill:#ffffff;fill-opacity:1;fill-rule:nonzero;stroke:none;stroke-width:1px;marker:none;visibility:visible;display:inline;overflow:visible;enable-background:accumulate"
       d="m 1882.8016,2271.7967 c -30.6436,39.5697 -91.823,73.3362 -171.3605,30.1552 76.0815,26.4581 119.8575,-5.9599 145.0149,-45.5895 21.7184,-34.2122 33.4899,-49.0683 33.4899,-49.0683 z"
       id="path4440"
       inkscape:connector-curvature="0"
       sodipodi:nodetypes="ccscc" />
    <path
       style="color:#000000;fill:#ffffff;fill-opacity:1;fill-rule:nonzero;stroke:none;stroke-width:1px;marker:none;visibility:visible;display:inline;overflow:visible;enable-background:accumulate"
       d="m 118.04244,2756.9074 c 29.0116,-10.9597 42.76248,-18.5558 0.50678,-34.3247 8.67604,-0.1198 57.09309,-2.1442 10.80184,-32.9366 15.2619,3.9749 39.66751,14.5291 12.19521,-36.5871 16.51839,8.1494 39.43074,34.2072 19.33238,-14.0742 21.76506,16.3179 50.43997,6.0013 44.56999,-2.5708 17.51662,10.4052 51.91738,9.5448 48.97064,0.7154 12.87874,9.6323 47.76759,12.4562 45.02968,-3.6881 10.70112,11.0973 43.91212,9.9541 40.6563,0.5253 28.05686,11.2241 68.61866,18.1422 83.94833,2.4934 13.08968,14.8098 73.97717,10.3376 125.04388,0.2295 0.79992,10.4538 57.63742,12.2889 103.95956,-4.7288 0.7011,15.8808 17.41692,21.2619 37.8432,9.5749 7.29431,6.5186 5.34748,10.3103 34.01252,-5.1216 -1.36848,10.6121 3.73378,20.4024 23.70564,10.2432 3.47913,6.5649 -9.25243,23.5801 41.22742,-1.2805 0.3337,9.2802 -11.51564,27.5037 31.95114,5.1216 -35.26111,55.1372 -15.71807,49.2359 8.24542,38.4113 -18.65838,32.5259 -42.7233,72.8685 4.69475,71.3855 -37.12877,7.514 -36.47969,18.687 -31.49245,36.1663 -46.53439,-35.1981 -52.00199,-8.4487 -72.14789,-3.8411 -21.26783,-5.8556 -40.86092,-27.3135 -65.96357,2.5608 -38.45597,-12.2937 -46.08029,-1.0176 -58.74899,6.402 -67.18557,-23.5924 -65.59854,-4.468 -95.85361,-5.1217 -17.88792,-29.1834 -58.25458,-7.1717 -87.60812,-10.2429 -37.10447,-23.9307 -92.31756,-2.9536 -121.20256,6.2711 14.11763,-14.9487 -20.64826,-28.2936 -53.71088,4.1237 16.41822,-27.3926 -10.5192,-36.628 -60.81029,-1.3493 23.63309,-32.458 -9.0517,-27.285 -45.65249,-6.4848 35.82126,-31.5409 -2.03145,-34.2446 -23.50383,-31.8718 z"
       id="path3557"
       inkscape:connector-curvature="0"
       sodipodi:nodetypes="cccccccccccccccccccccccccccccc" />
    <path
       style="color:#000000;fill:#ffffff;fill-opacity:1;fill-rule:nonzero;stroke:none;stroke-width:1px;marker:none;visibility:visible;display:inline;overflow:visible;enable-background:accumulate"
       d="m 299.46152,2839.5634 c 7.67483,-73.3533 84.9518,-126.6439 282.88922,-111.7966 106.02594,7.953 226.48963,13.4367 216.47838,120.9006 -10.01137,107.4636 -183.2412,103.79 -219.06486,106.116 -35.82365,2.3262 -221.91743,-9.926 -253.77055,-46.6664 -19.93931,-22.9987 -27.57021,-45.8287 -26.53219,-68.5536 z"
       id="path4546"
       inkscape:connector-curvature="0"
       sodipodi:nodetypes="cssssc" />
    <path
       style="color:#000000;display:inline;overflow:visible;visibility:visible;fill:#ffffff;fill-opacity:1;fill-rule:nonzero;stroke:none;stroke-width:1px;marker:none;enable-background:accumulate"
       d="m 990.3039,2942.0433 c -39.7219,-30.7338 -84.6659,-56.332 -118.3207,-93.0329 l 9.2071,41.4633 c -19.1495,-7.3977 -31.9655,-24.339 -46.9322,-38.0398 l 1.0996,26.2988 c -44.9905,-17.9715 -75.7521,-49.3371 -113.3909,-74.2288 l 5.8989,45.8738 c 41.0512,21.0955 84.9859,35.8216 122.7937,64.0815 l 1.7812,-25.6614 c 14.445,8.0961 28.5921,16.7337 41.4085,27.7896 l -0.8973,-32.5393 z"
       id="path4032-6"
       inkscape:connector-curvature="0"
       sodipodi:nodetypes="cccccccccccc" />
    <path
       style="fill:#ffffff;stroke:none"
       d="m 1699.0736,2771.0202 c 6.1989,-60.4636 43.5866,-85.0538 60.5514,-93.079 16.9645,-8.0252 88.1836,-18.3199 134.7057,-16.548 46.5221,1.7719 161.8489,10.4999 181.244,13.4066 19.3951,2.9066 71.1372,48.234 70.5822,87.2344 -0.555,39.0001 -10.9297,64.619 -39.1987,87.3886 -28.2692,22.7698 -196.9205,27.1856 -207.3112,24.6219 -10.391,-2.5636 -149.1581,-23.0237 -157.8198,-29.8572 -8.6615,-6.8334 -43.7652,-25.5131 -42.7536,-73.1673 z"
       id="path3278"
       inkscape:connector-curvature="0" />
    <path
       style="color:#000000;fill:#ffffff;fill-opacity:1;fill-rule:nonzero;stroke:none;stroke-width:1px;marker:none;visibility:visible;display:inline;overflow:visible;enable-background:accumulate"
       d="m 1767.3691,2889.6679 c 36.5968,-41.3753 345.5139,-86.2859 454.0871,-1.0199 108.5731,85.2659 42.7173,187.5852 -19.5789,220.1413 -62.296,32.5562 -245.6245,68.2128 -329.2795,40.3076 -83.6546,-27.9053 -148.8166,-69.6182 -153.0704,-155.0291 -1.7361,-34.8596 11.2451,-63.0244 47.8417,-104.3999 z"
       id="path4040"
       inkscape:connector-curvature="0"
       sodipodi:nodetypes="zssssz" />
    <path
       style="fill:#ffffff;fill-rule:evenodd;stroke:none;display:inline"
       d="m 1915.2094,3140.1704 c 39.6165,26.2723 62.1826,15.5884 61.5026,-45.4808 18.9008,65.9927 32.017,80.7521 39.7959,48.2372 25.0234,27.9479 40.6526,20.1083 53.0612,0 4.625,25.8606 14.5433,15.4251 23.127,14.1405 2.8272,5.8507 -6.8828,20.3867 32.346,1.0197 2.5409,7.7442 5.964,14.4132 28.9423,-2.7564 5.953,31.4326 25.0528,-1.7421 44.6198,-37.2116 -12.1909,43.6068 -7.1358,49.7658 8.4414,33.0769 -7.1218,17.9576 -11.3814,31.8587 15.6772,1.3783 -9.2635,33.146 15.0391,10.3947 54.2671,-37.2114 -19.6224,35.1901 -71.6565,94.5004 -37.3839,89.583 -4.7796,10.3742 -21.8279,19.413 28.9423,35.8333 -9.4781,7.0396 -38.4145,-3.2474 -14.2764,26.5589 3.2341,3.4841 -7.5926,5.6117 13.0705,14.7871 -12.1977,-0.6242 -19.6782,1.6057 -8.4417,15.1603 -22.2652,-0.733 -13.9344,13.5197 2.412,31.6985 -32.2432,-23.3182 -34.0176,-14.8434 -34.9722,-5.5127 -40.4103,-31.7907 -42.7822,-21.7817 -48.2372,-15.1603 -19.697,0.2481 -39.3941,-3.7554 -59.091,31.6986 -5.1583,-22.0513 -15.5002,-39.0252 -59.0908,-23.4293 19.1396,-28.0533 -8.0889,-10.1805 -28.9425,1.3781 11.4199,-35.0456 -17.5619,-12.0452 -54.267,22.0512 20.5547,-38.7 -2.7906,-24.7206 -37.3841,2.7565 13.0706,-38.019 -8.2159,-56.4055 -59.0907,-57.8845 24.3502,-13.7139 38.5499,-30.9724 13.2653,-62.0191 28.503,9.1418 37.005,0.6504 16.8831,-33.0769 31.0891,27.6831 16.9541,-12.4697 4.8238,-49.6151 z"
       id="path4508"
       inkscape:connector-curvature="0"
       sodipodi:nodetypes="cccccccccccccccccccccccccccc" />
    <path
       style="color:#000000;display:inline;overflow:visible;visibility:visible;fill:#ffffff;fill-opacity:1;fill-rule:nonzero;stroke:none;stroke-width:1px;marker:none;enable-background:accumulate"
       d="m 1490.4164,2866.2226 c 36.6716,-30.7338 78.1642,-56.332 109.2346,-93.0329 l -8.5001,41.4633 c 17.679,-7.3977 29.5108,-24.339 43.3282,-38.0398 l -1.0152,26.2988 c 41.5356,-17.9715 69.9349,-49.3371 104.6834,-74.2288 l -5.4459,45.8738 c -37.8988,21.0955 -78.4597,35.8216 -113.3641,64.0815 l -1.6444,-25.6614 c -13.3358,8.0961 -26.3965,16.7337 -38.2287,27.7896 l 0.8284,-32.5393 z"
       id="path4032"
       inkscape:connector-curvature="0"
       sodipodi:nodetypes="cccccccccccc" />
  </g>
  <g
     inkscape:groupmode="layer"
     id="layer1"
     inkscape:label="txt">
    <text
       xml:space="preserve"
       style="font-size:12px;font-style:normal;font-variant:normal;font-weight:500;font-stretch:normal;text-align:center;line-height:125%;letter-spacing:0px;word-spacing:0px;text-anchor:middle;fill:#000000;fill-opacity:1;stroke:none;font-family:'Rounded M+ 1c';-inkscape-font-specification:'Rounded M+ 1c Medium'"
       x="1194.6492"
       y="229.16325"
       id="text4246"
       sodipodi:linespacing="125%"><tspan
         sodipodi:role="line"
         style="font-size:45px;-inkscape-font-specification:'Rounded M+ 1c Medium';font-family:'Rounded M+ 1c';font-weight:500;font-style:normal;font-stretch:normal;font-variant:normal"
         x="1194.6492"
         y="229.16325"
         id="tspan4252">Ủi...</tspan></text>
    <text
       xml:space="preserve"
       style="font-size:12px;font-style:normal;font-variant:normal;font-weight:500;font-stretch:normal;text-align:center;line-height:125%;letter-spacing:0px;word-spacing:0px;text-anchor:middle;fill:#000000;fill-opacity:1;stroke:none;font-family:'Rounded M+ 1c';-inkscape-font-specification:'Rounded M+ 1c Medium'"
       x="1213.9131"
       y="293.91959"
       id="text4246-3"
       sodipodi:linespacing="125%"><tspan
         sodipodi:role="line"
         style="font-size:45px;font-style:normal;font-variant:normal;font-weight:500;font-stretch:normal;font-family:'Rounded M+ 1c';-inkscape-font-specification:'Rounded M+ 1c Medium'"
         x="1213.9131"
         y="293.91959"
         id="tspan3831">Đương nhiên tôi không</tspan><tspan
         sodipodi:role="line"
         style="font-size:45px;font-style:normal;font-variant:normal;font-weight:500;font-stretch:normal;font-family:'Rounded M+ 1c';-inkscape-font-specification:'Rounded M+ 1c Medium'"
         x="1213.9131"
         y="350.16959"
         id="tspan5353">phải một chuyên gia...</tspan></text>
    <text
       xml:space="preserve"
       style="font-size:12px;font-style:normal;font-variant:normal;font-weight:normal;font-stretch:normal;text-align:center;line-height:125%;letter-spacing:0px;word-spacing:0px;text-anchor:middle;fill:#000000;fill-opacity:1;stroke:none;font-family:Al Bayan;-inkscape-font-specification:Al Bayan"
       x="1447.9285"
       y="453.09341"
       id="text4246-3-7"
       sodipodi:linespacing="125%"><tspan
         sodipodi:role="line"
         style="font-size:45px;-inkscape-font-specification:'Rounded M+ 1c Medium';font-family:'Rounded M+ 1c';font-weight:500;font-style:normal;font-stretch:normal;font-variant:normal"
         x="1447.9285"
         y="453.09341"
         id="tspan3840">nhưng vườn củ</tspan><tspan
         sodipodi:role="line"
         style="font-size:45px;-inkscape-font-specification:'Rounded M+ 1c Medium';font-family:'Rounded M+ 1c';font-weight:500;font-style:normal;font-stretch:normal;font-variant:normal"
         x="1447.9285"
         y="511.02197"
         id="tspan5369">qủa này rất kỳ lạ</tspan></text>
    <text
       xml:space="preserve"
       style="font-size:12px;font-style:normal;font-variant:normal;font-weight:500;font-stretch:normal;text-align:center;line-height:125%;letter-spacing:0px;word-spacing:0px;text-anchor:middle;fill:#000000;fill-opacity:1;stroke:none;font-family:'Rounded M+ 1c';-inkscape-font-specification:'Rounded M+ 1c Medium'"
       x="1637.3901"
       y="619.19336"
       id="text4246-3-7-6"
       sodipodi:linespacing="125%"><tspan
         sodipodi:role="line"
         style="font-size:45px;-inkscape-font-specification:'Rounded M+ 1c Medium';font-family:'Rounded M+ 1c';font-weight:500;font-style:normal;font-stretch:normal;font-variant:normal"
         x="1637.3901"
         y="619.19336"
         id="tspan3849">và nhiều cây khác</tspan><tspan
         sodipodi:role="line"
         style="font-size:45px;-inkscape-font-specification:'Rounded M+ 1c Medium';font-family:'Rounded M+ 1c';font-weight:500;font-style:normal;font-stretch:normal;font-variant:normal"
         x="1637.3901"
         y="675.44336"
         id="tspan5360">xung quanh nhà</tspan><tspan
         sodipodi:role="line"
         style="font-size:45px;-inkscape-font-specification:'Rounded M+ 1c Medium';font-family:'Rounded M+ 1c';font-weight:500;font-style:normal;font-stretch:normal;font-variant:normal"
         x="1637.3901"
         y="733.37189"
         id="tspan5362">này cũng vậy.</tspan></text>
    <text
       sodipodi:linespacing="125%"
       id="text4178-6-5-9-0-7-0-4"
       style="font-size:9.76241112px;font-style:normal;font-variant:normal;font-weight:normal;font-stretch:normal;text-align:center;line-height:125%;letter-spacing:0px;word-spacing:0px;text-anchor:middle;opacity:0.63300003;fill:#ffffff;fill-opacity:1;stroke:none;filter:url(#filter5236-4-16);font-family:Lavi;-inkscape-font-specification:Lavi"
       xml:space="preserve"
       y="3129.8394"
       x="1318.7137"
       transform="matrix(0.6851492,-0.06612027,-0.09994133,0.78144216,149.5816,-965.35698)"><tspan
         y="3129.8394"
         x="1318.7137"
         style="font-size:40.67671585px;font-style:normal;font-variant:normal;font-weight:normal;font-stretch:normal;fill:#ffffff;fill-opacity:1;font-family:Fondamento;-inkscape-font-specification:Fondamento"
         sodipodi:role="line"
         id="tspan4293-1-6-3-5-0-2">Cà Chua</tspan></text>
    <text
       sodipodi:linespacing="125%"
       id="text4178-6-5-9-0-7-0-4-7"
       style="font-size:9.76241112px;font-style:normal;font-variant:normal;font-weight:normal;font-stretch:normal;text-align:center;line-height:125%;letter-spacing:0px;word-spacing:0px;text-anchor:middle;opacity:0.63300003;fill:#ffffff;fill-opacity:1;stroke:none;filter:url(#filter5236-4-16-3);font-family:Lavi;-inkscape-font-specification:Lavi"
       xml:space="preserve"
       y="3129.8394"
       x="1318.7137"
       transform="matrix(0.58543203,0.08325699,-0.38986142,0.70644422,2171.8616,-965.83592)"><tspan
         y="3129.8394"
         x="1318.7137"
         style="font-size:40.67671585px;font-style:normal;font-variant:normal;font-weight:normal;font-stretch:normal;fill:#ffffff;fill-opacity:1;font-family:Fondamento;-inkscape-font-specification:Fondamento"
         sodipodi:role="line"
         id="tspan4293-1-6-3-5-0-2-5">Cà Tím</tspan></text>
    <text
       xml:space="preserve"
       style="font-size:12px;font-style:normal;font-variant:normal;font-weight:500;font-stretch:normal;text-align:center;line-height:125%;letter-spacing:0px;word-spacing:0px;text-anchor:middle;fill:#000000;fill-opacity:1;stroke:none;font-family:'Rounded M+ 1c';-inkscape-font-specification:'Rounded M+ 1c Medium'"
       x="1627.533"
       y="1803.5331"
       id="text4246-3-2"
       sodipodi:linespacing="125%"><tspan
         sodipodi:role="line"
         style="font-size:45px;-inkscape-font-specification:'Rounded M+ 1c Medium';font-family:'Rounded M+ 1c';font-weight:500;font-style:normal;font-stretch:normal;font-variant:normal"
         x="1627.533"
         y="1803.5331"
         id="tspan3858">Còn mấy con kiến</tspan><tspan
         sodipodi:role="line"
         style="font-size:45px;-inkscape-font-specification:'Rounded M+ 1c Medium';font-family:'Rounded M+ 1c';font-weight:500;font-style:normal;font-stretch:normal;font-variant:normal"
         x="1627.533"
         y="1861.4617"
         id="tspan5380">đang phát triển công</tspan><tspan
         sodipodi:role="line"
         style="font-size:45px;-inkscape-font-specification:'Rounded M+ 1c Medium';font-family:'Rounded M+ 1c';font-weight:500;font-style:normal;font-stretch:normal;font-variant:normal"
         x="1627.533"
         y="1919.3901"
         id="tspan5382">trình rất phí thương.</tspan></text>
    <text
       xml:space="preserve"
       style="font-size:12px;font-style:normal;font-variant:normal;font-weight:500;font-stretch:normal;text-align:center;line-height:125%;letter-spacing:0px;word-spacing:0px;text-anchor:middle;fill:#000000;fill-opacity:1;stroke:none;font-family:'Rounded M+ 1c';-inkscape-font-specification:'Rounded M+ 1c Medium'"
       x="1928.5547"
       y="1997.0601"
       id="text4246-3-2-9"
       sodipodi:linespacing="125%"><tspan
         sodipodi:role="line"
         style="font-size:45px;-inkscape-font-specification:'Rounded M+ 1c Medium';font-family:'Rounded M+ 1c';font-weight:500;font-style:normal;font-stretch:normal;font-variant:normal"
         x="1928.5547"
         y="1997.0601"
         id="tspan4259-0">Cho nên...</tspan></text>
    <text
       xml:space="preserve"
       style="font-size:12px;font-style:normal;font-variant:normal;font-weight:500;font-stretch:normal;text-align:center;line-height:125%;letter-spacing:0px;word-spacing:0px;text-anchor:middle;fill:#000000;fill-opacity:1;stroke:none;font-family:'Rounded M+ 1c';-inkscape-font-specification:'Rounded M+ 1c Medium'"
       x="2053.186"
       y="2093.1831"
       id="text4246-3-2-9-6"
       sodipodi:linespacing="125%"><tspan
         sodipodi:role="line"
         style="font-size:45px;-inkscape-font-specification:'Rounded M+ 1c Medium';font-family:'Rounded M+ 1c';font-weight:500;font-style:normal;font-stretch:normal;font-variant:normal"
         x="2053.186"
         y="2093.1831"
         id="tspan3888">Tôi nghĩ có lẻ chúng</tspan><tspan
         sodipodi:role="line"
         style="font-size:45px;-inkscape-font-specification:'Rounded M+ 1c Medium';font-family:'Rounded M+ 1c';font-weight:500;font-style:normal;font-stretch:normal;font-variant:normal"
         x="2053.186"
         y="2151.1116"
         id="tspan5404">tôi có vấn đề ô nhiễm</tspan><tspan
         sodipodi:role="line"
         style="font-size:45px;-inkscape-font-specification:'Rounded M+ 1c Medium';font-family:'Rounded M+ 1c';font-weight:500;font-style:normal;font-stretch:normal;font-variant:normal"
         x="2053.186"
         y="2209.0403"
         id="tspan5406">nhỏ và nên làm sạch</tspan><tspan
         sodipodi:role="line"
         style="font-size:45px;-inkscape-font-specification:'Rounded M+ 1c Medium';font-family:'Rounded M+ 1c';font-weight:500;font-style:normal;font-stretch:normal;font-variant:normal"
         x="2053.186"
         y="2266.9688"
         id="tspan5408">môi trường...</tspan></text>
    <text
       xml:space="preserve"
       style="font-size:12px;font-style:normal;font-variant:normal;font-weight:500;font-stretch:normal;text-align:center;line-height:125%;letter-spacing:0px;word-spacing:0px;text-anchor:middle;fill:#000000;fill-opacity:1;stroke:none;font-family:'Rounded M+ 1c';-inkscape-font-specification:'Rounded M+ 1c Medium'"
       x="475.67166"
       y="2684.5779"
       id="text4246-3-2-9-6-6"
       sodipodi:linespacing="125%"><tspan
         sodipodi:role="line"
         style="font-size:45px;-inkscape-font-specification:'Rounded M+ 1c Medium';font-family:'Rounded M+ 1c';font-weight:500;font-style:normal;font-stretch:normal;font-variant:normal"
         x="475.67166"
         y="2684.5779"
         id="tspan3892">Nghe tao Cô</tspan><tspan
         sodipodi:role="line"
         style="font-size:45px;-inkscape-font-specification:'Rounded M+ 1c Medium';font-family:'Rounded M+ 1c';font-weight:500;font-style:normal;font-stretch:normal;font-variant:normal"
         x="475.67166"
         y="2742.5063"
         id="tspan3900">&quot;<tspan
   style="stroke:#000000;stroke-width:2.79999995000000013;stroke-miterlimit:4;stroke-opacity:1;stroke-dasharray:none;-inkscape-font-specification:'Rounded M+ 1c Medium';font-family:'Rounded M+ 1c';font-weight:500;font-style:normal;font-stretch:normal;font-variant:normal"
   id="tspan4217">Tạo Ra Thuốc Thất Bại Hoài</tspan>&quot;,</tspan><tspan
         sodipodi:role="line"
         style="font-size:45px;-inkscape-font-specification:'Rounded M+ 1c Medium';font-family:'Rounded M+ 1c';font-weight:500;font-style:normal;font-stretch:normal;font-variant:normal"
         x="475.67166"
         y="2800.4351"
         id="tspan4378" /></text>
    <text
       xml:space="preserve"
       style="font-size:12px;font-style:normal;font-variant:normal;font-weight:normal;font-stretch:normal;text-align:center;line-height:125%;letter-spacing:0px;word-spacing:0px;text-anchor:middle;fill:#000000;fill-opacity:1;stroke:none;font-family:'Rounded M+ 1c';-inkscape-font-specification:'Rounded M+ 1c'"
       x="547.53906"
       y="2811.6135"
       id="text4246-3-2-9-6-6-7"
       sodipodi:linespacing="125%"><tspan
         sodipodi:role="line"
         style="font-size:45px;-inkscape-font-specification:'Rounded M+ 1c';font-family:'Rounded M+ 1c'"
         x="547.53906"
         y="2811.6135"
         id="tspan4378-5">Khai niềm bảo vệ</tspan><tspan
         sodipodi:role="line"
         style="font-size:45px;-inkscape-font-specification:'Rounded M+ 1c';font-family:'Rounded M+ 1c'"
         x="547.53906"
         y="2869.542"
         id="tspan5427">môi trường đang mù</tspan><tspan
         sodipodi:role="line"
         style="font-size:45px;-inkscape-font-specification:'Rounded M+ 1c';font-family:'Rounded M+ 1c'"
         x="547.53906"
         y="2927.4707"
         id="tspan5429">đầu ốc mày.</tspan></text>
    <text
       xml:space="preserve"
       style="font-size:12px;font-style:normal;font-variant:normal;font-weight:normal;font-stretch:normal;text-align:center;line-height:125%;letter-spacing:0px;word-spacing:0px;text-anchor:middle;fill:#000000;fill-opacity:1;stroke:none;font-family:Lavi;-inkscape-font-specification:Lavi"
       x="1920.85"
       y="2715.4656"
       id="text4246-3-2-9-6-6-0"
       sodipodi:linespacing="125%"><tspan
         sodipodi:role="line"
         style="font-size:45px;-inkscape-font-specification:'Rounded M+ 1c Medium';font-family:'Rounded M+ 1c';font-weight:500;font-style:normal;font-stretch:normal;font-variant:normal;text-anchor:middle;text-align:center;writing-mode:lr;line-height:125%"
         x="1920.85"
         y="2715.4656"
         id="tspan3913">Ở Chao Xa</tspan><tspan
         sodipodi:role="line"
         style="font-size:45px;-inkscape-font-specification:'Rounded M+ 1c Medium';font-family:'Rounded M+ 1c';font-weight:500;font-style:normal;font-stretch:normal;font-variant:normal;text-anchor:middle;text-align:center;writing-mode:lr;line-height:125%"
         x="1920.85"
         y="2773.394"
         id="tspan5436">chúng tôi trồng</tspan><tspan
         sodipodi:role="line"
         style="font-size:45px;-inkscape-font-specification:'Rounded M+ 1c Medium';font-family:'Rounded M+ 1c';font-weight:500;font-style:normal;font-stretch:normal;font-variant:normal;text-anchor:middle;text-align:center;writing-mode:lr;line-height:125%"
         x="1920.85"
         y="2831.3228"
         id="tspan5438">sai lầm của mình</tspan><tspan
         sodipodi:role="line"
         style="font-size:45px"
         x="1920.85"
         y="2889.2512"
         id="tspan4378-7" /></text>
    <text
       xml:space="preserve"
       style="font-size:12px;font-style:normal;font-variant:normal;font-weight:500;font-stretch:normal;text-align:center;line-height:125%;letter-spacing:0px;word-spacing:0px;text-anchor:middle;fill:#000000;fill-opacity:1;stroke:none;font-family:'Rounded M+ 1c';-inkscape-font-specification:'Rounded M+ 1c Medium'"
       x="2002.6411"
       y="2913.0608"
       id="text4246-3-2-9-6-6-0-5"
       sodipodi:linespacing="125%"><tspan
         sodipodi:role="line"
         style="font-size:45px;-inkscape-font-specification:'Rounded M+ 1c Medium';font-family:'Rounded M+ 1c';font-weight:500;font-style:normal;font-stretch:normal;font-variant:normal"
         x="2002.6411"
         y="2913.0608"
         id="tspan3931">Đó là thói quen của</tspan><tspan
         sodipodi:role="line"
         style="font-size:45px;-inkscape-font-specification:'Rounded M+ 1c Medium';font-family:'Rounded M+ 1c';font-weight:500;font-style:normal;font-stretch:normal;font-variant:normal"
         x="2002.6411"
         y="2970.9893"
         id="tspan5445">mình từ thời thưở xưa</tspan><tspan
         sodipodi:role="line"
         style="font-size:45px;-inkscape-font-specification:'Rounded M+ 1c Medium';font-family:'Rounded M+ 1c';font-weight:500;font-style:normal;font-stretch:normal;font-variant:normal"
         x="2002.6411"
         y="3027.2393"
         id="tspan5447">và tao không quan tâm</tspan><tspan
         sodipodi:role="line"
         style="font-size:45px;stroke:#000000;stroke-width:2.79999995000000013;stroke-miterlimit:4;stroke-opacity:1;stroke-dasharray:none;-inkscape-font-specification:'Rounded M+ 1c Medium';font-family:'Rounded M+ 1c';font-weight:500;font-style:normal;font-stretch:normal;font-variant:normal"
         x="2002.6411"
         y="3085.168"
         id="tspan3933"><tspan
   id="tspan5451"
   style="font-size:45px;stroke:none;-inkscape-font-specification:'Rounded M+ 1c Medium';font-family:'Rounded M+ 1c';font-weight:500;font-style:normal;font-stretch:normal;font-variant:normal">về </tspan>ÔNG TRỜI</tspan><tspan
         sodipodi:role="line"
         style="font-size:45px;-inkscape-font-specification:'Rounded M+ 1c Medium';font-family:'Rounded M+ 1c';font-weight:500;font-style:normal;font-stretch:normal;font-variant:normal"
         x="2002.6411"
         y="3143.0964"
         id="tspan3935">nghĩ về nó!</tspan><tspan
         sodipodi:role="line"
         style="font-size:45px;-inkscape-font-specification:'Rounded M+ 1c Medium';font-family:'Rounded M+ 1c';font-weight:500;font-style:normal;font-stretch:normal;font-variant:normal"
         x="2002.6411"
         y="3201.0249"
         id="tspan4378-7-6" /></text>
    <text
       xml:space="preserve"
       style="font-size:12px;font-style:normal;font-variant:normal;font-weight:500;font-stretch:normal;text-align:center;line-height:125%;letter-spacing:0px;word-spacing:0px;text-anchor:middle;fill:#000000;fill-opacity:1;stroke:none;font-family:'Rounded M+ 1c';-inkscape-font-specification:'Rounded M+ 1c Medium'"
       x="2083.4753"
       y="3219.5076"
       id="text4246-3-2-9-6-6-0-5-1"
       sodipodi:linespacing="125%"><tspan
         sodipodi:role="line"
         style="font-size:45px;-inkscape-font-specification:'Rounded M+ 1c Medium';font-family:'Rounded M+ 1c';font-weight:500;font-style:normal;font-stretch:normal;font-variant:normal"
         x="2083.4753"
         y="3219.5076"
         id="tspan4544">Câm mồm và</tspan><tspan
         sodipodi:role="line"
         style="font-size:45px;-inkscape-font-specification:'Rounded M+ 1c Medium';font-family:'Rounded M+ 1c';font-weight:500;font-style:normal;font-stretch:normal;font-variant:normal"
         x="2090.6384"
         y="3277.436"
         id="tspan3939"><tspan
   style="stroke:#000000;stroke-width:2.79999995000000013;stroke-miterlimit:4;stroke-opacity:1;stroke-dasharray:none;-inkscape-font-specification:'Rounded M+ 1c Medium';font-family:'Rounded M+ 1c';font-weight:500;font-style:normal;font-stretch:normal;font-variant:normal"
   id="tspan4219">ĐÀO TIẾP</tspan>!! </tspan><tspan
         sodipodi:role="line"
         style="font-size:45px;-inkscape-font-specification:'Rounded M+ 1c Medium';font-family:'Rounded M+ 1c';font-weight:500;font-style:normal;font-stretch:normal;font-variant:normal"
         x="2083.4753"
         y="3335.3647"
         id="tspan4378-7-6-4" /></text>
  </g>
</svg>
