<?xml version="1.0" encoding="UTF-8" standalone="no"?>
<!-- Created with Inkscape (http://www.inkscape.org/) -->

<svg
   xmlns:dc="http://purl.org/dc/elements/1.1/"
   xmlns:cc="http://creativecommons.org/ns#"
   xmlns:rdf="http://www.w3.org/1999/02/22-rdf-syntax-ns#"
   xmlns:svg="http://www.w3.org/2000/svg"
   xmlns="http://www.w3.org/2000/svg"
   xmlns:xlink="http://www.w3.org/1999/xlink"
   xmlns:sodipodi="http://sodipodi.sourceforge.net/DTD/sodipodi-0.dtd"
   xmlns:inkscape="http://www.inkscape.org/namespaces/inkscape"
   id="svg2"
   version="1.1"
   inkscape:version="0.91 r13725"
   width="2481"
   height="3503"
   sodipodi:docname="Pepper-and-Carrot_by-David-Revoy_E19P06.svg">
  <metadata
     id="metadata8">
    <rdf:RDF>
      <cc:Work
         rdf:about="">
        <dc:format>image/svg+xml</dc:format>
        <dc:type
           rdf:resource="http://purl.org/dc/dcmitype/StillImage" />
        <dc:title />
      </cc:Work>
    </rdf:RDF>
  </metadata>
  <defs
     id="defs6" />
  <sodipodi:namedview
     pagecolor="#ffffff"
     bordercolor="#666666"
     borderopacity="1"
     objecttolerance="10"
     gridtolerance="10"
     guidetolerance="10"
     inkscape:pageopacity="0"
     inkscape:pageshadow="2"
     inkscape:window-width="1366"
     inkscape:window-height="744"
     id="namedview4"
     showgrid="false"
     inkscape:zoom="0.37405949"
     inkscape:cx="1157.0961"
     inkscape:cy="574.44796"
     inkscape:window-x="0"
     inkscape:window-y="24"
     inkscape:window-maximized="1"
     inkscape:current-layer="layer1" />
  <g
     inkscape:groupmode="layer"
     id="layer2"
     inkscape:label="artwork"
     sodipodi:insensitive="true">
    <image
       sodipodi:absref="/home/juanjo/Imágenes/Comics-Revoy/peppercarrot_ep19_translation-master/es/../gfx_Pepper-and-Carrot_by-David-Revoy_E19P06.png"
       xlink:href="../gfx_Pepper-and-Carrot_by-David-Revoy_E19P06.png"
       y="0"
       x="0"
       id="image10"
       height="3503"
       width="2481" />
  </g>
  <g
     inkscape:groupmode="layer"
     id="layer3"
     inkscape:label="speechbubbles">
    <path
       style="color:#000000;display:inline;overflow:visible;visibility:visible;fill:#ffffff;fill-opacity:1;fill-rule:nonzero;stroke:none;stroke-width:1px;marker:none;enable-background:accumulate"
       d="m 209.25197,2538.328 c 10.1931,-72.0803 105.48776,-123.5424 347.95493,-106.4383 129.87849,9.1619 277.48082,16.0762 264.05849,121.6907 -13.42246,105.6143 -225.72343,99.8161 -269.65999,101.6535 -43.93655,1.8373 -271.91391,-12.564 -310.56513,-49.117 -24.19478,-22.8811 -33.30404,-45.4414 -31.7883,-67.7889 z"
       id="path4546-6"
       inkscape:connector-curvature="0"
       sodipodi:nodetypes="cssssc" />
    <path
       style="fill:#ffffff;stroke:none"
       d="m 694.38649,2534.9643 c 31.16173,50.5895 56.21292,58.6934 72.83219,79.5631 16.61925,20.8701 -4.22375,65.3135 0.2296,80.4242 5.36252,14.254 23.11118,27.2288 57.37772,44.4988 -73.16324,-15.6884 -73.36945,-34.9149 -78.29883,-48.1564 -6.77646,-18.203 5.60657,-39.7648 -12.3168,-56.2686 -17.36077,-15.9861 -80.58056,-61.1983 -92.85364,-95.1241 -12.2733,-33.9259 -18.60006,-35.9967 -18.60006,-35.9967 z"
       id="path3282"
       inkscape:connector-curvature="0"
       sodipodi:nodetypes="csccssscc" />
    <path
       style="color:#000000;display:inline;overflow:visible;visibility:visible;fill:#ffffff;fill-opacity:1;fill-rule:nonzero;stroke:none;stroke-width:1px;marker:none;enable-background:accumulate"
       d="m 124.51498,1471.6237 c 39.92935,-47.9359 261.34632,-40.6047 330.21602,-28.2581 75.15889,13.474 98.29911,32.5659 101.65998,74.4093 1.03811,12.9246 -5.0413,71.5344 -42.01135,83.0724 -36.96988,11.5378 -142.83822,17.3066 -179.80826,17.3066 -36.96988,0 -154.98605,-7.3437 -184.84989,-24.2294 -28.56771,-16.1529 -65.136035,-74.3651 -25.2065,-122.3008 z"
       id="path3330"
       inkscape:connector-curvature="0"
       sodipodi:nodetypes="zsssssz" />
    <path
       style="color:#000000;display:inline;overflow:visible;visibility:visible;fill:#ffffff;fill-opacity:1;fill-rule:nonzero;stroke:none;stroke-width:1px;marker:none;enable-background:accumulate"
       d="m 198.01041,1682.6242 c -1.44765,-29.0026 5.93439,-48.2355 39.08696,-63.6443 30.18083,-14.0276 96.63986,-17.904 140.98543,-17.904 71.67841,-0.198 255.6729,-5.4181 233.96128,85.1901 -0.85753,42.9756 -107.77791,44.8494 -129.493,48.3297 -21.71509,3.4803 -108.52409,4.2477 -128.79153,3.0877 -74.50834,2.1088 -153.1613,-19.7128 -155.74914,-55.0592 z"
       id="path3357"
       inkscape:connector-curvature="0"
       sodipodi:nodetypes="csccscc" />
    <path
       style="color:#000000;display:inline;overflow:visible;visibility:visible;fill:#ffffff;fill-opacity:1;fill-rule:nonzero;stroke:none;stroke-width:1px;marker:none;enable-background:accumulate"
       d="m 453.45684,1711.8886 c -0.37144,57.0275 25.35707,95.1396 67.76656,103.3368 -67.9487,-0.4363 -102.57173,-72.2713 -100.82948,-96.6104 1.70602,-23.8329 33.06292,-6.7264 33.06292,-6.7264 z"
       id="path5010"
       inkscape:connector-curvature="0"
       sodipodi:nodetypes="ccsc" />
    <path
       style="color:#000000;display:inline;overflow:visible;visibility:visible;fill:#ffffff;fill-opacity:1;fill-rule:nonzero;stroke:none;stroke-width:1px;marker:none;enable-background:accumulate"
       d="m 207.1957,2103.0688 c 33.54514,-24.941 323.96141,-40.019 400.88499,0.97 64.20703,34.2131 39.15558,119.4158 -17.94639,139.0406 -57.10178,19.6249 -247.05864,17.3471 -330.31244,8.4497 -79.26908,-8.4716 -92.57966,-34.042 -96.47884,-85.5279 -1.5914,-21.0134 10.30738,-37.9911 43.85268,-62.9324 z"
       id="path4040-4"
       inkscape:connector-curvature="0"
       sodipodi:nodetypes="zssssz" />
    <path
       style="color:#000000;display:inline;overflow:visible;visibility:visible;fill:#ffffff;fill-opacity:1;fill-rule:nonzero;stroke:none;stroke-width:1px;marker:none;enable-background:accumulate"
       d="m 535.00775,1986.8306 c -11.22357,-11.0259 -34.07155,-13.8129 -52.41966,-13.1663 -5.21231,0.2939 -10.58546,0.9606 -15.40703,2.9669 -4.5497,3.204 -5.8508,9.2452 -4.71647,14.4517 1.1116,7.6336 5.4512,15.1923 3.33691,23.0221 -1.67716,5.6622 -7.62933,7.7967 -12.46033,10.0265 -12.42532,5.4417 -25.66044,9.2324 -37.15366,16.6288 -13.48154,7.4861 -27.12386,16.3412 -35.233,29.8576 -3.11895,5.4019 -5.62626,11.4889 -5.13528,17.8477 0.51982,16.3695 10.44001,32.6806 25.75127,39.1373 10.15783,3.1917 22.85144,-2.6898 25.43476,-13.369 1.44801,-5.6168 -1.12924,-11.3042 -4.7776,-15.4765 -5.27333,-8.9228 -5.03206,-20.3779 -0.31332,-29.473 3.77147,-7.5698 9.88065,-13.877 17.08927,-18.2489 8.233,-8.5339 20.53978,-9.9068 31.26386,-13.4482 4.87531,-1.6909 9.9467,-3.8199 13.48797,-7.6632 3.74598,-6.6816 1.05856,-14.5289 -1.98107,-20.9052 -2.96548,-6.6569 -7.15746,-14.0436 -4.63677,-21.5174 1.0509,-5.4219 7.54846,-5.1616 11.76803,-6.5249 14.15942,-2.6164 28.95507,-0.7769 42.45081,4.0015 1.25162,0.5512 2.45101,1.1992 3.65131,1.8525 z"
       id="path4496"
       inkscape:connector-curvature="0"
       sodipodi:nodetypes="ccccccccccccccccccccc" />
    <path
       style="color:#000000;display:inline;overflow:visible;visibility:visible;fill:#ffffff;fill-opacity:1;fill-rule:nonzero;stroke:none;stroke-width:1px;marker:none;enable-background:accumulate"
       d="m 782.81669,170.4513 -40.2,-14.4857 22.33662,43.1826 -37.7925,-15.59213 29.62312,43.18563 -37.33944,-2.37969 25.7385,31.03324 -21.22949,6.16968 21.62976,26.91083 -22.33486,8.04774 20.09075,28.39761 -22.16593,19.67094 13.22109,18.76891 -16.03279,16.50418 14.53784,11.07509 -12.78231,25.29958 17.26727,4.48582 -17.94553,26.02461 27.80199,-8.25588 -8.73165,29.93945 32.43886,-17.1664 -14.08971,37.28917 28.43761,-0.34352 -39.32137,84.34754 61.70439,-52.02452 4.69958,44.60217 30.56944,-39.18252 0.7747,27.33209 27.00855,-34.48494 -0.57997,34.19236 29.84036,-40.27109 0.0734,127.90182 50.44473,-109.03143 8.95524,45.03406 8.18962,-42.05768 8.77262,18.48756 8.50759,-23.24516 8.24425,36.68388 15.08779,-42.30565 59.3997,61.96957 -10.3828,-74.35262 49.2997,10.09267 -16.5309,-36.48564 71.0319,19.40909 -33.4621,-33.63496 60.3347,18.19599 -67.4967,-59.9351 62.0702,15.57238 -46.0407,-47.77556 42.8626,-4.06925 -39.4536,-32.92053 70.4661,-5.37473 -64.3311,-27.41869 57.7689,-14.20615 -43.5442,-28.69708 50.2645,-23.73661 -53.784,-18.34698 39.605,-61.13892 -55.3143,15.44447 6.3706,-41.7903 -51.7449,31.28307 24.2431,-74.58043 -65.8828,66.06949 3.2897,-21.16581 -23.3736,17.39263 14.4089,-47.81134 -44.102,45.2297 4.485,-20.9601 -13.45482,19.85704 2.98986,-27.57928 -23.17212,33.09507 2.13339,-28.83564 -14.15808,15.55426 -0.36435,-14.76521 -13.02568,11.49906 -17.55909,-50.11731 -26.19792,51.68476 -12.87986,-22.23072 -14.90955,21.29161 -10.35586,-25.04386 -15.59171,29.92649 -25.36537,-40.5666 1.65841,40.25227 -61.18697,-43.60513 z"
       id="path4024"
       inkscape:connector-curvature="0"
       sodipodi:nodetypes="ccccccccccccccccccccccccccccccccccccccccccccccccccccccccccccccccccccccccccccccccccccc" />
    <path
       style="display:inline;fill:#ffffff;fill-rule:evenodd;stroke:none;stroke-width:1px;stroke-linecap:butt;stroke-linejoin:miter;stroke-opacity:1"
       d="m 727.10685,996.89136 c 74.866,73.60324 103.78855,3.96944 102.68898,-66.62566 30.56158,76.2866 51.76994,93.3483 64.34785,55.7614 40.46149,32.3075 65.73312,23.245 85.79709,0 7.47835,29.8947 23.51573,17.8312 37.39523,16.3462 4.5714,6.7635 -11.1293,23.5669 52.3016,1.1789 4.1088,8.9521 9.6437,16.6614 46.7984,-3.1864 9.6256,36.3357 40.509,-2.01383 72.1476,-43.01599 -19.7117,50.40869 -20.8834,52.65279 4.3042,33.36049 -3.7956,8.56916 -9.9761,25.7196 15.4916,7.14359 -14.9785,38.31631 35.7014,-11.18964 99.1309,-66.22169 -31.7284,40.67928 -105.608,136.6484 -50.1911,130.9639 -7.7282,11.9924 -33.6691,26.098 44.3605,36.547 -15.3256,8.1378 -62.1143,-3.7539 -23.0841,30.7017 5.2293,4.0276 -12.277,6.4871 21.1342,17.0938 -19.723,-0.7216 -31.8186,1.8562 -13.6496,17.525 -36.0017,-0.8472 -22.5314,15.6287 3.8999,36.6432 -52.1355,-26.9556 -55.0047,-17.1588 -56.5481,-6.3727 -65.3412,-36.7496 -69.1768,-25.1792 -77.9972,-17.5251 -31.849,0.2868 -63.6979,-4.3411 -95.5469,36.6433 -8.3408,-25.4912 -25.0631,-45.1128 -95.54659,-27.0841 30.94761,-32.4293 -13.07948,-11.7684 -46.79837,1.5931 18.46514,-40.5122 -28.397,-13.9241 -87.74711,25.491 33.23583,-44.7368 -36.02827,-48.3517 -91.964,-16.5884 39.05508,-34.6799 50.49092,-43.5858 -31.77091,-45.2956 39.37305,-15.8531 30.0734,-37.6472 -10.81042,-73.5366 46.08773,10.5678 59.83505,0.7517 27.29901,-38.2364 50.26943,32.0011 24.17136,-0.3644 4.55734,-43.30394 z"
       id="path4508"
       inkscape:connector-curvature="0"
       sodipodi:nodetypes="cccccccccccccccccccccccccccc" />
    <path
       style="color:#000000;display:inline;overflow:visible;visibility:visible;fill:#ffffff;fill-opacity:1;fill-rule:nonzero;stroke:none;stroke-width:1px;marker:none;enable-background:accumulate"
       d="m 760.12564,1192.5775 c 8.00598,-57.0318 75.15648,-96.8019 244.18316,-80.6312 90.5398,8.6619 199.6579,-3.5616 188.9833,94.9884 -9.0737,83.77 -166.2012,69.9004 -196.89089,70.8837 -30.68973,0.9834 -187.78228,3.1783 -214.30819,-26.2153 -16.60461,-18.3996 -23.3017,-41.326 -21.96738,-59.0256 z"
       id="path4546-6-3"
       inkscape:connector-curvature="0"
       sodipodi:nodetypes="cssssc" />
    <path
       style="color:#000000;display:inline;overflow:visible;visibility:visible;fill:#ffffff;fill-opacity:1;fill-rule:nonzero;stroke:none;stroke-width:1px;marker:none;enable-background:accumulate"
       d="m 1213.8489,846.02889 c 33.609,44.03488 30.6306,130.36717 21.2505,150.34893 -9.38,19.98168 -22.2605,49.94618 -67.4623,50.25248 -45.2018,0.3064 -359.09123,23.4584 -405.80013,-22.7008 -46.7089,-46.15926 -46.07163,-126.94281 -5.99859,-181.43607 40.07304,-54.49326 256.64142,-44.89527 256.64142,-44.89527 0,0 149.8339,-7.65482 201.3691,48.43073 z"
       id="path3992"
       inkscape:connector-curvature="0" />
    <path
       style="fill:#ffffff;stroke:none"
       d="m 479.62199,827.21649 -21.49734,12.96296 c -47.53241,-5.04051 -178.88789,-11.95044 -245.92708,-8.33486 l -27.31997,8.87047 -14.77815,-16.37609 -6.7192,20.46857 -13.43432,-14.32781 -8.06303,19.7872 -16.12199,-9.55187 5.82261,20.46858 -8.95755,12.28155 -17.91514,-8.87047 9.85413,36.84469 c 1e-5,0 -10.30122,0.68345 -16.571297,0.68345 15.730267,29.67904 16.438397,179.92474 11.195457,232.61974 l -12.584486,9.2307 12.576356,11.6405 5.0155,4.3195 -21.080579,14.6211 15.788579,-0.9725 -12.271422,16.2584 12.989082,9.554 -0.89657,12.2794 -1.79111,7.5077 10.3868,8.185 -17.908468,18.0219 25.137948,-5.0239 0.74613,0.6504 c 0,0 -17.00013,24.7562 -21.66819,34.0563 13.67174,-5.6458 35.10422,-14.2702 36.89564,-14.9526 0.1437,-0.054 0.49796,-0.023 0.9413,0.043 l -11.24474,19.1594 27.12074,-14.8563 c 1.85151,0.5199 3.71704,1.0355 5.54613,1.5113 l -5.19773,17.3048 29.05543,-13.9412 c 9.33324,1.6416 20.88081,4.6407 23.64425,5.1084 4.03073,0.6824 25.52841,-6.8232 30.45491,-6.1408 4.92651,0.6822 50.1599,8.187 54.19063,8.187 4.03075,0 28.66281,-2.7287 34.03714,-3.411 5.37431,-0.6822 33.58943,3.411 38.51592,3.411 4.9264,0 13.43657,-6.8233 17.91512,-7.5056 4.4787,-0.6823 17.01844,4.0949 20.15352,5.4594 3.135,1.3648 25.52786,3.4111 30.90219,3.4111 5.37432,0 43.93142,-7.1472 53.74337,-4.0946 7.12825,2.2176 72.09291,0.1985 106.98864,-2.1866 l -3.66963,16.1614 22.63382,-17.9124 c 1.8623,-0.2909 2.94411,-0.5727 3.03126,-0.8383 0,0 7.1656,12.965 9.40484,12.965 2.23932,0 5.82288,-10.9189 7.16646,-12.2835 1.34359,-1.3647 10.74965,6.1417 12.98908,5.4593 2.23934,-0.6823 3.13495,-14.3279 3.13495,-14.3279 l 2.23837,-6.8241 c 0,0 6.2704,-2.0465 8.95758,-4.776 2.68714,-2.7292 -0.44858,-14.3286 -4.03153,-19.7871 3.1351,-2.7293 10.74893,-7.5043 12.09253,-10.2334 1.34366,-2.7295 -3.13495,-11.6001 -3.13495,-11.6001 0,0 2.68784,-4.7754 4.03151,-8.1869 1.34359,-3.4119 -8.38593,-14.7973 -8.38593,-14.7973 0,0 8.38537,-11.1314 8.8332,-15.2253 0.39583,-3.6187 -2.00984,-7.2323 -5.97511,-8.0239 l 12.45237,-7.1525 -14.08692,-2.42 c -1.08672,-38.1375 0.40542,-183.57522 8.24319,-215.91654 l 16.91488,-13.38625 -16.48998,-6.28739 c -1.14818,-1.57248 -2.39618,-3.18966 -3.69607,-4.79657 l 12.36088,-9.78107 -24.15453,-9.21116 0,-12.18245 -8.95757,-6.82218 c 0,0 0.38696,-1.78973 0.77053,-4.37123 l 9.30928,-17.68312 -32.09354,5.75671 0.0773,0.33657 c -10.65228,-1.78366 -19.26711,-6.5558 -19.26711,-6.5558 l 4.92605,-30.70391 -35.3639,33.38518 -2.23838,-12.96296 -13.88362,12.28157 -4.47879,-19.78719 -13.88362,15.01125 -11.64525,-7.79742 -2.61951,2.41196 -10.74867,-8.87048 -10.74867,8.18702 -21.41401,4.29037 -6.2699,-19.10373 z"
       id="path3894"
       inkscape:connector-curvature="0"
       sodipodi:nodetypes="ccccccccccccccccccccccccccccccccccccccscsscssccccscccccccccccccccccccccccccccccccccccccccc" />
    <path
       style="color:#000000;display:inline;overflow:visible;visibility:visible;fill:#ffffff;fill-opacity:1;fill-rule:nonzero;stroke:none;stroke-width:1px;marker:none;enable-background:accumulate"
       d="m 535.70109,762.59499 c 38.34876,34.92863 35.4166,55.61846 35.05492,70.73951 -5.21085,0.99543 -14.03945,4.31409 -14.03945,4.31409 0,0 2.34858,29.8366 -0.92638,41.34315 -3.27496,11.50653 -19.13613,8.37057 -19.13613,8.37057 0,0 -6.17597,-57.93992 -11.57097,-70.14779 14.42663,-2.21185 21.11631,-4.94055 26.71433,-3.83376 3.38923,-8.44544 -2.96428,-38.06103 -16.09632,-50.78577 z"
       id="path4456"
       inkscape:connector-curvature="0" />
    <path
       style="color:#000000;display:inline;overflow:visible;visibility:visible;fill:#ffffff;fill-opacity:1;fill-rule:nonzero;stroke:none;stroke-width:1px;marker:none;enable-background:accumulate"
       d="m 981.87504,489.07837 c 15.79816,16.30726 34.68336,141.58053 227.57366,231.14516 -154.1725,-93.5024 -173.4435,-224.61445 -180.0947,-249.55706 -53.90514,-8.39388 -24.7768,9.78373 -47.47896,18.4119 z"
       id="path4024-3"
       inkscape:connector-curvature="0"
       sodipodi:nodetypes="cccc" />
  </g>
  <g
     inkscape:groupmode="layer"
     id="layer1"
     inkscape:label="txt">
    <text
       xml:space="preserve"
       style="font-style:normal;font-variant:normal;font-weight:normal;font-stretch:normal;font-size:10.31860447px;line-height:125%;font-family:Lavi;-inkscape-font-specification:Lavi;text-align:center;letter-spacing:0px;word-spacing:0px;text-anchor:middle;fill:#000000;fill-opacity:1;stroke:none;stroke-width:1.79999995;stroke-miterlimit:4;stroke-dasharray:none"
       x="394.25803"
       y="934.92853"
       id="text4246"
       sodipodi:linespacing="125%"><tspan
         sodipodi:role="line"
         style="font-size:51.59302139px;stroke-width:1.79999995;stroke-miterlimit:4;stroke-dasharray:none"
         x="394.25803"
         y="934.92853"
         id="tspan4176">¡Pero <tspan
   style="stroke:#000000;stroke-width:1.67974544;stroke-miterlimit:4;stroke-dasharray:none;stroke-opacity:1"
   id="tspan4183">el medio ambiente,</tspan></tspan><tspan
         sodipodi:role="line"
         style="font-size:51.59302139px;stroke-width:1.79999995;stroke-miterlimit:4;stroke-dasharray:none"
         x="394.25803"
         y="999.4198"
         id="tspan3400">la <tspan
   style="stroke:#000000;stroke-width:1.67974544;stroke-miterlimit:4;stroke-dasharray:none;stroke-opacity:1"
   id="tspan4185">naturaleza</tspan>!</tspan></text>
    <text
       xml:space="preserve"
       style="font-style:normal;font-variant:normal;font-weight:normal;font-stretch:normal;font-size:11.69629097px;line-height:125%;font-family:Lavi;-inkscape-font-specification:Lavi;text-align:center;letter-spacing:0px;word-spacing:0px;text-anchor:middle;fill:#000000;fill-opacity:1;stroke:none;stroke-width:1.89999998;stroke-miterlimit:4;stroke-dasharray:none"
       x="972.51471"
       y="242.65163"
       id="text4246-7"
       sodipodi:linespacing="125%"
       transform="scale(0.97469088,1.0259663)"><tspan
         sodipodi:role="line"
         style="font-size:58.48145294px;stroke:#000000;stroke-width:1.89999998;stroke-miterlimit:4;stroke-dasharray:none;stroke-opacity:1"
         x="972.51471"
         y="242.65163"
         id="tspan4221"> ¡Eso nunca</tspan><tspan
         sodipodi:role="line"
         style="font-size:58.48145294px;stroke:#000000;stroke-width:1.89999998;stroke-miterlimit:4;stroke-dasharray:none;stroke-opacity:1"
         x="972.51471"
         y="315.75345"
         id="tspan4217">ha supuesto un</tspan><tspan
         sodipodi:role="line"
         style="font-size:58.48145294px;stroke:#000000;stroke-width:1.89999998;stroke-miterlimit:4;stroke-dasharray:none;stroke-opacity:1"
         x="982.79468"
         y="388.85526"
         id="tspan4222">problema </tspan><tspan
         sodipodi:role="line"
         style="font-size:58.48145294px;stroke:#000000;stroke-width:1.89999998;stroke-miterlimit:4;stroke-dasharray:none;stroke-opacity:1"
         x="972.51471"
         y="461.95706"
         id="tspan4224">hasta ahora!</tspan></text>
    <text
       xml:space="preserve"
       style="font-style:normal;font-variant:normal;font-weight:normal;font-stretch:normal;font-size:11.69629097px;line-height:125%;font-family:Lavi;-inkscape-font-specification:Lavi;text-align:center;letter-spacing:0px;word-spacing:0px;text-anchor:middle;fill:#000000;fill-opacity:1;stroke:none;stroke-width:2.29999995;stroke-miterlimit:4;stroke-dasharray:none"
       x="1008.7495"
       y="1101.3928"
       id="text4246-7-9"
       sodipodi:linespacing="125%"
       transform="scale(0.97469088,1.0259663)"><tspan
         sodipodi:role="line"
         style="font-size:58.48145294px;stroke:#000000;stroke-width:2.24178886;stroke-miterlimit:4;stroke-dasharray:none;stroke-opacity:1"
         x="1019.0295"
         y="1101.3928"
         id="tspan4221-2"> PROFUNDAMENTE! </tspan></text>
    <text
       xml:space="preserve"
       style="font-style:normal;font-variant:normal;font-weight:normal;font-stretch:normal;font-size:12px;line-height:125%;font-family:Lavi;-inkscape-font-specification:Lavi;text-align:center;letter-spacing:0px;word-spacing:0px;text-anchor:middle;fill:#000000;fill-opacity:1;stroke:none"
       x="393.99847"
       y="1068.822"
       id="text4246-70"
       sodipodi:linespacing="125%"><tspan
         sodipodi:role="line"
         style="font-size:45px"
         x="393.99847"
         y="1068.822"
         id="tspan4176-6">¡¡¡No podemos continuar</tspan><tspan
         sodipodi:role="line"
         style="font-size:45px"
         x="393.99847"
         y="1125.072"
         id="tspan3405">contaminando todo así</tspan><tspan
         sodipodi:role="line"
         style="font-size:45px"
         x="393.99847"
         y="1181.322"
         id="tspan3413"> sin sufrir graves</tspan><tspan
         sodipodi:role="line"
         style="font-size:45px"
         x="401.90863"
         y="1237.572"
         id="tspan3425"> consecuencias!!! </tspan></text>
    <text
       xml:space="preserve"
       style="font-style:normal;font-variant:normal;font-weight:normal;font-stretch:normal;font-size:12px;line-height:125%;font-family:Lavi;-inkscape-font-specification:Lavi;text-align:center;letter-spacing:0px;word-spacing:0px;text-anchor:middle;fill:#000000;fill-opacity:1;stroke:none"
       x="979.58252"
       y="880.27979"
       id="text4246-70-2"
       sodipodi:linespacing="125%"><tspan
         sodipodi:role="line"
         style="font-size:45px"
         x="979.58252"
         y="880.27979"
         id="tspan4176-6-1">¡Somos brujas de</tspan><tspan
         sodipodi:role="line"
         style="font-size:45px"
         x="979.58252"
         y="936.52979"
         id="tspan4320">Chaosah!</tspan><tspan
         sodipodi:role="line"
         style="font-size:45px"
         x="987.49268"
         y="992.77979"
         id="tspan4324">¡Y nuestros problemas, </tspan><tspan
         sodipodi:role="line"
         style="font-size:45px"
         x="979.58252"
         y="1049.0298"
         id="tspan4328">los enterramos</tspan></text>
    <text
       xml:space="preserve"
       style="font-style:normal;font-variant:normal;font-weight:normal;font-stretch:normal;font-size:12px;line-height:125%;font-family:Lavi;-inkscape-font-specification:Lavi;text-align:center;letter-spacing:0px;word-spacing:0px;text-anchor:middle;fill:#000000;fill-opacity:1;stroke:none"
       x="979.88812"
       y="1192.52"
       id="text4246-70-2-8"
       sodipodi:linespacing="125%"><tspan
         sodipodi:role="line"
         style="font-size:45px"
         x="987.79828"
         y="1192.52"
         id="tspan4328-0">¡No hay discusión </tspan><tspan
         sodipodi:role="line"
         style="font-size:45px"
         x="979.88812"
         y="1248.77"
         id="tspan4366">con las tradiciones!</tspan></text>
    <text
       xml:space="preserve"
       style="font-style:normal;font-variant:normal;font-weight:normal;font-stretch:normal;font-size:12px;line-height:125%;font-family:Lavi;-inkscape-font-specification:Lavi;text-align:center;letter-spacing:0px;word-spacing:0px;text-anchor:middle;fill:#000000;fill-opacity:1;stroke:none"
       x="336.31299"
       y="1505.3076"
       id="text4246-70-2-2"
       sodipodi:linespacing="125%"><tspan
         sodipodi:role="line"
         style="font-size:45px"
         x="336.31299"
         y="1505.3076"
         id="tspan4328-9">¡Oh, mirad lo que</tspan><tspan
         sodipodi:role="line"
         style="font-size:45px"
         x="336.31299"
         y="1561.5576"
         id="tspan4406">acabo de encontrar!</tspan></text>
    <text
       xml:space="preserve"
       style="font-style:normal;font-variant:normal;font-weight:normal;font-stretch:normal;font-size:12px;line-height:125%;font-family:Lavi;-inkscape-font-specification:Lavi;text-align:center;letter-spacing:0px;word-spacing:0px;text-anchor:middle;fill:#000000;fill-opacity:1;stroke:none"
       x="405.02945"
       y="1688.4513"
       id="text4246-70-2-2-2"
       sodipodi:linespacing="125%"><tspan
         sodipodi:role="line"
         style="font-size:45px"
         x="405.02945"
         y="1688.4513"
         id="tspan4406-9">¡No puedo creerlo!</tspan></text>
    <text
       xml:space="preserve"
       style="font-style:normal;font-variant:normal;font-weight:normal;font-stretch:normal;font-size:12px;line-height:125%;font-family:Lavi;-inkscape-font-specification:Lavi;text-align:center;letter-spacing:0px;word-spacing:0px;text-anchor:middle;fill:#000000;fill-opacity:1;stroke:none"
       x="400.75806"
       y="2158.8105"
       id="text4246-70-2-2-2-7"
       sodipodi:linespacing="125%"><tspan
         sodipodi:role="line"
         style="font-size:45px"
         x="400.75806"
         y="2158.8105"
         id="tspan4455">¿Como habrá llegado</tspan><tspan
         sodipodi:role="line"
         style="font-size:45px"
         x="400.75806"
         y="2215.0605"
         id="tspan4190">hasta aquí?</tspan></text>
    <text
       xml:space="preserve"
       style="font-style:normal;font-variant:normal;font-weight:normal;font-stretch:normal;font-size:12px;line-height:125%;font-family:Lavi;-inkscape-font-specification:Lavi;text-align:center;letter-spacing:0px;word-spacing:0px;text-anchor:middle;fill:#000000;fill-opacity:1;stroke:none"
       x="517.49463"
       y="2503.7622"
       id="text4246-70-2-2-2-7-6"
       sodipodi:linespacing="125%"><tspan
         sodipodi:role="line"
         style="font-size:45px"
         x="517.49463"
         y="2503.7622"
         id="tspan4455-2">Necesita afinarse un poco,</tspan><tspan
         sodipodi:role="line"
         style="font-size:45px"
         x="517.49463"
         y="2560.0122"
         id="tspan4482">claro está, pero sigue</tspan><tspan
         sodipodi:role="line"
         style="font-size:45px"
         x="517.49463"
         y="2616.2622"
         id="tspan4486">sonando bien.</tspan></text>
  </g>
</svg>
