<?xml version="1.0" encoding="UTF-8" standalone="no"?>
<!-- Created with Inkscape (http://www.inkscape.org/) -->

<svg
   xmlns:dc="http://purl.org/dc/elements/1.1/"
   xmlns:cc="http://creativecommons.org/ns#"
   xmlns:rdf="http://www.w3.org/1999/02/22-rdf-syntax-ns#"
   xmlns:svg="http://www.w3.org/2000/svg"
   xmlns="http://www.w3.org/2000/svg"
   xmlns:xlink="http://www.w3.org/1999/xlink"
   xmlns:sodipodi="http://sodipodi.sourceforge.net/DTD/sodipodi-0.dtd"
   xmlns:inkscape="http://www.inkscape.org/namespaces/inkscape"
   id="svg2"
   version="1.1"
   inkscape:version="0.92.1 r"
   width="2481"
   height="3503"
   sodipodi:docname="Pepper-and-Carrot_by-David-Revoy_E19P03.svg">
  <metadata
     id="metadata8">
    <rdf:RDF>
      <cc:Work
         rdf:about="">
        <dc:format>image/svg+xml</dc:format>
        <dc:type
           rdf:resource="http://purl.org/dc/dcmitype/StillImage" />
        <dc:title></dc:title>
      </cc:Work>
    </rdf:RDF>
  </metadata>
  <defs
     id="defs6">
    <filter
       inkscape:collect="always"
       style="color-interpolation-filters:sRGB"
       id="filter4290"
       x="-0.026373399"
       width="1.0527468"
       y="-0.063105628"
       height="1.1262112">
      <feGaussianBlur
         inkscape:collect="always"
         stdDeviation="4.2854759"
         id="feGaussianBlur4292" />
    </filter>
  </defs>
  <sodipodi:namedview
     pagecolor="#ffffff"
     bordercolor="#666666"
     borderopacity="1"
     objecttolerance="10"
     gridtolerance="10"
     guidetolerance="10"
     inkscape:pageopacity="0"
     inkscape:pageshadow="2"
     inkscape:window-width="1920"
     inkscape:window-height="1013"
     id="namedview4"
     showgrid="false"
     inkscape:zoom="0.49190037"
     inkscape:cx="1397.3682"
     inkscape:cy="752.58156"
     inkscape:window-x="0"
     inkscape:window-y="0"
     inkscape:window-maximized="1"
     inkscape:current-layer="layer3" />
  <g
     inkscape:groupmode="layer"
     id="layer2"
     inkscape:label="artwork"
     sodipodi:insensitive="true">
    <image
       sodipodi:absref="/home/ruben/git/peppercarrot/ep19/nl/../gfx_Pepper-and-Carrot_by-David-Revoy_E19P03.png"
       xlink:href="../gfx_Pepper-and-Carrot_by-David-Revoy_E19P03.png"
       width="2481"
       height="3503"
       id="image10"
       x="0"
       y="0" />
  </g>
  <g
     inkscape:groupmode="layer"
     id="layer3"
     inkscape:label="speechbubbles">
    <path
       style="color:#000000;display:inline;overflow:visible;visibility:visible;fill:#ffffff;fill-opacity:1;fill-rule:nonzero;stroke:none;stroke-width:0.99999994px;marker:none;enable-background:accumulate"
       d="m 1239.6658,1655.0875 c -24.0634,-25.7054 -37.1058,-35.3916 -5.4994,-65.6433 -41.5027,8.7925 -16.0162,-11.1579 -5.767,-24.5704 -45.5772,18.8969 -32.804,-5.6759 -21.1454,-22.12 -13.2266,12.5063 -38.021,23.9202 -16.0356,-7.4364 -9.4376,10.1957 -39.1655,35.8866 -27.0549,-1.7454 -9.9973,14.2711 -14.7992,21.2295 -12.5392,3.8778 -6.6324,10.1183 -9.4424,8.9504 -9.3363,-2.226 -19.585,24.8176 -7.8455,2.4817 -7.3886,-3.7861 -12.2871,20.2161 -18.5792,13.5269 -15.143,2.7322 -6.1027,10.7614 -23.8779,11.0214 -24.1684,0.08 -7.0647,10.1296 -13.7356,11.3822 -22.7042,-0.8836 -2.687,4.5067 -5.1507,12.1832 -8.6546,5.0957 -3.6076,2.369 -7.2398,8.5358 -10.7923,2.4371 -38.0652,23.27 -55.0489,12.2539 -72.68374,-5.7471 4.00388,12.1986 8.93786,30.8392 -33.44191,2.1802 13.61853,31.6406 -0.91357,28.5242 -26.49056,13.5297 16.06853,13.4383 16.85083,20.9453 -20.56427,13.6314 26.03854,11.2255 50.02887,22.4159 9.48718,32.5 9.451,4.4416 40.49891,-5.0932 6.16915,45.5533 25.9136,-10.0521 59.75694,-6.7215 52.59415,32.365 14.50352,-17.4164 36.0126,-51.7067 38.7285,10.2777 9.7561,-35.8854 23.9773,-40.2208 32.3489,-2.9416 2.1289,-14.1213 17.6514,-35.5684 38.2296,4.1513 -6.1299,-16.2668 -3.605,-47.6077 23.1612,1.2709 -1.2804,-8.244 -13.2449,-61.5823 58.1811,1.8713 -32.781,-52.0302 7.3505,-24.0287 101.5871,53.2855 -115.2516,-110.9451 -61.6234,-89.4279 -36.2825,-69.646 -29.0701,-32.0825 -16.1223,-39.3527 15.205,-18.0933 z"
       id="path3549"
       inkscape:connector-curvature="0"
       sodipodi:nodetypes="cccccccccccccccccccccccccccccc" />
    <path
       style="color:#000000;display:inline;overflow:visible;visibility:visible;fill:#ffffff;fill-opacity:1;fill-rule:nonzero;stroke:#ffffff;stroke-width:7.69999981;stroke-miterlimit:4;stroke-dasharray:none;stroke-dashoffset:0;stroke-opacity:1;marker:none;enable-background:accumulate"
       d="m 1682.0618,2647.1201 c 4.4378,-56.5251 41.6604,-95.9419 135.3544,-79.9148 50.1877,8.5849 107.2481,15.5932 101.331,98.4318 -5.9172,82.8386 -88.0174,76.0166 -105.0292,76.9912 -17.0117,0.9746 -105.1182,-12.7743 -119.8218,-41.9067 -9.2043,-18.2362 -12.574,-36.0591 -11.8344,-53.6015 z"
       id="path4546-6"
       inkscape:connector-curvature="0"
       sodipodi:nodetypes="cssssc" />
    <path
       style="color:#000000;display:inline;overflow:visible;visibility:visible;fill:#ffffff;fill-opacity:1;fill-rule:nonzero;stroke:none;stroke-width:1px;marker:none;enable-background:accumulate"
       d="m 1827.4084,2846.6353 c -38.9829,-24.3744 -35.2819,-89.0806 -37.3787,-128.9314 -2.9638,-56.3326 1.3429,-30.7581 1.3429,-30.7581 l -8.5494,-20.5266 c -7.1172,-2.1741 -33.277,154.0001 44.5852,180.2161 z"
       id="path3072-1"
       inkscape:connector-curvature="0"
       sodipodi:nodetypes="csccc" />
    <path
       style="opacity:0.81800022;fill:#3797aa;fill-opacity:1;stroke:none;filter:url(#filter4290)"
       d="m 757.91682,547.9563 c 10.78775,5.37741 19.14955,14.84596 30.44219,19.31347 26.21575,11.72459 54.23131,20.44572 82.82199,21.46258 10.78006,0.6048 21.21295,-2.34223 30.72486,-7.53313 15.9811,-3.99025 32.62516,-0.14466 48.6511,2.006 21.85331,3.29662 46.23501,7.6202 65.96104,-5.90477 15.7206,-9.41707 25.9773,-25.65792 39.6794,-37.58852 11.2841,-7.55869 25.5178,-8.20778 36.8078,-16.0064 18.802,-10.84366 25.4032,-40.16031 13.3989,-58.77952 -12.5261,-16.64496 -33.8685,-20.78182 -52.6216,-23.96589 -18.5842,-2.02486 -37.1278,-4.43636 -55.69153,-6.57322 -25.0718,-1.39125 -50.20928,-0.10049 -75.17639,2.399 -27.62546,1.09595 -53.76233,-14.92426 -81.54597,-10.02392 -14.88451,0.43368 -29.85614,-0.34389 -44.5288,2.99063 -17.47363,2.31042 -34.44978,9.82459 -46.7547,23.45666 -10.72674,10.01983 -22.34354,20.30342 -26.79001,35.32555 -5.22782,17.81668 15.23603,50.37977 34.62172,59.42148 z"
       id="path3250-3-6-3"
       inkscape:connector-curvature="0"
       sodipodi:nodetypes="ccccccccccccccccc"
       transform="matrix(1.0508842,0,0,0.99702159,-36.519389,1.5110054)" />
    <path
       style="color:#000000;clip-rule:nonzero;display:inline;overflow:visible;visibility:visible;opacity:0.81800022;isolation:auto;mix-blend-mode:normal;color-interpolation:sRGB;color-interpolation-filters:linearRGB;solid-color:#000000;solid-opacity:1;fill:#3797aa;fill-opacity:1;fill-rule:nonzero;stroke:none;stroke-width:1;stroke-linecap:butt;stroke-linejoin:miter;stroke-miterlimit:4;stroke-dasharray:none;stroke-dashoffset:0;stroke-opacity:1;filter:url(#filter4290);color-rendering:auto;image-rendering:auto;shape-rendering:auto;text-rendering:auto;enable-background:accumulate"
       d="m 1713.1988,426.91206 c 1.4311,23.08058 -31.5228,28.65986 -39.0016,35.27672 -7.4788,6.61681 -34.7137,19.36411 -47.313,23.47432 -12.5993,4.11007 -54.1865,5.71364 -69.508,-3.10449 -15.3214,-8.81856 -56.575,3.0863 -79.4461,-0.85361 -22.8711,-3.93974 -34.2593,-19.51277 -44.4205,-27.12235 -10.1612,-7.60996 -22.8977,-8.44486 -22.9034,-42.18095 -0.01,-33.7362 61.4125,-31.20206 73.9721,-34.01391 12.5596,-2.81194 43.878,-25.27207 62.5183,-22.99886 18.6403,2.27328 50.0961,13.32507 67.6964,15.61629 17.6004,2.29123 12.1966,-2.16778 44.4804,3.75648 14.8354,2.72237 24.7667,10.88933 29.8076,15.99249 5.0408,5.10314 22.6866,13.0773 24.1178,36.15787 z"
       id="path3250-3-67"
       inkscape:connector-curvature="0"
       sodipodi:nodetypes="zssszsssssssz" />
    <path
       style="color:#000000;clip-rule:nonzero;display:inline;overflow:visible;visibility:visible;opacity:0.81800022;isolation:auto;mix-blend-mode:normal;color-interpolation:sRGB;color-interpolation-filters:linearRGB;solid-color:#000000;solid-opacity:1;fill:#3797aa;fill-opacity:1;fill-rule:nonzero;stroke:none;stroke-width:0.96210748;stroke-linecap:butt;stroke-linejoin:miter;stroke-miterlimit:4;stroke-dasharray:none;stroke-dashoffset:0;stroke-opacity:1;filter:url(#filter4290);color-rendering:auto;image-rendering:auto;shape-rendering:auto;text-rendering:auto;enable-background:accumulate"
       d="m 1833.2394,820.46626 c -2.5264,-31.97778 36.2035,-38.91224 44.7995,-47.89133 8.596,-8.979 48.6099,-13.82164 63.346,-19.20918 57.6469,-0.68817 118.5565,-24.21151 173.3869,-14.7961 27.1627,5.99903 35.6123,39.50796 47.8923,50.28243 12.28,10.77498 27.3572,12.23477 28.5853,58.92575 1.228,46.69117 -71.4235,41.71658 -86.1597,45.30814 -14.7361,3.59166 -59.5274,25.92067 -81.6284,22.29869 -68.6285,-11.24705 -103.9921,6.10157 -141.9998,-11.97484 -13.5081,-14.36684 -12.2801,-25.14152 -18.4202,-32.32473 -6.14,-7.18322 -27.2755,-18.64104 -29.8019,-50.61883 z"
       id="path3250-5"
       inkscape:connector-curvature="0"
       sodipodi:nodetypes="zsccsssscsz"
       transform="matrix(0.92189857,0,0,0.7336142,296.80698,331.36194)" />
  </g>
  <g
     inkscape:groupmode="layer"
     id="layer1"
     inkscape:label="txt">
    <text
       xml:space="preserve"
       style="font-style:normal;font-variant:normal;font-weight:normal;font-stretch:normal;line-height:0%;font-family:Lavi;-inkscape-font-specification:Lavi;text-align:center;letter-spacing:0px;word-spacing:0px;text-anchor:middle;fill:#ffffff;fill-opacity:1;stroke:none"
       x="918.56458"
       y="492.46857"
       id="text4246-3-2-9-6-6-0-5-1"><tspan
         sodipodi:role="line"
         style="font-size:45px;line-height:1.25;fill:#ffffff"
         x="918.56458"
         y="492.46857"
         id="tspan4150">we begraven</tspan><tspan
         sodipodi:role="line"
         style="font-size:45px;line-height:1.25;fill:#ffffff"
         x="918.56458"
         y="548.71857"
         id="tspan4378-7-6-4">onze fouten</tspan></text>
    <text
       xml:space="preserve"
       style="font-style:normal;font-variant:normal;font-weight:normal;font-stretch:normal;line-height:0%;font-family:Lavi;-inkscape-font-specification:Lavi;text-align:center;letter-spacing:0px;word-spacing:0px;text-anchor:middle;fill:#ffffff;fill-opacity:1;stroke:none"
       x="2149.1492"
       y="955.14771"
       id="text4246-3-2-9-6-6-0-5-1-3"><tspan
         sodipodi:role="line"
         style="font-size:45px;line-height:1.25;fill:#ffffff"
         x="2149.1492"
         y="955.14771"
         id="tspan4378-7-6-4-5">traditie</tspan></text>
    <text
       xml:space="preserve"
       style="font-style:normal;font-variant:normal;font-weight:normal;font-stretch:normal;line-height:0%;font-family:Lavi;-inkscape-font-specification:Lavi;text-align:center;letter-spacing:0px;word-spacing:0px;text-anchor:middle;fill:#ffffff;fill-opacity:1;stroke:none"
       x="1562.9053"
       y="436.75476"
       id="text4246-3-2-9-6-6-0-5-1-3-3"><tspan
         sodipodi:role="line"
         style="font-size:45px;line-height:1.25;fill:#ffffff"
         x="1562.9053"
         y="436.75476"
         id="tspan4378-7-6-4-5-2">eeuwenlang</tspan></text>
    <text
       xml:space="preserve"
       style="font-style:normal;font-variant:normal;font-weight:normal;font-stretch:normal;line-height:0%;font-family:Lavi;-inkscape-font-specification:Lavi;text-align:center;letter-spacing:0px;word-spacing:0px;text-anchor:middle;fill:#000000;fill-opacity:1;stroke:none"
       x="1074.4404"
       y="1620.2848"
       id="text4246-3-2-9-6-6-0-5-1-3-9"><tspan
         sodipodi:role="line"
         style="font-size:45px;line-height:1.25"
         x="1074.4404"
         y="1620.2848"
         id="tspan4378-7-6-4-5-7">Natuurlijk!</tspan></text>
    <text
       xml:space="preserve"
       style="font-style:normal;font-variant:normal;font-weight:normal;font-stretch:normal;line-height:0%;font-family:Lavi;-inkscape-font-specification:Lavi;text-align:center;letter-spacing:0px;word-spacing:0px;text-anchor:middle;fill:#000000;fill-opacity:1;stroke:none"
       x="1801.1611"
       y="2616.5117"
       id="text4246-3-2-9-6-6-0-5-1-3-9-0"><tspan
         sodipodi:role="line"
         style="font-size:37.30024719px;line-height:1.25"
         x="1801.1611"
         y="2616.5117"
         id="tspan4378-7-6-4-5-7-3">Kom op,</tspan><tspan
         sodipodi:role="line"
         style="font-size:37.30024719px;line-height:1.25"
         x="1801.1611"
         y="2663.137"
         id="tspan3399">doorwerken,</tspan><tspan
         sodipodi:role="line"
         style="font-size:37.30024719px;line-height:1.25"
         x="1801.1611"
         y="2709.7625"
         id="tspan3401">Carrot!</tspan></text>
    <text
       xml:space="preserve"
       style="font-style:normal;font-variant:normal;font-weight:normal;font-stretch:normal;line-height:0%;font-family:Lavi;-inkscape-font-specification:Lavi;text-align:center;letter-spacing:0px;word-spacing:0px;text-anchor:middle;fill:#000000;fill-opacity:1;stroke:none"
       x="1302.8546"
       y="3313.1096"
       id="text4246-3-2-9-6-6-0-5-1-3-9-0-3"
       transform="matrix(0.95684986,-0.26535014,0.03415032,1.0356256,0,0)"><tspan
         sodipodi:role="line"
         style="font-size:31.61978531px;line-height:1.25"
         x="1302.8546"
         y="3313.1096"
         id="tspan4378-7-6-4-5-7-3-3">Zzzz</tspan></text>
    <flowRoot
       xml:space="preserve"
       id="flowRoot3382"
       style="font-style:normal;font-weight:normal;line-height:0.01%;font-family:sans-serif;letter-spacing:0px;word-spacing:0px;fill:#000000;fill-opacity:1;stroke:none;stroke-width:1px;stroke-linecap:butt;stroke-linejoin:miter;stroke-opacity:1"><flowRegion
         id="flowRegion3384"><rect
           id="rect3386"
           width="52.46875"
           height="99.1875"
           x="1794.7188"
           y="2604.5625" /></flowRegion><flowPara
         id="flowPara3388"
         style="font-size:40px;line-height:1.25"> </flowPara></flowRoot>  </g>
</svg>
