<?xml version="1.0" encoding="UTF-8" standalone="no"?>
<!-- Created with Inkscape (http://www.inkscape.org/) -->

<svg
   xmlns:dc="http://purl.org/dc/elements/1.1/"
   xmlns:cc="http://creativecommons.org/ns#"
   xmlns:rdf="http://www.w3.org/1999/02/22-rdf-syntax-ns#"
   xmlns:svg="http://www.w3.org/2000/svg"
   xmlns="http://www.w3.org/2000/svg"
   xmlns:xlink="http://www.w3.org/1999/xlink"
   xmlns:sodipodi="http://sodipodi.sourceforge.net/DTD/sodipodi-0.dtd"
   xmlns:inkscape="http://www.inkscape.org/namespaces/inkscape"
   id="svg2"
   version="1.1"
   inkscape:version="0.92.1 r"
   width="2481"
   height="3503"
   sodipodi:docname="Pepper-and-Carrot_by-David-Revoy_E19P02.svg">
  <metadata
     id="metadata8">
    <rdf:RDF>
      <cc:Work
         rdf:about="">
        <dc:format>image/svg+xml</dc:format>
        <dc:type
           rdf:resource="http://purl.org/dc/dcmitype/StillImage" />
        <dc:title></dc:title>
      </cc:Work>
    </rdf:RDF>
  </metadata>
  <defs
     id="defs6">
    <filter
       inkscape:collect="always"
       style="color-interpolation-filters:sRGB"
       id="filter5236-4-16-3"
       x="-0.0089085409"
       width="1.0178171"
       y="-0.027928527"
       height="1.0558571">
      <feGaussianBlur
         inkscape:collect="always"
         stdDeviation="0.49168068"
         id="feGaussianBlur5238-0-4-6" />
    </filter>
    <filter
       inkscape:collect="always"
       style="color-interpolation-filters:sRGB"
       id="filter5236-4-16"
       x="-0.0089085409"
       width="1.0178171"
       y="-0.027928527"
       height="1.0558571">
      <feGaussianBlur
         inkscape:collect="always"
         stdDeviation="0.49168068"
         id="feGaussianBlur5238-0-4" />
    </filter>
  </defs>
  <sodipodi:namedview
     pagecolor="#ffffff"
     bordercolor="#666666"
     borderopacity="1"
     objecttolerance="10"
     gridtolerance="10"
     guidetolerance="10"
     inkscape:pageopacity="0"
     inkscape:pageshadow="2"
     inkscape:window-width="1920"
     inkscape:window-height="1013"
     id="namedview4"
     showgrid="false"
     inkscape:zoom="0.49190037"
     inkscape:cx="1263.9222"
     inkscape:cy="2745.2876"
     inkscape:window-x="0"
     inkscape:window-y="0"
     inkscape:window-maximized="1"
     inkscape:current-layer="layer1" />
  <g
     inkscape:groupmode="layer"
     id="layer2"
     inkscape:label="artwork"
     sodipodi:insensitive="true">
    <image
       sodipodi:absref="/home/ruben/git/peppercarrot/ep19/nl/../gfx_Pepper-and-Carrot_by-David-Revoy_E19P02.png"
       xlink:href="../gfx_Pepper-and-Carrot_by-David-Revoy_E19P02.png"
       y="0"
       x="0"
       id="image10"
       height="3503"
       width="2481" />
  </g>
  <g
     inkscape:groupmode="layer"
     id="layer4"
     inkscape:label="translatornotes"
     sodipodi:insensitive="true">
    <path
       inkscape:connector-curvature="0"
       id="path3446"
       d="m 2763.8482,1498.4924 0,-189.0352 -203.8301,0 0,90.9805 -10,0 0,-15.6308 -30.9824,26.9824 30.9824,26.9804 0,-16.6171 10,0 0,76.3398 203.8301,0 z"
       style="color:#000000;clip-rule:nonzero;display:inline;overflow:visible;visibility:visible;opacity:0.481;isolation:auto;mix-blend-mode:normal;color-interpolation:sRGB;color-interpolation-filters:linearRGB;solid-color:#000000;solid-opacity:1;fill:#ffe680;fill-opacity:1;fill-rule:nonzero;stroke:#565656;stroke-width:1.20000005;stroke-linecap:butt;stroke-linejoin:miter;stroke-miterlimit:4;stroke-dasharray:none;stroke-dashoffset:0;stroke-opacity:1;marker:none;color-rendering:auto;image-rendering:auto;shape-rendering:auto;text-rendering:auto;enable-background:accumulate" />
    <flowRoot
       transform="translate(2793.4167,295.2096)"
       style="font-style:normal;font-variant:normal;font-weight:normal;font-stretch:normal;line-height:0.01%;font-family:Lavi;-inkscape-font-specification:'Lavi, Normal';text-align:center;letter-spacing:0px;word-spacing:0px;writing-mode:lr-tb;text-anchor:middle;display:inline;opacity:0.481;fill:#000000;fill-opacity:1;stroke:none;stroke-width:1px;stroke-linecap:butt;stroke-linejoin:miter;stroke-opacity:1"
       id="flowRoot3448"
       xml:space="preserve"><flowRegion
         id="flowRegion3450"><rect
           y="1061.6674"
           x="-275.14545"
           height="247.52747"
           width="291.95547"
           id="rect3452" /></flowRegion><flowPara
         id="flowPara3473"
         style="font-size:25.3241539px;line-height:1.25">labels</flowPara><flowPara
         id="flowPara4255"
         style="font-size:25.3241539px;line-height:1.25">in the </flowPara><flowPara
         id="flowPara4257"
         style="font-size:25.3241539px;line-height:1.25">garden :-)</flowPara></flowRoot>  </g>
  <g
     inkscape:groupmode="layer"
     id="layer3"
     inkscape:label="speechbubbles"
     style="display:inline">
    <path
       style="color:#000000;display:inline;overflow:visible;visibility:visible;fill:#ffffff;fill-opacity:1;fill-rule:nonzero;stroke:none;stroke-width:1px;marker:none;enable-background:accumulate"
       d="m 953.20613,210.28278 c 31.10517,-30.18153 341.74557,-48.42757 433.28627,1.1738 76.4077,41.40157 66.8839,144.50628 9.2352,168.25449 -57.6489,23.74829 -263.333,20.99185 -355.1059,10.22501 -87.38039,-10.25154 -107.02417,-41.19457 -121.83531,-103.49817 -6.0451,-25.42853 3.31431,-45.97351 34.41974,-76.15513 z"
       id="path4040-4"
       inkscape:connector-curvature="0"
       sodipodi:nodetypes="zssssz" />
    <path
       style="color:#000000;display:inline;overflow:visible;visibility:visible;fill:#ffffff;fill-opacity:1;fill-rule:nonzero;stroke:none;stroke-width:1px;marker:none;enable-background:accumulate"
       d="m 1153.5518,464.81628 c 7.836,-75.51536 86.1523,-129.26211 286.6236,-110.87578 107.3832,9.84864 229.3919,17.37576 219.1605,128.02626 -10.2316,110.65038 -185.6868,104.16939 -221.9732,106.01096 -36.2866,1.84168 -224.764,-13.6847 -256.9955,-52.06317 -20.1765,-24.0239 -27.8861,-47.68269 -26.8154,-71.09827 z"
       id="path4546-6"
       inkscape:connector-curvature="0"
       sodipodi:nodetypes="cssssc" />
    <path
       style="color:#000000;display:inline;overflow:visible;visibility:visible;fill:#ffffff;fill-opacity:1;fill-rule:nonzero;stroke:none;stroke-width:1px;marker:none;enable-background:accumulate"
       d="m 1350.4028,599.35411 c 41.0097,-56.35465 255.8827,-44.282 331.972,-31.60945 112.9628,18.81374 108.137,70.94541 111.5888,85.86603 3.4517,14.9205 -5.1777,84.09757 -43.1479,97.66182 -37.9703,13.56412 -146.703,20.34617 -184.6733,20.34617 -37.97,0 -159.1792,-8.63352 -189.851,-28.48474 -29.3407,-18.98978 -66.8985,-87.42531 -25.8886,-143.77983 z"
       id="path3330"
       inkscape:connector-curvature="0"
       sodipodi:nodetypes="zsssssz" />
    <path
       style="color:#000000;display:inline;overflow:visible;visibility:visible;fill:#ffffff;fill-opacity:1;fill-rule:nonzero;stroke:none;stroke-width:1px;marker:none;enable-background:accumulate"
       d="m 1537.5273,716.72439 c -4.748,19.68499 -0.6503,33.38997 2.5742,37.35036 3.2245,3.96027 2.3513,12.12365 5.2378,17.57337 2.3614,4.51862 3.5729,10.81257 -0.8434,12.64306 -4.4163,1.83058 -29.4289,3.69855 -33.6755,16.66121 -4.2467,12.96272 3.9771,24.00648 14.1454,30.32451 10.1684,6.31815 24.4145,10.44127 22.2717,20.40102 -2.1427,9.95976 -9.8422,13.23017 -15.8741,13.66024 -6.0318,0.43007 -42.6593,-1.86158 -51.9545,1.56498 -9.295,3.4266 -34.8875,18.35716 -31.0179,31.36521 11.9004,-13.15184 18.3151,-19.01847 27.1348,-20.36055 8.8198,-1.34212 24.7212,-5.09072 34.6744,-1.78852 9.9534,3.30225 30.2251,7.01956 38.1327,2.88942 7.9077,-4.13 22.6869,-13.91278 22.9796,-24.81049 0.2928,-10.89767 -5.2053,-22.98724 -21.3925,-31.19418 -10.1682,-6.31811 -14.5522,-10.2849 -13.6078,-13.29434 0.9444,-3.00939 11.8681,-7.35452 23.4562,-6.13032 11.5882,1.22424 17.0469,-9.49086 18.0108,-15.97871 0.9638,-6.48781 -2.7884,-15.67273 -3.2186,-21.7046 -0.4301,-6.03183 -6.7045,-40.19004 -6.7045,-40.19004 z"
       id="path5058"
       inkscape:connector-curvature="0"
       sodipodi:nodetypes="cscsssssscssssccscccc" />
    <path
       style="color:#000000;display:inline;overflow:visible;visibility:visible;fill:#ffffff;fill-opacity:1;fill-rule:nonzero;stroke:none;stroke-width:1px;marker:none;enable-background:accumulate"
       d="m 1386.1881,1850.679 c 6.9079,-72.8146 44.795,-99.1263 128.0819,-102.9449 41.3518,-1.896 191.1218,-8.4705 251.8318,4.7034 60.71,13.1739 112.6774,53.5217 108.0722,106.8774 -4.6052,53.3556 -10.0524,94.6842 -76.3541,109.7874 -66.3016,15.1032 -193.4576,3.9809 -206.6978,4.6086 -26.4802,1.2554 -163.6253,-16.4555 -186.5129,-53.9834 -14.3271,-23.4915 -19.5724,-46.4506 -18.4211,-69.0485 z"
       id="path4546-6-3"
       inkscape:connector-curvature="0"
       sodipodi:nodetypes="cssssssc" />
    <path
       style="color:#000000;display:inline;overflow:visible;visibility:visible;fill:#ffffff;fill-opacity:1;fill-rule:nonzero;stroke:none;stroke-width:1px;marker:none;enable-background:accumulate"
       d="m 1760.2318,1983.0096 c -2.1894,-13.9006 21.8159,-72.4119 155.3725,-63.1448 133.5566,9.2671 147.5063,20.9339 153.6003,70.8244 2.2523,18.4386 -18.5316,45.3021 -38.2367,49.9356 -19.7051,4.6335 -77.3192,17.7137 -110.1609,14.007 -32.8418,-3.7069 -81.3209,-2.8275 -129.6411,-22.2636 -29.1638,-11.7307 -28.7446,-45.6518 -30.9341,-49.3586 z"
       id="path3365"
       inkscape:connector-curvature="0"
       sodipodi:nodetypes="csssssc" />
    <path
       style="fill:#ffffff;fill-opacity:1;stroke:none;stroke-width:0.99999988"
       d="m 1798.7249,2176.7111 c -6.5808,-134.0364 63.175,-178.2072 246.1196,-172.1147 87.9079,2.9275 160.837,1.0896 202.7595,20.4464 45.3221,20.9265 56.1552,64.4813 59.2003,105.971 13.1076,178.5894 -100.2022,219.3701 -160.6356,228.4795 -120.7136,18.1954 -293.4819,-28.9451 -317.1725,-67.0237 -23.6906,-38.0786 -28.9552,-80.7264 -30.2713,-115.7585 z"
       id="path3238"
       inkscape:connector-curvature="0"
       sodipodi:nodetypes="csssssc" />
    <path
       style="color:#000000;display:inline;overflow:visible;visibility:visible;fill:#ffffff;fill-opacity:1;fill-rule:nonzero;stroke:none;stroke-width:1px;marker:none;enable-background:accumulate"
       d="m 1882.8016,2295.7967 c -30.6436,39.5697 -91.823,73.3362 -171.3605,30.1552 76.0815,26.4581 119.8575,-5.9599 145.0149,-45.5895 21.7184,-34.2122 33.4899,-49.0683 33.4899,-49.0683 z"
       id="path4440"
       inkscape:connector-curvature="0"
       sodipodi:nodetypes="ccscc" />
    <path
       style="color:#000000;display:inline;overflow:visible;visibility:visible;fill:#ffffff;fill-opacity:1;fill-rule:nonzero;stroke:none;stroke-width:1px;marker:none;enable-background:accumulate"
       d="m 99.10428,2771.8823 c 31.99312,-12.2732 47.15717,-20.7797 0.558863,-38.4385 9.567677,-0.1342 62.960527,-2.4012 11.911927,-36.8841 16.83039,4.4513 43.74414,16.2704 13.44853,-40.9721 18.21598,9.1261 43.48303,38.307 21.31915,-15.761 24.00186,18.2736 55.62366,6.7206 49.15043,-2.8789 19.31679,11.6523 57.25291,10.6888 54.00334,0.8012 14.20228,10.7867 52.67665,13.9491 49.65735,-4.1301 11.80087,12.4273 48.42496,11.1471 44.83454,0.5882 30.94024,12.5693 75.67056,20.3166 92.57567,2.7922 14.4349,16.5848 81.57976,11.5766 137.89457,0.257 0.88213,11.7067 63.5608,13.7618 114.64345,-5.2955 0.77315,17.7841 19.20684,23.8101 41.73233,10.7225 8.04395,7.2998 5.89704,11.546 37.50797,-5.7355 -1.50911,11.884 4.1175,22.8477 26.14186,11.4709 3.83668,7.3517 -10.2033,26.4062 45.46434,-1.434 0.36802,10.3924 -12.69908,30.8 35.23476,5.7354 -38.88489,61.7455 -17.3334,55.1369 9.09278,43.015 -20.57588,36.4241 -47.11395,81.6018 5.17723,79.941 -40.94447,8.4146 -40.22869,20.9267 -34.72891,40.5009 -51.3167,-39.4166 -57.3462,-9.4613 -79.56249,-4.3015 -23.45352,-6.5574 -45.06017,-30.587 -72.74261,2.8677 -42.40809,-13.7671 -50.81596,-1.1395 -64.78662,7.1693 -74.0902,-26.4199 -72.34008,-5.0035 -105.70444,-5.7355 -19.72626,-32.6811 -64.24137,-8.0312 -96.61156,-11.4705 -40.91769,-26.7988 -101.80501,-3.3076 -133.65852,7.0227 15.56849,-16.7403 -22.77026,-31.6846 -59.23071,4.6179 18.10551,-30.6756 -11.60025,-41.0179 -67.05973,-1.511 26.06184,-36.3481 -9.98195,-30.5551 -50.34418,-7.262 39.50259,-35.3211 -2.24023,-38.3489 -25.91932,-35.6917 z"
       id="path3557"
       inkscape:connector-curvature="0"
       sodipodi:nodetypes="cccccccccccccccccccccccccccccc" />
    <path
       style="color:#000000;display:inline;overflow:visible;visibility:visible;fill:#ffffff;fill-opacity:1;fill-rule:nonzero;stroke:none;stroke-width:1px;marker:none;enable-background:accumulate"
       d="m 249.63948,2857.6402 c 10.91144,-70.6242 102.43151,-119.8728 332.79956,-99.848 123.39754,10.7263 263.69344,19.4825 249.14491,122.9836 -14.54866,103.5009 -216.41048,94.9774 -258.2378,96.195 -41.82731,1.2177 -258.45691,-15.9605 -294.60933,-52.3594 -22.63058,-22.7848 -30.91589,-45.0533 -29.09734,-66.9712 z"
       id="path4546"
       inkscape:connector-curvature="0"
       sodipodi:nodetypes="cssssc" />
    <path
       style="fill:#ffffff;stroke:none"
       d="m 1699.0759,2765.6805 c 5.7041,-60.4636 40.1072,-85.0538 55.7177,-93.079 15.6104,-8.0252 81.1443,-18.3199 123.9526,-16.548 42.8084,1.7719 148.9291,10.4999 166.7759,13.4066 17.8468,2.9066 65.4584,48.234 64.9477,87.2344 -0.5106,39.0001 -10.0571,64.619 -36.0695,87.3886 -26.0126,22.7698 -181.2008,27.1856 -190.7622,24.6219 -9.5615,-2.5636 -137.2512,-23.0237 -145.2214,-29.8572 -7.9703,-6.8334 -40.2716,-25.5131 -39.3408,-73.1673 z"
       id="path3278"
       inkscape:connector-curvature="0" />
    <path
       style="color:#000000;display:inline;overflow:visible;visibility:visible;fill:#ffffff;fill-opacity:1;fill-rule:nonzero;stroke:none;stroke-width:1px;marker:none;enable-background:accumulate"
       d="m 1757.0584,2875.853 c 37.4096,-48.2213 353.1886,-100.5629 464.1736,-1.1886 110.9849,99.3743 43.6662,218.6236 -20.0138,256.5665 -63.6799,37.9429 -251.0806,79.4994 -336.5935,46.9769 -85.5131,-32.5225 -152.1223,-81.1373 -156.4707,-180.6805 -1.7747,-40.6276 11.4948,-73.4526 48.9044,-121.6743 z"
       id="path4040"
       inkscape:connector-curvature="0"
       sodipodi:nodetypes="zssssz" />
    <path
       style="display:inline;fill:#ffffff;fill-rule:evenodd;stroke:none;stroke-width:1px;stroke-linecap:butt;stroke-linejoin:miter;stroke-opacity:1"
       d="m 1778.6043,3131.9657 c 54.0726,28.5286 84.8732,16.9272 83.945,-49.3868 25.7977,71.6603 43.7001,87.6873 54.3174,52.3799 34.1545,30.3481 55.4868,21.8353 72.4233,0 6.3126,28.0816 19.8502,16.7498 31.5662,15.3549 3.8587,6.3532 -9.3945,22.1376 44.1489,1.1073 3.4683,8.4093 8.1404,15.651 39.5035,-2.9931 8.1252,34.1321 34.1946,-1.8917 60.9015,-40.4074 -16.6392,47.3518 -9.7396,54.0398 11.5219,35.9176 -9.7206,19.4998 -15.5345,34.5948 21.3976,1.4966 -12.6437,35.9927 20.5271,11.2875 74.0693,-40.4072 -26.7826,38.2124 -97.8041,102.6164 -51.0254,97.2767 -6.5236,11.2651 -29.7928,21.0802 39.5035,38.9107 -12.9367,7.6442 -52.432,-3.5263 -19.4858,28.8398 4.4141,3.7834 -10.3633,6.0937 17.8398,16.0571 -16.6486,-0.6778 -26.8588,1.7436 -11.5219,16.4623 -30.3899,-0.7959 -19.0193,14.6808 3.292,34.4209 -44.0088,-25.3209 -46.4307,-16.1182 -47.7336,-5.9862 -55.1559,-34.521 -58.3935,-23.6523 -65.8391,-16.4623 -26.8844,0.2694 -53.7688,-4.0779 -80.6533,34.421 -7.0406,-23.9452 -21.1563,-42.3768 -80.653,-25.4415 26.1236,-30.4626 -11.0406,-11.0548 -39.5036,1.4965 15.5869,-38.0554 -23.9704,-13.0797 -74.0692,23.945 28.0551,-42.0237 -3.8089,-26.8437 -51.0255,2.9932 17.8399,-41.2842 -11.214,-61.2497 -80.6531,-62.8558 33.2356,-14.8917 52.6169,-33.6324 18.1059,-67.3454 38.9037,9.9269 50.5081,0.7062 23.0437,-35.9176 42.4336,30.0605 23.1406,-13.5407 6.584,-53.8762 z"
       id="path4508"
       inkscape:connector-curvature="0"
       sodipodi:nodetypes="cccccccccccccccccccccccccccc" />
    <path
       style="color:#000000;display:inline;overflow:visible;visibility:visible;fill:#ffffff;fill-opacity:1;fill-rule:nonzero;stroke:none;stroke-width:1px;marker:none;enable-background:accumulate"
       d="m 1490.4164,2866.2226 c 36.6716,-30.7338 78.1642,-56.332 109.2346,-93.0329 l -8.5001,41.4633 c 17.679,-7.3977 29.5108,-24.339 43.3282,-38.0398 l -1.0152,26.2988 c 41.5356,-17.9715 69.9349,-49.3371 104.6834,-74.2288 l -5.4459,45.8738 c -37.8988,21.0955 -78.4597,35.8216 -113.3641,64.0815 l -1.6444,-25.6614 c -13.3358,8.0961 -26.3965,16.7337 -38.2287,27.7896 l 0.8284,-32.5393 z"
       id="path4032"
       inkscape:connector-curvature="0"
       sodipodi:nodetypes="cccccccccccc" />
    <path
       style="color:#000000;display:inline;overflow:visible;visibility:visible;fill:#ffffff;fill-opacity:1;fill-rule:nonzero;stroke:none;stroke-width:1px;marker:none;enable-background:accumulate"
       d="m 1014.6991,2946.1092 c -39.72192,-30.7338 -84.66592,-56.332 -118.32072,-93.0329 l 9.2071,41.4633 c -19.1495,-7.3977 -31.9655,-24.339 -46.9322,-38.0398 l 1.0996,26.2988 c -44.9905,-17.9715 -75.7521,-49.3371 -113.3909,-74.2288 l 5.8989,45.8738 c 41.0512,21.0955 84.9859,35.8216 122.7937,64.0815 l 1.7812,-25.6614 c 14.445,8.0961 28.5921,16.7337 41.4085,27.7896 l -0.8973,-32.5393 z"
       id="path4032-6"
       inkscape:connector-curvature="0"
       sodipodi:nodetypes="cccccccccccc" />
  </g>
  <g
     inkscape:groupmode="layer"
     id="layer1"
     inkscape:label="txt">
    <text
       xml:space="preserve"
       style="font-style:normal;font-variant:normal;font-weight:normal;font-stretch:normal;line-height:0%;font-family:Lavi;-inkscape-font-specification:Lavi;text-align:center;letter-spacing:0px;word-spacing:0px;text-anchor:middle;fill:#000000;fill-opacity:1;stroke:none"
       x="1189.5547"
       y="231.27289"
       id="text4246"><tspan
         sodipodi:role="line"
         style="font-size:45px;line-height:1.25"
         x="1189.5547"
         y="231.27289"
         id="tspan4252">Ehm ...</tspan></text>
    <text
       xml:space="preserve"
       style="font-style:normal;font-variant:normal;font-weight:normal;font-stretch:normal;line-height:0%;font-family:Lavi;-inkscape-font-specification:Lavi;text-align:center;letter-spacing:0px;word-spacing:0px;text-anchor:middle;fill:#000000;fill-opacity:1;stroke:none"
       x="1189.4668"
       y="291.99628"
       id="text4246-3"><tspan
         sodipodi:role="line"
         style="font-size:45px;line-height:1.25"
         x="1189.4668"
         y="291.99628"
         id="tspan4164">Ik ben natuurlijk</tspan><tspan
         sodipodi:role="line"
         style="font-size:45px;line-height:1.25"
         x="1189.4668"
         y="348.24628"
         id="tspan3424">niet de expert hier ...</tspan></text>
    <text
       xml:space="preserve"
       style="font-style:normal;font-variant:normal;font-weight:normal;font-stretch:normal;line-height:0%;font-family:Lavi;-inkscape-font-specification:Lavi;text-align:center;letter-spacing:0px;word-spacing:0px;text-anchor:middle;fill:#000000;fill-opacity:1;stroke:none"
       x="1405.2369"
       y="422.73117"
       id="text4246-3-7"><tspan
         sodipodi:role="line"
         style="font-size:45px;line-height:1.25"
         x="1405.2369"
         y="422.73117"
         id="tspan3433">... maar mijn</tspan><tspan
         sodipodi:role="line"
         style="font-size:45px;line-height:1.25"
         x="1405.2369"
         y="478.98117"
         id="tspan3426">moestuin doet nogal</tspan><tspan
         sodipodi:role="line"
         style="font-size:45px;line-height:1.25"
         x="1405.2369"
         y="535.2312"
         id="tspan3429">vreemd dit jaar,</tspan></text>
    <text
       xml:space="preserve"
       style="font-style:normal;font-variant:normal;font-weight:normal;font-stretch:normal;line-height:0%;font-family:Lavi;-inkscape-font-specification:Lavi;text-align:center;letter-spacing:0px;word-spacing:0px;text-anchor:middle;fill:#000000;fill-opacity:1;stroke:none"
       x="1566.8079"
       y="621.36884"
       id="text4246-3-7-6"><tspan
         sodipodi:role="line"
         style="font-size:45px;line-height:1.25"
         x="1566.8079"
         y="621.36884"
         id="tspan4232">net als een hoop</tspan><tspan
         sodipodi:role="line"
         style="font-size:45px;line-height:1.25"
         x="1566.8079"
         y="677.61884"
         id="tspan3440">andere planten</tspan><tspan
         sodipodi:role="line"
         style="font-size:45px;line-height:1.25"
         x="1566.8079"
         y="733.86884"
         id="tspan3442">rondom het huis.</tspan></text>
    <text
       xml:space="preserve"
       style="font-style:normal;font-variant:normal;font-weight:normal;font-stretch:normal;line-height:0%;font-family:Lavi;-inkscape-font-specification:Lavi;text-align:center;letter-spacing:0px;word-spacing:0px;text-anchor:middle;fill:#000000;fill-opacity:1;stroke:none"
       x="1635.0944"
       y="1815.2041"
       id="text4246-3-2"><tspan
         sodipodi:role="line"
         style="font-size:45px;line-height:1.25"
         x="1635.0944"
         y="1815.2041"
         id="tspan4259">De mieren zijn</tspan><tspan
         sodipodi:role="line"
         style="font-size:45px;line-height:1.25"
         x="1635.0944"
         y="1871.4541"
         id="tspan3425">volgens mij ook iets</tspan><tspan
         sodipodi:role="line"
         style="font-size:45px;line-height:1.25"
         x="1635.0944"
         y="1927.7041"
         id="tspan3428">raars van plan.</tspan></text>
    <text
       xml:space="preserve"
       style="font-style:normal;font-variant:normal;font-weight:normal;font-stretch:normal;line-height:0%;font-family:Lavi;-inkscape-font-specification:Lavi;text-align:center;letter-spacing:0px;word-spacing:0px;text-anchor:middle;fill:#000000;fill-opacity:1;stroke:none"
       x="1928.5547"
       y="1997.0601"
       id="text4246-3-2-9"><tspan
         sodipodi:role="line"
         style="font-size:45px;line-height:1.25"
         x="1928.5547"
         y="1997.0601"
         id="tspan4259-0">Dus ...</tspan></text>
    <text
       xml:space="preserve"
       style="font-style:normal;font-variant:normal;font-weight:normal;font-stretch:normal;line-height:0%;font-family:Lavi;-inkscape-font-specification:Lavi;text-align:center;letter-spacing:0px;word-spacing:0px;text-anchor:middle;fill:#000000;fill-opacity:1;stroke:none"
       x="2053.186"
       y="2087.249"
       id="text4246-3-2-9-6"><tspan
         sodipodi:role="line"
         style="font-size:45px;line-height:1.25"
         x="2053.186"
         y="2087.249"
         id="tspan4259-0-2">ik dacht bij mezelf,</tspan><tspan
         sodipodi:role="line"
         style="font-size:45px;line-height:1.25"
         x="2053.186"
         y="2143.499"
         id="tspan3461">misschien hebben we</tspan><tspan
         sodipodi:role="line"
         style="font-size:45px;line-height:1.25"
         x="2053.186"
         y="2199.749"
         id="tspan3463">last van vervuiling,</tspan><tspan
         sodipodi:role="line"
         style="font-size:45px;line-height:1.25"
         x="2053.186"
         y="2255.999"
         id="tspan3465">en moeten we eens</tspan><tspan
         sodipodi:role="line"
         style="font-size:45px;line-height:1.25"
         x="2053.186"
         y="2312.249"
         id="tspan4326">opruimen ...</tspan></text>
    <text
       xml:space="preserve"
       style="font-style:normal;font-variant:normal;font-weight:normal;font-stretch:normal;line-height:0%;font-family:Lavi;-inkscape-font-specification:Lavi;text-align:center;letter-spacing:0px;word-spacing:0px;text-anchor:middle;fill:#000000;fill-opacity:1;stroke:none;stroke-width:0.40000001;stroke-miterlimit:4;stroke-dasharray:none"
       x="492.45117"
       y="2702.5537"
       id="text4246-3-2-9-6-6"><tspan
         sodipodi:role="line"
         style="font-size:45px;line-height:1.25;stroke-width:0.40000001;stroke-miterlimit:4;stroke-dasharray:none"
         x="492.45117"
         y="2702.5537"
         id="tspan4219"> Zeg, luister eens, mevrouw</tspan><tspan
         sodipodi:role="line"
         style="font-size:45px;line-height:1.25;stroke:#000000;stroke-width:0.40000001;stroke-miterlimit:4;stroke-dasharray:none;stroke-opacity:1"
         x="492.45117"
         y="2758.8037"
         id="tspan4378">Ik-Verpruts-Al-Mijn-Toverdranken,</tspan></text>
    <text
       xml:space="preserve"
       style="font-style:normal;font-variant:normal;font-weight:normal;font-stretch:normal;line-height:0%;font-family:Lavi;-inkscape-font-specification:Lavi;text-align:center;letter-spacing:0px;word-spacing:0px;text-anchor:middle;fill:#000000;fill-opacity:1;stroke:none"
       x="1897.0891"
       y="2720.126"
       id="text4246-3-2-9-6-6-0"><tspan
         sodipodi:role="line"
         style="font-size:45px;line-height:1.25"
         x="1897.0891"
         y="2720.126"
         id="tspan4378-7">Bij Chaosah</tspan><tspan
         sodipodi:role="line"
         style="font-size:45px;line-height:1.25"
         x="1897.0891"
         y="2776.376"
         id="tspan3505">begraven we</tspan><tspan
         sodipodi:role="line"
         style="font-size:45px;line-height:1.25"
         x="1897.0891"
         y="2832.626"
         id="tspan3507">onze fouten!</tspan></text>
    <text
       xml:space="preserve"
       style="font-style:normal;font-variant:normal;font-weight:normal;font-stretch:normal;line-height:0%;font-family:Lavi;-inkscape-font-specification:Lavi;text-align:center;letter-spacing:0px;word-spacing:0px;text-anchor:middle;fill:#000000;fill-opacity:1;stroke:none;stroke-width:2.79999995;stroke-miterlimit:4;stroke-dasharray:none"
       x="1996.6411"
       y="2917.0938"
       id="text4246-3-2-9-6-6-0-5"><tspan
         sodipodi:role="line"
         style="font-size:45px;line-height:1.25;stroke-width:2.79999995;stroke-miterlimit:4;stroke-dasharray:none"
         x="1996.6411"
         y="2917.0938"
         id="tspan4424-2">Dat is al eeuwenlang</tspan><tspan
         sodipodi:role="line"
         style="font-size:45px;line-height:1.25;stroke-width:2.79999995;stroke-miterlimit:4;stroke-dasharray:none"
         x="1996.6411"
         y="2973.3438"
         id="tspan4414-3">onze traditie en het kan</tspan><tspan
         sodipodi:role="line"
         style="font-size:45px;line-height:1.25;stroke-width:2.79999995;stroke-miterlimit:4;stroke-dasharray:none"
         x="1996.6411"
         y="3029.5938"
         id="tspan3427">ons niet schelen wat</tspan><tspan
         sodipodi:role="line"
         style="font-size:45px;line-height:1.25;stroke:#000000;stroke-width:2.79999995;stroke-miterlimit:4;stroke-dasharray:none;stroke-opacity:1"
         x="1996.6411"
         y="3085.8438"
         id="tspan3524">MOEDER NATUUR</tspan><tspan
         sodipodi:role="line"
         style="font-size:45px;line-height:1.25;stroke-width:2.79999995;stroke-miterlimit:4;stroke-dasharray:none"
         x="1996.6411"
         y="3142.0938"
         id="tspan4378-7-6">ervan vindt!</tspan></text>
    <text
       xml:space="preserve"
       style="font-style:normal;font-variant:normal;font-weight:normal;font-stretch:normal;line-height:0%;font-family:Lavi;-inkscape-font-specification:Lavi;text-align:center;letter-spacing:0px;word-spacing:0px;text-anchor:middle;fill:#000000;fill-opacity:1;stroke:none;stroke-width:2.79999995;stroke-miterlimit:4;stroke-dasharray:none"
       x="2007.8663"
       y="3221.7754"
       id="text4246-3-2-9-6-6-0-5-1"><tspan
         sodipodi:role="line"
         style="font-size:45px;line-height:1.25;stroke-width:2.79999995;stroke-miterlimit:4;stroke-dasharray:none"
         x="2007.8663"
         y="3221.7754"
         id="tspan4544">Dus wees stil en</tspan><tspan
         sodipodi:role="line"
         style="font-size:45px;line-height:1.25;stroke-width:2.79999995;stroke-miterlimit:4;stroke-dasharray:none"
         x="2007.8663"
         y="3278.0254"
         id="tspan4378-7-6-4"><tspan
   style="stroke:#000000;stroke-width:2.79999995;stroke-miterlimit:4;stroke-dasharray:none;stroke-opacity:1"
   id="tspan3535">GRAAF</tspan>!</tspan></text>
    <text
       xml:space="preserve"
       style="font-style:normal;font-variant:normal;font-weight:normal;font-stretch:normal;line-height:0%;font-family:Lavi;-inkscape-font-specification:Lavi;text-align:center;letter-spacing:0px;word-spacing:0px;text-anchor:middle;fill:#000000;fill-opacity:1;stroke:none"
       x="541.63788"
       y="2825.7781"
       id="text4246-3-2-9-6-6-7"><tspan
         sodipodi:role="line"
         style="font-size:45px;line-height:1.25"
         x="541.63788"
         y="2825.7781"
         id="tspan4574">die Hippiah-outfit</tspan><tspan
         sodipodi:role="line"
         style="font-size:45px;line-height:1.25"
         x="541.63788"
         y="2882.0281"
         id="tspan3492">is je zeker naar het hoofd</tspan><tspan
         sodipodi:role="line"
         style="font-size:45px;line-height:1.25"
         x="541.63788"
         y="2938.2781"
         id="tspan4378-5">gestegen?</tspan></text>
    <text
       id="text4178-6-5-9-0-7-0-4"
       style="font-style:normal;font-variant:normal;font-weight:normal;font-stretch:normal;line-height:0%;font-family:Lavi;-inkscape-font-specification:Lavi;text-align:center;letter-spacing:0px;word-spacing:0px;text-anchor:middle;opacity:0.63300003;fill:#ffffff;fill-opacity:1;stroke:none;filter:url(#filter5236-4-16)"
       xml:space="preserve"
       y="3129.8394"
       x="1318.7137"
       transform="matrix(0.68593226,-0.05743026,-0.10983858,0.78011257,180.17523,-972.47418)"><tspan
         y="3129.8394"
         x="1318.7137"
         style="font-style:normal;font-variant:normal;font-weight:normal;font-stretch:normal;font-size:40.67671585px;line-height:1.25;font-family:Fondamento;-inkscape-font-specification:Fondamento;fill:#ffffff;fill-opacity:1"
         sodipodi:role="line"
         id="tspan4293-1-6-3-5-0-2">Tomaten</tspan></text>
    <text
       id="text4178-6-5-9-0-7-0-4-7"
       style="font-style:normal;font-variant:normal;font-weight:normal;font-stretch:normal;line-height:0%;font-family:Lavi;-inkscape-font-specification:Lavi;text-align:center;letter-spacing:0px;word-spacing:0px;text-anchor:middle;opacity:0.63300003;fill:#ffffff;fill-opacity:1;stroke:none;filter:url(#filter5236-4-16-3)"
       xml:space="preserve"
       y="3129.8394"
       x="1318.7137"
       transform="matrix(0.58613284,0.07817086,-0.38371304,0.70980255,2152.23,-969.61056)"><tspan
         y="3129.8394"
         x="1318.7137"
         style="font-style:normal;font-variant:normal;font-weight:normal;font-stretch:normal;font-size:40.67671585px;line-height:1.25;font-family:Fondamento;-inkscape-font-specification:Fondamento;fill:#ffffff;fill-opacity:1"
         sodipodi:role="line"
         id="tspan4293-1-6-3-5-0-2-5">Aubergines</tspan></text>
  </g>
</svg>
