<?xml version="1.0" encoding="UTF-8" standalone="no"?>
<!-- Created with Inkscape (http://www.inkscape.org/) -->

<svg
   xmlns:dc="http://purl.org/dc/elements/1.1/"
   xmlns:cc="http://creativecommons.org/ns#"
   xmlns:rdf="http://www.w3.org/1999/02/22-rdf-syntax-ns#"
   xmlns:svg="http://www.w3.org/2000/svg"
   xmlns="http://www.w3.org/2000/svg"
   xmlns:xlink="http://www.w3.org/1999/xlink"
   xmlns:sodipodi="http://sodipodi.sourceforge.net/DTD/sodipodi-0.dtd"
   xmlns:inkscape="http://www.inkscape.org/namespaces/inkscape"
   id="svg2"
   version="1.1"
   inkscape:version="0.91 r13725"
   width="2481"
   height="3503"
   sodipodi:docname="Pepper-and-Carrot_by-David-Revoy_E19P02.svg">
  <metadata
     id="metadata8">
    <rdf:RDF>
      <cc:Work
         rdf:about="">
        <dc:format>image/svg+xml</dc:format>
        <dc:type
           rdf:resource="http://purl.org/dc/dcmitype/StillImage" />
        <dc:title />
      </cc:Work>
    </rdf:RDF>
  </metadata>
  <defs
     id="defs6">
    <filter
       inkscape:collect="always"
       style="color-interpolation-filters:sRGB"
       id="filter5236-4-16-3"
       x="-0.0089085409"
       width="1.0178171"
       y="-0.027928527"
       height="1.0558571">
      <feGaussianBlur
         inkscape:collect="always"
         stdDeviation="0.49168068"
         id="feGaussianBlur5238-0-4-6" />
    </filter>
    <filter
       inkscape:collect="always"
       style="color-interpolation-filters:sRGB"
       id="filter5236-4-16"
       x="-0.0089085409"
       width="1.0178171"
       y="-0.027928527"
       height="1.0558571">
      <feGaussianBlur
         inkscape:collect="always"
         stdDeviation="0.49168068"
         id="feGaussianBlur5238-0-4" />
    </filter>
  </defs>
  <sodipodi:namedview
     pagecolor="#ffffff"
     bordercolor="#666666"
     borderopacity="1"
     objecttolerance="10"
     gridtolerance="10"
     guidetolerance="10"
     inkscape:pageopacity="0"
     inkscape:pageshadow="2"
     inkscape:window-width="1920"
     inkscape:window-height="995"
     id="namedview4"
     showgrid="false"
     inkscape:zoom="0.49190037"
     inkscape:cx="1101.2877"
     inkscape:cy="2582.653"
     inkscape:window-x="0"
     inkscape:window-y="0"
     inkscape:window-maximized="1"
     inkscape:current-layer="layer3" />
  <g
     inkscape:groupmode="layer"
     id="layer2"
     inkscape:label="artwork"
     sodipodi:insensitive="true">
    <image
       sodipodi:absref="/home/willem/Git/peppercarrot_ep19_translation/nl/../gfx_Pepper-and-Carrot_by-David-Revoy_E19P02.png"
       xlink:href="../gfx_Pepper-and-Carrot_by-David-Revoy_E19P02.png"
       y="0"
       x="0"
       id="image10"
       height="3503"
       width="2481" />
  </g>
  <g
     inkscape:groupmode="layer"
     id="layer4"
     inkscape:label="translatornotes"
     sodipodi:insensitive="true">
    <path
       inkscape:connector-curvature="0"
       id="path3446"
       d="m 2763.8482,1498.4924 0,-189.0352 -203.8301,0 0,90.9805 -10,0 0,-15.6308 -30.9824,26.9824 30.9824,26.9804 0,-16.6171 10,0 0,76.3398 203.8301,0 z"
       style="color:#000000;clip-rule:nonzero;display:inline;overflow:visible;visibility:visible;opacity:0.481;isolation:auto;mix-blend-mode:normal;color-interpolation:sRGB;color-interpolation-filters:linearRGB;solid-color:#000000;solid-opacity:1;fill:#ffe680;fill-opacity:1;fill-rule:nonzero;stroke:#565656;stroke-width:1.20000005;stroke-linecap:butt;stroke-linejoin:miter;stroke-miterlimit:4;stroke-dasharray:none;stroke-dashoffset:0;stroke-opacity:1;marker:none;color-rendering:auto;image-rendering:auto;shape-rendering:auto;text-rendering:auto;enable-background:accumulate" />
    <flowRoot
       transform="translate(2793.4167,295.2096)"
       style="font-style:normal;font-variant:normal;font-weight:normal;font-stretch:normal;font-size:25.3241539px;line-height:125%;font-family:Lavi;-inkscape-font-specification:'Lavi, Normal';text-align:center;letter-spacing:0px;word-spacing:0px;writing-mode:lr-tb;text-anchor:middle;display:inline;opacity:0.481;fill:#000000;fill-opacity:1;stroke:none;stroke-width:1px;stroke-linecap:butt;stroke-linejoin:miter;stroke-opacity:1"
       id="flowRoot3448"
       xml:space="preserve"><flowRegion
         id="flowRegion3450"><rect
           y="1061.6674"
           x="-275.14545"
           height="247.52747"
           width="291.95547"
           id="rect3452" /></flowRegion><flowPara
         id="flowPara3473">labels</flowPara><flowPara
         id="flowPara4255">in the </flowPara><flowPara
         id="flowPara4257">garden :-)</flowPara></flowRoot>  </g>
  <g
     inkscape:groupmode="layer"
     id="layer3"
     inkscape:label="speechbubbles"
     style="display:inline">
    <path
       style="color:#000000;display:inline;overflow:visible;visibility:visible;fill:#ffffff;fill-opacity:1;fill-rule:nonzero;stroke:none;stroke-width:1px;marker:none;enable-background:accumulate"
       d="m 961.96903,210.28278 c 29.89916,-30.18153 328.49537,-48.42757 416.48687,1.1738 73.4452,41.40157 64.2907,144.50628 8.8771,168.25449 -55.4137,23.74829 -253.123,20.99185 -341.3377,10.22501 -83.99245,-10.25154 -102.8746,-41.19457 -117.11149,-103.49817 -5.81071,-25.42853 3.18581,-45.97351 33.08522,-76.15513 z"
       id="path4040-4"
       inkscape:connector-curvature="0"
       sodipodi:nodetypes="zssssz" />
    <path
       style="color:#000000;display:inline;overflow:visible;visibility:visible;fill:#ffffff;fill-opacity:1;fill-rule:nonzero;stroke:none;stroke-width:1px;marker:none;enable-background:accumulate"
       d="m 1153.5518,464.81628 c 7.836,-75.51536 86.1523,-129.26211 286.6236,-110.87578 107.3832,9.84864 229.3919,17.37576 219.1605,128.02626 -10.2316,110.65038 -185.6868,104.16939 -221.9732,106.01096 -36.2866,1.84168 -224.764,-13.6847 -256.9955,-52.06317 -20.1765,-24.0239 -27.8861,-47.68269 -26.8154,-71.09827 z"
       id="path4546-6"
       inkscape:connector-curvature="0"
       sodipodi:nodetypes="cssssc" />
    <path
       style="color:#000000;display:inline;overflow:visible;visibility:visible;fill:#ffffff;fill-opacity:1;fill-rule:nonzero;stroke:none;stroke-width:1px;marker:none;enable-background:accumulate"
       d="m 1350.4028,599.35411 c 41.0097,-56.35465 255.8827,-44.282 331.972,-31.60945 112.9628,18.81374 108.137,70.94541 111.5888,85.86603 3.4517,14.9205 -5.1777,84.09757 -43.1479,97.66182 -37.9703,13.56412 -146.703,20.34617 -184.6733,20.34617 -37.97,0 -159.1792,-8.63352 -189.851,-28.48474 -29.3407,-18.98978 -66.8985,-87.42531 -25.8886,-143.77983 z"
       id="path3330"
       inkscape:connector-curvature="0"
       sodipodi:nodetypes="zsssssz" />
    <path
       style="color:#000000;display:inline;overflow:visible;visibility:visible;fill:#ffffff;fill-opacity:1;fill-rule:nonzero;stroke:none;stroke-width:1px;marker:none;enable-background:accumulate"
       d="m 1537.5273,716.72439 c -4.748,19.68499 -0.6503,33.38997 2.5742,37.35036 3.2245,3.96027 2.3513,12.12365 5.2378,17.57337 2.3614,4.51862 3.5729,10.81257 -0.8434,12.64306 -4.4163,1.83058 -29.4289,3.69855 -33.6755,16.66121 -4.2467,12.96272 3.9771,24.00648 14.1454,30.32451 10.1684,6.31815 24.4145,10.44127 22.2717,20.40102 -2.1427,9.95976 -9.8422,13.23017 -15.8741,13.66024 -6.0318,0.43007 -42.6593,-1.86158 -51.9545,1.56498 -9.295,3.4266 -34.8875,18.35716 -31.0179,31.36521 11.9004,-13.15184 18.3151,-19.01847 27.1348,-20.36055 8.8198,-1.34212 24.7212,-5.09072 34.6744,-1.78852 9.9534,3.30225 30.2251,7.01956 38.1327,2.88942 7.9077,-4.13 22.6869,-13.91278 22.9796,-24.81049 0.2928,-10.89767 -5.2053,-22.98724 -21.3925,-31.19418 -10.1682,-6.31811 -14.5522,-10.2849 -13.6078,-13.29434 0.9444,-3.00939 11.8681,-7.35452 23.4562,-6.13032 11.5882,1.22424 17.0469,-9.49086 18.0108,-15.97871 0.9638,-6.48781 -2.7884,-15.67273 -3.2186,-21.7046 -0.4301,-6.03183 -6.7045,-40.19004 -6.7045,-40.19004 z"
       id="path5058"
       inkscape:connector-curvature="0"
       sodipodi:nodetypes="cscsssssscssssccscccc" />
    <path
       style="color:#000000;display:inline;overflow:visible;visibility:visible;fill:#ffffff;fill-opacity:1;fill-rule:nonzero;stroke:none;stroke-width:1px;marker:none;enable-background:accumulate"
       d="m 1386.1881,1850.679 c 6.9079,-72.8146 44.795,-99.1263 128.0819,-102.9449 41.3518,-1.896 191.1218,-8.4705 251.8318,4.7034 60.71,13.1739 112.6774,53.5217 108.0722,106.8774 -4.6052,53.3556 -10.0524,94.6842 -76.3541,109.7874 -66.3016,15.1032 -193.4576,3.9809 -206.6978,4.6086 -26.4802,1.2554 -163.6253,-16.4555 -186.5129,-53.9834 -14.3271,-23.4915 -19.5724,-46.4506 -18.4211,-69.0485 z"
       id="path4546-6-3"
       inkscape:connector-curvature="0"
       sodipodi:nodetypes="cssssssc" />
    <path
       style="color:#000000;display:inline;overflow:visible;visibility:visible;fill:#ffffff;fill-opacity:1;fill-rule:nonzero;stroke:none;stroke-width:1px;marker:none;enable-background:accumulate"
       d="m 1760.2318,1983.0096 c -2.1894,-13.9006 21.8159,-72.4119 155.3725,-63.1448 133.5566,9.2671 147.5063,20.9339 153.6003,70.8244 2.2523,18.4386 -18.5316,45.3021 -38.2367,49.9356 -19.7051,4.6335 -77.3192,17.7137 -110.1609,14.007 -32.8418,-3.7069 -81.3209,-2.8275 -129.6411,-22.2636 -29.1638,-11.7307 -28.7446,-45.6518 -30.9341,-49.3586 z"
       id="path3365"
       inkscape:connector-curvature="0"
       sodipodi:nodetypes="csssssc" />
    <path
       style="fill:#ffffff;fill-opacity:1;stroke:none"
       d="m 1772.3322,2174.102 c -7.1321,-125.6982 68.4681,-167.1213 266.7403,-161.4077 198.2722,5.7134 277.5548,43.6546 283.9077,118.5531 14.2057,167.4797 -108.5975,205.7235 -174.0942,214.2661 -130.8274,17.0635 -318.0707,-27.1444 -343.7462,-62.8541 -25.6755,-35.7098 -31.3812,-75.7046 -32.8076,-108.5574 z"
       id="path3238"
       inkscape:connector-curvature="0"
       sodipodi:nodetypes="cssssc" />
    <path
       style="color:#000000;display:inline;overflow:visible;visibility:visible;fill:#ffffff;fill-opacity:1;fill-rule:nonzero;stroke:none;stroke-width:1px;marker:none;enable-background:accumulate"
       d="m 1882.8016,2295.7967 c -30.6436,39.5697 -91.823,73.3362 -171.3605,30.1552 76.0815,26.4581 119.8575,-5.9599 145.0149,-45.5895 21.7184,-34.2122 33.4899,-49.0683 33.4899,-49.0683 z"
       id="path4440"
       inkscape:connector-curvature="0"
       sodipodi:nodetypes="ccscc" />
    <path
       style="color:#000000;display:inline;overflow:visible;visibility:visible;fill:#ffffff;fill-opacity:1;fill-rule:nonzero;stroke:none;stroke-width:1px;marker:none;enable-background:accumulate"
       d="m 99.104281,2771.8823 c 30.100389,-12.2732 44.367329,-20.7797 0.5258,-38.4385 9.001649,-0.1342 59.235749,-2.4012 11.207219,-36.8841 15.83469,4.4513 41.15621,16.2704 12.6529,-40.9721 17.13831,9.1261 40.91055,38.307 20.0579,-15.761 22.5819,18.2736 52.33294,6.7206 46.24267,-2.8789 18.174,11.6523 53.86579,10.6888 50.80847,0.8012 13.36207,10.7867 49.56027,13.9491 46.7196,-4.1301 11.10272,12.4273 45.56011,11.1471 42.18211,0.5882 29.1098,12.5693 71.19386,20.3166 87.09885,2.7922 13.58092,16.5848 76.75346,11.5766 129.73666,0.257 0.82995,11.7067 59.80051,13.7618 107.86109,-5.2955 0.72741,17.7841 18.07056,23.8101 39.26343,10.7225 7.56806,7.2998 5.54816,11.546 35.28897,-5.7355 -1.41982,11.884 3.87391,22.8477 24.59529,11.4709 3.60971,7.3517 -9.59966,26.4062 42.77466,-1.434 0.34624,10.3924 -11.9478,30.8 33.15025,5.7354 -36.58444,61.7455 -16.30795,55.1369 8.55485,43.015 -19.3586,36.4241 -44.32667,81.6018 4.87094,79.941 -38.52218,8.4146 -37.84874,20.9267 -32.67433,40.5009 -48.28078,-39.4166 -53.95358,-9.4613 -74.85554,-4.3015 -22.06599,-6.5574 -42.39439,-30.587 -68.43912,2.8677 -39.89921,-13.7671 -47.80966,-1.1395 -60.95381,7.1693 -69.70699,-26.4199 -68.0604,-5.0035 -99.45091,-5.7355 -18.55925,-32.6811 -60.44083,-8.0312 -90.89598,-11.4705 -38.49698,-26.7988 -95.78217,-3.3076 -125.75122,7.0227 14.64746,-16.7403 -21.42316,-31.6846 -55.72659,4.6179 17.03438,-30.6756 -10.91397,-41.0179 -63.09245,-1.511 24.52001,-36.3481 -9.3914,-30.5551 -47.36579,-7.262 37.1656,-35.3211 -2.10769,-38.3489 -24.385919,-35.6917 z"
       id="path3557"
       inkscape:connector-curvature="0"
       sodipodi:nodetypes="cccccccccccccccccccccccccccccc" />
    <path
       style="color:#000000;display:inline;overflow:visible;visibility:visible;fill:#ffffff;fill-opacity:1;fill-rule:nonzero;stroke:none;stroke-width:1px;marker:none;enable-background:accumulate"
       d="m 265.89618,2853.6402 c 10.60717,-70.6242 99.57519,-119.8728 323.5194,-99.848 119.95659,10.7263 256.34032,19.4825 242.19748,122.9836 -14.14297,103.5009 -210.37585,94.9774 -251.03681,96.195 -40.66095,1.2177 -251.24981,-15.9605 -286.39412,-52.3594 -21.99952,-22.7848 -30.05379,-45.0533 -28.28595,-66.9712 z"
       id="path4546"
       inkscape:connector-curvature="0"
       sodipodi:nodetypes="cssssc" />
    <path
       style="fill:#ffffff;stroke:none"
       d="m 1699.0759,2765.6805 c 5.7041,-60.4636 40.1072,-85.0538 55.7177,-93.079 15.6104,-8.0252 81.1443,-18.3199 123.9526,-16.548 42.8084,1.7719 148.9291,10.4999 166.7759,13.4066 17.8468,2.9066 65.4584,48.234 64.9477,87.2344 -0.5106,39.0001 -10.0571,64.619 -36.0695,87.3886 -26.0126,22.7698 -181.2008,27.1856 -190.7622,24.6219 -9.5615,-2.5636 -137.2512,-23.0237 -145.2214,-29.8572 -7.9703,-6.8334 -40.2716,-25.5131 -39.3408,-73.1673 z"
       id="path3278"
       inkscape:connector-curvature="0" />
    <path
       style="color:#000000;display:inline;overflow:visible;visibility:visible;fill:#ffffff;fill-opacity:1;fill-rule:nonzero;stroke:none;stroke-width:1px;marker:none;enable-background:accumulate"
       d="m 1783.0806,2884.441 c 35.5499,-46.9028 335.6309,-97.8131 441.0986,-1.1561 105.4676,96.657 41.4955,212.6455 -19.0189,249.5509 -60.5142,36.9054 -238.5989,77.3256 -319.8608,45.6924 -81.262,-31.6332 -144.56,-78.9187 -148.6922,-175.74 -1.6865,-39.5167 10.9234,-71.4441 46.4733,-118.3472 z"
       id="path4040"
       inkscape:connector-curvature="0"
       sodipodi:nodetypes="zssssz" />
    <path
       style="display:inline;fill:#ffffff;fill-rule:evenodd;stroke:none;stroke-width:1px;stroke-linecap:butt;stroke-linejoin:miter;stroke-opacity:1"
       d="m 1778.6043,3131.9657 c 54.0726,28.5286 84.8732,16.9272 83.945,-49.3868 25.7977,71.6603 43.7001,87.6873 54.3174,52.3799 34.1545,30.3481 55.4868,21.8353 72.4233,0 6.3126,28.0816 19.8502,16.7498 31.5662,15.3549 3.8587,6.3532 -9.3945,22.1376 44.1489,1.1073 3.4683,8.4093 8.1404,15.651 39.5035,-2.9931 8.1252,34.1321 34.1946,-1.8917 60.9015,-40.4074 -16.6392,47.3518 -9.7396,54.0398 11.5219,35.9176 -9.7206,19.4998 -15.5345,34.5948 21.3976,1.4966 -12.6437,35.9927 20.5271,11.2875 74.0693,-40.4072 -26.7826,38.2124 -97.8041,102.6164 -51.0254,97.2767 -6.5236,11.2651 -29.7928,21.0802 39.5035,38.9107 -12.9367,7.6442 -52.432,-3.5263 -19.4858,28.8398 4.4141,3.7834 -10.3633,6.0937 17.8398,16.0571 -16.6486,-0.6778 -26.8588,1.7436 -11.5219,16.4623 -30.3899,-0.7959 -19.0193,14.6808 3.292,34.4209 -44.0088,-25.3209 -46.4307,-16.1182 -47.7336,-5.9862 -55.1559,-34.521 -58.3935,-23.6523 -65.8391,-16.4623 -26.8844,0.2694 -53.7688,-4.0779 -80.6533,34.421 -7.0406,-23.9452 -21.1563,-42.3768 -80.653,-25.4415 26.1236,-30.4626 -11.0406,-11.0548 -39.5036,1.4965 15.5869,-38.0554 -23.9704,-13.0797 -74.0692,23.945 28.0551,-42.0237 -3.8089,-26.8437 -51.0255,2.9932 17.8399,-41.2842 -11.214,-61.2497 -80.6531,-62.8558 33.2356,-14.8917 52.6169,-33.6324 18.1059,-67.3454 38.9037,9.9269 50.5081,0.7062 23.0437,-35.9176 42.4336,30.0605 23.1406,-13.5407 6.584,-53.8762 z"
       id="path4508"
       inkscape:connector-curvature="0"
       sodipodi:nodetypes="cccccccccccccccccccccccccccc" />
    <path
       style="color:#000000;display:inline;overflow:visible;visibility:visible;fill:#ffffff;fill-opacity:1;fill-rule:nonzero;stroke:none;stroke-width:1px;marker:none;enable-background:accumulate"
       d="m 1490.4164,2866.2226 c 36.6716,-30.7338 78.1642,-56.332 109.2346,-93.0329 l -8.5001,41.4633 c 17.679,-7.3977 29.5108,-24.339 43.3282,-38.0398 l -1.0152,26.2988 c 41.5356,-17.9715 69.9349,-49.3371 104.6834,-74.2288 l -5.4459,45.8738 c -37.8988,21.0955 -78.4597,35.8216 -113.3641,64.0815 l -1.6444,-25.6614 c -13.3358,8.0961 -26.3965,16.7337 -38.2287,27.7896 l 0.8284,-32.5393 z"
       id="path4032"
       inkscape:connector-curvature="0"
       sodipodi:nodetypes="cccccccccccc" />
    <path
       style="color:#000000;display:inline;overflow:visible;visibility:visible;fill:#ffffff;fill-opacity:1;fill-rule:nonzero;stroke:none;stroke-width:1px;marker:none;enable-background:accumulate"
       d="m 1014.6991,2946.1092 c -39.72192,-30.7338 -84.66592,-56.332 -118.32072,-93.0329 l 9.2071,41.4633 c -19.1495,-7.3977 -31.9655,-24.339 -46.9322,-38.0398 l 1.0996,26.2988 c -44.9905,-17.9715 -75.7521,-49.3371 -113.3909,-74.2288 l 5.8989,45.8738 c 41.0512,21.0955 84.9859,35.8216 122.7937,64.0815 l 1.7812,-25.6614 c 14.445,8.0961 28.5921,16.7337 41.4085,27.7896 l -0.8973,-32.5393 z"
       id="path4032-6"
       inkscape:connector-curvature="0"
       sodipodi:nodetypes="cccccccccccc" />
  </g>
  <g
     inkscape:groupmode="layer"
     id="layer1"
     inkscape:label="txt">
    <text
       xml:space="preserve"
       style="font-style:normal;font-variant:normal;font-weight:normal;font-stretch:normal;font-size:12px;line-height:125%;font-family:Lavi;-inkscape-font-specification:Lavi;text-align:center;letter-spacing:0px;word-spacing:0px;text-anchor:middle;fill:#000000;fill-opacity:1;stroke:none"
       x="1189.5547"
       y="231.27289"
       id="text4246"
       sodipodi:linespacing="125%"><tspan
         sodipodi:role="line"
         style="font-size:45px"
         x="1189.5547"
         y="231.27289"
         id="tspan4252">Ehm...</tspan></text>
    <text
       xml:space="preserve"
       style="font-style:normal;font-variant:normal;font-weight:normal;font-stretch:normal;font-size:12px;line-height:125%;font-family:Lavi;-inkscape-font-specification:Lavi;text-align:center;letter-spacing:0px;word-spacing:0px;text-anchor:middle;fill:#000000;fill-opacity:1;stroke:none"
       x="1189.4668"
       y="297.99628"
       id="text4246-3"
       sodipodi:linespacing="125%"><tspan
         sodipodi:role="line"
         style="font-size:45px"
         x="1189.4668"
         y="297.99628"
         id="tspan4164">Ik ben natuurlijk</tspan><tspan
         sodipodi:role="line"
         style="font-size:45px"
         x="1189.4668"
         y="354.24628"
         id="tspan3424">niet de expert hier...</tspan></text>
    <text
       xml:space="preserve"
       style="font-style:normal;font-variant:normal;font-weight:normal;font-stretch:normal;font-size:12px;line-height:125%;font-family:Lavi;-inkscape-font-specification:Lavi;text-align:center;letter-spacing:0px;word-spacing:0px;text-anchor:middle;fill:#000000;fill-opacity:1;stroke:none"
       x="1405.2369"
       y="416.73117"
       id="text4246-3-7"
       sodipodi:linespacing="125%"><tspan
         sodipodi:role="line"
         style="font-size:45px"
         x="1405.2369"
         y="416.73117"
         id="tspan3433">... maar mijn</tspan><tspan
         sodipodi:role="line"
         style="font-size:45px"
         x="1405.2369"
         y="472.98117"
         id="tspan3426">moestuin doet</tspan><tspan
         sodipodi:role="line"
         style="font-size:45px"
         x="1405.2369"
         y="529.2312"
         id="tspan3429">nogal vreemd dit jaar</tspan></text>
    <text
       xml:space="preserve"
       style="font-style:normal;font-variant:normal;font-weight:normal;font-stretch:normal;font-size:12px;line-height:125%;font-family:Lavi;-inkscape-font-specification:Lavi;text-align:center;letter-spacing:0px;word-spacing:0px;text-anchor:middle;fill:#000000;fill-opacity:1;stroke:none"
       x="1566.8079"
       y="621.36884"
       id="text4246-3-7-6"
       sodipodi:linespacing="125%"><tspan
         sodipodi:role="line"
         style="font-size:45px"
         x="1566.8079"
         y="621.36884"
         id="tspan4232">net als een hoop</tspan><tspan
         sodipodi:role="line"
         style="font-size:45px"
         x="1566.8079"
         y="677.61884"
         id="tspan3440">andere planten</tspan><tspan
         sodipodi:role="line"
         style="font-size:45px"
         x="1566.8079"
         y="733.86884"
         id="tspan3442">rondom het huis.</tspan></text>
    <text
       xml:space="preserve"
       style="font-style:normal;font-variant:normal;font-weight:normal;font-stretch:normal;font-size:12px;line-height:125%;font-family:Lavi;-inkscape-font-specification:Lavi;text-align:center;letter-spacing:0px;word-spacing:0px;text-anchor:middle;fill:#000000;fill-opacity:1;stroke:none"
       x="1635.0944"
       y="1815.2041"
       id="text4246-3-2"
       sodipodi:linespacing="125%"><tspan
         sodipodi:role="line"
         style="font-size:45px"
         x="1635.0944"
         y="1815.2041"
         id="tspan4259">De mieren zijn</tspan><tspan
         sodipodi:role="line"
         style="font-size:45px"
         x="1635.0944"
         y="1871.4541"
         id="tspan3425">volgens mij ook iets</tspan><tspan
         sodipodi:role="line"
         style="font-size:45px"
         x="1635.0944"
         y="1927.7041"
         id="tspan3428">raars van plan.</tspan></text>
    <text
       xml:space="preserve"
       style="font-style:normal;font-variant:normal;font-weight:normal;font-stretch:normal;font-size:12px;line-height:125%;font-family:Lavi;-inkscape-font-specification:Lavi;text-align:center;letter-spacing:0px;word-spacing:0px;text-anchor:middle;fill:#000000;fill-opacity:1;stroke:none"
       x="1928.5547"
       y="1997.0601"
       id="text4246-3-2-9"
       sodipodi:linespacing="125%"><tspan
         sodipodi:role="line"
         style="font-size:45px"
         x="1928.5547"
         y="1997.0601"
         id="tspan4259-0">Dus...</tspan></text>
    <text
       xml:space="preserve"
       style="font-style:normal;font-variant:normal;font-weight:normal;font-stretch:normal;font-size:12px;line-height:125%;font-family:Lavi;-inkscape-font-specification:Lavi;text-align:center;letter-spacing:0px;word-spacing:0px;text-anchor:middle;fill:#000000;fill-opacity:1;stroke:none"
       x="2053.186"
       y="2087.249"
       id="text4246-3-2-9-6"
       sodipodi:linespacing="125%"><tspan
         sodipodi:role="line"
         style="font-size:45px"
         x="2053.186"
         y="2087.249"
         id="tspan4259-0-2">ik dacht bij mezelf,</tspan><tspan
         sodipodi:role="line"
         style="font-size:45px"
         x="2053.186"
         y="2143.499"
         id="tspan3461">misschien hebben we</tspan><tspan
         sodipodi:role="line"
         style="font-size:45px"
         x="2053.186"
         y="2199.749"
         id="tspan3463">last van vervuiling,</tspan><tspan
         sodipodi:role="line"
         style="font-size:45px"
         x="2053.186"
         y="2255.999"
         id="tspan3465">en moeten we een keer</tspan><tspan
         sodipodi:role="line"
         style="font-size:45px"
         x="2053.186"
         y="2312.249"
         id="tspan4326">opruimen...</tspan></text>
    <text
       xml:space="preserve"
       style="font-style:normal;font-variant:normal;font-weight:normal;font-stretch:normal;font-size:12px;line-height:125%;font-family:Lavi;-inkscape-font-specification:Lavi;text-align:center;letter-spacing:0px;word-spacing:0px;text-anchor:middle;fill:#000000;fill-opacity:1;stroke:none;stroke-width:0.40000001;stroke-miterlimit:4;stroke-dasharray:none"
       x="476.45117"
       y="2592.5537"
       id="text4246-3-2-9-6-6"
       sodipodi:linespacing="125%"><tspan
         sodipodi:role="line"
         style="font-size:45px;stroke-width:0.40000001;stroke-miterlimit:4;stroke-dasharray:none"
         x="476.45117"
         y="2592.5537"
         id="tspan4326-2" /><tspan
         sodipodi:role="line"
         style="font-size:45px;stroke-width:0.40000001;stroke-miterlimit:4;stroke-dasharray:none"
         x="476.45117"
         y="2648.8037"
         id="tspan4217" /><tspan
         sodipodi:role="line"
         style="font-size:45px;stroke-width:0.40000001;stroke-miterlimit:4;stroke-dasharray:none"
         x="476.45117"
         y="2705.0537"
         id="tspan4219">Zeg, luister eens, mevrouw</tspan><tspan
         sodipodi:role="line"
         style="font-size:45px;stroke:#000000;stroke-width:0.40000001;stroke-miterlimit:4;stroke-dasharray:none;stroke-opacity:1"
         x="476.45117"
         y="2761.3037"
         id="tspan4378">Ik-Verpest-Al-Mijn-Toverdranken,</tspan></text>
    <text
       xml:space="preserve"
       style="font-style:normal;font-variant:normal;font-weight:normal;font-stretch:normal;font-size:12px;line-height:125%;font-family:Lavi;-inkscape-font-specification:Lavi;text-align:center;letter-spacing:0px;word-spacing:0px;text-anchor:middle;fill:#000000;fill-opacity:1;stroke:none"
       x="1897.0891"
       y="2720.126"
       id="text4246-3-2-9-6-6-0"
       sodipodi:linespacing="125%"><tspan
         sodipodi:role="line"
         style="font-size:45px"
         x="1897.0891"
         y="2720.126"
         id="tspan4378-7">Bij Chaosah</tspan><tspan
         sodipodi:role="line"
         style="font-size:45px"
         x="1897.0891"
         y="2776.376"
         id="tspan3505">verbergen we</tspan><tspan
         sodipodi:role="line"
         style="font-size:45px"
         x="1897.0891"
         y="2832.626"
         id="tspan3507">onze fouten!</tspan></text>
    <text
       xml:space="preserve"
       style="font-style:normal;font-variant:normal;font-weight:normal;font-stretch:normal;font-size:12px;line-height:125%;font-family:Lavi;-inkscape-font-specification:Lavi;text-align:center;letter-spacing:0px;word-spacing:0px;text-anchor:middle;fill:#000000;fill-opacity:1;stroke:none;stroke-width:2.79999995;stroke-miterlimit:4;stroke-dasharray:none"
       x="2002.6411"
       y="2923.0608"
       id="text4246-3-2-9-6-6-0-5"
       sodipodi:linespacing="125%"><tspan
         sodipodi:role="line"
         style="font-size:45px;stroke-width:2.79999995;stroke-miterlimit:4;stroke-dasharray:none"
         x="2002.6411"
         y="2923.0608"
         id="tspan4424-2">Dat is al eeuwenlang</tspan><tspan
         sodipodi:role="line"
         style="font-size:45px;stroke-width:2.79999995;stroke-miterlimit:4;stroke-dasharray:none"
         x="2002.6411"
         y="2979.3108"
         id="tspan4414-3">onze traditie en het kan</tspan><tspan
         sodipodi:role="line"
         style="font-size:45px;stroke-width:2.79999995;stroke-miterlimit:4;stroke-dasharray:none"
         x="2002.6411"
         y="3035.5608"
         id="tspan3427">ons niet schelen</tspan><tspan
         sodipodi:role="line"
         style="font-size:45px;stroke-width:2.79999995;stroke-miterlimit:4;stroke-dasharray:none"
         x="2002.6411"
         y="3091.8108"
         id="tspan3524">wat <tspan
   style="stroke:#000000;stroke-width:2.79999995;stroke-miterlimit:4;stroke-dasharray:none;stroke-opacity:1"
   id="tspan4221">MOEDER NATUUR</tspan></tspan><tspan
         sodipodi:role="line"
         style="font-size:45px;stroke-width:2.79999995;stroke-miterlimit:4;stroke-dasharray:none"
         x="2010.5513"
         y="3148.0608"
         id="tspan3527">ervan vindt! </tspan><tspan
         sodipodi:role="line"
         style="font-size:45px;stroke-width:2.79999995;stroke-miterlimit:4;stroke-dasharray:none"
         x="2002.6411"
         y="3204.3108"
         id="tspan4378-7-6" /></text>
    <text
       xml:space="preserve"
       style="font-style:normal;font-variant:normal;font-weight:normal;font-stretch:normal;font-size:12px;line-height:125%;font-family:Lavi;-inkscape-font-specification:Lavi;text-align:center;letter-spacing:0px;word-spacing:0px;text-anchor:middle;fill:#000000;fill-opacity:1;stroke:none;stroke-width:2.79999995;stroke-miterlimit:4;stroke-dasharray:none"
       x="2007.8663"
       y="3221.7754"
       id="text4246-3-2-9-6-6-0-5-1"
       sodipodi:linespacing="125%"><tspan
         sodipodi:role="line"
         style="font-size:45px;stroke-width:2.79999995;stroke-miterlimit:4;stroke-dasharray:none"
         x="2007.8663"
         y="3221.7754"
         id="tspan4544">Dus wees stil en<tspan
   style="stroke:#000000;stroke-width:2.79999995;stroke-miterlimit:4;stroke-dasharray:none;stroke-opacity:1"
   id="tspan4225" /></tspan><tspan
         sodipodi:role="line"
         style="font-size:45px;stroke-width:2.79999995;stroke-miterlimit:4;stroke-dasharray:none"
         x="2015.7765"
         y="3278.0254"
         id="tspan3533"><tspan
   style="stroke:#000000;stroke-width:2.79999995;stroke-miterlimit:4;stroke-dasharray:none;stroke-opacity:1"
   id="tspan3535">GRAAF</tspan>!! </tspan><tspan
         sodipodi:role="line"
         style="font-size:45px;stroke-width:2.79999995;stroke-miterlimit:4;stroke-dasharray:none"
         x="2007.8663"
         y="3334.2754"
         id="tspan4378-7-6-4" /></text>
    <text
       xml:space="preserve"
       style="font-style:normal;font-variant:normal;font-weight:normal;font-stretch:normal;font-size:12px;line-height:125%;font-family:Lavi;-inkscape-font-specification:Lavi;text-align:center;letter-spacing:0px;word-spacing:0px;text-anchor:middle;fill:#000000;fill-opacity:1;stroke:none"
       x="553.63788"
       y="2821.7781"
       id="text4246-3-2-9-6-6-7"
       sodipodi:linespacing="125%"><tspan
         sodipodi:role="line"
         style="font-size:45px"
         x="553.63788"
         y="2821.7781"
         id="tspan4574">die Hippiah-outfit</tspan><tspan
         sodipodi:role="line"
         style="font-size:45px"
         x="553.63788"
         y="2878.0281"
         id="tspan3492">is je zeker naar je hoofd</tspan><tspan
         sodipodi:role="line"
         style="font-size:45px"
         x="553.63788"
         y="2934.2781"
         id="tspan3494">gestegen?</tspan><tspan
         sodipodi:role="line"
         style="font-size:45px"
         x="553.63788"
         y="2990.5281"
         id="tspan4378-5" /></text>
    <text
       sodipodi:linespacing="125%"
       id="text4178-6-5-9-0-7-0-4"
       style="font-style:normal;font-variant:normal;font-weight:normal;font-stretch:normal;font-size:9.76241112px;line-height:125%;font-family:Lavi;-inkscape-font-specification:Lavi;text-align:center;letter-spacing:0px;word-spacing:0px;text-anchor:middle;opacity:0.63300003;fill:#ffffff;fill-opacity:1;stroke:none;filter:url(#filter5236-4-16)"
       xml:space="preserve"
       y="3129.8394"
       x="1318.7137"
       transform="matrix(0.68593226,-0.05743026,-0.10983858,0.78011257,180.17523,-972.47418)"><tspan
         y="3129.8394"
         x="1318.7137"
         style="font-style:normal;font-variant:normal;font-weight:normal;font-stretch:normal;font-size:40.67671585px;font-family:Fondamento;-inkscape-font-specification:Fondamento;fill:#ffffff;fill-opacity:1"
         sodipodi:role="line"
         id="tspan4293-1-6-3-5-0-2">Tomaten</tspan></text>
    <text
       sodipodi:linespacing="125%"
       id="text4178-6-5-9-0-7-0-4-7"
       style="font-style:normal;font-variant:normal;font-weight:normal;font-stretch:normal;font-size:9.76241112px;line-height:125%;font-family:Lavi;-inkscape-font-specification:Lavi;text-align:center;letter-spacing:0px;word-spacing:0px;text-anchor:middle;opacity:0.63300003;fill:#ffffff;fill-opacity:1;stroke:none;filter:url(#filter5236-4-16-3)"
       xml:space="preserve"
       y="3129.8394"
       x="1318.7137"
       transform="matrix(0.58613284,0.07817086,-0.38371304,0.70980255,2152.23,-969.61056)"><tspan
         y="3129.8394"
         x="1318.7137"
         style="font-style:normal;font-variant:normal;font-weight:normal;font-stretch:normal;font-size:40.67671585px;font-family:Fondamento;-inkscape-font-specification:Fondamento;fill:#ffffff;fill-opacity:1"
         sodipodi:role="line"
         id="tspan4293-1-6-3-5-0-2-5">Aubergines</tspan></text>
  </g>
</svg>
