<?xml version="1.0" encoding="UTF-8" standalone="no"?>
<!-- Created with Inkscape (http://www.inkscape.org/) -->

<svg
   xmlns:dc="http://purl.org/dc/elements/1.1/"
   xmlns:cc="http://creativecommons.org/ns#"
   xmlns:rdf="http://www.w3.org/1999/02/22-rdf-syntax-ns#"
   xmlns:svg="http://www.w3.org/2000/svg"
   xmlns="http://www.w3.org/2000/svg"
   xmlns:xlink="http://www.w3.org/1999/xlink"
   xmlns:sodipodi="http://sodipodi.sourceforge.net/DTD/sodipodi-0.dtd"
   xmlns:inkscape="http://www.inkscape.org/namespaces/inkscape"
   id="svg2"
   version="1.1"
   inkscape:version="0.91 r13725"
   width="2481"
   height="3503"
   sodipodi:docname="Pepper-and-Carrot_by-David-Revoy_E19P01.svg">
  <metadata
     id="metadata8">
    <rdf:RDF>
      <cc:Work
         rdf:about="">
        <dc:format>image/svg+xml</dc:format>
        <dc:type
           rdf:resource="http://purl.org/dc/dcmitype/StillImage" />
        <dc:title />
      </cc:Work>
    </rdf:RDF>
  </metadata>
  <defs
     id="defs6" />
  <sodipodi:namedview
     pagecolor="#ffffff"
     bordercolor="#666666"
     borderopacity="1"
     objecttolerance="10"
     gridtolerance="10"
     guidetolerance="10"
     inkscape:pageopacity="0"
     inkscape:pageshadow="2"
     inkscape:window-width="1600"
     inkscape:window-height="835"
     id="namedview4"
     showgrid="false"
     inkscape:zoom="0.21386973"
     inkscape:cx="752.22943"
     inkscape:cy="1294.8845"
     inkscape:window-x="0"
     inkscape:window-y="0"
     inkscape:window-maximized="1"
     inkscape:current-layer="layer3"
     showguides="false" />
  <g
     inkscape:groupmode="layer"
     id="layer2"
     inkscape:label="artwork"
     sodipodi:insensitive="true">
    <image
       sodipodi:absref="/home/willem/Git/peppercarrot_ep19_translation/nl/../gfx_Pepper-and-Carrot_by-David-Revoy_E19P01.png"
       xlink:href="../gfx_Pepper-and-Carrot_by-David-Revoy_E19P01.png"
       y="0"
       x="0"
       id="image10"
       height="3503"
       width="2481" />
  </g>
  <g
     inkscape:groupmode="layer"
     id="layer3"
     inkscape:label="speechbubbles">
    <path
       style="color:#000000;display:inline;overflow:visible;visibility:visible;fill:#ffffff;fill-opacity:1;fill-rule:nonzero;stroke:none;stroke-width:1px;marker:none;enable-background:accumulate"
       d="m 1017.0114,1934.274 c -4.3798,-42.2886 29.931,-93.3066 154.1489,-82.0307 124.2182,11.2761 148.6545,31.1431 152.3234,85.4135 1.5211,22.4999 -31.5634,57.5074 -49.8907,63.1454 -18.3273,5.6379 -94.3049,6.4816 -124.8505,1.9713 -30.5453,-4.5103 -96.0947,-14.3749 -114.422,-34.6717 -18.3274,-20.2966 -15.2726,-29.3174 -17.3091,-33.8278 z"
       id="path3365"
       inkscape:connector-curvature="0"
       sodipodi:nodetypes="csssssc" />
    <path
       style="color:#000000;display:inline;overflow:visible;visibility:visible;fill:#ffffff;fill-opacity:1;fill-rule:nonzero;stroke:none;stroke-width:1px;marker:none;enable-background:accumulate"
       d="m 1430.2268,2088.2745 c -13.3767,58.5649 -73.9136,84.7461 -124.1492,100.6273 -93.7537,25.1542 -192.0006,12.5288 -286.4582,-1.0473 -49.00691,-9.6508 -99.48779,-51.2565 -94.3637,-107.4349 4.95219,-50.3571 52.46208,-83.1734 98.2543,-87.8513 67.1302,-16.3258 137.1407,-24.2787 205.3968,-10.3895 58.6092,7.9298 121.3778,10.0794 173.5791,41.4001 17.445,16.5492 24.1476,41.3285 27.7409,64.6956 z"
       id="path3365-3"
       inkscape:connector-curvature="0" />
    <path
       style="fill:#ffffff;stroke:none"
       d="m 1019.4686,2271.8261 c 6.5004,-57.1471 54.7434,-85.8133 119.9501,-96.9569 81.1113,-13.8616 166.443,-16.5162 246.4373,1.412 52.9268,11.8619 81.5885,28.2255 121.5968,67.7602 27.8973,27.5671 -3.7787,111.5328 -45.0069,143.1111 -48.5459,37.1833 -124.6796,49.9348 -186.5554,50.9407 -44.7221,0.727 -137.8223,-9.1186 -181.5968,-43.2822 -41.3323,-32.2576 -79.655,-80.5247 -74.8251,-122.9849 z"
       id="path3065"
       inkscape:connector-curvature="0"
       sodipodi:nodetypes="ssssssss" />
    <path
       style="display:inline;fill:#ffffff;stroke:none"
       d="m 1625.4147,2305.7775 c -21.9558,36.2988 -64.6442,61.9501 -96.7367,35.7869 -19.4449,-15.8524 -29.1134,-28.291 -29.1134,-28.291 l -6.3679,30.9322 20.7854,19.5483 c 0,0 65.508,31.9103 111.4326,-57.9764 z"
       id="path3063-1"
       inkscape:connector-curvature="0"
       sodipodi:nodetypes="cscccc" />
    <path
       style="color:#000000;display:inline;overflow:visible;visibility:visible;fill:#ffffff;fill-opacity:1;fill-rule:nonzero;stroke:none;stroke-width:1px;marker:none;enable-background:accumulate"
       d="m 1913.7084,2318.7633 c 22.0218,-14.8351 108.7391,-27.5791 195.348,-26.0229 86.6089,1.5563 169.6176,9.704 220.3618,46.2927 74.763,53.907 40.7099,177.1599 1.9878,197.9002 -28.0636,15.0314 -112.0563,28.518 -192.5037,30.0346 -80.4472,1.5168 -157.3491,-8.9363 -194.921,-22.5197 -32.4257,-11.723 -79.6687,-43.6247 -83.5261,-120.7802 -1.5743,-31.4904 9.21,-75.2341 53.2532,-104.9047 z"
       id="path4040"
       inkscape:connector-curvature="0"
       sodipodi:nodetypes="ssssssss" />
    <path
       style="color:#000000;display:inline;overflow:visible;visibility:visible;fill:#ffffff;fill-opacity:1;fill-rule:nonzero;stroke:none;stroke-width:1px;marker:none;enable-background:accumulate"
       d="m 2091.5868,2309.6031 c -12.6779,-33.6245 -30.9699,-60.7293 -65.977,-55.676 52.3023,-18.546 92.9308,35.3617 103.6224,53.2726 10.6914,17.9109 -37.6454,2.4034 -37.6454,2.4034 z"
       id="path5010"
       inkscape:connector-curvature="0" />
    <path
       style="color:#000000;display:inline;overflow:visible;visibility:visible;fill:#ffffff;fill-opacity:1;fill-rule:nonzero;stroke:none;stroke-width:1px;marker:none;enable-background:accumulate"
       d="m 589.19653,2725.7787 c -1.22698,-26.5665 12.3258,-45.6032 63.85643,-62.9528 51.53087,-17.3495 124.66319,-9.0746 143.85163,-8.5021 90.04631,2.6863 120.21817,11.6572 138.62194,31.1757 18.40389,19.5182 23.10564,15.2295 22.45523,49.0355 -0.58229,30.2656 -5.78422,44.489 -27.8688,50.995 -22.0847,6.5061 -191.74536,13.9594 -217.86599,13.6695 -25.57408,-0.2838 -58.13545,-3.5376 -83.49079,-14.1949 -23.93605,-10.0606 -38.33275,-32.6593 -39.55965,-59.2259 z"
       id="path3373"
       inkscape:connector-curvature="0"
       sodipodi:nodetypes="zsssssssz" />
    <path
       style="color:#000000;display:inline;overflow:visible;visibility:visible;fill:#ffffff;fill-opacity:1;fill-rule:nonzero;stroke:none;stroke-width:1px;marker:none;enable-background:accumulate"
       d="m 681.2425,2845.3112 c 8.8618,-60.7319 75.09383,-95.5772 267.58672,-99.205 50.34512,-0.9488 143.76568,11.965 183.30158,26.1258 39.5359,14.1609 54.6388,70.9878 48.7311,115.4897 -11.8158,89.0037 -135.2762,74.1689 -169.2466,75.216 -33.97035,1.0472 -264.60924,22.0749 -304.13981,-31.8469 -29.67309,-40.4755 -27.70994,-66.9317 -26.23299,-85.7796 z"
       id="path4546"
       inkscape:connector-curvature="0"
       sodipodi:nodetypes="csssssc" />
    <path
       style="color:#000000;display:inline;overflow:visible;visibility:visible;fill:#ffffff;fill-opacity:1;fill-rule:nonzero;stroke:none;stroke-width:1px;marker:none;enable-background:accumulate"
       d="m 864.77409,2981.9018 c 31.03786,-52.7408 225.57231,-48.2384 281.74111,-25.3886 56.1686,22.8497 54.7341,29.059 53.9645,76.1659 -0.7205,44.1018 -18.834,85.3146 -47.5716,98.0089 -28.7374,12.6944 -96.1156,12.4315 -124.8531,12.4315 -28.73741,0 -120.47366,-8.0799 -143.6874,-26.658 -22.20623,-17.7721 -50.6315,-81.8191 -19.59351,-134.5597 z"
       id="path3330"
       inkscape:connector-curvature="0"
       sodipodi:nodetypes="zsssssz" />
    <path
       style="color:#000000;display:inline;overflow:visible;visibility:visible;fill:#ffffff;fill-opacity:1;fill-rule:nonzero;stroke:none;stroke-width:1px;marker:none;enable-background:accumulate"
       d="m 920.2367,3176.8811 c 39.78505,-10.9584 53.20162,-17.1208 58.43434,-65.1641 5.23266,-48.0433 23.16176,-44.6696 23.16176,-44.6696 l 14.7504,30.3838 c 0,0 -18.34229,101.2684 -96.3465,79.4499 z"
       id="path3072"
       inkscape:connector-curvature="0" />
    <path
       style="fill:#ffffff;fill-rule:evenodd;stroke:none;stroke-width:1px;stroke-linecap:butt;stroke-linejoin:miter;stroke-opacity:1"
       d="m 1905.452,3233.1133 c 26.3898,2.6138 60.7586,-10.3975 39.4235,-49.7503 38.3979,31.5325 74.7721,37.4389 113.0657,2.9182 -5.5978,34.8497 57.0153,37.5384 78.4695,14.4783 -6.546,36.3169 23.5543,37.7178 48.7068,38.8708 -53.2076,44.3991 -25.2677,58.5193 -4.3022,75.242 -52.2903,-12.3725 -39.6437,12.6963 -45.8893,26.8721 -44.8572,-32.1188 -77.4789,-24.4959 -103.251,5.3745 -13.479,-16.2444 -17.7099,-49.8185 -67.3998,1.7914 18.2722,-44.5542 -5.6785,-39.8776 -44.4553,-17.9146 8.9214,-10.2416 46.471,-37.6039 -14.3679,-35.1808 9.5003,-3.6067 17.1236,-7.5331 22.4963,-11.843 5.3727,-4.3099 -29.1749,-15.8162 -28.6769,-20.9565 0.4981,-5.1403 36.0419,-3.9145 30.9182,-10.0126 -5.1237,-6.0979 -13.2451,-12.7065 -24.7376,-19.8895 z"
       id="path4584"
       inkscape:connector-curvature="0"
       sodipodi:nodetypes="cccccccccccsssc" />
    <path
       style="color:#000000;display:inline;overflow:visible;visibility:visible;fill:#ffffff;fill-opacity:1;fill-rule:nonzero;stroke:none;stroke-width:1px;marker:none;enable-background:accumulate"
       d="m 1929.0839,3276.1051 c -26.7744,0.1934 -96.6935,-12.0611 -103.8888,-13.0148 6.0705,-5.4371 10.1298,-10.8932 13.4021,-15.1162 -13.7156,-0.9263 -59.5001,-2.596 -79.7676,1.5975 50.7453,-11.4228 73.8083,-12.6417 95.8809,-9.8645 -2.9601,5.998 -5.8701,9.4267 -7.3188,12.6033 18.7307,6.708 117.9634,8.8349 106.078,1.4065 z"
       id="path5066"
       inkscape:connector-curvature="0"
       sodipodi:nodetypes="cccccccc" />
  </g>
  <g
     inkscape:groupmode="layer"
     id="layer1"
     inkscape:label="txt">
    <text
       xml:space="preserve"
       style="font-style:normal;font-variant:normal;font-weight:normal;font-stretch:normal;font-size:12px;line-height:125%;font-family:Lavi;-inkscape-font-specification:Lavi;text-align:center;letter-spacing:0px;word-spacing:0px;text-anchor:middle;fill:#000000;fill-opacity:1;stroke:none"
       x="2137.0017"
       y="2370.491"
       id="text4246"
       sodipodi:linespacing="125%"><tspan
         sodipodi:role="line"
         style="font-size:45px"
         x="2137.0017"
         y="2370.491"
         id="tspan4252" /></text>
    <text
       xml:space="preserve"
       style="font-style:normal;font-variant:normal;font-weight:normal;font-stretch:normal;font-size:12px;line-height:125%;font-family:Lavi;-inkscape-font-specification:Lavi;text-align:center;letter-spacing:0px;word-spacing:0px;text-anchor:middle;fill:#000000;fill-opacity:1;stroke:none"
       x="1176.2148"
       y="2038.6832"
       id="text4246-3"
       sodipodi:linespacing="125%"><tspan
         sodipodi:role="line"
         style="font-size:45px"
         x="1176.2148"
         y="2038.6832"
         id="tspan4183">Het heeft geen</tspan><tspan
         sodipodi:role="line"
         style="font-size:45px"
         x="1176.2148"
         y="2094.9331"
         id="tspan3387">zin om je op de</tspan><tspan
         sodipodi:role="line"
         style="font-size:45px"
         x="1176.2148"
         y="2151.1831"
         id="tspan3406">vingers te kijken...</tspan></text>
    <text
       xml:space="preserve"
       style="font-style:normal;font-variant:normal;font-weight:normal;font-stretch:normal;font-size:12px;line-height:125%;font-family:Lavi;-inkscape-font-specification:Lavi;text-align:center;letter-spacing:0px;word-spacing:0px;text-anchor:middle;fill:#000000;fill-opacity:1;stroke:none"
       x="1271.2871"
       y="2234.0146"
       id="text4246-3-7"
       sodipodi:linespacing="125%"><tspan
         sodipodi:role="line"
         style="font-size:45px"
         x="1271.2871"
         y="2234.0146"
         id="tspan4214">Begraaf al je</tspan><tspan
         sodipodi:role="line"
         style="font-size:45px"
         x="1271.2871"
         y="2290.2646"
         id="tspan3389">mislukte toverdranken,</tspan><tspan
         sodipodi:role="line"
         style="font-size:45px"
         x="1271.2871"
         y="2346.5146"
         id="tspan3398">en ga dan vlug</tspan><tspan
         sodipodi:role="line"
         style="font-size:45px"
         x="1271.2871"
         y="2402.7646"
         id="tspan3402">naar bed.</tspan></text>
    <text
       xml:space="preserve"
       style="font-style:normal;font-variant:normal;font-weight:normal;font-stretch:normal;font-size:12px;line-height:125%;font-family:Lavi;-inkscape-font-specification:Lavi;text-align:center;letter-spacing:0px;word-spacing:0px;text-anchor:middle;fill:#000000;fill-opacity:1;stroke:none"
       x="2123.6384"
       y="2361.1826"
       id="text4246-3-7-6"
       sodipodi:linespacing="125%"><tspan
         sodipodi:role="line"
         style="font-size:45px"
         x="2123.6384"
         y="2361.1826"
         id="tspan4268">Ik heb weinig</tspan><tspan
         sodipodi:role="line"
         style="font-size:45px"
         x="2123.6384"
         y="2417.4326"
         id="tspan3440">hoop dat ik je morgen</tspan><tspan
         sodipodi:role="line"
         style="font-size:45px"
         x="2123.6384"
         y="2473.6826"
         id="tspan3442">zal zien slagen,</tspan><tspan
         sodipodi:role="line"
         style="font-size:45px"
         x="2123.6384"
         y="2529.9326"
         id="tspan4193">maar wie weet!</tspan></text>
    <text
       xml:space="preserve"
       style="font-style:normal;font-variant:normal;font-weight:normal;font-stretch:normal;font-size:12px;line-height:125%;font-family:Lavi;-inkscape-font-specification:Lavi;text-align:center;letter-spacing:0px;word-spacing:0px;text-anchor:middle;fill:#000000;fill-opacity:1;stroke:none"
       x="770.77466"
       y="2707.4324"
       id="text4246-3-7-6-7"
       sodipodi:linespacing="125%"><tspan
         sodipodi:role="line"
         style="font-size:45px"
         x="770.77466"
         y="2707.4324"
         id="tspan3420">Goed, ik zal</tspan><tspan
         sodipodi:role="line"
         style="font-size:45px"
         x="770.77466"
         y="2763.6824"
         id="tspan3388">doorwerken!</tspan></text>
    <text
       xml:space="preserve"
       style="font-style:normal;font-variant:normal;font-weight:normal;font-stretch:normal;font-size:12px;line-height:125%;font-family:Lavi;-inkscape-font-specification:Lavi;text-align:center;letter-spacing:0px;word-spacing:0px;text-anchor:middle;fill:#000000;fill-opacity:1;stroke:none;stroke-width:1.29999995;stroke-miterlimit:4;stroke-dasharray:none"
       x="935.64386"
       y="2822.6531"
       id="text4246-3-7-6-7-0"
       sodipodi:linespacing="125%"><tspan
         sodipodi:role="line"
         style="font-size:45px;stroke-width:1.29999995;stroke-miterlimit:4;stroke-dasharray:none"
         x="935.64386"
         y="2822.6531"
         id="tspan4433">Maar waarom moet</tspan><tspan
         sodipodi:role="line"
         style="font-size:45px;stroke-width:1.29999995;stroke-miterlimit:4;stroke-dasharray:none"
         x="935.64386"
         y="2878.9031"
         id="tspan3414">altijd alles begraven</tspan><tspan
         sodipodi:role="line"
         style="font-size:45px;stroke-width:1.29999995;stroke-miterlimit:4;stroke-dasharray:none"
         x="943.55402"
         y="2935.1531"
         id="tspan3416">worden? </tspan></text>
    <text
       xml:space="preserve"
       style="font-style:normal;font-variant:normal;font-weight:normal;font-stretch:normal;font-size:12px;line-height:125%;font-family:Lavi;-inkscape-font-specification:Lavi;text-align:center;letter-spacing:0px;word-spacing:0px;text-anchor:middle;fill:#000000;fill-opacity:1;stroke:none"
       x="1025.3752"
       y="3001.6318"
       id="text4246-3-7-6-7-0-9"
       sodipodi:linespacing="125%"><tspan
         sodipodi:role="line"
         style="font-size:45px"
         x="1025.3752"
         y="3001.6318"
         id="tspan4464">Zou het niet</tspan><tspan
         sodipodi:role="line"
         style="font-size:45px"
         x="1025.3752"
         y="3057.8818"
         id="tspan3407">beter zijn</tspan><tspan
         sodipodi:role="line"
         style="font-size:45px"
         x="1033.2854"
         y="3114.1318"
         id="tspan3390">als we... </tspan></text>
    <text
       xml:space="preserve"
       style="font-style:normal;font-variant:normal;font-weight:normal;font-stretch:normal;font-size:12px;line-height:125%;font-family:Lavi;-inkscape-font-specification:Lavi;text-align:center;letter-spacing:0px;word-spacing:0px;text-anchor:middle;fill:#000000;fill-opacity:1;stroke:none;stroke-width:2.5999999;stroke-miterlimit:4;stroke-dasharray:none"
       x="2044.5466"
       y="3254.4038"
       id="text4246-3-7-6-7-0-9-3"
       sodipodi:linespacing="125%"><tspan
         sodipodi:role="line"
         style="font-weight:normal;font-size:45px;stroke:#000000;stroke-width:2.5999999;stroke-miterlimit:4;stroke-dasharray:none;stroke-opacity:1"
         x="2044.5466"
         y="3254.4038"
         id="tspan4464-5">als we</tspan><tspan
         sodipodi:role="line"
         style="font-size:45px;stroke-width:2.5999999;stroke-miterlimit:4;stroke-dasharray:none"
         x="2044.5466"
         y="3310.6538"
         id="tspan3392"><tspan
           style="stroke:#000000;stroke-width:2.5999999;stroke-miterlimit:4;stroke-dasharray:none;stroke-opacity:1"
           id="tspan3394">WAT?</tspan></tspan></text>
    <text
       xml:space="preserve"
       style="font-style:normal;font-variant:normal;font-weight:normal;font-stretch:normal;font-size:12px;line-height:125%;font-family:Lavi;-inkscape-font-specification:Lavi;text-align:center;letter-spacing:0px;word-spacing:0px;text-anchor:middle;fill:#000000;fill-opacity:1;stroke:none"
       x="1170.4424"
       y="1906.2844"
       id="text4246-3-9"
       sodipodi:linespacing="125%"><tspan
         sodipodi:role="line"
         style="font-size:45px"
         x="1170.4424"
         y="1906.2844"
         id="tspan4183-8">Ik ga</tspan><tspan
         sodipodi:role="line"
         style="font-size:45px"
         x="1170.4424"
         y="1962.5344"
         id="tspan3379">naar binnen.</tspan></text>
  </g>
</svg>
