<?xml version="1.0" encoding="UTF-8" standalone="no"?>
<!-- Created with Inkscape (http://www.inkscape.org/) -->

<svg
   xmlns:dc="http://purl.org/dc/elements/1.1/"
   xmlns:cc="http://creativecommons.org/ns#"
   xmlns:rdf="http://www.w3.org/1999/02/22-rdf-syntax-ns#"
   xmlns:svg="http://www.w3.org/2000/svg"
   xmlns="http://www.w3.org/2000/svg"
   xmlns:xlink="http://www.w3.org/1999/xlink"
   xmlns:sodipodi="http://sodipodi.sourceforge.net/DTD/sodipodi-0.dtd"
   xmlns:inkscape="http://www.inkscape.org/namespaces/inkscape"
   id="svg2"
   version="1.1"
   inkscape:version="0.91 r13725"
   width="2481"
   height="3503"
   sodipodi:docname="Pepper-and-Carrot_by-David-Revoy_E19P03.svg">
  <metadata
     id="metadata8">
    <rdf:RDF>
      <cc:Work
         rdf:about="">
        <dc:format>image/svg+xml</dc:format>
        <dc:type
           rdf:resource="http://purl.org/dc/dcmitype/StillImage" />
        <dc:title />
      </cc:Work>
    </rdf:RDF>
  </metadata>
  <defs
     id="defs6">
    <filter
       inkscape:collect="always"
       style="color-interpolation-filters:sRGB"
       id="filter4290"
       x="-0.026373399"
       width="1.0527468"
       y="-0.063105628"
       height="1.1262112">
      <feGaussianBlur
         inkscape:collect="always"
         stdDeviation="4.2854759"
         id="feGaussianBlur4292" />
    </filter>
  </defs>
  <sodipodi:namedview
     pagecolor="#ffffff"
     bordercolor="#666666"
     borderopacity="1"
     objecttolerance="10"
     gridtolerance="10"
     guidetolerance="10"
     inkscape:pageopacity="0"
     inkscape:pageshadow="2"
     inkscape:window-width="1920"
     inkscape:window-height="995"
     id="namedview4"
     showgrid="false"
     inkscape:zoom="0.49190037"
     inkscape:cx="1112.7577"
     inkscape:cy="752.58156"
     inkscape:window-x="0"
     inkscape:window-y="0"
     inkscape:window-maximized="1"
     inkscape:current-layer="layer1" />
  <g
     inkscape:groupmode="layer"
     id="layer2"
     inkscape:label="artwork"
     sodipodi:insensitive="true">
    <image
       sodipodi:absref="/home/willem/Git/peppercarrot_ep19_translation/nl/../gfx_Pepper-and-Carrot_by-David-Revoy_E19P03.png"
       xlink:href="../gfx_Pepper-and-Carrot_by-David-Revoy_E19P03.png"
       y="0"
       x="0"
       id="image10"
       height="3503"
       width="2481" />
  </g>
  <g
     inkscape:groupmode="layer"
     id="layer3"
     inkscape:label="speechbubbles">
    <path
       style="color:#000000;display:inline;overflow:visible;visibility:visible;fill:#ffffff;fill-opacity:1;fill-rule:nonzero;stroke:none;stroke-width:1px;marker:none;enable-background:accumulate"
       d="m 1234.4357,1655.0875 c -30.0344,-25.7054 -46.3129,-35.3916 -6.8639,-65.6433 -51.801,8.7925 -19.9904,-11.1579 -7.198,-24.5704 -56.8865,18.8969 -40.9438,-5.6759 -26.3923,-22.12 -16.5085,12.5063 -47.4553,23.9202 -20.0145,-7.4364 -11.7795,10.1957 -48.8838,35.8866 -33.7682,-1.7454 -12.478,14.2711 -18.4714,21.2295 -15.6506,3.8778 -8.2782,10.1183 -11.7854,8.9504 -11.653,-2.226 -24.4447,24.8176 -9.7922,2.4817 -9.2219,-3.7861 -15.336,20.2161 -23.1893,13.5269 -18.9005,2.7322 -7.6171,10.7614 -29.8029,11.0214 -30.1654,0.08 -8.8177,10.1296 -17.1439,11.3822 -28.3379,-0.8836 -3.3538,4.5067 -6.4288,12.1832 -10.8021,5.0957 -4.5027,2.369 -9.0363,8.5358 -13.4702,2.4371 -47.51052,23.27 -68.70844,12.2539 -90.71909,-5.7471 4.99739,12.1986 11.15566,30.8392 -41.73998,2.1802 16.99775,31.6406 -1.14025,28.5242 -33.06377,13.5297 20.05568,13.4383 21.0321,20.9453 -25.66695,13.6314 32.49958,11.2255 62.44272,22.4159 11.84126,32.5 11.79612,4.4416 50.54807,-5.0932 7.69993,45.5533 32.34364,-10.0521 74.58466,-6.7215 65.64455,32.365 18.10233,-17.4164 44.94853,-51.7067 48.33837,10.2777 12.17687,-35.8854 29.92681,-40.2208 40.37576,-2.9416 2.65713,-14.1213 22.03132,-35.5684 47.71562,4.1513 -7.6509,-16.2668 -4.4995,-47.6077 28.9083,1.2709 -1.5981,-8.244 -16.5314,-61.5823 72.6178,1.8713 -40.915,-52.0302 9.1745,-24.0287 126.7943,53.2855 -143.8495,-110.9451 -76.9142,-89.4279 -45.2854,-69.646 -36.2834,-32.0825 -20.1228,-39.3527 18.9778,-18.0933 z"
       id="path3549"
       inkscape:connector-curvature="0"
       sodipodi:nodetypes="cccccccccccccccccccccccccccccc" />
    <path
       style="color:#000000;display:inline;overflow:visible;visibility:visible;fill:#ffffff;fill-opacity:1;fill-rule:nonzero;stroke:#ffffff;stroke-width:7.69999981;marker:none;enable-background:accumulate;stroke-opacity:1;stroke-miterlimit:4;stroke-dasharray:none;stroke-dashoffset:0"
       d="m 1694.0627,2649.2898 c 3.9884,-55.2417 37.4414,-93.7635 121.6468,-78.1003 45.105,8.39 96.3868,15.2391 91.0689,96.1968 -5.3179,80.9577 -79.1036,74.2906 -94.3926,75.2431 -15.2889,0.9525 -94.4726,-12.4842 -107.6872,-40.9552 -8.2721,-17.8221 -11.3006,-35.2403 -10.6359,-52.3844 z"
       id="path4546-6"
       inkscape:connector-curvature="0"
       sodipodi:nodetypes="cssssc" />
    <path
       style="color:#000000;display:inline;overflow:visible;visibility:visible;fill:#ffffff;fill-opacity:1;fill-rule:nonzero;stroke:none;stroke-width:1px;marker:none;enable-background:accumulate"
       d="m 1827.4084,2846.6353 c -38.9829,-24.3744 -35.2819,-89.0806 -37.3787,-128.9314 -2.9638,-56.3326 1.3429,-30.7581 1.3429,-30.7581 l -8.5494,-20.5266 c -7.1172,-2.1741 -33.277,154.0001 44.5852,180.2161 z"
       id="path3072-1"
       inkscape:connector-curvature="0"
       sodipodi:nodetypes="csccc" />
    <path
       style="opacity:0.81800022;fill:#3797aa;fill-opacity:1;stroke:none;filter:url(#filter4290)"
       d="m 757.91682,547.9563 c 10.78775,5.37741 19.14955,14.84596 30.44219,19.31347 26.21575,11.72459 54.23131,20.44572 82.82199,21.46258 10.78006,0.6048 21.21295,-2.34223 30.72486,-7.53313 15.9811,-3.99025 32.62516,-0.14466 48.6511,2.006 21.85331,3.29662 46.23501,7.6202 65.96104,-5.90477 15.7206,-9.41707 25.9773,-25.65792 39.6794,-37.58852 11.2841,-7.55869 25.5178,-8.20778 36.8078,-16.0064 18.802,-10.84366 25.4032,-40.16031 13.3989,-58.77952 -12.5261,-16.64496 -33.8685,-20.78182 -52.6216,-23.96589 -18.5842,-2.02486 -37.1278,-4.43636 -55.69153,-6.57322 -25.0718,-1.39125 -50.20928,-0.10049 -75.17639,2.399 -27.62546,1.09595 -53.76233,-14.92426 -81.54597,-10.02392 -14.88451,0.43368 -29.85614,-0.34389 -44.5288,2.99063 -17.47363,2.31042 -34.44978,9.82459 -46.7547,23.45666 -10.72674,10.01983 -22.34354,20.30342 -26.79001,35.32555 -5.22782,17.81668 15.23603,50.37977 34.62172,59.42148 z"
       id="path3250-3-6-3"
       inkscape:connector-curvature="0"
       sodipodi:nodetypes="ccccccccccccccccc"
       transform="matrix(1.0508842,0,0,0.99702159,-36.519389,1.5110054)" />
    <path
       style="color:#000000;clip-rule:nonzero;display:inline;overflow:visible;visibility:visible;opacity:0.81800022;isolation:auto;mix-blend-mode:normal;color-interpolation:sRGB;color-interpolation-filters:linearRGB;solid-color:#000000;solid-opacity:1;fill:#3797aa;fill-opacity:1;fill-rule:nonzero;stroke:none;stroke-width:1;stroke-linecap:butt;stroke-linejoin:miter;stroke-miterlimit:4;stroke-dasharray:none;stroke-dashoffset:0;stroke-opacity:1;filter:url(#filter4290);color-rendering:auto;image-rendering:auto;shape-rendering:auto;text-rendering:auto;enable-background:accumulate"
       d="m 1713.1988,426.91206 c 1.4311,23.08058 -31.5228,28.65986 -39.0016,35.27672 -7.4788,6.61681 -34.7137,19.36411 -47.313,23.47432 -12.5993,4.11007 -54.1865,5.71364 -69.508,-3.10449 -15.3214,-8.81856 -56.575,3.0863 -79.4461,-0.85361 -22.8711,-3.93974 -34.2593,-19.51277 -44.4205,-27.12235 -10.1612,-7.60996 -22.8977,-8.44486 -22.9034,-42.18095 -0.01,-33.7362 61.4125,-31.20206 73.9721,-34.01391 12.5596,-2.81194 43.878,-25.27207 62.5183,-22.99886 18.6403,2.27328 50.0961,13.32507 67.6964,15.61629 17.6004,2.29123 12.1966,-2.16778 44.4804,3.75648 14.8354,2.72237 24.7667,10.88933 29.8076,15.99249 5.0408,5.10314 22.6866,13.0773 24.1178,36.15787 z"
       id="path3250-3-67"
       inkscape:connector-curvature="0"
       sodipodi:nodetypes="zssszsssssssz" />
    <path
       style="color:#000000;clip-rule:nonzero;display:inline;overflow:visible;visibility:visible;opacity:0.81800022;isolation:auto;mix-blend-mode:normal;color-interpolation:sRGB;color-interpolation-filters:linearRGB;solid-color:#000000;solid-opacity:1;fill:#3797aa;fill-opacity:1;fill-rule:nonzero;stroke:none;stroke-width:0.96210748;stroke-linecap:butt;stroke-linejoin:miter;stroke-miterlimit:4;stroke-dasharray:none;stroke-dashoffset:0;stroke-opacity:1;filter:url(#filter4290);color-rendering:auto;image-rendering:auto;shape-rendering:auto;text-rendering:auto;enable-background:accumulate"
       d="m 1833.2394,820.46626 c -2.5264,-31.97778 36.2035,-38.91224 44.7995,-47.89133 8.596,-8.979 48.6099,-13.82164 63.346,-19.20918 57.6469,-0.68817 118.5565,-24.21151 173.3869,-14.7961 27.1627,5.99903 35.6123,39.50796 47.8923,50.28243 12.28,10.77498 27.3572,12.23477 28.5853,58.92575 1.228,46.69117 -71.4235,41.71658 -86.1597,45.30814 -14.7361,3.59166 -59.5274,25.92067 -81.6284,22.29869 -68.6285,-11.24705 -103.9921,6.10157 -141.9998,-11.97484 -13.5081,-14.36684 -12.2801,-25.14152 -18.4202,-32.32473 -6.14,-7.18322 -27.2755,-18.64104 -29.8019,-50.61883 z"
       id="path3250-5"
       inkscape:connector-curvature="0"
       sodipodi:nodetypes="zsccsssscsz"
       transform="matrix(0.92189857,0,0,0.7336142,296.80698,331.36194)" />
  </g>
  <g
     inkscape:groupmode="layer"
     id="layer1"
     inkscape:label="txt">
    <text
       xml:space="preserve"
       style="font-style:normal;font-variant:normal;font-weight:normal;font-stretch:normal;font-size:12px;line-height:125%;font-family:Lavi;-inkscape-font-specification:Lavi;text-align:center;letter-spacing:0px;word-spacing:0px;text-anchor:middle;fill:#ffffff;fill-opacity:1;stroke:none"
       x="918.56458"
       y="492.46857"
       id="text4246-3-2-9-6-6-0-5-1"
       sodipodi:linespacing="125%"><tspan
         sodipodi:role="line"
         style="font-size:45px;fill:#ffffff"
         x="918.56458"
         y="492.46857"
         id="tspan4150">we verbergen</tspan><tspan
         sodipodi:role="line"
         style="font-size:45px;fill:#ffffff"
         x="918.56458"
         y="548.71857"
         id="tspan3371">onze fouten</tspan><tspan
         sodipodi:role="line"
         style="font-size:45px;fill:#ffffff"
         x="918.56458"
         y="604.96857"
         id="tspan4378-7-6-4" /></text>
    <text
       xml:space="preserve"
       style="font-style:normal;font-variant:normal;font-weight:normal;font-stretch:normal;font-size:12px;line-height:125%;font-family:Lavi;-inkscape-font-specification:Lavi;text-align:center;letter-spacing:0px;word-spacing:0px;text-anchor:middle;fill:#ffffff;fill-opacity:1;stroke:none"
       x="2149.1492"
       y="955.14771"
       id="text4246-3-2-9-6-6-0-5-1-3"
       sodipodi:linespacing="125%"><tspan
         sodipodi:role="line"
         style="font-size:45px;fill:#ffffff"
         x="2149.1492"
         y="955.14771"
         id="tspan4378-7-6-4-5">traditie</tspan></text>
    <text
       xml:space="preserve"
       style="font-style:normal;font-variant:normal;font-weight:normal;font-stretch:normal;font-size:12px;line-height:125%;font-family:Lavi;-inkscape-font-specification:Lavi;text-align:center;letter-spacing:0px;word-spacing:0px;text-anchor:middle;fill:#ffffff;fill-opacity:1;stroke:none"
       x="1562.9053"
       y="436.75476"
       id="text4246-3-2-9-6-6-0-5-1-3-3"
       sodipodi:linespacing="125%"><tspan
         sodipodi:role="line"
         style="font-size:45px;fill:#ffffff"
         x="1562.9053"
         y="436.75476"
         id="tspan4178-6">eeuwenlang</tspan><tspan
         sodipodi:role="line"
         style="font-size:45px;fill:#ffffff"
         x="1562.9053"
         y="493.00476"
         id="tspan4378-7-6-4-5-2" /></text>
    <text
       xml:space="preserve"
       style="font-style:normal;font-variant:normal;font-weight:normal;font-stretch:normal;font-size:12px;line-height:125%;font-family:Lavi;-inkscape-font-specification:Lavi;text-align:center;letter-spacing:0px;word-spacing:0px;text-anchor:middle;fill:#000000;fill-opacity:1;stroke:none"
       x="1028.4404"
       y="1620.2848"
       id="text4246-3-2-9-6-6-0-5-1-3-9"
       sodipodi:linespacing="125%"><tspan
         sodipodi:role="line"
         style="font-size:45px"
         x="1028.4404"
         y="1620.2848"
         id="tspan4236">NATUURLIJK!</tspan><tspan
         sodipodi:role="line"
         style="font-size:45px"
         x="1028.4404"
         y="1676.5348"
         id="tspan4378-7-6-4-5-7" /></text>
    <text
       xml:space="preserve"
       style="font-style:normal;font-variant:normal;font-weight:normal;font-stretch:normal;font-size:9.94673252px;line-height:125%;font-family:Lavi;-inkscape-font-specification:Lavi;text-align:center;letter-spacing:0px;word-spacing:0px;text-anchor:middle;fill:#000000;fill-opacity:1;stroke:none"
       x="1801.1611"
       y="2616.5117"
       id="text4246-3-2-9-6-6-0-5-1-3-9-0"
       sodipodi:linespacing="125%"><tspan
         sodipodi:role="line"
         style="font-size:37.30024719px"
         x="1801.1611"
         y="2616.5117"
         id="tspan4378-7-6-4-5-7-3">Kom op,</tspan><tspan
         sodipodi:role="line"
         style="font-size:37.30024719px"
         x="1801.1611"
         y="2663.137"
         id="tspan3399">doorwerken</tspan><tspan
         sodipodi:role="line"
         style="font-size:37.30024719px"
         x="1801.1611"
         y="2709.7625"
         id="tspan3401">Carrot!</tspan></text>
    <text
       xml:space="preserve"
       style="font-style:normal;font-variant:normal;font-weight:normal;font-stretch:normal;font-size:8.43194294px;line-height:125%;font-family:Lavi;-inkscape-font-specification:Lavi;text-align:center;letter-spacing:0px;word-spacing:0px;text-anchor:middle;fill:#000000;fill-opacity:1;stroke:none"
       x="1302.8546"
       y="3313.1096"
       id="text4246-3-2-9-6-6-0-5-1-3-9-0-3"
       sodipodi:linespacing="125%"
       transform="matrix(0.95684986,-0.26535014,0.03415032,1.0356256,0,0)"><tspan
         sodipodi:role="line"
         style="font-size:31.61978531px"
         x="1302.8546"
         y="3313.1096"
         id="tspan4378-7-6-4-5-7-3-3">Zzzz</tspan></text>
    <flowRoot
       xml:space="preserve"
       id="flowRoot3382"
       style="fill:black;stroke:none;stroke-opacity:1;stroke-width:1px;stroke-linejoin:miter;stroke-linecap:butt;fill-opacity:1;font-family:sans-serif;font-style:normal;font-weight:normal;font-size:40px;line-height:125%;letter-spacing:0px;word-spacing:0px"><flowRegion
         id="flowRegion3384"><rect
           id="rect3386"
           width="52.46875"
           height="99.1875"
           x="1794.7188"
           y="2604.5625" /></flowRegion><flowPara
         id="flowPara3388" /></flowRoot>  </g>
</svg>
