<?xml version="1.0" encoding="UTF-8" standalone="no"?>
<!-- Created with Inkscape (http://www.inkscape.org/) -->

<svg
   xmlns:dc="http://purl.org/dc/elements/1.1/"
   xmlns:cc="http://creativecommons.org/ns#"
   xmlns:rdf="http://www.w3.org/1999/02/22-rdf-syntax-ns#"
   xmlns:svg="http://www.w3.org/2000/svg"
   xmlns="http://www.w3.org/2000/svg"
   xmlns:xlink="http://www.w3.org/1999/xlink"
   xmlns:sodipodi="http://sodipodi.sourceforge.net/DTD/sodipodi-0.dtd"
   xmlns:inkscape="http://www.inkscape.org/namespaces/inkscape"
   id="svg2"
   version="1.1"
   inkscape:version="0.91 r13725"
   width="2481"
   height="3503"
   sodipodi:docname="Pepper-and-Carrot_by-David-Revoy_E19P06.svg">
  <metadata
     id="metadata8">
    <rdf:RDF>
      <cc:Work
         rdf:about="">
        <dc:format>image/svg+xml</dc:format>
        <dc:type
           rdf:resource="http://purl.org/dc/dcmitype/StillImage" />
        <dc:title />
      </cc:Work>
    </rdf:RDF>
  </metadata>
  <defs
     id="defs6" />
  <sodipodi:namedview
     pagecolor="#ffffff"
     bordercolor="#666666"
     borderopacity="1"
     objecttolerance="10"
     gridtolerance="10"
     guidetolerance="10"
     inkscape:pageopacity="0"
     inkscape:pageshadow="2"
     inkscape:window-width="1920"
     inkscape:window-height="995"
     id="namedview4"
     showgrid="false"
     inkscape:zoom="0.52900001"
     inkscape:cx="1443.3934"
     inkscape:cy="661.96777"
     inkscape:window-x="0"
     inkscape:window-y="0"
     inkscape:window-maximized="1"
     inkscape:current-layer="layer3" />
  <g
     inkscape:groupmode="layer"
     id="layer2"
     inkscape:label="artwork"
     sodipodi:insensitive="true">
    <image
       sodipodi:absref="/home/willem/Git/peppercarrot_ep19_translation/nl/../gfx_Pepper-and-Carrot_by-David-Revoy_E19P06.png"
       xlink:href="../gfx_Pepper-and-Carrot_by-David-Revoy_E19P06.png"
       y="0"
       x="0"
       id="image10"
       height="3503"
       width="2481" />
  </g>
  <g
     inkscape:groupmode="layer"
     id="layer3"
     inkscape:label="speechbubbles">
    <path
       style="color:#000000;display:inline;overflow:visible;visibility:visible;fill:#ffffff;fill-opacity:1;fill-rule:nonzero;stroke:none;stroke-width:1px;marker:none;enable-background:accumulate"
       d="m 199.99011,2526.4117 c 10.18994,-79.4179 105.45507,-136.1187 347.84709,-117.2734 129.83824,10.0945 277.39483,17.7127 263.97666,134.0783 -13.4183,116.3656 -225.65348,109.9771 -269.57642,112.0015 -43.92293,2.0244 -271.82963,-13.843 -310.46888,-54.117 -24.18727,-25.2103 -33.29372,-50.0671 -31.77845,-74.6894 z"
       id="path4546-6"
       inkscape:connector-curvature="0"
       sodipodi:nodetypes="cssssc" />
    <path
       style="fill:#ffffff;stroke:none"
       d="m 694.38649,2534.9643 c 31.16173,50.5895 56.21292,58.6934 72.83219,79.5631 16.61925,20.8701 -4.22375,65.3135 0.2296,80.4242 5.36252,14.254 23.11118,27.2288 57.37772,44.4988 -73.16324,-15.6884 -73.36945,-34.9149 -78.29883,-48.1564 -6.77646,-18.203 5.60657,-39.7648 -12.3168,-56.2686 -17.36077,-15.9861 -80.58056,-61.1983 -92.85364,-95.1241 -12.2733,-33.9259 -18.60006,-35.9967 -18.60006,-35.9967 z"
       id="path3282"
       inkscape:connector-curvature="0"
       sodipodi:nodetypes="csccssscc" />
    <path
       style="color:#000000;display:inline;overflow:visible;visibility:visible;fill:#ffffff;fill-opacity:1;fill-rule:nonzero;stroke:none;stroke-width:1px;marker:none;enable-background:accumulate"
       d="m 184.78359,1441.622 c 28.76714,-43.2352 188.28719,-36.6228 237.90442,-25.487 54.14829,12.1527 70.81969,29.3724 73.24103,67.1125 0.7479,11.6572 -3.63201,64.5196 -30.26711,74.9261 -26.63499,10.4064 -102.90793,15.6095 -129.54303,15.6095 -26.63498,0 -111.65984,-6.6236 -133.17527,-21.8534 -20.58162,-14.5689 -46.92731,-67.0726 -18.16004,-110.3077 z"
       id="path3330"
       inkscape:connector-curvature="0"
       sodipodi:nodetypes="zsssssz" />
    <path
       style="color:#000000;display:inline;overflow:visible;visibility:visible;fill:#ffffff;fill-opacity:1;fill-rule:nonzero;stroke:none;stroke-width:1px;marker:none;enable-background:accumulate"
       d="m 243.76356,1629.6941 c -1.28968,-29.0026 5.28681,-48.2355 34.82171,-63.6443 26.88745,-14.0276 86.09433,-17.904 125.60083,-17.904 63.85672,-0.198 227.77336,-5.4181 208.43095,85.1901 -0.76395,42.9756 -96.01696,44.8494 -115.36246,48.3297 -19.3455,3.4803 -96.68172,4.2477 -114.73755,3.0877 -66.37784,2.1088 -136.44803,-19.7128 -138.75348,-55.0592 z"
       id="path3357"
       inkscape:connector-curvature="0"
       sodipodi:nodetypes="csccscc" />
    <path
       style="color:#000000;display:inline;overflow:visible;visibility:visible;fill:#ffffff;fill-opacity:1;fill-rule:nonzero;stroke:none;stroke-width:1px;marker:none;enable-background:accumulate"
       d="m 485.59295,1658.9585 c -0.37144,57.0275 25.35707,95.1396 67.76656,103.3368 -67.9487,-0.4363 -102.57173,-72.2713 -100.82948,-96.6104 1.70602,-23.8329 33.06292,-6.7264 33.06292,-6.7264 z"
       id="path5010"
       inkscape:connector-curvature="0"
       sodipodi:nodetypes="ccsc" />
    <path
       style="color:#000000;display:inline;overflow:visible;visibility:visible;fill:#ffffff;fill-opacity:1;fill-rule:nonzero;stroke:none;stroke-width:1px;marker:none;enable-background:accumulate"
       d="m 190.19127,2103.0688 c 36.43477,-24.941 351.86794,-40.019 435.41783,0.97 69.73792,34.2131 42.5285,119.4158 -19.49232,139.0406 -62.02061,19.6249 -268.34064,17.3471 -358.76605,8.4497 -86.09744,-8.4716 -100.55461,-34.042 -104.78967,-85.5279 -1.72849,-21.0134 11.19527,-37.9911 47.63021,-62.9324 z"
       id="path4040-4"
       inkscape:connector-curvature="0"
       sodipodi:nodetypes="zssssz" />
    <path
       style="color:#000000;display:inline;overflow:visible;visibility:visible;fill:#ffffff;fill-opacity:1;fill-rule:nonzero;stroke:none;stroke-width:1px;marker:none;enable-background:accumulate"
       d="m 535.00775,1986.8306 c -11.22357,-11.0259 -34.07155,-13.8129 -52.41966,-13.1663 -5.21231,0.2939 -10.58546,0.9606 -15.40703,2.9669 -4.5497,3.204 -5.8508,9.2452 -4.71647,14.4517 1.1116,7.6336 5.4512,15.1923 3.33691,23.0221 -1.67716,5.6622 -7.62933,7.7967 -12.46033,10.0265 -12.42532,5.4417 -25.66044,9.2324 -37.15366,16.6288 -13.48154,7.4861 -27.12386,16.3412 -35.233,29.8576 -3.11895,5.4019 -5.62626,11.4889 -5.13528,17.8477 0.51982,16.3695 10.44001,32.6806 25.75127,39.1373 10.15783,3.1917 22.85144,-2.6898 25.43476,-13.369 1.44801,-5.6168 -1.12924,-11.3042 -4.7776,-15.4765 -5.27333,-8.9228 -5.03206,-20.3779 -0.31332,-29.473 3.77147,-7.5698 9.88065,-13.877 17.08927,-18.2489 8.233,-8.5339 20.53978,-9.9068 31.26386,-13.4482 4.87531,-1.6909 9.9467,-3.8199 13.48797,-7.6632 3.74598,-6.6816 1.05856,-14.5289 -1.98107,-20.9052 -2.96548,-6.6569 -7.15746,-14.0436 -4.63677,-21.5174 1.0509,-5.4219 7.54846,-5.1616 11.76803,-6.5249 14.15942,-2.6164 28.95507,-0.7769 42.45081,4.0015 1.25162,0.5512 2.45101,1.1992 3.65131,1.8525 z"
       id="path4496"
       inkscape:connector-curvature="0"
       sodipodi:nodetypes="ccccccccccccccccccccc" />
    <path
       style="color:#000000;display:inline;overflow:visible;visibility:visible;fill:#ffffff;fill-opacity:1;fill-rule:nonzero;stroke:none;stroke-width:1px;marker:none;enable-background:accumulate"
       d="m 782.81669,170.4513 -40.2,-14.4857 22.33662,43.1826 -37.7925,-15.59213 29.62312,43.18563 -37.33944,-2.37969 25.7385,31.03324 -21.22949,6.16968 21.62976,26.91083 -22.33486,8.04774 20.09075,28.39761 -22.16593,19.67094 13.22109,18.76891 -16.03279,16.50418 14.53784,11.07509 -12.78231,25.29958 17.26727,4.48582 -17.94553,26.02461 27.80199,-8.25588 -8.73165,29.93945 32.43886,-17.1664 -14.08971,37.28917 28.43761,-0.34352 -39.32137,84.34754 61.70439,-52.02452 4.69958,44.60217 30.56944,-39.18252 0.7747,27.33209 27.00855,-34.48494 -0.57997,34.19236 29.84036,-40.27109 0.0734,127.90182 50.44473,-109.03143 8.95524,45.03406 8.18962,-42.05768 8.77262,18.48756 8.50759,-23.24516 8.24425,36.68388 15.08779,-42.30565 59.3997,61.96957 -10.3828,-74.35262 49.2997,10.09267 -16.5309,-36.48564 71.0319,19.40909 -33.4621,-33.63496 60.3347,18.19599 -67.4967,-59.9351 62.0702,15.57238 -46.0407,-47.77556 42.8626,-4.06925 -39.4536,-32.92053 70.4661,-5.37473 -64.3311,-27.41869 57.7689,-14.20615 -43.5442,-28.69708 50.2645,-23.73661 -53.784,-18.34698 39.605,-61.13892 -55.3143,15.44447 6.3706,-41.7903 -51.7449,31.28307 24.2431,-74.58043 -65.8828,66.06949 3.2897,-21.16581 -23.3736,17.39263 14.4089,-47.81134 -44.102,45.2297 4.485,-20.9601 -13.45482,19.85704 2.98986,-27.57928 -23.17212,33.09507 2.13339,-28.83564 -14.15808,15.55426 -0.36435,-14.76521 -13.02568,11.49906 -17.55909,-50.11731 -26.19792,51.68476 -12.87986,-22.23072 -14.90955,21.29161 -10.35586,-25.04386 -15.59171,29.92649 -25.36537,-40.5666 1.65841,40.25227 -61.18697,-43.60513 z"
       id="path4024"
       inkscape:connector-curvature="0"
       sodipodi:nodetypes="ccccccccccccccccccccccccccccccccccccccccccccccccccccccccccccccccccccccccccccccccccccc" />
    <path
       style="display:inline;fill:#ffffff;fill-rule:evenodd;stroke:none;stroke-width:1px;stroke-linecap:butt;stroke-linejoin:miter;stroke-opacity:1"
       d="m 714.12625,986.94516 c 84.34314,76.20474 116.92693,4.10974 115.68817,-68.98054 34.4303,78.98295 58.32339,96.64768 72.49351,57.73229 45.58343,33.44939 74.05415,24.06659 96.658,0 8.42497,30.95129 26.49257,18.46144 42.12907,16.92395 5.15,7.00256 -12.5382,24.39984 58.9223,1.22057 4.6289,9.26847 10.8645,17.25027 52.7225,-3.29902 10.8441,37.61999 45.637,-2.08501 81.2806,-44.53639 -22.2069,52.19038 -23.527,54.51378 4.849,34.53961 -4.2761,8.87204 -11.2389,26.62867 17.4527,7.39608 -16.8746,39.67059 40.2207,-11.58513 111.6797,-68.56229 -35.7449,42.11709 -118.9767,141.47828 -56.5447,135.59278 -8.7065,12.4163 -37.9312,27.0205 49.976,37.8388 -17.2656,8.4254 -69.9772,-3.8866 -26.0063,31.7868 5.8913,4.17 -13.8311,6.7164 23.8096,17.698 -22.2198,-0.7471 -35.8465,1.9218 -15.3775,18.1444 -40.5591,-0.8771 -25.3836,16.1811 4.3936,37.9384 -58.7352,-27.9084 -61.9677,-17.7653 -63.7065,-6.5979 -73.6125,-38.0486 -77.9337,-26.0692 -87.8706,-18.1446 -35.8807,0.297 -71.7613,-4.4945 -107.642,37.9385 -9.3967,-26.3922 -28.2358,-46.7073 -107.64166,-28.0414 34.86516,-33.5755 -14.73519,-12.1844 -52.72249,1.6494 20.80261,-41.9441 -31.99171,-14.4162 -98.85483,26.392 37.44308,-46.318 -40.58902,-50.0607 -103.60554,-17.1747 43.99899,-35.9057 56.88246,-45.1264 -35.79273,-46.8966 44.35722,-16.4134 33.88034,-38.9778 -12.17888,-76.1358 51.92188,10.9414 67.40944,0.7783 30.75473,-39.5878 56.63294,33.1322 27.23117,-0.3773 5.13425,-44.83454 z"
       id="path4508"
       inkscape:connector-curvature="0"
       sodipodi:nodetypes="cccccccccccccccccccccccccccc" />
    <path
       style="color:#000000;display:inline;overflow:visible;visibility:visible;fill:#ffffff;fill-opacity:1;fill-rule:nonzero;stroke:none;stroke-width:1px;marker:none;enable-background:accumulate"
       d="m 766.55547,1189.5478 c 9.77324,-59.0476 91.74674,-100.2233 298.08483,-83.4811 110.5258,8.9681 243.7309,-3.6875 230.7,98.3458 -11.0767,86.7308 -202.8889,72.371 -240.3531,73.3891 -37.4643,1.0181 -229.2339,3.2906 -261.61521,-27.1419 -20.26996,-19.0499 -28.44538,-42.7867 -26.81652,-61.1119 z"
       id="path4546-6-3"
       inkscape:connector-curvature="0"
       sodipodi:nodetypes="cssssc" />
    <path
       style="color:#000000;display:inline;overflow:visible;visibility:visible;fill:#ffffff;fill-opacity:1;fill-rule:nonzero;stroke:none;stroke-width:1px;marker:none;enable-background:accumulate"
       d="m 1269.3722,889.5242 c 36.3129,33.87435 33.0948,100.28649 22.9602,115.6577 -10.1347,15.3711 -24.0515,38.4217 -72.8898,38.6573 -48.8383,0.2357 -387.98043,18.0457 -438.4471,-17.4628 -50.46668,-35.50861 -49.77814,-97.65231 -6.48119,-139.57189 43.29696,-41.91958 277.28849,-34.53622 277.28849,-34.53622 0,0 161.8881,-5.88856 217.5694,37.25591 z"
       id="path3992"
       inkscape:connector-curvature="0" />
    <path
       style="fill:#ffffff;stroke:none"
       d="m 481.27782,884.93453 -20.91977,11.33829 c -46.25534,-4.40878 -174.08164,-10.45267 -239.31966,-7.29024 l -26.58596,7.75872 -14.3811,-14.32365 -6.53867,17.90321 -13.07337,-12.53208 -7.8464,17.30724 -15.68884,-8.35472 5.66618,17.90322 -8.71689,10.74228 -17.43381,-7.75872 9.58938,32.22689 c 1e-5,0 -10.02445,0.59779 -16.12607,0.59779 15.30764,25.95932 15.99674,157.37454 10.89466,203.46514 l -12.24637,8.0738 12.23846,10.1816 4.88075,3.7781 -20.5142,12.7886 15.36438,-0.8506 -11.94172,14.2207 12.6401,8.3566 -0.87248,10.7404 -1.74299,6.5668 10.10773,7.1591 -17.42731,15.7632 24.46256,-4.3942 0.72608,0.5688 c 0,0 -16.54338,21.6535 -21.08602,29.788 13.30441,-4.9382 34.16106,-12.4817 35.90435,-13.0786 0.13984,-0.047 0.48458,-0.02 0.91601,0.038 l -10.94262,16.7581 26.39207,-12.9944 c 1.80177,0.4548 3.61718,0.9058 5.39712,1.3219 l -5.05808,15.136 28.27479,-12.1939 c 9.08248,1.4358 20.3198,4.059 23.00899,4.4681 3.92244,0.5969 24.84253,-5.968 29.63667,-5.3711 4.79414,0.5967 48.81223,7.1609 52.73467,7.1609 3.92245,0 27.89271,-2.3867 33.12265,-2.9835 5.22992,-0.5967 32.68697,2.9835 37.4811,2.9835 4.79404,0 13.07556,-5.9682 17.43379,-6.5649 4.35836,-0.5968 16.56119,3.5816 19.61204,4.7751 3.05077,1.1938 24.842,2.9836 30.07193,2.9836 5.22993,0 42.7511,-6.2514 52.29943,-3.5814 6.93673,1.9396 70.15596,0.1736 104.11414,-1.9126 l -3.57104,14.1359 22.02571,-15.6674 c 1.81226,-0.2545 2.86501,-0.5009 2.94982,-0.7332 0,0 6.97308,11.34 9.15215,11.34 2.17916,0 5.66644,-9.5504 6.97392,-10.744 1.30749,-1.1936 10.46083,5.372 12.6401,4.7751 2.17917,-0.5968 3.05072,-12.5321 3.05072,-12.5321 l 2.17823,-5.9689 c 0,0 6.10193,-1.79 8.71691,-4.1774 2.61495,-2.3871 -0.43653,-12.5328 -3.92321,-17.3071 3.05087,-2.3873 10.46013,-6.5638 11.76763,-8.9509 1.30756,-2.3874 -3.05072,-10.1462 -3.05072,-10.1462 0,0 2.61563,-4.1769 3.9232,-7.1608 1.30749,-2.9843 -8.16063,-12.9428 -8.16063,-12.9428 0,0 8.16008,-9.7362 8.59588,-13.3171 0.38519,-3.1651 -1.95584,-6.3258 -5.81457,-7.0182 l 12.1178,-6.2561 -13.70844,-2.1167 c -1.05752,-33.3576 0.39453,-160.5674 8.02172,-188.85535 l 16.46042,-11.70853 -16.04694,-5.49938 c -1.11733,-1.3754 -2.3318,-2.78989 -3.59676,-4.19541 l 12.02877,-8.55519 -23.50556,-8.05671 0,-10.65561 -8.7169,-5.96714 c 0,0 0.37656,-1.56542 0.74982,-3.82338 l 9.05917,-15.46686 -31.23127,5.03521 0.0752,0.29438 c -10.36608,-1.56011 -18.74945,-5.73415 -18.74945,-5.73415 l 4.7937,-26.85574 -34.41377,29.20097 -2.17824,-11.3383 -13.5106,10.74231 -4.35846,-17.30723 -13.5106,13.12986 -11.33237,-6.82016 -2.54913,2.10967 -10.45989,-7.75873 -10.45988,7.16093 -20.83867,3.75265 -6.10144,-16.70943 z"
       id="path3894"
       inkscape:connector-curvature="0"
       sodipodi:nodetypes="ccccccccccccccccccccccccccccccccccccccscsscssccccscccccccccccccccccccccccccccccccccccccccc" />
    <path
       style="color:#000000;display:inline;overflow:visible;visibility:visible;fill:#ffffff;fill-opacity:1;fill-rule:nonzero;stroke:none;stroke-width:1px;marker:none;enable-background:accumulate"
       d="m 535.70109,782.59499 c 38.34876,34.92863 35.4166,55.61846 35.05492,70.73951 -5.21085,0.99543 -14.03945,4.31409 -14.03945,4.31409 0,0 2.34858,29.8366 -0.92638,41.34315 -3.27496,11.50653 -19.13613,8.37057 -19.13613,8.37057 0,0 -6.17597,-57.93992 -11.57097,-70.14779 14.42663,-2.21185 21.11631,-4.94055 26.71433,-3.83376 3.38923,-8.44544 -2.96428,-38.06103 -16.09632,-50.78577 z"
       id="path4456"
       inkscape:connector-curvature="0" />
    <path
       style="color:#000000;display:inline;overflow:visible;visibility:visible;fill:#ffffff;fill-opacity:1;fill-rule:nonzero;stroke:none;stroke-width:1px;marker:none;enable-background:accumulate"
       d="m 981.87504,489.07837 c 15.79816,16.30726 34.68336,141.58053 227.57366,231.14516 -154.1725,-93.5024 -173.4435,-224.61445 -180.0947,-249.55706 -53.90514,-8.39388 -24.7768,9.78373 -47.47896,18.4119 z"
       id="path4024-3"
       inkscape:connector-curvature="0"
       sodipodi:nodetypes="cccc" />
  </g>
  <g
     inkscape:groupmode="layer"
     id="layer1"
     inkscape:label="txt">
    <text
       xml:space="preserve"
       style="font-style:normal;font-variant:normal;font-weight:normal;font-stretch:normal;font-size:10.31860447px;line-height:125%;font-family:Lavi;-inkscape-font-specification:Lavi;text-align:center;letter-spacing:0px;word-spacing:0px;text-anchor:middle;fill:#000000;fill-opacity:1;stroke:none;stroke-width:1.79999995;stroke-miterlimit:4;stroke-dasharray:none"
       x="392.25803"
       y="978.92853"
       id="text4246"
       sodipodi:linespacing="125%"><tspan
         sodipodi:role="line"
         style="font-size:51.59302139px;stroke-width:1.79999995;stroke-miterlimit:4;stroke-dasharray:none"
         x="392.25803"
         y="978.92853"
         id="tspan4150">Maar het <tspan
   style="stroke:#000000;stroke-width:1.67974544;stroke-miterlimit:4;stroke-dasharray:none;stroke-opacity:1"
   id="tspan4183">milieu</tspan>!</tspan><tspan
         sodipodi:role="line"
         style="font-size:51.59302139px;stroke-width:1.79999995;stroke-miterlimit:4;stroke-dasharray:none"
         x="392.25803"
         y="1043.4198"
         id="tspan4176">De <tspan
   style="stroke:#000000;stroke-width:1.67974544;stroke-miterlimit:4;stroke-dasharray:none;stroke-opacity:1"
   id="tspan4185">natuur</tspan>!</tspan></text>
    <text
       xml:space="preserve"
       style="font-style:normal;font-variant:normal;font-weight:normal;font-stretch:normal;font-size:11.69629097px;line-height:125%;font-family:Lavi;-inkscape-font-specification:Lavi;text-align:center;letter-spacing:0px;word-spacing:0px;text-anchor:middle;fill:#000000;fill-opacity:1;stroke:none;stroke-width:1.89999998;stroke-miterlimit:4;stroke-dasharray:none"
       x="972.51471"
       y="242.65163"
       id="text4246-7"
       sodipodi:linespacing="125%"
       transform="scale(0.97469088,1.0259663)"><tspan
         sodipodi:role="line"
         style="font-size:58.48145294px;stroke:#000000;stroke-width:1.89999998;stroke-miterlimit:4;stroke-dasharray:none;stroke-opacity:1"
         x="972.51471"
         y="242.65163"
         id="tspan3397"> Dat heeft ons</tspan><tspan
         sodipodi:role="line"
         style="font-size:58.48145294px;stroke:#000000;stroke-width:1.89999998;stroke-miterlimit:4;stroke-dasharray:none;stroke-opacity:1"
         x="972.51471"
         y="315.75345"
         id="tspan3401">nog nooit</tspan><tspan
         sodipodi:role="line"
         style="font-size:58.48145294px;stroke:#000000;stroke-width:1.89999998;stroke-miterlimit:4;stroke-dasharray:none;stroke-opacity:1"
         x="972.51471"
         y="388.85526"
         id="tspan3403">enig probleem</tspan><tspan
         sodipodi:role="line"
         style="font-size:58.48145294px;stroke:#000000;stroke-width:1.89999998;stroke-miterlimit:4;stroke-dasharray:none;stroke-opacity:1"
         x="972.51471"
         y="461.95706"
         id="tspan3405">opgeleverd!</tspan></text>
    <text
       xml:space="preserve"
       style="font-style:normal;font-variant:normal;font-weight:normal;font-stretch:normal;font-size:11.69629097px;line-height:125%;font-family:Lavi;-inkscape-font-specification:Lavi;text-align:center;letter-spacing:0px;word-spacing:0px;text-anchor:middle;fill:#000000;fill-opacity:1;stroke:none;stroke-width:2.29999995;stroke-miterlimit:4;stroke-dasharray:none"
       x="1041.7201"
       y="1097.7078"
       id="text4246-7-9"
       sodipodi:linespacing="125%"
       transform="scale(0.97469088,1.0259663)"><tspan
         sodipodi:role="line"
         style="font-size:58.48145294px;stroke:#000000;stroke-width:2.24178886;stroke-miterlimit:4;stroke-dasharray:none;stroke-opacity:1"
         x="1052"
         y="1097.7078"
         id="tspan4221-2"> ZO DIEP MOGELIJK! </tspan></text>
    <text
       xml:space="preserve"
       style="font-style:normal;font-variant:normal;font-weight:normal;font-stretch:normal;font-size:12px;line-height:125%;font-family:Lavi;-inkscape-font-specification:Lavi;text-align:center;letter-spacing:0px;word-spacing:0px;text-anchor:middle;fill:#000000;fill-opacity:1;stroke:none"
       x="393.99847"
       y="1112.822"
       id="text4246-70"
       sodipodi:linespacing="125%"><tspan
         sodipodi:role="line"
         style="font-size:45px"
         x="393.99847"
         y="1112.822"
         id="tspan4176-6">We kunnen niet zomaar</tspan><tspan
         sodipodi:role="line"
         style="font-size:45px"
         x="393.99847"
         y="1169.072"
         id="tspan3427">blijven vervuilen zonder</tspan><tspan
         sodipodi:role="line"
         style="font-size:45px"
         x="393.99847"
         y="1225.322"
         id="tspan4208">grote consequenties!</tspan></text>
    <text
       xml:space="preserve"
       style="font-style:normal;font-variant:normal;font-weight:normal;font-stretch:normal;font-size:12px;line-height:125%;font-family:Lavi;-inkscape-font-specification:Lavi;text-align:center;letter-spacing:0px;word-spacing:0px;text-anchor:middle;fill:#000000;fill-opacity:1;stroke:none"
       x="1023.0608"
       y="921.86768"
       id="text4246-70-2"
       sodipodi:linespacing="125%"><tspan
         sodipodi:role="line"
         style="font-size:45px"
         x="1023.0608"
         y="921.86768"
         id="tspan4176-6-1">Wij zijn heksen van</tspan><tspan
         sodipodi:role="line"
         style="font-size:45px"
         x="1023.0608"
         y="978.11768"
         id="tspan4328">Chaosah! En onze</tspan><tspan
         sodipodi:role="line"
         style="font-size:45px"
         x="1023.0608"
         y="1034.3677"
         id="tspan3425">problemen begraven we</tspan></text>
    <text
       xml:space="preserve"
       style="font-style:normal;font-variant:normal;font-weight:normal;font-stretch:normal;font-size:12px;line-height:125%;font-family:Lavi;-inkscape-font-specification:Lavi;text-align:center;letter-spacing:0px;word-spacing:0px;text-anchor:middle;fill:#000000;fill-opacity:1;stroke:none"
       x="1030.9279"
       y="1190.6296"
       id="text4246-70-2-8"
       sodipodi:linespacing="125%"><tspan
         sodipodi:role="line"
         style="font-size:45px"
         x="1030.9279"
         y="1190.6296"
         id="tspan3413">Aan tradities wordt</tspan><tspan
         sodipodi:role="line"
         style="font-size:45px"
         x="1030.9279"
         y="1246.8796"
         id="tspan3388">niet getornd!</tspan></text>
    <text
       xml:space="preserve"
       style="font-style:normal;font-variant:normal;font-weight:normal;font-stretch:normal;font-size:12px;line-height:125%;font-family:Lavi;-inkscape-font-specification:Lavi;text-align:center;letter-spacing:0px;word-spacing:0px;text-anchor:middle;fill:#000000;fill-opacity:1;stroke:none"
       x="338.31299"
       y="1473.3076"
       id="text4246-70-2-2"
       sodipodi:linespacing="125%"><tspan
         sodipodi:role="line"
         style="font-size:45px"
         x="338.31299"
         y="1473.3076"
         id="tspan4406">O, kijk wat</tspan><tspan
         sodipodi:role="line"
         style="font-size:45px"
         x="338.31299"
         y="1529.5576"
         id="tspan3453">ik hier vind!</tspan></text>
    <text
       xml:space="preserve"
       style="font-style:normal;font-variant:normal;font-weight:normal;font-stretch:normal;font-size:12px;line-height:125%;font-family:Lavi;-inkscape-font-specification:Lavi;text-align:center;letter-spacing:0px;word-spacing:0px;text-anchor:middle;fill:#000000;fill-opacity:1;stroke:none"
       x="437.16556"
       y="1635.5212"
       id="text4246-70-2-2-2"
       sodipodi:linespacing="125%"><tspan
         sodipodi:role="line"
         style="font-size:45px"
         x="437.16556"
         y="1635.5212"
         id="tspan4406-9">Niet te geloven!</tspan></text>
    <text
       xml:space="preserve"
       style="font-style:normal;font-variant:normal;font-weight:normal;font-stretch:normal;font-size:12px;line-height:125%;font-family:Lavi;-inkscape-font-specification:Lavi;text-align:center;letter-spacing:0px;word-spacing:0px;text-anchor:middle;fill:#000000;fill-opacity:1;stroke:none"
       x="406.42914"
       y="2153.1394"
       id="text4246-70-2-2-2-7"
       sodipodi:linespacing="125%"><tspan
         sodipodi:role="line"
         style="font-size:45px"
         x="406.42914"
         y="2153.1394"
         id="tspan4190">Hoe is die</tspan><tspan
         sodipodi:role="line"
         style="font-size:45px"
         x="406.42914"
         y="2209.3894"
         id="tspan3446">hier terechtgekomen?</tspan></text>
    <text
       xml:space="preserve"
       style="font-style:normal;font-variant:normal;font-weight:normal;font-stretch:normal;font-size:12px;line-height:125%;font-family:Lavi;-inkscape-font-specification:Lavi;text-align:center;letter-spacing:0px;word-spacing:0px;text-anchor:middle;fill:#000000;fill-opacity:1;stroke:none"
       x="509.49463"
       y="2483.7622"
       id="text4246-70-2-2-2-7-6"
       sodipodi:linespacing="125%"><tspan
         sodipodi:role="line"
         style="font-size:45px"
         x="509.49463"
         y="2483.7622"
         id="tspan4482">Hij moet wel een</tspan><tspan
         sodipodi:role="line"
         style="font-size:45px"
         x="509.49463"
         y="2540.0122"
         id="tspan4486">beetje gestemd worden,</tspan><tspan
         sodipodi:role="line"
         style="font-size:45px"
         x="509.49463"
         y="2596.2622"
         id="tspan3461">maar hij klinkt nog goed.</tspan></text>
  </g>
</svg>
