<?xml version="1.0" encoding="UTF-8" standalone="no"?>
<!-- Created with Inkscape (http://www.inkscape.org/) -->

<svg
   xmlns:dc="http://purl.org/dc/elements/1.1/"
   xmlns:cc="http://creativecommons.org/ns#"
   xmlns:rdf="http://www.w3.org/1999/02/22-rdf-syntax-ns#"
   xmlns:svg="http://www.w3.org/2000/svg"
   xmlns="http://www.w3.org/2000/svg"
   xmlns:xlink="http://www.w3.org/1999/xlink"
   xmlns:sodipodi="http://sodipodi.sourceforge.net/DTD/sodipodi-0.dtd"
   xmlns:inkscape="http://www.inkscape.org/namespaces/inkscape"
   id="svg2"
   version="1.1"
   inkscape:version="0.91 r13725"
   width="2481"
   height="3503"
   sodipodi:docname="Pepper-and-Carrot_by-David-Revoy_E19P05.svg">
  <metadata
     id="metadata8">
    <rdf:RDF>
      <cc:Work
         rdf:about="">
        <dc:format>image/svg+xml</dc:format>
        <dc:type
           rdf:resource="http://purl.org/dc/dcmitype/StillImage" />
        <dc:title />
      </cc:Work>
    </rdf:RDF>
  </metadata>
  <defs
     id="defs6">
    <filter
       inkscape:collect="always"
       style="color-interpolation-filters:sRGB"
       id="filter4436"
       x="-0.009420248"
       width="1.0188405"
       y="-0.0097332714"
       height="1.0194665">
      <feGaussianBlur
         inkscape:collect="always"
         stdDeviation="0.80032609"
         id="feGaussianBlur4438" />
    </filter>
    <filter
       style="color-interpolation-filters:sRGB"
       id="filter4375-4-1-1-1-9"
       inkscape:label="deevad outline effect">
      <feFlood
         id="feFlood4377-7-9-0-8-1"
         flood-opacity="1"
         flood-color="rgb(0,0,0)"
         result="flood" />
      <feComposite
         id="feComposite4379-3-8-8-2-77"
         in2="SourceGraphic"
         in="flood"
         operator="in"
         result="composite1" />
      <feMorphology
         id="feMorphology4393-1-0-49-8-9"
         operator="dilate"
         radius="4"
         result="result3" />
      <feComposite
         id="feComposite4385-9-5-7-0-8"
         in2="result3"
         in="SourceGraphic"
         operator="over"
         result="composite2" />
    </filter>
  </defs>
  <sodipodi:namedview
     pagecolor="#ffffff"
     bordercolor="#666666"
     borderopacity="1"
     objecttolerance="10"
     gridtolerance="10"
     guidetolerance="10"
     inkscape:pageopacity="0"
     inkscape:pageshadow="2"
     inkscape:window-width="1366"
     inkscape:window-height="705"
     id="namedview4"
     showgrid="false"
     inkscape:zoom="0.34350663"
     inkscape:cx="1492.3002"
     inkscape:cy="2714.4978"
     inkscape:window-x="-8"
     inkscape:window-y="-8"
     inkscape:window-maximized="1"
     inkscape:current-layer="layer1" />
  <g
     inkscape:groupmode="layer"
     id="layer2"
     inkscape:label="artwork"
     sodipodi:insensitive="true">
    <image
       sodipodi:absref="C:\Users\acer\Downloads\peppercarrot_ep19_translation-master\peppercarrot_ep19_translation-master\sk\..\gfx_Pepper-and-Carrot_by-David-Revoy_E19P05.png"
       xlink:href="../gfx_Pepper-and-Carrot_by-David-Revoy_E19P05.png"
       width="2481"
       height="3503"
       id="image10"
       x="0"
       y="0" />
  </g>
  <g
     inkscape:groupmode="layer"
     id="layer3"
     inkscape:label="speechbubbles">
    <path
       style="color:#000000;display:inline;overflow:visible;visibility:visible;fill:#ffffff;fill-opacity:1;fill-rule:nonzero;stroke:none;stroke-width:1px;marker:none;enable-background:accumulate"
       d="m 189.94138,210.54816 c 7.38074,-63.58294 81.43831,-110.14131 271.0725,-98.28918 101.57828,6.34859 216.99002,10.48453 207.35793,103.62838 -9.63219,93.14374 -175.59876,90.84502 -209.92154,93.04283 -34.32279,2.19793 -212.6108,-7.46655 -243.11479,-39.13135 -19.09477,-19.82131 -26.39717,-39.55945 -25.3941,-59.25068 z"
       id="path4546"
       inkscape:connector-curvature="0"
       sodipodi:nodetypes="cssssc" />
    <path
       style="color:#000000;display:inline;overflow:visible;visibility:visible;fill:#ffffff;fill-opacity:1;fill-rule:nonzero;stroke:none;stroke-width:1px;marker:none;filter:url(#filter4386);enable-background:accumulate"
       d="m 237.31691,393.75525 c 5.07512,-71.19865 134.32418,-76.35068 181.09805,-77.6029 23.08823,0.36932 155.83029,-6.49317 268.19923,-2.64655 112.36891,3.84661 205.24932,13.86324 211.33804,65.77999 10.51008,89.61659 -71.19337,74.49677 -169.49649,81.3127 -98.30311,6.81593 -211.99517,1.14928 -264.25158,2.24528 -103.06346,2.16159 -234.49581,6.22324 -226.88725,-69.08852 z"
       id="path3145"
       inkscape:connector-curvature="0"
       sodipodi:nodetypes="ccssssc" />
    <path
       style="color:#000000;display:inline;overflow:visible;visibility:visible;fill:#ffffff;fill-opacity:1;fill-rule:nonzero;stroke:none;stroke-width:1px;marker:none;enable-background:accumulate"
       d="m 446.27152,300.25044 c 18.72085,42.63412 151.10363,129.12034 165.81283,143.73771 14.70919,14.61736 73.7025,51.80706 97.77206,55.46145 24.06968,3.65429 34.61383,-5.53274 55.60142,-7.98778 12.78199,-1.49519 17.18619,22.92918 50.77997,17.07051 -42.14888,-6.98958 -22.50416,-29.88571 -64.91129,-24.54594 -12.88206,1.62207 -29.12682,8.03372 -50.16944,-3.7592 -55.77193,-31.25628 -135.87479,-117.85288 -157.27,-121.50717 -21.39521,-3.6544 -71.63519,-52.34757 -71.63519,-68.18304 0,-15.83557 -25.98036,9.71346 -25.98036,9.71346 z"
       id="path4562"
       inkscape:connector-curvature="0"
       sodipodi:nodetypes="cssscssssc" />
    <path
       style="color:#000000;display:inline;overflow:visible;visibility:visible;fill:#ffffff;fill-opacity:1;fill-rule:nonzero;stroke:none;stroke-width:1px;marker:none;enable-background:accumulate"
       d="m 1829.1233,522.78501 c 8.4816,-71.13868 51.3921,-97.70413 187.7655,-93.7916 175.1818,5.02596 270.646,-15.14261 272.4716,118.7917 1.4286,104.81949 -181.3544,96.51729 -213.8676,97.74381 -32.5131,1.22665 -202.6546,-5.05302 -227.2542,-40.86918 -16.3456,-23.79875 -20.529,-59.79711 -19.1153,-81.87473 z"
       id="path4546-6"
       inkscape:connector-curvature="0"
       sodipodi:nodetypes="cssssc" />
    <path
       style="color:#000000;display:inline;overflow:visible;visibility:visible;fill:#ffffff;fill-opacity:1;fill-rule:nonzero;stroke:none;stroke-width:1px;marker:none;enable-background:accumulate"
       d="m 1701.8598,502.58041 c 34.2355,-19.71173 54.3987,3.34417 62.5308,8.32687 8.132,4.9827 37.4163,23.21994 64.0425,5.43127 26.6264,-17.78869 62.8269,-3.31025 62.8269,-3.31025 l -39.1174,27.48072 c 0,0 -38.4369,7.20044 -59.7592,-0.984 -21.3223,-8.18441 -44.9876,-30.85789 -56.2316,-33.04337 -11.2438,-2.1855 -22.2733,-7.94404 -34.292,-3.90124 z"
       id="path4018"
       inkscape:connector-curvature="0" />
    <path
       style="fill:#ffffff;fill-rule:evenodd;stroke:none;stroke-width:1px;stroke-linecap:butt;stroke-linejoin:miter;stroke-opacity:1"
       d="m 588.40376,914.65231 c 3.19663,-13.63689 11.80483,-23.98359 21.17352,-30.89066 4.45851,-3.33465 9.55466,-5.77835 14.76954,-5.13556 5.18067,0.38408 10.24092,2.67713 15.47891,1.88067 6.36924,-0.26307 12.85031,-1.41081 19.14642,0.2292 5.59702,1.78949 11.36355,2.71628 17.13927,2.77002 4.07461,-1.13586 7.80313,1.89157 11.44199,3.70231 3.26677,1.95593 6.60351,4.00801 9.3474,7.03352 2.52795,4.24716 5.55485,7.9421 8.11232,12.15145 1.67342,2.30123 1.51263,5.47984 1.43554,8.42157 -0.21734,6.02406 -0.58538,12.14319 -1.95147,17.94685 -0.81749,3.68454 -3.8391,4.90391 -6.16085,6.59704 -5.49361,3.57416 -11.32711,6.28455 -16.57007,10.49061 -5.19427,2.15366 -10.71435,1.1463 -16.04131,0.82083 -4.46364,-0.64109 -8.95383,-1.53507 -13.45583,-0.78954 -5.72997,0.54557 -11.44255,1.95821 -17.19303,1.77726 -7.20377,-1.24165 -14.10302,-4.29889 -21.08408,-6.75135 -6.26328,-2.16161 -11.97173,-6.2263 -17.44914,-10.57451 -2.92584,-2.46919 -6.02317,-5.33924 -7.05575,-9.88965 -0.84645,-3.13334 -1.04589,-6.48839 -1.08338,-9.79006 z"
       id="path4365"
       inkscape:connector-curvature="0" />
    <path
       style="fill:#ffffff;stroke:none"
       d="m 585.80257,1016.9897 c 25.0585,-22.43253 22.34002,-27.88279 18.28192,-33.62356 -4.05789,-5.74087 -9.0117,-10.26487 -5.47683,-15.76954 3.53471,-5.50448 11.83641,-12.20928 18.64507,-16.88605 6.80865,-4.67676 -0.15106,-6.98609 -1.33267,-11.71084 -1.18153,-4.72486 8.47495,-35.26533 8.47495,-35.26533 0,0 18.8861,11.27031 21.85273,16.73523 2.96681,5.46474 4.10423,7.43623 4.14842,10.18949 0.044,2.75343 -1.45956,10.07055 -7.37678,15.64632 -5.91727,5.57568 -12.97777,12.61891 -18.44474,16.52839 -5.46711,3.90944 -14.50851,8.27169 -13.27858,13.63411 1.23003,5.36237 10.23798,8.00805 0.82597,18.96164 -8.0678,9.38924 -26.31946,21.56014 -26.31946,21.56014 z"
       id="path3023-2"
       inkscape:connector-curvature="0"
       sodipodi:nodetypes="csssscssssssc" />
    <path
       style="fill:#ffffff;stroke:none"
       d="m 920.60629,888.38152 c -0.56464,-16.47336 17.65795,-62.04816 95.76041,-56.80467 78.1024,5.24349 102.2046,24.00836 103.9101,53.30904 2.6982,46.35286 -38.6713,57.58421 -97.7876,59.38885 -60.94251,1.86043 -98.55,-14.22681 -101.88291,-55.89322 z"
       id="path3280"
       inkscape:connector-curvature="0"
       sodipodi:nodetypes="csssc" />
    <path
       style="color:#000000;display:inline;overflow:visible;visibility:visible;fill:#ffffff;fill-opacity:1;fill-rule:nonzero;stroke:none;stroke-width:1px;marker:none;enable-background:accumulate"
       d="m 1193.4265,928.17596 c 84.6089,1.53084 172.5976,10.8463 195.0339,30.0277 45.4587,38.86388 24.5652,107.73924 -24.101,129.33404 -48.6661,21.5949 -206.072,28.6536 -273.527,20.699 -61.6031,-7.2646 -118.41072,-28.2038 -123.61261,-90.4942 13.91593,-109.19987 162.58921,-90.54479 226.20671,-89.56654 z"
       id="path4040-6"
       inkscape:connector-curvature="0"
       sodipodi:nodetypes="cssscc" />
    <path
       style="color:#000000;display:inline;overflow:visible;visibility:visible;fill:#ffffff;fill-opacity:1;fill-rule:nonzero;stroke:none;stroke-width:1px;marker:none;enable-background:accumulate"
       d="m 1290.3321,1173.7871 c 19.4758,-56.0536 -15.5086,-73.6442 -35.8993,-79.8259 -46.2488,-14.0212 -31.454,-39.2745 -31.454,-39.2745 l 33.7545,-1.1746 c 0,0 85.1517,57.8008 33.5988,120.275 z"
       id="path3072"
       inkscape:connector-curvature="0"
       sodipodi:nodetypes="csccc" />
    <path
       inkscape:connector-curvature="0"
       style="color:#000000;display:inline;overflow:visible;visibility:visible;fill:#ffffff;fill-opacity:1;fill-rule:nonzero;stroke:none;stroke-width:1px;marker:none;enable-background:accumulate"
       d="m 2364.7484,1908.6059 -66.9186,49.2861 -1.0553,-16.7706 -21.892,12.0537 c -88.9694,-19.8285 -203.2887,-20.9147 -293.1502,-12.7148 l -24.3765,-12.6706 -4.2928,15.6959 c -4.1022,0.4954 -8.1599,1.0041 -12.113,1.538 l -26.3873,-15.5708 2.5568,19.1731 c -0.4931,0.083 -0.9783,0.1671 -1.468,0.2508 l -36.7719,-17.4783 5.9124,23.698 c -1.7706,0.4218 -3.5045,0.847 -5.1952,1.2776 l -46.4886,-36.8116 17.4406,46.374 c -2.8887,1.3017 -5.3906,2.6222 -7.5273,3.9587 l -27.9659,-15.2748 14.9988,25.9466 c -2.8367,2.532 -5.5207,5.0095 -8.0963,7.4494 l -21.9968,-4.4172 10.5101,13.9264 c -21.3399,23.7059 -32.6274,49.3047 -32.1948,73.4288 0.086,4.8422 0.4391,9.544 1.0248,14.121 l -13.0512,5.1256 16.3814,11.4746 c 1.5059,5.4311 4.844,22.651 7.0797,27.6929 l -16.665,9.199 19.9038,10.3151 -22.2913,15.8706 46.5983,-6.8851 c 0.6478,0.6244 1.3136,1.2384 1.9756,1.8553 l -57.1303,33.516 75.6821,-10.8059 -37.1249,35.3537 73.7942,-18.8528 -21.0724,23.0181 56.0383,-8.2595 4.2255,0.1044 c 12.517,4.7995 28.0932,4.9938 41.6036,9.2468 91.8876,8.3166 204.0536,19.0569 301.1702,2.2212 l 46.7849,20.6292 -19.2536,-25.9104 c 1.0272,-0.2213 6.8614,-1.4167 7.8745,-1.6398 l 48.6252,30.6849 -9.6525,-23.8024 47.1148,21.9271 -28.4784,-41.2745 26.1488,12.7401 -17.9151,-20.919 c 2.2498,-1.0963 4.4917,-2.2487 6.7243,-3.4551 l 24.4241,6.4896 -14.7835,-12.0885 c 3.7261,-2.3149 7.3958,-4.7715 10.9783,-7.3725 l 38.0009,10.7629 -19.9319,-25.8393 c 2.1953,-2.1062 4.332,-4.2656 6.3884,-6.4827 l 29.1294,1.1442 -12.3561,-23.319 c 20.4637,-34.2634 21.8456,-76.5716 -19.2032,-118.6886 l -20.6275,-34.9115 -19.1918,3.0973 17.0344,-25.7404 -31.7291,11.9761 11.6266,-29.5606 -34.1814,19.2651 z"
       id="path4040-0"
       sodipodi:nodetypes="ccccccccccccccccccccccccccccccccccccccccccccccccccccccccccccccccccc" />
    <path
       style="fill:#ffffff;fill-rule:evenodd;stroke:none;stroke-width:1px;stroke-linecap:butt;stroke-linejoin:miter;stroke-opacity:1"
       d="m 1731.8549,2318.594 120.8192,-66.2832 -29.5759,-16.5028 85.742,-43.3793 -33.6402,-26.9702 -85.496,68.298 33.0867,19.9442 z"
       id="path4667"
       inkscape:connector-curvature="0"
       sodipodi:nodetypes="cccccccc" />
    <path
       style="color:#000000;display:inline;overflow:visible;visibility:visible;fill:#ffffff;fill-opacity:1;fill-rule:nonzero;stroke:none;stroke-width:1px;marker:none;enable-background:accumulate"
       d="m 351.86277,3013.5705 c -3.83833,-24.6348 6.39721,-90.0708 85.0833,-84.6819 78.68602,5.3888 91.48056,36.1822 93.39969,45.4202 1.9192,9.2381 18.55201,61.5869 -42.86148,75.444 -61.41355,13.857 -116.42977,-0.7699 -135.62151,-36.1823 z"
       id="path3525-3"
       inkscape:connector-curvature="0" />
    <path
       style="color:#000000;display:inline;overflow:visible;visibility:visible;fill:#ffffff;fill-opacity:1;fill-rule:nonzero;stroke:none;stroke-width:1px;marker:none;enable-background:accumulate"
       d="m 409.6903,3080.207 c -5.6772,-23.6599 9.46198,-86.5065 125.845,-81.3308 116.38293,5.1755 135.30707,34.7504 138.14562,43.6228 2.83865,8.8725 27.43991,59.1498 -63.39556,72.4585 -90.83555,13.3087 -172.20894,-0.7394 -200.59506,-34.7505 z"
       id="path3525"
       inkscape:connector-curvature="0" />
    <path
       style="fill:#ffffff;stroke:none"
       d="m 776.83633,3175.8359 c -44.62498,5.3378 -48.87324,-16.857 -54.0967,-32.1561 -5.22349,-15.2991 -11.0824,-20.5456 -20.74361,-24.9442 -9.6612,-4.3986 -33.88162,-7.782 -44.47409,-6.2556 -10.5926,1.5264 -4.87351,-12.4886 -10.52472,-22.0949 -5.65131,-9.6062 -47.54922,-52.2623 -47.54922,-52.2623 0,0 3.4134,45.1382 8.94731,58.4623 5.5339,13.3241 7.48813,18.2238 11.18512,22.9303 3.69708,4.7066 14.53763,14.9729 25.78771,16.1963 11.25004,1.2234 22.42429,-3.0138 31.13833,-3.9792 8.71399,-0.9656 20.03664,6.8038 26.52017,17.5528 6.48353,10.749 24.88779,32.9147 43.24472,32.9979 18.35692,0.083 30.56498,-6.4473 30.56498,-6.4473 z"
       id="path3023"
       inkscape:connector-curvature="0"
       sodipodi:nodetypes="csssscssssssc" />
    <path
       style="color:#000000;display:inline;overflow:visible;visibility:visible;fill:#ffffff;fill-opacity:1;fill-rule:nonzero;stroke:none;stroke-width:1px;marker:none;enable-background:accumulate"
       d="m 1801.5707,3171.1828 c 34.8408,-29.8892 327.1371,-59.8499 429.2708,3.4422 102.1337,63.292 39.2723,137.4338 -19.8112,160.6431 -59.0831,23.2095 -232.6014,47.568 -311.518,26.4104 -78.9169,-21.1575 -140.2699,-52.2316 -143.786,-114.6677 -1.4349,-25.4825 11.0033,-45.9385 45.8444,-75.828 z"
       id="path4040"
       inkscape:connector-curvature="0"
       sodipodi:nodetypes="zssssz" />
    <path
       style="fill:#ffffff;stroke:none"
       d="m 1793.2098,3259.0845 c -28.7477,21.3713 -48.9321,0.5936 -66.1006,0.6993 -17.1685,0.1058 -34.6307,29.0733 -44.0708,33.857 -9.363,3.7909 -22.9631,-0.7489 -45.2644,-13.4008 36.8449,37.5971 46.7017,28.1197 55.3791,24.5656 11.9288,-4.8858 18.0056,-23.3478 33.4687,-20.4624 14.978,2.7947 62.9102,19.4669 85.0019,10.1395 22.0918,-9.3272 25.641,-6.4328 25.641,-6.4328 z"
       id="path3282"
       inkscape:connector-curvature="0"
       sodipodi:nodetypes="csccssscc" />
  </g>
  <g
     inkscape:groupmode="layer"
     id="layer1"
     inkscape:label="txt">
    <text
       xml:space="preserve"
       style="font-style:normal;font-variant:normal;font-weight:normal;font-stretch:normal;font-size:12px;line-height:125%;font-family:Lavi;-inkscape-font-specification:Lavi;text-align:center;letter-spacing:0px;word-spacing:0px;text-anchor:middle;fill:#000000;fill-opacity:1;stroke:none"
       x="434.37378"
       y="212.50937"
       id="text4246-3-3-2"
       sodipodi:linespacing="125%"><tspan
         sodipodi:role="line"
         style="font-size:45px"
         x="434.37378"
         y="212.50937"
         id="tspan4148">Všetci sme niekedy</tspan><tspan
         sodipodi:role="line"
         style="font-size:45px"
         x="434.37378"
         y="268.75937"
         id="tspan3752">spravili chybu.</tspan></text>
    <text
       xml:space="preserve"
       style="font-style:normal;font-variant:normal;font-weight:normal;font-stretch:normal;font-size:12px;line-height:125%;font-family:Lavi;-inkscape-font-specification:Lavi;text-align:center;letter-spacing:0px;word-spacing:0px;text-anchor:middle;fill:#000000;fill-opacity:1;stroke:none"
       x="566.86279"
       y="369.82779"
       id="text4246-3-3-2-3"
       sodipodi:linespacing="125%"><tspan
         sodipodi:role="line"
         style="font-size:45px"
         x="566.86279"
         y="369.82779"
         id="tspan4148-7">Už viac nie som tou</tspan><tspan
         sodipodi:role="line"
         style="font-size:45px"
         x="566.86279"
         y="426.07779"
         id="tspan4173">Cayenne, ktorá to napísala.</tspan></text>
    <text
       xml:space="preserve"
       style="font-style:normal;font-variant:normal;font-weight:normal;font-stretch:normal;font-size:12px;line-height:125%;font-family:Lavi;-inkscape-font-specification:Lavi;text-align:center;letter-spacing:0px;word-spacing:0px;text-anchor:middle;fill:#000000;fill-opacity:1;stroke:none"
       x="2059.3848"
       y="490.67374"
       id="text4246-3-3-2-3-5"
       sodipodi:linespacing="125%"><tspan
         sodipodi:role="line"
         style="font-size:45px"
         x="2059.3848"
         y="490.67374"
         id="tspan3748">Mala som vážny</tspan><tspan
         sodipodi:role="line"
         style="font-size:45px"
         x="2059.3848"
         y="546.92371"
         id="tspan3406">dôvod, prečo som</tspan><tspan
         sodipodi:role="line"
         style="font-size:45px"
         x="2067.2949"
         y="603.17371"
         id="tspan3742">denník zahrabala. </tspan></text>
    <text
       xml:space="preserve"
       style="font-style:normal;font-variant:normal;font-weight:normal;font-stretch:normal;font-size:12px;line-height:125%;font-family:Lavi;-inkscape-font-specification:Lavi;text-align:center;letter-spacing:0px;word-spacing:0px;text-anchor:middle;fill:#000000;fill-opacity:1;stroke:none"
       x="649.6814"
       y="918.87958"
       id="text4246-3-3-2-3-5-6"
       sodipodi:linespacing="125%"><tspan
         sodipodi:role="line"
         style="font-size:45px"
         x="649.6814"
         y="918.87958"
         id="tspan4208-1">...</tspan></text>
    <text
       xml:space="preserve"
       style="font-size:12px;font-style:normal;font-variant:normal;font-weight:normal;font-stretch:normal;text-align:center;line-height:125%;letter-spacing:0px;word-spacing:0px;text-anchor:middle;fill:#000000;fill-opacity:1;stroke:none;font-family:Lavi;-inkscape-font-specification:Lavi"
       x="1020.2921"
       y="900.67383"
       id="text4246-3-3-2-3-5-6-2"
       sodipodi:linespacing="125%"><tspan
         sodipodi:role="line"
         style="font-size:45px"
         x="1020.2921"
         y="900.67383"
         id="tspan4208-1-7">OK!</tspan></text>
    <text
       xml:space="preserve"
       style="font-style:normal;font-variant:normal;font-weight:normal;font-stretch:normal;font-size:12px;line-height:125%;font-family:Lavi;-inkscape-font-specification:Lavi;text-align:center;letter-spacing:0px;word-spacing:0px;text-anchor:middle;fill:#000000;fill-opacity:1;stroke:none"
       x="1187.8596"
       y="1007.8734"
       id="text4246-3-3-2-3-5-6-2-0"
       sodipodi:linespacing="125%"><tspan
         sodipodi:role="line"
         style="font-size:45px"
         x="1187.8596"
         y="1007.8734"
         id="tspan3735">Ale čo potom</tspan><tspan
         sodipodi:role="line"
         style="font-size:45px"
         x="1187.8596"
         y="1064.1234"
         id="tspan3402">poviete na toto?</tspan></text>
    <text
       sodipodi:linespacing="125%"
       id="text4178-6-5-9-0-7-0-4"
       style="font-style:normal;font-variant:normal;font-weight:normal;font-stretch:normal;font-size:9.76241112px;line-height:125%;font-family:Lavi;-inkscape-font-specification:Lavi;text-align:center;letter-spacing:0px;word-spacing:0px;text-anchor:middle;opacity:0.64099995;fill:#241c1c;fill-opacity:1;stroke:none;filter:url(#filter4436)"
       xml:space="preserve"
       y="3129.8394"
       x="1318.7137"
       transform="matrix(0.68323005,-0.18026525,0.27547669,0.60843919,-261.43744,-180.58505)"><tspan
         y="3129.8394"
         x="1318.7137"
         style="font-style:normal;font-variant:normal;font-weight:normal;font-stretch:normal;font-size:43.9769815px;font-family:Fondamento;-inkscape-font-specification:Fondamento;fill:#241c1c;fill-opacity:1"
         sodipodi:role="line"
         id="tspan4293-1-6-3-5-0-2">CHAOSAH</tspan><tspan
         y="3176.8074"
         x="1318.7137"
         style="font-style:normal;font-variant:normal;font-weight:normal;font-stretch:normal;font-size:40.67671585px;font-family:Fondamento;-inkscape-font-specification:Fondamento;fill:#241c1c;fill-opacity:1"
         sodipodi:role="line"
         id="tspan4422">SUTRA</tspan><tspan
         y="3219.8242"
         x="1318.7137"
         style="font-style:normal;font-variant:normal;font-weight:normal;font-stretch:normal;font-size:32.06008911px;font-family:Fondamento;-inkscape-font-specification:Fondamento;fill:#241c1c;fill-opacity:1"
         sodipodi:role="line"
         id="tspan3396">napísala</tspan><tspan
         y="3259.8994"
         x="1318.7137"
         style="font-style:normal;font-variant:normal;font-weight:normal;font-stretch:normal;font-size:32.06008911px;font-family:Fondamento;-inkscape-font-specification:Fondamento;fill:#241c1c;fill-opacity:1"
         sodipodi:role="line"
         id="tspan4430">Thyme</tspan></text>
    <text
       xml:space="preserve"
       style="font-style:normal;font-variant:normal;font-weight:normal;font-stretch:normal;font-size:12px;line-height:125%;font-family:Lavi;-inkscape-font-specification:Lavi;text-align:center;letter-spacing:0px;word-spacing:0px;text-anchor:middle;fill:#000000;fill-opacity:1;stroke:none"
       x="2090.282"
       y="2020.4532"
       id="text4246-3-3-2-3-5-6-2-0-3"
       sodipodi:linespacing="125%"><tspan
         sodipodi:role="line"
         style="font-size:45px"
         x="2090.282"
         y="2020.4532"
         id="tspan3723">To je skrátka omyl mojej</tspan><tspan
         sodipodi:role="line"
         style="font-size:45px"
         x="2090.282"
         y="2076.7031"
         id="tspan3414">mladosti, a mimochodom,</tspan><tspan
         sodipodi:role="line"
         style="font-size:45px"
         x="2090.282"
         y="2132.9531"
         id="tspan3721">táto kniha nie je vôbec</tspan><tspan
         sodipodi:role="line"
         style="font-size:45px"
         x="2090.282"
         y="2189.2031"
         id="tspan3418">vhodná pre tvoj vek!</tspan></text>
    <use
       x="0"
       y="0"
       xlink:href="#text4178-6-5-9-0-7-0-4"
       id="use4440"
       transform="matrix(1.7191858,0.78546962,-0.89078499,2.0163672,808.98908,-1625.8092)"
       width="100%"
       height="100%" />
    <text
       xml:space="preserve"
       style="font-size:12px;font-style:normal;font-variant:normal;font-weight:normal;font-stretch:normal;text-align:center;line-height:125%;letter-spacing:0px;word-spacing:0px;text-anchor:middle;fill:#000000;fill-opacity:1;stroke:none;font-family:Lavi;-inkscape-font-specification:Lavi"
       x="448.74265"
       y="3004.217"
       id="text4246-3-3-2-3-5-6-2-0-3-6"
       sodipodi:linespacing="125%"><tspan
         sodipodi:role="line"
         style="font-size:45px"
         x="448.74265"
         y="3004.217"
         id="tspan4328-8">Hmm...</tspan></text>
    <text
       xml:space="preserve"
       style="font-style:normal;font-variant:normal;font-weight:normal;font-stretch:normal;font-size:12px;line-height:125%;font-family:Lavi;-inkscape-font-specification:Lavi;text-align:center;letter-spacing:0px;word-spacing:0px;text-anchor:middle;fill:#000000;fill-opacity:1;stroke:none"
       x="553.45013"
       y="3073.6917"
       id="text4246-3-3-2-3-5-6-2-0-3-6-7"
       sodipodi:linespacing="125%"><tspan
         sodipodi:role="line"
         style="font-size:45px"
         x="553.45013"
         y="3073.6917"
         id="tspan4328-8-9">Chápem...</tspan></text>
    <text
       xml:space="preserve"
       style="font-style:normal;font-variant:normal;font-weight:normal;font-stretch:normal;font-size:12px;line-height:125%;font-family:Lavi;-inkscape-font-specification:Lavi;text-align:center;letter-spacing:0px;word-spacing:0px;text-anchor:middle;fill:#000000;fill-opacity:1;stroke:none"
       x="2021.0325"
       y="3201.3425"
       id="text4246-3-3-2-3-5-6-2-0-3-6-7-2"
       sodipodi:linespacing="125%"><tspan
         sodipodi:role="line"
         style="font-size:45px"
         x="2021.0325"
         y="3201.3425"
         id="tspan3702">Zdá sa, že</tspan><tspan
         sodipodi:role="line"
         style="font-size:45px"
         x="2021.0325"
         y="3257.5925"
         id="tspan3425">vás ozaj nič z tohto</tspan><tspan
         sodipodi:role="line"
         style="font-size:45px"
         x="2021.0325"
         y="3313.8425"
         id="tspan3427">nedokáže zahanbiť...</tspan></text>
  </g>
</svg>
