<?xml version="1.0" encoding="UTF-8" standalone="no"?>
<!-- Created with Inkscape (http://www.inkscape.org/) -->

<svg
   xmlns:dc="http://purl.org/dc/elements/1.1/"
   xmlns:cc="http://creativecommons.org/ns#"
   xmlns:rdf="http://www.w3.org/1999/02/22-rdf-syntax-ns#"
   xmlns:svg="http://www.w3.org/2000/svg"
   xmlns="http://www.w3.org/2000/svg"
   xmlns:xlink="http://www.w3.org/1999/xlink"
   xmlns:sodipodi="http://sodipodi.sourceforge.net/DTD/sodipodi-0.dtd"
   xmlns:inkscape="http://www.inkscape.org/namespaces/inkscape"
   id="svg2"
   version="1.1"
   inkscape:version="0.91 r"
   width="2481"
   height="3503"
   sodipodi:docname="Pepper-and-Carrot_by-David-Revoy_E19P01.svg">
  <metadata
     id="metadata8">
    <rdf:RDF>
      <cc:Work
         rdf:about="">
        <dc:format>image/svg+xml</dc:format>
        <dc:type
           rdf:resource="http://purl.org/dc/dcmitype/StillImage" />
        <dc:title />
      </cc:Work>
    </rdf:RDF>
  </metadata>
  <defs
     id="defs6" />
  <sodipodi:namedview
     pagecolor="#ffffff"
     bordercolor="#666666"
     borderopacity="1"
     objecttolerance="10"
     gridtolerance="10"
     guidetolerance="10"
     inkscape:pageopacity="0"
     inkscape:pageshadow="2"
     inkscape:window-width="1600"
     inkscape:window-height="875"
     id="namedview4"
     showgrid="false"
     inkscape:zoom="0.45172236"
     inkscape:cx="1410.2665"
     inkscape:cy="816.34409"
     inkscape:window-x="0"
     inkscape:window-y="174"
     inkscape:window-maximized="1"
     inkscape:current-layer="layer3"
     showguides="false" />
  <g
     inkscape:groupmode="layer"
     id="layer2"
     inkscape:label="artwork"
     sodipodi:insensitive="true">
    <image
       sodipodi:absref="/home/nightmare/Projects/peppercarrot/peppercarrot_ep19_translation/sk/../gfx_Pepper-and-Carrot_by-David-Revoy_E19P01.png"
       xlink:href="../gfx_Pepper-and-Carrot_by-David-Revoy_E19P01.png"
       y="0"
       x="0"
       id="image10"
       height="3503"
       width="2481" />
  </g>
  <g
     inkscape:groupmode="layer"
     id="layer3"
     inkscape:label="speechbubbles">
    <path
       style="color:#000000;display:inline;overflow:visible;visibility:visible;fill:#ffffff;fill-opacity:1;fill-rule:nonzero;stroke:none;stroke-width:1px;marker:none;enable-background:accumulate"
       d="m 1029.8393,1944.6884 c -4.0128,-29.8516 27.4228,-65.8653 141.2314,-57.9056 113.8089,7.9598 136.1975,21.984 139.559,60.2936 1.3936,15.8826 -28.9185,40.5945 -45.71,44.5744 -16.7915,3.9798 -86.4023,4.5754 -114.3882,1.3916 -27.9856,-3.1839 -88.0421,-10.1473 -104.8336,-24.4749 -16.7916,-14.3274 -13.9928,-20.6952 -15.8586,-23.8791 z"
       id="path3365"
       inkscape:connector-curvature="0"
       sodipodi:nodetypes="csssssc" />
    <path
       style="color:#000000;display:inline;overflow:visible;visibility:visible;fill:#ffffff;fill-opacity:1;fill-rule:nonzero;stroke:none;stroke-width:1px;marker:none;enable-background:accumulate"
       d="m 1339.2346,2076.8706 c -8.8916,54.0667 -49.131,78.2371 -82.523,92.8985 -62.3188,23.2222 -127.6242,11.5665 -190.4108,-0.9669 -32.5753,-8.9095 -66.1303,-47.3197 -62.7243,-99.1832 3.2917,-46.4894 34.8719,-76.7852 65.3104,-81.1038 44.6219,-15.0719 91.1584,-22.414 136.5287,-9.5916 38.958,7.3208 80.6808,9.3053 115.3794,38.2204 11.5958,15.2781 16.0511,38.1542 18.4396,59.7266 z"
       id="path3365-3"
       inkscape:connector-curvature="0" />
    <path
       style="fill:#ffffff;stroke:none"
       d="m 967.7627,2279.7271 c 6.63953,-61.6305 58.504,-94.9797 134.6312,-103.564 93.3301,-18.3183 180.3215,-26.7108 273.4572,-9.1588 60.9033,14.5189 110.9569,16.1672 158.274,57.8418 31.3774,30.565 42.6751,146.2343 -8.147,176.2126 -52.9062,43.8283 -194.673,53.5381 -266.3995,52.3401 -103.2384,1.8038 -193.7167,-6.1775 -244.7007,-42.6819 -47.67288,-35.0232 -53.60857,-85.3666 -47.1152,-130.9898 z"
       id="path3065"
       inkscape:connector-curvature="0"
       sodipodi:nodetypes="cccccccc" />
    <path
       style="display:inline;fill:#ffffff;stroke:none"
       d="m 1639.5841,2318.3167 c -21.9558,36.2988 -64.6442,61.9501 -96.7367,35.7869 -19.4449,-15.8524 -29.1134,-28.291 -29.1134,-28.291 l -6.3679,30.9322 20.7854,19.5483 c 0,0 65.508,31.9103 111.4326,-57.9764 z"
       id="path3063-1"
       inkscape:connector-curvature="0"
       sodipodi:nodetypes="cscccc" />
    <path
       style="color:#000000;display:inline;overflow:visible;visibility:visible;fill:#ffffff;fill-opacity:1;fill-rule:nonzero;stroke:none;stroke-width:1px;marker:none;enable-background:accumulate"
       d="m 1913.7084,2318.7633 c 22.0218,-14.8351 108.7391,-27.5791 195.348,-26.0229 86.6089,1.5563 169.6176,9.704 220.3618,46.2927 74.763,53.907 40.7099,177.1599 1.9878,197.9002 -28.0636,15.0314 -112.0563,28.518 -192.5037,30.0346 -80.4472,1.5168 -157.3491,-8.9363 -194.921,-22.5197 -32.4257,-11.723 -79.6687,-43.6247 -83.5261,-120.7802 -1.5743,-31.4904 9.21,-75.2341 53.2532,-104.9047 z"
       id="path4040"
       inkscape:connector-curvature="0"
       sodipodi:nodetypes="ssssssss" />
    <path
       style="color:#000000;display:inline;overflow:visible;visibility:visible;fill:#ffffff;fill-opacity:1;fill-rule:nonzero;stroke:none;stroke-width:1px;marker:none;enable-background:accumulate"
       d="m 2091.5868,2309.6031 c -12.6779,-33.6245 -30.9699,-60.7293 -65.977,-55.676 52.3023,-18.546 92.9308,35.3617 103.6224,53.2726 10.6914,17.9109 -37.6454,2.4034 -37.6454,2.4034 z"
       id="path5010"
       inkscape:connector-curvature="0" />
    <path
       style="color:#000000;display:inline;overflow:visible;visibility:visible;fill:#ffffff;fill-opacity:1;fill-rule:nonzero;stroke:none;stroke-width:1px;marker:none;enable-background:accumulate"
       d="m 606.71842,2724.3612 c -1.0571,-26.3558 10.61921,-45.2414 55.01503,-62.4534 44.39602,-17.2119 107.40261,-9.0026 123.93426,-8.4347 77.57872,2.665 103.57306,11.5648 119.42869,30.9284 15.85573,19.3634 19.90649,15.1087 19.34613,48.6465 -0.50168,30.0255 -4.98335,44.1361 -24.01014,50.5905 -19.02692,6.4545 -165.19677,13.8487 -187.70079,13.5611 -22.03317,-0.2816 -50.08616,-3.5096 -71.93086,-14.0823 -20.62192,-9.9808 -33.02529,-32.4002 -34.08232,-58.7561 z"
       id="path3373"
       inkscape:connector-curvature="0"
       sodipodi:nodetypes="zsssssssz" />
    <path
       style="color:#000000;display:inline;overflow:visible;visibility:visible;fill:#ffffff;fill-opacity:1;fill-rule:nonzero;stroke:none;stroke-width:1px;marker:none;enable-background:accumulate"
       d="m 633.65833,2855.792 c 10.3609,-72.7635 89.20396,-98.0634 314.25988,-102.4099 58.86169,-1.1367 158.01689,7.5711 204.24069,24.5374 46.224,16.9663 72.544,75.3667 65.6368,128.6849 -13.8145,106.6363 -158.1601,88.8626 -197.8771,90.1172 -39.71696,1.2547 -313.06965,4.6968 -352.25293,-43.6985 -37.57594,-46.4102 -35.73414,-74.6492 -34.00734,-97.2311 z"
       id="path4546"
       inkscape:connector-curvature="0"
       sodipodi:nodetypes="csssssc" />
    <path
       style="color:#000000;display:inline;overflow:visible;visibility:visible;fill:#ffffff;fill-opacity:1;fill-rule:nonzero;stroke:none;stroke-width:1px;marker:none;enable-background:accumulate"
       d="m 829.87395,2973.4562 c 36.23424,-46.5578 233.31585,-42.5833 298.88855,-22.4121 65.5724,20.1709 93.9198,25.6522 93.0214,67.2366 -0.8411,38.9316 -21.9872,75.3129 -55.5361,86.5191 -33.5487,11.2061 -112.2074,10.9741 -145.7563,10.9741 -33.54857,0 -140.64346,-7.1327 -167.74368,-23.533 -25.92403,-15.6884 -59.1083,-72.227 -22.87387,-118.7847 z"
       id="path3330"
       inkscape:connector-curvature="0"
       sodipodi:nodetypes="zsssssz" />
    <path
       style="color:#000000;display:inline;overflow:visible;visibility:visible;fill:#ffffff;fill-opacity:1;fill-rule:nonzero;stroke:none;stroke-width:1px;marker:none;enable-background:accumulate"
       d="m 929.99953,3158.9683 c 39.78505,-10.9584 53.20162,-17.1208 58.43434,-65.1641 5.23266,-48.0433 23.16173,-44.6696 23.16173,-44.6696 l 14.7504,30.3838 c 0,0 -18.3423,101.2684 -96.34647,79.4499 z"
       id="path3072"
       inkscape:connector-curvature="0" />
    <path
       style="fill:#ffffff;fill-rule:evenodd;stroke:none;stroke-width:1px;stroke-linecap:butt;stroke-linejoin:miter;stroke-opacity:1"
       d="m 1887.9668,3238.4681 c 28.702,2.2019 66.0821,-8.7587 42.8777,-41.9089 41.7622,26.5625 81.3235,31.538 122.9723,2.4583 -6.0883,29.3568 62.0109,31.6218 85.3448,12.1963 -7.1195,30.5928 25.6181,31.7729 52.9744,32.7442 -57.8695,37.4011 -27.4816,49.2958 -4.6791,63.3827 -56.8719,-10.4224 -43.1172,10.6952 -49.9101,22.6367 -48.7875,-27.0564 -84.2674,-20.6351 -112.2976,4.5273 -14.66,-13.684 -19.2616,-41.9663 -73.3052,1.5091 19.8731,-37.5318 -6.1761,-33.5923 -48.3504,-15.091 9.7031,-8.6274 50.5427,-31.6769 -15.6268,-29.6358 10.3327,-3.0382 18.6239,-6.3457 24.4674,-9.9764 5.8434,-3.6306 -31.7312,-13.3233 -31.1895,-17.6534 0.5417,-4.3301 39.1998,-3.2975 33.6272,-8.4344 -5.5727,-5.1368 -14.4057,-10.7038 -26.9051,-16.7547 z"
       id="path4584"
       inkscape:connector-curvature="0"
       sodipodi:nodetypes="cccccccccccsssc" />
    <path
       style="color:#000000;display:inline;overflow:visible;visibility:visible;fill:#ffffff;fill-opacity:1;fill-rule:nonzero;stroke:none;stroke-width:1px;marker:none;enable-background:accumulate"
       d="m 1929.0839,3276.1051 c -26.7744,0.1934 -96.6935,-12.0611 -103.8888,-13.0148 6.0705,-5.4371 10.1298,-10.8932 13.4021,-15.1162 -13.7156,-0.9263 -59.5001,-2.596 -79.7676,1.5975 50.7453,-11.4228 73.8083,-12.6417 95.8809,-9.8645 -2.9601,5.998 -5.8701,9.4267 -7.3188,12.6033 18.7307,6.708 117.9634,8.8349 106.078,1.4065 z"
       id="path5066"
       inkscape:connector-curvature="0"
       sodipodi:nodetypes="cccccccc" />
    <text
       xml:space="preserve"
       style="font-style:normal;font-variant:normal;font-weight:normal;font-stretch:normal;font-size:12px;line-height:125%;font-family:Lavi;-inkscape-font-specification:Lavi;text-align:center;letter-spacing:0px;word-spacing:0px;text-anchor:middle;display:inline;fill:#000000;fill-opacity:1;stroke:none"
       x="2036.3308"
       y="3283.2732"
       id="text4246-3-7-6-7-0-9-3-8"
       sodipodi:linespacing="125%"><tspan
         sodipodi:role="line"
         style="font-size:45px"
         x="2036.3308"
         y="3283.2732"
         id="tspan4464-5-8">Keby <tspan
   style="stroke:#000000;stroke-width:2.5999999;stroke-miterlimit:4;stroke-dasharray:none;stroke-opacity:1"
   id="tspan4493">ČO</tspan>?</tspan></text>
  </g>
  <g
     inkscape:groupmode="layer"
     id="layer1"
     inkscape:label="txt"
     style="display:inline">
    <text
       xml:space="preserve"
       style="font-style:normal;font-variant:normal;font-weight:normal;font-stretch:normal;font-size:12px;line-height:125%;font-family:Lavi;-inkscape-font-specification:Lavi;text-align:center;letter-spacing:0px;word-spacing:0px;text-anchor:middle;fill:#000000;fill-opacity:1;stroke:none"
       x="1177.4561"
       y="1950.6425"
       id="text4246-3-9"
       sodipodi:linespacing="125%"><tspan
         sodipodi:role="line"
         style="font-size:45px"
         x="1184.6191"
         y="1950.6425"
         id="tspan4183-8">Idem dnu. </tspan></text>
    <text
       xml:space="preserve"
       style="font-style:normal;font-variant:normal;font-weight:normal;font-stretch:normal;font-size:12px;line-height:125%;font-family:Lavi;-inkscape-font-specification:Lavi;text-align:center;letter-spacing:0px;word-spacing:0px;text-anchor:middle;fill:#000000;fill-opacity:1;stroke:none"
       x="2133.0017"
       y="2374.491"
       id="text4246"
       sodipodi:linespacing="125%"><text
         xml:space="preserve"
         style="font-style:normal;font-variant:normal;font-weight:normal;font-stretch:normal;font-size:12px;line-height:125%;font-family:Lavi;-inkscape-font-specification:Lavi;text-align:center;letter-spacing:0px;word-spacing:0px;text-anchor:middle;fill:#000000;fill-opacity:1;stroke:none"
         x="1170.7997"
         y="2042.2527"
         id="text4246-3"
         sodipodi:linespacing="125%"><tspan
           sodipodi:role="line"
           style="font-size:45px"
           x="1170.7997"
           y="2042.2527"
           id="tspan3953">Nemá zmysel</tspan><tspan
           sodipodi:role="line"
           style="font-size:45px"
           x="1170.7997"
           y="2098.5027"
           id="tspan3387">tu na teba</tspan><tspan
           sodipodi:role="line"
           style="font-size:45px"
           x="1178.7098"
           y="2154.7527"
           id="tspan3389">dozerať... </tspan></text>
<tspan
         sodipodi:role="line"
         style="font-size:45px"
         x="1178.7098"
         y="2154.7527"
         id="tspan4252" /></text>
    <text
       xml:space="preserve"
       style="font-style:normal;font-variant:normal;font-weight:normal;font-stretch:normal;font-size:12px;line-height:125%;font-family:Lavi;-inkscape-font-specification:Lavi;text-align:center;letter-spacing:0px;word-spacing:0px;text-anchor:middle;fill:#000000;fill-opacity:1;stroke:none"
       x="1260.4561"
       y="2241.5215"
       id="text4246-3-7"
       sodipodi:linespacing="125%"><tspan
         sodipodi:role="line"
         style="font-size:45px"
         x="1260.4561"
         y="2241.5215"
         id="tspan3964">Zakop pre mňa všetky</tspan><tspan
         sodipodi:role="line"
         style="font-size:45px"
         x="1260.4561"
         y="2297.7715"
         id="tspan3393">tieto pokazené elixíry</tspan><tspan
         sodipodi:role="line"
         style="font-size:45px"
         x="1260.4561"
         y="2354.0215"
         id="tspan3395">a ponáhľaj sa domov,</tspan><tspan
         sodipodi:role="line"
         style="font-size:45px"
         x="1268.3662"
         y="2410.2715"
         id="tspan3968">nech si oddýchneš. </tspan></text>
    <text
       xml:space="preserve"
       style="font-style:normal;font-variant:normal;font-weight:normal;font-stretch:normal;font-size:12px;line-height:125%;font-family:Lavi;-inkscape-font-specification:Lavi;text-align:center;letter-spacing:0px;word-spacing:0px;text-anchor:middle;fill:#000000;fill-opacity:1;stroke:none"
       x="2111.6384"
       y="2365.1826"
       id="text4246-3-7-6"
       sodipodi:linespacing="125%"><tspan
         sodipodi:role="line"
         style="font-size:45px"
         x="2111.6384"
         y="2365.1826"
         id="tspan3981">Nepredpokladám,</tspan><tspan
         sodipodi:role="line"
         style="font-size:45px"
         x="2111.6384"
         y="2421.4326"
         id="tspan3407">že sa ti to podarí</tspan><tspan
         sodipodi:role="line"
         style="font-size:45px"
         x="2111.6384"
         y="2477.6826"
         id="tspan3409">dokončiť do zajtra,</tspan><tspan
         sodipodi:role="line"
         style="font-size:45px"
         x="2111.6384"
         y="2533.9326"
         id="tspan3983">ale ktovie!</tspan></text>
    <text
       xml:space="preserve"
       style="font-style:normal;font-variant:normal;font-weight:normal;font-stretch:normal;font-size:12px;line-height:125%;font-family:Lavi;-inkscape-font-specification:Lavi;text-align:center;letter-spacing:0px;word-spacing:0px;text-anchor:middle;fill:#000000;fill-opacity:1;stroke:none"
       x="771.45044"
       y="2709.4324"
       id="text4246-3-7-6-7"
       sodipodi:linespacing="125%"><tspan
         sodipodi:role="line"
         style="font-size:45px"
         x="771.45044"
         y="2709.4324"
         id="tspan4515">Ok, budem</tspan><tspan
         sodipodi:role="line"
         style="font-size:45px"
         x="778.61353"
         y="2765.6824"
         id="tspan3987">sa ponáhľať! </tspan></text>
    <text
       xml:space="preserve"
       style="font-style:normal;font-variant:normal;font-weight:normal;font-stretch:normal;font-size:12px;line-height:125%;font-family:Lavi;-inkscape-font-specification:Lavi;text-align:center;letter-spacing:0px;word-spacing:0px;text-anchor:middle;fill:#000000;fill-opacity:1;stroke:none"
       x="1022.5442"
       y="3029.0105"
       id="text4246-3-7-6-7-0-9"
       sodipodi:linespacing="125%"><tspan
         sodipodi:role="line"
         style="font-size:45px"
         x="1022.5442"
         y="3029.0105"
         id="tspan4464">Nebolo by lepšie,</tspan><tspan
         sodipodi:role="line"
         style="font-size:45px"
         x="1029.7073"
         y="3085.2605"
         id="tspan4782">keby sme.. </tspan></text>
    <text
       xml:space="preserve"
       style="font-style:normal;font-variant:normal;font-weight:normal;font-stretch:normal;font-size:12px;line-height:125%;font-family:Lavi;-inkscape-font-specification:Lavi;text-align:center;letter-spacing:0px;word-spacing:0px;text-anchor:middle;display:inline;fill:#000000;fill-opacity:1;stroke:none"
       x="927.59387"
       y="2836.332"
       id="text4246-3-7-6-7-0-8"
       sodipodi:linespacing="125%"><tspan
         sodipodi:role="line"
         style="font-size:45px"
         x="935.50403"
         y="2836.332"
         id="tspan4778">Ale aj tak nechápem, čo </tspan><tspan
         sodipodi:role="line"
         style="font-size:45px"
         x="935.50403"
         y="2892.582"
         id="tspan3420">má znamenať ten zvyk </tspan><tspan
         sodipodi:role="line"
         style="font-size:45px"
         x="935.50403"
         y="2948.832"
         id="tspan4770">večne <tspan
   style="stroke:#000000;stroke-width:1.29999995;stroke-miterlimit:4;stroke-dasharray:none;stroke-opacity:1"
   id="tspan4772">všetko zahrabávať</tspan>? </tspan></text>
  </g>
</svg>
