<?xml version="1.0" encoding="UTF-8" standalone="no"?>
<!-- Created with Inkscape (http://www.inkscape.org/) -->

<svg
   xmlns:dc="http://purl.org/dc/elements/1.1/"
   xmlns:cc="http://creativecommons.org/ns#"
   xmlns:rdf="http://www.w3.org/1999/02/22-rdf-syntax-ns#"
   xmlns:svg="http://www.w3.org/2000/svg"
   xmlns="http://www.w3.org/2000/svg"
   xmlns:xlink="http://www.w3.org/1999/xlink"
   xmlns:sodipodi="http://sodipodi.sourceforge.net/DTD/sodipodi-0.dtd"
   xmlns:inkscape="http://www.inkscape.org/namespaces/inkscape"
   id="svg2"
   version="1.1"
   inkscape:version="0.91 r13725"
   width="2481"
   height="3503"
   sodipodi:docname="Pepper-and-Carrot_by-David-Revoy_E19P06.svg">
  <metadata
     id="metadata8">
    <rdf:RDF>
      <cc:Work
         rdf:about="">
        <dc:format>image/svg+xml</dc:format>
        <dc:type
           rdf:resource="http://purl.org/dc/dcmitype/StillImage" />
        <dc:title />
      </cc:Work>
    </rdf:RDF>
  </metadata>
  <defs
     id="defs6" />
  <sodipodi:namedview
     pagecolor="#ffffff"
     bordercolor="#666666"
     borderopacity="1"
     objecttolerance="10"
     gridtolerance="10"
     guidetolerance="10"
     inkscape:pageopacity="0"
     inkscape:pageshadow="2"
     inkscape:window-width="1600"
     inkscape:window-height="847"
     id="namedview4"
     showgrid="false"
     inkscape:zoom="0.30039762"
     inkscape:cx="1444.0077"
     inkscape:cy="977.56374"
     inkscape:window-x="1358"
     inkscape:window-y="-8"
     inkscape:window-maximized="1"
     inkscape:current-layer="layer1" />
  <g
     inkscape:groupmode="layer"
     id="layer2"
     inkscape:label="artwork"
     sodipodi:insensitive="true">
    <image
       sodipodi:absref="D:\Pepper &amp; Carrot Translation Project\Episode 19\peppercarrot_ep19_translation-master\fa\..\gfx_Pepper-and-Carrot_by-David-Revoy_E19P06.png"
       xlink:href="../gfx_Pepper-and-Carrot_by-David-Revoy_E19P06.png"
       width="2481"
       height="3503"
       id="image10"
       x="0"
       y="0" />
  </g>
  <g
     inkscape:groupmode="layer"
     id="layer3"
     inkscape:label="speechbubbles">
    <path
       style="fill:#ffffff;stroke:none"
       d="m 482.94228,816.53724 -20.91977,9.84338 c -46.25534,-3.82749 -174.08164,-9.07452 -239.31966,-6.32904 l -26.58596,6.73576 -14.3811,-12.43513 -6.53867,15.54274 -13.07337,-10.87978 -13.86853,9.94436 -15.68884,-7.25318 5.66618,15.54275 -8.71689,9.32595 -17.43381,-6.73576 9.58938,27.97789 c 1e-5,0 -5.34057,3.05947 -11.44219,3.05947 15.30764,22.53667 17.33499,139.16565 12.23291,179.17945 l -12.24637,7.0093 12.23846,8.8392 4.88075,3.28 -20.5142,11.1025 15.36438,-0.7385 -11.94172,12.3457 12.6401,7.2548 -0.87248,9.3244 -1.74299,5.7009 10.10773,6.2153 -17.42731,13.6848 24.46256,-3.8148 0.72608,0.4938 c 0,0 -16.54338,18.7986 -21.08602,25.8606 13.30441,-4.2872 34.16106,-10.8361 35.90435,-11.3542 0.13984,-0.041 0.48458,-0.017 0.91601,0.033 l -10.94262,14.5486 26.39207,-11.281 c 1.80177,0.3947 3.61718,0.7863 5.39712,1.1476 l -5.05808,13.1403 28.27479,-10.5862 c 9.08248,1.2465 20.3198,3.5239 23.00899,3.879 3.92244,0.5182 24.84253,-5.1811 29.63667,-4.663 4.79414,0.5181 48.81223,6.2168 52.73467,6.2168 3.92245,0 27.89271,-2.072 33.12265,-2.5901 5.22992,-0.518 32.68697,2.5901 37.4811,2.5901 4.79404,0 13.07556,-5.1812 17.43379,-5.6993 4.35836,-0.5181 16.56119,3.1094 19.61204,4.1455 3.05077,1.0364 24.842,2.5902 30.07193,2.5902 5.22993,0 42.7511,-5.4272 52.29943,-3.1092 6.93673,1.684 70.15596,0.1508 104.11414,-1.6604 l -3.57104,12.2721 22.02571,-13.6017 c 1.81226,-0.2209 2.86501,-0.4349 2.94982,-0.6365 0,0 6.97308,9.8449 9.15215,9.8449 2.17916,0 5.66644,-8.2912 6.97392,-9.3274 1.30749,-1.0363 10.46083,4.6636 12.6401,4.1455 2.17917,-0.5181 3.05072,-10.8799 3.05072,-10.8799 l 2.17823,-5.1818 c 0,0 6.10193,-1.554 8.71691,-3.6267 2.61495,-2.0724 -0.43653,-10.8804 -3.92321,-15.0252 3.05087,-2.0725 10.46013,-5.6984 11.76763,-7.7707 1.30756,-2.0727 -3.05072,-8.8085 -3.05072,-8.8085 0,0 2.61563,-3.6262 3.9232,-6.2167 1.30749,-2.5908 -8.16063,-11.2363 -8.16063,-11.2363 0,0 8.16008,-8.4526 8.59588,-11.5613 0.38519,-2.7478 -1.95584,-5.4918 -5.81457,-6.0929 l 12.1178,-5.4312 -13.70844,-1.8377 c -1.05752,-28.9595 -1.76711,-125.44496 5.86008,-150.00323 l 16.46042,-10.1648 -16.04694,-4.77431 c -1.11733,-1.19406 -2.3318,-2.42206 -3.59676,-3.64226 l 16.04353,-14.0325 -23.50556,-6.99447 0,-9.2507 -8.7169,-5.1804 c 0,0 0.37656,-1.35902 0.74982,-3.31927 l 9.05917,-13.42762 -35.24603,10.97662 0.0752,0.25557 c -10.36608,-1.35441 -18.74945,-4.97812 -18.74945,-4.97812 l 4.7937,-23.31491 -32.25213,11.39875 -2.17824,-9.84338 -13.5106,9.32597 -4.35846,-15.02534 -13.5106,11.39874 -11.33237,-5.92094 -2.54913,1.83151 -10.45989,-6.73576 -10.45988,6.21678 -20.83867,3.25788 -6.10144,-14.50635 z"
       id="path3894"
       inkscape:connector-curvature="0"
       sodipodi:nodetypes="ccccccccccccccccccccccccccccccccccccccscsscssccccscccccccccccccccccccccccccccccccccccccccc" />
    <path
       style="color:#000000;display:inline;overflow:visible;visibility:visible;fill:#ffffff;fill-opacity:1;fill-rule:nonzero;stroke:none;stroke-width:1px;marker:none;enable-background:accumulate"
       d="m 535.70109,762.59499 c 38.34876,34.92863 35.4166,55.61846 35.05492,70.73951 -5.21085,0.99543 -14.03945,4.31409 -14.03945,4.31409 0,0 2.34858,29.8366 -0.92638,41.34315 -3.27496,11.50653 -19.13613,8.37057 -19.13613,8.37057 0,0 -6.17597,-57.93992 -11.57097,-70.14779 14.42663,-2.21185 21.11631,-4.94055 26.71433,-3.83376 3.38923,-8.44544 -2.96428,-38.06103 -16.09632,-50.78577 z"
       id="path4456"
       inkscape:connector-curvature="0" />
    <path
       style="color:#000000;display:inline;overflow:visible;visibility:visible;fill:#ffffff;fill-opacity:1;fill-rule:nonzero;stroke:none;stroke-width:1px;marker:none;enable-background:accumulate"
       d="m 782.81669,170.4513 -40.2,-14.4857 22.33662,43.1826 -37.7925,-15.59213 29.62312,43.18563 -37.33944,-2.37969 25.7385,31.03324 -21.22949,6.16968 21.62976,26.91083 -22.33486,8.04774 20.09075,28.39761 -22.16593,19.67094 13.22109,18.76891 -16.03279,16.50418 14.53784,11.07509 -12.78231,25.29958 17.26727,4.48582 -17.94553,26.02461 27.80199,-8.25588 -8.73165,29.93945 32.43886,-17.1664 -14.08971,37.28917 28.43761,-0.34352 -39.32137,84.34754 61.70439,-52.02452 4.69958,44.60217 30.56944,-39.18252 0.7747,27.33209 27.00855,-34.48494 -0.57997,34.19236 29.84036,-40.27109 0.0734,127.90182 50.44473,-109.03143 8.95524,45.03406 8.18962,-42.05768 8.77262,18.48756 8.50759,-23.24516 8.24425,36.68388 15.08779,-42.30565 59.3997,61.96957 -10.3828,-74.35262 49.2997,10.09267 -16.5309,-36.48564 71.0319,19.40909 -33.4621,-33.63496 60.3347,18.19599 -67.4967,-59.9351 62.0702,15.57238 -46.0407,-47.77556 42.8626,-4.06925 -39.4536,-32.92053 70.4661,-5.37473 -64.3311,-27.41869 57.7689,-14.20615 -43.5442,-28.69708 50.2645,-23.73661 -53.784,-18.34698 39.605,-61.13892 -55.3143,15.44447 6.3706,-41.7903 -51.7449,31.28307 24.2431,-74.58043 -65.8828,66.06949 3.2897,-21.16581 -23.3736,17.39263 14.4089,-47.81134 -44.102,45.2297 4.485,-20.9601 -13.45482,19.85704 2.98986,-27.57928 -23.17212,33.09507 2.13339,-28.83564 -14.15808,15.55426 -0.36435,-14.76521 -13.02568,11.49906 -17.55909,-50.11731 -26.19792,51.68476 -12.87986,-22.23072 -14.90955,21.29161 -10.35586,-25.04386 -15.59171,29.92649 -25.36537,-40.5666 1.65841,40.25227 -61.18697,-43.60513 z"
       id="path4024"
       inkscape:connector-curvature="0"
       sodipodi:nodetypes="ccccccccccccccccccccccccccccccccccccccccccccccccccccccccccccccccccccccccccccccccccccc" />
    <path
       style="color:#000000;display:inline;overflow:visible;visibility:visible;fill:#ffffff;fill-opacity:1;fill-rule:nonzero;stroke:none;stroke-width:1px;marker:none;enable-background:accumulate"
       d="m 981.87504,489.07837 c 15.79816,16.30726 34.68336,141.58053 227.57366,231.14516 -154.1725,-93.5024 -173.4435,-224.61445 -180.0947,-249.55706 -53.90514,-8.39388 -24.7768,9.78373 -47.47896,18.4119 z"
       id="path4024-3"
       inkscape:connector-curvature="0"
       sodipodi:nodetypes="cccc" />
    <path
       style="color:#000000;display:inline;overflow:visible;visibility:visible;fill:#ffffff;fill-opacity:1;fill-rule:nonzero;stroke:none;stroke-width:1px;marker:none;enable-background:accumulate"
       d="m 1170.1758,937.29846 c 28.961,44.03488 26.3945,130.36714 18.3117,150.34894 -8.0828,19.9817 -19.1821,49.9462 -58.1326,50.2525 -38.9506,0.3064 -309.43059,23.4584 -349.67987,-22.7008 -40.24929,-46.1593 -39.70015,-126.94284 -5.16902,-181.4361 34.53113,-54.49326 221.14913,-44.89527 221.14913,-44.89527 0,0 129.11256,-7.65482 173.52066,48.43073 z"
       id="path3992"
       inkscape:connector-curvature="0" />
    <path
       style="display:inline;fill:#ffffff;fill-rule:evenodd;stroke:none;stroke-width:1px;stroke-linecap:butt;stroke-linejoin:miter;stroke-opacity:1"
       d="m 727.10685,996.89136 c 74.866,73.60324 103.78855,3.96944 102.68898,-66.62566 30.56158,76.2866 51.76994,93.3483 64.34785,55.7614 40.46149,32.3075 65.73312,23.245 85.79709,0 7.47835,29.8947 23.51573,17.8312 37.39523,16.3462 4.5714,6.7635 -11.1293,23.5669 52.3016,1.1789 4.1088,8.9521 9.6437,16.6614 46.7984,-3.1864 9.6256,36.3357 40.509,-2.01383 72.1476,-43.01599 -19.7117,50.40869 -20.8834,52.65279 4.3042,33.36049 -3.7956,8.56916 -9.9761,25.7196 15.4916,7.14359 -14.9785,38.31631 35.7014,-11.18964 99.1309,-66.22169 -31.7284,40.67928 -105.608,136.6484 -50.1911,130.9639 -7.7282,11.9924 -33.6691,26.098 44.3605,36.547 -15.3256,8.1378 -62.1143,-3.7539 -23.0841,30.7017 5.2293,4.0276 -12.277,6.4871 21.1342,17.0938 -19.723,-0.7216 -31.8186,1.8562 -13.6496,17.525 -36.0017,-0.8472 -22.5314,15.6287 3.8999,36.6432 -52.1355,-26.9556 -55.0047,-17.1588 -56.5481,-6.3727 -65.3412,-36.7496 -69.1768,-25.1792 -77.9972,-17.5251 -31.849,0.2868 -63.6979,-4.3411 -95.5469,36.6433 -8.3408,-25.4912 -25.0631,-45.1128 -95.54659,-27.0841 30.94761,-32.4293 -13.07948,-11.7684 -46.79837,1.5931 18.46514,-40.5122 -28.397,-13.9241 -87.74711,25.491 33.23583,-44.7368 -36.02827,-48.3517 -91.964,-16.5884 39.05508,-34.6799 50.49092,-43.5858 -31.77091,-45.2956 39.37305,-15.8531 30.0734,-37.6472 -10.81042,-73.5366 46.08773,10.5678 59.83505,0.7517 27.29901,-38.2364 50.26943,32.0011 24.17136,-0.3644 4.55734,-43.30394 z"
       id="path4508"
       inkscape:connector-curvature="0"
       sodipodi:nodetypes="cccccccccccccccccccccccccccc" />
    <path
       style="color:#000000;display:inline;overflow:visible;visibility:visible;fill:#ffffff;fill-opacity:1;fill-rule:nonzero;stroke:none;stroke-width:1px;marker:none;enable-background:accumulate"
       d="m 760.12564,1192.5775 c 8.00598,-57.0318 75.15648,-96.8019 244.18316,-80.6312 90.5398,8.6619 199.6579,-3.5616 188.9833,94.9884 -9.0737,83.77 -166.2012,69.9004 -196.89089,70.8837 -30.68973,0.9834 -187.78228,3.1783 -214.30819,-26.2153 -16.60461,-18.3996 -23.3017,-41.326 -21.96738,-59.0256 z"
       id="path4546-6-3"
       inkscape:connector-curvature="0"
       sodipodi:nodetypes="cssssc" />
    <path
       style="color:#000000;fill:#ffffff;fill-opacity:1;fill-rule:nonzero;stroke:none;stroke-width:1px;marker:none;visibility:visible;display:inline;overflow:visible;enable-background:accumulate"
       d="m 139.92716,1488.4784 c 38.50476,-47.6958 252.02205,-40.4013 318.43462,-28.1166 72.47738,13.4065 94.79201,32.4028 98.03297,74.0366 1.00107,12.8598 -4.86144,71.1761 -40.51247,82.6562 -35.65088,11.48 -137.74206,17.22 -173.39309,17.22 -35.65087,0 -149.45648,-7.307 -178.25484,-24.108 -27.54847,-16.0721 -62.81212,-73.9926 -24.30719,-121.6882 z"
       id="path3330"
       inkscape:connector-curvature="0"
       sodipodi:nodetypes="zsssssz" />
    <path
       style="color:#000000;display:inline;overflow:visible;visibility:visible;fill:#ffffff;fill-opacity:1;fill-rule:nonzero;stroke:none;stroke-width:1px;marker:none;enable-background:accumulate"
       d="m 265.76142,1678.0072 c -1.00912,-29.0026 4.13675,-48.2355 27.24676,-63.6443 21.03848,-14.0276 67.36577,-17.904 98.27821,-17.904 49.96563,-0.198 178.2246,-5.4181 163.08985,85.1901 -0.59776,42.9756 -75.12988,44.8494 -90.26705,48.3297 -15.13717,3.4803 -75.65003,4.2477 -89.77807,3.0877 -51.93832,2.1088 -106.76576,-19.7128 -108.5697,-55.0592 z"
       id="path3357"
       inkscape:connector-curvature="0"
       sodipodi:nodetypes="csccscc" />
    <path
       style="color:#000000;display:inline;overflow:visible;visibility:visible;fill:#ffffff;fill-opacity:1;fill-rule:nonzero;stroke:none;stroke-width:1px;marker:none;enable-background:accumulate"
       d="m 453.45684,1711.8886 c -0.37144,57.0275 25.35707,95.1396 67.76656,103.3368 -67.9487,-0.4363 -102.57173,-72.2713 -100.82948,-96.6104 1.70602,-23.8329 33.06292,-6.7264 33.06292,-6.7264 z"
       id="path5010"
       inkscape:connector-curvature="0"
       sodipodi:nodetypes="ccsc" />
    <path
       style="color:#000000;display:inline;overflow:visible;visibility:visible;fill:#ffffff;fill-opacity:1;fill-rule:nonzero;stroke:none;stroke-width:1px;marker:none;enable-background:accumulate"
       d="m 232.60887,2112.7468 c 28.82884,-21.6901 278.41375,-34.8028 344.5222,0.8436 55.17978,29.7537 33.65046,103.8509 -15.42321,120.9177 -49.0735,17.0669 -212.3232,15.086 -283.87185,7.3484 -68.12416,-7.3674 -79.56334,-29.6049 -82.91431,-74.38 -1.36765,-18.2745 8.85821,-33.0393 37.68717,-54.7297 z"
       id="path4040-4"
       inkscape:connector-curvature="0"
       sodipodi:nodetypes="zssssz" />
    <path
       style="color:#000000;display:inline;overflow:visible;visibility:visible;fill:#ffffff;fill-opacity:1;fill-rule:nonzero;stroke:none;stroke-width:1px;marker:none;enable-background:accumulate"
       d="m 535.00775,1986.8306 c -11.22357,-11.0259 -34.07155,-13.8129 -52.41966,-13.1663 -5.21231,0.2939 -10.58546,0.9606 -15.40703,2.9669 -4.5497,3.204 -5.8508,9.2452 -4.71647,14.4517 1.1116,7.6336 5.4512,15.1923 3.33691,23.0221 -1.67716,5.6622 -7.62933,7.7967 -12.46033,10.0265 -12.42532,5.4417 -25.66044,9.2324 -37.15366,16.6288 -13.48154,7.4861 -27.12386,16.3412 -35.233,29.8576 -3.11895,5.4019 -5.62626,11.4889 -5.13528,17.8477 0.51982,16.3695 10.44001,32.6806 25.75127,39.1373 10.15783,3.1917 22.85144,-2.6898 25.43476,-13.369 1.44801,-5.6168 -1.12924,-11.3042 -4.7776,-15.4765 -5.27333,-8.9228 -5.03206,-20.3779 -0.31332,-29.473 3.77147,-7.5698 9.88065,-13.877 17.08927,-18.2489 8.233,-8.5339 20.53978,-9.9068 31.26386,-13.4482 4.87531,-1.6909 9.9467,-3.8199 13.48797,-7.6632 3.74598,-6.6816 1.05856,-14.5289 -1.98107,-20.9052 -2.96548,-6.6569 -7.15746,-14.0436 -4.63677,-21.5174 1.0509,-5.4219 7.54846,-5.1616 11.76803,-6.5249 14.15942,-2.6164 28.95507,-0.7769 42.45081,4.0015 1.25162,0.5512 2.45101,1.1992 3.65131,1.8525 z"
       id="path4496"
       inkscape:connector-curvature="0"
       sodipodi:nodetypes="ccccccccccccccccccccc" />
    <path
       style="color:#000000;display:inline;overflow:visible;visibility:visible;fill:#ffffff;fill-opacity:1;fill-rule:nonzero;stroke:none;stroke-width:1px;marker:none;enable-background:accumulate"
       d="m 220.00137,2525.6616 c 9.655,-78.4304 99.91909,-134.4262 329.5865,-115.8152 123.02226,9.969 262.8327,17.4924 250.11894,132.4111 -12.7139,114.9186 -213.80757,108.6096 -255.42473,110.6088 -41.61715,1.9992 -257.55967,-13.6708 -294.1705,-53.444 -22.91755,-24.8968 -31.54594,-49.4446 -30.11021,-73.7607 z"
       id="path4546-6"
       inkscape:connector-curvature="0"
       sodipodi:nodetypes="cssssc" />
    <path
       style="fill:#ffffff;stroke:none"
       d="m 694.38649,2534.9643 c 31.16173,50.5895 56.21292,58.6934 72.83219,79.5631 16.61925,20.8701 -4.22375,65.3135 0.2296,80.4242 5.36252,14.254 23.11118,27.2288 57.37772,44.4988 -73.16324,-15.6884 -73.36945,-34.9149 -78.29883,-48.1564 -6.77646,-18.203 5.60657,-39.7648 -12.3168,-56.2686 -17.36077,-15.9861 -80.58056,-61.1983 -92.85364,-95.1241 -12.2733,-33.9259 -18.60006,-35.9967 -18.60006,-35.9967 z"
       id="path3282"
       inkscape:connector-curvature="0"
       sodipodi:nodetypes="csccssscc" />
  </g>
  <g
     inkscape:groupmode="layer"
     id="layer1"
     inkscape:label="txt">
    <text
       xml:space="preserve"
       style="font-style:normal;font-variant:normal;font-weight:normal;font-stretch:normal;font-size:11.0573225px;line-height:100%;font-family:Midan;-inkscape-font-specification:Midan;text-align:center;letter-spacing:0px;word-spacing:0px;text-anchor:middle;fill:#000000;fill-opacity:1;stroke:none"
       x="386.09131"
       y="911.36737"
       id="text4246"
       sodipodi:linespacing="100%"><tspan
         sodipodi:role="line"
         style="font-style:normal;font-variant:normal;font-weight:normal;font-stretch:normal;font-size:70px;line-height:100%;font-family:Midan;-inkscape-font-specification:Midan"
         x="386.09131"
         y="911.36737"
         id="tspan4176">ولی <tspan
   style="font-style:normal;font-variant:normal;font-weight:900;font-stretch:normal;font-size:70px;font-family:Midan;-inkscape-font-specification:'Midan Heavy'"
   id="tspan4191">طبیعت!</tspan></tspan></text>
    <text
       xml:space="preserve"
       style="font-style:normal;font-variant:normal;font-weight:normal;font-stretch:normal;font-size:12px;line-height:100%;font-family:Midan;-inkscape-font-specification:Midan;text-align:center;letter-spacing:0px;word-spacing:0px;text-anchor:middle;fill:#000000;fill-opacity:1;stroke:none"
       x="390.66956"
       y="993.92133"
       id="text4246-70"
       sodipodi:linespacing="100%"><tspan
         sodipodi:role="line"
         style="font-style:normal;font-variant:normal;font-weight:normal;font-stretch:normal;font-size:50px;line-height:100%;font-family:Midan;-inkscape-font-specification:Midan"
         x="390.66956"
         y="993.92133"
         id="tspan3630">ما نمی تونیم همه چیز رو همین جور</tspan><tspan
         sodipodi:role="line"
         style="font-style:normal;font-variant:normal;font-weight:normal;font-stretch:normal;font-size:50px;line-height:100%;font-family:Midan;-inkscape-font-specification:Midan"
         x="390.66956"
         y="1043.9213"
         id="tspan4202">آلوده بکنیم بدون اینکه عواقبش رو</tspan><tspan
         sodipodi:role="line"
         style="font-style:normal;font-variant:normal;font-weight:normal;font-stretch:normal;font-size:50px;line-height:100%;font-family:Midan;-inkscape-font-specification:Midan"
         x="390.66956"
         y="1093.9213"
         id="tspan4204">رو در نظر نگیریم!!  </tspan></text>
    <text
       xml:space="preserve"
       style="font-style:normal;font-variant:normal;font-weight:normal;font-stretch:normal;font-size:11.69629097px;line-height:100%;font-family:Midan;-inkscape-font-specification:Midan;text-align:center;letter-spacing:0px;word-spacing:0px;text-anchor:middle;fill:#000000;fill-opacity:1;stroke:none"
       x="967.7359"
       y="253.69385"
       id="text4246-7"
       sodipodi:linespacing="100%"
       transform="scale(0.97469088,1.0259663)"><tspan
         sodipodi:role="line"
         style="font-style:normal;font-variant:normal;font-weight:900;font-stretch:normal;font-size:58.48145294px;line-height:100%;font-family:Midan;-inkscape-font-specification:'Midan Heavy';stroke:none;stroke-width:1.89999998;stroke-miterlimit:4;stroke-dasharray:none;stroke-opacity:1"
         x="967.7359"
         y="253.69385"
         id="tspan3649"> تا حالا که</tspan><tspan
         sodipodi:role="line"
         style="font-style:normal;font-variant:normal;font-weight:900;font-stretch:normal;font-size:58.48145294px;line-height:100%;font-family:Midan;-inkscape-font-specification:'Midan Heavy';stroke:none;stroke-width:1.89999998;stroke-miterlimit:4;stroke-dasharray:none;stroke-opacity:1"
         x="967.7359"
         y="312.17529"
         id="tspan4215">هیچ مشکلی</tspan><tspan
         sodipodi:role="line"
         style="font-style:normal;font-variant:normal;font-weight:900;font-stretch:normal;font-size:58.48145294px;line-height:100%;font-family:Midan;-inkscape-font-specification:'Midan Heavy';stroke:none;stroke-width:1.89999998;stroke-miterlimit:4;stroke-dasharray:none;stroke-opacity:1"
         x="967.7359"
         y="370.65674"
         id="tspan4217">برای ما </tspan><tspan
         sodipodi:role="line"
         style="font-style:normal;font-variant:normal;font-weight:900;font-stretch:normal;font-size:58.48145294px;line-height:100%;font-family:Midan;-inkscape-font-specification:'Midan Heavy';stroke:none;stroke-width:1.89999998;stroke-miterlimit:4;stroke-dasharray:none;stroke-opacity:1"
         x="967.7359"
         y="429.13821"
         id="tspan4219">پیش نیومده!</tspan></text>
    <text
       xml:space="preserve"
       style="font-style:normal;font-variant:normal;font-weight:normal;font-stretch:normal;font-size:12px;line-height:100%;font-family:Midan;-inkscape-font-specification:Midan;text-align:center;letter-spacing:0px;word-spacing:0px;text-anchor:middle;fill:#000000;fill-opacity:1;stroke:none"
       x="972.62585"
       y="956.46143"
       id="text4246-70-2"
       sodipodi:linespacing="100%"><tspan
         sodipodi:role="line"
         style="font-style:normal;font-variant:normal;font-weight:normal;font-stretch:normal;font-size:50px;line-height:100%;font-family:Midan;-inkscape-font-specification:Midan"
         x="972.62585"
         y="956.46143"
         id="tspan3657">ما همه جادوگرای کاوسا</tspan><tspan
         sodipodi:role="line"
         style="font-style:normal;font-variant:normal;font-weight:normal;font-stretch:normal;font-size:50px;line-height:100%;font-family:Midan;-inkscape-font-specification:Midan"
         x="972.62585"
         y="1006.4614"
         id="tspan4234">هستیم و اشتباهات ما</tspan><tspan
         sodipodi:role="line"
         style="font-style:normal;font-variant:normal;font-weight:normal;font-stretch:normal;font-size:50px;line-height:100%;font-family:Midan;-inkscape-font-specification:Midan"
         x="972.62585"
         y="1056.4614"
         id="tspan4236">همشون <tspan
   style="font-style:normal;font-variant:normal;font-weight:900;font-stretch:normal;font-size:50px;font-family:Midan;-inkscape-font-specification:'Midan Heavy'"
   id="tspan4238">خاک میشن!</tspan></tspan></text>
    <text
       xml:space="preserve"
       style="font-style:normal;font-variant:normal;font-weight:normal;font-stretch:normal;font-size:12px;line-height:100%;font-family:Midan;-inkscape-font-specification:Midan;text-align:center;letter-spacing:0px;word-spacing:0px;text-anchor:middle;fill:#000000;fill-opacity:1;stroke:none"
       x="983.29974"
       y="1160.8804"
       id="text4246-70-2-8"
       sodipodi:linespacing="100%"><tspan
         sodipodi:role="line"
         style="font-style:normal;font-variant:normal;font-weight:normal;font-stretch:normal;font-size:60px;line-height:100%;font-family:Midan;-inkscape-font-specification:Midan"
         x="983.29974"
         y="1160.8804"
         id="tspan3661">ما رسم و رسوم رو زیر </tspan><tspan
         sodipodi:role="line"
         style="font-style:normal;font-variant:normal;font-weight:normal;font-stretch:normal;font-size:60px;line-height:100%;font-family:Midan;-inkscape-font-specification:Midan"
         x="983.29974"
         y="1220.8804"
         id="tspan4242">سوال نمی بریم!</tspan></text>
    <text
       xml:space="preserve"
       style="font-style:normal;font-variant:normal;font-weight:normal;font-stretch:normal;font-size:12px;line-height:100%;font-family:Midan;-inkscape-font-specification:Midan;text-align:center;letter-spacing:0px;word-spacing:0px;text-anchor:middle;fill:#000000;fill-opacity:1;stroke:none"
       x="333.31961"
       y="1518.972"
       id="text4246-70-2-2"
       sodipodi:linespacing="100%"><tspan
         sodipodi:role="line"
         style="font-style:normal;font-variant:normal;font-weight:normal;font-stretch:normal;font-size:50px;line-height:100%;font-family:Midan;-inkscape-font-specification:Midan"
         x="333.31961"
         y="1518.972"
         id="tspan3668">ببین اینجا چی</tspan><tspan
         sodipodi:role="line"
         style="font-style:normal;font-variant:normal;font-weight:normal;font-stretch:normal;font-size:50px;line-height:100%;font-family:Midan;-inkscape-font-specification:Midan"
         x="333.31961"
         y="1568.972"
         id="tspan4246">پیدا کردم!</tspan></text>
    <text
       xml:space="preserve"
       style="font-style:normal;font-variant:normal;font-weight:normal;font-stretch:normal;font-size:12px;line-height:100%;font-family:Midan;-inkscape-font-specification:Midan;text-align:center;letter-spacing:0px;word-spacing:0px;text-anchor:middle;fill:#000000;fill-opacity:1;stroke:none"
       x="407.20337"
       y="1650.1035"
       id="text4246-70-2-2-2"
       sodipodi:linespacing="100%"><tspan
         sodipodi:role="line"
         style="font-style:normal;font-variant:normal;font-weight:normal;font-stretch:normal;font-size:45px;line-height:100%;font-family:Midan;-inkscape-font-specification:Midan"
         x="407.20337"
         y="1650.1035"
         id="tspan3670">اصلا باورم</tspan><tspan
         sodipodi:role="line"
         style="font-style:normal;font-variant:normal;font-weight:normal;font-stretch:normal;font-size:45px;line-height:100%;font-family:Midan;-inkscape-font-specification:Midan"
         x="407.20337"
         y="1695.1035"
         id="tspan4250">نیمشه!</tspan></text>
    <text
       xml:space="preserve"
       style="font-style:normal;font-variant:normal;font-weight:normal;font-stretch:normal;font-size:12px;line-height:100%;font-family:Midan;-inkscape-font-specification:Midan;text-align:center;letter-spacing:0px;word-spacing:0px;text-anchor:middle;fill:#000000;fill-opacity:1;stroke:none"
       x="400.75806"
       y="2158.8105"
       id="text4246-70-2-2-2-7"
       sodipodi:linespacing="100%"><tspan
         sodipodi:role="line"
         style="font-style:normal;font-variant:normal;font-weight:normal;font-stretch:normal;font-size:45px;line-height:100%;font-family:Midan;-inkscape-font-specification:Midan"
         x="400.75806"
         y="2158.8105"
         id="tspan4254">این چطوری سر از اینجا</tspan><tspan
         sodipodi:role="line"
         style="font-style:normal;font-variant:normal;font-weight:normal;font-stretch:normal;font-size:45px;line-height:100%;font-family:Midan;-inkscape-font-specification:Midan"
         x="400.75806"
         y="2203.8105"
         id="tspan4258">در آورده؟</tspan></text>
    <text
       xml:space="preserve"
       style="font-style:normal;font-variant:normal;font-weight:normal;font-stretch:normal;font-size:12px;line-height:100%;font-family:Midan;-inkscape-font-specification:Midan;text-align:center;letter-spacing:0px;word-spacing:0px;text-anchor:middle;fill:#000000;fill-opacity:1;stroke:none"
       x="504.78683"
       y="2506.1243"
       id="text4246-70-2-2-2-7-6"
       sodipodi:linespacing="100%"><tspan
         sodipodi:role="line"
         style="font-style:normal;font-variant:normal;font-weight:normal;font-stretch:normal;font-size:60px;line-height:100%;font-family:Midan;-inkscape-font-specification:Midan"
         x="504.78683"
         y="2506.1243"
         id="tspan4265">هنوز هم کار می کنه.</tspan><tspan
         sodipodi:role="line"
         style="font-style:normal;font-variant:normal;font-weight:normal;font-stretch:normal;font-size:60px;line-height:100%;font-family:Midan;-inkscape-font-specification:Midan"
         x="504.78683"
         y="2566.1243"
         id="tspan4269">فقط یکمی باید کوک بشه.</tspan></text>
  </g>
</svg>
