<?xml version="1.0" encoding="UTF-8" standalone="no"?>
<!-- Created with Inkscape (http://www.inkscape.org/) -->

<svg
   xmlns:dc="http://purl.org/dc/elements/1.1/"
   xmlns:cc="http://creativecommons.org/ns#"
   xmlns:rdf="http://www.w3.org/1999/02/22-rdf-syntax-ns#"
   xmlns:svg="http://www.w3.org/2000/svg"
   xmlns="http://www.w3.org/2000/svg"
   xmlns:xlink="http://www.w3.org/1999/xlink"
   xmlns:sodipodi="http://sodipodi.sourceforge.net/DTD/sodipodi-0.dtd"
   xmlns:inkscape="http://www.inkscape.org/namespaces/inkscape"
   id="svg2"
   version="1.1"
   inkscape:version="0.91 r13725"
   width="2481"
   height="3503"
   sodipodi:docname="Pepper-and-Carrot_by-David-Revoy_E19P03.svg">
  <metadata
     id="metadata8">
    <rdf:RDF>
      <cc:Work
         rdf:about="">
        <dc:format>image/svg+xml</dc:format>
        <dc:type
           rdf:resource="http://purl.org/dc/dcmitype/StillImage" />
        <dc:title />
      </cc:Work>
    </rdf:RDF>
  </metadata>
  <defs
     id="defs6">
    <filter
       inkscape:collect="always"
       style="color-interpolation-filters:sRGB"
       id="filter4435"
       x="-0.069213131"
       width="1.1384263"
       y="-0.15661197"
       height="1.3132239">
      <feGaussianBlur
         inkscape:collect="always"
         stdDeviation="8.7277131"
         id="feGaussianBlur4437" />
    </filter>
    <filter
       inkscape:collect="always"
       style="color-interpolation-filters:sRGB"
       id="filter4615"
       x="-0.073787731"
       width="1.1475755"
       y="-0.13734481"
       height="1.2746896">
      <feGaussianBlur
         inkscape:collect="always"
         stdDeviation="11.011083"
         id="feGaussianBlur4617" />
    </filter>
    <filter
       inkscape:collect="always"
       style="color-interpolation-filters:sRGB"
       id="filter4635"
       x="-0.068060388"
       width="1.1361208"
       y="-0.16285321"
       height="1.3257064">
      <feGaussianBlur
         inkscape:collect="always"
         stdDeviation="11.059292"
         id="feGaussianBlur4637" />
    </filter>
  </defs>
  <sodipodi:namedview
     pagecolor="#ffffff"
     bordercolor="#666666"
     borderopacity="1"
     objecttolerance="10"
     gridtolerance="10"
     guidetolerance="10"
     inkscape:pageopacity="0"
     inkscape:pageshadow="2"
     inkscape:window-width="1920"
     inkscape:window-height="1042"
     id="namedview4"
     showgrid="false"
     inkscape:zoom="0.40000001"
     inkscape:cx="1286.9903"
     inkscape:cy="2227.425"
     inkscape:window-x="0"
     inkscape:window-y="23"
     inkscape:window-maximized="1"
     inkscape:current-layer="layer3" />
  <g
     inkscape:groupmode="layer"
     id="layer2"
     inkscape:label="artwork"
     sodipodi:insensitive="true">
    <image
       sodipodi:absref="/home/deevad/peppercarrot/webcomics/New/lang/fr/../gfx_Pepper-and-Carrot_by-David-Revoy_E19P03.png"
       xlink:href="../gfx_Pepper-and-Carrot_by-David-Revoy_E19P03.png"
       width="2481"
       height="3503"
       id="image10"
       x="0"
       y="0" />
  </g>
  <g
     inkscape:groupmode="layer"
     id="layer3"
     inkscape:label="speechbubbles">
    <path
       style="color:#000000;display:inline;overflow:visible;visibility:visible;fill:#ffffff;fill-opacity:1;fill-rule:nonzero;stroke:none;stroke-width:1px;marker:none;enable-background:accumulate"
       d="m 1229.1323,1636.0613 c -22.1637,-21.7501 -34.1762,-29.9459 -5.0652,-55.5427 -38.226,7.4396 -14.7517,-9.441 -5.3117,-20.7897 -41.9788,15.9892 -30.214,-4.8025 -19.4759,-18.7163 -12.1823,10.5819 -35.0192,20.2395 -14.7695,-6.2922 -8.6926,8.6269 -36.0733,30.3647 -24.919,-1.4768 -9.208,12.0752 -13.6307,17.9629 -11.5491,3.2811 -6.1089,8.5614 -8.697,7.5732 -8.5993,-1.8835 -18.0387,20.9989 -7.226,2.0999 -6.8052,-3.2035 -11.317,17.1054 -17.1123,11.4455 -13.9474,2.3118 -5.621,9.1055 -21.9928,9.3255 -22.2603,0.068 -6.5069,8.571 -12.6512,9.6308 -20.9117,-0.7476 -2.4749,3.8132 -4.744,10.3085 -7.9712,4.3116 -3.3228,2.0045 -6.6683,7.2224 -9.9403,2.0621 -35.0599,19.6894 -50.7027,10.3684 -66.94524,-4.8628 3.68777,10.3216 8.23221,26.0939 -30.80162,1.8447 12.54333,26.772 -0.84144,24.1352 -24.39909,11.4479 14.7999,11.3705 15.52044,17.7224 -18.94067,11.5339 23.98275,9.4982 46.07899,18.9667 8.73814,27.4992 8.70483,3.7581 37.30146,-4.3095 5.68209,38.5439 23.86767,-8.5054 55.03902,-5.6873 48.44176,27.3849 13.35844,-14.7365 33.16933,-43.7505 35.67083,8.6963 8.9858,-30.3637 22.0842,-34.032 29.7949,-2.489 1.9608,-11.9484 16.2578,-30.0954 35.2113,3.5125 -5.6459,-13.7638 -3.3204,-40.2822 21.3326,1.0754 -1.1793,-6.9755 -12.1992,-52.1065 53.5876,1.5833 -30.1929,-44.0242 6.7702,-20.3313 93.5666,45.0864 -106.1524,-93.8738 -56.7581,-75.6675 -33.4179,-58.9294 -26.775,-27.1459 -14.8494,-33.2975 14.0045,-15.3093 z"
       id="path3549"
       inkscape:connector-curvature="0"
       sodipodi:nodetypes="cccccccccccccccccccccccccccccc" />
    <path
       style="color:#000000;display:inline;overflow:visible;visibility:visible;fill:#ffffff;fill-opacity:1;fill-rule:nonzero;stroke:#ffffff;stroke-width:7.69999981;marker:none;enable-background:accumulate;stroke-opacity:1;stroke-miterlimit:4;stroke-dasharray:none;stroke-dashoffset:0"
       d="m 1694.0627,2649.2898 c 3.9884,-55.2417 37.4414,-93.7635 121.6468,-78.1003 45.105,8.39 96.3868,15.2391 91.0689,96.1968 -5.3179,80.9577 -79.1036,74.2906 -94.3926,75.2431 -15.2889,0.9525 -94.4726,-12.4842 -107.6872,-40.9552 -8.2721,-17.8221 -11.3006,-35.2403 -10.6359,-52.3844 z"
       id="path4546-6"
       inkscape:connector-curvature="0"
       sodipodi:nodetypes="cssssc" />
    <path
       style="color:#000000;display:inline;overflow:visible;visibility:visible;fill:#ffffff;fill-opacity:1;fill-rule:nonzero;stroke:none;stroke-width:1px;marker:none;enable-background:accumulate"
       d="m 1827.4084,2846.6353 c -38.9829,-24.3744 -35.2819,-89.0806 -37.3787,-128.9314 -2.9638,-56.3326 1.3429,-30.7581 1.3429,-30.7581 l -8.5494,-20.5266 c -7.1172,-2.1741 -33.277,154.0001 44.5852,180.2161 z"
       id="path3072-1"
       inkscape:connector-curvature="0"
       sodipodi:nodetypes="csccc" />
    <path
       style="fill:#ffffff;stroke:none;filter:url(#filter4615);opacity:0.65"
       d="m 1833.2394,820.46626 c -2.5264,-31.97778 36.2035,-38.91224 44.7995,-47.89133 8.596,-8.979 38.1934,-42.72495 52.9295,-48.11249 14.7361,-5.38734 65.9259,10.14118 84.3461,22.71154 18.42,12.57096 72.2946,-14.60357 99.4573,-8.60433 27.1627,5.99903 35.6123,39.50796 47.8923,50.28243 12.28,10.77498 27.3572,12.23477 28.5853,58.92575 1.228,46.69117 -71.4235,41.71658 -86.1597,45.30814 -14.7361,3.59166 -59.5243,25.89015 -81.6284,22.29869 -22.1041,-3.59156 -51.0646,-11.60067 -71.9408,-15.19213 -20.8761,-3.59156 -56.5509,17.58353 -70.059,3.21729 -13.5081,-14.36684 -12.2801,-25.14152 -18.4202,-32.32473 -6.14,-7.18322 -27.2755,-18.64104 -29.8019,-50.61883 z"
       id="path3250"
       inkscape:connector-curvature="0"
       sodipodi:nodetypes="zssszsssssssz" />
    <path
       style="fill:#ffffff;stroke:none;filter:url(#filter4435);opacity:0.65"
       d="m 1531.1184,707.71088 c 1.4311,23.08058 -31.5228,28.65986 -39.0016,35.27672 -7.4788,6.61681 -34.7137,19.36411 -47.313,23.47432 -12.5993,4.11007 -54.1865,5.71364 -69.508,-3.10449 -15.3214,-8.81856 -56.575,3.0863 -79.4461,-0.85361 -22.8711,-3.93974 -34.2593,-19.51277 -44.4205,-27.12235 -10.1612,-7.60996 -22.8977,-8.44486 -22.9034,-42.18095 -0.01,-33.7362 61.4125,-31.20206 73.9721,-34.01391 12.5596,-2.81194 43.878,-25.27207 62.5183,-22.99886 18.6403,2.27328 50.0961,13.32507 67.6964,15.61629 17.6004,2.29123 12.1966,-2.16778 44.4804,3.75648 14.8354,2.72237 24.7667,10.88933 29.8076,15.99249 5.0408,5.10314 22.6866,13.0773 24.1178,36.15787 z"
       id="path3250-3"
       inkscape:connector-curvature="0"
       sodipodi:nodetypes="zssszsssssssz" />
    <path
       style="fill:#ffffff;stroke:none;filter:url(#filter4635);opacity:0.65"
       d="m 641.64857,600.6061 c 10.78775,5.37741 19.14955,14.84596 30.44219,19.31347 26.21575,11.72459 54.23131,20.44572 82.82199,21.46258 10.78006,0.6048 21.21295,-2.34223 30.72486,-7.53313 15.9811,-3.99025 32.62516,-0.14466 48.6511,2.006 21.85329,3.29662 46.23504,7.6202 65.96105,-5.90477 15.7206,-9.41707 25.97721,-25.65792 39.67939,-37.58852 11.28409,-7.55869 25.51775,-8.20778 36.80777,-16.0064 18.80202,-10.84366 25.40318,-40.16031 13.39888,-58.77952 -12.52606,-16.64496 -33.86849,-20.78182 -52.62158,-23.96589 -18.58425,-2.02486 -37.12778,-4.43636 -55.69147,-6.57322 -25.07182,-1.39125 -50.20931,-0.10049 -75.17642,2.399 -27.62546,1.09595 -53.76233,-14.92426 -81.54597,-10.02392 -14.88451,0.43368 -29.85614,-0.34389 -44.5288,2.99063 -17.47363,2.31042 -34.44978,9.82459 -46.7547,23.45666 -10.72674,10.01983 -22.34354,20.30342 -26.79001,35.32555 -5.22782,17.81668 15.23603,50.37977 34.62172,59.42148 z"
       id="path3250-3-6"
       inkscape:connector-curvature="0"
       sodipodi:nodetypes="ccccccccccccccccc" />
  </g>
  <g
     inkscape:groupmode="layer"
     id="layer1"
     inkscape:label="txt">
    <text
       xml:space="preserve"
       style="font-style:normal;font-variant:normal;font-weight:normal;font-stretch:normal;font-size:12px;line-height:125%;font-family:Lavi;-inkscape-font-specification:Lavi;text-align:center;letter-spacing:0px;word-spacing:0px;text-anchor:middle;fill:#000000;fill-opacity:1;stroke:none"
       x="796.82544"
       y="542.46857"
       id="text4246-3-2-9-6-6-0-5-1"
       sodipodi:linespacing="125%"><tspan
         sodipodi:role="line"
         style="font-size:45px"
         x="796.82544"
         y="542.46857"
         id="tspan4544">on enterre nos</tspan><tspan
         sodipodi:role="line"
         style="font-size:45px"
         x="804.7356"
         y="598.71857"
         id="tspan4150">échecs </tspan><tspan
         sodipodi:role="line"
         style="font-size:45px"
         x="796.82544"
         y="654.96857"
         id="tspan4378-7-6-4" /></text>
    <text
       xml:space="preserve"
       style="font-style:normal;font-variant:normal;font-weight:normal;font-stretch:normal;font-size:12px;line-height:125%;font-family:Lavi;-inkscape-font-specification:Lavi;text-align:center;letter-spacing:0px;word-spacing:0px;text-anchor:middle;fill:#000000;fill-opacity:1;stroke:none"
       x="2009.8777"
       y="813.84338"
       id="text4246-3-2-9-6-6-0-5-1-3"
       sodipodi:linespacing="125%"><tspan
         sodipodi:role="line"
         style="font-size:45px"
         x="2009.8777"
         y="813.84338"
         id="tspan4150-7">depuis la nuit</tspan><tspan
         sodipodi:role="line"
         style="font-size:45px"
         x="2017.7878"
         y="870.09338"
         id="tspan4178">des temps </tspan><tspan
         sodipodi:role="line"
         style="font-size:45px"
         x="2009.8777"
         y="926.34338"
         id="tspan4378-7-6-4-5" /></text>
    <text
       xml:space="preserve"
       style="font-style:normal;font-variant:normal;font-weight:normal;font-stretch:normal;font-size:12px;line-height:125%;font-family:Lavi;-inkscape-font-specification:Lavi;text-align:center;letter-spacing:0px;word-spacing:0px;text-anchor:middle;fill:#000000;fill-opacity:1;stroke:none"
       x="1380.2966"
       y="719.36346"
       id="text4246-3-2-9-6-6-0-5-1-3-3"
       sodipodi:linespacing="125%"><tspan
         sodipodi:role="line"
         style="font-size:45px"
         x="1388.2068"
         y="719.36346"
         id="tspan4178-6">la tradition </tspan><tspan
         sodipodi:role="line"
         style="font-size:45px"
         x="1380.2966"
         y="775.61346"
         id="tspan4378-7-6-4-5-2" /></text>
    <text
       xml:space="preserve"
       style="font-style:normal;font-variant:normal;font-weight:normal;font-stretch:normal;font-size:12px;line-height:125%;font-family:Lavi;-inkscape-font-specification:Lavi;text-align:center;letter-spacing:0px;word-spacing:0px;text-anchor:middle;fill:#000000;fill-opacity:1;stroke:none"
       x="1081.2966"
       y="1601.9884"
       id="text4246-3-2-9-6-6-0-5-1-3-9"
       sodipodi:linespacing="125%"><tspan
         sodipodi:role="line"
         style="font-size:45px"
         x="1089.2068"
         y="1601.9884"
         id="tspan4236">Mais OUI ! </tspan><tspan
         sodipodi:role="line"
         style="font-size:45px"
         x="1081.2966"
         y="1658.2384"
         id="tspan4378-7-6-4-5-7" /></text>
    <text
       xml:space="preserve"
       style="font-style:normal;font-variant:normal;font-weight:normal;font-stretch:normal;font-size:9.94673252px;line-height:125%;font-family:Lavi;-inkscape-font-specification:Lavi;text-align:center;letter-spacing:0px;word-spacing:0px;text-anchor:middle;fill:#000000;fill-opacity:1;stroke:none"
       x="1801.1611"
       y="2616.5117"
       id="text4246-3-2-9-6-6-0-5-1-3-9-0"
       sodipodi:linespacing="125%"><tspan
         sodipodi:role="line"
         style="font-size:37.30024719px"
         x="1807.7178"
         y="2616.5117"
         id="tspan4236-9">Aller, </tspan><tspan
         sodipodi:role="line"
         style="font-size:37.30024719px"
         x="1807.7178"
         y="2663.137"
         id="tspan4261">plus vite </tspan><tspan
         sodipodi:role="line"
         style="font-size:37.30024719px"
         x="1807.7178"
         y="2709.7625"
         id="tspan4263">Carrot ! </tspan><tspan
         sodipodi:role="line"
         style="font-size:37.30024719px"
         x="1801.1611"
         y="2756.3877"
         id="tspan4378-7-6-4-5-7-3" /></text>
    <text
       xml:space="preserve"
       style="font-style:normal;font-variant:normal;font-weight:normal;font-stretch:normal;font-size:8.43194294px;line-height:125%;font-family:Lavi;-inkscape-font-specification:Lavi;text-align:center;letter-spacing:0px;word-spacing:0px;text-anchor:middle;fill:#000000;fill-opacity:1;stroke:none"
       x="1333.0126"
       y="3305.2344"
       id="text4246-3-2-9-6-6-0-5-1-3-9-0-3"
       sodipodi:linespacing="125%"
       transform="matrix(0.95684987,-0.26535014,0.03415032,1.0356256,0,0)"><tspan
         sodipodi:role="line"
         style="font-size:31.61978531px"
         x="1333.0126"
         y="3305.2344"
         id="tspan4378-7-6-4-5-7-3-3">Zzzz</tspan></text>
  </g>
</svg>
