<?xml version="1.0" encoding="UTF-8" standalone="no"?>
<!-- Created with Inkscape (http://www.inkscape.org/) -->

<svg
   xmlns:dc="http://purl.org/dc/elements/1.1/"
   xmlns:cc="http://creativecommons.org/ns#"
   xmlns:rdf="http://www.w3.org/1999/02/22-rdf-syntax-ns#"
   xmlns:svg="http://www.w3.org/2000/svg"
   xmlns="http://www.w3.org/2000/svg"
   xmlns:xlink="http://www.w3.org/1999/xlink"
   xmlns:sodipodi="http://sodipodi.sourceforge.net/DTD/sodipodi-0.dtd"
   xmlns:inkscape="http://www.inkscape.org/namespaces/inkscape"
   id="svg2"
   version="1.1"
   inkscape:version="0.91 r13725"
   width="2481"
   height="3503"
   sodipodi:docname="Pepper-and-Carrot_by-David-Revoy_E19P03.svg">
  <metadata
     id="metadata8">
    <rdf:RDF>
      <cc:Work
         rdf:about="">
        <dc:format>image/svg+xml</dc:format>
        <dc:type
           rdf:resource="http://purl.org/dc/dcmitype/StillImage" />
        <dc:title />
      </cc:Work>
    </rdf:RDF>
  </metadata>
  <defs
     id="defs6">
    <filter
       inkscape:collect="always"
       style="color-interpolation-filters:sRGB"
       id="filter4290"
       x="-0.026373399"
       width="1.0527468"
       y="-0.063105628"
       height="1.1262112">
      <feGaussianBlur
         inkscape:collect="always"
         stdDeviation="4.2854759"
         id="feGaussianBlur4292" />
    </filter>
  </defs>
  <sodipodi:namedview
     pagecolor="#ffffff"
     bordercolor="#666666"
     borderopacity="1"
     objecttolerance="10"
     gridtolerance="10"
     guidetolerance="10"
     inkscape:pageopacity="0"
     inkscape:pageshadow="2"
     inkscape:window-width="956"
     inkscape:window-height="1042"
     id="namedview4"
     showgrid="false"
     inkscape:zoom="0.24595019"
     inkscape:cx="1178.0603"
     inkscape:cy="1579.9333"
     inkscape:window-x="956"
     inkscape:window-y="0"
     inkscape:window-maximized="0"
     inkscape:current-layer="layer1" />
  <g
     inkscape:groupmode="layer"
     id="layer2"
     inkscape:label="artwork"
     sodipodi:insensitive="true">
    <image
       sodipodi:absref="/home/rjq/Arts and Craft/Translation P&amp;C/GIT/peppercarrot_ep19_translation/mx/../gfx_Pepper-and-Carrot_by-David-Revoy_E19P03.png"
       xlink:href="../gfx_Pepper-and-Carrot_by-David-Revoy_E19P03.png"
       y="0"
       x="0"
       id="image10"
       height="3503"
       width="2481" />
  </g>
  <g
     inkscape:groupmode="layer"
     id="layer3"
     inkscape:label="speechbubbles">
    <path
       style="color:#000000;display:inline;overflow:visible;visibility:visible;fill:#ffffff;fill-opacity:1;fill-rule:nonzero;stroke:none;stroke-width:1px;marker:none;enable-background:accumulate"
       d="m 1276.2114,1628.3123 c -26.4384,-18.66 -40.7678,-25.6914 -6.0421,-47.6515 -45.5986,6.3825 -17.5969,-8.0997 -6.3362,-17.8361 -50.0752,13.7176 -36.0413,-4.1201 -23.2322,-16.0571 -14.5319,9.0784 -41.7733,17.3639 -17.6181,-5.3983 -10.3691,7.4012 -43.0307,26.0506 -29.7251,-1.267 -10.9839,10.3597 -16.2597,15.4108 -13.7764,2.8149 -7.2872,7.3451 -10.3745,6.4972 -10.2579,-1.6159 -21.5178,18.0156 -8.6197,1.8016 -8.1178,-2.7483 -13.4997,14.6751 -20.4127,9.8194 -16.6375,1.9833 -6.705,7.8119 -26.2344,8.0006 -26.5536,0.058 -7.7618,7.3532 -15.0911,8.2625 -24.9448,-0.6415 -2.9522,3.2715 -5.659,8.844 -9.5086,3.6991 -3.9637,1.7197 -7.9544,6.1963 -11.8575,1.7692 -41.8219,16.892 -60.4817,8.8952 -79.85685,-4.172 4.39901,8.8552 9.81995,22.3867 -36.74229,1.5826 14.96254,22.9684 -1.00373,20.7062 -29.10491,9.8214 17.65434,9.7551 18.51384,15.2046 -22.59373,9.8953 28.60827,8.1488 54.96619,16.272 10.42346,23.5923 10.38371,3.2242 44.49574,-3.6972 6.77798,33.0679 28.471,-7.2971 65.65432,-4.8794 57.78466,23.4942 15.93486,-12.6429 39.56668,-37.5348 42.55048,7.4607 10.719,-26.0498 26.3437,-29.1969 35.5415,-2.1353 2.339,-10.2509 19.3935,-25.8196 42.0026,3.0134 -6.7349,-11.8083 -3.9609,-34.5591 25.4469,0.9227 -1.4068,-5.9846 -14.5521,-44.7036 63.9229,1.3583 -36.0161,-37.7695 8.076,-17.4427 111.6127,38.6808 -126.6259,-80.5368 -67.705,-64.9171 -39.8632,-50.5571 -31.9391,-23.2892 -17.7134,-28.5668 16.7056,-13.1342 z"
       id="path3549"
       inkscape:connector-curvature="0"
       sodipodi:nodetypes="cccccccccccccccccccccccccccccc" />
    <path
       style="color:#000000;display:inline;overflow:visible;visibility:visible;fill:#ffffff;fill-opacity:1;fill-rule:nonzero;stroke:#ffffff;stroke-width:7.81035423;stroke-miterlimit:4;stroke-dasharray:none;stroke-dashoffset:0;stroke-opacity:1;marker:none;enable-background:accumulate"
       d="m 1668.7247,2645.5738 c 4.8038,-47.1862 45.0985,-80.0907 146.5253,-66.7115 54.3295,7.1664 116.0994,13.017 109.6939,82.169 -6.4056,69.1522 -95.2815,63.4573 -113.6974,64.2709 -18.4157,0.8136 -113.7937,-10.6636 -129.7108,-34.9829 -9.9639,-15.2233 -13.6118,-30.1014 -12.811,-44.7455 z"
       id="path4546-6"
       inkscape:connector-curvature="0"
       sodipodi:nodetypes="cssssc" />
    <path
       style="color:#000000;display:inline;overflow:visible;visibility:visible;fill:#ffffff;fill-opacity:1;fill-rule:nonzero;stroke:none;stroke-width:1px;marker:none;enable-background:accumulate"
       d="m 1827.4084,2846.6353 c -38.9829,-24.3744 -35.2819,-89.0806 -37.3787,-128.9314 -2.9638,-56.3326 1.3429,-30.7581 1.3429,-30.7581 l -8.5494,-20.5266 c -7.1172,-2.1741 -33.277,154.0001 44.5852,180.2161 z"
       id="path3072-1"
       inkscape:connector-curvature="0"
       sodipodi:nodetypes="csccc" />
    <path
       style="opacity:0.81800022;fill:#3797aa;fill-opacity:1;stroke:none;filter:url(#filter4290)"
       d="m 757.91682,547.9563 c 10.78775,5.37741 19.14955,14.84596 30.44219,19.31347 26.21575,11.72459 54.23131,20.44572 82.82199,21.46258 10.78006,0.6048 21.21295,-2.34223 30.72486,-7.53313 15.9811,-3.99025 32.62516,-0.14466 48.6511,2.006 21.85331,3.29662 46.23501,7.6202 65.96104,-5.90477 15.7206,-9.41707 25.9773,-25.65792 39.6794,-37.58852 11.2841,-7.55869 25.5178,-8.20778 36.8078,-16.0064 18.802,-10.84366 25.4032,-40.16031 13.3989,-58.77952 -12.5261,-16.64496 -33.8685,-20.78182 -52.6216,-23.96589 -18.5842,-2.02486 -37.1278,-4.43636 -55.69153,-6.57322 -25.0718,-1.39125 -50.20928,-0.10049 -75.17639,2.399 -27.62546,1.09595 -53.76233,-14.92426 -81.54597,-10.02392 -14.88451,0.43368 -29.85614,-0.34389 -44.5288,2.99063 -17.47363,2.31042 -34.44978,9.82459 -46.7547,23.45666 -10.72674,10.01983 -22.34354,20.30342 -26.79001,35.32555 -5.22782,17.81668 15.23603,50.37977 34.62172,59.42148 z"
       id="path3250-3-6-3"
       inkscape:connector-curvature="0"
       sodipodi:nodetypes="ccccccccccccccccc"
       transform="matrix(1,0,0,-1,0,1014.6378)" />
    <path
       style="color:#000000;clip-rule:nonzero;display:inline;overflow:visible;visibility:visible;opacity:0.81800022;isolation:auto;mix-blend-mode:normal;color-interpolation:sRGB;color-interpolation-filters:linearRGB;solid-color:#000000;solid-opacity:1;fill:#3797aa;fill-opacity:1;fill-rule:nonzero;stroke:none;stroke-width:1;stroke-linecap:butt;stroke-linejoin:miter;stroke-miterlimit:4;stroke-dasharray:none;stroke-dashoffset:0;stroke-opacity:1;filter:url(#filter4290);color-rendering:auto;image-rendering:auto;shape-rendering:auto;text-rendering:auto;enable-background:accumulate"
       d="m 1713.1988,426.91206 c 1.4311,23.08058 -31.5228,28.65986 -39.0016,35.27672 -7.4788,6.61681 -34.7137,19.36411 -47.313,23.47432 -12.5993,4.11007 -54.1865,5.71364 -69.508,-3.10449 -15.3214,-8.81856 -56.575,3.0863 -79.4461,-0.85361 -22.8711,-3.93974 -34.2593,-19.51277 -44.4205,-27.12235 -10.1612,-7.60996 -22.8977,-8.44486 -22.9034,-42.18095 -0.01,-33.7362 61.4125,-31.20206 73.9721,-34.01391 12.5596,-2.81194 43.878,-25.27207 62.5183,-22.99886 18.6403,2.27328 50.0961,13.32507 67.6964,15.61629 17.6004,2.29123 12.1966,-2.16778 44.4804,3.75648 14.8354,2.72237 24.7667,10.88933 29.8076,15.99249 5.0408,5.10314 22.6866,13.0773 24.1178,36.15787 z"
       id="path3250-3-67"
       inkscape:connector-curvature="0"
       sodipodi:nodetypes="zssszsssssssz"
       transform="matrix(1.0459311,0,0,0.99738622,-64.625704,1.1032785)" />
    <path
       style="color:#000000;clip-rule:nonzero;display:inline;overflow:visible;visibility:visible;opacity:0.81800022;isolation:auto;mix-blend-mode:normal;color-interpolation:sRGB;color-interpolation-filters:linearRGB;solid-color:#000000;solid-opacity:1;fill:#3797aa;fill-opacity:1;fill-rule:nonzero;stroke:none;stroke-width:0.96210748;stroke-linecap:butt;stroke-linejoin:miter;stroke-miterlimit:4;stroke-dasharray:none;stroke-dashoffset:0;stroke-opacity:1;filter:url(#filter4290);color-rendering:auto;image-rendering:auto;shape-rendering:auto;text-rendering:auto;enable-background:accumulate"
       d="m 1833.2394,820.46626 c -2.5264,-31.97778 36.2035,-38.91224 44.7995,-47.89133 8.596,-8.979 38.1934,-42.72495 52.9295,-48.11249 14.7361,-5.38734 65.9259,10.14118 84.3461,22.71154 18.42,12.57096 72.2946,-14.60357 99.4573,-8.60433 27.1627,5.99903 35.6123,39.50796 47.8923,50.28243 12.28,10.77498 27.3572,12.23477 28.5853,58.92575 1.228,46.69117 -71.4235,41.71658 -86.1597,45.30814 -14.7361,3.59166 -59.5243,25.89015 -81.6284,22.29869 -22.1041,-3.59156 -51.0646,-11.60067 -71.9408,-15.19213 -20.8761,-3.59156 -56.5509,17.58353 -70.059,3.21729 -13.5081,-14.36684 -12.2801,-25.14152 -18.4202,-32.32473 -6.14,-7.18322 -27.2755,-18.64104 -29.8019,-50.61883 z"
       id="path3250-5"
       inkscape:connector-curvature="0"
       sodipodi:nodetypes="zssszsssssssz"
       transform="matrix(0.99418775,0,0,1.0866368,146.26486,70.23615)" />
  </g>
  <g
     inkscape:groupmode="layer"
     id="layer1"
     inkscape:label="txt">
    <text
       xml:space="preserve"
       style="font-style:normal;font-variant:normal;font-weight:normal;font-stretch:normal;font-size:12px;line-height:125%;font-family:Lavi;-inkscape-font-specification:Lavi;text-align:center;letter-spacing:0px;word-spacing:0px;text-anchor:middle;fill:#ffffff;fill-opacity:1;stroke:none"
       x="916.53162"
       y="484.33685"
       id="text4246-3-2-9-6-6-0-5-1"
       sodipodi:linespacing="125%"><tspan
         sodipodi:role="line"
         style="font-size:45px;fill:#ffffff"
         x="916.53162"
         y="484.33685"
         id="tspan4378-7-6-4">enterramos</tspan><tspan
         sodipodi:role="line"
         style="font-size:45px;fill:#ffffff"
         x="916.53162"
         y="540.58685"
         id="tspan3369">nuestros fracasos</tspan></text>
    <text
       xml:space="preserve"
       style="font-style:normal;font-variant:normal;font-weight:normal;font-stretch:normal;font-size:12px;line-height:125%;font-family:Lavi;-inkscape-font-specification:Lavi;text-align:center;letter-spacing:0px;word-spacing:0px;text-anchor:middle;fill:#ffffff;fill-opacity:1;stroke:none"
       x="2151.1821"
       y="955.14771"
       id="text4246-3-2-9-6-6-0-5-1-3"
       sodipodi:linespacing="125%"><tspan
         sodipodi:role="line"
         style="font-size:45px;fill:#ffffff"
         x="2151.1821"
         y="955.14771"
         id="tspan4178">desde tiempos</tspan><tspan
         sodipodi:role="line"
         style="font-size:45px;fill:#ffffff"
         x="2151.1821"
         y="1011.3977"
         id="tspan3373">ancestrales</tspan><tspan
         sodipodi:role="line"
         style="font-size:45px;fill:#ffffff"
         x="2151.1821"
         y="1067.6477"
         id="tspan4378-7-6-4-5" /></text>
    <text
       xml:space="preserve"
       style="font-style:normal;font-variant:normal;font-weight:normal;font-stretch:normal;font-size:12px;line-height:125%;font-family:Lavi;-inkscape-font-specification:Lavi;text-align:center;letter-spacing:0px;word-spacing:0px;text-anchor:middle;fill:#ffffff;fill-opacity:1;stroke:none"
       x="1562.9053"
       y="436.75476"
       id="text4246-3-2-9-6-6-0-5-1-3-3"
       sodipodi:linespacing="125%"><tspan
         sodipodi:role="line"
         style="font-size:45px;fill:#ffffff"
         x="1562.9053"
         y="436.75476"
         id="tspan4178-6">una tradición</tspan><tspan
         sodipodi:role="line"
         style="font-size:45px;fill:#ffffff"
         x="1562.9053"
         y="493.00476"
         id="tspan4378-7-6-4-5-2" /></text>
    <text
       xml:space="preserve"
       style="font-style:normal;font-variant:normal;font-weight:normal;font-stretch:normal;font-size:12px;line-height:125%;font-family:Lavi;-inkscape-font-specification:Lavi;text-align:center;letter-spacing:0px;word-spacing:0px;text-anchor:middle;fill:#000000;fill-opacity:1;stroke:none"
       x="1094.5106"
       y="1601.9884"
       id="text4246-3-2-9-6-6-0-5-1-3-9"
       sodipodi:linespacing="125%"><tspan
         sodipodi:role="line"
         style="font-size:45px"
         x="1102.4208"
         y="1601.9884"
         id="tspan4236">¡ Si, pero... ! </tspan><tspan
         sodipodi:role="line"
         style="font-size:45px"
         x="1094.5106"
         y="1658.2384"
         id="tspan4378-7-6-4-5-7" /></text>
    <text
       xml:space="preserve"
       style="font-style:normal;font-variant:normal;font-weight:normal;font-stretch:normal;font-size:9.94673252px;line-height:125%;font-family:Lavi;-inkscape-font-specification:Lavi;text-align:center;letter-spacing:0px;word-spacing:0px;text-anchor:middle;fill:#000000;fill-opacity:1;stroke:none"
       x="1798.1117"
       y="2615.4954"
       id="text4246-3-2-9-6-6-0-5-1-3-9-0"
       sodipodi:linespacing="125%"><tspan
         sodipodi:role="line"
         style="font-size:37.30024719px"
         x="1798.1117"
         y="2615.4954"
         id="tspan4261">¡ Tenemos</tspan><tspan
         sodipodi:role="line"
         style="font-size:37.30024719px"
         x="1804.6683"
         y="2662.1206"
         id="tspan3385">que apurarnos, </tspan><tspan
         sodipodi:role="line"
         style="font-size:37.30024719px"
         x="1804.6683"
         y="2708.7461"
         id="tspan4263">Carrot ! </tspan><tspan
         sodipodi:role="line"
         style="font-size:37.30024719px"
         x="1798.1117"
         y="2755.3713"
         id="tspan4378-7-6-4-5-7-3" /></text>
    <text
       xml:space="preserve"
       style="font-style:normal;font-variant:normal;font-weight:normal;font-stretch:normal;font-size:8.43194294px;line-height:125%;font-family:Lavi;-inkscape-font-specification:Lavi;text-align:center;letter-spacing:0px;word-spacing:0px;text-anchor:middle;fill:#000000;fill-opacity:1;stroke:none"
       x="1302.8546"
       y="3313.1096"
       id="text4246-3-2-9-6-6-0-5-1-3-9-0-3"
       sodipodi:linespacing="125%"
       transform="matrix(0.95684986,-0.26535014,0.03415032,1.0356256,0,0)"><tspan
         sodipodi:role="line"
         style="font-size:31.61978531px"
         x="1302.8546"
         y="3313.1096"
         id="tspan4378-7-6-4-5-7-3-3">Zzzz</tspan></text>
    <flowRoot
       xml:space="preserve"
       id="flowRoot3375"
       style="fill:black;stroke:none;stroke-opacity:1;stroke-width:1px;stroke-linejoin:miter;stroke-linecap:butt;fill-opacity:1;font-family:'Noto Sans';font-style:normal;font-weight:normal;font-size:11px;line-height:125%;letter-spacing:0px;word-spacing:0px;-inkscape-font-specification:'Noto Sans, Normal';font-stretch:normal;font-variant:normal;text-anchor:start;text-align:start;writing-mode:lr"><flowRegion
         id="flowRegion3377"><rect
           id="rect3379"
           width="97.580734"
           height="39.642174"
           x="1755.4368"
           y="2605.4604" /></flowRegion><flowPara
         id="flowPara3381" /></flowRoot>  </g>
</svg>
