<?xml version="1.0" encoding="UTF-8" standalone="no"?>
<!-- Created with Inkscape (http://www.inkscape.org/) -->

<svg
   xmlns:dc="http://purl.org/dc/elements/1.1/"
   xmlns:cc="http://creativecommons.org/ns#"
   xmlns:rdf="http://www.w3.org/1999/02/22-rdf-syntax-ns#"
   xmlns:svg="http://www.w3.org/2000/svg"
   xmlns="http://www.w3.org/2000/svg"
   xmlns:xlink="http://www.w3.org/1999/xlink"
   xmlns:sodipodi="http://sodipodi.sourceforge.net/DTD/sodipodi-0.dtd"
   xmlns:inkscape="http://www.inkscape.org/namespaces/inkscape"
   id="svg2"
   version="1.1"
   inkscape:version="0.91 r"
   width="2481"
   height="3503"
   sodipodi:docname="Pepper-and-Carrot_by-David-Revoy_E19P06.svg">
  <metadata
     id="metadata8">
    <rdf:RDF>
      <cc:Work
         rdf:about="">
        <dc:format>image/svg+xml</dc:format>
        <dc:type
           rdf:resource="http://purl.org/dc/dcmitype/StillImage" />
        <dc:title />
      </cc:Work>
    </rdf:RDF>
  </metadata>
  <defs
     id="defs6" />
  <sodipodi:namedview
     pagecolor="#ffffff"
     bordercolor="#666666"
     borderopacity="1"
     objecttolerance="10"
     gridtolerance="10"
     guidetolerance="10"
     inkscape:pageopacity="0"
     inkscape:pageshadow="2"
     inkscape:window-width="1920"
     inkscape:window-height="1025"
     id="namedview4"
     showgrid="false"
     inkscape:zoom="0.42482639"
     inkscape:cx="1576.7544"
     inkscape:cy="2557.7988"
     inkscape:window-x="1600"
     inkscape:window-y="30"
     inkscape:window-maximized="1"
     inkscape:current-layer="layer1" />
  <g
     inkscape:groupmode="layer"
     id="layer2"
     inkscape:label="artwork"
     sodipodi:insensitive="true">
    <image
       sodipodi:absref="/home/nightmare/Projects/peppercarrot/peppercarrot_ep19_translation/ru/../gfx_Pepper-and-Carrot_by-David-Revoy_E19P06.png"
       xlink:href="../gfx_Pepper-and-Carrot_by-David-Revoy_E19P06.png"
       y="0"
       x="0"
       id="image10"
       height="3503"
       width="2481" />
  </g>
  <g
     inkscape:groupmode="layer"
     id="layer3"
     inkscape:label="speechbubbles">
    <path
       style="fill:#ffffff;stroke:none"
       d="m 481.27782,827.21649 -20.91977,12.96296 c -46.25534,-5.04051 -174.08164,-11.95044 -239.31966,-8.33486 l -26.58596,8.87047 -14.3811,-16.37609 -6.53867,20.46857 -13.07337,-14.32781 -13.86853,13.09594 -15.68884,-9.55187 5.66618,20.46858 -8.71689,12.28155 -17.43381,-8.87047 9.58938,36.84469 c 10e-6,0 -5.34057,4.02908 -11.44219,4.02908 15.30764,29.67904 17.33499,183.27037 12.23291,235.96537 l -12.24637,9.2307 12.23846,11.6405 4.88075,4.3195 -20.5142,14.6211 15.36438,-0.9725 -11.94172,16.2584 12.6401,9.554 -0.87248,12.2794 -1.74299,7.5077 10.10773,8.185 -17.42731,18.0219 24.46256,-5.0239 0.72608,0.6504 c 0,0 -16.54338,24.7562 -21.08602,34.0563 13.30441,-5.6458 34.16106,-14.2702 35.90435,-14.9526 0.13984,-0.054 0.48458,-0.023 0.91601,0.043 l -10.94262,19.1594 26.39207,-14.8563 c 1.80177,0.5199 3.61718,1.0355 5.39712,1.5113 l -5.05808,17.3048 28.27479,-13.9412 c 9.08248,1.6416 20.3198,4.6407 23.00899,5.1084 3.92244,0.6824 24.84253,-6.8232 29.63667,-6.1408 4.79414,0.6822 48.81223,8.187 52.73467,8.187 3.92245,0 27.89271,-2.7287 33.12265,-3.411 5.22992,-0.6822 32.68697,3.411 37.4811,3.411 4.79404,0 13.07556,-6.8233 17.43379,-7.5056 4.35836,-0.6823 16.56119,4.0949 19.61204,5.4594 3.05077,1.3648 24.842,3.4111 30.07193,3.4111 5.22993,0 42.7511,-7.1472 52.29943,-4.0946 6.93673,2.2176 70.15596,0.1985 104.11414,-2.1866 l -3.57104,16.1614 22.02571,-17.9124 c 1.81226,-0.2909 2.86501,-0.5727 2.94982,-0.8383 0,0 6.97308,12.965 9.15215,12.965 2.17916,0 5.66644,-10.9189 6.97392,-12.2835 1.30749,-1.3647 10.46083,6.1417 12.6401,5.4593 2.17917,-0.6823 3.05072,-14.3279 3.05072,-14.3279 l 2.17823,-6.8241 c 0,0 6.10193,-2.0465 8.71691,-4.776 2.61495,-2.7292 -0.43653,-14.3286 -3.92321,-19.7871 3.05087,-2.7293 10.46013,-7.5043 11.76763,-10.2334 1.30756,-2.7295 -3.05072,-11.6001 -3.05072,-11.6001 0,0 2.61563,-4.7754 3.9232,-8.1869 1.30749,-3.4119 -8.16063,-14.7973 -8.16063,-14.7973 0,0 8.16008,-11.1314 8.59588,-15.2253 0.38519,-3.6187 -1.95584,-7.2323 -5.81457,-8.0239 l 12.1178,-7.1525 -13.70844,-2.42 c -1.05752,-38.1375 -1.76711,-165.2013 5.86008,-197.54262 l 16.46042,-13.38625 -16.04694,-6.28739 c -1.11733,-1.57248 -2.3318,-3.18966 -3.59676,-4.79657 l 16.04353,-18.47971 -23.50556,-9.21116 0,-12.18245 -8.7169,-6.82218 c 0,0 0.37656,-1.78973 0.74982,-4.37123 l 9.05917,-17.68312 -35.24603,14.45535 0.0752,0.33657 c -10.36608,-1.78366 -18.74945,-6.5558 -18.74945,-6.5558 l 4.7937,-30.70391 -32.25213,15.01126 -2.17824,-12.96296 -13.5106,12.28157 -4.35846,-19.78719 -13.5106,15.01125 -11.33237,-7.79742 -2.54913,2.41196 -10.45989,-8.87048 -10.45988,8.18702 -20.83867,4.29037 -6.10144,-19.10373 z"
       id="path3894"
       inkscape:connector-curvature="0"
       sodipodi:nodetypes="ccccccccccccccccccccccccccccccccccccccscsscssccccscccccccccccccccccccccccccccccccccccccccc" />
    <path
       style="color:#000000;display:inline;overflow:visible;visibility:visible;fill:#ffffff;fill-opacity:1;fill-rule:nonzero;stroke:none;stroke-width:1px;marker:none;enable-background:accumulate"
       d="m 535.70109,762.59499 c 38.34876,34.92863 35.4166,55.61846 35.05492,70.73951 -5.21085,0.99543 -14.03945,4.31409 -14.03945,4.31409 0,0 2.34858,29.8366 -0.92638,41.34315 -3.27496,11.50653 -19.13613,8.37057 -19.13613,8.37057 0,0 -6.17597,-57.93992 -11.57097,-70.14779 14.42663,-2.21185 21.11631,-4.94055 26.71433,-3.83376 3.38923,-8.44544 -2.96428,-38.06103 -16.09632,-50.78577 z"
       id="path4456"
       inkscape:connector-curvature="0" />
    <path
       style="color:#000000;display:inline;overflow:visible;visibility:visible;fill:#ffffff;fill-opacity:1;fill-rule:nonzero;stroke:none;stroke-width:1px;marker:none;enable-background:accumulate"
       d="m 782.81669,170.4513 -40.2,-14.4857 22.33662,43.1826 -37.7925,-15.59213 29.62312,43.18563 -37.33944,-2.37969 25.7385,31.03324 -21.22949,6.16968 21.62976,26.91083 -22.33486,8.04774 20.09075,28.39761 -22.16593,19.67094 13.22109,18.76891 -16.03279,16.50418 14.53784,11.07509 -12.78231,25.29958 17.26727,4.48582 -17.94553,26.02461 27.80199,-8.25588 -8.73165,29.93945 32.43886,-17.1664 -14.08971,37.28917 28.43761,-0.34352 -39.32137,84.34754 61.70439,-52.02452 4.69958,44.60217 30.56944,-39.18252 0.7747,27.33209 27.00855,-34.48494 -0.57997,34.19236 29.84036,-40.27109 0.0734,127.90182 50.44473,-109.03143 8.95524,45.03406 8.18962,-42.05768 8.77262,18.48756 8.50759,-23.24516 8.24425,36.68388 15.08779,-42.30565 59.3997,61.96957 -10.3828,-74.35262 49.2997,10.09267 -16.5309,-36.48564 71.0319,19.40909 -33.4621,-33.63496 60.3347,18.19599 -67.4967,-59.9351 62.0702,15.57238 -46.0407,-47.77556 42.8626,-4.06925 -39.4536,-32.92053 70.4661,-5.37473 -64.3311,-27.41869 57.7689,-14.20615 -43.5442,-28.69708 50.2645,-23.73661 -53.784,-18.34698 39.605,-61.13892 -55.3143,15.44447 6.3706,-41.7903 -51.7449,31.28307 24.2431,-74.58043 -65.8828,66.06949 3.2897,-21.16581 -23.3736,17.39263 14.4089,-47.81134 -44.102,45.2297 4.485,-20.9601 -13.45482,19.85704 2.98986,-27.57928 -23.17212,33.09507 2.13339,-28.83564 -14.15808,15.55426 -0.36435,-14.76521 -13.02568,11.49906 -17.55909,-50.11731 -26.19792,51.68476 -12.87986,-22.23072 -14.90955,21.29161 -10.35586,-25.04386 -15.59171,29.92649 -25.36537,-40.5666 1.65841,40.25227 -61.18697,-43.60513 z"
       id="path4024"
       inkscape:connector-curvature="0"
       sodipodi:nodetypes="ccccccccccccccccccccccccccccccccccccccccccccccccccccccccccccccccccccccccccccccccccccc" />
    <path
       style="color:#000000;display:inline;overflow:visible;visibility:visible;fill:#ffffff;fill-opacity:1;fill-rule:nonzero;stroke:none;stroke-width:1px;marker:none;enable-background:accumulate"
       d="m 981.87504,489.07837 c 15.79816,16.30726 34.68336,141.58053 227.57366,231.14516 -154.1725,-93.5024 -173.4435,-224.61445 -180.0947,-249.55706 -53.90514,-8.39388 -24.7768,9.78373 -47.47896,18.4119 z"
       id="path4024-3"
       inkscape:connector-curvature="0"
       sodipodi:nodetypes="cccc" />
    <path
       style="color:#000000;display:inline;overflow:visible;visibility:visible;fill:#ffffff;fill-opacity:1;fill-rule:nonzero;stroke:none;stroke-width:1px;marker:none;enable-background:accumulate"
       d="m 1165.7536,858.24078 c 28.961,44.03488 26.3945,130.36717 18.3117,150.34892 -8.0828,19.9817 -19.1821,49.9462 -58.1326,50.2525 -38.9506,0.3064 -309.43062,23.4584 -349.6799,-22.7008 -40.24929,-46.15927 -39.70015,-126.94282 -5.16902,-181.43608 34.53113,-54.49326 221.14913,-44.89527 221.14913,-44.89527 0,0 129.11259,-7.65482 173.52069,48.43073 z"
       id="path3992"
       inkscape:connector-curvature="0" />
    <path
       style="display:inline;fill:#ffffff;fill-rule:evenodd;stroke:none;stroke-width:1px;stroke-linecap:butt;stroke-linejoin:miter;stroke-opacity:1"
       d="m 683.72993,895.94296 c 78.03214,79.10171 108.17785,4.26597 107.03177,-71.60288 31.85406,81.98553 53.95933,100.32181 67.06917,59.92701 42.17264,34.72101 68.51303,24.9815 89.42552,0 7.79461,32.12796 24.51022,19.16327 38.9767,17.56733 4.76475,7.26877 -11.59997,25.32745 54.51351,1.26697 4.2825,9.62086 10.0515,17.90608 48.7775,-3.42443 10.0327,39.05013 42.2222,-2.16428 75.1988,-46.22947 -20.5453,54.17443 -21.7666,56.58617 4.4862,35.85266 -3.9561,9.20931 -10.398,27.64096 16.1468,7.67724 -15.612,41.17871 37.2112,-12.02555 103.3232,-71.16873 -33.0702,43.7182 -110.0742,146.85662 -52.3137,140.74746 -8.0551,12.88829 -35.093,28.04763 46.2365,39.27718 -15.9737,8.7458 -64.7411,-4.0343 -24.0603,32.9953 5.4504,4.3285 -12.7962,6.9717 22.028,18.3708 -20.5571,-0.7755 -33.1643,1.9949 -14.2269,18.8342 -37.5242,-0.9105 -23.4843,16.7962 4.0648,39.3806 -54.3403,-28.9693 -57.3309,-18.4407 -58.9395,-6.8488 -68.1046,-39.4949 -72.1024,-27.0602 -81.2958,-18.8343 -33.1959,0.3082 -66.3917,-4.6654 -99.5876,39.3807 -8.6936,-27.3955 -26.1231,-48.4829 -99.58739,-29.1074 32.25641,-34.8519 -13.63262,-12.6475 -48.7775,1.7121 19.24604,-43.5386 -29.59794,-14.9643 -91.45801,27.3953 34.6414,-48.0788 -37.55193,-51.9638 -95.85322,-17.8276 40.70675,-37.2706 52.62622,-46.8418 -33.11453,-48.6794 41.03817,-17.0374 31.34523,-40.4596 -11.2676,-79.03009 48.03681,11.35726 62.36552,0.80785 28.45351,-41.09282 52.39536,34.39172 25.19358,-0.39162 4.75007,-46.53893 z"
       id="path4508"
       inkscape:connector-curvature="0"
       sodipodi:nodetypes="cccccccccccccccccccccccccccc" />
    <path
       style="color:#000000;display:inline;overflow:visible;visibility:visible;fill:#ffffff;fill-opacity:1;fill-rule:nonzero;stroke:none;stroke-width:1px;marker:none;enable-background:accumulate"
       d="m 746.01387,1117.0915 c 8.5704,-69.6682 80.45496,-118.25012 261.39783,-98.4965 96.9228,10.5811 213.7337,-4.3507 202.3066,116.0349 -9.7135,102.3308 -177.9183,85.3881 -210.77158,86.5893 -32.85337,1.2013 -201.02082,3.8825 -229.41678,-32.0238 -17.77523,-22.4764 -24.94446,-50.4826 -23.51607,-72.1039 z"
       id="path4546-6-3"
       inkscape:connector-curvature="0"
       sodipodi:nodetypes="cssssc" />
    <path
       style="color:#000000;fill:#ffffff;fill-opacity:1;fill-rule:nonzero;stroke:none;stroke-width:1px;marker:none;visibility:visible;display:inline;overflow:visible;enable-background:accumulate"
       d="m 139.92716,1488.4784 c 38.50476,-47.6958 252.02205,-40.4013 318.43462,-28.1166 72.47738,13.4065 94.79201,32.4028 98.03297,74.0366 1.00107,12.8598 -4.86144,71.1761 -40.51247,82.6562 -35.65088,11.48 -137.74206,17.22 -173.39309,17.22 -35.65087,0 -149.45648,-7.307 -178.25484,-24.108 -27.54847,-16.0721 -62.81212,-73.9926 -24.30719,-121.6882 z"
       id="path3330"
       inkscape:connector-curvature="0"
       sodipodi:nodetypes="zsssssz" />
    <path
       style="color:#000000;display:inline;overflow:visible;visibility:visible;fill:#ffffff;fill-opacity:1;fill-rule:nonzero;stroke:none;stroke-width:1px;marker:none;enable-background:accumulate"
       d="m 263.40944,1681.7042 c -1.0255,-31.9876 4.20391,-53.2 27.68913,-70.1947 21.38006,-15.4713 68.45951,-19.7467 99.87382,-19.7467 50.77687,-0.2183 181.11822,-5.9757 165.73774,93.958 -0.60747,47.3987 -76.34966,49.4653 -91.73259,53.3038 -15.38294,3.8385 -76.87827,4.6849 -91.23569,3.4055 -52.78158,2.3259 -108.49918,-21.7416 -110.33241,-60.7259 z"
       id="path3357"
       inkscape:connector-curvature="0"
       sodipodi:nodetypes="csccscc" />
    <path
       style="color:#000000;display:inline;overflow:visible;visibility:visible;fill:#ffffff;fill-opacity:1;fill-rule:nonzero;stroke:none;stroke-width:1px;marker:none;enable-background:accumulate"
       d="m 453.45684,1711.8886 c -0.37144,57.0275 25.35707,95.1396 67.76656,103.3368 -67.9487,-0.4363 -102.57173,-72.2713 -100.82948,-96.6104 1.70602,-23.8329 33.06292,-6.7264 33.06292,-6.7264 z"
       id="path5010"
       inkscape:connector-curvature="0"
       sodipodi:nodetypes="ccsc" />
    <path
       style="color:#000000;display:inline;overflow:visible;visibility:visible;fill:#ffffff;fill-opacity:1;fill-rule:nonzero;stroke:none;stroke-width:1px;marker:none;enable-background:accumulate"
       d="m 232.60887,2112.7468 c 28.82884,-21.6901 278.41375,-34.8028 344.5222,0.8436 55.17978,29.7537 33.65046,103.8509 -15.42321,120.9177 -49.0735,17.0669 -212.3232,15.086 -283.87185,7.3484 -68.12416,-7.3674 -79.56334,-29.6049 -82.91431,-74.38 -1.36765,-18.2745 8.85821,-33.0393 37.68717,-54.7297 z"
       id="path4040-4"
       inkscape:connector-curvature="0"
       sodipodi:nodetypes="zssssz" />
    <path
       style="color:#000000;display:inline;overflow:visible;visibility:visible;fill:#ffffff;fill-opacity:1;fill-rule:nonzero;stroke:none;stroke-width:1px;marker:none;enable-background:accumulate"
       d="m 535.00775,1986.8306 c -11.22357,-11.0259 -34.07155,-13.8129 -52.41966,-13.1663 -5.21231,0.2939 -10.58546,0.9606 -15.40703,2.9669 -4.5497,3.204 -5.8508,9.2452 -4.71647,14.4517 1.1116,7.6336 5.4512,15.1923 3.33691,23.0221 -1.67716,5.6622 -7.62933,7.7967 -12.46033,10.0265 -12.42532,5.4417 -25.66044,9.2324 -37.15366,16.6288 -13.48154,7.4861 -27.12386,16.3412 -35.233,29.8576 -3.11895,5.4019 -5.62626,11.4889 -5.13528,17.8477 0.51982,16.3695 10.44001,32.6806 25.75127,39.1373 10.15783,3.1917 22.85144,-2.6898 25.43476,-13.369 1.44801,-5.6168 -1.12924,-11.3042 -4.7776,-15.4765 -5.27333,-8.9228 -5.03206,-20.3779 -0.31332,-29.473 3.77147,-7.5698 9.88065,-13.877 17.08927,-18.2489 8.233,-8.5339 20.53978,-9.9068 31.26386,-13.4482 4.87531,-1.6909 9.9467,-3.8199 13.48797,-7.6632 3.74598,-6.6816 1.05856,-14.5289 -1.98107,-20.9052 -2.96548,-6.6569 -7.15746,-14.0436 -4.63677,-21.5174 1.0509,-5.4219 7.54846,-5.1616 11.76803,-6.5249 14.15942,-2.6164 28.95507,-0.7769 42.45081,4.0015 1.25162,0.5512 2.45101,1.1992 3.65131,1.8525 z"
       id="path4496"
       inkscape:connector-curvature="0"
       sodipodi:nodetypes="ccccccccccccccccccccc" />
    <path
       style="color:#000000;display:inline;overflow:visible;visibility:visible;fill:#ffffff;fill-opacity:1;fill-rule:nonzero;stroke:none;stroke-width:1px;marker:none;enable-background:accumulate"
       d="m 367.07619,2507.8934 c 6.85654,-80.6748 70.95785,-138.2729 234.05684,-119.1294 87.36463,10.2543 186.65142,17.993 177.62272,136.2002 -9.02882,118.207 -151.83609,111.7175 -181.39064,113.7739 -29.55454,2.0564 -182.90677,-14.062 -208.90606,-54.9733 -16.27496,-25.6093 -22.40244,-50.8595 -21.38286,-75.8714 z"
       id="path4546-6"
       inkscape:connector-curvature="0"
       sodipodi:nodetypes="cssssc" />
    <path
       style="fill:#ffffff;stroke:none"
       d="m 694.38649,2534.9643 c 31.16173,50.5895 56.21292,58.6934 72.83219,79.5631 16.61925,20.8701 -4.22375,65.3135 0.2296,80.4242 5.36252,14.254 23.11118,27.2288 57.37772,44.4988 -73.16324,-15.6884 -73.36945,-34.9149 -78.29883,-48.1564 -6.77646,-18.203 5.60657,-39.7648 -12.3168,-56.2686 -17.36077,-15.9861 -80.58056,-61.1983 -92.85364,-95.1241 -12.2733,-33.9259 -18.60006,-35.9967 -18.60006,-35.9967 z"
       id="path3282"
       inkscape:connector-curvature="0"
       sodipodi:nodetypes="csccssscc" />
  </g>
  <g
     inkscape:groupmode="layer"
     id="layer1"
     inkscape:label="txt">
    <text
       xml:space="preserve"
       style="font-style:normal;font-variant:normal;font-weight:normal;font-stretch:normal;font-size:11.0573225px;line-height:125%;font-family:Lavi;-inkscape-font-specification:Lavi;text-align:center;letter-spacing:0px;word-spacing:0px;text-anchor:middle;fill:#000000;fill-opacity:1;stroke:none"
       x="386.09131"
       y="934.58612"
       id="text4246"
       sodipodi:linespacing="125%"><tspan
         sodipodi:role="line"
         style="font-style:normal;font-variant:normal;font-weight:normal;font-stretch:normal;font-size:55.28661346px;font-family:Neucha;-inkscape-font-specification:Neucha"
         x="386.09131"
         y="934.58612"
         id="tspan4150">Но как же <tspan
   style="font-style:normal;font-variant:normal;font-weight:normal;font-stretch:normal;font-family:Neucha;-inkscape-font-specification:Neucha;stroke:#000000;stroke-width:1.79999995;stroke-miterlimit:4;stroke-dasharray:none;stroke-opacity:1"
   id="tspan4183">окружающая</tspan></tspan><tspan
         sodipodi:role="line"
         style="font-style:normal;font-variant:normal;font-weight:normal;font-stretch:normal;font-size:55.28661346px;font-family:Neucha;-inkscape-font-specification:Neucha"
         x="386.09131"
         y="1003.6944"
         id="tspan4176"><tspan
   style="font-style:normal;font-variant:normal;font-weight:normal;font-stretch:normal;font-family:Neucha;-inkscape-font-specification:Neucha;stroke:#000000;stroke-width:1.79999995;stroke-miterlimit:4;stroke-dasharray:none;stroke-opacity:1"
   id="tspan3390">среда? Природа</tspan>!</tspan></text>
    <text
       xml:space="preserve"
       style="font-style:normal;font-variant:normal;font-weight:normal;font-stretch:normal;font-size:12px;line-height:125%;font-family:Lavi;-inkscape-font-specification:Lavi;text-align:center;letter-spacing:0px;word-spacing:0px;text-anchor:middle;fill:#000000;fill-opacity:1;stroke:none"
       x="393.99847"
       y="1068.822"
       id="text4246-70"
       sodipodi:linespacing="125%"><tspan
         sodipodi:role="line"
         style="font-size:45px;-inkscape-font-specification:Neucha;font-family:Neucha;font-weight:normal;font-style:normal;font-stretch:normal;font-variant:normal"
         x="393.99847"
         y="1068.822"
         id="tspan3634">Нельзя вот так просто</tspan><tspan
         sodipodi:role="line"
         style="font-size:45px;-inkscape-font-specification:Neucha;font-family:Neucha;font-weight:normal;font-style:normal;font-stretch:normal;font-variant:normal"
         x="393.99847"
         y="1125.072"
         id="tspan3398">продолжать загрязнение,</tspan><tspan
         sodipodi:role="line"
         style="font-size:45px;-inkscape-font-specification:Neucha;font-family:Neucha;font-weight:normal;font-style:normal;font-stretch:normal;font-variant:normal"
         x="393.99847"
         y="1184.6055"
         id="tspan3400">не страдая от серьезных</tspan><tspan
         sodipodi:role="line"
         style="font-size:45px;-inkscape-font-specification:Neucha;font-family:Neucha;font-weight:normal;font-style:normal;font-stretch:normal;font-variant:normal"
         x="401.90863"
         y="1240.8555"
         id="tspan3630">последствий!!! </tspan></text>
    <text
       xml:space="preserve"
       style="font-style:normal;font-variant:normal;font-weight:normal;font-stretch:normal;font-size:11.69629097px;line-height:125%;font-family:Lavi;-inkscape-font-specification:Lavi;text-align:center;letter-spacing:0px;word-spacing:0px;text-anchor:middle;fill:#000000;fill-opacity:1;stroke:none"
       x="972.51471"
       y="242.65163"
       id="text4246-7"
       sodipodi:linespacing="125%"
       transform="scale(0.97469088,1.0259663)"><tspan
         sodipodi:role="line"
         style="font-size:58.48145294px;stroke:#000000;stroke-width:1.89999998;stroke-miterlimit:4;stroke-dasharray:none;stroke-opacity:1;-inkscape-font-specification:Neucha;font-family:Neucha;font-weight:normal;font-style:normal;font-stretch:normal;font-variant:normal"
         x="972.51471"
         y="242.65163"
         id="tspan3649">До сих пор</tspan><tspan
         sodipodi:role="line"
         style="font-size:58.48145294px;stroke:#000000;stroke-width:1.89999998;stroke-miterlimit:4;stroke-dasharray:none;stroke-opacity:1;-inkscape-font-specification:Neucha;font-family:Neucha;font-weight:normal;font-style:normal;font-stretch:normal;font-variant:normal"
         x="972.51471"
         y="315.75345"
         id="tspan3418">никаких</tspan><tspan
         sodipodi:role="line"
         style="font-size:58.48145294px;stroke:#000000;stroke-width:1.89999998;stroke-miterlimit:4;stroke-dasharray:none;stroke-opacity:1;-inkscape-font-specification:Neucha;font-family:Neucha;font-weight:normal;font-style:normal;font-stretch:normal;font-variant:normal"
         x="972.51471"
         y="388.85526"
         id="tspan3420">проблем</tspan><tspan
         sodipodi:role="line"
         style="font-size:58.48145294px;stroke:#000000;stroke-width:1.89999998;stroke-miterlimit:4;stroke-dasharray:none;stroke-opacity:1;-inkscape-font-specification:Neucha;font-family:Neucha;font-weight:normal;font-style:normal;font-stretch:normal;font-variant:normal"
         x="972.51471"
         y="461.95706"
         id="tspan3422">не было!</tspan></text>
    <text
       xml:space="preserve"
       style="font-style:normal;font-variant:normal;font-weight:normal;font-stretch:normal;font-size:12px;line-height:125%;font-family:Lavi;-inkscape-font-specification:Lavi;text-align:center;letter-spacing:0px;word-spacing:0px;text-anchor:middle;fill:#000000;fill-opacity:1;stroke:none"
       x="969.58252"
       y="880.27979"
       id="text4246-70-2"
       sodipodi:linespacing="125%"><tspan
         sodipodi:role="line"
         style="font-style:normal;font-variant:normal;font-weight:normal;font-stretch:normal;font-size:45px;font-family:Neucha;-inkscape-font-specification:Neucha"
         x="969.58252"
         y="880.27979"
         id="tspan3653">Мы - ведьмы</tspan><tspan
         sodipodi:role="line"
         style="font-style:normal;font-variant:normal;font-weight:normal;font-stretch:normal;font-size:45px;font-family:Neucha;-inkscape-font-specification:Neucha"
         x="969.58252"
         y="936.52979"
         id="tspan3657">Хаоса! И мы</tspan></text>
    <text
       xml:space="preserve"
       style="font-style:normal;font-variant:normal;font-weight:normal;font-stretch:normal;font-size:11.69629097px;line-height:125%;font-family:Lavi;-inkscape-font-specification:Lavi;text-align:center;letter-spacing:0px;word-spacing:0px;text-anchor:middle;fill:#000000;fill-opacity:1;stroke:none"
       x="993.07196"
       y="977.28125"
       id="text4246-7-9"
       sodipodi:linespacing="125%"
       transform="scale(0.97469088,1.0259663)"><tspan
         sodipodi:role="line"
         style="font-style:normal;font-variant:normal;font-weight:normal;font-stretch:normal;font-size:58.48145294px;font-family:Neucha;-inkscape-font-specification:Neucha;stroke:#000000;stroke-width:2.24178886;stroke-miterlimit:4;stroke-dasharray:none;stroke-opacity:1"
         x="993.07196"
         y="977.28125"
         id="tspan4221-2">глубоко</tspan></text>
    <text
       xml:space="preserve"
       style="font-style:normal;font-variant:normal;font-weight:normal;font-stretch:normal;font-size:12px;line-height:125%;font-family:Lavi;-inkscape-font-specification:Lavi;text-align:center;letter-spacing:0px;word-spacing:0px;text-anchor:middle;fill:#000000;fill-opacity:1;stroke:none"
       x="975.66687"
       y="1061.6351"
       id="text4246-70-2-8"
       sodipodi:linespacing="125%"><tspan
         sodipodi:role="line"
         style="font-style:normal;font-variant:normal;font-weight:normal;font-stretch:normal;font-size:45px;font-family:Neucha;-inkscape-font-specification:Neucha"
         x="975.66687"
         y="1061.6351"
         id="tspan3430">закапываем наши ошибки!</tspan><tspan
         sodipodi:role="line"
         style="font-style:normal;font-variant:normal;font-weight:normal;font-stretch:normal;font-size:45px;font-family:Neucha;-inkscape-font-specification:Neucha"
         x="975.66687"
         y="1117.8851"
         id="tspan3661">Мы не будем</tspan><tspan
         sodipodi:role="line"
         style="font-style:normal;font-variant:normal;font-weight:normal;font-stretch:normal;font-size:45px;font-family:Neucha;-inkscape-font-specification:Neucha"
         x="975.66687"
         y="1174.1351"
         id="tspan3438">оспаривать традиции!</tspan></text>
    <text
       xml:space="preserve"
       style="font-style:normal;font-variant:normal;font-weight:normal;font-stretch:normal;font-size:12px;line-height:125%;font-family:Lavi;-inkscape-font-specification:Lavi;text-align:center;letter-spacing:0px;word-spacing:0px;text-anchor:middle;fill:#000000;fill-opacity:1;stroke:none"
       x="338.31299"
       y="1517.3076"
       id="text4246-70-2-2"
       sodipodi:linespacing="125%"><tspan
         sodipodi:role="line"
         style="font-size:50px;-inkscape-font-specification:Neucha;font-family:Neucha;font-weight:normal;font-style:normal;font-stretch:normal;font-variant:normal"
         x="338.31299"
         y="1517.3076"
         id="tspan3668">О, гляньте, что</tspan><tspan
         sodipodi:role="line"
         style="font-size:50px;-inkscape-font-specification:Neucha;font-family:Neucha;font-weight:normal;font-style:normal;font-stretch:normal;font-variant:normal"
         x="338.31299"
         y="1576.8411"
         id="tspan3444">я нашла!</tspan></text>
    <text
       xml:space="preserve"
       style="font-style:normal;font-variant:normal;font-weight:normal;font-stretch:normal;font-size:47.5px;line-height:125%;font-family:Lavi;-inkscape-font-specification:Lavi;text-align:center;letter-spacing:0px;word-spacing:0px;text-anchor:middle;fill:#000000;fill-opacity:1;stroke:none;"
       x="407.20337"
       y="1650.1035"
       id="text4246-70-2-2-2"
       sodipodi:linespacing="125%"><tspan
         sodipodi:role="line"
         style="font-size:47.5px;-inkscape-font-specification:Neucha;font-family:Neucha;font-weight:normal;font-style:normal;font-stretch:normal;font-variant:normal;"
         x="407.20337"
         y="1650.1035"
         id="tspan3670">Поверить</tspan><tspan
         sodipodi:role="line"
         style="font-size:47.5px;-inkscape-font-specification:Neucha;font-family:Neucha;font-weight:normal;font-style:normal;font-stretch:normal;font-variant:normal;"
         x="407.20337"
         y="1706.3535"
         id="tspan3448">не могу!</tspan></text>
    <text
       xml:space="preserve"
       style="font-style:normal;font-variant:normal;font-weight:normal;font-stretch:normal;font-size:12px;line-height:125%;font-family:Lavi;-inkscape-font-specification:Lavi;text-align:center;letter-spacing:0px;word-spacing:0px;text-anchor:middle;fill:#000000;fill-opacity:1;stroke:none"
       x="400.75806"
       y="2158.8105"
       id="text4246-70-2-2-2-7"
       sodipodi:linespacing="125%"><tspan
         sodipodi:role="line"
         style="font-size:50px;-inkscape-font-specification:Neucha;font-family:Neucha;font-weight:normal;font-style:normal;font-stretch:normal;font-variant:normal"
         x="400.75806"
         y="2158.8105"
         id="tspan3674">Как она сюда</tspan><tspan
         sodipodi:role="line"
         style="font-size:50px;-inkscape-font-specification:Neucha;font-family:Neucha;font-weight:normal;font-style:normal;font-stretch:normal;font-variant:normal"
         x="400.75806"
         y="2215.0605"
         id="tspan3452">попала?</tspan></text>
    <text
       xml:space="preserve"
       style="font-style:normal;font-variant:normal;font-weight:normal;font-stretch:normal;font-size:12px;line-height:125%;font-family:Lavi;-inkscape-font-specification:Lavi;text-align:center;letter-spacing:0px;word-spacing:0px;text-anchor:middle;fill:#000000;fill-opacity:1;stroke:none"
       x="570.69611"
       y="2462.5771"
       id="text4246-70-2-2-2-7-6"
       sodipodi:linespacing="125%"><tspan
         sodipodi:role="line"
         style="font-style:normal;font-variant:normal;font-weight:normal;font-stretch:normal;font-size:47.5px;font-family:Neucha;-inkscape-font-specification:Neucha"
         x="570.69611"
         y="2462.5771"
         id="tspan3683">Её бы чуток</tspan><tspan
         sodipodi:role="line"
         style="font-style:normal;font-variant:normal;font-weight:normal;font-stretch:normal;font-size:47.5px;font-family:Neucha;-inkscape-font-specification:Neucha"
         x="570.69611"
         y="2521.9521"
         id="tspan3459">поднастроить, но</tspan><tspan
         sodipodi:role="line"
         style="font-style:normal;font-variant:normal;font-weight:normal;font-stretch:normal;font-size:47.5px;font-family:Neucha;-inkscape-font-specification:Neucha"
         x="570.69611"
         y="2581.3271"
         id="tspan3461">бренчит неплохо.</tspan></text>
  </g>
</svg>
